<svg version="1.1" id="Layer_1" xmlns="http://www.w3.org/2000/svg" xmlns:xlink="http://www.w3.org/1999/xlink" x="0px" y="0px"
	 width="100%" viewBox="0 0 1280 639" enable-background="new 0 0 1280 639" xml:space="preserve">
<path fill="#351C77" opacity="1.000000" stroke="none" 
	d="
M738.000000,640.000000 
	C492.031952,640.000000 246.563919,640.000000 1.047938,640.000000 
	C1.047938,427.059692 1.047938,214.119370 1.047938,1.089529 
	C427.551422,1.089529 854.102844,1.089529 1280.827148,1.089529 
	C1280.827148,213.999893 1280.827148,426.999939 1280.827148,640.000000 
	C1100.119263,640.000000 919.309631,640.000000 738.000000,640.000000 
M183.477264,474.853485 
	C194.517609,466.612244 202.840912,468.405731 209.466171,480.621643 
	C210.879425,483.227448 212.071793,486.060760 212.748367,488.934631 
	C213.922226,493.920837 213.044739,498.745087 208.940079,502.126068 
	C205.211060,505.197693 200.374741,505.848785 196.256866,503.684082 
	C193.989990,502.492401 192.451233,499.109100 191.639465,496.397888 
	C191.359192,495.461823 194.189728,493.476746 195.750549,492.148682 
	C196.777924,491.274567 198.075882,490.718445 199.252640,490.019958 
	C198.022537,489.097626 196.552597,487.208496 195.609360,487.442474 
	C193.214279,488.036591 190.390152,489.043610 188.928909,490.849213 
	C184.908081,495.817749 186.914612,504.103699 192.436874,507.410828 
	C201.408249,512.783508 214.768478,507.564545 216.891449,497.372833 
	C219.306992,485.776581 214.308273,476.547516 205.754227,469.177490 
	C199.851364,464.091736 193.102158,463.605591 186.257645,467.462524 
	C179.248886,471.411957 173.847565,477.009094 170.378723,484.268066 
	C166.582352,492.212341 166.484802,500.369690 170.130341,508.396759 
	C170.646759,509.533875 172.443344,510.089569 173.647400,510.914398 
	C173.888977,509.631927 174.702576,508.113251 174.285355,507.102783 
	C168.971344,494.232544 173.499680,484.138519 183.477264,474.853485 
M1032.493896,444.010742 
	C1031.329468,447.081665 1029.817383,450.080627 1029.160400,453.256500 
	C1028.870239,454.659332 1030.313965,456.420868 1030.970459,458.019562 
	C1031.765991,456.635986 1033.027100,455.331512 1033.277832,453.855408 
	C1034.473145,446.816132 1038.645386,442.528625 1043.424805,440.329254 
	C1048.151367,446.106079 1051.712769,451.726685 1056.491577,455.979156 
	C1062.502319,461.327942 1070.072998,459.963837 1073.720825,453.989746 
	C1077.180054,448.324799 1074.741577,440.332123 1067.860718,437.326385 
	C1062.483276,434.977386 1056.586670,433.816803 1050.579102,432.026276 
	C1051.587646,425.614594 1055.733398,421.127228 1062.521973,419.171082 
	C1066.174072,418.118713 1070.018799,417.749573 1073.719604,416.840393 
	C1074.590454,416.626465 1075.231201,415.476288 1075.977783,414.756775 
	C1075.221802,414.058258 1074.386475,412.685028 1073.721802,412.763214 
	C1064.767700,413.816193 1054.116821,414.118896 1050.082886,422.975220 
	C1046.046143,431.837830 1039.568604,437.419434 1032.493896,444.010742 
M273.127869,142.498550 
	C264.260590,136.556610 260.949890,141.908127 261.033752,149.487167 
	C261.127716,157.977585 260.847870,166.475845 261.099792,174.959717 
	C261.340454,183.063766 262.055573,191.153717 262.634979,200.414612 
	C266.838867,198.892059 270.372101,198.280441 273.138489,196.486389 
	C281.769165,190.889252 287.111572,182.625397 289.120026,172.687317 
	C291.902008,158.921722 284.399109,149.965424 273.127869,142.498550 
M1199.568237,213.006851 
	C1197.140991,215.632660 1194.713745,218.258469 1191.841187,221.366104 
	C1188.037598,217.357574 1184.878174,213.690735 1181.315674,210.469589 
	C1180.181641,209.444214 1177.391357,208.720322 1176.375854,209.393127 
	C1173.770386,211.119171 1175.500244,213.206284 1177.177612,214.670395 
	C1180.904053,217.923279 1184.758057,221.030106 1187.435547,223.260025 
	C1182.882690,228.498489 1179.427979,232.142487 1176.413696,236.120255 
	C1175.353760,237.519089 1175.373779,239.736389 1174.900635,241.579987 
	C1176.743774,241.210266 1179.062134,241.417328 1180.341431,240.363266 
	C1184.265625,237.129929 1187.791382,233.412994 1191.613770,229.748199 
	C1195.416504,233.884705 1198.740723,237.851639 1202.489746,241.365356 
	C1203.616211,242.421127 1205.925537,242.214798 1207.692993,242.586624 
	C1207.453491,240.863846 1207.794556,238.689880 1206.869629,237.499832 
	C1203.629517,233.330826 1199.952881,229.501022 1196.419189,225.516678 
	C1197.099243,224.705170 1197.628540,224.065323 1198.166626,223.433014 
	C1201.505371,219.509171 1205.021118,215.715073 1208.054077,211.567734 
	C1208.750854,210.614975 1207.790405,208.450195 1207.592529,206.843201 
	C1206.177368,207.260468 1204.489868,207.332703 1203.414917,208.181046 
	C1202.024658,209.278275 1201.123047,210.995026 1199.568237,213.006851 
M13.783488,615.973816 
	C11.706520,615.973816 9.629552,615.973816 7.066771,615.973816 
	C7.391105,622.147766 7.673386,627.521240 7.948301,632.754456 
	C14.615048,632.754456 20.567629,632.754456 26.864742,632.754456 
	C26.864742,627.074829 26.864742,621.716553 26.864742,615.973938 
	C22.622229,615.973938 18.663483,615.973938 13.783488,615.973816 
M570.995361,127.189438 
	C570.167847,131.520401 569.340393,135.851349 568.467712,140.418976 
	C573.490234,141.580841 578.232483,142.677872 583.135864,143.812180 
	C584.431335,138.213638 585.571716,133.285385 586.811890,127.925812 
	C582.028625,126.980087 577.700073,126.055359 573.337585,125.336800 
	C572.690796,125.230263 571.883789,126.096664 570.995361,127.189438 
M969.026978,176.545593 
	C967.623596,178.562988 964.636169,181.128433 965.109558,182.496475 
	C966.615356,186.848465 969.409607,190.754623 971.305298,194.121353 
	C983.151855,188.735931 982.185364,180.854370 976.124390,172.087982 
	C975.881165,171.736313 975.571960,171.430252 975.107666,170.884338 
	C973.158813,172.691574 971.346680,174.372025 969.026978,176.545593 
M471.138489,562.414185 
	C470.406250,561.451904 469.674011,560.489563 468.779724,559.314331 
	C466.000641,563.327332 463.496033,566.944031 460.969086,570.592957 
	C464.173370,574.353638 467.114868,577.805969 470.009003,581.202698 
	C472.485107,577.473938 474.821472,573.955627 477.198975,570.375427 
	C475.328156,567.906982 473.437286,565.412048 471.138489,562.414185 
M902.821594,587.096619 
	C902.821594,585.533752 902.821594,583.970886 902.821594,581.986267 
	C896.225708,584.072632 890.035095,586.030884 882.881714,588.293640 
	C888.960205,593.265381 894.149170,597.509521 899.718994,602.065186 
	C900.805664,596.939331 901.764954,592.414307 902.821594,587.096619 
M141.125381,303.817230 
	C140.636154,304.601776 140.146927,305.386353 139.452698,306.499695 
	C145.763672,306.860260 151.591873,307.193268 158.664886,307.597412 
	C155.477432,301.476044 152.926605,296.577332 150.085648,291.121429 
	C146.980240,295.488800 144.214142,299.378998 141.125381,303.817230 
M819.794128,100.900238 
	C816.280762,101.515564 814.275513,103.832733 815.099426,107.111214 
	C815.580811,109.026657 817.721375,111.322586 819.598328,111.913368 
	C822.872498,112.943947 825.497375,110.960060 825.966003,107.502655 
	C826.490784,103.631172 824.494995,101.280586 819.794128,100.900238 
M815.708557,128.255524 
	C818.407532,124.189995 818.238403,120.395622 814.718750,119.280602 
	C812.663574,118.629532 809.268555,119.187180 807.816528,120.589157 
	C806.610779,121.753418 806.517334,125.392731 807.439148,127.140076 
	C808.981567,130.063980 812.057861,130.592087 815.708557,128.255524 
M834.629700,124.218552 
	C837.231384,120.113007 836.903198,116.609360 833.540588,115.011009 
	C830.179382,113.413300 827.101990,114.275299 825.788086,117.747787 
	C825.165283,119.393791 825.629333,122.059593 826.634827,123.579445 
	C828.418945,126.276230 831.280945,126.353607 834.629700,124.218552 
z"/>
<path fill="#F2F1F7" opacity="1.000000" stroke="none" 
	d="
M183.205292,475.095428 
	C173.499680,484.138519 168.971344,494.232544 174.285355,507.102783 
	C174.702576,508.113251 173.888977,509.631927 173.647400,510.914398 
	C172.443344,510.089569 170.646759,509.533875 170.130341,508.396759 
	C166.484802,500.369690 166.582352,492.212341 170.378723,484.268066 
	C173.847565,477.009094 179.248886,471.411957 186.257645,467.462524 
	C193.102158,463.605591 199.851364,464.091736 205.754227,469.177490 
	C214.308273,476.547516 219.306992,485.776581 216.891449,497.372833 
	C214.768478,507.564545 201.408249,512.783508 192.436874,507.410828 
	C186.914612,504.103699 184.908081,495.817749 188.928909,490.849213 
	C190.390152,489.043610 193.214279,488.036591 195.609360,487.442474 
	C196.552597,487.208496 198.022537,489.097626 199.252655,490.019958 
	C198.075882,490.718445 196.777924,491.274567 195.750549,492.148682 
	C194.189728,493.476746 191.359192,495.461823 191.639465,496.397888 
	C192.451233,499.109100 193.989990,502.492401 196.256866,503.684082 
	C200.374741,505.848785 205.211060,505.197693 208.940079,502.126068 
	C213.044739,498.745087 213.922226,493.920837 212.748367,488.934631 
	C212.071793,486.060760 210.879425,483.227448 209.466171,480.621643 
	C202.840912,468.405731 194.517609,466.612244 183.205292,475.095428 
z"/>
<path fill="#F2F1F7" opacity="1.000000" stroke="none" 
	d="
M1032.710938,443.727173 
	C1039.568604,437.419434 1046.046143,431.837830 1050.082886,422.975220 
	C1054.116821,414.118896 1064.767700,413.816193 1073.721802,412.763214 
	C1074.386475,412.685028 1075.221802,414.058258 1075.977783,414.756775 
	C1075.231201,415.476288 1074.590454,416.626465 1073.719604,416.840393 
	C1070.018799,417.749573 1066.174072,418.118713 1062.521973,419.171082 
	C1055.733398,421.127228 1051.587646,425.614594 1050.579102,432.026276 
	C1056.586670,433.816803 1062.483276,434.977386 1067.860718,437.326385 
	C1074.741577,440.332123 1077.180054,448.324799 1073.720825,453.989746 
	C1070.072998,459.963837 1062.502319,461.327942 1056.491577,455.979156 
	C1051.712769,451.726685 1048.151367,446.106079 1043.424805,440.329254 
	C1038.645386,442.528625 1034.473145,446.816132 1033.277832,453.855408 
	C1033.027100,455.331512 1031.765991,456.635986 1030.970459,458.019562 
	C1030.313965,456.420868 1028.870239,454.659332 1029.160400,453.256500 
	C1029.817383,450.080627 1031.329468,447.081665 1032.710938,443.727173 
M1057.110596,437.965881 
	C1054.840820,437.965881 1052.571045,437.965881 1050.287354,437.965881 
	C1050.582153,443.873230 1054.373779,449.734894 1059.751465,453.072601 
	C1063.204468,455.215790 1066.483521,455.927551 1069.383179,452.253174 
	C1071.710693,449.303864 1071.090088,444.765350 1067.372437,442.247742 
	C1064.571777,440.351044 1061.129761,439.401489 1057.110596,437.965881 
z"/>
<path fill="#F2F1F7" opacity="1.000000" stroke="none" 
	d="
M273.425140,142.694229 
	C284.399109,149.965424 291.902008,158.921722 289.120026,172.687317 
	C287.111572,182.625397 281.769165,190.889252 273.138489,196.486389 
	C270.372101,198.280441 266.838867,198.892059 262.634979,200.414612 
	C262.055573,191.153717 261.340454,183.063766 261.099792,174.959717 
	C260.847870,166.475845 261.127716,157.977585 261.033752,149.487167 
	C260.949890,141.908127 264.260590,136.556610 273.425140,142.694229 
M283.923431,176.150299 
	C289.743927,162.437088 279.750885,148.845825 266.094360,144.678650 
	C266.094360,161.271118 266.094360,177.774689 266.094360,195.243057 
	C275.703949,191.360596 279.944305,184.386749 283.923431,176.150299 
z"/>
<path fill="#F2F1F7" opacity="1.000000" stroke="none" 
	d="
M1199.789551,212.725952 
	C1201.123047,210.995026 1202.024658,209.278275 1203.414917,208.181046 
	C1204.489868,207.332703 1206.177368,207.260468 1207.592529,206.843185 
	C1207.790405,208.450195 1208.750854,210.614975 1208.054077,211.567734 
	C1205.021118,215.715073 1201.505371,219.509171 1198.166626,223.433014 
	C1197.628540,224.065323 1197.099243,224.705170 1196.419189,225.516678 
	C1199.952881,229.501022 1203.629517,233.330826 1206.869629,237.499832 
	C1207.794556,238.689880 1207.453491,240.863846 1207.692993,242.586624 
	C1205.925537,242.214798 1203.616211,242.421127 1202.489746,241.365356 
	C1198.740723,237.851639 1195.416504,233.884705 1191.613770,229.748199 
	C1187.791382,233.412994 1184.265625,237.129929 1180.341431,240.363266 
	C1179.062134,241.417328 1176.743774,241.210266 1174.900635,241.579987 
	C1175.373779,239.736389 1175.353760,237.519089 1176.413696,236.120255 
	C1179.427979,232.142487 1182.882690,228.498489 1187.435547,223.260025 
	C1184.758057,221.030106 1180.904053,217.923279 1177.177612,214.670395 
	C1175.500244,213.206284 1173.770386,211.119171 1176.375854,209.393127 
	C1177.391357,208.720322 1180.181641,209.444214 1181.315674,210.469589 
	C1184.878174,213.690735 1188.037598,217.357574 1191.841187,221.366104 
	C1194.713745,218.258469 1197.140991,215.632660 1199.789551,212.725952 
z"/>
<path fill="#F2F1F7" opacity="1.000000" stroke="none" 
	d="
M14.244114,615.973877 
	C18.663483,615.973938 22.622229,615.973938 26.864742,615.973938 
	C26.864742,621.716553 26.864742,627.074829 26.864742,632.754456 
	C20.567629,632.754456 14.615048,632.754456 7.948301,632.754456 
	C7.673386,627.521240 7.391105,622.147766 7.066771,615.973816 
	C9.629552,615.973816 11.706520,615.973816 14.244114,615.973877 
z"/>
<path fill="#F2F1F7" opacity="1.000000" stroke="none" 
	d="
M571.073120,126.851189 
	C571.883789,126.096664 572.690796,125.230263 573.337585,125.336800 
	C577.700073,126.055359 582.028625,126.980087 586.811890,127.925812 
	C585.571716,133.285385 584.431335,138.213638 583.135864,143.812180 
	C578.232483,142.677872 573.490234,141.580841 568.467712,140.418976 
	C569.340393,135.851349 570.167847,131.520401 571.073120,126.851189 
z"/>
<path fill="#F2F1F7" opacity="1.000000" stroke="none" 
	d="
M969.280762,176.299042 
	C971.346680,174.372025 973.158813,172.691574 975.107666,170.884338 
	C975.571960,171.430252 975.881165,171.736313 976.124390,172.087982 
	C982.185364,180.854370 983.151855,188.735931 971.305298,194.121353 
	C969.409607,190.754623 966.615356,186.848465 965.109558,182.496475 
	C964.636169,181.128433 967.623596,178.562988 969.280762,176.299042 
z"/>
<path fill="#F2F1F7" opacity="1.000000" stroke="none" 
	d="
M471.342468,562.665649 
	C473.437286,565.412048 475.328156,567.906982 477.198975,570.375427 
	C474.821472,573.955627 472.485107,577.473938 470.009003,581.202698 
	C467.114868,577.805969 464.173370,574.353638 460.969086,570.592957 
	C463.496033,566.944031 466.000641,563.327332 468.779724,559.314331 
	C469.674011,560.489563 470.406250,561.451904 471.342468,562.665649 
z"/>
<path fill="#F2F1F7" opacity="1.000000" stroke="none" 
	d="
M902.772949,587.492920 
	C901.764954,592.414307 900.805664,596.939331 899.718994,602.065186 
	C894.149170,597.509521 888.960205,593.265381 882.881714,588.293640 
	C890.035095,586.030884 896.225708,584.072632 902.821594,581.986267 
	C902.821594,583.970886 902.821594,585.533752 902.772949,587.492920 
z"/>
<path fill="#F2F1F7" opacity="1.000000" stroke="none" 
	d="
M141.286713,303.543213 
	C144.214142,299.378998 146.980240,295.488800 150.085648,291.121429 
	C152.926605,296.577332 155.477432,301.476044 158.664886,307.597412 
	C151.591873,307.193268 145.763672,306.860260 139.452698,306.499695 
	C140.146927,305.386353 140.636154,304.601776 141.286713,303.543213 
z"/>
<path fill="#F2F1F7" opacity="1.000000" stroke="none" 
	d="
M820.136719,100.892906 
	C824.494995,101.280586 826.490784,103.631172 825.966003,107.502655 
	C825.497375,110.960060 822.872498,112.943947 819.598328,111.913368 
	C817.721375,111.322586 815.580811,109.026657 815.099426,107.111214 
	C814.275513,103.832733 816.280762,101.515564 820.136719,100.892906 
z"/>
<path fill="#F2F1F7" opacity="1.000000" stroke="none" 
	d="
M815.419312,128.490997 
	C812.057861,130.592087 808.981567,130.063980 807.439148,127.140076 
	C806.517334,125.392731 806.610779,121.753418 807.816528,120.589157 
	C809.268555,119.187180 812.663574,118.629532 814.718750,119.280602 
	C818.238403,120.395622 818.407532,124.189995 815.419312,128.490997 
z"/>
<path fill="#F2F1F7" opacity="1.000000" stroke="none" 
	d="
M834.355225,124.464340 
	C831.280945,126.353607 828.418945,126.276230 826.634827,123.579445 
	C825.629333,122.059593 825.165283,119.393791 825.788086,117.747787 
	C827.101990,114.275299 830.179382,113.413300 833.540588,115.011009 
	C836.903198,116.609360 837.231384,120.113007 834.355225,124.464340 
z"/>
<path fill="#351C77" opacity="1.000000" stroke="none" 
	d="
M1057.541870,437.998108 
	C1061.129761,439.401489 1064.571777,440.351044 1067.372437,442.247742 
	C1071.090088,444.765350 1071.710693,449.303864 1069.383179,452.253174 
	C1066.483521,455.927551 1063.204468,455.215790 1059.751465,453.072601 
	C1054.373779,449.734894 1050.582153,443.873230 1050.287354,437.965881 
	C1052.571045,437.965881 1054.840820,437.965881 1057.541870,437.998108 
z"/>
<path fill="#351C77" opacity="1.000000" stroke="none" 
	d="
M283.759003,176.503128 
	C279.944305,184.386749 275.703949,191.360596 266.094360,195.243057 
	C266.094360,177.774689 266.094360,161.271118 266.094360,144.678650 
	C279.750885,148.845825 289.743927,162.437088 283.759003,176.503128 
z"/>
</svg>