<svg xmlns="http://www.w3.org/2000/svg" xmlns:xlink="http://www.w3.org/1999/xlink" id="Layer_1" data-name="Layer 1" viewBox="0 0 3809.78 1237.73"><defs><linearGradient id="linear-gradient-7" x1="209.94" x2="318.64" y1="-157.33" y2="-157.33" gradientTransform="rotate(-9.31 1619.63 372.951)" gradientUnits="userSpaceOnUse"><stop offset="0" stop-color="#5c5894"/><stop offset=".47" stop-color="#6862c1"/><stop offset="1" stop-color="#7e78e1"/></linearGradient><linearGradient xlink:href="#linear-gradient-8" id="linear-gradient-14" x1="1783.9" x2="1986.52" y1="-56.1" y2="-114.05" gradientTransform="rotate(32.43 1961.974 714.035)"/><linearGradient id="linear-gradient" x1="3665.85" x2="3695.04" y1="526.19" y2="526.19" gradientUnits="userSpaceOnUse"><stop offset="0" stop-color="#ce38bf"/><stop offset=".73" stop-color="#e051ca"/><stop offset="1" stop-color="#e85ccf"/></linearGradient><linearGradient xlink:href="#linear-gradient" id="linear-gradient-2" x1="2343.33" x2="2408.27" y1="635.02" y2="635.02"/><linearGradient xlink:href="#linear-gradient" id="linear-gradient-3" x1="2875.99" x2="2895.1" y1="220.45" y2="269.18"/><linearGradient xlink:href="#linear-gradient" id="linear-gradient-4" x1="2243.05" x2="2310.15" y1="144.47" y2="215.59"/><linearGradient xlink:href="#linear-gradient" id="linear-gradient-5" x1="472.24" x2="554.14" y1="239" y2="239"/><linearGradient xlink:href="#linear-gradient" id="linear-gradient-6" x1="428.98" x2="439.47" y1="167.24" y2="189.75"/><linearGradient xlink:href="#linear-gradient-8" id="linear-gradient-13" x1="1755.27" x2="1957.89" y1="32.56" y2="-25.4" gradientTransform="rotate(32.43 1961.974 714.035)"/><linearGradient id="linear-gradient-8" x1="225.23" x2="330.06" y1="-120.59" y2="-150.57" gradientTransform="rotate(-9.31 1619.63 372.951)" gradientUnits="userSpaceOnUse"><stop offset="0" stop-color="#7e78e1"/><stop offset=".09" stop-color="#7068dc"/><stop offset=".18" stop-color="#6661b8"/><stop offset=".26" stop-color="#6560b6"/><stop offset=".29" stop-color="#635eaf"/><stop offset=".3" stop-color="#625da9"/><stop offset=".31" stop-color="#6661b9"/><stop offset=".32" stop-color="#6b65ca"/><stop offset=".34" stop-color="#6f68d6"/><stop offset=".36" stop-color="#716add"/><stop offset=".43" stop-color="#726bdf"/><stop offset=".49" stop-color="#716add"/><stop offset=".51" stop-color="#6e67d6"/><stop offset=".52" stop-color="#6a63ca"/><stop offset=".53" stop-color="#6a63c8"/><stop offset=".58" stop-color="#6b64c9"/><stop offset=".61" stop-color="#726bce"/><stop offset=".62" stop-color="#7d77d6"/><stop offset=".63" stop-color="#8e88e2"/><stop offset=".64" stop-color="#948ee7"/><stop offset=".69" stop-color="#928ce6"/><stop offset=".71" stop-color="#8b85e4"/><stop offset=".72" stop-color="#7f79e1"/><stop offset=".72" stop-color="#7e78e1"/><stop offset=".9" stop-color="#645eb1"/><stop offset="1" stop-color="#5f5a9c"/></linearGradient><linearGradient xlink:href="#linear-gradient-7" id="linear-gradient-9" x1="194.19" x2="302.89" y1="-202.5" y2="-202.5"/><linearGradient xlink:href="#linear-gradient-8" id="linear-gradient-10" x1="209.48" x2="314.31" y1="-165.76" y2="-195.74"/><linearGradient xlink:href="#linear-gradient-8" id="linear-gradient-11" x1="193.5" x2="293.23" y1="-211.52" y2="-240.05"/><linearGradient xlink:href="#linear-gradient-7" id="linear-gradient-12" x1="1790.8" x2="1930.4" y1="-38.88" y2="-38.88" gradientTransform="rotate(32.43 1961.974 714.035)"/><clipPath id="clippath"><path d="M2.97 0h3806.81v1237.73H2.97z" style="fill:none;stroke-width:0"/></clipPath><style>.cls-1{fill:#351601}.cls-1,.cls-10,.cls-12,.cls-14,.cls-15,.cls-16,.cls-18,.cls-19,.cls-20,.cls-21,.cls-23,.cls-25,.cls-27,.cls-28,.cls-29,.cls-3,.cls-31,.cls-33,.cls-34,.cls-35,.cls-36,.cls-37,.cls-39,.cls-4,.cls-40,.cls-41,.cls-43,.cls-44,.cls-45,.cls-47,.cls-5,.cls-50,.cls-52,.cls-53,.cls-56,.cls-57,.cls-59,.cls-61,.cls-62,.cls-63,.cls-64,.cls-65,.cls-66,.cls-68,.cls-69,.cls-7,.cls-70,.cls-71,.cls-72,.cls-73,.cls-74,.cls-76,.cls-81,.cls-82,.cls-83,.cls-86,.cls-9,.cls-90,.cls-92{stroke-width:0}.cls-3{fill:#fcbe42}.cls-4{fill:#fefffe}.cls-5{fill:#fffcc0}.cls-7{fill:#ef4391}.cls-9{fill:#cc6a1f}.cls-10{fill:#5b0000}.cls-12{fill:#23af76}.cls-14{fill:#01b5d6}.cls-15{fill:#b52652}.cls-16{fill:#0f7da8}.cls-18,.cls-23,.cls-44,.cls-50,.cls-82,.cls-92{isolation:isolate}.cls-82{fill:#8e0303}.cls-18{opacity:.28}.cls-19{fill:#fc3d3d}.cls-21{fill:#f4b18c}.cls-23{opacity:.25}.cls-23,.cls-44{fill:#601805}.cls-25{fill:#9b3c0d}.cls-27{fill:#e32a3a}.cls-28{fill:#ad3c23}.cls-29{fill:#461d14}.cls-31{fill:#f73786}.cls-33{fill:#e0956c}.cls-34{fill:#e83700}.cls-35{fill:#e04c12}.cls-36{fill:#ffc19f}.cls-37{fill:#0f823d}.cls-39{fill:#9c75d3}.cls-40{fill:#752912}.cls-41{fill:#ff9797}.cls-43{fill:#fff}.cls-44{opacity:.19}.cls-45{fill:#c1796b}.cls-47{fill:#007fb7}.cls-50{fill:#6b1808}.cls-50,.cls-82{opacity:.14}.cls-52{fill:#ef8f6f}.cls-53{fill:#8943c2}.cls-56{fill:#994710}.cls-57{fill:#c4735b}.cls-59{fill:#992020}.cls-61{fill:#ffcb00}.cls-62{fill:#701608}.cls-63{fill:#224966}.cls-64{fill:#f4b400}.cls-65{fill:#7c3929}.cls-66{fill:#1aa7d3}.cls-68{fill:#ff4f5d}.cls-69{fill:#0875a5}.cls-70{fill:#ffd5c7}.cls-71{fill:#13b7b7}.cls-72{fill:#b459ff}.cls-73{fill:#dd6b5b}.cls-74{fill:#fff8b3}.cls-76{fill:#49130a}.cls-81{fill:#f9feff}.cls-83{fill:#d3dae5}.cls-86{fill:#c1411a}.cls-90{fill:#ed3a61}.cls-92{opacity:.11}</style></defs><g style="clip-path:url(#clippath)"><path d="M763.48 41.51s23.95-10.03 59.93 1.27c35.98 11.3 50.88 5.6 50.88 5.6l12.63-8.5s12.65-.68-11.42-9.96c-24.08-9.28-103.2-17.82-111.71-3.59-11.44 19.09-.31 15.18-.31 15.18Z" class="cls-53"/><path d="M769.69 22.2s-16.89 6.26-28.93 17.66c-5.89 5.55 5.99 23.82 44.44 28.55 0 0 5.06 1.75 18.9-2.61 13.86-4.35 24.2-7.99 22.46-10.09 0 0-11.57.18-23.97-3.83-7.83-2.53-11.96-4.93-22.03-11.01-16.28-9.82-16.32-16.64-10.86-18.66Z" class="cls-72"/><path d="M890.13 38.4s3.53 3.8-20.71 13.04c-11.13 4.25-27.52 4.91-39.57 1.18-4.17-1.29-8.88-3-14.09-5.23-27.42-11.76-38.82-26.73-28.74-33.79C807.51-.77 821.54-5.09 829.04-6.5c0 0-23.82 6.68-7.35 23.29 18.78 18.93 59.83 28.52 68.44 21.61ZM3178.23 149.68s-12.64-7.56-45.45-8.81c-32.82-1.25-52.48 5.96-88.99-7.87 0 0 18.12 16.6 56.49 18.82 38.36 2.21 62.89-3.9 85.11 7.37l-7.16-9.5Z" class="cls-72"/><path d="M1382.99 288.58s21.9 14.1-13.96 30.61c-35.88 16.51-23.66 25.18-23.66 25.18l19.94 8s-.47 6.63 28.03-4.1c28.49-10.74 64.84-49.93 29.23-56.84-47.78-9.28-39.58-2.86-39.58-2.86Z" class="cls-53"/><path d="M1432.29 295.21s-13.33-9.8-40.96-18.03c-13.44-4.01-63.21-1.15-82.4 17.79 0 0-5.46 2.29 3.44 10.19 8.9 7.9 16.58 13.87 22.36 13.35 0 0 1.59-5.98 14.27-11.65 8-3.58 14.98-5.28 32.65-9.38 28.52-6.63 46.31-5.44 50.63-2.27Z" class="cls-72"/><path d="M1368.62 354.3s-10.56 1.13-30.36-12.97c-9.1-6.48-7.91-15.04 3.96-20.57 4.12-1.91 9.4-4.04 16.16-6.32 35.57-12.01 76.64-15.22 93.28-8.78 33.86 13.1 42.63 21.09 44.97 25.19 0 0-13.2-13.44-59.46-7.92-52.75 6.3-85.06 25.72-68.55 31.37ZM1974.64 459.26s9.84 10.13 46.52 15.48c36.68 5.35 63.47-.53 96.75 19.62 0 0-10.61-21.11-53.03-28.22-42.43-7.11-74.12-3.07-92.64-18.58l2.4 11.7Z" class="cls-72"/><path d="M3342.14 511.3c-34.42-6.8-50.68-11.94-76.45-24.13-7.77 4.85-11.65 7.28-19.42 12.13 25.77 12.19 42.04 17.33 76.45 24.13 7.76-4.85 11.65-7.28 19.42-12.13ZM555.97 19.88c41.8 2.96 62.81 6.44 98.76 16.36 5.27-6.27 7.91-9.4 13.16-15.67-35.94-9.92-56.96-13.4-98.75-16.35-5.27 6.27-7.91 9.4-13.17 15.67ZM2449.36 311.99c11.09 27.27 10.41 41.94-3.19 68.98 22.2.2 33.3.3 55.5.51 13.59-27.04 14.27-41.72 3.19-68.98-22.21-.2-33.31-.3-55.5-.51ZM1770.27-14.61c-25.53 12.74-41.8 18.16-76.45 25.51 8.2 4.85 12.3 7.28 20.52 12.13 34.66-7.34 50.93-12.77 76.46-25.51-8.21-4.85-12.31-7.28-20.53-12.13ZM991.92 107.52c-32.12 19.9-53.5 28.74-100.5 41.54l33.43 15.95c46.99-12.81 68.37-21.65 100.49-41.54-13.37-6.38-20.05-9.57-33.42-15.94ZM3375.81 191.47c94.1 10.2 139.12 18.23 211.6 37.77 19.44-8.4 29.16-12.59 48.61-20.99-72.47-19.53-117.5-27.57-211.59-37.77l-48.61 20.98Z" class="cls-68"/><path d="M354.79 6.24c14.47 3.66 21.12 6.23 31.26 12.09 3.89-1.99 5.84-2.98 9.74-4.96-10.15-5.86-16.8-8.44-31.27-12.1-3.89 1.99-5.83 2.98-9.72 4.96ZM764.41 127.31c14.47 3.66 21.12 6.23 31.26 12.1 3.89-1.99 5.84-2.98 9.73-4.96-10.14-5.86-16.8-8.44-31.26-12.1-3.89 1.98-5.84 2.97-9.73 4.96ZM2283.52 873.48c-10.33 9.5-17.95 13.95-35.76 20.93 6.73 2.27 10.09 3.41 16.83 5.68 17.82-6.97 25.44-11.43 35.77-20.93-6.74-2.27-10.1-3.41-16.84-5.67ZM2526.04 115.84c-13.45-14.01-23.74-20.65-48.38-31.25l25.16-7.67c24.62 10.59 34.92 17.24 48.37 31.25-10.06 3.07-15.09 4.6-25.15 7.68ZM1354.89 10.71c16.35-12.32 21.93-19.47 26.24-33.64 10.82 1.66 16.23 2.5 27.06 4.16-4.31 14.16-9.9 21.32-26.24 33.64-10.82-1.67-16.23-2.5-27.07-4.16ZM3514.69 762.01c-14.71 5.23-21.12 8.63-30.11 15.99l-12.86-4.78c8.99-7.35 15.39-10.76 30.11-15.99 5.14 1.91 7.71 2.87 12.86 4.78ZM1647.48 86.46c-21.15 13.18-29.02 21.01-37 36.79-11.85-2.34-17.77-3.52-29.61-5.87 7.98-15.79 15.85-23.62 36.99-36.8 11.85 2.35 17.77 3.53 29.61 5.87ZM2113.49 691.1c-9.19 4.67-12.87 7.53-17.26 13.42-4.32-1.09-6.48-1.64-10.8-2.74 4.4-5.89 8.06-8.75 17.27-13.42 4.32 1.09 6.47 1.64 10.79 2.74ZM3647.48 89.98c1.67-10.09.17-15.41-7.11-25 8.05-.45 12.07-.68 20.12-1.13 7.28 9.59 8.78 14.91 7.1 25-8.05.45-12.07.68-20.11 1.13Z" class="cls-61"/><path d="M3433.84 491.05c3.51 1.62 5.81 2.18 10.81 2.58-1.34 1.1-2 1.65-3.32 2.76-4.99-.4-7.3-.95-10.82-2.58 1.33-1.1 2-1.65 3.34-2.76ZM3618.26 317.64c14.81-7.01 19.55-11.48 22.26-21.02 10.86 2.27 16.31 3.4 27.18 5.67-2.72 9.54-7.46 14.01-22.26 21.03-10.88-2.27-16.32-3.41-27.18-5.68ZM3824.71 129.57c-15.97-3.13-24.91-3.54-42-1.91 1-4.29 1.49-6.43 2.49-10.7 17.07-1.63 26-1.22 41.98 1.91-.99 4.28-1.48 6.42-2.47 10.7ZM3759.22 517.9c-23.88 2.13-34.81 4.85-51.34 12.79-6.61-5.23-9.93-7.85-16.53-13.09 16.53-7.94 27.45-10.66 51.33-12.79 6.61 5.24 9.92 7.85 16.54 13.08ZM3618.93 630.71c-5.33 2.96-6.88 4.78-7.29 8.56-4.42-.75-6.63-1.12-11.05-1.86.4-3.78 1.95-5.6 7.29-8.56 4.41.74 6.63 1.11 11.05 1.86ZM3460.2 397.85c5.68-2.2 7.68-3.67 9.38-6.92 3.58.96 5.36 1.43 8.94 2.39-1.7 3.26-3.69 4.73-9.36 6.92-3.59-.96-5.37-1.44-8.96-2.39ZM3467.17 490.16c18.66-6.11 25.6-10.42 32.64-20.22 10.46 3.33 15.67 4.99 26.14 8.32-7.03 9.81-13.98 14.11-32.64 20.22-10.45-3.33-15.67-4.99-26.13-8.31Z" class="cls-68"/><path d="M3168.81 451.55c-11.42 4.23-15.49 7.11-19.13 13.51-6.99-1.95-10.49-2.93-17.48-4.88 3.65-6.4 7.72-9.28 19.14-13.51 6.98 1.95 10.49 2.92 17.47 4.87Z" class="cls-61"/><path d="M2805.63 491.77c25.98-2.57 37.77-5.65 55.41-14.49 7.49 5.65 11.25 8.47 18.74 14.12-17.65 8.84-29.43 11.93-55.4 14.5-7.5-5.66-11.25-8.47-18.75-14.12Z" class="cls-68"/><path d="M2102.4 365.41c13.98 3.39 22.03 4.06 37.81 3.16-1.64 3.85-2.44 5.78-4.07 9.64-15.8.9-23.84.23-37.81-3.16l4.07-9.64Z" class="cls-61"/><path d="M1849.31 636.34c-5.09-1.08-7.97-1.25-13.54-.8.41-1.38.63-2.07 1.04-3.45 5.56-.45 8.44-.28 13.54.8-.41 1.38-.62 2.08-1.04 3.45ZM1663.48 416.57c-6.12-10.97-13.03-15.91-32.49-23.2 12-3.32 18-4.97 29.99-8.28 19.46 7.29 26.37 12.23 32.5 23.2-12 3.31-18.01 4.97-30 8.28ZM1911.88 640.76c3.8-3.11 4.54-4.91 3.51-8.41 4.34.36 6.51.53 10.86.89 1.05 3.51.31 5.3-3.5 8.41-4.34-.36-6.51-.54-10.87-.89ZM1793.08 467.52c3.76 5.47 7.57 7.88 17.83 11.32-5.85 1.82-8.77 2.73-14.63 4.54-10.27-3.45-14.07-5.85-17.84-11.32 5.85-1.82 8.79-2.73 14.64-4.55ZM1385.63 641.23c16.43-1.21 24.03-2.97 35.73-8.23 4.26 3.64 6.38 5.47 10.64 9.11-11.69 5.26-19.3 7.02-35.73 8.23-4.25-3.64-6.38-5.46-10.64-9.11ZM724.51 504.67c22.68-2.75 32.81-5.69 47.54-13.82 7.15 4.85 10.73 7.27 17.87 12.11-14.74 8.13-24.85 11.07-47.53 13.83a27719 27719 0 0 1-17.88-12.12ZM402.98 634.22c-1.54-2.27-3.11-3.27-7.36-4.71 2.43-.75 3.65-1.13 6.09-1.87 4.24 1.43 5.82 2.44 7.36 4.71-2.43.75-3.66 1.12-6.1 1.87ZM214.51 461.32c4.67 5.01 8.73 7.13 19.12 9.96-5.15 1.95-7.72 2.93-12.88 4.88-10.38-2.84-14.46-4.96-19.13-9.97l12.89-4.88ZM352.75 503.41c-6 5.71-6.9 8.92-4.22 15.1-7.81-.43-11.72-.65-19.53-1.08-2.67-6.18-1.78-9.39 4.22-15.1 7.82.43 11.73.65 19.53 1.08ZM-36.71 239.31c15.4-6.82 20.5-11.25 23.94-20.78 10.75 2.45 16.12 3.67 26.86 6.11-3.44 9.54-8.55 13.96-23.94 20.78-10.75-2.44-16.12-3.67-26.86-6.1ZM469.66 850.88c4.37 7.88 9.33 11.42 23.29 16.66-8.62 2.37-12.93 3.57-21.54 5.94-13.96-5.24-18.92-8.79-23.3-16.67 8.61-2.38 12.92-3.57 21.54-5.94ZM1179.73-5.71c-24.29 1.05-35.78 3.27-54.06 10.44-5.4-5.51-8.1-8.26-13.49-13.77 18.29-7.18 29.78-9.4 54.05-10.45 5.39 5.51 8.1 8.27 13.5 13.78ZM1625.53 206.64c-7.67 9.31-8.09 14.4-1.98 23.94l-30.94-.5c-6.1-9.53-5.68-14.63 1.96-23.94l30.95.5ZM261.33 640.84c-2.01-9.5-6.39-14.01-20.58-21.18 10.95-2.1 16.43-3.15 27.39-5.24 14.19 7.17 18.57 11.68 20.58 21.18-10.95 2.1-16.43 3.15-27.39 5.24ZM1901.06 1047.18c-15.38 2.75-21.91 5.19-30.71 11.42-5.9-3.13-8.85-4.7-14.76-7.83 8.81-6.23 15.35-8.66 30.72-11.42l14.76 7.83ZM2775.64 855.91c-6.11-3.12-10.21-4.21-19.28-5.15 2.65-1.97 3.98-2.95 6.65-4.92 9.07.93 13.17 2.03 19.3 5.15-2.67 1.97-4.01 2.95-6.68 4.92ZM1120.27 438.88c-1.89-11.49-6.91-16.98-23.63-25.79 13.33-2.41 20-3.61 33.34-6.02 16.71 8.81 21.74 14.3 23.63 25.79-13.33 2.41-20.01 3.61-33.34 6.02ZM983.91 688.25c10.61-.92 15.48-2.11 22.85-5.61 2.9 2.33 4.36 3.49 7.26 5.83-7.39 3.5-12.25 4.7-22.86 5.61-2.9-2.33-4.35-3.49-7.25-5.83ZM3414.67 1029.23c-17.48 9.06-22.79 14.73-24.96 26.62-13.77-2.54-20.66-3.81-34.42-6.36 2.18-11.89 7.49-17.56 24.96-26.62 13.77 2.55 20.65 3.82 34.42 6.37ZM2556.57 217.71c-16.18-7.35-26.72-9.81-49.53-11.54 5.98-5.05 8.95-7.57 14.93-12.62 22.81 1.74 33.34 4.2 49.52 11.55-5.96 5.05-8.96 7.57-14.92 12.62ZM1878.32 96.05c-20.55-.09-30.65 1.32-47.4 6.6-3.41-4.84-5.12-7.25-8.53-12.09 16.76-5.28 26.85-6.68 47.41-6.59 3.42 4.83 5.11 7.25 8.53 12.08ZM2064.08 246.1c15.92 7.06 26.22 9.4 48.44 10.97-5.67 4.94-8.5 7.4-14.17 12.35-22.22-1.57-32.53-3.9-48.45-10.97 5.68-4.94 8.52-7.4 14.18-12.34ZM1936.36 342.33c-10.46 5.63-13.58 9.13-14.6 16.41-8.48-1.49-12.73-2.24-21.22-3.73 1.03-7.28 4.14-10.77 14.6-16.4 8.48 1.49 12.73 2.23 21.22 3.72Z" class="cls-68"/><path d="M1822.02 261.52c-24.05-3.48-37.05-3.49-61.12-.04.01-6.23.03-9.34.04-15.58 24.07-3.45 37.06-3.44 61.12.03-.02 6.23-.03 9.35-.04 15.58Z" class="cls-61"/><path d="M3818.57 916.99c-8.65 2.84-11.86 4.84-15.1 9.39l-12.15-3.85c3.24-4.55 6.47-6.55 15.11-9.39 4.86 1.54 7.28 2.31 12.14 3.85ZM2782.4 343.6c-17.72-4.55-28.01-5.53-48.39-4.6 2.39-4.94 3.58-7.4 5.96-12.33 20.38-.93 30.66.05 48.39 4.6-2.39 4.93-3.59 7.4-5.95 12.33ZM1645.83 706.27c-1.84 5.78-.68 8.74 5.47 13.9-7.19.56-10.78.83-17.97 1.39-6.15-5.16-7.31-8.12-5.47-13.9l17.97-1.4ZM3228.87 12.37c-14.68 9.5-18.47 15.18-17.81 26.69-13.81-1.82-20.7-2.73-34.51-4.54-.65-11.51 3.14-17.19 17.81-26.69 13.8 1.82 20.71 2.72 34.5 4.54Z" class="cls-68"/><path d="M2344.92 244.43c-11.84-1.27-18.09-1.07-29.36.99-.51-2.99-.78-4.49-1.28-7.48 11.27-2.05 17.52-2.26 29.36-.99.51 2.99.76 4.48 1.28 7.48Z" class="cls-61"/><path d="M3147.87 780.92c18.7 7.04 30.37 9.17 54.81 9.99-5.17 5.59-7.76 8.38-12.93 13.97-24.44-.83-36.09-2.96-54.8-9.99 5.16-5.59 7.76-8.38 12.92-13.97ZM1931.18 160.02c7.47 7.52 13.8 10.67 29.78 14.81-7.66 3.04-11.48 4.56-19.14 7.59-15.97-4.14-22.31-7.29-29.77-14.8 7.65-3.04 11.48-4.56 19.14-7.6ZM1020.11 811.37c-6.44-4.16-11.07-5.74-21.78-7.42 3.85-2.23 5.76-3.33 9.6-5.56 10.71 1.69 15.35 3.27 21.78 7.42-3.85 2.22-5.76 3.33-9.6 5.56ZM685.59 931.71c-19.43-6.95-31.42-8.98-56.34-9.54 4.92-5.75 7.41-8.62 12.32-14.37 24.92.57 36.91 2.6 56.35 9.54-4.94 5.74-7.41 8.62-12.34 14.36ZM236.75 1054.54c-7.25-10.45-14.53-15.06-34.21-21.64 11.19-3.49 16.78-5.23 27.96-8.72 19.69 6.58 26.97 11.18 34.22 21.64-11.18 3.49-16.79 5.23-27.97 8.72ZM462.78 90.38c-7.61 9.71-7.87 15-1.19 24.85-12.86-.12-19.28-.18-32.14-.31-6.66-9.85-6.41-15.14 1.2-24.85 12.86.12 19.28.19 32.13.31ZM74.76 567.62c5.13 1.25 8.1 1.5 13.92 1.18-.61 1.42-.91 2.13-1.53 3.55-5.82.32-8.78.07-13.92-1.18.61-1.42.92-2.13 1.53-3.55ZM54.4 307.14c-.77 7.24 1.43 10.84 10.38 16.9-8.74 1.06-13.12 1.59-21.86 2.64-8.94-6.07-11.15-9.66-10.38-16.9 8.74-1.06 13.1-1.59 21.85-2.64Z" class="cls-68"/><path d="M2723.84 821.18c5.31 3.92 9.32 5.46 18.79 7.25-3.74 1.92-5.62 2.88-9.35 4.79-9.49-1.78-13.49-3.33-18.8-7.25 3.74-1.91 5.62-2.87 9.36-4.79ZM3055.91 690.93c9.06-2.73 12.52-4.7 16.25-9.27 4.79 1.66 7.19 2.49 11.99 4.14-3.73 4.57-7.2 6.54-16.26 9.27-4.79-1.66-7.19-2.49-11.98-4.14ZM1711.57 151.84c-9.25.78-13.5 1.82-19.94 4.86-2.52-2.03-3.77-3.05-6.29-5.09 6.45-3.04 10.71-4.08 19.94-4.86 2.52 2.03 3.77 3.05 6.29 5.09ZM880.51 181.28c8.71 9.07 16.22 12.89 35.26 17.96-9.29 3.6-13.94 5.39-23.22 8.99-19.04-5.07-26.54-8.9-35.26-17.96 9.29-3.6 13.93-5.39 23.22-8.99ZM686.57 380.85c11.94 7.68 20.53 10.59 40.35 13.69-7.09 4.11-10.62 6.16-17.69 10.28-19.82-3.1-28.4-6.02-40.35-13.69 7.07-4.11 10.61-6.17 17.69-10.28ZM940.48 874.03c12.63-1.59 18.22-3.25 26.36-7.83 4.04 2.69 6.07 4.03 10.12 6.72-8.13 4.57-13.74 6.24-26.36 7.82l-10.12-6.72ZM1453.86 485.5c-1.24 13.13 2.85 19.63 19.18 30.58-15.82 1.95-23.72 2.93-39.54 4.88-16.33-10.95-20.41-17.46-19.16-30.58 15.82-1.96 23.73-2.93 39.52-4.89ZM3461.69 41.66c-15.45.55-22.81 1.9-34.58 6.37-3.3-3.52-4.96-5.28-8.25-8.81 11.78-4.47 19.15-5.83 34.59-6.38 3.29 3.53 4.95 5.29 8.24 8.82ZM3142.23 302.22c17.32.84 26.1.03 41.25-3.79 1.97 4.2 2.95 6.31 4.9 10.51-15.14 3.83-23.92 4.64-41.25 3.8-1.95-4.21-2.93-6.31-4.9-10.51ZM1329.68 87.46c-6.8 7.56-7.43 11.73-2.94 19.62l-25.36-.75c-4.48-7.89-3.86-12.06 2.93-19.61l25.37.75ZM2540.99 471.15c6.69 9.9 13.49 14.28 31.99 20.55-10.63 3.26-15.94 4.89-26.56 8.15-18.5-6.27-25.31-10.64-31.99-20.55 10.62-3.26 15.94-4.89 26.57-8.15ZM1314.56 793.08c-4.38-8.51-9.56-12.37-24.35-18.12 9.37-2.49 14.05-3.73 23.41-6.21 14.8 5.75 19.98 9.61 24.36 18.12l-23.43 6.2ZM1195.18 220.51c-4.79-8.56-10.19-12.4-25.37-18.08 9.34-2.59 14.03-3.88 23.37-6.47 15.18 5.68 20.59 9.52 25.38 18.08-9.35 2.59-14.02 3.89-23.38 6.47ZM1008.59 595.8c-18.42-4.48-29.04-5.37-49.87-4.2 2.17-5.08 3.26-7.63 5.44-12.71 20.83-1.17 31.44-.28 49.86 4.2-2.17 5.08-3.25 7.62-5.43 12.71ZM614.64 729.18c13.89 2.25 21.48 2.37 35.69.58-.3 3.64-.44 5.46-.74 9.09-14.21 1.8-21.81 1.68-35.69-.57.29-3.64.44-5.46.74-9.1ZM379.46 369.99c-18.74-1.37-28.4-.71-45.38 3.06-1.59-4.63-2.39-6.94-3.97-11.57 16.99-3.78 26.64-4.43 45.41-3.07 1.57 4.63 2.37 6.94 3.95 11.57Z" class="cls-14"/><path d="M3665.85 533.37c7.65-5.99 9.23-9.44 7.53-16.28 8.41.77 12.62 1.15 21.03 1.92 1.72 6.83.11 10.29-7.53 16.27-8.42-.77-12.63-1.15-21.04-1.92Z" style="fill:url(#linear-gradient);stroke-width:0"/><path d="M2372.54 652.56c-3.55-12.54-9.76-18.42-29.2-27.65 14.31-2.98 21.45-4.47 35.74-7.44 19.45 9.22 25.66 15.11 29.2 27.65-14.29 2.98-21.43 4.46-35.74 7.44Z" style="fill:url(#linear-gradient-2);stroke-width:0"/><path d="M2881.62 264.41c-3.24-13.25-9.57-19.5-29.7-29.37 15.19-3.03 22.77-4.55 37.97-7.57 20.13 9.88 26.45 16.13 29.71 29.37-15.19 3.03-22.78 4.54-37.98 7.57Z" style="fill:url(#linear-gradient-3);stroke-width:0"/><path d="M2260.43 156.81c12.73 11.15 22.94 15.71 47.99 21.43-11.08 4.89-16.62 7.34-27.71 12.23-25.04-5.71-35.24-10.27-47.99-21.43 11.09-4.89 16.62-7.34 27.71-12.23Z" style="fill:url(#linear-gradient-4);stroke-width:0"/><path d="M472.24 235.36c29.98-.13 44.59-2.31 68.69-10.23 5.28 7 7.94 10.5 13.22 17.51-24.09 7.91-38.71 10.09-68.69 10.23-5.29-7-7.93-10.5-13.22-17.51Z" style="fill:url(#linear-gradient-5);stroke-width:0"/><path d="M437.26 160.18c.14 8.36 3.19 12.43 14.35 19.17-9.91 1.46-14.87 2.19-24.78 3.66-11.15-6.73-14.2-10.81-14.34-19.17 9.91-1.46 14.86-2.2 24.77-3.66Z" style="fill:url(#linear-gradient-6);stroke-width:0"/><path d="M241.83 76.16s19.92-5.79 2.32-14.23c0 0-9.2-4.01-81.64-2.14l-21.35 8.09.96 2.6c-1.75-.41-.2.55 14.29.49 13.42-.05 53.47-1.18 85.4 5.19Z" style="fill:url(#linear-gradient-7);stroke-width:0"/><path d="M156.99 100.27s-1.94 3.69 8.47 13.05c0 0 1.54-6.38 21.6-10.64 20.04-4.26 61.26-11.79 67.51-21.71 0 0 2.15-2.76 2.04-6.05-.1-3.13-3.89-10.14-12.45-12.99 0 0 15.01 5.89-9.3 15.67-12.73 5.12-71.11 18.98-77.86 22.67Z" style="fill:url(#linear-gradient-8);stroke-width:0"/><path d="M218.97 34.13s19.93-5.79 2.33-14.23c0 0-9.21-4.01-81.64-2.13L121.4 22.1l-2.12 6.35c-1.75-.4-.21.55 14.29.5 13.41-.05 53.47-1.18 85.4 5.19Z" style="fill:url(#linear-gradient-9);stroke-width:0"/><path d="M134.14 58.24s-1.94 3.68 8.46 13.04c0 0 1.55-6.38 21.6-10.64 20.05-4.26 61.27-11.79 67.52-21.71 0 0 2.15-2.76 2.04-6.05-.1-3.13-3.89-10.14-12.45-12.99 0 0 15.01 5.89-9.3 15.67-12.74 5.12-71.11 18.98-77.86 22.67Z" style="fill:url(#linear-gradient-10);stroke-width:0"/><path d="M111.07 15.61s-1.94 3.69 8.46 13.05c0 0 1.55-6.38 21.6-10.64 20.05-4.26 61.27-11.79 67.51-21.72l-8.96-9.09c-2.13 1.72-5.54 3.64-10.75 5.73-12.74 5.12-71.11 18.98-77.86 22.67Z" style="fill:url(#linear-gradient-11);stroke-width:0"/><path d="M2312.78 58.31s36.76 2.45 36-15.49c0 0-1.35-8.91-90.05-40.14l-43.76-.43-4.96 3.46c-1.09-1.28-1.51.55 15.48 7.17 15.73 6.13 65.02 23.28 87.29 45.42Z" style="fill:url(#linear-gradient-12);stroke-width:0"/><path d="M2157.63 47.27s-10.89 3.39-20.67 19.09c0 0 16.71-6.71 50.03-2.43 33.29 4.29 98.89 14.53 129.38 5.85 0 0 8.95-2.22 16.53-6.1 7.2-3.68 19.19-13.6 15.88-20.86 0 0 3.7 13.78-47.48 13.95-26.81.09-127.18-10.7-143.67-9.51Z" style="fill:url(#linear-gradient-13);stroke-width:0"/><path d="M2229.34-12.2s-10.88 3.4-20.66 19.09c0 0 16.72-6.72 50.03-2.43 33.3 4.29 98.89 14.53 129.38 5.86 0 0 8.95-2.22 16.53-6.1 7.19-3.68 19.19-13.6 15.87-20.86 0 0 3.7 13.78-47.48 13.95-26.81.09-127.18-10.7-143.67-9.51Z" style="fill:url(#linear-gradient-14);stroke-width:0"/><path d="M860 370.8s18.4-12.25-14.5-18.79c0 0-16.71-2.9-107.18 17.04l-17.39 15.53 4.42 3.09c-2.75-.09.41.75 18.91-2.83 17.12-3.31 67.02-14.47 115.74-14.04Z" class="cls-27"/><path d="M780.99 422.23s2.04 5.19 26.86 14.66c0 0-5.85-8.54 14.59-18.85 20.44-10.31 63.97-29.94 59.78-44.16 0 0-.64-4.06-4.81-8.24-3.97-3.98-17.44-12.05-31.9-13.62 0 0 26.45 3.9 7.34 22.32-10.02 9.64-67.75 41.53-71.85 47.89Z" class="cls-68"/><path d="M779.1 322.5s18.41-12.25-14.49-18.79c0 0-16.71-2.9-107.18 17.04l-18.07 9.96 5.1 8.65c-2.75-.09.41.75 18.91-2.83 17.13-3.31 67.02-14.46 115.73-14.04Z" class="cls-27"/><path d="M700.09 373.93s2.03 5.19 26.85 14.66c0 0-5.85-8.55 14.6-18.86 20.44-10.31 63.96-29.94 59.78-44.16 0 0-.64-4.05-4.82-8.24-3.97-3.98-17.45-12.05-31.89-13.62 0 0 26.45 3.91 7.33 22.32-10.02 9.64-67.75 41.53-71.85 47.89ZM618.19 324.93s2.04 5.19 26.86 14.66c0 0-5.85-8.54 14.59-18.85 20.44-10.31 63.97-29.94 59.78-44.16l-22.65-9.48c-.62 2.72-2.63 6-6.72 9.95-10.02 9.64-67.75 41.53-71.86 47.89Z" class="cls-68"/></g><path d="M1129.44 744.36c-42.96 36.02 45.67 185.45 67.66 222.72-22.25 15.14-20.92 13.56-44.43 26.04-59.87-82.35-113.21-189.08-157.11-280.63-6.46-119.2 39.02-79.04 94.77-58.94 59.07 21.3 103.79 23.66 89.37 75.32-20.76-.23-38.19 5.36-50.27 15.48h.01Z" class="cls-9"/><path d="m1178 1039.3 51.52-34.03c-4.92-8.87-46.93-70.25-52.63-80.76l-52.48 35.2c8.36 8.38 10.85 13.25 15.37 17.98 3.94 4.13 35.52 59.23 38.23 61.61h-.01Z" class="cls-74"/><path d="M1242.12 1020.42c-1.37 32.33-30.69 48.65-47.82 43.54-8.15-2.43-20.3-11.33-29.14-37.57 17.85-6.84 60.07-15.57 70.33-16.14 1.86 2.58 3.83 5.34 6.62 10.16h.01Z" class="cls-15"/><path d="M1236.5 1011.68c-4.05 35.03-34.08 54.59-59.53 34.85-11.55-8.96-8.39-13.05-25.32-47.38-2.17-2.95-6.56-10.05-12.7-17.85 7.08-18.65 40.66-39.31 54.3-33.04 6.02 12.35 29.65 44.26 43.25 63.43Z" class="cls-7"/><path d="M1167.18 999.68c.76-3.89 4.95-9.06 10.72-13.16.18-.15.37-.28.57-.42 5.76-3.97 11.89-5.98 16.54-5.54.45.04.91-.08 1.28-.34s.64-.64.75-1.09c.19-.88-.41-1.68-1.34-1.78-5.56-.59-12.48 1.68-19.06 6.21l-.66.45c-6.56 4.69-11.24 10.57-12.18 15.36-.17.89.45 1.67 1.38 1.75.89.08 1.81-.58 2-1.45Zm4.52 10.8c.37-.26.64-.64.74-1.08 1.85-8.39 18.38-20.89 29.09-19.98.91.1 1.82-.56 2-1.45.17-.89-.45-1.67-1.38-1.75-12.79-1.11-30.9 12.89-33.06 22.81-.2.88.4 1.7 1.33 1.79.45.04.91-.08 1.28-.34Zm37.66-14.41c-13.1-.87-32.06 13.7-34.53 23.83-.22.87.36 1.69 1.28 1.8.94.12 1.86-.49 2.06-1.37 2.13-8.58 19.6-21.76 30.64-21.05.44.02.86-.1 1.21-.34.39-.27.68-.69.76-1.16.16-.88-.48-1.65-1.41-1.71h-.01Z" class="cls-43"/><path d="M1246.86 850.36c-14.6-3.5-38.39-21.2-52.54-25.87 17.95-46.4 34.33-90.48 30.65-92.49-5.98-3.26-65.42-12-106 19.21-28.83 30.33-7.05-73.47 24.24-99.09 81.16-.64 127.3 4.99 140.83 15.82 29.74 23.8 16.15 73.51-37.18 182.41Z" class="cls-9"/><path d="M1184.51 820.43c-.46 1.09 63.55 35.4 64.38 34.22 7.21-10.24 20.93-39.11 24.92-45.16l-70.58-30.15c-5.29 12.45-15.38 33.19-18.72 41.09Z" class="cls-74"/><path d="M1266.93 841.89c.75-3.84.95-9.07 1.41-13.73.34-3.45-28.2-16.99-31.72-10.03-.9 1.78-1.61 3.4-2.17 4.9-4.87-2.35-10.09-5-15.54-7.95-11.84-6.41-22.17-12.74-29.16-17.71-5.94 10.82-14.42 30.45-20.92 42.53 0 0 114.58 86.25 143.56 77.67 8.17-2.42-12.18-41.17-45.47-75.68h.01Z" class="cls-7"/><path d="m1172.75 832.24-3.91 7.66s114.58 86.25 143.56 77.67c1.15-.34 1.73-1.42 1.79-3.09-38.59-9.63-112.66-61.39-141.44-82.24Z" class="cls-15"/><path d="M1274.02 849.84c.87.67 2.09.54 2.77-.31s.55-2.1-.3-2.79c-6.55-5.23-16.78-6.04-24.9-1.93-.97.49-1.37 1.68-.88 2.66.19.38.48.67.82.85.57.31 1.25.32 1.82.02 6.8-3.44 15.3-2.85 20.66 1.49h.01Zm7.5 9.3c.87.66 2.14.33 2.73-.59s.33-2.15-.58-2.74c-7.28-4.74-16.35-5.6-24.88-2.42a1.998 1.998 0 0 0-1.17 2.55c.17.45.49.82.91 1.05.48.26 1.07.32 1.62.11 10.05-3.75 17.7-.34 21.37 2.03Zm9.96 6.69c-6.37-4.66-16.92-5.87-25.68-2.99-1.04.34-1.6 1.46-1.27 2.5.16.5.51.89.94 1.13.47.26 1.04.31 1.55.14 7.63-2.51 16.8-1.58 22.14 2.43.9.68 2.12.44 2.76-.44s.45-2.13-.43-2.77Z" class="cls-83"/><path d="M1339.45 468.25c3.06 1.01-3.61 39.13-6.81 38.76-31.2-3.66-54.94-11.73-84.05-13-6.67-.29-51.42 14.85-51.42 14.85-22.48-6.42-15.44-45.04-22.58-46.79 0 0 27.42-11.79 51.79-19.55 20.38-6.49 63.81 9.41 113.07 25.73Z" class="cls-9"/><path d="m1241.09 518.74-18.31-79.39c-41.23 10.74-78.98 16.99-112.28 26.43-30.26 8.58 43.23 77.31 43.19 81.45 19.43-6.35 52.1-15.78 87.4-28.49Z" class="cls-64"/><path d="M812.19 476.07c-2.84 1.53 10.31 37.92 13.4 37 30.1-9 52.09-21.04 80.54-27.32 6.52-1.44 32.18 15.95 32.18 15.95 21.03-10.2 21.89-42.29 28.61-45.25 0 0-22.46-21.83-47.8-25.26-21.2-2.87-61.23 20.29-106.93 44.87Z" class="cls-9"/><path d="M902.82 507.32c5.53-16.99 23.42-58.42 29.24-77.28 40.26 13.94 77.4 23.14 109.86 35.15 29.5 10.92-55.16 76.82-55.44 80.94-18.88-7.86-50.32-22.15-83.66-38.82Z" class="cls-64"/><path d="M1054.52 830.64c-21.09-40.12-40.87-80.41-58.96-118.14-1.01-18.72-.62-33.12.77-44.67 22.56-5.75 54.23-12 85.62-17.48l8.38 3.21c14.6 5.27 28.32 9.37 40.49 13.36 3.88-6.03 8.03-11.22 12.39-14.78 71.71-.57 115.98 3.78 134.67 12.27-25.06 5.41-38.59 34.86-56.86 66.38-13.67-3.14-56.63-6.48-91.41 13.48-13.63 11.42-14.06 34.45-7.51 61.52-1.81 1.93-46.28 23.54-67.59 24.87v-.02Z" style="opacity:.35;fill:#601805;isolation:isolate;stroke-width:0"/><path d="M1278.13 664.32c-40.1 8.37-61.22 71.21-108.42 113.03-38.51 34.11-111.31 44.55-150.1 39.66-21.17-70.98-39.2-90.29-31.55-146.99 46.02-12.86 146.81-29.22 187.32-33.72 15.27 11.21 105.18 14.08 102.75 28.02Z" class="cls-7"/><path d="M988.79 667.19c13.17-5.01 171.79-29.2 184.04-29.56 4.11 1.29 20.01 4.67 21.45 5.02-57.83 79.29-183.72 81.66-205.95 76.26-2.26-24.03-.83-38.33.46-51.71Z" class="cls-23"/><path d="M1018.61 472.93c-.04-1.13 1.81-12.76 2.42-14.95 30.06 5.73 68.88 6.27 101.43 9.39.11.78.44 1.51.47 2.31.67 21.61-22.32 41.64-51.12 42.54s-52.52-17.69-53.19-39.29Z" style="fill:#e288b9;stroke-width:0"/><path d="M988.68 447.96c5.98 1.27 157.2 20.17 173.21 22.12-5.32 41.83 9.63 116.02 15.68 145.6.69 3.38 11.27 6.97 7.03 13.39-6.24 9.43 11.58 4.29 6.95 12.96-18.65 10.75-57.31 49.44-87.29 57.97-50.67 14.42-107.34 15.83-133.41 3.95-4.81-84.69-8.41-197.37 17.83-255.99Z" class="cls-64"/><path d="M1011.87 464.97c0-4.72 1.19-9.18 2.94-13.45l108.1 13.71c-.19 24.11-24.94 43.63-55.5 43.63s-55.54-19.65-55.54-43.89Z" class="cls-9"/><path d="M1107.83 412.63v63.45c.01 13.65-17.31 24.73-38.7 24.75s-38.78-11.04-38.79-24.69v-63.51h77.49Z" class="cls-9"/><path d="M1161.78 450.97c.79-3.36.83-6.74.62-10.11-34.39-8.88-86.55-19.43-124.41-23.44-.56 1.41-1.44 2.66-1.79 4.17-6.09 26.01 17.09 53.68 51.77 61.79s67.73-6.4 73.81-32.41Z" class="cls-23"/><path d="M875.63 247.05c-.76 4.35-.43 8.81.95 13-8.1 2.89-13.54 8.39-13.34 14.55.25 8.08 10.11 14.42 22.61 15.02-6.15 8.47-4.93 20.14 2.95 26.44 3.94 3.15 8.81 4.35 13.55 3.8-5.67 10.15-4.96 21.45 1.96 25.83 7.28 4.62 18.6-.18 25.28-10.71 4.81-7.59 5.84-16.05 3.35-21.93 17.05 1.66 32.36-8.72 34.66-24.04.7-4.69.08-9.31-1.57-13.56 9.29 6.16 19.22 7.61 25.86 2.74 6.91-5.07 8.44-15.64 4.92-26.92 11.34-2.85 19.57-13.31 19.19-25.52-.16-5-1.76-9.6-4.35-13.45 10.57-2.23 18.18-8.58 17.95-15.84-.14-4.49-3.26-8.44-8.14-11.18 28.8-21.14-18.47-41.14-21.34-31.44.1-6.11-2.58-12.28-7.82-16.48-8.8-7.04-21.4-5.84-28.15 2.67-2.49 3.14-3.83 6.84-4.1 10.61a50.487 50.487 0 0 0-18.13-6.43c-26.9-4.06-51.87 13.81-55.78 39.91-1.02 6.81-.47 13.49 1.32 19.74-13.88 3.27-23.67 10.39-25.1 19.91-1.23 8.18 3.99 16.51 13.3 23.27h-.03Z" class="cls-76"/><path d="M1281.43 339.17c-3.56 31.22-22.77 53.48-38.29 52.91s-20.01-25.04-19.13-54.73 14.17-53.36 29.69-52.71c21.21.9 31.08 25.19 27.73 54.54Z" class="cls-9"/><path d="M1261.01 354.31c-4.7 12.1-14.73 18.83-22.41 15.01-7.69-3.82-10.1-16.72-5.41-28.83 4.7-12.11 14.73-18.83 22.41-15.01s10.1 16.72 5.41 28.83Z" class="cls-56"/><path d="M1253.63 262.47c2.07 109.23-66.56 159.58-163.99 161.27s-181.6-46.61-171.89-155.43c9.33-104.55 108.19-132.51 166.32-137.54 97.06-8.4 167.48 22.47 169.56 131.7Z" class="cls-76"/><path d="M1232.94 210.73c3.73 3.35 5.58 8.21 4.71 19.22-6.58 83.47 9.35 107.96 10.48 144.22 1.38 44.34-36.76 87.4-79.74 94.75-34.55 5.91-150.58 10.41-200.84-88.45-22.68-44.6-25.79-134.6-19.08-152.4 22.66-60.13 55.52-54.68 135.59-56.07 74.91-1.3 106.59.71 148.88 38.75v-.02Z" class="cls-9"/><path d="M982.51 286.15c6.31 32.57 8.94 59.56-13.44 78.31-26.11 21.87-52.45-51.65-53.43-103.58-.99-51.94 40.66-100.28 106.57-96.89 33.98 1.75-56.62 34.75-39.69 122.16h-.01Z" class="cls-76"/><path d="M915.68 369.02c16.06 33.94 40.91 50.31 65.22 48.23 25.1-2.15 26.29-34.53 18.44-67.04s-33.42-50.15-58.51-48.06c-27.88 2.32-39.43 36.68-25.15 66.87Z" class="cls-9"/><path d="M1161.17 360.85c-.66.01-1.24-.45-1.37-1.12-.88-4.75-4.69-7.77-9.71-7.68-5.05.09-8.83 3.3-9.41 7.98-.09.75-.78 1.29-1.52 1.19-.75-.09-1.28-.78-1.19-1.53.74-6.01 5.7-10.28 12.07-10.39 6.33-.11 11.33 3.88 12.45 9.93.14.74-.35 1.46-1.09 1.6l-.22.02h-.01Z" class="cls-62"/><path d="M957.72 137.38c-43.64 42.45-47.7 102.97-40.24 162.82 17.35-93.6 44.21-140.12 86.43-165.89.3-3.72-41.59-1.41-46.19 3.07Z" class="cls-39"/><path d="M998.22 133.91c37.55 5.86 88.4-77.91 37.12-133.91-58.17 49.71-56.79 97.42-37.12 133.91Z" class="cls-39"/><path d="M1008.85 120.6c-34.68-6.17 8.55-47.81 12.53-51.53 16.04 21.13 9.1 55.37-12.53 51.53Z" class="cls-18"/><path d="M1000.7 121.53c-26.38 49.32-150.83 37.49-129.6-74.59 67.89 32.73 123.51 37.08 129.6 74.59Z" class="cls-39"/><path d="M988.92 120.62c-4.35-15.14-30.02-17.68-63.4-16.39 2.41 17.11 47.26 43.97 63.4 16.39Z" class="cls-18"/><path d="M1003.41 136.57c8.3-3.68 12.11-13.83 8.51-22.67s-13.25-13.01-21.55-9.33-12.11 13.83-8.51 22.67 13.25 13.01 21.55 9.33Z" class="cls-39"/><path d="M939.48 222.33c.1-11.64 8.05-21.35 18.81-24.28-4.65-1.3-8.97-3.95-12.3-7.91-8.76-10.42-7.36-25.89 3.12-34.56 6.81-5.63 15.77-6.98 23.62-4.39-.29-1.5 24.56-24.53 44.99-23.07-4.62-4.18-6.59-10.58-6.54-15.88.16-19.13 18.77-34.44 41.57-34.21 14.64.15 27.42 6.7 34.67 16.41 7.1-5.49 16.2-8.76 26.1-8.65 11.69.12 22.15 4.92 29.52 12.47 4.08-8.92 10.61-16.41 19.37-21.32 25.19-14.11 59.26-1.57 76.11 28 2.67 4.69 4.74 9.52 6.25 14.39a19.68 19.68 0 0 1 9.75-2.44c10.56.11 19.05 8.32 18.97 18.33-.03 4.01-1.45 7.68-3.79 10.66 10.3 3.24 19.77 10.6 25.85 21.26 11.8 20.71 6.32 45.94-12.26 56.35a34.014 34.014 0 0 1-6.96 2.94c-.55 3.17-1.41 6.2-2.51 9.05 2.21-.91 4.63-1.4 7.16-1.38 10.56.11 19.05 9.11 18.95 20.11s-8.73 19.82-19.29 19.71c-2.59-.03-5.14-.59-7.49-1.67-.52 2.02-1.43 3.9-2.82 5.52-6.16 7.2-18.77 6.61-28.18-1.32-6.49-5.47-9.76-13.01-9.13-19.53-13.37-5.47-22.95-21.01-22.8-39.26 0-.52.06-1.03.08-1.55-3.51 3.39-8.4 5.48-13.81 5.42-9.77-.1-17.75-7.13-18.83-16.11-.93.66-1.89 1.28-2.9 1.85-18.17 10.17-42.39 1.76-54.1-18.79-1.5-2.64-2.72-5.35-3.67-8.09-.67 9.21-5.31 17.55-13.36 22.06-13.14 7.36-30.38 1.75-39.32-12.4-6.82 4.79-16.49 7.03-26.73 5.26-8.12-1.41-15.04-5.1-20.01-9.94.28 4.78-.44 9.57-2.12 14.06-4.35 11.67-14.17 19.5-24.75 21.06.07.79.1 1.57.1 2.36-.06 6.88-2.87 13.08-7.38 17.62 5.35-.21 10.35 1.88 13.21 6.1 4.75 7.01 1.82 17.21-6.55 22.78s-18.99 4.4-23.74-2.62c-3.8-5.61-2.67-13.24 2.2-18.93-1.18.15-2.38.25-3.61.24-14.17-.14-25.56-11.67-25.44-25.73v.02Z" class="cls-76"/><path d="M1175.76 308.2c-9 15.74-7.45 32.82.88 39.12 12.56 9.5 41.79 11.62 52.35-2.78 10.23-13.95 4.56-38.82-12.87-49.17-15.26-9.06-31.64-2.4-40.36 12.83Z" class="cls-81"/><path d="M1229.99 302.6c-13.93-23.75-45.93-14.85-54.53 6.14 8.99-15.73 26.16-20.86 40.26-12.49 8.72 5.18 15.04 14.61 16.92 25.23 1.5 8.46 0 18.03-4.25 23.83 4.95-3.83 11.83-25.23 1.59-42.7h.01Z" class="cls-62"/><path d="M1179.95 318.59c-3.59 10.84 1.22 22.98 10.74 27.11s20.15-1.3 23.74-12.15-1.22-22.98-10.74-27.11-20.15 1.31-23.74 12.15Z" class="cls-29"/><path d="M1181.41 316.71c-1 3.01.34 6.38 2.98 7.52s5.59-.36 6.58-3.37-.34-6.38-2.98-7.52-5.59.36-6.58 3.37Z" class="cls-4"/><path d="M1102.04 310.32c10.81 15.41 9.63 32.53.35 39.13-13.98 9.94-47.23 13.09-59.77-.93-12.14-13.58-6.54-38.64 12.97-49.6 17.08-9.6 35.99-3.52 46.45 11.4Z" class="cls-81"/><path d="M1040.03 306.64c15.06-24.23 51.84-16.46 62.38 4.21-10.8-15.41-30.54-19.92-46.33-11.06-9.76 5.48-16.64 15.13-18.42 25.81-1.42 8.51.62 18.02 5.67 23.66-5.78-3.66-14.36-24.8-3.29-42.62h-.01Z" class="cls-62"/><path d="M1052.75 321.16c-4.12 10.85 1.34 22.98 12.19 27.09s22.98-1.35 27.09-12.2-1.34-22.98-12.19-27.09-22.98 1.35-27.09 12.2Z" class="cls-29"/><path d="M1054.42 319.27c-1.14 3.01.37 6.38 3.38 7.52 3.01 1.14 6.38-.37 7.52-3.38s-.37-6.38-3.38-7.52-6.38.37-7.52 3.38Z" class="cls-4"/><path d="M948.31 367.76c3.49 14.2 20.98 24.63 32.77 19.35 4.6-2.06-8.77-51.46-16.37-50.65-12.85 1.37-19.89 17.1-16.4 31.3Z" class="cls-56"/><path d="M1191.1 389.55c-2-10.41-18-7.71-44.13-7.89h-8.06c-26.14.18-42.14-2.52-44.13 7.89-3.85 20.05 21.39 41.96 47.93 42.04h.46c26.54-.08 51.78-21.99 47.93-42.04Z" class="cls-10"/><path d="M1143.3 432.01h-.46c-8.61-.03-17.54-2.47-25.84-7.04l-.51-.27.43-.38c6.9-6.18 16.19-9.59 26.16-9.59s19.25 3.41 26.16 9.59l.43.38-.51.27c-8.32 4.57-17.27 7.01-25.86 7.04Z" class="cls-52"/><path d="M1143.08 395.04c-18.27 0-33.47-5.66-35.37-13.17l-.11-.46h70.96l-.11.46c-1.92 7.52-17.12 13.17-35.37 13.17Z" class="cls-43"/><path d="M1231.75 260.14c-1.93.03-3.78-.61-5.18-1.77-9.14-7.39-26.97-9.27-40.9-4.12-1.81.59-4.01.67-5.92-.11-1.9-.78-3.36-2.2-4.12-4.01-1.55-3.74.4-7.96 4.37-9.41 19.03-7.1 43.13-4.31 56.64 6.65 1.58 1.27 2.53 3.04 2.68 4.99.15 1.94-.51 3.81-1.85 5.26a7.8 7.8 0 0 1-3.44 2.15c-.74.23-1.51.35-2.28.37Zm-205.35-4.39c-.07 1.93.73 3.77 2.27 5.19 1.59 1.49 3.89 2.35 6.3 2.32 2.09-.04 4.08-.74 5.6-1.95 9.8-7.82 28.86-10.15 44.33-5.43 1.76.53 3.63.55 5.4.05 2.4-.68 4.42-2.27 5.33-4.46.76-1.81.63-3.87-.34-5.57-.96-1.76-2.68-3.08-4.81-3.73-21.31-6.49-47.12-2.92-61.41 8.49-1.67 1.33-2.6 3.13-2.68 5.09h.01Z" class="cls-1"/><path d="M1021.1 378.97c-.06 7.23 9.94 13.18 22.34 13.29 12.39.11 22.5-5.67 22.56-12.9s-9.94-13.18-22.33-13.29c-12.4-.11-22.5 5.67-22.56 12.9h-.01Zm192.72-8.59c.58 6.4 8.83 10.89 18.44 10.02s16.92-6.77 16.33-13.17-8.84-10.89-18.44-10.02c-9.6.87-16.92 6.77-16.34 13.17h.01Z" class="cls-86"/><path d="M749.46 529.04c10.84-5.16 26.18-14.66 57.48-28.4 3.58-1.57 15.89 10.14 12.07 11.2-22.2 6.14-59.66 31.1-69.55 17.19Z" class="cls-25"/><path d="M735.54 517.78c10.84-5.16 34.3-22.74 66.89-27.3 4.02-.56 14.54 11.92 10.72 12.98-22.2 6.14-69.21 25.59-77.61 14.32Z" class="cls-25"/><path d="M726.37 498.71c10.84-5.16 74.28-24.17 106.87-28.73 4.02-.56 11.43 27.21 7.23 32.14-2.76 15.08-27.1 21.61-45.4 47.5-3.16 4.47-7.12-3.04-7.32-5.58-.52-6.54 1.6-8.08 5.63-23.75 2.46-9.55-6.77-15.82-13.27-16.87-28.37-.06-47.62 5.04-53.76-4.71h.02Z" class="cls-9"/><path d="M1408.73 496.86c-11.91-1.55-29.44-5.82-63.45-9.16-3.89-.38-11.96 14.57-7.99 14.39 23.01-1.05 66.36 11.05 71.45-5.24h-.01Z" class="cls-25"/><path d="M1418.47 481.84c-11.91-1.55-39.66-10.97-72.06-5.19-3.99.71-10.13 15.85-6.17 15.67 23.01-1.05 73.73 2.85 78.22-10.48h.01Z" class="cls-25"/><path d="M1421.28 460.87c-11.91-1.55-78.11.08-110.51 5.85-3.99.71-2.42 29.41 3.1 32.8 7.3 13.47 32.47 12.13 57.9 31.07 4.39 3.27 5.82-5.1 5.22-7.57-1.54-6.38-4.03-7.18-12.73-20.83-5.31-8.32 1.53-17.14 7.38-20.16 26.95-8.86 46.83-9.98 49.64-21.16Z" class="cls-9"/><path d="M1041.39 567.21c.36-13.66 9.9-21.08 21.98-21.08 8.59 0 16.01 7.94 19.62 16.07 3.62-8.13 11.04-16.07 19.62-16.07 12.08 0 21.56 7.42 21.98 21.08.61 19.83-41.6 51.28-41.6 51.28s-42.21-28.49-41.6-51.28Z" style="opacity:.58;fill:#fff;isolation:isolate;stroke-width:0"/><path d="M127.9 887.77c-1.75.02-3.98 65.41-1.88 65.67 18.32 2.2 55.48 3.49 66.12 4.57l2.44-69.85c-18.37.7-54.04-.52-66.68-.39Z" class="cls-36"/><path d="M123.02 882.55c-1.18-.02-9.5 73.47-8.11 73.81 12.1 2.95 36.97 5.37 44.02 6.85l8.93-78.5c-13.45-.29-36.32-1.99-44.84-2.16Z" class="cls-5"/><path d="M132.89 970.11c3.92-.62 8.97-2.25 13.56-3.43 3.4-.88 6.38-32.91-1.46-33.86-1.8-.23-3.61-.35-5.42-.37.54-5.48 1.26-11.4 2.17-17.64 1.99-13.57 4.43-25.66 6.74-34.08-12.36-1.92-33.99-3.19-47.74-5.2 0 0-42.33 139.73-24.1 164.47 5.14 6.98 34.97-26 56.26-69.89Z" class="cls-35"/><path d="m109.37 876.61-8.65-1.07s-42.33 139.73-24.1 164.47c.72.98 1.95 1.16 3.56.64-4.23-40.3 19.33-129.22 29.19-164.04Z" class="cls-59"/><path d="M127.78 979.67c-.34 1.06.21 2.19 1.26 2.55 1.05.36 2.19-.21 2.55-1.26 2.71-8.09-.07-18.16-6.81-24.51-.81-.76-2.08-.72-2.84.08-.28.3-.47.68-.52 1.08-.09.63.11 1.29.61 1.76 5.63 5.31 8.03 13.66 5.75 20.3Zm-6.25 10.42c-.32 1.06.43 2.16 1.51 2.41 1.08.24 2.16-.43 2.4-1.51 1.98-8.62-.35-17.6-6.34-24.65-.72-.85-1.99-.95-2.83-.23-.39.33-.62.77-.68 1.24a2 2 0 0 0 .46 1.59c7.06 8.31 6.47 16.82 5.48 21.16Zm-2.91 11.87c2.23-7.72-.29-18.24-6.07-25.62a1.997 1.997 0 0 0-2.82-.34c-.87.68-1.03 1.93-.35 2.81h.01c5.04 6.44 7.34 15.54 5.37 22.05-.33 1.1.31 2.18 1.38 2.48s2.18-.31 2.48-1.38Z" class="cls-83"/><path d="M428.08 1052.49c.19 1.74 65.49-2.44 65.53-4.56.39-18.45-1.96-55.55-1.93-66.25l-69.76 4.41c2.5 18.21 4.77 53.83 6.15 66.4h.01Z" class="cls-36"/><path d="M422.91 1055.29c.07 1.07 73.99 3.67 74.21 2.38 1.94-11.18 2.3-33.91 3.2-40.4l-78.96-2.81c.82 12.22 1.01 33.08 1.54 40.83Z" class="cls-5"/><path d="M507.19 1055.75c-.05-3.97-.92-9.2-1.43-13.91-.38-3.49-31.64-11.08-33.72-3.46-.53 1.95-.9 3.7-1.15 5.31-5.34-1.33-11.1-2.9-17.14-4.71-13.14-3.93-24.75-8.1-32.74-11.6-3.69 11.95-8.08 33.17-12.07 46.49 0 0 132.12 62.13 159.24 47.68 7.65-4.07-20.66-38.37-61-65.8h.01Z" class="cls-35"/><path d="m411.26 1065.47-2.32 8.4s132.12 62.13 159.24 47.68c1.08-.57 1.43-1.76 1.15-3.43-40.48-1.65-125.06-37.86-158.08-52.65h.01Z" class="cls-59"/><path d="M515.9 1062.19c1.01.48 2.2.11 2.7-.88s.11-2.2-.88-2.7c-7.61-3.85-17.98-2.56-25.23 3.19-.87.69-1.02 1.95-.33 2.82.26.32.6.56 1 .68.61.18 1.29.07 1.83-.35 6.07-4.8 14.67-5.96 20.91-2.75Zm9.4 7.69c1 .47 2.2-.11 2.6-1.15s-.11-2.2-1.15-2.6c-8.24-3.21-17.47-2.21-25.31 2.7a2.01 2.01 0 0 0-.64 2.77c.27.43.68.72 1.13.86.55.17 1.15.09 1.64-.22 9.25-5.79 17.58-3.97 21.73-2.36Zm11.32 4.6c-7.31-3.32-18.09-2.36-26.23 2.29-.96.55-1.3 1.78-.75 2.74.27.46.69.78 1.17.93.51.15 1.08.1 1.57-.18 7.09-4.05 16.43-5.01 22.58-2.12 1.04.49 2.2 0 2.66-1 .46-1.01 0-2.2-1-2.66Z" class="cls-83"/><path d="M62.08 588.29c-2.95-1.03 10.72-39.44 13.72-38.58 54.01 15.54 92.11 25.79 149.56 28.08-5.64 27.71-9.2 48.47-42.62 49.74-16.16.62-73.84-22.96-120.66-39.25Z" class="cls-36"/><path d="M177.3 571.07c28.18-4.72 47-6.54 83.59-14.13 3.73 1.77 29.14 47.08 36.29 87.22-18.78 4.44-94.56 10.31-108.03 9.87-6.58-22.33-8.49-56.9-11.85-82.97Z" class="cls-12"/><path d="M621.58 592.9c2.95-1.03-10.72-39.44-13.72-38.58-54.01 15.53-92.11 25.79-149.56 28.08 5.64 27.71 9.2 48.47 42.62 49.74 16.16.62 73.84-22.96 120.66-39.25Z" class="cls-36"/><path d="M492.83 862.98c-24.27-51.64-57.96-112.55-67.67-128.79-4.23-7.07-155.73 10.6-193.2 40.88 5.13 37.72 20.47 103.52 17.39 105.18-4.55 2.44-10.51 3.5-69.82 4.48-2 17.12-2.25 54.72-1.36 75.53 59.37 2.89 74.48 3.3 102.69 2.93 25.88-.34 59.18-17.22 61.26-43.24.98-12.35-1.06-42.2-2.69-89.68-.35-3.88 11.09-6.56 15.9-.69 24.26 29.66 47.7 60.14 53.47 70.74 4.99 9.16 4.84 25.14 9.3 101.1 13.3-.56 67.99-1.79 81.32-4.36-1.71-92.4 1.09-117.7-6.6-134.06v-.02Z" style="fill:#f48b00;stroke-width:0"/><path d="M509.17 574.73c-27.49-4.64-45.85-6.41-81.55-13.89-3.65 1.78-28.58 47.15-35.67 87.3 18.31 4.38 92.27 10.04 105.41 9.56 6.48-22.34 8.44-56.91 11.8-82.97h.01Z" class="cls-12"/><path d="M443.43 750.9c8.36-15.82-4.38-20.23-5.11-24.77-4.47-27.69-7.61-84.04-10.08-165.21-56.66-4.65-110.35-8.27-167.45-3.65-23.27 67.05-30.04 183.17-31.85 239.88 85.4 28.25 129.38 21.16 224.27-14.47 5.89-15.99-15.35-21.25-9.79-31.78Z" class="cls-12"/><path d="M398.31 568.46c.27-2.98-.06-5.88-.6-8.73-28.58-3.04-71.2-5.96-102.04-4.38-.3 1.28-1.28 3.27-1.4 4.6-2.07 23.06 19.55 43.65 48.28 46s53.7-14.44 55.76-37.5Z" style="fill:#118e64;stroke-width:0"/><path d="M387.53 506.42v63.3c.06 13.65-17.92 24.8-40.33 24.9s-40.77-10.89-40.83-24.54v-63.66h81.16Z" class="cls-36"/><path d="M416.54 546.85c.65-2.93.66-5.86.45-8.78-29.94-7.4-75.33-16.1-108.24-19.24-.47 1.23-1.23 2.32-1.52 3.63-5.05 22.64 15.32 46.46 45.51 53.19s58.75-6.16 63.8-28.8Z" class="cls-44"/><path d="M54.34 509.52c-12.71 4.54-22.15 11.32-20.23 12.58-7.12 20.74-15.95 42.6-21.87 52.56 29.19 19.39 51.15 18.82 59.91 16.76 12.61-2.97 27.17-18.74 25.97-35.81-.56-8.03-5.95-25.23-23.79-46.48-4.82.3-12.76 2.06-19.99.4Z" class="cls-36"/><path d="M73.93 558.73c-5.7 22.64-35.23 23.49-53.77 15.1 2.41-3.92 16.88-29.4 4.44-50.93 13.73-8.53 42.4 3.23 45.89-1.05-5.01 10.81-8.84 27.21 3.44 36.87Z" class="cls-82"/><path d="M.31 559.94c1.64-4.59 7.69-4.99 15.27-2.66-7.91-3.9-12.96-9.36-12.07-13.86 1.06-5.35 10.14-7.46 21.04-5.29-8.15-5.03-13.02-11.65-11.34-16.43 1.81-5.15 10.56-6.44 20.65-3.55-4.4-5.41-8.94-12.61-6.03-16.18 5.32-6.54 17.13-2.37 27.08 4.72s17.71 21.86 14.26 26.71c-1.89 2.66-8.02 2.92-14.1-1.65 1.98 2.87 2.79 5.7 1.96 8.08-1.56 4.43-8.27 6.01-16.54 4.52 5.6 3.61 8.89 7.97 8.16 11.68-.73 3.72-6.24 7.41-17.72 5.92 5.2 2.79 9.67 6.64 9.02 10.06-.8 4.19-5.96 9.47-18.54 6.67C8.16 575.73-1.92 566.2.31 559.96v-.02Z" class="cls-36"/><path d="M37.21 528.86c3.8 6.65 12.85 14.45 22.48 9.03 8.91-5.01 16.26-17.74 12.45-24.39s-15.08-8.26-25.19-3.61-13.55 12.31-9.74 18.96Z" class="cls-50"/><path d="M37.21 528.86c3.62 6.33 15.2 7.47 25.88 2.55s16.39-14.03 12.77-20.35-15.2-7.47-25.88-2.55-16.39 14.03-12.77 20.35Zm588.83-11.43c12.16 5.85 20.84 13.59 18.79 14.64 4.9 21.37 11.38 44.04 16.22 54.57-27.13 21.76-52.85 13.33-61.34 10.36-12.23-4.28-25.04-21.49-22.06-38.34 1.4-7.93 8.58-24.47 28.55-43.72 4.76.8 12.47 3.39 19.84 2.49Z" class="cls-36"/><path d="M601.38 564.31c3.28 23.12 32.57 27.06 51.88 20.68-1.99-4.16-13.7-31.02.95-51.11-12.75-9.93-42.51-1.24-45.53-5.87 3.85 11.28 5.93 27.99-7.3 36.31Z" class="cls-82"/><path d="M674.46 573.26c-1.15-4.73-7.12-5.77-14.91-4.26 8.28-3.05 13.87-7.95 13.46-12.52-.49-5.43-9.3-8.49-20.37-7.48 8.64-4.15 14.17-10.21 13.01-15.15-1.26-5.31-9.83-7.52-20.16-5.7 4.95-4.91 10.22-11.6 7.7-15.46-4.6-7.06-16.79-4.16-27.42 1.84-10.63 6-19.91 19.88-16.99 25.06 1.6 2.84 7.66 3.75 14.2-.15-2.27 2.64-3.38 5.38-2.8 7.83 1.08 4.57 7.59 6.85 15.97 6.24-5.95 2.99-9.68 6.99-9.34 10.75.34 3.78 5.42 8.03 16.99 7.75-5.47 2.23-10.31 5.58-10.03 9.06.35 4.25 4.93 10.04 17.73 8.58 13.49-1.54 24.51-9.96 22.95-16.4Z" class="cls-36"/><path d="M641.03 538.46c-4.48 6.21-14.29 13.02-23.3 6.62-8.34-5.92-14.3-19.35-9.82-25.56s15.87-6.63 25.43-.94 12.18 13.67 7.69 19.88Z" class="cls-50"/><path d="M641.03 538.46c-4.27 5.91-15.9 5.82-26-.19s-14.82-15.67-10.55-21.59 15.91-5.82 26 .19 14.82 15.67 10.56 21.59h-.01Z" class="cls-36"/><path d="M558.59 430.06c-4.03 33.29-29.57 57.37-50.68 57.09-21.11-.29-27.86-26.22-27.43-57.81s17.89-57.06 39-56.69c28.86.5 42.91 26.13 39.11 57.42Z" class="cls-21"/><path d="M556.15 337.67c1.01 112.67-73.03 164.02-177.35 164.95s-181.28-49.06-182.29-161.73 82.95-138.52 179.59-140.46c104.31-2.09 179.05 24.57 180.06 137.24h-.01Z" class="cls-34"/><path d="M525.56 482.29c-8.92 48.2-66.14 84.5-111.12 84.32-94.53-.39-192.98-54.72-194.16-186.76-1.18-132.04 66.74-136.13 159.38-136.96 61.86-.55 113.5.21 139.43 40.89 16 25.1 11.95 168.9 6.47 198.51Z" class="cls-36"/><path d="M278.44 472.75c-.42 7.59 10.43 14.36 24.23 15.13 13.8.76 25.33-4.77 25.76-12.36S318 461.16 304.2 460.39c-13.81-.77-25.34 4.77-25.76 12.36Zm202.9-.91c.57 6.72 10.37 11.38 21.89 10.4 11.52-.98 20.4-7.22 19.83-13.93s-10.37-11.38-21.89-10.4-20.4 7.22-19.83 13.94Z" class="cls-41"/><path d="M449.74 400.55c-9.2 16.66-7.31 34.55 1.53 41.04 13.32 9.78 44.03 11.55 54.89-3.73 10.52-14.8 4.19-40.81-14.26-51.4-16.15-9.27-33.24-2.03-42.15 14.09Z" class="cls-81"/><path d="M506.55 393.83c-14.98-24.71-48.42-14.87-57.13 7.28 9.2-16.65 27.12-22.29 42.05-13.73 9.23 5.3 16.01 15.1 18.15 26.21 1.7 8.86.28 18.92-4.09 25.07 5.14-4.1 12.03-26.66 1.01-44.83h.01Z" class="cls-28"/><path d="M453.27 409.4c-3.6 11.43 1.63 24.1 11.69 28.29s21.12-1.68 24.72-13.12-1.64-24.1-11.69-28.29-21.12 1.68-24.72 13.12Z" class="cls-37"/><path d="M454.77 407.4c-1 3.17.45 6.68 3.24 7.85s5.86-.47 6.86-3.64-.45-6.68-3.24-7.85-5.86.47-6.86 3.64Z" class="cls-4"/><path d="M371.6 402.98c11.58 16.01 10.61 33.99.98 41.06-14.52 10.65-49.36 14.47-62.73-.05-12.95-14.07-7.46-40.44 12.84-52.24 17.77-10.33 37.71-4.25 48.92 11.24Z" class="cls-81"/><path d="M306.46 400.08c15.42-25.66 54.15-18.08 65.52 3.45-11.57-16-32.35-20.44-48.79-10.89-10.15 5.91-17.23 16.14-18.93 27.37-1.35 8.96.93 18.9 6.31 24.74-6.12-3.75-15.45-25.8-4.11-44.67Z" class="cls-28"/><path d="M317.7 414.67c-4.15 11.45 1.77 24.09 13.22 28.24s24.1-1.77 28.24-13.22-1.77-24.09-13.22-28.24-24.09 1.77-28.24 13.22Z" class="cls-37"/><path d="M319.42 412.66a6.124 6.124 0 0 0 3.67 7.84 6.124 6.124 0 0 0 7.84-3.67 6.124 6.124 0 0 0-3.67-7.84 6.124 6.124 0 0 0-7.84 3.67Z" class="cls-4"/><path d="M505.19 339.5c-1.64.29-3.33-.04-4.75-.92-11.51-7.18-30.95-6.3-45.27 2.07-3.2 1.89-7.38.79-9.28-2.44-1.89-3.23-.79-7.39 2.44-9.28 18.62-10.9 43.56-11.65 59.29-1.87a6.81 6.81 0 0 1 2.17 9.35 6.728 6.728 0 0 1-4.6 3.09Zm-206.56 6.34a6.75 6.75 0 0 1-4.92-2.55c-2.32-2.93-1.84-7.2 1.1-9.53 14.5-11.5 39.35-13.58 59.12-4.87 3.43 1.51 4.98 5.51 3.48 8.94-1.5 3.42-5.54 4.97-8.94 3.48-15.18-6.71-34.61-5.35-45.22 3.08a6.782 6.782 0 0 1-4.61 1.46h-.01Z" style="fill:#ba2e08;stroke-width:0"/><path d="M464.91 482.97c-1.85-12.28-20.7-9.88-51.29-11.31l-9.43-.38c-30.6-1.03-49.2-4.94-52.03 7.16-5.45 23.29 23.05 50.12 54.12 51.47l.54.02c31.07 1.16 61.64-23.3 58.09-46.95Z" class="cls-62"/><path d="m406.8 530.41-.54-.02c-10.08-.44-20.41-3.72-29.92-9.46l-.58-.34.52-.42c8.36-6.91 19.4-10.47 31.07-10 11.66.47 22.37 4.9 30.17 12.46l.48.47-.61.29c-9.96 4.95-20.54 7.39-30.6 7.02Z" class="cls-73"/><path d="M408.28 487.12c-21.38-.86-38.91-8.2-40.78-17.09l-.11-.54 83.07 3.34-.15.53c-2.6 8.71-20.66 14.62-42.02 13.76h-.01Z" class="cls-43"/><path d="M426.1 455.9c-.75 0-1.41-.53-1.54-1.29-.95-5.4-5.25-8.85-10.97-8.8-5.75.05-10.09 3.65-10.8 8.97-.12.85-.9 1.44-1.75 1.33-.85-.11-1.45-.9-1.33-1.75.91-6.8 6.61-11.6 13.86-11.66 7.21-.06 12.86 4.51 14.06 11.38.15.85-.42 1.65-1.27 1.8l-.26.02Z" class="cls-57"/><path d="M272.95 352.14c-.99 55.32-21.2 90.68-44.67 90.83s-41.33-66.16-41.67-121.49c-.39-63.37 19.9-88.1 73.43-98.22 23.07-4.36 14.05 65.99 12.92 128.88h-.01Z" class="cls-34"/><path d="M182.79 455.76c11.22 35.59 47.44 56.44 73.62 51.57 26.18-4.87 17.56-111.86-30.45-118.76-39.98-5.75-53.73 33.75-43.18 67.19Z" class="cls-36"/><path d="M212 452.78c2.82 15.13 20.54 27.15 33.22 22.31 4.94-1.89-6.14-54.59-14.15-54.2-13.55.66-21.88 16.76-19.06 31.89H212Z" class="cls-33"/><path d="M206.53 386.04c18.76 10.52 42.17-14.83 57.59-50.11 9.37-21.43-.55-53.84 9.02-53.79 3.55 7.63 9.27 13.51 30.36 24.65 22.34 11.8 45.47 11.33 51.66-1.04 3.02-6.02 1.4-13.75-3.57-21.46 1.56-.48 3.38 5.92 4.94 5.35 10.04 4.57 21.99 7.32 34.88 7.42 30.73.24 56.35-14.41 62.4-34.13 2.32 13.83 11.58 28.9 26.32 40.29 16.05 12.4 34.36 17.17 48.56 14.28 11.04 19.87 18.76 41.2 25.68 38.42 9.58-3.85 10.34-43.91-3.16-78.24-1.46-3.71-3-7.25-4.57-10.72 6.48-4.28 11.07-10.23 12.75-17.46 4.5-19.36-13.54-40.48-40.3-47.18a64.842 64.842 0 0 0-22.8-1.54c3.69-8.39 3.96-17.2-.2-24.33-8.07-13.85-29.51-16.12-47.89-5.06-4.26 2.56-7.91 5.65-11.01 8.99-1.17-9.18-4.44-17.51-10.24-24.23-22.17-25.68-68.48-15.72-109.14 15.39-21.14 16.17-36.51 33.39-41.22 48.62.53-10.7-1.86-26.03-22.22-32.99-22.39-7.65-37.29 20.5-19.57 25.38 16.87 4.64 29.58 7.58 40.88 22.39-28.6-11.8-61.16.9-81.55 40.76s2.92 105.02 12.41 110.34Z" class="cls-34"/><path d="m341.25 647.58-6.49 12.88a3.93 3.93 0 0 1-2.95 2.11l-14.29 1.96c-3.2.44-4.51 4.35-2.21 6.63l10.24 10.15c.91.9 1.32 2.2 1.09 3.46l-2.56 14.19c-.57 3.18 2.75 5.63 5.62 4.15l12.82-6.6c1.14-.59 2.5-.58 3.63.03l12.71 6.82c2.85 1.53 6.21-.87 5.69-4.06l-2.32-14.23c-.21-1.27.23-2.55 1.15-3.44l10.41-9.98c2.33-2.23 1.09-6.17-2.1-6.66l-14.25-2.19c-1.27-.19-2.36-1-2.92-2.16l-6.27-12.98c-1.41-2.91-5.54-2.94-6.99-.06v-.02Z" style="fill:#ffdc83;stroke-width:0"/><path d="M2646.34 888.1c.44 1.7-62.14 20.81-62.93 18.83-6.87-17.12-17.76-52.68-21.55-62.67l66.83-20.47c4.08 17.92 14.51 52.06 17.66 64.31h-.01Z" class="cls-9"/><path d="M2649.32 895.16c.23 1.16-70.75 21.96-71.33 20.64-4.98-11.42-11.62-35.51-14.3-42.2l75.81-22.25c2.59 13.2 8.19 35.44 9.81 43.81h.01Z" class="cls-5"/><path d="M2560.36 901.37c-.07-3.96.65-9.22 1.02-13.95.27-3.5 31.3-12.01 33.6-4.45.59 1.94 1.01 3.67 1.3 5.27a387.44 387.44 0 0 0 17-5.21c13.02-4.32 24.5-8.83 32.39-12.56 4.04 11.84 9.05 32.92 13.43 46.11 0 0-130.24 65.98-157.78 52.34-7.76-3.85 19.53-38.96 59.04-67.56Z" class="cls-19"/><path d="m2656.53 908.27 2.56 8.33s-130.24 65.98-157.78 52.34c-1.09-.54-1.48-1.72-1.25-3.4 40.42-2.84 123.89-41.51 156.46-57.27h.01Z" class="cls-59"/><path d="M2572.83 910.2c.53.39 1.21.51 1.83.3.38-.12.72-.36.98-.7.66-.89.48-2.15-.41-2.81-7.42-5.53-17.82-6.52-25.32-2.44-.97.53-1.33 1.75-.79 2.73.53.97 1.74 1.31 2.73.8 6.15-3.4 14.78-2.49 20.99 2.14v-.02Zm-8.36 7.55c.52.3 1.12.35 1.65.18.45-.15.84-.46 1.1-.89.56-.96.24-2.19-.72-2.75-7.98-4.67-17.23-5.41-25.38-1.95-1.02.43-1.5 1.61-1.07 2.63s1.64 1.57 2.63 1.07c4.1-1.73 12.38-3.79 21.79 1.72Zm-33.9 5.9c.49 1 1.67 1.44 2.69.92 6.06-3.07 15.43-2.39 22.64 1.46.51.27 1.08.3 1.58.13.49-.16.9-.51 1.14-.96.52-.98.15-2.2-.83-2.72-8.28-4.41-19.07-5.05-26.29-1.52-1 .48-1.41 1.69-.93 2.68Z" class="cls-83"/><path d="M2787.97 904.35c.74 1.58-57.2 31.99-58.34 30.2-9.93-15.55-27.24-48.46-32.82-57.58l61.86-32.53c7.34 16.85 23.93 48.45 29.3 59.91Z" class="cls-9"/><path d="M2793.14 908.35c.49 1.07-63.68 37.87-64.54 36.72-7.5-9.94-19.59-31.81-23.75-37.69l68.52-39.34c5.6 12.23 16.23 32.55 19.77 40.31Z" class="cls-5"/><path d="M2707.39 932.95c-.87-3.87-1.22-9.17-1.82-13.87-.44-3.48 28.23-18.08 32.01-11.14.97 1.78 1.73 3.39 2.34 4.9 4.89-2.53 10.13-5.38 15.59-8.54 11.88-6.86 22.21-13.59 29.18-18.84 6.34 10.78 15.51 30.41 22.46 42.45 0 0-114.23 90.93-143.95 83.13-8.38-2.2 11.25-42.09 44.18-78.09h.01Z" class="cls-19"/><path d="m2802.97 920.28 4.19 7.64s-114.23 90.93-143.95 83.13c-1.18-.31-1.8-1.38-1.91-3.07 39.01-10.95 112.96-65.68 141.67-87.69Z" class="cls-59"/><path d="M2721.39 939.08c1 .47 2.19.05 2.66-.95.47-1.01.04-2.21-.97-2.68-8.39-3.92-18.77-2.78-25.29 2.72-.84.72-.95 1.99-.23 2.83s1.97.93 2.83.23c5.33-4.57 13.98-5.43 20.99-2.15h.01Zm-6.67 9.08a2.015 2.015 0 0 0 2.55-1.25 2.02 2.02 0 0 0-1.26-2.55c-8.76-2.96-17.97-1.81-25.25 3.22a2 2 0 0 0-.52 2.79c.63.91 1.93 1.21 2.79.52 3.67-2.52 11.35-6.21 21.69-2.72Zm-32.01 12.62c.68.88 1.92 1.07 2.82.36 5.32-4.23 14.63-5.45 22.46-3.14.53.16 1.1.09 1.57-.19a2.003 2.003 0 0 0-.44-3.66c-9-2.65-19.7-1.1-26.05 3.82-.88.68-1.04 1.94-.36 2.81Z" class="cls-83"/><path d="M2736.54 720.3c-38.29 10.29-120.04 28.23-120.57 31.69-.78 5.1 6.18 31.47 20.66 88.76-15.58 5.77-56.65 16.21-76.79 20.01l-33.78-109.66c-7.09-26.36-.97-59.8 21.42-73.22 16.65-9.98 97.88-44.18 154.8-68.7 44.64-19.23 50.23 65.67 34.27 111.12Z" class="cls-63"/><path d="m2624.01 642.8 8.53-3.69c32.96.37 83.47 5.22 110.94 9.88 2.95 23.17.15 51.12-6.95 71.31-38.29 10.29-120.04 28.23-120.57 31.69v.32c-1.53-7.78-2.35-13.98-1.89-17.08 2.97-19.71 24.39-41 35.38-50.06 16.76-13.82-12.31-34.29-25.44-42.38Z" style="fill:#020b1e;opacity:.25;isolation:isolate;stroke-width:0"/><path d="M2822.39 723.97c-16.26 15.95-87.76 48.19-87.82 51.69-.08 5.16 10.89 27.86 33.07 80.98-14.22 7.89-53.53 26.42-72.51 35.04-27.58-52.69-37.28-79.33-49.93-104.56-11.6-23.14-8.94-56.56 10.23-74.28 14.84-13.73 104.57-82.8 157.63-114.81 4.24 10.17 14.52 37.86 21.06 69.65 4.09 19.9 3.86 41-11.73 56.28Z" class="cls-63"/><path d="m2811.69 598.88 1.73.06c4.25 10.34 13.51 35.69 19.89 65.16-38.42 16.03-75.45-2.75-122.1 4.71 7.94-5.96 93.36-65.6 100.48-69.93Z" style="opacity:.3;fill:#020b1e;isolation:isolate;stroke-width:0"/><path d="M2629.65 623.99c-8.16-10.54-.75-12.92 1.39-16.98 4.74-8.97-15.01-66.12-51.72-165.23 57.91-13.82 122.79-23.94 180.08-23.19 48.3 109.77 72.33 187.25 81.68 227.77-55.93 30.88-76.2 14.84-134.59 24.5-37.72 6.24-57.05-21.41-85.79-26.47-6.96-15.56 16.23-10.99 8.95-20.41Z" class="cls-66"/><path d="M2960.47 410.37c3.11.28-.88 40.86-4 40.75-56.16-2.03-95.61-2.78-151.92 8.86-1.21-28.25-2.77-49.25 29.35-58.56 15.53-4.5 77.2 4.45 126.57 8.95Z" class="cls-9"/><path d="M2838.34 397.04c-30.56 4.65-96.05 18.93-136.2 23.59-3.28 2.89 56.54 82.84 74.93 78.18 32.45-8.22 71.44-19.46 80.22-22.51-4.2-20.74-12.44-53.91-18.95-79.27Z" class="cls-16"/><path d="M2409.23 478.35c-2.96 1.01 10.48 39.51 13.48 38.66 54.1-15.2 92.27-25.22 149.73-27.16-5.47-27.74-8.91-48.52-42.31-50.01-16.15-.72-73.98 22.5-120.91 38.5h.01Z" class="cls-9"/><path d="M2522.76 437.6c27.29.15 51.93-.52 88.16-1.35 3.41 2.11 1.37 40.32-2.88 84.55-20.14.62-70.4-2-85.27-3.29-1.87-20.78-1.31-55.78-.01-79.91Z" class="cls-16"/><path d="M2346.72 530.1c10.91-5.01 26.39-14.29 57.88-27.58 3.6-1.52 15.74 10.37 11.91 11.37-22.29 5.82-60.09 30.25-69.78 16.2Z" class="cls-25"/><path d="M2332.97 518.64c10.91-5.01 34.62-22.25 67.27-26.34 4.03-.51 14.38 12.13 10.54 13.13-22.29 5.82-69.56 24.6-77.81 13.21Z" class="cls-25"/><path d="M2324.06 499.45c10.91-5.01 74.61-23.11 107.27-27.21 4.03-.51 11.04 27.37 6.78 32.24-2.97 15.03-27.41 21.22-46.07 46.85-3.22 4.43-7.07-3.14-7.24-5.68-.42-6.55 1.71-8.05 5.97-23.67 2.6-9.52-6.54-15.91-13.03-17.06-28.36-.46-47.69 4.37-53.68-5.47Z" class="cls-9"/><path d="M2609.36 442.46c-.49-3.15-.33-6.25.06-9.32 30.9-5.44 77.09-11.85 110.76-12.56.41 1.34 1.61 3.37 1.83 4.78 3.82 24.35-18.3 47.91-49.41 52.63s-59.43-11.19-63.25-35.54Z" class="cls-16"/><path d="m2614.33 391.29 15.76 61.49c3.39 13.22 23.74 19.43 45.45 13.87s36.56-20.8 33.17-34.02l-15.76-61.49-78.62 20.16Z" class="cls-9"/><path d="M2565.23 415.27c-.67-3.59-.55-7.15-.16-10.69 36.7-7.7 92.24-16.31 132.38-18.71.52 1.51 1.39 2.88 1.69 4.48 5.16 27.73-20.63 55.8-57.61 62.68s-71.14-10.02-76.3-37.76Z" class="cls-44"/><path d="M2821.1 309.9c-5.97 36.82-38.8 62.68-65.4 61.63s-34.42-30.07-33.05-65.13c1.38-35.07 24.07-62.73 50.67-61.6 36.36 1.55 53.39 30.49 47.78 65.1Z" class="cls-9"/><path d="M2789.11 321.76c-.61 15.38-12.09 27.41-25.65 26.88-13.55-.53-24.06-13.43-23.45-28.81s12.09-27.4 25.64-26.87c13.56.53 24.06 13.43 23.46 28.8Z" class="cls-56"/><path d="M2430.59 349.79c13.11 34.92 50.4 53.79 76.27 47.52s27.81-36.26 19.56-70.37c-8.27-34.1-35.97-56.75-61.83-50.4-35.34 8.69-46.32 40.42-34 73.24Z" class="cls-9"/><path d="M2464.9 354.05c3.62 14.95 17.25 24.48 30.44 21.29s20.94-17.91 17.32-32.86-17.25-24.48-30.44-21.29-20.94 17.91-17.32 32.86Z" class="cls-56"/><path d="M2442.03 225.3c11.25 105.91 85.86 146.16 183.24 135.81s169.93-66.18 158.68-172.1-97.27-127.42-183.14-119.85c-88.23 7.79-170.04 50.22-158.78 156.13Z" class="cls-20"/><path d="M2472.92 207.03c10.57-61.36 64.73-83.97 132.78-91.27l.75-.11c68.13-6.44 125.72 4.93 148.33 62.95 18.94 48.59 13.38 158.2-2.48 191.94-13.4 28.51-68.28 62.55-112.43 66.51-.44.04-.93.02-1.39.02-.46.09-.92.21-1.36.26-44.06 4.94-104.62-17.46-123.45-42.72-22.27-29.89-49.6-136.19-40.75-187.58Z" class="cls-9"/><path d="M2743.98 328.28c1.15 6.79-7.36 13.9-19.01 15.87s-22.02-1.94-23.17-8.73 7.36-13.9 19-15.87c11.65-1.97 22.03 1.93 23.18 8.73Zm-195.15 23.2c.19 6.89-9.23 12.74-21.04 13.07s-21.54-4.99-21.73-11.88 9.23-12.74 21.04-13.07 21.54 4.99 21.73 11.88Z" class="cls-86"/><path d="M2576.43 359.74c1.07-11.97 19.43-10.75 48.9-13.92l9.09-.91c29.51-2.78 47.25-7.64 50.69 3.88 6.62 22.19-19.35 49.77-49.29 52.88l-.52.05c-29.96 2.93-60.92-18.91-58.86-41.97Z" class="cls-10"/><path d="m2605.37 397.18-.6-.25.44-.48c7.1-7.76 17.19-12.66 28.42-13.8 11.25-1.14 22.12 1.65 30.6 7.84l.53.38-.54.36c-8.85 6.1-18.65 9.87-28.35 10.88l-.52.05c-9.7.94-20.06-.79-29.97-5v.02Z" class="cls-52"/><path d="m2589.98 349.61-.18-.51 80.06-8.07-.07.53c-1.29 8.7-17.8 16.81-38.41 18.89-20.59 2.08-38.39-2.58-41.41-10.84Z" class="cls-43"/><path d="M2616.44 331.46c.78-.08 1.41-.71 1.47-1.52.37-5.75 4.47-9.85 10.45-10.45 6.01-.6 10.96 2.66 12.31 8.13.22.88 1.11 1.41 1.98 1.19.88-.22 1.41-1.1 1.2-1.98-1.73-7-8.24-11.36-15.81-10.59-7.53.76-12.91 6.18-13.39 13.49-.06.9.63 1.68 1.53 1.74h.27-.01Z" class="cls-62"/><path d="M2582.34 278.95c13.02 15.31 13.47 33.62 4.26 41.56-13.87 11.96-48.9 18.61-63.62 4.95-14.25-13.23-10.79-40.42 8.85-54 17.2-11.9 37.9-7.32 50.5 7.5h.01Z" class="cls-81"/><path d="M2516.06 281.2c13.59-27.25 53.47-22.66 66.72-1.73-13.01-15.3-34.44-18.14-50.34-7.15-9.83 6.8-16.18 17.74-17.01 29.26-.66 9.19 2.46 19.09 8.38 24.59-6.5-3.31-17.73-24.93-7.74-44.97Z" class="cls-62"/><path d="M2579.3 290.33c5.81 10.94 1.66 24.52-9.28 30.33s-24.52 1.66-30.33-9.28c-5.66-11.02-1.31-24.54 9.71-30.2 10.8-5.54 24.05-1.49 29.9 9.15Z" class="cls-29"/><path d="M2577.28 288.55c1.61 3.03.46 6.8-2.57 8.41s-6.8.46-8.42-2.57-.46-6.8 2.58-8.42 6.8-.46 8.41 2.58Z" class="cls-4"/><path d="M2660.22 270.36c-9.38 17.77-5.83 35.75 4.88 41.49 16.14 8.65 51.78 7.53 63.17-9.01 11.04-16.01 1.75-41.79-20.39-50.79-19.38-7.87-38.58 1.1-47.66 18.3Z" class="cls-81"/><path d="M2725.4 258.14c-19.2-23.64-57.11-10.48-65.49 12.82 9.37-17.76 29.67-25.2 47.58-17.93 11.07 4.5 19.66 13.79 22.97 24.86 2.64 8.83 1.75 19.17-2.83 25.82 5.63-4.65 11.89-28.19-2.23-45.57Z" class="cls-62"/><path d="M2707.1 276.24c5.81 10.94 1.66 24.52-9.28 30.33s-24.52 1.66-30.33-9.28-1.66-24.52 9.28-30.33 24.52-1.66 30.33 9.28Z" class="cls-29"/><path d="M2705.07 274.47c1.61 3.03.46 6.8-2.57 8.41-3.03 1.61-6.8.46-8.42-2.57s-.46-6.8 2.58-8.42 6.8-.46 8.41 2.58Z" class="cls-4"/><path d="M2514.66 225.5a8 8 0 0 1-3.73-1.84c-1.51-1.34-2.38-3.18-2.43-5.17-.04-2 .74-3.9 2.22-5.36 12.65-12.57 36.93-17.89 57.05-12.61 4.19 1.08 6.61 5.18 5.42 9.15-.59 1.92-1.94 3.52-3.79 4.51-1.87.99-4.11 1.14-6.02.72-14.73-3.82-32.71-.08-41.27 8.4-1.3 1.33-3.12 2.18-5.09 2.34-.79.07-1.59.02-2.36-.14Zm208-30.36c-15.73-10.17-42.42-11.16-63.48-2.35-2.11.88-3.72 2.4-4.52 4.29-.81 1.89-.74 3.91.23 5.71 1.16 2.15 3.38 3.55 5.89 4 1.78.32 3.71.14 5.5-.61 15.29-6.4 34.96-5.99 45.75.98 1.67 1.08 3.77 1.59 5.91 1.41 2.46-.21 4.72-1.32 6.18-3.01 1.42-1.6 2.05-3.56 1.78-5.52-.28-1.98-1.42-3.72-3.25-4.91h.01Z" class="cls-1"/><path d="M2436.76 214.13c-3.16-2.29-5.43-5.42-5.86-9.22-.55-4.81 1.76-9.39 5.77-12.6-9.05-3.5-15.69-10.89-16.75-20.11-1.21-10.48 5.13-20.33 15.22-25.47-3.94-3.05-6.48-6.94-6.99-11.38-1.4-12.12 12.79-23.71 31.68-25.89 1.47-.17 2.92-.26 4.35-.3-.85-1.48-1.43-3.1-1.64-4.85-.63-5.5 2.48-10.71 7.6-13.9.33-5.7 3.37-11.16 8.91-14.76 9.81-6.35 23.76-4.51 31.68 3.99 5.26-4.24 11.99-7.19 19.58-8.06 5.4-.62 10.61-.11 15.38 1.29-7.04-5.71-10.32-11.88-7.86-16.63 4.19-8.09 23.37-8.97 42.85-1.95 6.62 2.38 12.39 5.37 17 8.6-.93-6.89 2.11-13.89 8.77-18.21 10.08-6.53 24.56-4.43 32.34 4.69 2.78 3.26 4.31 6.98 4.7 10.71 4.71-3.02 10.31-5.1 16.47-5.81 13.29-1.53 25.54 3.67 32.29 12.52 2.03-5.78 8.1-10.4 15.72-11.28 9.99-1.15 18.85 4.56 19.8 12.75.47 4.11-1.14 8.07-4.12 11.13 2.33 1.49 4.17 3.48 5.32 5.8 10.91-3.72 21.41-2.7 24.71 2.84 1.83 3.08 1.1 6.98-1.56 10.85 14.88 1.05 26.67 9.05 27.94 20.05.13 1.14.1 2.27 0 3.39 9.32-2.1 18.71-.07 23.87 5.97 7.28 8.53 3.41 21.76-8.64 29.57-.3.19-.61.36-.91.54.13.24.28.47.41.71 3.62 7.28 2.58 15.37-1.95 21.86 3.41 2.66 5.84 6.77 6.4 11.61 1.05 9.11-4.92 17.27-13.32 18.24-1.6.18-3.17.09-4.67-.23-1.04 5.66-3.45 9.56-7.06 10.4-2.6-21.67-9.1-50.3-30.86-72.85-6.55 2.85-15.4 2.58-23.76-1.89-8.78-4.7-14.17-12.42-15.04-19.78-3.48 2.49-9.66 3.43-16.41 1.95-7.08-1.56-12.65-5.26-14.51-9.19-6.55 2.06-14.77 3.24-23.81 3.01-12.51-.32-23.45-3.2-30.2-7.33-3.99 5.37-12.95 9.73-23.83 10.82-8.41.85-16.05-.47-21.43-3.16a16.284 16.284 0 0 1-10.89 5.79c-4.93.5-9.42-1.38-12.73-4.52-4.42 8.88-15.39 17.78-29.95 23-4.68 1.68-9.3 2.74-13.75 3.41l.16.46c1.13 11.24-9.04 21.47-22.72 22.85-3.15.32-6.17.02-9.03-.58-9.87 16.07-12.04 32.01-12.27 44.72 1.71 4.08 2.26 8.92.99 13.87-.14.56-.5.98-.68 1.52.33 6.17.39 10.09-1.85 9.99-1.38-.06-2.53-.73-3.8-1.11-4.17 3.95-9.52 6.05-14.85 4.68-8.97-2.31-14.02-12.8-11.29-23.43.94-3.66 2.86-6.6 5.1-9.13l-.02.04Z" class="cls-20"/><path d="M3046.17 454.2c-11.94-3.3-29.24-10.2-63.52-18.53-3.92-.95-14.32 13.17-10.25 13.55 23.67 2.25 66.22 20.89 73.77 4.97Z" class="cls-25"/><path d="M3058.29 440.26c-11.94-3.3-38.95-16.95-72.89-15.72-4.19.15-12.64 14.73-8.56 15.12 23.67 2.25 74.93 13.57 81.46.6h-.01Z" class="cls-25"/><path d="M3064.19 419.23c-11.94-3.3-79.83-11.21-113.78-9.99-4.19.15-6.72 29.71-1.57 33.97 5.51 14.82 31.43 17.09 54.68 40.12 4.01 3.98 6.69-4.37 6.43-6.98-.65-6.74-3.07-7.92-10-23.13-4.22-9.27 4.04-17.29 10.45-19.53 28.82-5.16 49.3-3.43 53.79-14.44v-.02Z" class="cls-9"/><path d="M3311.07 491.22c-1.62-7.64-33.94-26.19-25.65-99.57 11.98-11.11 366.7 1.64 377.35 14.04-12.34 71.96-52.34 92.87-50.86 105.05.73 5.98 10.23 8.65 15.62 2.97 2.48 7.68-1.53 18.81-7.53 23.19-10.17 7.4-21.96 8.11-33.01 1.43 1.25 21.05-75.11 33.13-126.52 30.84-55.7-2.48-128.28-24.34-124.65-45.11-11.74 5.39-23.66 2.78-32.64-5.16-5.95-5.26-8.44-20.09-5.66-22.78 4.71 6.25 15.7 5.25 13.56-4.88v-.02Z" class="cls-40"/><path d="M3340.29 914.35c.02-21.28 5.51-100.09 13.82-149.7 1.39-8.3 69.48 6.52 78.71 23.27-3.85 18.05-16.57 117.38-18.85 128.07-1.53 7.19 25.93 66.11 44.43 110.22-4.39 1.91-43.61 17.02-52.48 19.02-40.01-74.05-65.64-115-65.62-130.88Z" class="cls-36"/><path d="M3467.04 1033.08c.38.96-63.8 34.59-64.53 33.57-6.34-8.85-18.4-31.92-21.88-37.16l70.86-32.41c4.34 10.93 12.82 29.07 15.56 36h-.01Z" class="cls-5"/><path d="M3390.24 1059.96c-1.04-3.66-1.66-8.72-2.48-13.19-.61-3.32 26.08-18.83 30.07-12.39a47.28 47.28 0 0 1 2.51 4.57c4.9-2.89 9.73-5.9 14.48-9.01 11.01-7.21 20.55-14.21 26.95-19.61 6.66 9.99 16.49 28.31 23.79 39.47 0 0-104.58 93.23-133.48 87.34-8.14-1.66 8.53-40.94 38.16-77.19Z" class="cls-31"/><path d="m3481.15 1042.71 4.42 7.09s-104.58 93.23-133.48 87.34c-1.15-.23-1.79-1.23-1.99-2.84 36.79-12.57 104.71-68.97 131.05-91.6Z" class="cls-15"/><path d="M3403.98 1065.08c.61.25 1.26.16 1.77-.17a1.932 1.932 0 0 0-.34-3.4c-8.24-3.31-18.14-1.66-24.08 3.96-.77.73-.8 1.95-.07 2.72s1.94.79 2.73.07c4.86-4.66 13.1-5.94 19.99-3.18Zm-5.9 9.06a1.914 1.914 0 0 0 2.37-1.34c.28-1.03-.32-2.09-1.34-2.37-8.55-2.37-17.31-.78-24.02 4.43-.84.65-1 1.86-.35 2.7s1.91 1.06 2.7.35c3.38-2.61 10.55-6.56 20.64-3.76Zm-29.99 13.81c.69.81 1.9.93 2.72.2 4.87-4.33 13.72-6.01 21.35-4.21.54.12 1.07.01 1.5-.26.89-.59 1.14-1.78.55-2.67-.27-.41-.69-.7-1.17-.82-8.76-2.05-18.93 0-24.76 5.06-.81.69-.89 1.91-.2 2.72v-.02Z" class="cls-83"/><path d="M3626 844.08c8.4 12.23 27 28.05 37.33 42.02-42.96 31.65-71.58 49.24-93.22 61.55-18.89 10.74-47.27 9.46-57.45-9.95-7.27-13.86-40.57-83.67-64.05-130.09-18.42-36.41 52.43-45.48 91.34-34.45 8.47 30.81 23.96 106.73 26.89 106.99 4.32.39 15.04-6.5 59.17-36.07h-.01Z" class="cls-36"/><path d="M3640.97 827.39c1.01-.69 42 50.29 40.95 51.34-9.08 9.12-29.42 25.13-34.81 30.27l-43.82-54.43c11.47-7.88 30.4-22.19 37.68-27.18Z" class="cls-74"/><path d="M3678.85 897.56c-3.3 1.9-8.05 3.73-12.19 5.61-3.07 1.4-24.61-20.72-19.32-26.16 1.21-1.25 2.48-2.44 3.82-3.54-3.71-3.76-7.82-7.75-12.26-11.86-9.67-8.93-18.78-16.48-25.57-21.38 8.07-8.88 23.46-22.87 32.51-32.67 0 0 115.84 78.8 117.15 108.27.37 8.3-41.78 1.67-84.14-18.26Z" class="cls-31"/><path d="m3640.03 813.57 5.81-6.01s115.84 78.8 117.15 108.27c.05 1.17-.75 2.04-2.27 2.62-21.14-32.64-92.34-84.82-120.69-104.87Z" class="cls-15"/><path d="M3680.48 882.99c.09-.65-.16-1.27-.6-1.68-.28-.26-.64-.44-1.04-.49a1.92 1.92 0 0 0-2.17 1.65c-1.21 8.8 2.79 17.99 9.69 22.4.9.57 2.09.3 2.66-.59.57-.9.3-2.07-.59-2.66-5.71-3.58-8.95-11.26-7.94-18.62Zm10.22 3.53a1.93 1.93 0 0 0-1.88-1.97c-1.06-.03-1.95.82-1.98 1.88-.22 8.87 3.45 16.98 10.13 22.22.84.66 2.05.52 2.71-.32s.56-2.11-.32-2.71c-3.36-2.64-8.93-8.64-8.66-19.1Zm20.68 25.74c.61-.87.44-2.07-.47-2.69-5.39-3.67-9.16-11.85-9.27-19.69-.01-.55-.25-1.04-.62-1.39a1.93 1.93 0 0 0-2.73.12c-.33.36-.51.84-.51 1.33.13 8.99 4.6 18.37 10.92 22.79.87.61 2.07.4 2.68-.47Z" class="cls-83"/><path d="M3198.27 513.87c-4-4.55 36.79-28.48 40.65-24.82 50.41 47.66 72.23 60.07 151.47 86.88-10.56 15.83-19.85 40.87-30.53 56.59-75.27-39.06-117.72-68.67-161.59-118.65Z" class="cls-36"/><path d="M3290.27 618.13c23.46 8.72 65.18 25.53 90.03 32.79 12.77-26.61 28.56-86.82 28.91-88.38-34.45.52-78.08-14.05-90.47-18.78-7.87 17.04-21.02 51.05-28.48 74.36h.01Z" class="cls-71"/><path d="M3722.12 549c4.77-3.74-30.91-34.76-35.39-31.88-58.32 37.56-82.05 45.74-164.88 57.5 7.47 17.5 11.98 43.82 19.58 61.24 81.17-24.53 128.35-45.82 180.68-86.86h.01Z" class="cls-36"/><path d="M3616.88 638.11c-24.6 4.56-68.13 14.76-93.87 17.65-8.01-28.41-14.45-84.61-14.53-86.21 32.35-.33 79.57-9.38 92.59-11.91 4.82 18.14 12.47 56.23 15.81 80.47Z" class="cls-71"/><path d="M3548.09 750.18c-51.64 19.31-152.47 33.39-210.1 3.6 5.05-71.07 9.27-122.74 28.95-185.98 42.41-5.42 133.2.4 170.74 9.49-1.24 58.78 3.76 96.67 10.41 172.89Z" class="cls-71"/><path d="M3397.98 567.94c.08-2.79.57-4.89 1.44-7.48 27.47-1.06 71.9 2.28 102.34 7.03.14 1.22.57 2.38.53 3.63-.66 21.61-24.54 38.41-53.35 37.53s-51.62-19.1-50.97-40.71h.01Z" class="cls-36"/><path d="m3416.19 504.78-4.58 63.31c-.99 13.61 15.52 25.9 36.86 27.45s39.45-8.24 40.43-21.86l4.58-63.31-77.29-5.59Z" class="cls-36"/><path d="M3316.54 879.01c5.49-48.09 24.19-188.9 27.59-210.23 11.76-7.83 18.3-23.62 24.53-54.89 36.94 1.71 102.07 2.72 147.76 8.22 7.73 37.9 18.14 62.76 33.68 63.63l25.95 197.24c-105.22 31.25-234.82 8.16-259.51-3.97Z" class="cls-90"/><path d="m3499.4 648.91 16.03 1.71 5.39-83.88-16.16.24-5.26 81.93Zm-134.54-10.28 18.79 3.36 6.4-82.57-15.49-1.49-9.71 80.7h.01Z" class="cls-90"/><path d="M3358.57 532.46c-.29-3.65.21-7.2.97-10.69 37.46-3.82 93.82-6.56 134.15-4.72.36 1.57 1.08 3.02 1.21 4.65 2.23 28.24-26.48 53.54-64.12 56.51s-69.97-17.51-72.2-45.75Z" style="fill:#8e0303;isolation:isolate;opacity:.16;stroke-width:0"/><path d="M3756.26 530.93c4.36 1.3 30.35-.75 38.15.83 4.98 1.01 5.03 9.2-3.5 11.41-11.7 3.03-53.53 9.65-69.1 11.37-23.18.36-42.27-19.95-41.83-41.95.66-33 2.24-47.97 3.38-68.24.28-4.99 10.56-2.98 15.86 7.45 3.86 7.61 1.25 20.59 3.53 26.25 2.73 6.8 7.57 5.76 13.46 1.88 16.93-19.82 28.3-34.34 35.49-41.31 5.57-5.41 14.83 1.09 12.1 6.4-4.56 8.88-16.5 28.46-25.87 44.82 16.94-10.35 41.65-24.19 50.62-28.56 8.23-4.02 15.81 6.36 7.86 12.22-9.68 7.13-28.52 23.46-44.9 35.26 15.71-2.3 40.84-8.78 50.55-9.93 10.11-1.2 9.59 8.3 2.5 11.72-26.49 12.78-43.29 18.22-48.3 20.4v-.02Zm-583.09-34.97c-4.52.43-29.64-6.58-37.6-6.52-5.08.03-6.71 8.05 1.24 11.87 10.9 5.22 50.67 19.77 65.63 24.45 22.68 4.81 45.31-11.44 49.12-33.12 5.7-32.51 7.03-47.51 9.81-67.62.69-4.96-9.79-4.96-17 4.26-5.26 6.72-5.19 19.96-8.51 25.08-3.99 6.15-8.54 4.2-13.57-.75-12.8-22.71-21.17-39.15-26.87-47.36-4.43-6.38-14.76-1.78-13.11 3.95 2.76 9.59 10.72 31.11 16.76 48.96-14.64-13.42-36.22-31.75-44.18-37.77-7.3-5.52-16.74 3.2-10.06 10.48 8.13 8.86 23.47 28.51 37.27 43.24-14.98-5.28-38.39-16.47-47.69-19.47-9.69-3.13-11 6.3-4.71 11.02 23.53 17.64 38.98 26.22 43.47 29.31Z" class="cls-36"/><path d="M3282.73 417.5c1.53 31.54 20.05 55.27 36.31 55.85s22.68-23.59 23.84-53.39-11.07-54.51-27.34-55.02c-22.23-.69-34.25 22.9-32.81 52.55Z" class="cls-21"/><path d="M3307.98 315.75c-22.56 118.06 37.06 184.49 134.77 203.16s196.13 6.64 220.03-113.23c26.32-132.06-43.74-186.48-147.98-200.25-98.63-13.03-184.25-7.74-206.81 110.31h-.01Z" class="cls-40"/><path d="M3360.26 227.23c-4.46 3.26-20.64 22.72-23.09 44.97l-19.21 157.45c-6.17 51.13 29.89 106.58 88.87 116.16 54.87 8.91 121.78-12.87 145.72-34.87 31.16-28.64 97.87-186 93.42-207.05-15.07-71.09-53.8-82.89-138.4-95.54-79.13-11.83-125.26 2.79-147.31 18.89Z" class="cls-36"/><path d="M3569.49 371.45c-11.38 34.67-15.63 50.93 14.95 71.67 31.12 21.11 60.54-33.61 68.99-90.12 10.48-70.12-14.28-130-136.54-140.1 41.66 47.16 81.5 70.5 52.6 158.55Z" class="cls-40"/><path d="M3460.48 476.68c2.2 20.4-31.81 44.52-60.02 40.07-28.06-4.43-44.69-30.18-42.27-50.47 3.05-10.93 21.17-5.89 49.04-3.58 27.84 2.3 51.91 1.57 53.24 13.98h.01Z" class="cls-62"/><path d="M3405.4 498.71c-13.08-1.17-23.39 1.05-30.43 6.48 6.9 5.61 16.42 11.2 27.34 12.13 12.3 1.05 23.27.06 32-7.32-2.68-6.11-17.22-10.26-28.92-11.3Z" class="cls-73"/><path d="M3447.28 466.59c-9.37-3.73-24.54-3.1-38.42-4.25-15.66-1.3-26.97-4.23-36.94-2.93 2.99 8.68 15.63 15.21 33.63 16.91 20.79 1.96 38.14-1.01 41.72-9.73h.01Z" class="cls-43"/><path d="M3391.54 442.73c.73.07 1.4-.4 1.59-1.11 1.36-5.11 5.79-8.06 11.28-7.53 5.52.54 9.39 4.36 9.62 9.53a1.497 1.497 0 1 0 2.99-.14c-.3-6.61-5.37-11.7-12.33-12.38-6.92-.67-12.73 3.24-14.47 9.74-.21.8.26 1.62 1.06 1.84l.25.05Z" class="cls-57"/><path d="M3633.04 472.57c-18.04 33.08-53.94 48.85-75.16 40.92-21.22-7.92-17.45-37.6-6.63-71.29 12.04-37.51 31.11-53.69 56.81-48.43 30.33 6.2 41.93 47.69 24.98 78.79Z" class="cls-36"/><path d="M3595.66 474.96c-7.31 15.64-24.79 20.54-30.75 16.07-4.81-3.61-4.32-12.8.32-28.19 5.43-17.97 13.61-27.8 23.9-23.62 10.7 4.35 15.14 17.34 6.53 35.75Z" class="cls-33"/><path d="M3377.7 391.97c7.46 16.38 4.37 33.11-4.44 38.58-13.27 8.25-42.36 7.67-51.48-7.53-8.83-14.72-.97-38.78 17.2-47.42 15.91-7.56 31.49.52 38.71 16.36h.01Z" class="cls-81"/><path d="M3324.61 381.48c15.93-22.2 46.75-10.48 53.33 11.04-7.46-16.37-23.95-23.01-38.65-16.02-9.09 4.32-16.2 13.07-19.03 23.39-2.25 8.23-1.65 17.82 2.02 23.94-4.54-4.24-9.4-26.02 2.32-42.34Z" class="cls-65"/><path d="M3372.44 400.18c2.56 11.04-3.3 22.6-13.08 25.82s-19.79-3.13-22.35-14.17 3.3-22.6 13.09-25.82 19.79 3.13 22.35 14.17h-.01Z" class="cls-40"/><path d="M3371.17 398.18c.71 3.06-.92 6.27-3.63 7.16s-5.49-.87-6.2-3.93.92-6.27 3.63-7.16 5.49.87 6.2 3.93Z" class="cls-4"/><path d="M3453.26 397.72c-12.86 15.16-13.28 33.28-4.17 41.11 13.74 11.81 48.4 18.35 62.94 4.82 14.08-13.1 10.63-39.99-8.82-53.41-17.03-11.74-37.5-7.19-49.95 7.48Z" class="cls-81"/><path d="M3518.83 399.87c-13.48-26.94-52.92-22.34-66-1.63 12.85-15.15 34.05-17.99 49.79-7.14 9.73 6.72 16.03 17.53 16.87 28.93.66 9.09-2.41 18.89-8.25 24.34 6.43-3.28 17.51-24.68 7.6-44.49h-.01Z" class="cls-65"/><path d="M3504.03 414.58c3.27 11.81-3.65 24.03-15.45 27.31-11.81 3.27-24.03-3.64-27.31-15.45s3.65-24.03 15.45-27.31 24.03 3.64 27.31 15.45Z" class="cls-40"/><path d="M3502.45 412.43c.91 3.28-1.01 6.67-4.29 7.58s-6.67-1.01-7.58-4.29a6.156 6.156 0 0 1 4.29-7.58 6.156 6.156 0 0 1 7.58 4.29Z" class="cls-4"/><path d="M3319.8 339.5c-1.2-.03-2.4-.59-3.25-1.68-1.59-2.03-1.36-5.08.49-6.81 13.47-12.65 37.26-15.73 56.51-7.37 2.26.99 3.36 3.79 2.46 6.27-.92 2.49-3.5 3.7-5.73 2.72-16.15-7.02-36.57-4.55-47.52 5.71-.85.81-1.92 1.19-2.96 1.17Zm212.93 16.26c1.41.22 2.91-.15 4.11-1.14 2.23-1.83 2.54-5.13.71-7.35-13.34-16.19-40.54-24.28-64.6-19.28a5.223 5.223 0 0 0-4.05 6.18c.6 2.83 3.39 4.64 6.18 4.05 20.19-4.21 43.57 2.56 54.42 15.69a5.191 5.191 0 0 0 3.24 1.84Z" style="fill:#773220;stroke-width:0"/><path d="M3535.61 471.91c-.33 7.22-10.63 12.63-23.02 12.07s-22.16-6.87-21.83-14.1 10.64-12.63 23.02-12.07 22.16 6.87 21.83 14.1Zm-192.06-17.45c-.93 6.36-9.41 10.4-18.95 9.01-9.54-1.39-16.52-7.67-15.6-14.03s9.41-10.4 18.95-9.01c9.54 1.38 16.53 7.67 15.6 14.03Z" class="cls-41"/><path d="M3281.95 340.68c.06 2.97.57 8.72 5.94 9.48 5.65.8 9.85-3.86 11.69-32.51.39-6.04 1.01-11.69 1.97-18.97 6.48-48.83 25.81-75.94 92.43-77.87 10.59-.3 37.96 8.94 49.3 13.32-71.23-1.3-103.13 13.49-116.44 38.18-15.07 27.94-1.23 130.65-45.77 118.53 8.35-2.96 13.53-18.32 12.05-21.83-13.36-.19-21.21-14.88-11.15-28.33h-.02Zm333.44-19.79c3.43 12.23 10.25 17.52 18.37 18.27 6.03.55 13.47-7.06 4.74-16.43 11.43 7.06 6.7 17.98-.41 20.58-6.43 2.34-17.98-.18-23.92-11.23-.75 4.83-1.71 9.81-3.09 15.09-7.02 26.67-6.86 36.61 2.82 39.68 9.84 3.13 12.77-9.91 2.86-11.84 11.94-5.22 25.18 10.9 16.26 27.93-6.05 11.55-29.43 18.18-42.21-2.03-17.85 10.93-10.91 30.4 4.56 29.41-8.28 11.72-48.63 10.61-41.6-24 5.71-28.17 19.52-50.56 18.1-85.21-.96-23.37-23.26-54.5-62-56.47 49.28-50.01 110.65-2.68 105.52 56.24Z" class="cls-40"/><path d="M3327.48 194.32c.99 6.79 5.21 14.17 12.97 12.99-6.81-22.6 5.63-32.75 17.64-35.83 15.05-3.86 33.05 7.73 25.11 19.14-.6-11.72-17.91-8.51-14.2 2.95 2.6 8.02 68.78-3.57 94.25-4.26 32.59-.88 133.36 1.72 150.22 58.47-8 .23-60.68 23.77-66.86 28.07-5.71 3.97-61.2 49.11-131.67 44.73 15.06-3.46 60.48-9.92 98.97-41.08-10.5 5.3-25.32 13.87-42.31 16.68-138.36 22.91-173.38-63.44-144.11-101.86Z" class="cls-40"/><path d="M3611.73 357.91c.61-3.64-7.22-7.98-17.5-9.71s-19.1-.18-19.71 3.46 7.22 7.98 17.5 9.71 19.1.18 19.71-3.45Zm-42.24 13.54c-.61 3.64 7.22 7.98 17.5 9.71s19.1.18 19.71-3.46-7.23-7.98-17.5-9.71-19.1-.18-19.71 3.46Z" style="fill:#ed3b66;stroke-width:0"/><path d="M3374.45 681.79s-10.14-29.92 7.61-28.93c16.33.91 29.05 12.79 30.3 27.26 1.88-5.54 6.58-9.45 12.05-9.15 6.5.36 11.37 6.46 11.36 13.75 1.04-16.04 16.07-28.21 33.73-27.23 17.75.99 4.35 29.6 4.35 29.6s10.13 29.92-7.61 28.93c-17.39-.97-30.76-14.35-30.45-30.09-.6 7.48-6.28 13.21-12.92 12.85-5.56-.31-9.82-4.85-10.99-10.7-3.04 14.03-16.9 24.2-33.07 23.3-17.75-.99-4.35-29.6-4.35-29.6h-.01Z" style="fill:#ff9100;stroke-width:0"/><path d="M1661.31 860.2c-1.26 1.22-46.57-42.39-45.25-44.05 11.49-14.44 126.57-152.18 133.38-160.42l58.49 50.61c-13.56 12.41-137.53 145.07-146.62 153.86Z" class="cls-70"/><path d="M1661.43 867.75c-.86.81-56.46-47.96-55.66-49.15 6.97-10.32 23.75-28.85 27.96-34.69l59.42 52.07c-9.75 9.27-25.53 25.91-31.72 31.77Z" class="cls-5"/><path d="M1608.29 799.72c3.14-2.42 7.8-4.97 11.81-7.49 2.98-1.87 28.29 17.99 23.59 24.34-1.2 1.62-2.35 3-3.46 4.19 4.69 3.63 9.46 7.14 14.31 10.55 11.22 7.88 21.69 14.42 29.38 18.53-7.1 10.3-21.05 26.88-29.04 38.25 0 0-130.58-65.29-136.03-95.54-1.54-8.52 42.92-7.52 89.44 7.17Z" class="cls-66"/><path d="m1660.04 881.08-5.16 7.02s-130.58-65.29-136.03-95.54c-.22-1.2.5-2.21 1.98-3.02 26.36 30.77 107.15 74.78 139.21 91.55Z" class="cls-69"/><path d="M1608.63 815c0 .68.34 1.29.85 1.65.34.24.74.36 1.15.36 1.11 0 2.01-.89 2.01-2 .02-9.25-5.38-18.2-13.12-21.79a2.01 2.01 0 0 0-2.66.98c-.47 1.01-.02 2.18.98 2.66 6.39 2.91 10.81 10.39 10.79 18.13Zm-11.05-2.22c.06.57.37 1.09.84 1.43a2.012 2.012 0 0 0 3.15-1.87c-1-9.19-5.92-17.06-13.55-21.54-.96-.57-2.19-.25-2.75.7s-.29 2.26.71 2.75c3.83 2.27 10.42 7.68 11.6 18.53Zm-24.93-23.71c-.51.98-.17 2.2.86 2.71 6.07 3.04 11.11 10.97 12.31 19.05.08.54.38 1.03.83 1.35.41.29.92.42 1.45.34 1.1-.16 1.85-1.19 1.69-2.28-1.39-9.27-7.3-18.33-14.44-22.02-.98-.51-2.19-.13-2.7.86Z" class="cls-83"/><path d="M2154.76 735.74c1.71.4 18.06-60.03 16.07-60.77-17.28-6.48-149.04-47.63-159.12-51.19l-24.64 67.08c18.01 3.67 155.37 42.02 167.69 44.88Z" class="cls-70"/><path d="M2158.42 742.61c1.15.26 23.27-68.62 21.97-69.23-11.3-5.24-35.2-12.52-41.82-15.35l-23.66 73.57c13.12 2.96 35.2 9.15 43.52 11.01h-.01Z" class="cls-5"/><path d="M2172.13 659.51c-3.9-.74-9.2-.93-13.92-1.38-3.5-.33-17.18 28.79-10.12 32.35 1.81.91 3.45 1.62 4.97 2.19-2.37 4.97-5.06 10.3-8.04 15.86-6.48 12.09-12.88 22.63-17.91 29.76 10.98 6 30.89 14.54 43.14 21.11 0 0 87.27-117.04 78.54-146.51-2.46-8.3-41.72 12.58-76.66 46.62Z" class="cls-66"/><path d="m2162.48 755.44 7.77 3.95s87.27-117.04 78.54-146.51c-.35-1.17-1.44-1.75-3.13-1.81-9.71 39.34-62.08 114.97-83.17 144.37h-.01Z" class="cls-69"/><path d="M2180.18 652.26c.68-.89.55-2.13-.32-2.82s-2.13-.55-2.82.32c-5.29 6.69-6.1 17.11-1.92 25.36a2 2 0 0 0 2.7.88 2.003 2.003 0 0 0 .88-2.7c-3.5-6.9-2.91-15.57 1.48-21.04Zm9.42-7.67c.66-.89.33-2.18-.6-2.78-.93-.6-2.17-.33-2.77.61-4.8 7.44-5.65 16.68-2.42 25.34a2.009 2.009 0 0 0 3.76-1.41c-3.82-10.22-.37-18.02 2.03-21.76Zm6.77-10.17c-4.72 6.5-5.93 17.25-3 26.16a2.012 2.012 0 0 0 2.54 1.28c.49-.16.9-.5 1.14-.96.25-.47.32-1.03.14-1.58-2.55-7.76-1.62-17.1 2.43-22.55.68-.92.45-2.16-.45-2.8s-2.15-.45-2.8.45Z" class="cls-83"/><path d="M2052.74 630.94c-1.81-.53-25.44-9.19-99.14-34.74-22.78-.48-156.85.88-172.99 4.32-44.71 60.89-76.36 100.83-78.56 102.87 14.83 17.17 59.1 51.65 74.88 61.49 30.85-31.86 36.76-37.07 62.97-62.11 15.95-15.24 46.4-20.53 75.44-13.46 37.75 9.18 58.46 18.2 104.55 29.88 6.75-16.4 27.38-66.24 32.85-88.25Z" style="fill:#22597c;stroke-width:0"/><path d="M2108.58 285.39c4.57-2.68 25.9 37.98 21.51 40.99-63.13 43.24-141.68 96.15-167.4 105.53l-30.31-50.54c43.87-23.67 112.27-58.42 176.2-95.98Z" class="cls-70"/><path d="M2022.6 420.76c-11.44 7.84-87.68 48.3-106.43 54.86-16.04-38.79-25.03-85.06-22.77-88.66 38.36-12.21 67.34-27.92 94.41-38.6 12.48 22.25 26.4 50.99 34.79 72.41Z" class="cls-19"/><path d="M2147.23 322.97c4.27 1.56 30.34 1.11 38.03 3.17 4.9 1.31 4.46 9.49-4.19 11.17-11.86 2.3-54.02 6.34-69.67 7.1-23.16-1.07-40.96-22.5-39.17-44.44 2.68-32.9 5.18-47.74 7.56-67.9.59-4.97 10.72-2.33 15.37 8.41 3.39 7.83-.01 20.63 1.91 26.42 2.31 6.95 7.2 6.22 13.32 2.7 18.11-18.75 30.36-32.54 37.95-39.05 5.89-5.05 14.73 2 11.69 7.13-5.09 8.58-18.22 27.4-28.57 43.14 17.55-9.29 43.06-21.58 52.27-25.4 8.46-3.5 15.39 7.32 7.1 12.68-10.1 6.53-29.91 21.67-46.98 32.44 15.82-1.33 41.3-6.25 51.06-6.81 10.17-.58 9.06 8.87 1.78 11.85-27.22 11.13-44.33 15.53-49.46 17.4Zm-550.71-43.95c-4.57-2.68-25.9 37.98-21.51 40.99 63.13 43.24 143.43 93.22 169.16 102.6l28.56-47.61c-43.87-23.66-112.27-58.42-176.2-95.98h-.01Z" class="cls-70"/><path d="M1682.51 414.39c11.44 7.84 87.68 48.3 106.43 54.86 16.04-38.79 25.03-85.06 22.77-88.66-38.36-12.21-67.34-27.92-94.41-38.6-12.48 22.25-26.4 50.99-34.79 72.41Z" class="cls-19"/><path d="M1976.65 575.08c8.65-15.82-4.52-20.24-5.28-24.77-4.63-27.69-11.79-87.89-14.34-169.06-58.58-4.66-126.99-3.71-186.03.91-7.52 74.01-6.74 174.47-12.14 236.94 88.3 28.25 128.98 21.37 227.1-14.26 6.09-15.99-15.07-19.24-9.31-29.76Z" class="cls-19"/><path d="M1915.51 387.47c.14-2.99-.31-5.87-.96-8.7-28.68-1.84-71.64-2.03-102.38.83-.24 1.29-.89 2.37-.96 3.71-1.1 23.12 21.35 42.8 50.16 43.95s53.05-16.67 54.15-39.79h-.01Z" class="cls-59"/><path d="m1903.29 326.39 2.97 63.41c.64 13.64-16.99 25.54-39.38 26.59s-41.05-9.16-41.69-22.79l-2.97-63.41 81.07-3.79Z" class="cls-70"/><path d="M1930.48 365.07c.65-2.93.66-5.86.45-8.78-29.94-7.4-75.33-16.1-108.24-19.25-.47 1.23-1.22 2.32-1.52 3.64-5.05 22.64 15.32 46.46 45.5 53.19s58.75-6.16 63.8-28.8h.01Z" class="cls-44"/><path d="M1557.87 316.6c-4.27 1.56-30.34 1.11-38.03 3.17-4.9 1.31-4.46 9.49 4.19 11.17 11.86 2.31 54.02 6.34 69.67 7.1 23.16-1.07 40.96-22.5 39.17-44.44-2.68-32.9-5.18-47.75-7.56-67.9-.59-4.97-10.72-2.33-15.37 8.41-3.39 7.83.01 20.63-1.91 26.42-2.31 6.95-7.2 6.22-13.32 2.7-18.11-18.74-30.36-32.54-37.95-39.05-5.89-5.05-14.73 2-11.69 7.13 5.09 8.58 18.22 27.4 28.57 43.14-17.55-9.29-43.06-21.58-52.27-25.4-8.46-3.5-15.39 7.32-7.1 12.68 10.1 6.52 29.91 21.67 46.98 32.44-15.82-1.33-41.3-6.25-51.06-6.81-10.17-.58-9.06 8.87-1.78 11.85 27.22 11.13 44.33 15.53 49.45 17.39h.01Z" class="cls-70"/><path d="M2036.4 237.73c-1.08 31.56-19.24 55.55-35.49 56.37s-23.01-23.26-24.61-53.04 10.28-54.66 26.53-55.41c22.22-1.01 34.58 22.4 33.57 52.07Z" class="cls-21"/><path d="M1965.43 71.27c1.18 28.27 17.09 94.3 17.07 103.7-.02 10.39 3.27 47.74 53.8 24.91-44.16-5.39-5.05-115.02-70.88-128.61h.01Z" class="cls-3"/><path d="M2011.44 143.42c19.5 118.6-42.54 183.59-141.7 199.89s-200.67-20.63-212.51-140.21c-11.4-115.1 42.43-167.7 148.05-178.94 99.94-10.64 186.65.66 206.15 119.26Z" class="cls-3"/><path d="M1956.02 60.78c4.51 3.19 36.48 25.42 39.25 47.63l18.39 151.35c6.91 51.04-26.5 105.54-85.34 115.97-54.73 9.71-121.96-11.1-146.21-32.75-31.57-28.18-100.57-184.56-96.42-205.67 14.03-71.3 58.9-67.26 143.3-81.14 78.95-12.98 104.74-11.17 127.03 4.6Z" class="cls-70"/><path d="M1749 195.85c5.58 36.06 26.44 75.46-3.84 96.65-30.81 21.55-71.09-57.5-80.36-113.88-11.5-69.96 12.39-130.19 134.49-142.07-40.97 47.76-60.4 93.98-50.29 159.3Z" class="cls-3"/><path d="M1859.29 296.17c-1.9 20.43 32.45 44.05 60.6 39.19 27.99-4.84 44.25-30.83 41.53-51.08-3.21-10.88-21.25-5.58-49.09-2.87-27.81 2.71-51.88 2.33-53.04 14.76Z" style="fill:#93251c;stroke-width:0"/><path d="M1914.68 317.39c13.06-1.35 23.4.71 30.52 6.04-6.81 5.71-16.25 11.44-27.16 12.53-12.28 1.23-23.27.4-32.11-6.85 2.59-6.15 17.06-10.51 28.75-11.72Z" style="fill:#f77d61;stroke-width:0"/><path d="M1872.34 285.88c9.32-3.86 24.49-3.46 38.35-4.81 15.64-1.52 26.9-4.62 36.89-3.47-2.86 8.73-15.41 15.44-33.38 17.4-20.75 2.26-38.15-.46-41.86-9.13Z" class="cls-43"/><path d="M1927.72 261.22c-.72.08-1.41-.37-1.61-1.08-1.44-5.09-5.91-7.98-11.39-7.37-5.51.62-9.32 4.5-9.48 9.67-.03.83-.72 1.48-1.55 1.45-.83-.03-1.48-.72-1.45-1.55.21-6.61 5.2-11.78 12.15-12.55 6.91-.77 12.78 3.06 14.61 9.53.23.8-.24 1.63-1.04 1.85l-.24.05Z" class="cls-57"/><path d="M1686.92 297.89c18.52 32.82 54.65 48.06 75.75 39.83 21.11-8.23 16.9-37.85 5.59-71.38-12.59-37.33-31.89-53.23-57.51-47.6-30.23 6.65-41.24 48.3-23.83 79.15Z" class="cls-70"/><path d="M1724.33 299.74c7.54 15.53 25.09 20.18 30.98 15.62 4.76-3.68 4.13-12.87-.73-28.18-5.69-17.89-14.02-27.6-24.24-23.27-10.63 4.5-14.89 17.56-6.01 35.83Z" class="cls-33"/><path d="M1940.83 210.26c-7.22 16.48-3.89 33.17 5 38.51 13.39 8.05 42.46 7.05 51.36-8.28 8.62-14.85.4-38.79-17.89-47.17-16.01-7.33-31.48.97-38.47 16.93Z" class="cls-81"/><path d="M1993.76 199c-16.25-21.97-46.89-9.8-53.17 11.82 7.22-16.48 23.61-23.35 38.41-16.58 9.15 4.19 16.39 12.83 19.37 23.11 2.37 8.19 1.9 17.8-1.68 23.96 4.48-4.31 9.02-26.15-2.93-42.31Z" class="cls-45"/><path d="M1946.21 218.39c-2.4 11.08 3.63 22.55 13.46 25.62s19.74-3.42 22.14-14.5-3.63-22.55-13.46-25.62-19.74 3.42-22.14 14.5Z" class="cls-47"/><path d="M1947.45 216.38c-.67 3.07 1.01 6.26 3.74 7.11s5.48-.95 6.14-4.02-1.01-6.26-3.73-7.11-5.48.95-6.14 4.02h-.01Z" class="cls-4"/><path d="M1865.36 217.11c13.08 14.97 13.77 33.08 4.77 41.05-13.56 12.01-48.13 19.05-62.86 5.73-14.27-12.9-11.21-39.84 8.05-53.54 16.86-11.99 37.4-7.74 50.05 6.75h-.01Z" class="cls-81"/><path d="M1799.83 220.21c13.09-27.13 52.59-23.11 65.97-2.59-13.07-14.96-34.3-17.49-49.89-6.41-9.63 6.85-15.78 17.76-16.44 29.17-.53 9.1 2.68 18.85 8.61 24.21-6.48-3.19-17.87-24.43-8.24-44.38h-.01Z" class="cls-45"/><path d="M1814.84 234.7c-3.1 11.85 3.99 23.98 15.85 27.08s23.98-3.99 27.08-15.85c3.1-11.85-3.99-23.98-15.85-27.08-11.85-3.1-23.98 3.99-27.08 15.85Z" class="cls-47"/><path d="M1816.38 232.53c-.86 3.29 1.11 6.65 4.4 7.51s6.65-1.11 7.51-4.4-1.11-6.65-4.4-7.51-6.66 1.11-7.51 4.4Z" class="cls-4"/><path d="M1784.09 292.48c.43 7.22 10.81 12.47 23.19 11.73 12.37-.74 22.06-7.19 21.63-14.41s-10.82-12.47-23.19-11.73c-12.38.74-22.06 7.2-21.63 14.41Zm191.79-20.24c1.02 6.35 9.56 10.26 19.08 8.74 9.51-1.52 16.41-7.91 15.39-14.26s-9.56-10.26-19.08-8.74-16.42 7.91-15.4 14.26h.01Z" style="fill:#ffa4a4;stroke-width:0"/><path d="M1989.47 61.12c-45.41-48.71-196.96-33.16-258.73 22-28.63 25.56 22.52 150.43-23.38 160.69 53.26 15.41 51.2-22.02 49.71-32.3-.85-5.86-3.36-18.33-5.81-33.77 15.68-39.23 52.12-47.09 67.54-72.24 2.85 5.3-11.02 36.05-17.98 40.36 10.91-1.72 35.58-19.32 40.5-26.04 5.39-.14-2.07 14.38-8.88 20.11 8.43.17 55.05-21.61 81.94-68.16 5.66-.39-12.7 49.5-46.12 69.94 14.17 1.15 64.23-6.32 97.9-31.37 24.5-18.23 38.7-32.71 23.31-49.22Z" class="cls-3"/><path d="M1993.32 158.07c-1.59.07-3.16-.47-4.37-1.51-10-8.46-28.46-10.07-42.97-3.73-3.25 1.44-7.06-.17-8.46-3.56-1.39-3.39.14-7.31 3.42-8.74 18.88-8.26 42.51-5.83 56.18 5.71 2.76 2.34 3.17 6.55.93 9.39-1.21 1.53-2.94 2.36-4.71 2.43h-.02Zm-210.8 22.77a6.63 6.63 0 0 1-5.25-1.46c-2.83-2.36-3.23-6.56-.88-9.4 11.62-14.02 41.17-24.96 61.97-20.6 3.6.76 5.91 4.29 5.16 7.9-.75 3.6-4.32 5.91-7.9 5.16-15.97-3.37-40.45 5.78-48.95 16.05a6.652 6.652 0 0 1-4.14 2.34h-.01Z" style="fill:#f48d2f;stroke-width:0"/><path d="M1903.46 492.9c9.93 6.6 13.37 15.75 10.39 27.48-1.03 4.07-2.87 7.64-5.52 10.72s-5.8 5.53-9.43 7.37c-3.63 1.87-7.84 3.08-12.64 3.63s-9.28.36-13.41-.66c-10.83-2.67-18.51-9.38-22.92-19.95-.78-1.86-.08-3.59 2.06-5.17s4.72-2.88 7.72-3.93 5.94-1.73 8.8-2.06 4.6-.2 5.22.39c.55.59.86 1.3.94 2.14.15 2.86 1.99 3.8 5.52 2.83s5.01-2.35 4.43-4.15c-.66-1.98-3.22-4.22-7.7-6.71s-6.76-5.57-6.87-9.23c-.04-.84.18-2.24.66-4.18s1.87-4.14 4.18-6.6c-6.96-.11-11.8-.31-14.51-.6-1.76-.18-3.23-1.33-4.42-3.43s-2.04-4.5-2.53-7.17-.59-5.29-.3-7.83 1.05-4.39 2.25-5.52c.95-.88 4.2-1.53 9.76-1.95s11.57-.59 18.06-.49 12.52.42 18.11.99 8.93 1.37 9.98 2.45c2.33 2.39 2.16 7.31-.44 14.68s-5.06 13.03-7.37 16.99l-.02-.04Z" style="opacity:.59;fill:#fff;isolation:isolate;stroke-width:0"/><ellipse cx="310.26" cy="1215.1" class="cls-92" rx="232.53" ry="22.63"/><ellipse cx="1136.44" cy="1215.1" class="cls-92" rx="260.83" ry="22.63"/><ellipse cx="1905.68" cy="1215.1" class="cls-92" rx="260.83" ry="22.63"/><ellipse cx="2703.63" cy="1215.1" class="cls-92" rx="223.56" ry="22.63"/><ellipse cx="3488.47" cy="1215.1" class="cls-92" rx="244.46" ry="22.63"/></svg>