<?xml version="1.0" encoding="UTF-8"?>
<svg id="Layer_1" data-name="Layer 1" xmlns="http://www.w3.org/2000/svg" xmlns:xlink="http://www.w3.org/1999/xlink" viewBox="0 0 751.91 500">
  <defs>
    <style>
      .cls-1, .cls-2, .cls-3, .cls-4, .cls-5, .cls-6, .cls-7, .cls-8, .cls-9, .cls-10, .cls-11, .cls-12, .cls-13, .cls-14, .cls-15, .cls-16, .cls-17, .cls-18, .cls-19, .cls-20, .cls-21, .cls-22, .cls-23, .cls-24, .cls-25, .cls-26, .cls-27, .cls-28, .cls-29, .cls-30, .cls-31, .cls-32, .cls-33, .cls-34, .cls-35, .cls-36, .cls-37, .cls-38, .cls-39, .cls-40, .cls-41, .cls-42, .cls-43, .cls-44, .cls-45, .cls-46, .cls-47, .cls-48, .cls-49, .cls-50, .cls-51, .cls-52, .cls-53, .cls-54, .cls-55, .cls-56, .cls-57, .cls-58, .cls-59, .cls-60, .cls-61, .cls-62, .cls-63, .cls-64, .cls-65, .cls-66, .cls-67, .cls-68, .cls-69, .cls-70, .cls-71, .cls-72 {
        stroke-width: 0px;
      }

      .cls-1, .cls-2, .cls-5, .cls-17, .cls-18, .cls-31, .cls-73, .cls-71 {
        isolation: isolate;
      }

      .cls-1, .cls-9 {
        fill: #fccf5e;
      }

      .cls-1, .cls-17 {
        opacity: .43;
      }

      .cls-74 {
        stroke: #f4cdb8;
        stroke-width: .51px;
      }

      .cls-74, .cls-75, .cls-76, .cls-77, .cls-78, .cls-79, .cls-80, .cls-81, .cls-82 {
        stroke-miterlimit: 10;
      }

      .cls-74, .cls-75, .cls-28, .cls-77, .cls-80, .cls-81 {
        fill: none;
      }

      .cls-2 {
        opacity: .23;
      }

      .cls-2, .cls-18, .cls-63 {
        fill: #e94f1b;
      }

      .cls-3 {
        fill: #f97a41;
      }

      .cls-4 {
        fill: #ad9d0e;
      }

      .cls-5 {
        opacity: .27;
      }

      .cls-5, .cls-66 {
        fill: #aaa100;
      }

      .cls-83 {
        clip-path: url(#clippath-11);
      }

      .cls-84 {
        clip-path: url(#clippath-16);
      }

      .cls-6 {
        fill: #9631af;
      }

      .cls-7 {
        fill: #feca59;
      }

      .cls-8 {
        fill: #1f1313;
      }

      .cls-10 {
        fill: #d34f16;
      }

      .cls-75 {
        stroke: #585394;
      }

      .cls-75, .cls-76, .cls-78, .cls-79, .cls-82 {
        stroke-width: .93px;
      }

      .cls-11 {
        fill: #6d2607;
      }

      .cls-12 {
        fill: #b9ad00;
      }

      .cls-13 {
        fill: #ffbe69;
      }

      .cls-76, .cls-49 {
        fill: #854840;
      }

      .cls-76, .cls-79 {
        stroke: #5e2e2e;
      }

      .cls-14 {
        fill: #a842c1;
      }

      .cls-15 {
        fill: #867a0b;
      }

      .cls-16 {
        fill: #febb34;
      }

      .cls-85 {
        clip-path: url(#clippath-2);
      }

      .cls-17, .cls-43 {
        fill: #808ae5;
      }

      .cls-86 {
        clip-path: url(#clippath-13);
      }

      .cls-18 {
        opacity: .48;
      }

      .cls-19 {
        fill: #fed672;
      }

      .cls-20 {
        fill: #b64a1b;
      }

      .cls-21 {
        fill: #716a00;
      }

      .cls-22 {
        fill: #4b2b27;
      }

      .cls-23, .cls-82 {
        fill: #f9ceb2;
      }

      .cls-87 {
        clip-path: url(#clippath-15);
      }

      .cls-88 {
        clip-path: url(#clippath-6);
      }

      .cls-24 {
        fill: #9e8f00;
      }

      .cls-25, .cls-78 {
        fill: #f9cdaf;
      }

      .cls-26 {
        fill: #a2aded;
      }

      .cls-27 {
        fill: #3b201f;
      }

      .cls-29 {
        fill: #5e2e2e;
      }

      .cls-89 {
        clip-path: url(#clippath-7);
      }

      .cls-30 {
        fill: #061521;
      }

      .cls-31 {
        opacity: .5;
      }

      .cls-32 {
        fill: #f7c6a4;
      }

      .cls-33 {
        fill: #68d8d8;
      }

      .cls-34 {
        fill: #585394;
      }

      .cls-90 {
        clip-path: url(#clippath-1);
      }

      .cls-91 {
        clip-path: url(#clippath-4);
      }

      .cls-77 {
        stroke: #fff;
        stroke-width: .65px;
      }

      .cls-35 {
        fill: #a73ec1;
      }

      .cls-36 {
        fill: #f4b831;
      }

      .cls-37 {
        fill: #75413c;
      }

      .cls-78 {
        stroke: #e89862;
      }

      .cls-73 {
        font-family: ArialMT, Arial;
        font-size: 23.21px;
      }

      .cls-73, .cls-42 {
        fill: #fff;
      }

      .cls-38 {
        fill: #ffe9d6;
      }

      .cls-39 {
        fill: #ffc05c;
      }

      .cls-40 {
        fill: #f98755;
      }

      .cls-41 {
        fill: #ffe1a6;
      }

      .cls-92 {
        clip-path: url(#clippath-12);
      }

      .cls-44 {
        fill: #5f6ec9;
      }

      .cls-45 {
        fill: #81dfe2;
      }

      .cls-46 {
        fill: #c966df;
      }

      .cls-47 {
        fill: #6b68b3;
      }

      .cls-48 {
        fill: #a0a0e2;
      }

      .cls-50 {
        fill: #bc48d8;
      }

      .cls-51 {
        fill: #d84e09;
      }

      .cls-93 {
        clip-path: url(#clippath-9);
      }

      .cls-94 {
        clip-path: url(#clippath);
      }

      .cls-52 {
        fill: #a9b2ea;
      }

      .cls-53 {
        fill: #988e00;
      }

      .cls-54 {
        fill: #d37546;
      }

      .cls-55 {
        fill: #d1be13;
      }

      .cls-56 {
        fill: #b75a24;
      }

      .cls-95 {
        clip-path: url(#clippath-3);
      }

      .cls-57 {
        fill: #361629;
      }

      .cls-58 {
        fill: #f6a526;
      }

      .cls-96 {
        clip-path: url(#clippath-8);
      }

      .cls-59 {
        fill: #633d35;
      }

      .cls-60 {
        fill: #e192f4;
      }

      .cls-97 {
        clip-path: url(#clippath-18);
      }

      .cls-98 {
        clip-path: url(#clippath-14);
      }

      .cls-99 {
        clip-path: url(#clippath-17);
      }

      .cls-100 {
        clip-path: url(#clippath-5);
      }

      .cls-61 {
        fill: #afa5e6;
      }

      .cls-79, .cls-72 {
        fill: #8e5448;
      }

      .cls-62 {
        fill: #f06622;
      }

      .cls-64 {
        fill: #98e0f0;
      }

      .cls-101 {
        clip-path: url(#clippath-10);
      }

      .cls-65 {
        fill: #d65116;
      }

      .cls-67 {
        fill: #c96974;
      }

      .cls-80 {
        stroke: #5b5200;
      }

      .cls-80, .cls-81 {
        stroke-width: .66px;
      }

      .cls-81 {
        stroke: #342f00;
      }

      .cls-68 {
        fill: #67cbdb;
      }

      .cls-69 {
        fill: #a7451c;
      }

      .cls-70 {
        fill: #e1dbff;
      }

      .cls-71 {
        fill: #e5e5e5;
        opacity: .55;
      }

      .cls-82 {
        stroke: #f4ab7a;
      }
    </style>
    <clipPath id="clippath">
      <rect class="cls-28" x="1.91" width="750" height="500"/>
    </clipPath>
    <clipPath id="clippath-1">
      <path class="cls-28" d="m650.29,252.21c-16.75-2.28-23.09,24.32-8.64,33.11,0,0-2.84.26-2.51,1.43s5.38,2.5,6.62,1.76-.93-1.87-.93-1.87c0,0,11.27-1.98,16.52-12.06,5.85-11.25-2.83-21.25-11.06-22.38Z"/>
    </clipPath>
    <clipPath id="clippath-2">
      <polygon class="cls-28" points="99.79 278.34 95.56 301.3 124.57 315.86 121.43 285.57 99.79 278.34"/>
    </clipPath>
    <clipPath id="clippath-3">
      <polygon class="cls-28" points="99.79 278.34 95.56 301.3 124.57 315.86 121.43 285.57 99.79 278.34"/>
    </clipPath>
    <clipPath id="clippath-4">
      <polygon class="cls-28" points="99.79 278.34 95.56 301.3 124.57 315.86 121.43 285.57 99.79 278.34"/>
    </clipPath>
    <clipPath id="clippath-5">
      <path class="cls-28" d="m384.62,180.71c-2.6-2.85-7.92-1.69-10.6,1.11-2.26,2.37-3.32,5.98-1.7,8.76s6.35,3.8,8.59,1.41c-1.86,1.18-1.35,4.35.8,4.97l1.17-.71c-.22.45.63.91.94.5-.53.6-.87,1.48-.43,2.14.5.75,1.44.39,1.86-.17-1.46,5.64-1.86,11.12-.64,16.93,1.22,5.81,3.72,12.15.6,17.31-.57.95-1.31,1.8-1.85,2.76-4.33,7.82,6.47,17.99,1.49,25.47-3.6,5.4-12.98,5.08-16.94,10.26-1.65,2.16-2.08,4.99-3.92,7.01-1.36,1.5-3.33,2.38-5.05,3.52-2.94,1.95-5.08,4.72-6.32,7.84-.41,1.02-2,8.5-3.23,8.57l35.37-1.98c8.72-.49,15.58,2.29,21.95-4.62,1.69-1.83,2.63-4.45,1.7-6.7-.74-1.78-2.51-3.07-3.24-4.85-1.43-3.44,1.35-7.73-.79-10.84-1.57-2.29-5.08-2.77-6.92-4.87-3.41-3.89,1-9.5.86-14.51-.1-3.62-2.67-6.83-3.06-10.43-.35-3.27,1.12-6.66.06-9.8-.66-1.96-2.21-3.53-3.31-5.31-1.47-2.4-2.09-5.15-2.68-7.84-.96-4.33-1.93-9.04-1.01-13.44.3-1.42,5.27-8.93,2.25-8.92,2.42,0,5-.67,6.49-2.43s1.27-4.78-.86-5.84c1.08.68,2.68.22,3.43-.76s.81-2.3.51-3.48c-.79-3.04-3.75-5.34-7.03-6.12s-6.79-.22-9.94.93c-1.37.5.6,2.98,1.44,4.11h0Z"/>
    </clipPath>
    <clipPath id="clippath-6">
      <path class="cls-28" d="m378.14,167.18c-2.03.32-8.36,1.32-10.14,4.4-.64,1.11-2.1,8.81-.97,16.26,0,0,11.5-5,14.51-10.1s-3.4-10.56-3.4-10.56h0Z"/>
    </clipPath>
    <clipPath id="clippath-7">
      <path class="cls-28" d="m374.47,140.49c-4.73,16.08,4.13,39.46,4.13,39.46l7.53-.09-1.23-39.48-10.44.11h0Z"/>
    </clipPath>
    <clipPath id="clippath-8">
      <path class="cls-28" d="m392.47,166.8c2.05.21,8.43.87,10.4,3.85.71,1.08,2.64,8.68,1.98,16.18,0,0-11.79-4.38-15.12-9.31s2.74-10.72,2.74-10.72h0Z"/>
    </clipPath>
    <clipPath id="clippath-9">
      <path class="cls-28" d="m394.47,139.96c5.73,15.81-1.67,39.62-1.67,39.62l-7.53.31-1.23-39.48,10.43-.45Z"/>
    </clipPath>
    <clipPath id="clippath-10">
      <path class="cls-28" d="m732.83,417.1c-229.91-77.07-630.95-50.81-714.1,10.08-83.15,60.89,724.63,62.48,724.63,62.48l-10.53-72.56h0Z"/>
    </clipPath>
    <clipPath id="clippath-11">
      <ellipse class="cls-28" cx="158.05" cy="413.18" rx="50.43" ry="46.6"/>
    </clipPath>
    <clipPath id="clippath-12">
      <ellipse class="cls-28" cx="158.05" cy="413.18" rx="50.43" ry="46.6"/>
    </clipPath>
    <clipPath id="clippath-13">
      <ellipse class="cls-28" cx="158.05" cy="413.18" rx="50.43" ry="46.6"/>
    </clipPath>
    <clipPath id="clippath-14">
      <ellipse class="cls-28" cx="158.05" cy="413.18" rx="50.43" ry="46.6"/>
    </clipPath>
    <clipPath id="clippath-15">
      <path class="cls-28" d="m513.26,384.8c-15.87-9.41-29.87,2.12-28.94,14.89.35,4.75,4.04,10.51,9.24,11.75-2.56.71-3.64,3.79-2.76,6.12s3.15,3.98,5.49,5.17c5.64,2.87,12.17,3.89,18.52,2.9,3.28-.52,6.93-1.69,8.2-4.83.27-.68.38-1.54-.17-2.06-.22-.21-.53-.33-.83-.42-1.01-.28-2.08-.19-3.05.16.6-1.22,1.4-2.37,1.16-3.79-.79-4.52-5.61-3.98-9.25-4.3,2.38-1.51,4.14-3.7,5.8-5.85,1.57-2.03,2.75-4.36,3.21-6.83,1-5.32-1.8-10.07-6.62-12.93h0Z"/>
    </clipPath>
    <clipPath id="clippath-16">
      <path class="cls-28" d="m513.26,384.8c-15.87-9.41-29.87,2.12-28.94,14.89.35,4.75,4.04,10.51,9.24,11.75-2.56.71-3.64,3.79-2.76,6.12s3.15,3.98,5.49,5.17c5.64,2.87,12.17,3.89,18.52,2.9,3.28-.52,6.93-1.69,8.2-4.83.27-.68.38-1.54-.17-2.06-.22-.21-.53-.33-.83-.42-1.01-.28-2.08-.19-3.05.16.6-1.22,1.4-2.37,1.16-3.79-.79-4.52-5.61-3.98-9.25-4.3,2.38-1.51,4.14-3.7,5.8-5.85,1.57-2.03,2.75-4.36,3.21-6.83,1-5.32-1.8-10.07-6.62-12.93h0Z"/>
    </clipPath>
    <clipPath id="clippath-17">
      <path class="cls-28" d="m491.33,396.86c.13-.52-.33-1-.91-1.01-8.25-.05-13.11-11.83-18.15-10.96-5.25.91-6.1,13.61,6.77,15.86,8.38,1.47,11.83-2,12.29-3.9Z"/>
    </clipPath>
    <clipPath id="clippath-18">
      <path class="cls-28" d="m499.21,418.61c1.11.84,2.49,1.29,3.87,1.63,1.84.46,3.73.76,5.63.9,1.36.1,2.74.11,4.06-.21s2.57-1.01,3.31-2.07c.35-.51.57-1.17.28-1.71-.39-.71-1.43-.82-2.3-.84.78.45,1.98-.13,2.02-.98.13-2.59-6.85-2.52-8.47-1.92,1.74-.63-.15-1.64-.93-1.82-1.15-.26-2.62-.19-3.78-.01-3.68.56-7.64,4.03-3.69,7.02h0Z"/>
    </clipPath>
  </defs>
  <g class="cls-94">
    <g>
      <path class="cls-42" d="m671.03,305.09c-8.48-3.54-17.54,9.36-10.58,15.07-5.43-7.02-20.27-1.82-19.29,6.76-7.44-3.27-15.98-5.37-23.92-3.31s-14.65,9.38-13.21,16.87c-1.1-5.15-9.33-6.32-13.84-3.14-4.51,3.19-6.15,8.68-7.51,13.78-1.46-4.18-6.6-6.94-11.25-6.04-4.65.9-8.17,5.33-7.7,9.69-1.22-6.41-7.57-11.66-14.59-12.07-7.03-.41-14.04,4.07-16.11,10.28-4.06-10.07-23.4-9-26.13,1.44-1.68-7.8-12.46-11.37-20.69-9.07-8.23,2.3-14.35,8.55-20.02,14.52.88-7.33-8.46-13.06-16.28-11.61-7.83,1.45-13.57,7.77-16.99,14.43,4.93-9.6-13.93-14.97-20.47-14.15-6.88.86-13.16,5.05-16.22,10.8-1.57-5.57-7.59-9.79-13.82-9.68-6.23.11-12.07,4.52-13.42,10.14-1.77-5.07-9.02-7.01-14.44-5.19s-9.26,6.27-12.39,10.74c-1.3-5.55-10.09-8-14.5-4.04,1.21-1.09-4.58-6.16-5.52-6.59-2.73-1.25-3.84-.89-6.68-.33-6.26,1.24-12.08,5.29-13.08,11.43,1.39-7.66-4.6-15.83-12.81-17.48s-17.33,3.49-19.5,10.99c3.14-6.33-.96-14.8-8.16-16.86s-15.76,2.79-17.03,9.65c-.25-11.11-19.07-16.61-26.19-7.66-2.92-7.4-16.92-7.06-19.42.46,1.05-6.59-8.13-11.31-15.05-9.42-6.92,1.89-11.6,7.68-15.77,13.12-1.73-7.81-8.99-14.32-17.49-15.69s-17.71,2.49-22.2,9.29c1.36-6.79-3.44-14.17-10.58-16.25s-15.64,1.44-18.73,7.73c1.73-7.32-2.34-15.48-9.48-19.03s-16.75-2.19-22.41,3.18c3.77-13.58-1.23-31.82-16.17-34.26-14.53-2.38-25.53,11.56-32.04,23.8-15.15,28.52-27.39,62.52-12.77,91.28,8.99,17.68,27.13,30.35,46.88,37.3,19.76,6.95,41.17,8.75,62.3,9.39,63.33,1.93,126.77-5.93,190.02-2.33,49.68,2.83,99.66,12.7,148.8,5.37,21.83-3.26,42.92-9.85,64.64-13.67,37.06-6.51,75.17-4.83,112.79-7.39,29.67-2.02,62.36-8.47,79.55-30.91,17.5-22.85,12.72-54.04,4.7-81.04-3.84-12.92-11.16-38.03-28.38-40.77-17.94-2.85-33.85,19.38-16.84,30.42h0Z"/>
      <path class="cls-74" d="m643.17,286.78c-18.99,60.33-51.4,86.21-48.08,89.8"/>
      <path class="cls-45" d="m650.29,252.21c-19.92-3.77-23.09,24.32-8.64,33.11,0,0-2.84.26-2.51,1.43s5.38,2.5,6.62,1.76-.93-1.87-.93-1.87c0,0,11.27-1.98,16.52-12.06,5.85-11.25-1.26-20.52-11.06-22.38Z"/>
      <g class="cls-90">
        <path class="cls-33" d="m655.63,275c-2.84,3.92-7.12,7.36-12.28,7.69-2.18.14-4.39-.29-6.57-.06s-4.47,1.41-4.84,3.39c-.36,1.94,1.26,3.76,3,4.96,5.76,3.98,13.83,4.46,20.44,2.06s11.81-7.38,15.21-13.1c2.12-3.57,3.63-7.53,3.7-11.62s-1.4-8.33-4.56-11.28c-1.49-1.39-3.93-2.71-6.13-2.48-3.33.36-2.47,2.36-2.56,4.85-.21,5.54-2.09,11.01-5.42,15.6h0Z"/>
      </g>
      <path class="cls-77" d="m207.2,374.04c-2.74-40.15-68.29-22.97-83.4-59.7"/>
      <path class="cls-45" d="m99.79,278.34l-4.23,22.97,29,14.56-3.14-30.29-21.63-7.23Z"/>
      <g>
        <g class="cls-85">
          <path class="cls-66" d="m99.79,278.34l-4.23,22.97,14.83-6.96-10.6-16.01Z"/>
        </g>
        <g class="cls-95">
          <path class="cls-66" d="m110.39,294.34l11.04-8.78,3.14,30.29-14.18-21.52Z"/>
        </g>
        <g class="cls-91">
          <path class="cls-5" d="m101.83,302.73c2.83.72,5.68,1.44,8.4,2.57,2.41,1,4.9,2.36,7.44,1.95.37-.06.76-.17,1.02-.45.21-.23.31-.56.4-.87,2.18-7.86.27-16.35-1.65-24.38,1.22.3,2.3,1.05,3.31,1.84,5.11,4.06,9.05,9.74,11.12,16.06,2.07,6.32,2.27,13.26.57,19.61-.5,1.87-1.3,3.85-2.97,4.69-1.94.98-4.27.05-6.25-.94-4.3-2.14-8.46-4.57-12.62-6.99-4.74-2.76-9.49-5.54-13.85-8.92-1.15-.89-5.75-4.73-3.43-6.12,1.42-.86,6.92,1.55,8.54,1.95Z"/>
        </g>
      </g>
      <path class="cls-63" d="m125.36,317.39l-.09,3.77,3.94-1.69-3.86-2.08Z"/>
      <path class="cls-9" d="m143.57,333.97l2.26,3,1.91-3.98-4.17.98Z"/>
      <path class="cls-63" d="m169.67,342.53l2.26,3,1.91-3.98-4.17.98Z"/>
      <path class="cls-9" d="m160.84,340.26l2.26,3,1.91-3.98-4.17.98Zm-31.72-16.56l2.05,4.03,2.21-3.31-4.26-.72Z"/>
      <path class="cls-63" d="m135.16,328.34l2.05,4.03,2.21-3.31-4.26-.72Zm17.33,8.25l2.05,4.03,2.21-3.31-4.26-.72Z"/>
      <path class="cls-66" d="m121.43,285.57c5.79,1.08,10.89,16.33,18.69,12.93,0,0,.95,2.99-.64,5s-7.1,1.4-10.44-6.11c-3.65-8.21-5.41-11.08-7.61-11.82Zm-25.86,15.73c.91,12.18,18.44,17.8,18.26,25.56,0,0,2.98.13,3.25-4.26s-4.6-8.58-12.75-12.47c-8.15-3.89-8.77-8.83-8.77-8.83h0Z"/>
      <path class="cls-42" d="m71.35,81.93s.02,0,.03,0c.41-6.28,6.05-11.25,12.94-11.25,1.65,0,3.28.29,4.81.85,2.14-7.33,9.39-12.73,18.01-12.73,9.44,0,17.23,6.48,18.48,14.88,1.78-.86,3.76-1.31,5.77-1.31,6.26,0,11.44,4.25,12.35,9.8,2.57.71,4.45,2.92,4.45,5.53,0,3.19-2.8,5.77-6.25,5.77-.94,0-1.86-.2-2.71-.58-2.22,1.66-4.99,2.57-7.85,2.56-1.13,0-2.22-.14-3.27-.4-1.77,4.38-6.34,7.49-11.7,7.49-4.51,0-8.47-2.21-10.66-5.53-2.05.94-4.35,1.48-6.79,1.48-4.32,0-8.22-1.67-10.99-4.34-1.16.32-2.39.49-3.66.49-3.25,0-6.22-1.11-8.49-2.93-1.17,1.12-2.79,1.75-4.48,1.75-3.45,0-6.25-2.58-6.25-5.77s2.8-5.77,6.25-5.77h0Zm560.93-2.39s.02,0,.03,0c.41-6.28,6.05-11.25,12.94-11.25,1.65,0,3.28.29,4.81.85,2.14-7.33,9.39-12.73,18.01-12.73,9.44,0,17.23,6.48,18.48,14.88,1.78-.86,3.76-1.31,5.77-1.31,6.26,0,11.44,4.25,12.35,9.8,2.57.71,4.45,2.92,4.45,5.53,0,3.19-2.8,5.77-6.25,5.77-.97,0-1.89-.21-2.71-.58-2.22,1.66-4.99,2.57-7.85,2.56-1.13,0-2.22-.14-3.27-.4-1.78,4.38-6.34,7.49-11.7,7.49-4.51,0-8.47-2.21-10.66-5.53-2.11.97-4.43,1.48-6.79,1.48-4.32,0-8.22-1.67-10.99-4.34-1.16.32-2.39.49-3.66.49-3.12,0-6.14-1.04-8.49-2.93-1.17,1.12-2.79,1.75-4.48,1.75-3.45,0-6.25-2.58-6.25-5.77s2.8-5.77,6.25-5.77h0ZM127.61,159.72c.22-3.14,3.04-5.63,6.49-5.63.85,0,1.66.15,2.4.43,1.1-3.76,4.79-6.37,9-6.37,4.72,0,8.62,3.24,9.24,7.44.86-.42,1.85-.65,2.89-.65,3.13,0,5.72,2.13,6.17,4.9,1.29.36,2.23,1.46,2.23,2.76,0,1.59-1.4,2.88-3.12,2.89-.49,0-.94-.11-1.35-.29-1.11.83-2.5,1.28-3.92,1.28-.56,0-1.11-.07-1.63-.2-.89,2.19-3.17,3.75-5.85,3.75-2.18,0-4.2-1.05-5.33-2.76-1.02.47-2.18.74-3.4.74-2.08,0-4.06-.78-5.5-2.17-.59.16-1.21.24-1.83.24-1.56,0-3.07-.52-4.25-1.47-.57.54-1.36.88-2.24.88-1.72,0-3.12-1.29-3.12-2.89,0-1.59,1.4-2.89,3.12-2.89Zm407.38-18.87c.26-3.76,3.63-6.73,7.76-6.73.99,0,1.96.17,2.88.51,1.28-4.39,5.62-7.62,10.78-7.62,5.65,0,10.31,3.88,11.06,8.9,1.03-.5,2.21-.78,3.45-.78,3.74,0,6.84,2.54,7.39,5.86,1.54.43,2.66,1.74,2.66,3.31,0,1.91-1.67,3.45-3.74,3.45-.56,0-1.12-.12-1.62-.35-1.28.96-2.92,1.53-4.69,1.53-.66,0-1.32-.08-1.95-.24-1.06,2.62-3.79,4.48-7,4.48-2.7,0-5.07-1.32-6.38-3.31-1.22.56-2.6.88-4.06.88-2.48,0-4.86-.94-6.58-2.6-.71.19-1.45.29-2.19.29-1.94,0-3.72-.66-5.08-1.75-.68.65-1.63,1.05-2.68,1.05-2.06,0-3.74-1.55-3.74-3.45s1.67-3.45,3.74-3.45h0Zm-3.62-57.92c.13-1.92,1.85-3.43,3.96-3.43.52,0,1.01.09,1.47.26.83-2.81,3.96-4.46,7-3.69,2.2.55,3.82,2.26,4.14,4.35.54-.26,1.15-.4,1.76-.4,1.91,0,3.49,1.3,3.77,2.99.79.22,1.36.89,1.36,1.69,0,.97-.85,1.76-1.91,1.76-.3,0-.58-.06-.83-.18-.66.49-1.49.78-2.4.78-.35,0-.68-.04-1-.12-.54,1.34-1.94,2.29-3.57,2.29-1.33,0-2.56-.64-3.25-1.69-.64.3-1.35.45-2.07.45-1.32,0-2.51-.51-3.36-1.32-.36.1-.74.15-1.12.15-.95,0-1.87-.32-2.59-.89-.35.33-.83.54-1.37.54-1.05,0-1.91-.79-1.91-1.76,0-.97.85-1.76,1.9-1.76,0,0,0,0,0,0Zm-333.21-16.5c.13-1.92,1.85-3.43,3.96-3.43.52,0,1.01.09,1.47.26.83-2.81,3.96-4.46,7-3.69,2.2.55,3.82,2.26,4.14,4.35.54-.26,1.15-.4,1.76-.4,1.91,0,3.49,1.3,3.77,2.99.81.22,1.36.91,1.36,1.69,0,.97-.85,1.76-1.91,1.76-.3,0-.58-.06-.83-.18-.66.49-1.49.78-2.4.78-.35,0-.68-.04-1-.12-.54,1.34-1.94,2.29-3.57,2.29-1.33,0-2.56-.64-3.25-1.69-.64.3-1.35.45-2.07.45-1.32,0-2.51-.51-3.36-1.32-.35.1-.73.15-1.12.15-.95,0-1.87-.32-2.59-.89-.35.33-.83.54-1.37.54-1.05,0-1.91-.79-1.91-1.76,0-.97.85-1.76,1.9-1.76h0,0Z"/>
      <path class="cls-9" d="m384.62,180.71c-2.6-2.85-7.92-1.69-10.6,1.11-2.26,2.37-3.32,5.98-1.7,8.76s6.35,3.8,8.59,1.41c-1.86,1.18-1.35,4.35.8,4.97l1.17-.71c-.22.45.63.91.94.5-.53.6-.87,1.48-.43,2.14.5.75,1.44.39,1.86-.17-1.46,5.64-1.86,11.12-.64,16.93,1.22,5.81,3.72,12.15.6,17.31-.57.95-1.31,1.8-1.85,2.76-4.33,7.82,6.47,17.99,1.49,25.47-3.6,5.4-12.98,5.08-16.94,10.26-1.65,2.16-2.08,4.99-3.92,7.01-1.36,1.5-3.33,2.38-5.05,3.52-2.94,1.95-5.08,4.72-6.32,7.84-.41,1.02-2,8.5-3.23,8.57l35.37-1.98c8.72-.49,15.58,2.29,21.95-4.62,1.69-1.83,2.63-4.45,1.7-6.7-.74-1.78-2.51-3.07-3.24-4.85-1.43-3.44,1.35-7.73-.79-10.84-1.57-2.29-5.08-2.77-6.92-4.87-3.41-3.89,1-9.5.86-14.51-.1-3.62-2.67-6.83-3.06-10.43-.35-3.27,1.12-6.66.06-9.8-.66-1.96-2.21-3.53-3.31-5.31-1.47-2.4-2.09-5.15-2.68-7.84-.96-4.33-1.93-9.04-1.01-13.44.3-1.42,5.27-8.93,2.25-8.92,2.42,0,5-.67,6.49-2.43s1.27-4.78-.86-5.84c1.08.68,2.68.22,3.43-.76s.81-2.3.51-3.48c-.79-3.04-3.75-5.34-7.03-6.12s-6.79-.22-9.94.93c-1.37.5.6,2.98,1.44,4.11h0Z"/>
      <g class="cls-100">
        <path class="cls-39" d="m393.34,176.06c1.33,3.56,2.26,8.34-1.15,10.4-1.39.84-3.31,1.03-4.25,2.3-.97,1.31-.4,3.05-.08,4.61.93,4.47-.51,9.04-.81,13.59-.78,12.12,6.6,23.76,5.76,35.88-.37,5.26-2.29,10.48-1.51,15.7.42,2.81,1.61,5.52,1.67,8.36.09,4.21-2.31,8.08-3.5,12.15-2.04,6.97-.3,14.8,4.53,20.47,1.42,1.67,3.18,3.2,5.36,3.85,3.05.9,6.42-.08,9.15-1.63,7.19-4.1,11.07-11.71,13.62-19.16,8.28-24.24,6.3-50.9-2.68-74.92-1.94-5.19-4.21-10.35-4.77-15.81-.42-4.09.15-8.23-.42-12.3-.56-4.07-2.58-8.32-6.56-10.14-3.14-1.44-7.81-.51-8.76,2.61"/>
      </g>
      <path class="cls-63" d="m378.14,167.18c-2.03.32-8.36,1.32-10.14,4.4-.64,1.11-2.1,8.81-.97,16.26,0,0,11.5-5,14.51-10.1s-3.4-10.56-3.4-10.56h0Z"/>
      <g>
        <g class="cls-88">
          <path class="cls-18" d="m374.74,173.75c.19,2.17-.12,4.42-1.29,6.31-2.21,3.58-6.95,5.12-9.88,8.23-.14.14-.27.34-.19.51.08.16.31.2.5.21,3.71.22,7.4-.64,10.88-1.82,2.6-.88,5.19-1.97,7.18-3.75,2.52-2.25,3.9-5.45,4.27-8.67.27-2.33.02-4.81-1.3-6.82s-3.88-3.43-6.38-3.04c-1.39.22-4.25,1.43-4.87,2.73-.66,1.38.93,4.53,1.06,6.1h0Z"/>
        </g>
        <path class="cls-63" d="m384.9,140.37l-.43.02h.43s0-.02,0-.02Z"/>
      </g>
      <path class="cls-42" d="m374.47,140.49c-4.73,16.08,4.13,39.46,4.13,39.46l7.53-.09-1.23-39.48-10.44.11h0Z"/>
      <g class="cls-89">
        <path class="cls-71" d="m379.99,162.84c.27.25.56.48.75.79.41.65.31,1.47.21,2.22-.84,6.38-.11,12.85,2.12,18.93.14.38.3.77.63,1.03.34.26.81.34,1.25.32,1.32-.07,2.48-.92,3.17-1.96s.97-2.27,1.2-3.47c1.09-5.82.98-11.82-.04-17.65-.45-2.57-1.09-5.16-2.43-7.45-.98-1.69-2.42-3.27-4.38-3.89-8.03-2.54-5.62,8.25-2.47,11.14Z"/>
      </g>
      <path class="cls-63" d="m392.47,166.8c2.05.21,8.43.87,10.4,3.85.71,1.08,2.64,8.68,1.98,16.18,0,0-11.79-4.38-15.12-9.31s2.74-10.72,2.74-10.72h0Z"/>
      <g>
        <g class="cls-96">
          <path class="cls-18" d="m396.27,173.18c-.05,2.17.4,4.41,1.68,6.23,2.43,3.46,7.26,4.74,10.38,7.7.14.14.29.32.22.5-.07.17-.3.21-.49.24-3.69.41-7.42-.25-10.98-1.24-2.65-.74-5.3-1.69-7.4-3.36-2.66-2.11-4.23-5.23-4.8-8.43-.42-2.32-.32-4.8.87-6.87s3.66-3.63,6.18-3.37c1.4.14,4.33,1.21,5.03,2.46.75,1.35-.65,4.58-.68,6.15h0Z"/>
        </g>
        <path class="cls-63" d="m384.47,140.39h-.43v.02l.43-.02Z"/>
      </g>
      <path class="cls-42" d="m394.47,139.96c5.73,15.81-1.67,39.62-1.67,39.62l-7.53.31-1.23-39.48,10.43-.45Z"/>
      <g class="cls-93">
        <path class="cls-71" d="m390.35,162.57c-.25.26-.53.51-.7.83-.37.67-.21,1.48-.07,2.23,1.23,6.32.91,12.82-.93,19.01-.12.38-.25.79-.56,1.06-.32.28-.78.38-1.23.38-1.32,0-2.53-.78-3.29-1.79s-1.11-2.21-1.41-3.4c-1.45-5.76-1.72-11.74-1.06-17.62.29-2.59.77-5.21,1.96-7.57.87-1.74,2.21-3.39,4.13-4.11,7.86-2.96,6.12,7.94,3.15,10.99h0Z"/>
      </g>
      <path class="cls-26" d="m377.4,154.91c.2,3.86,3.74,6.85,7.92,6.67,4.18-.18,7.41-3.46,7.21-7.32-.2-3.86-3.74-6.85-7.92-6.67-4.18.18-7.41,3.46-7.21,7.32Z"/>
      <path class="cls-43" d="m379.86,154.81c.13,2.61,2.53,4.62,5.35,4.5,2.82-.12,5-2.33,4.87-4.94-.13-2.61-2.53-4.62-5.35-4.5-2.82.12-5,2.33-4.87,4.94Z"/>
      <g>
        <path class="cls-63" d="m385.29,166.47h.43s0-.06,0-.06l-.43.06h0Z"/>
        <path class="cls-63" d="m385.04,184.71l.9,2.63c.27-.79.52-1.69.74-2.67,1.48-6.49,1.94-16.19,1.35-17.18-.58-.96-1.44-.99-2.31-1-.14,0-.29,0-.43-.01l-.43.03c-.87.06-1.73.13-2.24,1.12-.53,1.02.54,10.68,2.42,17.08h0Z"/>
        <path class="cls-63" d="m384.86,166.51l.43-.03-.43-.03v.06s0,0,0,0Zm-10.39-26.02l9.58-.1h.43s.43-.02.43-.02l9.57-.41s-2.9-8.75-9.89-10.13l-.43-.08c-.14.03-.29.06-.43.1-6.9,1.75-9.25,10.64-9.25,10.64h0Zm8.14,125.48c-8.29-.24-16.45,1.76-24.34,2.92-8.13,1.19-15.84,3.4-23.37,5.93-7.66,2.58-15.55,4.82-22.42,8.63-6.92,3.85-11.53,10.26-17.46,15.22s-12.55,9.19-17.3,15.1c-4.72,5.87-10.41,11.47-13.8,18.12-3.33,6.54-2.46,14.43-4.32,21.59-1.81,6.95-4.13,11.73-4.4,19.14,10.69,3.8,10.64,1.86,22.14,2.2s11.42,2.73,22.92,3.07c11.51.34,12.76,3.39,23.46-.41.33-8.96,1.54-18.92,6.5-26.02,5.12-7.32,13.13-13.58,21.65-17.66,8.26-3.96,18.33-3.71,28.36-3.41s18.43,3.01,26.39,7.45c8.2,4.57,15.15,9.99,19.71,17.59,4.43,7.38,8.54,13.69,8.21,22.65,10.39,4.42,10.55,1.81,22.05,2.15l23,.9c11.5.34,12.42,4.99,23.37,1.82.27-7.4-1.97-15.49-3.26-22.53-1.33-7.26-1.11-14.82-3.94-21.55-2.88-6.84-9.46-11.95-13.74-18.08-4.31-6.18-6.02-14.14-11.57-19.44s-12.74-9.33-19.36-13.57c-6.57-4.21-13.91-7.5-21.36-10.53-7.33-2.97-14.57-7.07-22.59-8.74-7.78-1.62-16.25-2.3-24.54-2.54Z"/>
      </g>
      <path class="cls-58" d="m382.17,277.84c-8.44-.25-16.34,4.16-24.3,5.54-8.21,1.42-15.85,3.1-23.33,6.05-7.59,3.01-14.31,6.72-20.9,11.12-6.62,4.41-14.5,7.61-19.87,13.22-5.34,5.58-10.9,11.5-14.76,18.07-3.8,6.46-5.88,13.95-8.01,21.18-2.06,7-3.78,14.47-4.05,22,13.07,3.99,15.02-.5,28.82-.1,13.8.41,15.07,7.27,28.2,3.45.33-8.96,1.02-19.95,5.98-27.05,5.12-7.32,13.08-13.95,21.6-18.03,8.26-3.96,18.76-6.28,28.79-5.99,10.03.3,20.04,3.65,27.99,8.08,8.2,4.57,13.8,12.27,18.36,19.88,4.43,7.38,7.34,15.4,7,24.35,12.82,4.59,13.75-1.24,27.55-.83s13.87,6.93,27.21,3.71c.28-7.53.54-15.98-1-23.09-1.59-7.33-4.29-14.45-7.6-21.12-3.37-6.78-6.91-13.71-11.83-19.6-4.94-5.91-11.15-11.17-17.43-15.96-6.25-4.77-13.57-8.5-20.92-11.95-7.24-3.39-14.87-6.51-22.96-8.41-7.84-1.84-16.11-4.28-24.55-4.53h0Z"/>
      <path class="cls-13" d="m381.76,292.49c-8.64-.25-17.53.21-25.57,1.89-8.31,1.73-15.79,6.09-23.14,9.62-7.46,3.57-14.66,7.69-20.8,12.82-6.14,5.13-12.83,10.38-17.31,16.79-4.42,6.32-6.57,14.03-9.05,21.33-2.4,7.06-3.07,13.51-3.35,21.22,9.42,3.84,9.84.74,20.19,1.05,10.35.3,11.91,6.38,21.38,2.62.33-8.96,1.92-19.08,6.88-26.19,5.12-7.32,12.46-13.91,20.98-17.99,8.26-3.96,18.35-5.21,28.38-4.91,10.03.3,18.76,3.91,26.72,8.34,8.2,4.57,14.95,10.44,19.51,18.05,4.43,7.38,6.61,16.93,6.28,25.88,9.17,4.31,11.16-1.51,21.51-1.21,10.35.3,12.62,4.03,22.31.75.28-7.71-.49-15.25-2.36-22.43-1.94-7.42-5.68-14.61-9.63-21.18-4-6.66-11.3-11.2-17.04-16.68-5.75-5.48-11.2-11.05-18.38-15.05-7.08-3.95-14.96-6.17-23.13-8.39-7.9-2.14-15.74-6.07-24.37-6.33Z"/>
      <path class="cls-12" d="m381.33,304.2c-8.92-.26-17.75,1.74-25.89,3.84-8.43,2.18-15.92,6.29-23.04,10.61-7.18,4.36-14.23,9.07-19.56,15.18-5.29,6.05-8.13,13.48-11.12,20.84-2.89,7.11-6.28,15.09-6.57,23.06,13,4.18,15.09,3.8,28.22-.03.33-8.96,3.39-17.12,8.36-24.23,5.12-7.32,12.93-12.34,21.45-16.42,8.26-3.96,17.14-6.37,27.17-6.08s19.88,1.55,27.83,5.99c8.2,4.57,15.83,11.05,20.4,18.66,4.43,7.38,4.99,17.49,4.66,26.45,12.82,4.59,14.67,4.12,27.94.72.29-7.96-1.3-16.4-3.65-23.67-2.44-7.53-5.49-14.81-10.32-21.16-4.88-6.41-11.12-11.89-17.96-16.66-6.78-4.72-14.4-8.38-22.65-11.05-7.97-2.58-16.35-5.79-25.27-6.05Z"/>
      <path class="cls-64" d="m379.05,326.87c-8.54-.25-16.47,1.06-24.01,3.6-7.8,2.63-14.76,6.38-20.75,11.4-6,5.01-10.17,11.16-13.63,17.94-3.34,6.55-5.97,12.77-6.26,20.39,5.11,3.31,7.61,4.96,12.84,1.79.3-8.19,1.62-17.11,6.16-23.61,4.68-6.7,12.61-10.84,20.4-14.57,7.56-3.62,15.7-6.92,24.87-6.65,9.17.27,17.65,3.18,24.93,7.24,7.5,4.18,13.62,10.06,17.79,17.02,4.05,6.75,6.04,14.79,5.73,22.98,4.98,3.46,7.76,3.36,13.11.35.28-7.62-.8-15.44-3.65-22.17-2.95-6.97-8.47-12.68-14.09-18.03-5.61-5.36-11.38-11.16-18.97-14.24-7.33-2.98-15.95-3.19-24.49-3.44h0Z"/>
      <path class="cls-53" d="m597.86,390.42c43.4-2.87,86.98-3.24,132.72-3.72,6.24-3.99,9.47-11.77,7.81-18.71-1.67-6.95-8.15-12.62-15.6-13.67,1.51-9.39-3.46-19.31-11.76-24.54-1.33-.84-2.74-1.55-4.24-2.13-10.77-4.18-24.33-.51-31.16,8.41-5.74-4.61-14.34-5.74-21.2-2.78-6.85,2.95-11.58,9.85-11.66,16.97-6.28-4.94-16.03-5.44-22.85-1.17-6.81,4.27-10.13,12.96-7.78,20.37-3.87.07-7.42,1.75-10.12,4.31-4.55,4.28-6.74,11.02-4.17,16.67h0Z"/>
      <path class="cls-4" d="m602.02,373.75c5.29-1.76,11.05-2.32,16.6-1.52-1.13-6.65,2.44-13.77,8.66-17.27,6.22-3.5,14.71-3.15,20.57.84.95-6.28,5.15-12.97,11.59-15.78,6.44-2.81,14.7-1.58,19.83,2.98,3.81-7.27,11.63-12.63,20.26-13.88,3.82-.56,7.77-.31,11.5.65-1.33-.84-2.74-1.55-4.24-2.13-10.77-4.18-24.33-.51-31.16,8.41-5.74-4.61-14.34-5.74-21.2-2.78-6.85,2.95-11.58,9.85-11.66,16.97-6.28-4.94-16.03-5.44-22.85-1.17-6.81,4.27-10.13,12.96-7.78,20.37-3.87.07-7.42,1.75-10.12,4.31h0Z"/>
      <path class="cls-80" d="m675.63,336.04c7.04,7.68,6.65,16.52,6.65,16.52m-39.51-2.33c7.17,7.98,9.3,14.24,9.3,14.24"/>
      <path class="cls-53" d="m192.14,378.45c-42.28,9.49-83.91,21.41-127.63,33.83-7.26-2.05-12.9-8.54-13.61-15.63-.7-7.09,3.6-14.32,10.34-17.41-4.53-8.52-3.07-19.36,3.1-26.69.99-1.18,2.11-2.26,3.33-3.22,8.88-7.01,23-7.34,32.45-.77,3.94-6.01,11.77-9.51,19.27-8.62,7.49.89,14.28,6.12,16.7,12.88,4.35-6.48,13.48-9.7,21.38-7.54,7.9,2.15,13.92,9.49,14.13,17.21,3.71-1.03,7.64-.42,11.06,1.25,5.74,2.8,10.06,8.59,9.46,14.7h0Z"/>
      <path class="cls-4" d="m182.67,363.75c-5.62-.19-11.29.91-16.32,3.22-1.11-6.65-6.86-12.43-13.94-14.01-7.08-1.58-15.05,1.14-19.31,6.6-2.98-5.71-9.18-10.9-16.24-11.77-7.06-.87-14.52,2.64-17.9,8.43-6.02-5.85-15.24-8.75-23.88-7.52-3.83.55-7.5,1.89-10.73,3.86.99-1.18,2.11-2.26,3.33-3.22,8.88-7.01,23-7.34,32.45-.77,3.94-6.01,11.77-9.51,19.27-8.62,7.49.89,14.28,6.12,16.7,12.88,4.35-6.48,13.48-9.7,21.38-7.54,7.9,2.15,13.92,9.49,14.13,17.21,3.71-1.03,7.64-.42,11.06,1.25Z"/>
      <path class="cls-80" d="m100.13,348.56c-4.17,9.29-.89,17.61-.89,17.61m36.86-13.35c-4.2,9.62-4.16,16.18-4.16,16.18"/>
      <path class="cls-45" d="m732.83,417.1c-229.91-77.07-630.95-50.81-714.1,10.08-83.15,60.89,724.63,62.48,724.63,62.48l-10.53-72.56h0Z"/>
      <g class="cls-101">
        <path class="cls-66" d="m109.55,395.69c28.19,6.62,58.04.72,86.95,3.73,14.33,1.49,28.33,5.16,42.67,6.58,14.34,1.42,29.65.34,41.78-6.86,1.16-.69,2.35-1.5,2.85-2.69,2.24-5.33-9.86-6.65-11.04-12.27-.41-1.96.71-3.92.75-5.91.09-5.29-6.74-7.99-12.34-9.08-27.99-5.44-57.08-5.91-85.29-1.59-18.74,2.87-58.88,7.89-66.32,28.1h0Zm195.89-25.32c-3.54,2.04-7.13,5.41-6.19,9.16.66,2.65,3.37,4.37,5.93,5.7,9.3,4.83,19.6,8.02,30.17,9.33,4.15.52,8.43.78,12.21,2.44,3.21,1.42,5.83,3.77,8.89,5.46,10.4,5.76,23.59,3.06,35.46.75,21.07-4.1,42.51-6.41,64.04-6.89,8.23-.19,19.23-2.4,19.43-10.01.16-5.95-6.91-9.56-13.02-11.46-26.83-8.32-55.38-10.42-83.59-12.46-13.69-.99-25.04,1.77-38.24,2.65-13.04.87-22.85-1.74-35.09,5.32Zm68.96,46.79c4.48-.03,8.99-.93,13.39-.18,4.4.75,8.84,3.89,8.76,8.03-.11,5.59-7.51,8.13-13.49,8.97-11.47,1.61-81.78,7.48-76.36-13.53,1.96-7.59,18.16-10.8,24.82-11.3,15.11-1.14,27.89,8.13,42.87,8.01h0Zm45.31,18.09c11-6.13,24.58-8.2,37.13-5.67,7.41,1.5,15.74,4.39,22.06.51,1.85-1.14,3.29-2.76,5.04-4.03,8.13-5.93,19.92-2.91,29.65.36l23.36,7.87c3.42,1.15,7.02,2.42,9.28,5.05,2.34,2.73,2.94,6.6,5.77,8.9,2.26,1.83,5.45,2.24,8.22,3.31s5.5,3.57,4.72,6.26c-.41,1.41-1.68,2.45-2.95,3.33-18.33,12.69-43.86,8.87-66.48,5.56-20.59-3.01-41.03-4.19-61.73-5.62-13.49-.93-32.74-15.42-14.08-25.82h0Zm-346.2-3.45c11-6.13,24.58-8.2,37.13-5.67,7.41,1.5,15.74,4.39,22.06.51,1.85-1.14,3.29-2.76,5.04-4.03,8.13-5.93,19.92-2.91,29.65.36l23.36,7.87c3.42,1.15,7.02,2.42,9.28,5.05,2.34,2.73,2.94,6.6,5.77,8.9,2.26,1.83,5.45,2.24,8.22,3.31s5.5,3.57,4.72,6.26c-.41,1.41-1.68,2.45-2.95,3.33-18.34,12.69-43.86,8.87-66.48,5.56-20.59-3.01-41.03-4.19-61.73-5.62-13.49-.93-32.74-15.42-14.08-25.82h0Zm448.19-53.4c-5.79,4.39-10.33,11.79-7.23,18.08,1.54,3.13,4.68,5.32,7.9,7.04,15.71,8.44,34.86,8.63,53.03,8.59l47.35-.1c9.51-.02,19.17-.02,28.32,2.36,6.26,1.63,12.13,4.34,18.31,6.21,18.34,5.56,39.29,3.27,55.71-6.11-32.13-18.93-71.06-21.96-107.82-26.97-17.69-2.41-37.57-4.24-54.06-11-14.89-6.1-27-9.12-41.52,1.88h0Zm117.55,59.45c3.09.79,6.24,1.66,8.74,3.52,2.49,1.86,4.18,4.94,3.34,7.79-.77,2.62-3.49,4.44-6.34,5.12-2.85.67-5.85.4-8.77.13l-44.67-4.2c-3.27-.31-7.3-1.2-8-4.17-3.44-14.54,49.42-9.79,55.7-8.19h0Z"/>
      </g>
      <path class="cls-17" d="m324.41,379.67c-1.56-1.12-3.56-1.54-5.5-1.89-19.17-3.48-39.16-2.86-58.54-1.35-5.47.43-10.64,2.06-15.46,4.42-18.99-.71-38.05.78-56.86,3.22-22.09,2.86-43.79,6.81-62.86,18.17-1.64.98-3.44,2.92-2.2,4.31.54.61,1.47.78,2.32.87,10.01,1.08,19.85-2.34,29.49-5.08,29.74-8.43,60.93-10.55,92.1-12.07,2.62.08,5.13.02,6.71,0l37.61-.79c9.86-.21,19.78-.42,29.49-2.05,2.17-.37,4.66-1.04,5.5-2.93.75-1.69-.24-3.7-1.8-4.81h0Zm67.39,5.95c34.59,2.77,69.52-.71,104.07,2.44,1.91.17,3.9.36,5.69-.27s3.29-2.36,2.86-4.09c-.53-2.13-3.35-2.88-5.69-3.22l-42.67-6c-16.45-2.01-31.71-2.05-48.12.07-4.64.6-8.89,1.27-13.25,2.95-4.28,1.65-12.79,7.34-2.9,8.13Zm145.1-.53c-5.17.24-19.3,1.55-10.21,9.42,5.85,5.06,26.9,2.9,34.73,4.1,28.33,4.34,55.58,13.15,83.83,17.82,7.98,1.32,16.12,2.31,24.19,1.59,1.18-.11,2.45-.29,3.29-1.06,1.97-1.81.06-4.87-2.02-6.58-8.11-6.67-18.78-10.04-29.4-12.13-10.62-2.09-21.5-3.06-31.95-5.78-12.05-3.13-21.41-5.72-33.85-4.26-12.55,1.47-25.65-3.73-38.61-3.13h0Z"/>
      <g>
        <path class="cls-25" d="m530.01,192.96c-.57-4.44-.7-8.92-.38-13.38.05-.63.1-1.28.44-1.83.32-.55.99-.99,1.67-.88.65.1,1.1.64,1.47,1.14,1.14,1.62,2.02,3.38,2.62,5.57,2.06-2.71,4.46-5.19,7.14-7.39.51-.42,1.06-.84,1.72-1.04s1.46-.1,1.91.38c.66.7.28,1.78-.16,2.61-1.06,2.02-2.36,3.94-3.92,6.13,2.68-1.43,5.58-2.49,8.6-3.15.76-.17,1.6,0,2.15.53,1.1,1.05.17,2.42-.77,3.33-1.61,1.55-3.42,2.92-5.34,4.67,2.57-1.27,5.57-1.81,8.47-1.5,1.02.11,2.21.44,2.3,1.58.05.64-.3,1.26-.84,1.67-2.45,1.87-5.08,3.47-7.91,5.21,1.09.03,2.14-.33,3.18-.64,1.28-.4,2.66-.73,3.97-.19.62.25,1.14.74,1.31,1.35.37,1.33-.88,2.3-2.03,2.97-5.13,3.01-10.95,5.04-16.9,5.9-2.83-3.85-7.91-7.05-8.69-13.04h0Z"/>
        <path class="cls-78" d="m543.02,192.24l4.12-2.58m2.68,6.94l-3.74,1.25m-5.65-11.02l2.08-2.55m-6.68-.68c1.79,4.86.85,9.64.85,9.64"/>
        <path class="cls-25" d="m539.68,205.04l-58.34,55.24-3.18-26.49,53.1-38.87,8.42,10.12Zm-112.85,26.37c2.57-2.37,4.11-3.65,3.89-6.38s-3.56-3.95-5.24-3.43c-.9-2.46-1.93-5.08-4.2-6.61s-5.29-1.48-6.32.94c-3.06-1.53-5.68.96-5.57,2.79-2.06-.12-4.67.62-5.37,5.04-1.98.8-2.86,3.32-2.24,5.23,1.49,4.57,5.24,9.27,10.23,10.5,5.33-1.92,10.73-4.29,14.82-8.06h0Z"/>
        <g>
          <path class="cls-78" d="m414.78,215.97s1.53.64,2.56,2.63c1.59,3.09,3.04,7.8.85,9.2-3.65,2.33-8.19-7.34-8.19-7.34"/>
          <path class="cls-78" d="m425.12,221.94s-9.9,4.47-8.23,7.44,7.97.3,7.97.3m-14.34-10.61s1.53.64,2.56,2.63c1.59,3.09,3.04,7.8.85,9.2-3.65,2.33-7.79-6.23-7.79-6.23"/>
          <path class="cls-78" d="m404.21,224.38s1.76-1.11,3.94,1.12c1.35,1.37,4.71,6.56,2.6,7.88-2.71,1.69-6.55-3.63-6.55-3.63"/>
        </g>
        <path class="cls-25" d="m411.11,239.01l15.12,15.23c3.17,3.19,8.11,3.96,12.31,1.92l7.11-3.45,2.53-22.38-14,10.31-11.52-7.31-11.55,5.68Z"/>
      </g>
      <path class="cls-24" d="m495.85,218.96l11.21,21.41-24.9,16.49-3.12-20.03,16.81-17.87Zm-43.14,7.69l-18.81,10.12,12.11,18.51,10.04-14.11,2.03-11.75-5.38-2.77Z"/>
      <path class="cls-72" d="m488.3,333.92c-8.86-.75-13.41-9.27-15.67-16.38-1.65-5.22-1.88-13.26-1.88-13.26l24.55-.11c1.25,3.29,1.84,6.34,1.95,9.16.53,12.96-8.96,20.59-8.96,20.59h0Z"/>
      <path class="cls-70" d="m488.3,333.92c-8.86-.75-13.41-9.27-15.67-16.38,3.25,5.39,9.26,12.79,15.92,14.18,0,0,7.89-3.1,8.7-18.39.53,12.96-8.96,20.59-8.96,20.59h0Z"/>
      <path class="cls-72" d="m405.58,329.22c-5.55-3.29-9.47-3.16-11.82-2.44-1.78.55-2.66,1.44-2.66,1.44l19.97,23.76,1.67-1.72,4-4.1,1.54-2.92-12.7-14.02h0Z"/>
      <path class="cls-70" d="m393.76,326.78c-1.78.55-2.66,1.44-2.66,1.44l19.97,23.76,1.67-1.72-18.98-23.49h0Z"/>
      <path class="cls-25" d="m453.99,300.53l-6.66,7.87-8.41,9.93-21.77,25.74-12.09-14.48,18.3-27.31,5.06-7.56,6.23-9.29,1.65-2.43,6.36,6.29,11.34,11.24Z"/>
      <path class="cls-32" d="m447.34,308.4l-8.41,9.93-15.56-16.05,5.06-7.56,18.92,13.68Z"/>
      <path class="cls-25" d="m504.13,322.9c-3.57,2.27-8.01,2.67-11.88,1.35-1.85-.63-3.56-1.66-4.99-3.05l-3.8-3.74-9.26-9.07,25.9-13.79,2.82,4.54,5.03,8.09c3.35,5.38,1.69,12.17-3.82,15.67h0Z"/>
      <path class="cls-32" d="m502.93,299.15l-19.46,18.32-9.26-9.07,25.9-13.79,2.82,4.54Z"/>
      <path class="cls-56" d="m503.64,296.63l-26.15,18.38-15.83-18.38-14.18,17.91-25.88-17.09,13.85-19.51,3.69-5.2,4.35-3.23,7.72-5.73,18.52,4.59,18.33,4.55.77,1.17,14.82,22.52Z"/>
      <path class="cls-27" d="m488.82,274.1l-53.37,3.84,3.69-5.2,4.35-3.23,26.24-1.13,18.33,4.55.77,1.17Z"/>
      <path class="cls-12" d="m488.36,273.29l-49.22-.65c-.15-1.85-.14-3.74,0-5.65.13-1.86.41-3.74.77-5.61.4-2.04.92-4.09,1.53-6.09l2.45-6.93,1.91-4.43,2.73-5.55c3.52-6.68,6.66-11.15,6.66-11.15l29.36,8.15c-.71,3.36-1.14,6.77-1.29,10.2-.07,1.52-.08,3-.04,4.44.04,1.49.13,2.98.27,4.47.19,1.92.46,3.84.81,5.74.41,2.16.88,4.1,1.37,5.78.62,2.18,1.26,3.92,1.75,5.16.54,1.37.92,2.11.92,2.11h0Z"/>
      <path class="cls-25" d="m479.8,235.09s-2.78,1.85-6.1,3.4c-2.9,1.35-6.19,2.47-8.39,1.92-1.83-.47-3.26-2.45-4.33-4.73-1.67-3.58-2.43-7.84-2.43-7.84l21.26,7.25h0Z"/>
      <path class="cls-32" d="m479.8,235.09s-2.78,1.85-6.1,3.4c-3.74-.38-8.5-1.19-12.72-2.81-1.67-3.58-2.43-7.84-2.43-7.84l21.26,7.25h0Z"/>
      <path class="cls-55" d="m487.44,271.18l-48.29-4.18c.13-1.86.41-3.74.77-5.61l45.76,4.63,1.75,5.16h0Zm-3.12-10.94l-42.86-4.94,2.45-6.93,39.6,6.13.81,5.74Zm-1.08-10.21l-37.42-6.09,2.73-5.55,34.73,7.2-.04,4.44Z"/>
      <path class="cls-25" d="m435.01,197.78c3.03-3.45,8.96-3.64,13.22-.44,4.27,3.21,5.27,8.6,2.23,12.05-3.04,3.45-8.96,3.64-13.22.44s-5.27-8.6-2.23-12.05Z"/>
      <path class="cls-32" d="m436.42,201.51c1.78-2.02,5.63-1.86,8.6.37s3.93,5.68,2.15,7.7c-1.78,2.02-5.63,1.86-8.6-.37s-3.93-5.68-2.15-7.7h0Z"/>
      <path class="cls-25" d="m502.4,220.99c5.46.63,9.41,4.71,8.81,9.12s-5.5,7.48-10.96,6.85-9.41-4.71-8.81-9.12c.59-4.41,5.5-7.48,10.96-6.85h0Z"/>
      <path class="cls-32" d="m502.27,226.42c3.8.44,6.59,2.89,6.24,5.47s-3.71,4.33-7.5,3.9-6.59-2.89-6.24-5.47,3.71-4.33,7.5-3.9Z"/>
      <path class="cls-25" d="m445.41,201.41c7.14-14.68,30.05-27.29,49.06-18.8,15.79,7.05,15.99,28.2,8.84,42.87-7.14,14.68-23.95,14.2-39.8,7.26-15.53-6.79-25.25-16.65-18.1-31.33h0Z"/>
      <path class="cls-32" d="m447.19,197.39c4.49-4.15,9.79-7.56,15.74-10.14,1.58,2.27,4.95,2.72,7.87,2.66,2.92-.07,6.08-.37,8.54,1.08,2,1.18,3.21,3.36,5.39,4.23,2.6,1.04,5.72-.13,8.38.76,1.84.61,3.14,2.09,4.62,3.27s3.54,2.12,5.85,1.77l.96,21.19c.76-4.32,2.8-8.34,4.2-12.51,1.41-4.18,2.15-8.81.35-12.85-1.64-3.67-5.15-6.32-8.74-8.49-7.97-4.81-17.38-8.07-26.88-7.49-9.51.58-19,5.54-26.27,16.53h0Z"/>
      <path class="cls-42" d="m450.34,204.55c1.29-3.69,5.97-5.59,10.45-4.25s7.07,5.41,5.78,9.11c-1.29,3.69-5.25,5.65-10.44,3.91-4.62-1.56-7.08-5.07-5.79-8.76h0Z"/>
      <path class="cls-11" d="m466.26,210.1c.76-2.52.16-5.37-2-7.52-2.49-2.49-6.54-3.2-9.85-1.74-1.79.78-3.24,2.11-4.08,3.77.56-1.86,1.85-3.55,3.81-4.64,3.55-1.99,8.28-1.27,10.94,1.67,2.15,2.36,2.61,5.67,1.18,8.46h0Zm-4-5.45c2.28.78,3.45,3.12,2.61,5.23s-3.38,3.19-5.66,2.41-3.45-3.12-2.61-5.23,3.38-3.19,5.66-2.41Z"/>
      <g>
        <path id="B" class="cls-42" d="m459.46,204.39c.54.18.82.74.62,1.24-.2.5-.8.75-1.34.57-.54-.18-.82-.74-.62-1.24.2-.5.8-.75,1.34-.57Z"/>
        <path class="cls-42" d="m495.94,224.5c2.39-3.19,1.18-7.78-2.69-10.25s-8.95-1.9-11.33,1.29-1.67,7.29,2.98,10.03c4.14,2.45,8.65,2.12,11.04-1.07h0Z"/>
      </g>
      <path class="cls-11" d="m481.48,216.19c1.71-2.09,4.51-3.38,7.68-3.11,3.65.32,6.72,2.86,7.48,6.17.42,1.79.15,3.66-.76,5.29,1.26-1.54,1.92-3.52,1.67-5.61-.45-3.81-3.94-6.85-8.08-7.01-3.5-.14-6.52,1.64-7.98,4.26h0Z"/>
      <path class="cls-30" d="m488.08,219.32c.4-.99-.13-2.1-1.2-2.47s-2.27.12-2.68,1.11"/>
      <path class="cls-11" d="m487.68,214.82c2.28.78,3.45,3.12,2.61,5.23s-3.38,3.19-5.66,2.41-3.45-3.12-2.61-5.23,3.38-3.19,5.66-2.41Z"/>
      <path class="cls-42" d="m484.94,214.52c.54.18.82.74.62,1.24-.2.5-.8.75-1.34.57-.54-.18-.82-.74-.62-1.24.2-.5.8-.75,1.34-.57Z"/>
      <path class="cls-67" d="m470.48,214.32c-.61.99-1.03,2.09-1.22,3.23-.63-.44-.92-1.25-.71-1.95.21-.7.91-1.25,1.93-1.27h0Z"/>
      <path class="cls-20" d="m477.04,228.47c-.38.25-.81.47-1.25.65-3.28,1.28-7.67.29-10.11-2.28-.54-.57-.98-1.2-1.3-1.88-1.16-2.37-.99-5.22.54-7.35l.67.29c4.41,1.84,9.16,2.95,13.92,3.26l.7.57c.44,2.6-.83,5.26-3.17,6.74h0Z"/>
      <path class="cls-62" d="m477.04,228.47c-.38.25-.81.47-1.25.65-3.28,1.28-7.67.29-10.11-2.28-.54-.57-.98-1.2-1.3-1.88,1.68-1.15,4.62-1.36,7.54-.36,2.45.84,4.31,2.31,5.13,3.87h0Z"/>
      <path class="cls-42" d="m465.59,217.91c.06.85.41,1.66,1,2.31.93,1.03,2.28,1.56,3.63,2,1.78.57,3.65,1,5.59.91,1.54-.07,3.12-.5,4.49-1.34l-.18-.59c-4.96-.26-9.93-1.39-14.52-3.3h0Z"/>
      <path class="cls-56" d="m469.94,194.6c-.26-1.89-1.85-3.5-3.78-4.18s-4.13-.48-6.04.26-3.53,2-4.76,3.54c4.53-2.39,10.63-1.93,14.58.37Zm20.65,9.57c2.67-1.37,6.18-1.19,8.68.43,2.5,1.62,3.87,4.6,3.35,8.48-2.36-4.39-6.91-7.72-12.03-8.91h0Z"/>
      <path class="cls-19" d="m515.17,202.8c-2.15,10.12-7.17,19.69-13.87,26.46,3.73-9.68,4.97-20.16,3.33-30.76-2.28.92-4.85-.5-6.71-2.04-1.86-1.54-3.8-3.38-6.3-3.41-1.39-.03-2.75.54-4.13.46-3.38-.2-5.13-3.86-8.07-5.42-4.78-2.52-11.85.87-15.61-2.6-8.54,3.88-15.58,10.52-19.63,18.47,2.46-7.43,6.67-14.26,12.32-20-.98-.59-1.57-1.52-1.82-2.57-.28-1.24-.13-2.53.43-3.68,1.04-2.12,3.08-3.63,5.04-5.08,3.33-2.43,7.01-4.99,11.24-5.02,4.74-.04,8.96,3.1,13.7,3.21,3.8.09,7.81-1.78,11.27-.32,3.45,1.46,4.71,5.61,8.03,7.29,2.74,1.4,6.61.97,8.57,3.24.45.52.73,1.1.91,1.73.42,1.42.35,3.04.66,4.53.55,2.74,2.46,5.09,3.29,7.77s-.02,6.28-2.68,7.74h0Z"/>
      <path class="cls-39" d="m513.9,182.77c-.88-.77-2.09-1.31-3.27-1.53-2.55-.47-5.29-.08-7.68-1.02-3.35-1.32-5.24-4.94-8.71-5.99-2.96-.9-6.15.35-9.27.21-3.96-.17-7.41-2.52-11.28-3.33-4.5-.94-9.37.37-13,3.01-2.62,1.92-4.62,4.46-6.02,7.28-.29-1.2-.12-2.55.43-3.68,1.04-2.12,3.08-3.63,5.04-5.08,3.33-2.43,7.01-4.99,11.24-5.02,4.74-.04,8.96,3.1,13.7,3.21,3.8.09,7.81-1.78,11.27-.32,3.45,1.46,4.71,5.61,8.03,7.29,2.74,1.4,6.61.97,8.57,3.24.46.51.74,1.1.92,1.72h0Z"/>
      <path class="cls-72" d="m518.02,249.75l10.55,17.87c3.15,5.07,9.54,7.61,15.69,6.24l16.61-3.68-2.3-16.45-17.12,3.65-14.08-14.01-9.35,6.38h0Z"/>
      <path class="cls-58" d="m563.72,251.43l-19.29,4.51,4.97,21.14,16.17-2.3s2.18-16.9-1.85-23.35h0Z"/>
      <g>
        <path class="cls-72" d="m531.77,239.32c2.02-2.78,3.27-4.32,2.47-6.96-.79-2.64-4.33-3.23-5.87-2.42-1.41-2.25-2.97-4.63-5.52-5.73-2.55-1.1-5.5-.49-6,2.06-3.33-.95-5.37,1.95-4.88,3.74-2.04.25-4.45,1.46-4.2,5.91-1.76,1.14-2.11,3.77-1.1,5.53,2.43,4.21,7.09,8.14,12.25,8.45,4.83-2.84,9.63-6.14,12.85-10.58h0Z"/>
        <g>
          <path class="cls-79" d="m516.7,226.35s1.64.35,3.06,2.12c2.21,2.74,4.62,7.11,2.78,8.87-3.09,2.95-9.57-5.73-9.57-5.73"/>
          <path class="cls-79" d="m528.09,230.34s-8.76,6.16-6.5,8.77,7.89-1.14,7.89-1.14m-16.31-7.81s1.64.35,3.06,2.12c2.21,2.74,4.62,7.11,2.78,8.87-3.09,2.95-8.96-4.71-8.96-4.71"/>
          <path class="cls-79" d="m508.11,236.5s1.5-1.41,4.09.38c1.61,1.1,6,5.59,4.21,7.26-2.3,2.15-7.19-2.39-7.19-2.39"/>
        </g>
      </g>
      <path class="cls-49" d="m652.87,209.12c-4,23.79-22.29,39.18-48.16,50.11l-11.26-17.64c22.36-7.49,36.93-15.98,46.69-37.75l12.73,5.28h0Z"/>
      <path class="cls-58" d="m592,264.5l29.26-9.28-8.75-22.62-23.02,8.13,2.5,23.77Z"/>
      <g>
        <path class="cls-49" d="m637.18,201.85c-2.58-2.36-4.14-3.63-3.93-6.36.2-2.73,3.54-3.96,5.22-3.46.89-2.46,1.91-5.08,4.17-6.63s5.28-1.5,6.33.91c3.05-1.54,5.68.93,5.59,2.77,2.06-.13,4.67.6,5.39,5.02,1.98.8,2.88,3.31,2.27,5.22-1.47,4.58-5.19,9.29-10.18,10.54-5.33-1.9-10.75-4.24-14.86-8h0Z"/>
        <g>
          <path class="cls-76" d="m649.15,186.36s-1.52.65-2.54,2.64c-1.58,3.09-3,7.81-.81,9.2,3.67,2.32,8.15-7.38,8.15-7.38"/>
          <path class="cls-76" d="m638.84,192.37s9.91,4.42,8.26,7.4c-1.65,2.97-7.97.34-7.97.34m14.29-10.68s-1.52.65-2.54,2.64c-1.58,3.09-3,7.81-.81,9.2,3.67,2.32,7.76-6.27,7.76-6.27"/>
          <path class="cls-76" d="m659.76,194.72s-1.77-1.1-3.93,1.12c-1.34,1.38-4.67,6.59-2.56,7.89,2.72,1.68,6.53-3.66,6.53-3.66"/>
        </g>
      </g>
      <path class="cls-19" d="m651.2,322.08c5.01-3.97,8.92-4.32,11.35-3.91,1.84.32,2.85,1.09,2.85,1.09l-16.29,26.05-1.91-1.49-4.56-3.57-1.95-2.7,10.51-15.48h0Z"/>
      <path class="cls-38" d="m662.55,318.18c1.84.32,2.85,1.09,2.85,1.09l-16.29,26.06-1.91-1.49,15.34-25.66h0Z"/>
      <path class="cls-19" d="m538.02,332.53c-6.59.13-9.77,2.27-11.28,4.08-1.14,1.38-1.34,2.57-1.34,2.57l30.93,9.4.35-2.28.83-5.46-.49-3.22-19-5.09h0Z"/>
      <path class="cls-38" d="m526.74,336.61c-1.14,1.38-1.34,2.57-1.34,2.57l30.93,9.4.35-2.28-29.93-9.69Z"/>
      <path class="cls-46" d="m651.62,321.39l-9.62,19.19-56.72-35.03c-25.7,8.26-27.32,13.87-27.19,34.96l-21.17-8.09c-1.92-19.68,2.61-24.83,19.28-40.87l2.71-2.61,2.66-3.33,1.24-1.55,15.94,2.14,29.09,3.9,1.57,1.11,42.22,30.17h0Z"/>
      <path class="cls-35" d="m609.4,291.22l-53.2.34,2.71-2.61,2.66-3.33,17.18.59,29.09,3.9,1.57,1.11h0Z"/>
      <path class="cls-7" d="m594.04,246.63s16.44,19.72,15.11,44.45l-50.4-2.32s8.79-16.16,4.26-37.41l31.03-4.72h0Z"/>
      <path class="cls-37" d="m569.4,251.19s6.76,7.09,11.36,6.2c4.61-.88,7.98-9.42,7.98-9.42l-19.34,3.22Z"/>
      <ellipse class="cls-72" cx="605.96" cy="229.43" rx="10.36" ry="8.34" transform="translate(-34.02 128.15) rotate(-11.75)"/>
      <path class="cls-37" d="m604.43,227.05c3.79-1.16,7.61-.03,8.52,2.52.91,2.55-1.42,5.56-5.22,6.72s-7.61.03-8.52-2.52,1.42-5.56,5.22-6.72h0Z"/>
      <path class="cls-72" d="m543.37,233.9c5.75.21,10.24,4.1,10.04,8.68s-5.02,8.12-10.76,7.91-10.24-4.1-10.04-8.68c.2-4.58,5.02-8.12,10.76-7.91h0Z"/>
      <path class="cls-37" d="m543.75,239.48c3.99.17,7.12,2.48,6.99,5.16s-3.47,4.72-7.47,4.56-7.12-2.48-6.99-5.16c.13-2.68,3.47-4.72,7.47-4.56Z"/>
      <path class="cls-72" d="m605.07,223.56c-4.14-16.17-22.32-32.06-43.38-26.89-17.49,4.29-24.55,24.66-20.41,40.83,4.14,16.17,22.08,17.01,39.2,14.59,17.53-2.47,28.74-12.35,24.6-28.52h0Z"/>
      <path class="cls-37" d="m541.1,234.82c.09-9.26,2.95-18.48,8.58-26.58,6.9,1.18,14.03.29,20.35-2.54-.96-1.31-2.2-2.44-3.62-3.4,6.1-.5,12.28-.18,18.29.95-.03-.86-.4-1.7-.94-1.94,6.26,1.91,11.78,5.48,15.87,10.26-1.91-6.45-7.83-11.48-14.61-13.85s-14.3-2.32-21.43-1.14c-5.56.92-11.17,2.6-15.35,6.11-3.7,3.11-6.01,7.44-7.2,11.92-1.19,4.49-1.32,9.16-1.2,13.77"/>
      <path class="cls-22" d="m577.72,207.83c.4-1.89,2.13-3.45,4.14-4.04s4.24-.31,6.12.52,3.44,2.16,4.59,3.76c-4.44-2.59-10.67-2.38-14.85-.24h0Zm-18.31,3.6c-2.31-1.91-5.7-2.46-8.39-1.36s-4.56,3.8-4.78,7.79c2.31-4.91,8.05-6.3,13.17-6.42h0Z"/>
      <path class="cls-42" d="m597.07,219.42c-.62-3.96-5.02-6.65-9.84-6.01s-8.21,4.38-7.58,8.34c.62,3.96,3.95,6.15,9.94,4.87,4.93-1.06,8.11-3.23,7.48-7.2h0Z"/>
      <path class="cls-8" d="m579.82,222.54c-.3-2.69.84-5.48,3.44-7.33,3-2.13,7.25-2.21,10.35-.2,1.68,1.08,2.9,2.66,3.45,4.49-.22-1.99-1.23-3.9-3.01-5.33-3.24-2.59-8.19-2.61-11.45-.04-2.63,2.06-3.72,5.35-2.79,8.42Z"/>
      <path class="cls-11" d="m587.28,218.13c2.5.24,4.31,2.31,4.04,4.62-.26,2.31-2.5,3.98-5,3.74-2.5-.24-4.31-2.31-4.04-4.62.26-2.31,2.5-3.98,5-3.74Z"/>
      <path class="cls-42" d="m589.18,218.33c.59.06,1.03.55.96,1.1s-.59.95-1.19.89-1.03-.55-.96-1.1.59-.95,1.19-.89Zm-39.91,11.2c-1.51-3.75.97-8.06,5.52-9.62,4.55-1.57,9.47.21,10.98,3.96s.2,6.53-6.08,8.08c-4.89,1.2-8.91,1.34-10.42-2.41Z"/>
      <path class="cls-8" d="m566.03,224.61c-1.13-2.49-3.58-4.44-6.82-4.91-3.74-.54-7.51,1.27-9.19,4.41-.96,1.8-1.14,3.72-.7,5.47-.83-1.84-.95-3.97-.12-6.01,1.5-3.71,5.83-5.92,10.03-5.11,3.54.7,6.07,3.2,6.81,6.16h0Z"/>
      <path class="cls-30" d="m557.26,227.37c-.13-1.08.71-2.07,1.88-2.19,1.17-.12,2.24.65,2.37,1.74"/>
      <path class="cls-11" d="m559.87,222.97c2.5.24,4.31,2.31,4.04,4.62-.26,2.31-2.5,3.98-5,3.74-2.5-.24-4.31-2.31-4.04-4.62.26-2.31,2.5-3.98,5-3.74Z"/>
      <path class="cls-42" d="m561.95,223.3c.59.06,1.03.55.96,1.1s-.59.95-1.19.89-1.03-.55-.96-1.1.59-.95,1.19-.89Z"/>
      <path class="cls-29" d="m573.98,224.61c.61,1.04,1.02,2.18,1.2,3.35.66-.45.98-1.28.77-2-.21-.73-.92-1.31-1.98-1.35Z"/>
      <path class="cls-57" d="m583.46,240.71c-3.04,2.86-8.16,3.97-12.36,2.46-3.81-1.36-6.51-4.89-6.41-8.41.01-.36.05-.73.12-1.09,6.84-2.07,13.62-3.21,20.47-3.81.15-.01.3-.04.45-.04,1.67,3.67.77,8.04-2.27,10.89h0Z"/>
      <path class="cls-62" d="m583.81,240.37l-.34.34c-3.04,2.86-8.16,3.97-12.36,2.46-.84-.3-1.64-.71-2.36-1.21,1.61-1.66,4.5-2.86,7.85-3.05,2.81-.16,5.37.42,7.2,1.46h0Z"/>
      <path class="cls-42" d="m585.28,229.87c-.08,2.46-2.98,3.64-6.77,4.42-4.55.94-9.09.85-13.82.48.01-.36.05-.73.12-1.09,6.84-2.07,13.62-3.21,20.47-3.81h0Z"/>
      <path class="cls-22" d="m594.63,206.15c-4.51-3.45-9.56-6.12-14.95-7.96,1.06.66,1.79,1.94,2.06,3.3-6.57-1.18-13.36-1.32-19.98-.41,1.04,1.28,2.3,2.61,3.55,3.94-5.54,1.21-11.26,1.73-16.95,1.52-7.45,8.52-7.25,22.33-6.16,33.42-5.12-9.99-7.21-21.71-5.75-33.18.27-2.14,1.24-4.13,2.8-5.73.14-.14.28-.28.41-.43,4.52-4.69,8.43-9.89,11.64-15.43l1.86,5.51c8.68-5.49,18.91-8.49,29.43-8.64-1.27,1.97-2.54,3.95-4.04,6.05,7.72-1.4,15.82-.97,23.31,1.26l-7.55,7.22c2.82.73,5.52,1.87,7.97,3.38,1.37.84,2.66,1.79,3.84,2.84-1.86.95-3.71,1.89-4.97,2.44,2.42,6.77,3.88,13.79,4.36,20.9-2.8-7.01-6.45-13.74-10.89-20h0Z"/>
      <path class="cls-59" d="m588.43,197.27l5.96-6.57c-7.63-1.61-15.88-1.41-23.52.71l4.09-4.83c-9.19.99-18.01,4.65-24.93,10.31l-.39-4.33c-2.59,3.12-6.05,5.92-9.98,8.09,4.52-4.69,8.43-9.89,11.64-15.43l1.86,5.51c8.68-5.49,18.91-8.49,29.43-8.64-1.27,1.97-2.54,3.95-4.04,6.05,7.76-1.4,15.78-.97,23.31,1.26l-7.55,7.22c2.83.73,5.52,1.87,7.97,3.38-4.43-1.6-9.11-2.52-13.86-2.73h0Z"/>
      <path class="cls-25" d="m118.19,258.9l12.59,16.71c3.73,4.72,10.38,6.61,16.33,4.64l16.08-5.33-4.22-16.13-16.59,5.34-15.64-12.52s-8.55,7.28-8.55,7.28Z"/>
      <path class="cls-65" d="m163.81,256l-18.65,6.41,7.42,20.51,15.81-3.9s.19-17.02-4.58-23.02h0Z"/>
      <g>
        <path class="cls-25" d="m130.63,247.16c1.68-2.97,2.74-4.62,1.64-7.17-1.09-2.55-4.68-2.78-6.12-1.82-1.66-2.09-3.49-4.31-6.16-5.14-2.66-.84-5.53.06-5.72,2.65-3.42-.61-5.11,2.48-4.41,4.21-2,.46-4.25,1.89-3.48,6.3-1.62,1.31-1.65,3.96-.44,5.61,2.91,3.95,8.01,7.39,13.17,7.18,4.47-3.31,8.85-7.07,11.53-11.8h0Z"/>
        <g>
          <path class="cls-78" d="m114.12,235.78s1.67.19,3.29,1.8c2.52,2.51,5.43,6.6,3.81,8.54-2.72,3.24-10.19-4.74-10.19-4.74"/>
          <path class="cls-78" d="m125.92,238.6s-7.99,7-5.43,9.37,7.71-1.93,7.71-1.93m-17.13-6.13s1.67.19,3.29,1.8c2.52,2.51,5.43,6.6,3.81,8.54-2.72,3.24-9.46-3.78-9.46-3.78"/>
          <path class="cls-78" d="m106.78,246.73s1.32-1.55,4.11-.03c1.73.94,6.62,4.96,5.04,6.8-2.04,2.36-7.43-1.65-7.43-1.65"/>
        </g>
      </g>
      <path class="cls-23" d="m214.98,170.79c15.18,19.57,13.8,42.38,3.63,66.93l-21.41-5.3c10.27-19.82,14.23-35.31,4.69-57.16l13.09-4.47Z"/>
      <path class="cls-65" d="m208,261.58l13.85-25.57-23.39-10.47-10.26,20.7,19.8,15.34Z"/>
      <g>
        <path class="cls-23" d="m198.27,175.77c-3.63,0-5.71.09-7.63-2-1.92-2.08-.48-5.12,1.1-5.85-1.23-2.34-2.49-4.86-2.06-7.43s2.63-4.49,5.21-3.44c1.01-3.08,4.76-3.01,6.09-1.64,1.37-1.42,3.79-2.59,7.65.09,2.01-.71,4.56.5,5.57,2.25,2.42,4.21,3.34,9.99.73,14.11-5.24,2.1-10.88,3.93-16.67,3.91h0Z"/>
        <g>
          <path class="cls-82" d="m195.07,156.96s-.59,1.45.19,3.53c1.22,3.23,3.79,7.51,6.4,7.09,4.37-.72.22-10.54.22-10.54"/>
          <path class="cls-82" d="m192.27,167.93s10.43-3.26,11.51-.07c1.08,3.19-5.43,5.4-5.43,5.4m2.11-16.87s-.59,1.45.19,3.53c1.22,3.23,3.79,7.51,6.4,7.09,4.37-.72.79-9.5.79-9.5"/>
          <path class="cls-82" d="m208.98,156.06s-2.1.36-1.95,3.35c.09,1.85,1.66,7.72,4.16,7.29,3.21-.56,1.88-6.84,1.88-6.84"/>
        </g>
      </g>
      <path class="cls-19" d="m139.93,345.72c-6.25-1.95-10.02-.94-12.11.29-1.58.94-2.21,1.99-2.21,1.99l25.64,18.55,1.17-2.04,2.79-4.88.72-3.18-16-10.74Z"/>
      <path class="cls-38" d="m127.83,346.01c-1.58.94-2.21,1.99-2.21,1.99l25.64,18.55,1.17-2.04-24.6-18.51Z"/>
      <path class="cls-19" d="m249.15,316.38c6.16-2.15,9.98-1.27,12.12-.11,1.62.88,2.28,1.92,2.28,1.92l-24.9,19.39-1.24-2-2.98-4.78-.85-3.16,15.57-11.27Z"/>
      <path class="cls-38" d="m261.26,316.27c1.62.88,2.28,1.92,2.28,1.92l-24.9,19.39-1.24-2,23.86-19.32Z"/>
      <path class="cls-64" d="m139.26,345.22l16.68,14.49,38.47-52.06c27.18-1.21,30.95,3.45,39.35,23.06l16.38-14.8c-6.17-18.91-12.45-22.14-34.4-31.27l-3.57-1.49-3.81-2.17-1.78-1.01-13.92,7.48-25.41,13.65-1,1.58-26.98,42.55h0Z"/>
      <path class="cls-68" d="m166.24,302.67l49.49-18.03-3.57-1.49-3.81-2.17-15.7,6.47-25.41,13.65-1,1.58h0Z"/>
      <path class="cls-62" d="m162.48,256.01l3.94,46.45,45.82-19.54s.99-15.24-9.18-38.94l-40.58,12.03Z"/>
      <path class="cls-32" d="m187.18,251.74s-3.41,8.91-8.03,9.67c-4.63.77-11.2-5.99-11.2-5.99l19.24-3.69Z"/>
      <path class="cls-25" d="m143.88,235.88c-5.74.37-10.11,4.37-9.77,8.94s5.27,7.98,11,7.62c5.74-.37,10.11-4.37,9.77-8.94s-5.27-7.98-11-7.62Z"/>
      <path class="cls-32" d="m144.93,241.43c-3.99.23-7.07,2.6-6.89,5.28s3.57,4.66,7.55,4.43,7.07-2.6,6.89-5.28-3.57-4.66-7.55-4.43Z"/>
      <path class="cls-25" d="m204.34,226.72c-5.24,2.18-7.85,7.33-5.81,11.51s7.93,5.8,13.18,3.63,7.85-7.33,5.81-11.51-7.93-5.8-13.18-3.63h0Z"/>
      <path class="cls-32" d="m206.24,232.03c-3.63,1.53-5.6,4.76-4.4,7.2s5.13,3.18,8.77,1.65,5.6-4.76,4.4-7.2-5.13-3.18-8.77-1.65Z"/>
      <path class="cls-25" d="m142.92,238.41c-2.69-16.43,7.75-37.44,29.39-39.91,17.96-2.05,32.73,14.41,35.43,30.84,2.69,16.43-13.61,23.39-30.47,27.05-17.26,3.76-31.65-1.54-34.34-17.98h0Z"/>
      <path class="cls-51" d="m206.82,226.8c-3.83-8.56-10.2-16.13-18.7-21.7-5.93,3.47-12.9,5.11-19.91,4.67.36-1.54,1.06-3.02,1.98-4.4-5.86,1.64-11.47,4.07-16.58,7.19-.32-.8-.32-1.71.09-2.13-5.04,3.93-8.72,9.14-10.58,14.99-.84-6.65,2.63-13.35,7.96-17.88s12.33-7.08,19.42-8.45c5.53-1.07,11.41-1.44,16.71.38,4.69,1.61,8.58,4.83,11.49,8.58s4.92,8.04,6.68,12.36"/>
      <path class="cls-62" d="m161.96,217.43c-1.14-1.62-3.37-2.46-5.48-2.32s-4.06,1.17-5.47,2.59-2.32,3.19-2.74,5.08c3.07-3.94,8.94-5.89,13.68-5.35h0Zm18.44-2.97c1.37-2.57,4.29-4.25,7.24-4.16s5.77,1.95,7.58,5.57c-4.13-3.76-10.02-3.06-14.82-1.42h0Z"/>
      <path class="cls-42" d="m148.68,231.81c-1.02-3.89,1.97-7.9,6.7-8.97s9.38,1.23,10.4,5.12c1.02,3.89-1.18,7.07-7.25,7.94-5,.72-8.83-.2-9.85-4.1Z"/>
      <path class="cls-8" d="m165.94,228.75c-.81-2.6-3-4.8-6.15-5.62-3.68-.93-7.59.44-9.68,3.39-1.18,1.68-1.61,3.57-1.39,5.35-.6-1.92-.44-4.04.64-5.98,1.96-3.52,6.54-5.25,10.6-3.99,3.43,1.07,5.62,3.83,5.98,6.85Z"/>
      <path class="cls-11" d="m157.24,227.24c-2.22,1.09-3.06,3.63-1.89,5.68,1.18,2.05,3.93,2.83,6.14,1.74,2.22-1.09,3.06-3.63,1.89-5.68-1.18-2.05-3.93-2.83-6.14-1.74h0Z"/>
      <path class="cls-42" d="m155.56,228.08c-.53.26-.73.86-.45,1.35s.93.67,1.46.42.73-.86.45-1.35-.93-.67-1.46-.42Z"/>
      <path class="cls-56" d="m170.74,227.93c.04,1.18.29,2.34.76,3.44-.82-.1-1.5-.63-1.73-1.37-.22-.73.09-1.55.97-2.07Z"/>
      <path class="cls-20" d="m170.95,244.72c.97.63,2.08,1.09,3.29,1.32,4.04.77,8.75-1.09,10.85-4.29.59-.9.97-1.9,1.12-2.95.36-2.34-.44-4.76-2.26-6.42l-1.04-.07c-4.57,2.7-9.71,4.68-15.03,5.79l-.82.17c.09,2.57,1.6,4.98,3.89,6.45h0Z"/>
      <path class="cls-62" d="m170.95,244.72c.97.63,2.08,1.09,3.29,1.32,4.04.77,8.75-1.09,10.85-4.29.59-.9.97-1.9,1.12-2.95-2.2-.36-5.52.2-8.9,1.65-2.78,1.2-5.04,2.76-6.36,4.26h0Z"/>
      <path class="cls-42" d="m167.87,238.1c.65.72,1.54,1.23,2.53,1.44,1.57.34,3.19-.03,4.72-.48,2.03-.6,4.04-1.38,5.75-2.68,1.35-1.02,2.5-2.39,3.16-4l-.58-.41c-4.71,2.87-10.04,4.97-15.59,6.13Z"/>
      <path class="cls-11" d="m180.76,227.17c1.86-6.26,10.87-8.01,13.78-1.06,0-1.47-.54-2.95-1.64-4.16-2.48-2.71-6.86-3.04-9.78-.75-1.88,1.46-2.78,3.74-2.36,5.97h0Z"/>
      <path class="cls-62" d="m145.58,218.66c2.79-4.75,6.4-8.98,10.65-12.54-.71.98-.88,2.42-.57,3.77,5.62-3.36,11.86-5.83,18.37-7.27-.45,1.55-1.08,3.22-1.7,4.88,5.63-.79,11.14-2.28,16.34-4.44,10.36,5.34,15.74,18.21,19.22,28.88.71-11.03-2.08-22.63-8.07-32.76-1.11-1.89-2.82-3.4-4.91-4.35l-.56-.25c-6.09-2.79-11.82-6.26-17.04-10.3l.5,5.75c-10.19-2.1-21.05-1.35-30.79,2.13,1.97,1.39,3.95,2.79,6.19,4.22-7.73,1.36-15.07,4.56-21.12,9.21l9.92,4.1c-2.33,1.65-4.37,3.64-6.03,5.88-.93,1.25-1.74,2.57-2.42,3.96,2.1.24,4.21.47,5.6.55.49,7.11,1.97,14.13,4.4,20.9-.24-7.48.44-14.97,2.02-22.31Z"/>
      <path class="cls-3" d="m147.74,208.28l-8.18-4.04c6.44-4.12,14.16-6.78,22.1-7.46l-5.75-3.07c8.99-2.24,18.51-1.91,27.3.97l-1.38-4.15c3.66,2.01,8.01,3.4,12.52,4.07-6.09-2.79-11.82-6.26-17.04-10.3l.5,5.75c-10.19-2.1-21.05-1.35-30.79,2.13,1.97,1.39,3.95,2.79,6.19,4.22-7.73,1.36-15.07,4.56-21.12,9.21l9.92,4.1c-2.33,1.65-4.37,3.64-6.03,5.88,3.45-3,7.44-5.49,11.75-7.31h0Z"/>
      <path class="cls-56" d="m326.1,200.62c1.99,3.67,7.47,5.05,12.4,4.84s9.76-1.63,14.7-1.9,10.44.99,12.6,4.58c-2-1.03-4.74-1.04-6.86-.03,6.11,3.37,8.58,10.57,5.63,16.4-1.16-3.81-6.17-5.82-10.9-6.25-4.73-.42-9.61.26-14.3-.38-7.73-1.05-14.3-5.96-16.34-12.2,1.04-1.61,2.08-3.22,3.07-5.08h0Zm-54.44,9.17c-3.39,3-8.22,4.09-12.84,4.88-4.62.8-9.44,1.47-13.33,3.89-3.89,2.43-6.52,7.24-4.6,11.19,0-1.68,1.45-3.26,3.25-3.53-1.69,3.56-1.49,7.84.54,11.25s5.85,5.85,10.01,6.43c-2.39-3.54-.92-8.36,2-11.54,2.92-3.19,6.99-5.23,10.63-7.69,3.65-2.46,7.11-5.71,7.4-9.89-1.32-1.6-2.64-3.19-3.07-4.99h0Z"/>
      <g>
        <path class="cls-25" d="m348.11,224.3c-1.08-3.82-1.58-7.77-1.48-11.71.02-.74.15-1.62.87-1.94.92-.41,1.9.44,2.45,1.24,1.35,1.95,2.25,4.16,2.63,6.44,2.4-2.86,5.4-5.23,8.81-6.99.95-.49,2.3-.87,3.01-.12.67.7.21,1.8-.28,2.61-1.13,1.86-2.35,3.68-3.65,5.45,2.39-1.51,5.11-2.58,7.96-3.1.9-.17,2.04-.2,2.53.52.59.86-.24,1.93-1.05,2.62-1.81,1.54-3.78,2.93-5.88,4.13,1.28.4,2.68.04,3.96-.34s2.65-.78,3.96-.48c1.31.31,2.42,1.64,1.88,2.79-.36.75-1.24,1.12-2.06,1.43l-6.48,2.43c1.23.51,2.64.1,3.98-.05s3.01.18,3.39,1.37c.26.81-.24,1.69-.96,2.21-.72.51-1.63.73-2.52.94-2.24.53-12.21,1.34-12.21,1.34,0,0-8.21-8.47-8.87-10.8h0Z"/>
        <path class="cls-25" d="m346.77,249.75l10.7-15.45-8.56-10.6-10.83,12.89,8.69,13.15Z"/>
      </g>
      <path class="cls-46" d="m305.71,229.24l6.77-9.16,2.73.77c5.25,1.47,14.47,7.77,14.47,7.77l6.05,4.35,8.29-6.88,13.64,14.8-10.19,11.08c-4.94,5.36-12.67,6.8-19.49,3.62l-9.02-4.2-13.25-22.15h0Z"/>
      <path class="cls-60" d="m339.19,229.41l14.97,16.18,5.12-3.95-14.63-17.67-5.45,5.43Z"/>
      <g>
        <path class="cls-25" d="m249.22,164.89c.79-3.87.98-7.85.58-11.78-.08-.73-.28-1.61-1.02-1.88-.95-.35-1.86.56-2.35,1.39-1.2,2.04-1.92,4.29-2.13,6.6-2.61-2.69-5.78-4.87-9.33-6.39-.99-.42-2.36-.72-3.02.08-.61.75-.07,1.81.48,2.58,1.27,1.79,2.62,3.52,4.05,5.19-2.5-1.36-5.3-2.24-8.18-2.57-.91-.11-2.05-.06-2.49.69-.52.89.4,1.91,1.25,2.54,1.93,1.42,4,2.67,6.18,3.73-1.24.48-2.67.22-3.98-.08s-2.7-.6-3.99-.21-2.29,1.8-1.66,2.9c.41.72,1.33,1.04,2.17,1.29l6.65,2c-1.19.59-2.63.27-3.97.2s-2.99.37-3.28,1.59c-.2.82.37,1.68,1.13,2.13s1.69.62,2.59.77c2.27.37,12.29.54,12.29.54,0,0,7.54-8.97,8.02-11.34h0Z"/>
        <path class="cls-25" d="m252.52,190.19l-11.87-14.71,7.73-11.13,11.79,12.15-7.65,13.69Z"/>
      </g>
      <path class="cls-46" d="m296.4,223.57l-40.86-55.62-13.68,17.19,40.48,55.22,14.06-16.79Z"/>
      <path class="cls-60" d="m244.41,189.76l15.3-18.89-4.39-5.4-16.29,18.56,5.38,5.73Z"/>
      <path class="cls-24" d="m254.06,267.28c-6.02-2.49-8.05-5.59-8.69-7.81-.48-1.68-.15-2.85-.15-2.85l32.46,2.44-.64,2.23-1.53,5.34-1.81,2.79-19.64-2.15Z"/>
      <path class="cls-38" d="m245.37,259.49c-.48-1.68-.15-2.85-.15-2.85l32.46,2.44-.64,2.23-31.66-1.83Z"/>
      <path class="cls-25" d="m275.32,290.31s-1.3,1.13-3.32,2.6l-2.59,1.78c-4.97,3.2-11.96,6.55-16.45,3.72-10.65-6.72,1.19-31.11,1.19-31.11,0,0,4.2.01,10.87.55l8.03,16.58,2.27,5.88Z"/>
      <path class="cls-32" d="m253.73,276.71l15.67,17.98,2.59-1.78,1.04-8.48-6.18-16.21c-5.7,3.6-7.99,4.84-13.12,8.48h0Z"/>
      <path class="cls-24" d="m283.02,347.74c.73,6.06-1.14,9.25-2.88,10.87-1.33,1.23-2.58,1.57-2.58,1.57l-14.16-27.1,2.4-.62,5.76-1.48,3.52.02,7.95,16.74Z"/>
      <path class="cls-38" d="m280.13,358.6c-1.33,1.23-2.58,1.57-2.58,1.57l-14.16-27.1,2.4-.62,14.34,26.15Z"/>
      <path class="cls-25" d="m315.42,291.94l-1.47,2.52-5.81,9.94-.15.25-24.99,42.79-11.79-16.11,12.08-28.61.57-1.36,2.94-6.93,2.27-5.37,1.13-2.69,16.17,3.57,9.06,2Z"/>
      <path class="cls-32" d="m313.96,294.46l-5.81,9.94-24.85-1.68.57-1.36,2.94-6.93,27.15.03Z"/>
      <path class="cls-46" d="m286.55,220.24l-9.7,36.58,47.67,7.01s.06-19.16-6.42-37.24c-1.61-4.5-6.28-7.46-11.41-7.24l-20.15.89h0Z"/>
      <path class="cls-25" d="m310.67,216.57s.42,3.15-.37,6.26c-.76,2.97-2.62,5.91-7,6.09-3.79.15-6.77-1.63-8.93-3.69-2.75-2.63-4.15-5.7-4.15-5.7l20.45-2.97Z"/>
      <path class="cls-32" d="m310.67,216.57s.42,3.15-.37,6.26c-6.4,2.47-12.06,2.7-15.92,2.4-2.75-2.63-4.15-5.7-4.15-5.7l20.44-2.97Z"/>
      <g>
        <path class="cls-47" d="m276.76,256.41l47.92,10.22-.84-17.79s-1.51-6.18-2.97-8.58l-30.8-2.26-12.05,11.4-1.26,7.01h0Z"/>
        <path class="cls-47" d="m285.05,253.26l-6.97,1.56-18.61,15.7s4.71,15.44,17.63,20.55l10.41-5.16-3.44,8.55s18.95,8.86,29.4,4.85l8.25-16.96c2.25-4.62,3.24-9.68,2.9-14.74l-.12-1.85-39.45-12.5h0Z"/>
      </g>
      <path class="cls-34" d="m289.66,238.95l4.08,3.26,3.49-3.2-5.83-22.13-7.81-1,6.07,23.07Z"/>
      <path id="C" class="cls-16" d="m292.86,236.87c.85-.11,1.64.43,1.76,1.21.12.78-.46,1.51-1.31,1.63-.85.11-1.64-.43-1.76-1.21-.12-.78.46-1.51,1.31-1.63Z"/>
      <path class="cls-34" d="m296.81,243.71l18.26.63-.83,10.76-3.77,2.04c-2.94,1.6-6.61,1.49-9.46-.27l-4.61-2.84.42-10.33Z"/>
      <g>
        <path class="cls-75" d="m277.35,257.34s19.59,6.91,46.09,11.14"/>
        <path class="cls-75" d="m300.21,263.8s-4.72,14.79-10.79,20.55m14.47-19.45s-2.11,13.79-9.26,12.75m23.88-9.84s-.84,7.63,3.95,9.3m-38.73-17.96s-6.72,7.63-14.28,4.26"/>
      </g>
      <path class="cls-34" d="m314.17,240.37l3.58,2.87,3.08-1.59-2.16-20.32-6.16-1.26,1.65,20.3Z"/>
      <path class="cls-16" d="m317.66,238.24c.85-.11,1.64.43,1.76,1.21.12.78-.46,1.51-1.31,1.63-.85.11-1.64-.43-1.76-1.21-.12-.78.46-1.51,1.31-1.63Z"/>
      <path class="cls-61" d="m284.09,292.33l30.91,5.97-1.65,6.54-31.46-6,2.2-6.51Zm-4.8-1.53l-19.24-21.47-5.91,4.49,18.56,20.7,6.6-3.73Z"/>
      <path class="cls-25" d="m325.26,187.92c4.83-2.7,10.81-1.73,13.37,2.17s.72,9.26-4.1,11.96-10.81,1.73-13.37-2.17-.72-9.26,4.1-11.96Z"/>
      <path class="cls-32" d="m327.84,192.96c3.35-1.88,7.29-1.55,8.79.74s0,5.66-3.36,7.54-7.29,1.55-8.79-.74,0-5.66,3.36-7.54Z"/>
      <path class="cls-25" d="m259.9,213.16c-.51-4.54,3.63-8.65,9.24-9.19,5.61-.54,10.57,2.71,11.08,7.25s-3.63,8.65-9.24,9.19-10.58-2.71-11.08-7.25Z"/>
      <path class="cls-32" d="m262.63,215.04c-.3-2.66,2.62-5.12,6.53-5.49s7.31,1.48,7.6,4.14-2.62,5.12-6.53,5.49-7.31-1.48-7.6-4.14Z"/>
      <path class="cls-25" d="m329.78,190.92c-5.03-15.85-19.82-33.72-44.03-26.72-18.5,5.35-23.51,27.8-18.48,43.65,5.03,15.85,22.18,17.55,39.34,12.56,16.81-4.89,28.2-13.64,23.17-29.49h0Z"/>
      <path class="cls-32" d="m266.75,206c-.65-6.77.09-13.65,2.4-20.32,7.61-1.58,14.66-5.38,19.8-10.7-.12.72-.24,1.42-.07,2.2,5.32-.71,10.4-2.95,14.82-6.44,3.09,2.46,7.58,3.32,11.47,2.21-.53-.82-1.05-1.63-1.51-2.65,5.01,2.82,9.19,6.89,11.96,11.68-2.04-6.24-4.46-12.97-10.31-16.62-4.29-2.67-9.7-3.18-14.86-3.3-5.75-.13-11.59.13-17.13,1.57s-10.83,4.11-14.53,8.19c-3.44,3.78-5.37,8.63-5.86,13.55s.38,9.91,2.09,14.59"/>
      <path class="cls-56" d="m299.01,193.72c.64,1.02,1.08,2.13,1.3,3.3.64-.48.92-1.27.7-2.01-.23-.73-.96-1.28-2-1.29Z"/>
      <path class="cls-20" d="m310.32,205.96c-.36,1.06-.96,2.05-1.75,2.89-2.7,2.88-7.66,4.05-11.44,2.69-1.09-.4-2.05-.98-2.83-1.71-1.82-1.66-2.78-4.03-2.43-6.37l.78-.64c5.41-.42,10.79-1.74,15.75-3.84l.76-.33c1.62,2.09,2,4.86,1.15,7.31h0Z"/>
      <path class="cls-62" d="m310.32,205.96c-.36,1.06-.96,2.05-1.75,2.89-2.7,2.88-7.66,4.05-11.44,2.69-1.09-.4-2.05-.98-2.83-1.71,1.51-1.52,4.52-2.94,8.16-3.68,3-.61,5.81-.64,7.86-.19h0Z"/>
      <path class="cls-42" d="m308.41,198.98c-.04.96-.44,1.89-1.06,2.57-1.03,1.15-2.55,1.77-4.06,2.27-2,.66-4.12,1.17-6.33,1.1-1.74-.05-3.56-.49-5.14-1.4l.19-.65c5.63-.36,11.25-1.69,16.41-3.89Z"/>
      <path class="cls-56" d="m303.45,177.37c.45-1.92,2.23-3.43,4.26-3.96,2.04-.53,4.27-.15,6.15.76,1.87.92,3.41,2.33,4.52,4.02-4.39-2.82-10.67-2.85-14.94-.81Zm-21.42,8.27c-2.61-1.61-6.2-1.72-8.91-.27s-4.4,4.39-4.24,8.39c2.82-4.28,7.79-7.32,13.14-8.12Z"/>
      <g>
        <path class="cls-11" d="m290.05,197.93c-5.14-4.43-13.8-1.55-12.33,5.78-.84-1.25-1.22-2.77-.97-4.34.57-3.51,4.11-5.91,7.9-5.38,2.43.33,4.49,1.83,5.4,3.94h0Z"/>
        <path class="cls-11" d="m277.2,199.27c-1.47.42-3.07.09-4.19-.88.55,1.35,2.17,2.25,3.72,2.02l.48-1.15Zm-.21,2.08c-1.21.6-2.75.57-3.94-.07.86,1.18,2.66,1.68,4.07,1.12.03-.47.05-.95-.13-1.05h0Zm28.89-8.88c.2-6.49,8.52-10.16,13.13-4.03-.37-1.43-1.27-2.75-2.66-3.68-3.09-2.09-7.44-1.46-9.7,1.4-1.5,1.9-1.7,4.3-.77,6.31h0Z"/>
        <path class="cls-11" d="m315.95,184.98c1.36-.66,2.22-1.95,2.27-3.37.65,1.3.2,3-1.06,3.87l-1.21-.5h0Zm1.74,1.32c1.32-.37,2.38-1.4,2.72-2.63.3,1.4-.58,2.93-2.01,3.46-.38-.32-.77-.64-.72-.83Z"/>
      </g>
      <path class="cls-56" d="m309.4,166.14c.52,2.29,2.79,4.29,4.17,6.08-5.94,0-8.55-1.64-10.1-5.07-1.71,3.36-8.24,6.6-12.16,6.64,1.44-1.83,3.69-5.63,3.89-7.48-6.2,8.74-16.15,14.47-25.15,17.67.98-4.3,1.74-6.17,2.01-9.21-6.43,6.91-6.65,26.21-2.72,37.83-12.59-15.8-12.9-31.39-6.44-42.36,7.35-12.47,23.44-19.01,40.24-13.13,11.69-5.68,23.06,6.89,26.7,21.06,1.29,4.97,1.63,10.15.68,14.8-3.46-9.85-12.16-22.86-21.14-26.83h0Z"/>
      <path class="cls-54" d="m329.85,178.17c-2.12-4.55-4.62-8.93-8.36-12.42-5.16-4.8-13.34-7.5-19.98-4.65-8.37-2.8-18.53-2.4-27.1,1.28-4.35,1.86-8.27,4.57-11.49,7.86,7.35-12.47,23.44-19.01,40.24-13.13,11.68-5.67,23.05,6.89,26.7,21.06Z"/>
      <ellipse class="cls-42" cx="158.05" cy="413.18" rx="50.43" ry="46.6"/>
      <g class="cls-83">
        <path class="cls-9" d="m144.7,382.33c-13.89,23.94,6.71,80.92,14.61,87.21,7.9,6.3,63.46-33.76,63.46-33.76,0,0-43.04-47.78-73.16-57.59l-4.91,4.14h0Z"/>
      </g>
      <g class="cls-92">
        <path class="cls-66" d="m143.02,379.15s-32.45,23.22-23.07,68.13c9.38,44.92-25.07-40.23-25.07-40.23,0,0,24.93-40.18,51.81-29.56l-3.67,1.66"/>
      </g>
      <g>
        <g class="cls-86">
          <path class="cls-63" d="m149.76,376.1c1.8-9.14,21.2-13.32,21.2-13.32l30.93,15.59s-45.47-8.34-52.28-.18c-6.81,8.16.14-2.09.14-2.09Z"/>
        </g>
        <g class="cls-98">
          <path class="cls-2" d="m170.96,362.78c43.23,56.78-30.43,89.91-66.19,55.81-33.69-32.13,8.17,76.2,8.17,76.2l98.1-22.28,39.87-55.07s19.53-7.85-2.57-36.66l-22.11-28.81-55.28,10.82h0Z"/>
        </g>
      </g>
      <path class="cls-50" d="m153.29,376.53c.97,1.84-.96,4.56-4.32,6.08s-6.87,1.26-7.84-.58.96-4.56,4.32-6.08,6.87-1.26,7.84.58Z"/>
      <path class="cls-21" d="m191.71,448.24c-43.51-.43-87.04,1.64-132.72,3.72-6.49-3.64-10.23-11.21-9.02-18.24,1.21-7.03,7.3-13.06,14.67-14.52-2.12-9.29,2.19-19.47,10.12-25.16,1.27-.91,2.64-1.7,4.09-2.37,10.48-4.77,24.25-1.87,31.65,6.65,5.42-4.92,13.94-6.53,20.98-3.96,7.03,2.57,12.21,9.19,12.75,16.29,5.95-5.28,15.65-6.33,22.73-2.44,7.08,3.88,10.96,12.37,9.1,19.9,3.87-.15,7.52,1.33,10.39,3.74,4.82,4.02,7.45,10.62,5.25,16.41h0Z"/>
      <path class="cls-15" d="m186.46,431.83c-5.4-1.46-11.18-1.69-16.67-.59.7-6.7-3.33-13.61-9.77-16.75-6.44-3.14-14.89-2.32-20.48,1.99-1.36-6.22-5.99-12.66-12.6-15.1s-14.78-.75-19.6,4.09c-4.28-7.05-12.44-11.96-21.13-12.72-3.85-.34-7.77.13-11.43,1.29,1.27-.91,2.64-1.7,4.09-2.37,10.48-4.77,24.25-1.87,31.65,6.65,5.42-4.92,13.94-6.53,20.98-3.96,7.03,2.57,12.21,9.19,12.75,16.29,5.95-5.28,15.65-6.33,22.73-2.44,7.08,3.88,10.96,12.37,9.1,19.9,3.87-.15,7.52,1.33,10.39,3.74h0Z"/>
      <path class="cls-81" d="m110.51,398.31c-6.52,8.06-5.56,16.87-5.56,16.87m39.29-4.54c-6.63,8.37-8.35,14.74-8.35,14.74"/>
      <path class="cls-9" d="m533.5,392.03h39.94v36.91h-39.94v-36.91Z"/>
      <path class="cls-41" d="m538.61,396.76h29.71v27.46h-29.71v-27.46Z"/>
      <path class="cls-36" d="m591.72,428.95h-18.28v-36.91h18.28v36.91Z"/>
      <text class="cls-73" transform="translate(546.32 418.11) scale(1.08 1)"><tspan x="0" y="0">b</tspan></text>
      <path class="cls-62" d="m556.04,355.13h39.94v36.91h-39.94v-36.91Z"/>
      <path class="cls-40" d="m561.15,359.85h29.71v27.46h-29.71v-27.46Z"/>
      <path class="cls-10" d="m614.26,392.04h-18.28v-36.91h18.28v36.91Z"/>
      <text class="cls-73" transform="translate(569.96 381.2) scale(1.08 1)"><tspan x="0" y="0">a</tspan></text>
      <path class="cls-43" d="m585.15,392.03h39.94v36.91h-39.94v-36.91Z"/>
      <path class="cls-52" d="m590.27,396.76h29.71v27.46h-29.71v-27.46Z"/>
      <path class="cls-44" d="m643.38,428.95h-18.28v-36.91h18.28v36.91Z"/>
      <text class="cls-73" transform="translate(599.5 418.11) scale(1.08 1)"><tspan x="0" y="0">c</tspan></text>
      <path class="cls-21" d="m575.06,445.16c43.51-.43,87.04,1.64,132.72,3.72,6.49-3.64,10.23-11.21,9.02-18.24-1.21-7.03-7.3-13.06-14.67-14.52,2.12-9.29-2.19-19.47-10.12-25.16-1.27-.91-2.64-1.7-4.09-2.37-10.48-4.77-24.25-1.87-31.65,6.65-5.42-4.92-13.94-6.53-20.98-3.96-7.03,2.57-12.21,9.19-12.75,16.29-5.95-5.28-15.65-6.33-22.73-2.44-7.08,3.88-10.96,12.37-9.1,19.9-3.87-.15-7.52,1.33-10.39,3.74-4.82,4.02-7.45,10.62-5.25,16.4h0Z"/>
      <path class="cls-15" d="m580.32,428.75c5.4-1.46,11.18-1.69,16.67-.59-.7-6.7,3.33-13.61,9.77-16.75,6.44-3.14,14.89-2.32,20.48,1.99,1.36-6.22,5.99-12.66,12.6-15.1,6.61-2.45,14.78-.75,19.6,4.09,4.28-7.05,12.44-11.96,21.13-12.72,3.85-.34,7.77.13,11.43,1.29-1.27-.91-2.64-1.7-4.09-2.37-10.48-4.77-24.25-1.87-31.65,6.65-5.42-4.92-13.94-6.53-20.98-3.96-7.03,2.57-12.21,9.19-12.75,16.29-5.95-5.28-15.65-6.33-22.73-2.44s-10.96,12.37-9.1,19.9c-3.87-.15-7.52,1.33-10.39,3.73h0Z"/>
      <path class="cls-81" d="m656.26,395.24c6.52,8.06,5.56,16.87,5.56,16.87m-39.29-4.54c6.63,8.37,8.35,14.74,8.35,14.74"/>
      <path class="cls-9" d="m513.26,384.8c-15.87-9.41-29.87,2.12-28.94,14.89.35,4.75,4.04,10.51,9.24,11.75-2.56.71-3.64,3.79-2.76,6.12s3.15,3.98,5.49,5.17c5.64,2.87,12.17,3.89,18.52,2.9,3.28-.52,6.93-1.69,8.2-4.83.27-.68.38-1.54-.17-2.06-.22-.21-.53-.33-.83-.42-1.01-.28-2.08-.19-3.05.16.6-1.22,1.4-2.37,1.16-3.79-.79-4.52-5.61-3.98-9.25-4.3,2.38-1.51,4.14-3.7,5.8-5.85,1.57-2.03,2.75-4.36,3.21-6.83,1-5.32-1.8-10.07-6.62-12.93h0Z"/>
      <g>
        <g class="cls-87">
          <path class="cls-1" d="m486.97,395.94c0,3.31,1.15,6.72,3.71,9.03,4.03,3.63,10.34,3.71,15.95,3.37-.15,1.9-3.95,2-4.11,3.9-.04.48.18.94.43,1.36,2.26,3.81,6.86,6.21,11.55,6.53s9.4-1.26,13.16-3.87c.81,2.75,1.39,5.74.3,8.42-1.84,4.53-7.68,6.46-12.9,6.8-11.8.76-23.5-3.8-32.61-10.78-2.39-1.83-4.66-3.86-6.17-6.36-3.73-6.18-2.11-13.99,1.11-20.41,1.3-2.59,4.74-8.15,8.78-6.96,3.66,1.08.8,6.37.8,8.98h0Z"/>
        </g>
        <g class="cls-84">
          <path class="cls-1" d="m496.9,416.15c-.25,1.55.66,3.12,1.97,4.1s3,1.46,4.66,1.75c2.3.4,4.67.48,6.99.24,1.04-.11,2.09-.29,3.01-.75.23-.12.46-.26.59-.47.2-.35.03-.81-.27-1.09s-.71-.44-1.11-.61c-1.43-.59-2.79-1.34-4.04-2.22-1.39-.98-2.65-2.12-4.16-2.95-1.11-.61-3.84-2.04-5.17-1.54-1.19.45-2.3,2.46-2.47,3.53h0Z"/>
        </g>
      </g>
      <path class="cls-63" d="m491.33,396.86c.13-.52-.33-1-.91-1.01-8.25-.05-13.11-11.83-18.15-10.96-5.25.91-6.1,13.61,6.77,15.86,8.38,1.47,11.83-2,12.29-3.9Z"/>
      <g class="cls-99">
        <path class="cls-18" d="m470.01,390.21c.57,1.28,1.6,2.35,2.73,3.27,3.42,2.78,7.97,4.35,12.52,4.33.19.43-.12.94-.57,1.16s-.98.2-1.48.15c-3.41-.4-6.43-2.64-9.87-2.62-.36.94.67,1.82,1.62,2.29,4.8,2.38,10.85,2.48,15.73.26-.92,2.46-3.46,4.2-6.19,4.86s-5.63.37-8.37-.22c-3.16-.69-6.44-1.95-8.13-4.52-1.15-1.75-1.39-3.87-1.45-5.91-.04-1.45.01-2.95.61-4.29.43-.98,1.23-1.98,2.32-2.37.44,1.08-.03,2.42.51,3.63h0Z"/>
      </g>
      <path class="cls-42" d="m504.05,395.42c-2.19,2.6-5.99,3.25-8.48,1.45s-2.73-5.36-.53-7.96c2.2-2.6,5.99-3.25,8.48-1.45s2.73,5.36.53,7.96Z"/>
      <path class="cls-69" d="m501.45,393.55c-1.56,1.85-4.27,2.32-6.04,1.04s-1.94-3.82-.38-5.67c1.56-1.85,4.27-2.32,6.04-1.04s1.94,3.82.38,5.67Z"/>
      <path class="cls-9" d="m499.21,418.61c1.11.84,2.49,1.29,3.87,1.63,1.84.46,3.73.76,5.63.9,1.36.1,2.74.11,4.06-.21s2.57-1.01,3.31-2.07c.35-.51.57-1.17.28-1.71-.39-.71-1.43-.82-2.3-.84.78.45,1.98-.13,2.02-.98.13-2.59-6.85-2.52-8.47-1.92,1.74-.63-.15-1.64-.93-1.82-1.15-.26-2.62-.19-3.78-.01-3.68.56-7.64,4.03-3.69,7.02h0Z"/>
      <g class="cls-97">
        <path class="cls-1" d="m498.16,416.08c.58.69,1.5,1.03,2.39,1.32,3.3,1.07,6.95,1.69,10.29.71.29-.09.59-.19.8-.41s.26-.57.05-.78c-.12-.12-.29-.16-.46-.2l-2.47-.62c.77.1,1.74.12,2.13-.5.28-.45.09-1.04-.29-1.41s-.91-.58-1.42-.78l5.37-.9c.79-.13,1.62-.26,2.39-.03,1.54.46,2.19,2.16,2.29,3.65.06.87-.01,1.78-.43,2.56s-1.16,1.39-1.95,1.86c-2.05,1.21-4.55,1.63-6.98,1.68s-4.86-.24-7.3-.33c-1.96-.07-4.08-.06-5.65-1.14-1.31-.9-1.99-2.53-1.68-4.01.26-1.24,1.33-2.61,2.7-2.96.02.84-.44,1.48.25,2.29h0Z"/>
      </g>
      <path class="cls-69" d="m503.78,378.13c3.89-.5,6.13,1.62,5.38,3.04s-7.51-1.64-5.38-3.04"/>
      <path class="cls-46" d="m225.27,406.99l45.08,16.19-8.12,10.19-20.77-2.32-16.2-24.06Z"/>
      <path class="cls-14" d="m270.35,423.18l23.67-10.84-14.96,16.7-16.83,4.33,8.12-10.19Z"/>
      <path class="cls-6" d="m225.27,406.99l31.06-2.29,37.7,7.65-23.67,10.84-45.08-16.19Z"/>
      <path class="cls-31" d="m270.35,423.18l-28.88,7.87,20.77,2.32,16.83-4.33-8.71-5.86Z"/>
      <path class="cls-46" d="m243.57,414.96l21.51-26.36.24,34.45-21.75-8.09Z"/>
      <path class="cls-14" d="m265.08,388.6l17.62,28.93-12.35,5.65-4.82-1.73-.45-32.85Z"/>
      <path class="cls-31" d="m243.75,413.63l21.71,2.42,7.46-14.58,9.78,16.06-12.35,5.65-26.61-9.56Z"/>
      <path class="cls-12" d="m110.27,174.85l1.7,3.17-7.06,3.24-1.7-3.17,7.06-3.24Z"/>
      <path id="D" class="cls-62" d="m615.23,265.75l3.63,1.13-2.52,6.9-3.63-1.13,2.52-6.9Z"/>
      <path class="cls-58" d="m655.55,117.21l2.83,2.39-5.32,5.38-2.83-2.39,5.32-5.38Z"/>
      <path class="cls-12" d="m564.6,91.36l1.22-3.35,7.47,2.33-1.22,3.35-7.47-2.33Z"/>
      <path class="cls-19" d="m583.55,322.45l3.63,1.13-2.52,6.9-3.63-1.13,2.52-6.9Z"/>
      <path class="cls-46" d="m615.12,148.42l2.69-2.52,5.62,5.11-2.69,2.52-5.62-5.11Z"/>
      <path class="cls-12" d="m383.7,296.98l3.63,1.13-2.52,6.9-3.63-1.13,2.52-6.9Z"/>
      <path class="cls-62" d="m239.6,272.67l1.21,3.36-7.48,2.29-1.21-3.36,7.48-2.29Zm-119.92,108.19l1.21,3.36-7.48,2.3-1.21-3.36,7.48-2.3Z"/>
      <path class="cls-58" d="m131.89,110.55l3.63,1.13-2.52,6.9-3.63-1.13,2.52-6.9Z"/>
      <path class="cls-62" d="m121.37,69.78l.64,7.14-15.91,1.22-.64-7.14,15.91-1.22Z"/>
      <path class="cls-19" d="m657.18,377.17l3.44,6.42-14.3,6.55-3.44-6.42,14.3-6.55Z"/>
      <path class="cls-48" d="m215.35,120.38l-2.77,6.69-14.91-5.28,2.77-6.69,14.91,5.28Z"/>
      <path class="cls-62" d="m645.76,61.34l6.95-3.18,7.09,13.21-6.95,3.18-7.09-13.21Zm-276.95,297.64l5.17,5.34-11.9,9.83-5.17-5.34,11.9-9.83Z"/>
      <path class="cls-48" d="m663.37,231.7l-2.32-2.87,6.39-4.42,2.32,2.87-6.39,4.42Z"/>
    </g>
  </g>
</svg>