<?xml version="1.0" encoding="UTF-8"?>
<svg id="Layer_1" data-name="Layer 1" xmlns="http://www.w3.org/2000/svg" viewBox="0 0 2608.49 3336.3">
  <defs>
    <style>
      .cls-1 {
        fill: #ff8a57;
      }

      .cls-1, .cls-2, .cls-3, .cls-4, .cls-5, .cls-6, .cls-7, .cls-8, .cls-9, .cls-10, .cls-11, .cls-12, .cls-13, .cls-14, .cls-15, .cls-16, .cls-17, .cls-18, .cls-19, .cls-20, .cls-21, .cls-22, .cls-23, .cls-24, .cls-25, .cls-26, .cls-27, .cls-28, .cls-29, .cls-30, .cls-31, .cls-32, .cls-33, .cls-34, .cls-35, .cls-36, .cls-37, .cls-38, .cls-39, .cls-40, .cls-41, .cls-42, .cls-43, .cls-44, .cls-45, .cls-46, .cls-47, .cls-48, .cls-49, .cls-50, .cls-51, .cls-52, .cls-53, .cls-54, .cls-55, .cls-56, .cls-57, .cls-58, .cls-59, .cls-60, .cls-61, .cls-62, .cls-63, .cls-64, .cls-65, .cls-66, .cls-67, .cls-68, .cls-69, .cls-70, .cls-71 {
        stroke-width: 0px;
      }

      .cls-2 {
        fill: #6fb7c7;
      }

      .cls-3 {
        fill: #ca3e1b;
      }

      .cls-4 {
        fill: #63190d;
      }

      .cls-5 {
        fill: #fefffe;
      }

      .cls-6 {
        fill: #133b75;
      }

      .cls-7 {
        fill: #dbccc9;
      }

      .cls-8 {
        fill: #ff5f27;
      }

      .cls-9 {
        fill: #7c230b;
      }

      .cls-10 {
        fill: #773220;
      }

      .cls-11 {
        fill: #712610;
      }

      .cls-12 {
        fill: #73dcf4;
      }

      .cls-13 {
        fill: #ff9d00;
      }

      .cls-14 {
        fill: #ed3a3a;
      }

      .cls-15 {
        fill: #0e3b6a;
      }

      .cls-16 {
        fill: #fc4d00;
      }

      .cls-17 {
        fill: #4da4bd;
      }

      .cls-18 {
        fill: #e1a182;
      }

      .cls-19 {
        fill: #e3e3e3;
      }

      .cls-20 {
        fill: #c83302;
      }

      .cls-21 {
        fill: #f4b18c;
      }

      .cls-22 {
        fill: #01244a;
      }

      .cls-23 {
        fill: #aa4421;
      }

      .cls-24 {
        fill: #ffe259;
      }

      .cls-25 {
        fill: #e0956c;
      }

      .cls-26 {
        fill: #ffc19f;
      }

      .cls-27 {
        fill: #fff200;
      }

      .cls-28 {
        fill: #fcba00;
      }

      .cls-29 {
        fill: #752912;
      }

      .cls-30 {
        fill: #ff9797;
      }

      .cls-31 {
        fill: #ffef90;
      }

      .cls-32 {
        fill: #fff;
      }

      .cls-33 {
        fill: #ffd200;
      }

      .cls-34 {
        fill: #81b1c2;
      }

      .cls-35 {
        fill: #feba9c;
      }

      .cls-36 {
        fill: #288cae;
      }

      .cls-37 {
        fill: #08182f;
      }

      .cls-38 {
        fill: #47a4bf;
      }

      .cls-39 {
        fill: #e04b00;
      }

      .cls-40 {
        fill: #5b1707;
      }

      .cls-41 {
        fill: #a82203;
      }

      .cls-42 {
        fill: #fdd259;
      }

      .cls-43 {
        fill: #6c89a1;
      }

      .cls-44 {
        fill: #c3f1fc;
      }

      .cls-45 {
        fill: #ffe655;
      }

      .cls-46 {
        fill: #c4735b;
      }

      .cls-47 {
        fill: #4199b4;
      }

      .cls-48 {
        fill: #c9f1fb;
      }

      .cls-49 {
        fill: #992020;
      }

      .cls-50 {
        fill: #edba02;
      }

      .cls-51 {
        fill: #a89286;
      }

      .cls-52 {
        fill: #681d0c;
      }

      .cls-53 {
        fill: #701608;
      }

      .cls-54 {
        fill: #f9b200;
      }

      .cls-55 {
        fill: #3ab7dd;
      }

      .cls-56 {
        fill: #db9c7d;
      }

      .cls-57 {
        fill: #501401;
      }

      .cls-58 {
        fill: #e25b00;
      }

      .cls-59 {
        fill: #df4301;
      }

      .cls-60 {
        fill: #6bddf7;
      }

      .cls-61 {
        fill: #dd6b5b;
      }

      .cls-62 {
        fill: #fff8b3;
      }

      .cls-63 {
        fill: #caa3a3;
      }

      .cls-64 {
        fill: #a3b3c9;
      }

      .cls-65 {
        fill: #f9951e;
      }

      .cls-66 {
        fill: #024fa3;
      }

      .cls-67 {
        fill: #a6471e;
      }

      .cls-68 {
        fill: #e79f82;
      }

      .cls-69 {
        fill: #f9feff;
      }

      .cls-70 {
        fill: #c88166;
      }

      .cls-71 {
        fill: #034888;
      }
    </style>
  </defs>
  <path class="cls-29" d="m217.95,808.71c-22.11-58.12-8.84-113.71,32.22-171.84,23.38-32.85,60.01-60.64,88.44-94.76-34.74,108.03-123.19,185.73-120.66,266.59h0Zm1564.83,224.9c-19.59-12.01-78.97-53.06-65.07-161.73,5.05-40.43-22.11-53.7-45.49-65.07-32.85-15.79-60.65-29.06-32.85-101.71,35.37-90.34,12-166.15-61.28-198.37-56.85-25.27-118.14-77.07-169.3-142.14-20.22-38.53-36.64-75.17-48.01-102.34-313.34-48.64-753.03,85.28-909.71,157.94l-87.18-6.32c-6.31,80.23-79.6,154.78-118.77,210.37-46.75,66.33-65.7,135.19-30.33,205.32,13.9,27.8,24.64,53.06,17.06,75.18-6.31,18.31-25.9,35.37-60.65,51.17-34.74,15.16-54.96,34.12-63.17,56.86-10.74,32.85,5.69,66.33,20.21,95.39,10.74,20.85,10.74,52.43,5.69,69.49-17.06,61.28-36.64,84.66-24.01,126.35-5.05-44.85,18.32-70.12,34.12-121.29,6.31-18.95,8.21-49.91-11.37-88.44-13.27-27.17-23.37-49.28-13.9-77.08,6.95-20.21,25.27-36.64,56.85-50.54,37.9-17.69,59.39-36.01,66.97-58.12,3.15-8.21,3.15-17.06,2.53-25.9,20.21,41.7,22.11,76.44-50.54,114.98-133.3,70.12,4.42,159.2-13.27,202.16-30.96,73.92-40.43,88.44-32.22,144.04,9.48,64.44,55.6,99.82,99.82,110.55,0-10.11-46.75-66.96-14.53-166.78,10.74,53.06,68.23,176.89,82.12,179.41,228.69,39.8,907.81,65.7,1147.24-66.33,45.48-25.27,30.96-133.3,42.33-164.25,8.21-22.11,30.96,101.71,42.96,133.3,259.02-177.52,129.51-254.59,108.03-269.12-25.27-17.69-35.38-53.06,22.11-209.11,29.69-79.6-130.77-32.85-77.7-168.04,31.58-80.87,12.64-147.2-58.75-190.79-24.64-15.17-48.01-39.17-69.5-66.97,33.48,23.38,66.33,42.96,97.92,56.86,68.23,29.69,90.97,93.49,58.12,178.15-32.22,82.76,6.31,101.71,37.91,116.87,24.01,12,43.59,20.85,39.17,53.06-16.42,121.29,65.07,159.83,76.44,162.99h0Z"/>
  <path class="cls-19" d="m970.36,3336.3c-336.08,0-609-20.85-609-46.12s272.92-46.74,609-46.74,609,20.85,609,46.74-272.91,46.12-609,46.12Z"/>
  <path class="cls-26" d="m671.54,2190.33c4.42,68.23,22.11,703.13,44.85,974.15,1.9,20.85,161.73,15.79,162.99-5.06l63.81-962.14-271.65-6.95Z"/>
  <g>
    <path class="cls-14" d="m674.07,2943.36c2.53-.63,4.42-3.15,6.95-3.15,12.01,0,21.48,10.1,21.48,22.11l-26.53-.64c-.64-4.42-1.26-10.74-1.9-18.32h0Zm179.41-3.15c12.01-.64,21.48,9.48,21.48,21.48h-42.96c0-12,9.47-21.48,21.47-21.48h0Z"/>
    <path class="cls-14" d="m896.44,2939.57c6.31,0,11.37,2.53,15.16,6.32,0,6.95-.64,13.26-.64,15.79h-36.01c0-12,10.11-22.11,21.48-22.11Zm-85.92.64c12,0,21.48,9.48,21.48,21.48h-42.96c0-12,9.48-21.48,21.48-21.48h0Z"/>
    <path class="cls-14" d="m767.57,2940.2c12,0,21.47,9.48,21.47,21.48l-42.96.64c0-12.01,9.47-22.11,21.48-22.11h0Z"/>
    <path class="cls-14" d="m723.98,2940.2c12,0,22.11,10.1,22.11,22.11h-43.59c0-12.01,10.11-22.11,21.48-22.11Z"/>
  </g>
  <g>
    <path class="cls-62" d="m698.08,3188.48c.72,6.31,203.42-1.9,204.68-9.48,6.95-63.17,6.95-193.94,8.21-217.32h-235l22.11,226.8h0Z"/>
    <path class="cls-62" d="m730.93,3057.07c3.16-15.16,142.77,12.01,168.04,7.58,0,34.74,19.58,90.97,17.69,137.72-1.26,32.85-28.42,56.23-58.75,61.28-115.6,18.96-421.37,77.71-433.37-6.95-10.11-69.49,172.47-120.03,306.4-199.63Z"/>
  </g>
  <path class="cls-14" d="m917.29,3119.62c-1.9-2.53-7.58-2.53-12,1.26-28.43,15.79-73.28,32.22-110.56,42.96-12.64,3.79-25.27,6.95-37.27,8.85-11.37-36.64-41.69-80.23-70.12-98.55-6.32-3.79-13.9-1.89-17.06,4.42-3.79,6.31-1.9,14.53,3.79,18.32,22.12,13.9,46.75,49.28,58.12,78.33-75.81,5.69-137.09-12.64-161.09-39.79-89.08,42.32-184.47,75.8-183.84,123.82.63,73.28,531.29,13.27,531.29,13.27l-1.27-152.88h0Z"/>
  <path class="cls-49" d="m919.19,3245.33c0,9.48-.64,18.96-.64,27.17,0,0-457.38,75.17-527.5,8.85-2.53-2.53-5.05-13.9-3.79-17.69,126.98,30.33,416.32-2.52,531.93-18.32h0Z"/>
  <path class="cls-14" d="m910.34,2995.16c-96.03,5.06-136.46,3.79-231.21,1.26,0-3.15-.64-6.95-.64-10.1,95.39,3.15,135.82,3.79,231.85-.64v9.48Z"/>
  <path class="cls-26" d="m1255.91,2190.33c-4.42,68.23-22.74,703.13-44.85,974.15-1.9,20.85-161.73,15.79-162.99-5.06l-63.81-962.14,271.65-6.95Z"/>
  <path class="cls-16" d="m457.39,2166.95c54.33,29.06,99.18,49.91,155.41,66.33,106.13,24.64,739.13-32.85,743.56-83.39-8.21-725.87,20.85-848.43-113.08-901.5-72.65-3.8-434.01,17.69-657.01,28.42-138.35,6.32-154.78,92.87-151.62,301.97,0,5.06,36.01,4.42,41.69,5.06,4.43,164.25-15.16,467.49-18.95,583.09h0Z"/>
  <path class="cls-20" d="m1355.72,2152.42c-1.26-4.42-1.9-8.85-3.16-13.27l-9.47-44.85c4.42-1.26,8.84-3.16,12.64-4.42.63,10.74.63,21.48.63,32.22v27.8c0,.63,0,1.89-.63,2.52h0Zm-741.03-32.85c2.53-63.17,5.05-201.52,5.05-201.52l1.9-305.13c0-72.02-1.9-132.66-4.42-178.15-.64-3.79-.64-8.85-1.26-14.53l75.17-2.53-71.39,669.65c1.9.64,4.42,1.26,6.31,1.9-3.15,8.84-11.36,30.32-11.36,30.32Zm740.4-157.93l-57.49-562.88,43.59-1.26c15.16,100.44,12.63,269.12,13.9,564.14Z"/>
  <path class="cls-40" d="m478.23,1430.97c1.26-19.58,7.58-109.93,67.6-113.08,65.06-3.15,69.49,85.92,71.39,116.87,10.11,152.88,2.53,487.07-10.11,788.41-48.64-16.42-97.92-39.17-146.57-68.23l17.69-723.97h0Z"/>
  <path class="cls-8" d="m478.23,1421.49c13.26.64,37.91.64,63.17,0,34.12,0,68.86-.63,74.55,1.27,10.1,146.56,6.95,519.92-5.69,810.52-49.28-16.42-106.77-34.74-155.41-63.17l23.38-748.61Z"/>
  <path class="cls-63" d="m454.85,2170.11l6.32-281.75h.63l-6.95,281.75h0Z"/>
  <path class="cls-41" d="m614.69,2120.2l5.05-202.16-5.05,202.16Z"/>
  <path class="cls-3" d="m576.15,2221.91c-40.43-13.9-83.39-29.69-121.3-51.8l6.95-281.75c33.49,11.37,118.77,22.74,157.94,29.69l-5.05,202.16-38.54,101.71h0Z"/>
  <path class="cls-26" d="m1848.48,970.43c14-10.6,99.82,116.87,85.91,128.24-193.94,166.79-436.53,371.47-518.66,411.9l-119.4-157.3c137.72-94.77,354.04-232.97,552.14-382.83h0Z"/>
  <path class="cls-12" d="m1628,1455.61c-34.74,30.33-285.55,200.26-345.56,228.69-67.6-123.19-114.35-273.54-108.03-286.81,123.19-54.33,225.53-124.46,311.45-169.94,47.38,77.07,111.82,154.14,142.14,228.06Z"/>
  <path class="cls-26" d="m1943.24,868.72c-78.33,44.85-103.6,72.66-123.19,118.14-25.9,61.28,5.05,126.98,54.96,159.83,27.16,18.32,81.5,30.96,187.62,20.85-13.9-54.33,21.48-193.94-12.64-277.97-30.96,19.58-67.6,0-92.87-13.26-5.05-3.16-9.47-5.69-13.9-7.58Z"/>
  <path class="cls-68" d="m1941.35,1109.42c-34.09-15.84-56.86-45.49-53.7-85.92,39.17-10.74,63.17-36.64,72.65-61.91,3.79,5.05,13.27,11.37,17.69,16.42,2.53,2.53,1.9,6.95,4.42,8.85-10.74,8.21,17.06,21.48,18.96,29.69,1.26,5.05-29.69,5.69-23.38,9.47l-6.95,92.87c-10.74-1.9-20.21-5.07-29.69-9.47h0Zm99.18,2.53l5.69-75.17c6.95,0,13.26-1.27,20.21-1.9h.64c-10.11,31.58-22.74,61.91-26.53,77.07h0Zm35.38-152.25v-.63c1.26,0,3.15-.64,4.42-1.26v1.89h-4.42Z"/>
  <path class="cls-7" d="m1968.51,881.99c-1.89-1.26-4.42-1.9-6.31-3.16,6.31-1.26,12.64-.64,18.95.64v8.21c-4.42-1.9-8.84-3.8-12.64-5.69Z"/>
  <path class="cls-56" d="m1957.77,972.32c-17.69-29.06-24.01-67.59-8.85-81.49,4.42-3.79,10.11-5.69,15.79-6.95,1.9,1.26,4.42,1.9,6.31,3.16,3.79,1.9,8.22,3.79,12.64,5.69l-1.89,26.53c-21.48,13.27-30.96,28.43-25.9,41.7,1.26,2.53,4.42,3.15,6.32,5.05,0,1.26-4.42,5.05-4.42,6.31h0Z"/>
  <path class="cls-70" d="m1985.56,990.65l-6.95-6.95c-3.79-4.42-7.58-10.11-10.74-15.16,0-1.26.63-3.16,1.26-4.42,1.89,1.9,4.42,3.8,6.95,5.06,3.16,1.89,6.95,3.15,11.37,3.79l-.64,17.06q-.63.63-1.26.63Zm85.28-27.16c.64,0,1.26-.64,1.9-.64l-.64.64h-1.26Z"/>
  <path class="cls-56" d="m1963.46,967.91c-3.16-1.27-5.06-2.53-6.95-4.42-2.53-2.53-3.79-4.42-5.06-6.95-5.05-12.64,6.32-29.06,27.8-42.33,10.1-6.32,22.74-12.01,36.64-16.43,1.26-.63,2.53-.63,3.79-1.26,4.42,3.8,9.48,7.58,13.9,12.01,18.95,18.95,27.17,37.91,25.9,53.7h-1.26c-4.42,1.89-8.84,3.79-13.26,5.05-15.79,4.42-31.59,6.95-45.49,7.58-8.85,0-17.69-.63-24.64-2.53-4.42-1.26-8.21-2.52-11.37-4.42h0Z"/>
  <g>
    <path class="cls-33" d="m2559.18,207.29c-26.53,286.81-253.32,502.24-516.13,488.34-262.17-13.9-464.33-259.02-459.91-547.72l976.03,59.38h0Zm49.28-24.64c.68-13.26-9.47-20.85-22.74-21.48l-1024.05-61.91c-13.27-.63-24.64,12.64-25.27,25.9-17.69,324.72,208.47,602.05,504.13,617.84,295.65,15.8,551.35-235.58,567.93-560.36h0Z"/>
    <path class="cls-33" d="m2082.22,1311.57c4.81,32.26-153.51,23.37-144.03-7.58,41.06-128.87,66.33-638.06,66.33-638.06l80.23,5.05s-24.52,492.92-2.53,640.59h0Z"/>
    <path class="cls-33" d="m2100.54,1276.82l-176.89-10.74,3.16-49.28,176.89,10.11-3.16,49.91Zm12.01-491.49c-2.2,40.45-37.28,71.39-77.71,69.49-41.06-1.89-72.02-36.64-69.5-77.71,1.9-40.43,36.64-72.01,77.08-69.49,41.06,1.9,72.35,36.66,70.12,77.71Z"/>
    <path class="cls-33" d="m2120.12,785.33c-2.54,45.48-41.06,79.6-85.92,77.07-44.85-1.9-79.6-40.43-77.07-85.92,2.53-44.85,41.06-78.97,85.92-77.07,44.85,2.53,79.58,41.06,77.07,85.92Zm-15.16,111.18c-.63,12.64-33.48,21.48-73.28,19.58-40.43-2.53-72.01-14.53-71.39-27.16.64-12.64,33.48-21.48,73.91-18.95,39.8,1.9,71.39,13.9,70.76,26.53h0Zm64.44,403.69c-1.58,29.67-73.28,49.91-161.09,44.85-87.18-4.42-157.3-32.22-155.41-61.91,1.89-29.69,73.91-50.54,161.09-45.49,87.81,4.42,156.99,32.83,155.41,62.55Z"/>
  </g>
  <path class="cls-23" d="m1786.61,1515.13l14.56-237.53,422.62,25.91-14.56,237.53-422.62-25.91Z"/>
  <path class="cls-9" d="m1731.48,1553.01l2.5-41.06,528.74,32.21-2.5,41.06-528.74-32.21Z"/>
  <path class="cls-33" d="m2160.55,1494.78l-319.66-19.58,8.85-151.62,319.66,18.96-8.85,152.25Zm-122.55-696.18c201.52,10.72,383.47-311.45,405.58-722.71l-731.56-44.22c-22.11,411.26,123.82,756.17,325.98,766.93h0Z"/>
  <path class="cls-28" d="m2396.19,72.73l-684.17-41.06c-1.26,21.48-1.9,36.64-1.9,57.49l636.8,55.59c15.79,1.26,24.01,16.42,22.11,32.22-51.8,371.46-253.96,516.77-431.48,586.25,31.59,20.85,65.07,33.48,100.45,35.38,201.52,10.74,383.47-311.45,405.58-722.71l-47.39-3.16h0Z"/>
  <path class="cls-45" d="m2445.47,119.48l-739.77-44.85c-15.16-.64-27.16-11.37-26.53-26.53l1.26-19.58c1.27-15.16,13.9-29.69,29.06-28.43l739.77,44.23c15.16,1.26,27.16,11.37,26.53,26.53l-1.26,20.21c-1.26,15.16-13.9,29.06-29.06,28.43h0Z"/>
  <path class="cls-24" d="m1811.2,545.9c-29.69-115.61-36.01-285.54-18.95-449.17l-49.28-4.42c0,166.78,24.64,338.61,68.23,453.59h0Z"/>
  <path class="cls-42" d="m1792.25,96.73l1.89-17.06-51.17-3.16v15.8l49.28,4.42h0Z"/>
  <path class="cls-31" d="m1794.15,79.67l10.11-72.01-58.75-3.8c-1.26,24.01-1.9,48.65-2.53,72.65l51.17,3.16h0Z"/>
  <path class="cls-54" d="m2082.22,236.98l22.74,53.7c1.9,4.42,6.31,8.21,11.37,8.85l56.85,11.37c12.64,2.53,17.06,18.95,6.95,27.16l-43.59,38.54c-3.79,3.16-5.68,8.21-5.05,13.26l6.95,58.12c1.26,12.64-12.64,21.48-24.01,15.16l-49.91-29.69c-4.42-2.53-9.47-3.16-14.53-.63l-52.43,24.01c-12.01,5.69-24.64-5.06-22.11-17.69l12.64-56.85c1.26-5.06,0-10.11-3.79-13.9l-39.17-42.96c-8.85-9.47-2.53-24.64,10.11-25.9l58.12-5.69c5.06,0,9.48-3.16,12.01-7.58l28.42-50.54c6.32-11.37,23.38-10.74,28.43,1.26h0Z"/>
  <path class="cls-27" d="m2073.38,228.77l22.74,53.07c1.9,5.06,6.32,8.21,11.37,9.48l56.86,11.37c12.64,2.53,17.06,18.32,6.95,27.16l-43.59,37.9c-3.79,3.79-5.69,8.85-5.06,13.9l6.95,57.49c1.27,13.27-12.64,22.11-24.01,15.16l-49.91-29.69c-4.42-2.53-9.48-2.53-14.53-.64l-52.43,24.01c-12.01,5.69-24.64-5.05-22.11-17.69l12.64-56.22c1.26-5.06,0-10.74-3.16-14.53l-39.8-42.33c-8.85-9.47-2.53-25.27,10.11-26.53l58.12-5.05c5.05-.64,9.47-3.79,12-8.22l28.43-50.54c6.31-11.37,23.37-10.1,28.43,1.9Z"/>
  <path class="cls-50" d="m2043.69,1227.55c6.96-.56,13.26-1.26,19.58-2.53l-73.92-4.42c17.69,5.69,36.66,8.38,54.33,6.95Z"/>
  <g>
    <path class="cls-26" d="m2045.58,959.69c-45.42,7.95-78.33,30.33-73.91,49.91,5.05,20.21,45.48,30.32,90.97,22.11,44.85-7.58,78.33-30.32,73.28-50.54-4.42-19.58-45.42-29.33-90.34-21.48Z"/>
    <path class="cls-26" d="m2027.26,892.09c-43.59,13.27-72.65,39.8-64.44,58.76,8.21,19.58,49.91,24.01,93.5,10.74,43.59-13.26,72.01-39.8,64.44-58.75-8.21-18.95-49.91-24.01-93.5-10.74Zm30.33,133.3c-46.12,2.53-82.76,22.11-80.87,43.59,1.9,21.47,41.06,37.27,87.18,34.11,46.12-2.53,82.76-22.11,80.87-43.59-1.9-21.48-41.06-36.64-87.18-34.11Z"/>
    <path class="cls-26" d="m2055.06,1089.83c-42.33-6.95-79.6,3.79-84.03,23.37-4.42,20.22,26.54,42.33,68.86,49.28,42.33,6.95,80.23-3.79,84.02-24.01,4.42-19.58-26.53-41.69-68.85-48.64Z"/>
  </g>
  <path class="cls-56" d="m1993.78,990.65c-3.16-1.89-6.31-3.79-9.48-6.31l.64-.64c6.95-5.05,15.79-10.11,25.9-14.53,13.9,0,29.69-2.53,45.49-7.58,4.42-1.26,8.84-3.16,13.26-4.42h1.26c-.63,8.21-4.42,15.8-10.74,21.48-15.16,13.26-42.33,24.01-66.33,12h0Z"/>
  <path class="cls-26" d="m2060.11,978.64c-17.69,15.8-57.49,3.16-88.44-27.17-30.96-30.96-41.69-68.23-24.01-84.02s57.49-3.79,88.44,27.17c30.96,30.32,41.69,68.23,24.01,84.02Z"/>
  <path class="cls-8" d="m619.74,1921.2l-9.47,312.08c-10.74.64-19.58,5.06-29.69,3.16-46.12-9.47-82.76-34.12-125.72-58.12-29.69-17.06-10.74-220.48-3.79-281.12.64-8.22,7.58-12.64,10.74-12.64-5.68,53.69,105.5,58.12,157.94,36.64h0Z"/>
  <path class="cls-1" d="m608.37,1930.05c4.44-1.21,7.58-2.53,11.37-3.79v-7.58c-39.8,15.79-115.61,15.79-144.67-6.31-8.85-6.95-14.53-17.69-13.27-27.79,0,0-4.42,0-6.95,3.15,3.16,15.79,5.06,21.48,16.43,30.33,28.43,21.48,93.63,23.87,137.08,12Z"/>
  <path class="cls-26" d="m373.36,2058.29c-6.87,8.28-113.71-79.6-107.4-88.44l281.13-439.06c71.39,71.39,96.02,112.44,87.81,186.99-6.31,54.33-154.07,210.83-261.54,340.51h0Z"/>
  <path class="cls-12" d="m641.85,2167.58c466.86,124.45,515.5,15.79,681.65-9.47-6.95-29.69-51.17-372.73-24.64-794.1-159.83-22.74-401.15-18.95-578.04-8.21-32.85,128.24-68.22,662.7-78.97,811.79h0Z"/>
  <path class="cls-6" d="m1431.53,2504.93c-269.13,95.39-703.76,105.5-944.45-39.17l157.93-424.53c166.78,22.74,483.28,19.58,683.54-17.06l102.98,480.76Z"/>
  <path class="cls-57" d="m1352.56,2139.15l-9.47-44.85,9.47,44.85Z"/>
  <path class="cls-37" d="m1092.92,2178.95c-137.09,0-300.08-17.69-473.81-70.76l6.95-18.95c138.99,37.91,269.76,51.8,383.47,51.8,146.57,0,264.07-22.74,333.56-46.75l12.64,59.39c-66.33,14.53-156.68,25.27-262.81,25.27h0Z"/>
  <path class="cls-66" d="m1014.58,1832.13c-32.22.31-63.81-1.26-94.76-3.79l38.54-288.07c1.89-17.69,68.86-18.32,70.12,0l45.48,288.7c-19.58,1.26-39.17,2.96-59.38,3.16Z"/>
  <path class="cls-44" d="m946.98,1625.55l2.53-18.32,99.18,63.17,3.8,21.48c-35.38-21.48-72.02-44.85-105.5-66.33h0Z"/>
  <path class="cls-6" d="m696.81,1358.95l112.45-9.47s121.3,334.82,210.37,337.35c89.08-3.79,160.46-339.24,160.46-339.24l112.45,7.58c4.42,32.85,55.59,546.45,75.17,729.66-108.03,45.49-406.21,98.55-747.98,2.53,24.64-195.84,73.28-696.81,77.07-728.4h0Z"/>
  <path class="cls-39" d="m640.59,1942.68c130.77-39.8,170.57-172.46,156.68-324.72l-32.85-3.15c3.16,211-55.59,262.81-144.67,295.65l-.64,34.74c11.37,0,15.17-1.26,21.48-2.52h0Z"/>
  <g>
    <path class="cls-25" d="m116.87,2200.43c30.96-30.96,72.02-82.76,162.99-168.68,10.11-9.48,66.96,15.79,54.96,24.01-68.86,48.64-166.78,180.68-217.95,144.67Z"/>
    <path class="cls-25" d="m54.96,2178.95c30.96-30.96,90.34-120.66,196.47-176.26,13.27-6.95,65.07,22.74,53.07,31.59-68.86,48.01-206.58,173.1-249.54,144.67Z"/>
  </g>
  <path class="cls-26" d="m0,2124.63c30.96-30.96,225.54-174.36,332.3-230.59,13.26-6.95,72.65,79.6,64.44,101.71,9.47,54.96-66.33,108.03-97.29,219.22-5.69,19.58-28.43-1.26-32.22-10.11-9.47-21.48-4.42-29.69-10.11-88.44-3.15-36.01-42.33-46.12-66.33-41.69-97.29,34.74-157.3,75.81-190.79,49.91Z"/>
  <g>
    <path class="cls-14" d="m1253.38,2943.36c-2.53-.63-4.42-3.15-6.95-3.15-12.01,0-22.12,10.1-22.12,22.11l27.17-.64c0-4.42,1.26-10.74,1.9-18.32h0Zm-179.42-3.15c-12-.64-22.11,9.48-22.11,21.48h43.59c0-12-10.11-21.48-21.48-21.48h0Z"/>
    <path class="cls-14" d="m1030.37,2939.57c-5.68,0-10.74,2.53-15.16,6.32.64,6.95,1.26,13.26,1.26,15.79h35.38c0-12-9.47-22.11-21.48-22.11Zm86.55.64c-12.01,0-21.48,9.48-21.48,21.48h42.96c0-12-9.48-21.48-21.48-21.48h0Z"/>
    <path class="cls-14" d="m1159.88,2940.2c-12,0-21.47,9.48-21.47,21.48l42.96.64c0-12.01-9.47-22.11-21.48-22.11Z"/>
    <path class="cls-14" d="m1202.84,2940.2c-12.01,0-21.48,10.1-21.48,22.11h42.96c0-12.01-9.48-22.11-21.48-22.11Z"/>
  </g>
  <g>
    <path class="cls-62" d="m1229.37,3188.48c-1.26,6.31-204.05-1.9-204.68-9.48-6.95-63.17-7.58-193.94-8.22-217.32h235.01l-22.11,226.8h0Z"/>
    <path class="cls-62" d="m1196.52,3057.07c-3.16-15.16-142.77,12.01-168.04,7.58-.64,34.74-19.58,90.97-17.69,137.72.64,32.85,28.43,56.23,58.12,61.28,115.61,18.96,421.37,77.71,434.01-6.95,10.11-69.49-173.1-120.03-306.4-199.63Z"/>
  </g>
  <path class="cls-14" d="m1010.16,3119.62c1.89-2.53,7.58-2.53,12,1.26,28.43,15.79,73.28,32.22,110.56,42.96,12.63,3.79,24.63,6.95,37.27,8.85,11.37-36.64,41.69-80.23,70.12-98.55,5.69-3.79,13.27-1.89,17.06,4.42s1.9,14.53-4.42,18.32c-21.48,13.9-46.12,49.28-57.49,78.33,75.81,5.69,137.09-12.64,161.09-39.79,88.44,42.32,184.47,75.8,183.84,123.82-.63,73.28-531.93,13.27-531.93,13.27l1.9-152.88h0Z"/>
  <path class="cls-49" d="m1008.26,3245.33v27.17s458.01,75.17,528.14,8.85c2.53-2.53,5.05-13.9,3.79-17.69-126.98,30.33-416.31-2.52-531.93-18.32h0Z"/>
  <path class="cls-14" d="m1017.11,2995.16c95.39,5.06,136.46,3.79,230.59,1.26.63-3.15.63-6.95,1.26-10.1-95.39,3.15-135.82,3.79-231.85-.64v9.48h0Z"/>
  <path class="cls-29" d="m349.99,517.47c-18.87,407.48,303.24,654.48,643.11,631.74,340.51-22.11,569.2-319.66,509.18-711.34-33.48-216.69-241.95-387.89-566.67-364.51-345.56,24.64-571.03,128.88-585.62,444.11h0Z"/>
  <path class="cls-12" d="m650.7,1378.54c-47.82,34.38-92.87,113.71-212.9,281.13,65.06,61.91,259.01,133.3,266.59,133.3,67.6-110.55,12-434.01,17.06-437.17-23.38,5.06-56.8,12.71-70.76,22.74Z"/>
  <path class="cls-55" d="m820.64,1288.19h348.72v114.98h-348.72v-114.98Z"/>
  <path class="cls-26" d="m857.91,1159.96l6.95,222.37c1.27,48.01,63.17,84.66,138.35,82.76,74.55-2.53,134.56-42.96,132.66-90.97l-6.95-222.37-271.02,8.21h0Z"/>
  <path class="cls-60" d="m931.82,1478.35l131.4-8.85s-12.64-54.96-53.06-58.75c-15.8,3.16-34.74,3.79-56.86,1.9-6.95,5.69-21.47,65.7-21.47,65.7h0Z"/>
  <path class="cls-22" d="m1037.32,1597.12l-82.13-29.06,1.26-13.27c.64.64,1.9.64,2.53.64,7.58,1.9,20.85,2.53,33.48,2.53,15.17,0,30.33-.63,38.54-2.53l6.32,41.69h0Z"/>
  <path class="cls-66" d="m958.98,1555.42c17.69,4.42,58.75,3.16,72.66,0,5.05,0,9.47-3.79,10.74-8.85l30.96-106.77c1.9-6.95-3.79-13.26-11.37-14.53-11.37-1.9-23.37-5.69-70.12-5.69-36.01,0-48.64,3.16-66.33,6.31-7.58,1.26-13.26,7.58-10.74,15.16l32.85,106.14c1.27,5.05,6.32,7.58,11.37,8.21h0Z"/>
  <path class="cls-44" d="m972.88,1420.23c24.64,17.06,55.6,37.28,89.08,58.75l-4.42,16.43c-43.59-27.17-83.39-53.7-109.93-73.28,6.96-.64,25.27-1.9,25.27-1.9h0Zm-33.48,99.81l-8.21-24.64c27.17,18.32,60.01,39.17,93.5,60.65-6.95,1.26-16.43,1.89-27.17,1.89l-58.12-37.9h0Z"/>
  <path class="cls-35" d="m765.04,1353.27c3.15,0,6.31-.64,8.84-.64-2.53,0-5.05.64-8.21.64h-.63,0Z"/>
  <path class="cls-48" d="m757.46,1353.9c2.53,0,5.05-.64,7.58-.64h.63c-2.53,0-5.69.64-8.21.64Z"/>
  <path class="cls-35" d="m1232.53,1351.37c-6.31-.63-12-1.26-17.05-1.26,5.05,0,10.74.63,17.05,1.26Z"/>
  <path class="cls-64" d="m1019.63,1735.47c-97.92-2.53-221.74-264.07-262.17-381.57,2.53,0,5.69-.64,8.21-.64,3.16,0,5.69-.64,8.21-.64,10.74,29.69,24.01,63.18,39.8,98.55,5.69,19.58,13.9,37.9,25.27,52.44,55.59,109.93,126.98,214.16,180.68,215.42,79.6-3.15,149.09-229.95,195.84-368.94,5.05,0,10.74.64,17.05,1.26-39.17,117.51-114.34,380.31-212.9,384.1h0Z"/>
  <path class="cls-67" d="m809.9,1351.37c-.64-1.26-.64-1.89-.64-1.89-1.26,0-3.79.63-6.31.63,3.15-6.95,15.16-36.64,16.42-42.96,0,3.16.63,5.69,1.26,8.21v35.38c-3.79,0-6.95,0-10.74.63h0Z"/>
  <path class="cls-17" d="m886.97,1528.89c-22.74-44.85-42.96-91.6-56.86-125.71h39.17c7.58,18.31,24.64,34.11,47.38,44.85l16.43,52.44c-12.01,16.43-26.53,28.43-46.12,28.43h0Zm-66.33-150.35l-10.74-27.17c3.79-.63,6.95-.63,10.74-.63v27.8Z"/>
  <path class="cls-36" d="m869.28,1403.18h-39.17c-3.79-8.85-6.95-17.06-9.47-24.64v-63.17c4.42,21.48,19.58,39.8,43.59,55.59l.63,11.37c0,7.58,1.27,14.53,4.42,20.85Z"/>
  <path class="cls-51" d="m916.66,1448.02c-22.74-10.74-39.8-26.53-47.38-44.85-3.15-6.32-4.42-13.27-4.42-20.85l-.63-11.37c25.9,16.43,61.91,29.69,106.77,37.91,0,1.27-.64,3.16-1.26,5.06-5.06-.64-10.74-.64-16.43-1.26-1.26,1.26-3.15,5.05-5.05,9.47l-22.74,3.79c-7.58,1.26-13.26,7.58-10.74,15.16l1.89,6.95h0Z"/>
  <path class="cls-38" d="m948.25,1422.13c1.9-4.42,3.79-8.21,5.05-9.47,5.69.63,11.37.63,16.43,1.26-.64,1.9-1.26,4.42-2.53,6.31l-18.95,1.9h0Z"/>
  <path class="cls-71" d="m933.09,1500.46l-18.32-59.39c-2.53-7.58,3.16-13.9,10.74-15.16l22.74-3.79,18.95-1.9-19.59,1.9c4.42,3.79,10.11,7.58,15.8,11.37-6.95,21.48-15.8,45.48-28.43,63.8l-3.79-1.89,1.9,5.05h0Z"/>
  <path class="cls-34" d="m963.41,1433.5c-5.69-3.79-11.37-7.58-15.8-11.37l19.59-1.9-3.8,13.27h0Zm-30.32,66.96l-1.9-5.05,3.79,1.89c-.63,1.27-1.26,2.53-1.89,3.16Z"/>
  <path class="cls-15" d="m886.33,1528.89h-5.05c-17.06-1.9-31.59-11.37-42.33-25.27-8.85-17.69-17.06-35.38-25.27-52.44-11.37-39.17-13.27-82.12-11.37-99.82,0,0,.64,0,.64-1.26,2.53,0,5.05-.63,6.31-.63,0,0,0,.63.64,1.89l10.74,27.17c2.53,7.58,5.69,15.8,9.47,24.64,13.9,34.11,34.12,80.86,56.86,125.71h-.63Z"/>
  <path class="cls-43" d="m838.96,1503.62c-11.37-14.53-19.58-32.85-25.27-52.44l25.27,52.44Z"/>
  <path class="cls-12" d="m883.81,1509.31c-67.58-6.42-81.49-133.3-80.23-159.2l17.06-61.91c3.79,45.49,64.44,104.24,154.14,120.03-20.85,2.53-38.53,106.05-90.97,101.08Z"/>
  <path class="cls-17" d="m1104.92,1527.63c-20.21,0-36.01-12.64-48.01-30.33l.63-1.89,1.9-8.21,2.53-6.95c10.74,15.79,24.64,27.8,41.69,27.8h4.42c12.64-1.26,24.01-7.58,32.85-16.42-2.53,10.1-5.69,19.58-9.48,29.06-6.31,3.79-13.26,6.31-21.47,6.95h-5.06Z"/>
  <path class="cls-51" d="m1024.69,1414.54c-1.27-.63-2.53-.63-3.8-1.26-.63-1.26-.63-2.53-1.26-3.15,1.9,1.26,3.16,2.53,5.06,4.42Z"/>
  <path class="cls-38" d="m1028.48,1420.86c-1.9,0-3.16-.64-5.06-.64-1.26-2.53-1.89-4.42-2.53-6.95,1.26.64,2.53.64,3.8,1.26l3.79,6.32Z"/>
  <path class="cls-71" d="m1056.91,1497.3c-1.26-1.26-1.9-2.53-2.53-3.79.64.64,1.9,1.26,3.16,1.9l-.63,1.89Zm2.53-10.1l2.53-6.95-2.53,6.95Zm.63-9.48l-20.85-13.26c-6.31-15.16-12-30.96-15.8-44.22,1.9,0,3.16.64,5.06.64,8.85,13.9,18.95,37.9,31.58,56.85h0Z"/>
  <path class="cls-34" d="m1057.54,1495.41c-1.26-.64-2.53-1.26-3.16-1.9-5.69-8.85-10.74-18.95-15.16-29.06l20.85,13.26c.64.63,1.26,1.9,1.9,2.53l-2.53,6.95-1.9,8.21Z"/>
  <path class="cls-67" d="m1186.41,1348.22v-.64l-.63-.64q.63.64.63,1.27Z"/>
  <path class="cls-15" d="m1131.45,1520.68c3.8-9.47,6.95-18.95,9.48-29.06,38.53-36.01,46.12-121.93,45.48-143.41.64.63.64,1.26.64,1.26,5.05,30.95-3.79,141.51-55.6,171.2h0Z"/>
  <path class="cls-12" d="m1108.08,1508.04c67.58-7.14,79.6-133.93,78.34-160.46l-17.05-59.39c-3.79,45.49-63.81,102.98-154.15,120.03,21.48,2.53,40.42,105.36,92.87,99.82h0Z"/>
  <path class="cls-11" d="m852.85,1262.93c-20.22-31.58-30.33-68.23-25.9-104.87,1.9-13.26,5.69-25.27,10.11-37.27,67.6,6.95,152.25,18.32,236.27,32.85l-215.43,6.32,3.16,102.97h-8.21s0,0,0,0Zm411.9-4.42c-6.32-3.79-13.9-6.95-21.48-10.1-5.69,0-13.9-.64-23.38-.64-21.48,0-51.8,1.26-87.81,2.53l-2.53-86.55c52.43,10.11,102.97,20.85,146.56,32.85.64,5.69,1.9,11.37,1.26,17.06-1.89,15.79-6.31,30.95-12.63,44.85h0Z"/>
  <path class="cls-59" d="m1184.52,1341.27c-4.42-13.9-13.9-48.01-15.16-53.07h-36.01l-1.26-37.91,87.81-2.53c9.48,0,17.69.64,23.38.64,7.58,3.15,15.16,6.31,21.48,10.1-15.79,34.75-44.23,63.18-80.23,82.76h0Zm-323.45-65.71c-2.53-4.42-5.69-8.21-8.21-12.64h8.21v12.64Z"/>
  <path class="cls-47" d="m1135.24,1349.48l-1.9-61.28h36.01c-1.9,19.58-13.9,41.7-34.12,61.28h0Z"/>
  <path class="cls-18" d="m1065.75,1370.32c-11.37,0-22.74-.64-34.74-1.9-72.02-9.47-133.3-44.85-169.94-92.87l-3.16-115.6,215.43-6.32,56.22,10.11,5.69,185.73c-5.69,5.69-12.01,10.74-19.58,16.42-15.8,2.53-32.85,4.42-49.91,4.42Z"/>
  <path class="cls-2" d="m1115.66,1365.9c7.58-5.69,13.9-10.74,19.58-16.42,20.21-19.58,32.22-41.7,34.12-61.28,1.26,5.06,10.74,39.17,15.16,53.07-20.85,11.37-43.59,19.58-68.86,24.64h0Z"/>
  <path class="cls-58" d="m1260.96,1622.39l78.33-1.89,8.85-8.21s-27.79-250.8-55.59-262.81c-17.06-6.95-59.39-7.58-77.07-3.8-1.26,1.26-.64,4.42-.64,8.22,10.74,5.05,18.32,18.95,22.11,29.69,19.58,65.07,24.01,238.8,24.01,238.8h0Z"/>
  <path class="cls-13" d="m1269.17,1615.44l78.97-3.15s-12-181.95-32.22-241.33c-4.42-12.64-16.42-23.37-22.11-26.53-8.85-5.05-82.13-8.21-78.33,1.26,13.26,5.06,25.27,16.43,31.58,44.85,18.32,80.23,22.11,224.9,22.11,224.9h0Z"/>
  <path class="cls-58" d="m732.19,1631.87l78.33-1.9,8.85-8.21s-26.53-250.81-54.33-262.81c-17.06-6.95-60.02-7.58-77.08-3.79-1.26,1.26-1.26,4.42-.63,8.21,10.74,4.42,18.32,18.95,21.48,29.69,19.58,64.44,23.37,238.8,23.37,238.8h0Z"/>
  <path class="cls-13" d="m740.4,1624.28l78.97-2.53s-12.01-190.79-32.22-249.54c-4.42-13.27-15.8-24.01-21.48-27.17-8.85-5.06-82.12.63-77.71,10.11,12.64,4.42,25.27,15.79,30.96,44.22,18.32,80.87,21.48,224.9,21.48,224.9Z"/>
  <path class="cls-21" d="m1537.03,893.36c-20.16,111.83-117.51,186.99-195.21,180.04-77.71-6.95-98.55-96.66-92.24-204.05,6.32-107.4,74.55-188.89,152.25-181.95,106.13,9.48,154.2,100.45,135.2,205.95Z"/>
  <g>
    <path class="cls-26" d="m495.29,420.19c-26.07,70.06,60.01,672.8,135.19,751.77,79.6,84.02,395.47,137.72,458.65,133.93,66.96-4.42,285.54-100.45,336.08-202.16,60.01-120.03,50.54-639.95,24.64-701.86-86.55-210.37-274.18-205.32-518.66-189.52-229.32,15.16-368.13,25.73-435.9,207.84Z"/>
    <path class="cls-26" d="m353.15,995.07c38.85,114.88,156.67,180.05,241.32,162.36,84.66-17.69,49.91-363.26-106.13-382.2-129.51-16.42-171.55,112.35-135.19,219.84Z"/>
  </g>
  <path class="cls-25" d="m447.28,983.7c10.11,48.65,68.22,86.55,108.66,70.12,16.43-6.31-23.37-176.25-49.27-174.36-43.59,2.53-69.49,55.59-59.39,104.23h0Z"/>
  <path class="cls-30" d="m640.59,1005.81c.31,24.64,34.74,44.22,76.44,43.59,42.33-.64,76.44-20.85,76.44-45.49-.63-24.64-34.74-44.22-77.07-43.59s-76.12,20.84-75.81,45.49Zm655.11-36.64c2.17,21.45,30.33,36.64,63.17,32.85,32.22-3.79,56.86-24.01,54.33-46.12-1.9-21.48-30.33-36.01-63.17-32.85-32.22,3.79-56.57,23.98-54.33,46.12Z"/>
  <path class="cls-53" d="m1240.11,1008.97c-9.39-39.19-68.86-26.53-167.41-22.74-5.05,0-25.27,1.27-30.32,1.27-97.92,5.05-158.57-2.53-164.25,36.64-11.37,76.44,87.18,154.77,187,150.35h1.26c99.82-4.42,191.58-91.01,173.73-165.52h0Z"/>
  <path class="cls-61" d="m1067.01,1176.38h-1.89c-32.22,1.26-66.33-6.95-97.92-22.74l-1.9-.63,1.26-1.26c25.27-24.64,59.39-39.17,96.66-40.44,37.9-1.89,73.28,9.48,100.45,31.59l1.26,1.26-1.9,1.26c-30.32,18.32-63.81,29.06-96.03,30.96h0Z"/>
  <path class="cls-32" d="m1060.06,1037.4c-68.21,2.83-126.35-16.42-134.56-44.22l-.63-1.9,266.59-11.37v1.9c-6.32,28.42-62.53,52.74-131.41,55.59Z"/>
  <path class="cls-46" d="m1027.21,939.48c2.53-.64,5.05-2.53,5.05-5.06,1.9-20.21,16.42-33.48,37.28-34.74,20.85-1.9,37.27,10.11,41.06,29.06.64,3.16,3.8,5.06,6.95,4.42,3.16-.63,5.06-3.79,4.42-6.31-5.05-24.64-27.16-40.43-53.06-38.54-25.9,1.9-45.49,19.58-48.01,44.85,0,3.16,1.9,5.69,5.06,5.69l1.26.64h0Z"/>
  <path class="cls-52" d="m626.69,633.72c4.43-.6,8.85-2.53,12-6.32,39.8-46.12,125.08-69.49,197.74-53.7,10.1,1.9,20.21-4.42,22.74-14.53,2.53-9.48-4.42-19.58-14.53-21.48-86.55-18.32-185.73,9.47-235.01,66.33-6.95,7.58-5.69,18.95,2.53,25.9,3.79,3.16,9.49,4.47,14.53,3.8Zm783.99-66.33c3.79,0,8.21-1.9,11.37-5.69,5.06-6.32,3.79-20.85-2.53-26.53-47.38-39.17-130.14-48.01-197.1-20.22-7.58,3.16-11.37,17.06-8.21,25.27,3.15,7.58,12.64,11.37,20.21,8.21,56.23-23.37,126.98-16.42,165.52,15.17,3.16,2.53,6.95,3.79,10.74,3.79Z"/>
  <path class="cls-29" d="m1328.55,214.87c-97.17-37.57-269.75-42.33-422-25.27-165.52,18.32-333.56,60.65-417.58,130.14-55.59,46.12-92.87,344.93-66.96,317.77,30.32-30.96,80.23-61.28,141.51-89.08,3.79-32.85,38.54-118.14,45.49-129.5-1.26,17.05.63,77.7,2.53,109.92,76.44-30.32,165.52-54.96,253.96-71.39-6.32-33.48,5.05-79.6,5.05-81.49,11.37,8.85,37.91,53.7,49.28,72.65l39.17-5.05c120.03-13.27,209.11-15.79,281.76-10.74l-21.48-128.87c15.79,20.21,39.8,82.12,47.38,131.4,27.17,3.16,51.8,7.58,74.55,12.64-1.26-30.96-.63-80.87-.63-89.08,10.1,4.42,35.37,69.49,46.12,101.08,38.53,12.01,73.28,27.8,109.29,44.85,39.8,18.95-89.61-259.89-167.41-289.97h0Z"/>
  <path class="cls-69" d="m1195.89,891.46s147.2,44.22,195.2-48.64c58.76-113.71-49.27-193.32-114.34-171.84-60.01,19.58-110.55,86.55-80.86,220.48h0Z"/>
  <path class="cls-10" d="m1391.73,702.58c-29.77-37.84-65.7-48.01-104.24-40.44-39.17,6.95-77.07,42.96-85.92,78.34,18.32-40.44,54.33-56.86,76.44-64.44,36.01-11.37,85.28,4.42,109.29,42.32,21.48,33.48,24.01,85.28,2.53,126.98,26.54-29.06,32.76-103.54,1.9-142.77h0Z"/>
  <path class="cls-4" d="m1220.53,770.8c-10.32,39.74,9.48,83.39,43.59,96.66,34.12,13.27,70.12-8.21,80.23-48.64,10.74-39.8-8.85-83.39-42.96-96.66-34.11-13.27-70.34,8.16-80.86,48.64Z"/>
  <path class="cls-5" d="m1224.95,758.17c-2.74,10.69,2.53,22.74,12,26.53,9.48,3.79,19.58-1.9,22.74-13.26,2.53-11.37-2.53-23.38-12-27.17-9.48-3.16-19.82,2.46-22.74,13.9Z"/>
  <path class="cls-69" d="m940.04,909.78s-166.15,66.96-237.54-18.32c-86.55-103.6,28.43-198.37,107.4-187,73.91,10.74,144.03,68.86,130.14,205.32Z"/>
  <path class="cls-10" d="m679.76,753.12c28.84-41.85,70.12-57.49,116.87-56.22,46.75,1.89,97.29,31.58,113.08,65.07-28.42-37.27-72.65-48.01-100.44-51.8-43.59-6.31-99.18,17.06-121.93,57.49-19.58,36.64-14.53,88.44,17.69,126.35-36.01-24.64-55.2-97.45-25.27-140.87h0Z"/>
  <path class="cls-4" d="m727.77,804.92c-12.64,40.43,9.47,83.39,49.91,96.66,40.43,12.64,83.39-9.48,96.02-49.91,13.27-40.43-9.47-83.39-49.91-96.66-39.8-12.63-83.39,9.48-96.03,49.91Z"/>
  <path class="cls-5" d="m733.45,792.28c-3.59,11.44,2.53,23.37,13.27,27.16,11.37,3.16,23.37-3.15,27.16-13.9,3.16-11.37-2.53-23.37-13.9-27.16-11.37-3.16-23.18,3.21-26.53,13.9h0Z"/>
  <g>
    <path class="cls-65" d="m296.92,586.33s-26.53,89.08,25.9,84.03c52.43-5.06,90.97-48.01,85.91-95.4-4.42-47.38-50.54-82.12-102.97-77.07-52.44,5.06-8.85,88.44-8.85,88.44h0Zm280.49-27.79s42.96,82.76-9.47,87.82c-51.8,5.05-97.92-29.06-102.98-77.07-4.42-47.39,34.12-90.34,86.55-95.39,51.8-5.06,25.9,84.65,25.9,84.65Z"/>
    <path class="cls-65" d="m471.91,569.91c2.21,22.71-12,42.33-32.22,44.85-19.58,1.9-37.9-15.16-39.8-37.9-2.53-22.11,12-42.33,31.58-44.22,20.22-1.9,38.22,14.49,40.43,37.27h0Z"/>
  </g>
  <path class="cls-39" d="m1365.2,1878.24c3.16,14.53,7.58,41.69-1.26,39.17-71.39-53.7-68.86-159.83-76.44-308.92l32.85-3.79c3.16,128.25,8.85,200.89,25.9,238.8,6.32,13.9,17.05,32.22,18.95,34.75h0Z"/>
</svg>