<svg height="512" viewBox="0 0 60 60" width="512" xmlns="http://www.w3.org/2000/svg"><g id="b"><path d="m48.16 12.89c-1.78-2.56-4.28-4.58-7.22-5.74-1.24-.51-2.56-.86-3.94-1.02-.66-.09-1.32-.13-2-.13h-10c-.68 0-1.34.04-2 .13-1.09.13-2.15.38-3.16.73-3.27 1.1-6.07 3.25-8 6.03-1.79 2.59-2.84 5.72-2.84 9.11v34c0 1.66 1.34 3 3 3h36c1.66 0 3-1.34 3-3v-34c0-3.39-1.05-6.52-2.84-9.11zm-1.16 38.11c0 2.21-1.79 4-4 4h-26c-2.21 0-4-1.79-4-4v-19c0-.78 1-4.46 1.59-6.54.24-.87 1.02-1.46 1.92-1.46h9.49v-.91c0-.72.13-1.44.38-2.11l1.68-4.48c.33-.87 1.55-.87 1.88 0l1.68 4.48c.25.67.38 1.39.38 2.11v.91h4v-2c0-.45.3-.83.71-.95l-.01-.05s-1.7-1.25-1.7-3.65c0-4.2 4.14-3.15 4.14-7.35 2.46 1.98 3.41 4.42 3.76 6.14.23 1.08.04 2.34-.35 3.37-.22.57-.41 1.03-.89 1.49l-.46.02c.13.02.25.07.35.14.27.18.45.49.45.84v2h1.49c.9 0 1.68.59 1.92 1.46.59 2.08 1.59 5.76 1.59 6.54z" fill="#128bd9"/><g fill="#526666"><path d="m36.96 29-.96 11h-4v-16h4v4c0 .54.43.98.96 1z"/><path d="m26 24v16h-4v-9c0-.55-.45-1-1-1h-3c-.55 0-1 .45-1 1v9h-2c-1.1 0-2-.9-2-2v-6c0-.78 1-4.46 1.59-6.54.24-.87 1.02-1.46 1.92-1.46z"/><path d="m47 32v6c0 1.1-.9 2-2 2h-3l-.96-11c.53-.02.96-.46.96-1v-4h1.49c.9 0 1.68.59 1.92 1.46.59 2.08 1.59 5.76 1.59 6.54z"/></g><path d="m17 36h5v4h-5z" fill="#d93625"/><path d="m47 38v13c0 2.21-1.79 4-4 4h-26c-2.21 0-4-1.79-4-4v-13c0 1.1.9 2 2 2h30c1.1 0 2-.9 2-2z" fill="#71b9e8"/><path d="m42 40h-6l.96-11h4.08z" fill="#d93625"/><path d="m42 22v6c0 .54-.43.98-.96 1h-4.08c-.53-.02-.96-.46-.96-1v-6c0-.45.3-.83.71-.95.09-.03.19-.05.29-.05h4c.07 0 .14.01.2.02.13.02.25.07.35.14.27.18.45.49.45.84z" fill="#f0c000"/><path d="m42.55 19.51c-.22.57-.41 1.03-.89 1.49l-.46.02c-.06-.01-.13-.02-.2-.02h-4c-.1 0-.2.02-.29.05l-.01-.05s-1.7-1.25-1.7-3.65c0-4.2 4.14-3.15 4.14-7.35 2.46 1.98 3.41 4.42 3.76 6.14.23 1.08.04 2.34-.35 3.37z" fill="#ffe3c5"/><path d="m22 31v5h-5v-5c0-.55.45-1 1-1h3c.55 0 1 .45 1 1z" fill="#71b9e8"/><path d="m26 35h6v5h-6z" fill="#88abab"/><path d="m32 27.01v7.99h-6v-7.98z" fill="#71b9e8"/><path d="m32 23.09v3.92l-6 .01v-3.93c0-.72.13-1.44.38-2.11l1.68-4.48c.33-.87 1.55-.87 1.88 0l1.68 4.48c.25.67.38 1.39.38 2.11z" fill="#88abab"/><path d="m37 6v.13c-.66-.09-1.32-.13-2-.13h-10c-.68 0-1.34.04-2 .13v-.13c0-2.76 2.24-5 5-5h4c2.76 0 5 2.24 5 5z" fill="#71b9e8"/><path d="m11.84 12.89c-1.79 2.59-2.84 5.72-2.84 9.11v30h-1c-2.21 0-4-1.79-4-4v-34c0-.3.02-.59.05-.85.01-.11.02-.22.05-.33.63-3.47 4.28-2.41 7.74.07z" fill="#526666"/><path d="m19.84 6.86c-3.27 1.1-6.07 3.25-8 6.03-3.46-2.48-7.11-3.54-7.74-.07.56-4.36 4.27-7.82 8.9-7.82 3.69 0 6.07 1.24 6.84 1.86z" fill="#71b9e8"/><path d="m55.88 12.72c-.68-3.35-4.29-2.28-7.72.17-1.78-2.56-4.28-4.58-7.22-5.74l.06-.15c1-1 2-2 6-2 4.98 0 8.31 3.71 8.88 7.72z" fill="#71b9e8"/><path d="m56 14v34c0 2.21-1.79 4-4 4h-1v-30c0-3.39-1.05-6.52-2.84-9.11 3.43-2.45 7.04-3.52 7.72-.17.02.1.04.2.05.31.03.16.04.32.05.48s.02.32.02.49z" fill="#526666"/></g><g id="c" fill="#232323"><path d="m46.123 24.604c-.49-.946-1.526-1.558-2.587-1.542-.061-.005-.351.006-.663.018l-.004-.081-.041-.821c.015-.321-.068-.631-.211-.908 1.52-1.731 1.665-4.38.854-6.443-.77-2.132-2.232-3.96-4.004-5.234-.321-.295-.885-.034-.851.407.26 2.553-2.013 3.1-3.335 4.918-1.159 1.956-.788 4.402.661 6.108-.256.292-.404.673-.363 1.046.008.356.005.729.01 1.093l-3.208-.154c-.042-.684-.124-1.338-.296-1.904l-1.064-2.966-.532-1.474c-.174-.708-.725-1.299-1.487-1.3-.769-.037-1.349.572-1.553 1.275l-.594 1.451-1.194 2.93c-.222.626-.332 1.352-.392 2.109l-4.136.158-4.94.15c-1.047.114-1.951 1.003-2.138 1.965l-.601 2.366c-.222 1.192-.87 3.069-.891 4.28.01.083.015 5.175.031 5.478-.028.191-.027.383-.008.574-.618 3.996-.597 7.987-.565 12.003l.012 1.036c.043 2.094 1.589 4.044 3.615 4.557 1.375.356 4.826-.006 6.285.028l8.07-.224c2.69-.06 5.38-.097 8.07-.108h4.035c2.207.254 4.548-.925 5.164-3.164.23-.611.162-1.483.214-2.126.031-1.542.071-3.151.118-4.768.02-.045.021-.1.005-.164.068-2.3.154-4.61.271-6.802.002-.016.008-.03.01-.045.055-.814.032-1.745.056-2.536.01-.801.046-2.877.056-3.652-.18-2.189-.874-4.127-1.414-6.188-.138-.399-.159-.723-.462-1.346zm-2.455.358c.748.207.776.726.993 1.524.443 1.863 1.129 3.804 1.34 5.651.011.784.044 2.839.055 3.652l.029 2.333c-.029.439-.377.859-.819.974-.126.07-.858.033-1.005.053-.34.006-.964.018-1.614.031-.491-1.533-.654-3.114-.65-4.722-.001-1.616.352-3.274.084-4.872.545-.364.919-1 .898-1.658.052-1.003.021-2.006-.024-3.009.307.007.594.019.713.043zm-7.247-2.89c-.008-.385.287-.614.579-.592l3.285.189c.132.015.489.023.616.04.162-.018.333.121.283.286-.119 2.013-.206 4.153-.184 6.11-1.339.084-2.702.155-4.041.275-.3.039-.475-.29-.451-.558-.142-1.868-.128-3.872-.087-5.749zm.536 12.469c-.003-1.658.168-3.287.697-4.865l.06.005c.801.067 1.603.112 2.404.16.034 1.591.65 3.135.924 4.7.276 1.552.391 3.105.191 4.668-.246.005-.468.011-.625.015-1.108.027-2.306.055-3.554.081.235-1.565-.1-3.184-.098-4.765zm-1.058-19.223c.519-.831 1.485-1.32 2.353-2.1.635-.516 1.03-1.294 1.236-2.1.447.49.863 1.003 1.196 1.566 1.406 2.289 1.874 5.296.392 7.605-.024 0-.046-.006-.07-.004-.186.004-.533.045-.721.046 0 0-2.866.165-3.243.187-1.558-1.022-2.168-3.595-1.143-5.2zm-.407 12.503c-.084.578.182 1.145.631 1.485.299 1.727.184 3.44-.121 5.152-.284 1.626-.937 3.231-.922 4.889-.728.015-1.47.029-2.221.043-.255-3.975-.372-7.949-.436-11.924-.041-.738-.018-1.598-.007-2.479l3.187-.153c-.008 1.009-.038 2.016-.111 2.987zm-3.923.018c-.036 2.109-.088 4.218-.166 6.327l-4.409-.136c-.014-2.013-.056-4.028-.115-6.037zm-4.564 8.13 4.327-.134c-.054 1.195-.117 2.391-.194 3.586-1.401.025-2.819.048-4.229.069.052-1.17.086-2.343.095-3.521zm-.074-14.531.995-2.942.507-1.483c.093-.288.189-.68.568-.685.386-.041.531.372.633.66l.568 1.46 1.125 2.906c.417 1.184.293 3.196.252 4.83l-4.755-.138c-.016-.571-.034-1.144-.049-1.713-.021-.837-.126-2.095.155-2.895zm-13.521 16.092c.012-.293.015-5.404.031-5.479.149-1.355.583-2.709.946-4.03l.692-2.329c.233-.871.968-1.19 1.792-1.099 2.24.02 5.801.185 8.327.275-.011.919-.004 1.82-.065 2.599-.089 4.017-.232 8.033-.042 12.05-.758.01-1.506.02-2.246.029-.383-2.878-.453-5.712-.451-8.618-.011-.715-.652-1.343-1.379-1.347l-1.512-.059-1.514-.092c-.805-.045-1.587.631-1.651 1.485-.166 2.796-.494 5.881-.26 8.691l-1.031.007c-.843.002-1.422-.55-1.598-1.289-.016-.107-.025-.214-.042-.322h-.003c-.012-.153-.012-.31.009-.47zm4.465-3.565-.204-2.983c-.036-.168.107-.38.326-.409.749-.055 2.258-.129 3.009-.152.297-.02.582.239.598.546.008 1.344-.011 2.696-.066 4.049l-3.602.133c-.02-.395-.041-.79-.062-1.186zm.128 2.887 3.419.127c-.065.864-.15 1.726-.265 2.585-1.119.012-2.202.021-3.232.029.079-.913.099-1.827.078-2.741zm27.693 16.486c-.973-1.312-3.562-3.59-3.855-3.277-.121.081-.154.244-.074.366.952 1.316 2.097 2.444 3.403 3.395-.845.632-1.972.91-3.063.782h-.178c.858-.236-2.877-3.882-3.348-3.577-.124.08-.186.234-.111.361.779 1.332 1.914 2.375 3.217 3.216.026.005.038-.001.061 0-.597 0-3.676 0-3.676 0h-.061c-.304-.866-2.285-2.807-2.692-2.613-.136.065-.213.22-.149.356.434.918 1.117 1.653 1.931 2.253-1.026-.004-2.113-.015-3.253-.034-.441-.756-1.442-1.734-1.79-1.61-.148.046-.232.203-.186.351.179.467.431.88.746 1.237-3.659-.07-7.581-.187-10.688-.273l-4.035-.11c-1.129.031-2.268-.133-3.064-.992-.825-.792-.896-1.995-.848-3.064 0-1.345.032-2.69.007-4.035-.029-2.035-.106-4.07-.326-6.105.392.28.86.45 1.381.424l1.217.008c7.018.023 17.359.212 24.349.377.78.02 2.906.061 3.652.076l.609.009c.469.034.932-.077 1.356-.28.048 1.057.087 2.113.122 3.17-.844-.699-1.833-1.308-2.051-1.127-.124.083-.156.25-.074.374.603.803 1.327 1.468 2.162 1.989.01.361.026.723.034 1.084 0 0 .012.488.027 1.122-.962-1.028-2.677-2.317-2.969-2.09-.116.091-.159.25-.073.371.806 1.146 1.862 2.041 3.067 2.738.023.966.046 1.894.046 1.894-.006.239.01.534.015.832-.402-.989-3.494-3.664-3.873-3.356-.114.093-.158.248-.074.369.958 1.374 2.205 2.472 3.632 3.341.167.024.256-.005.309-.059-.008.275-.031.542-.114.754-.132.531-.388.977-.718 1.353z"/><path d="m12.304 4.031c-5.139.292-9.328 5.073-9.026 10.162l.053 1.957c.208 7.578.339 15.942.246 23.479.005 2.97-.163 5.892-.154 8.869.282 2.791 2.504 4.313 5.135 4.381-.008 1.854-.021 3.071-.04 3.128-.051 1.892 1.638 3.562 3.526 3.519.385.017 2.977.009 3.392.031 6.964.072 25.357.261 32.564.338 2.496.023 4.187-2.218 3.938-4.611l.019-2.444h.012c2.532-.044 4.704-2.288 4.624-4.818-.243-7.907-.233-15.817-.112-23.726 0-2.783.369-9.01.177-11.729-.471-4.264-4.01-7.968-8.33-8.481-2.716-.279-5.942-.027-7.825 2.143-.885-.308-1.796-.546-2.726-.697-.869-3.87-4.006-5.192-7.776-5.013l-1.248-.093c-2.342-.387-4.957.637-6.096 2.836-.401.743-.607 1.627-.575 2.451-.591.103-1.173.235-1.744.406-2.404-1.775-5.158-2.208-8.034-2.089zm.138 2.002c1.819-.09 3.945.206 5.686.943-2.376 1.127-4.468 2.826-6.081 4.903-1.477-1.225-4.348-2.213-6.313-1.55 1.337-2.43 3.858-4.195 6.708-4.296zm-4.42 45.127c-1.343.102-2.672-.742-3.181-1.996-.219-.532-.26-1.012-.26-1.709-.063-2.609-.141-5.218-.158-7.826-.068-5.218-.008-10.435.057-15.653l.189-7.826.053-1.957c-.004-.967.186-1.91.52-2.795.424-.329 1.004-.455 1.744-.233 1.503.399 2.611 1.594 3.985 2.284-1.334 2.183-2.183 4.659-2.343 7.247-.133 3.082-.003 7.767-.026 10.887-.033.893-.019 12.679-.039 19.546l-.542.031zm42.046-23.013c-.02 3.618-.082 7.236-.066 10.855l.018 10.855.042 5.427.005.678c.048 1.14-.93 2.143-2.068 2.143-7.121.073-25.68.269-32.564.337l-2.714.025c-.773.036-1.635.016-2.256-.506-.605-.453-.972-1.195-.983-1.956l-.025-2.713c-.012-3.921-.077-23.65-.04-27.137 0-.872.017-3.235.015-4.07.038-3.95 1.518-7.919 4.309-10.746 2.439-2.51 5.72-4.23 9.198-4.613 1.707-.206 3.532-.107 5.344-.108 1.814.035 6.333-.005 8.079.137 6.065.525 11.473 5.014 13.143 10.847.981 2.881.466 7.507.564 10.544zm5.351 19.388c.168 1.966-1.445 3.785-3.449 3.625l.01-1.304.018-10.855c.016-3.618-.047-7.236-.066-10.855-.128-3.275.301-7.891-.815-11.032-.412-1.365-1.014-2.65-1.759-3.84 1.227-.702 2.277-1.733 3.656-2.099.677-.207 1.218-.118 1.637.145.583 1.58.8 3.383.679 5.229l.189 7.746c.115 7.747.138 15.494-.101 23.239zm-7.343-41.457c3 .375 5 2 6.134 4.23-1.845-.603-4.476.252-5.995 1.37-1.577-1.959-3.583-3.557-5.838-4.661 1.629-1.096 3.794-1.055 5.699-.939zm-19.324-4.505c1.16-.085 2.586-.2 3.704-.155 2.021.12 3.773 1.985 3.749 3.946-.377-.023-.755-.04-1.136-.036-3.383.09-7.523-.07-11.061.167.472-2.254 2.32-4.005 4.745-3.922z"/></g></svg>