<svg height="512" viewBox="0 0 60 60" width="512" xmlns="http://www.w3.org/2000/svg"><g id="017---Cheetah" fill="none"><path id="Path" d="m47.684 3.557c-.226294-.00000996-.4243705-.15200579-.4829405-.37058883-.0585699-.21858305.0369699-.4492542.2329405-.56241117l3.157-1.824c.2374252-.12420086.5305531-.03916186.6646466.19281988.1340935.23198173.0614797.52843213-.1646466.67218012l-3.157 1.824c-.0759114.04423822-.1621395.06769228-.25.068z" fill="#e4a649"/><path id="Path" d="m10.487 24.435c-.2206812.000052-.4152989-.1445779-.4789014-.355895-.06360254-.2113171.0188533-.439341.2029014-.561105l9.678-6.418-10.806 6.235c-.23252618.1307666-.52675914.0559509-.6685809-.1700024-.14182177-.2259533-.08127436-.5234503.1375809-.6759976l9.714-6.6-10.108 5.835c-.23477127.1336383-.53323995.0566316-.67405087-.1739091-.14081092-.2305408-.07304023-.5312411.15305087-.6790909l3-1.94-3.067 1.769c-.23186034.1330617-.52737097.0602043-.67080661-.1653857-.14343565-.22559-.08404925-.5240996.13480661-.6776143l7.205-5.04-7.545 4.356c-.23229375.1351768-.52989283.0625367-.67378421-.164462-.14389139-.2269988-.08259275-.5271392.13878421-.679538l4.921-3.408-5.128 2.96c-.2295527.1314921-.52180501.0614183-.6667704-.1598726-.14496539-.2212908-.0924688-.5172061.1197704-.6751274l6.215-4.581-6.593 3.806c-.23004825.1308569-.52222067.059778-.6664488-.1621318-.14422813-.2219099-.09054634-.5177734.1224488-.6748682l4.851-3.527-5.116 2.953c-.227731.1281621-.51574432.059345-.66093914-.1579231-.14519482-.217268-.09859462-.509699.10693914-.6710769l5.409-4.146-5.792 3.344c-.2296891.1296297-.52056951.0585592-.66460409-.1623819-.14403457-.2209411-.09168688-.5157667.11960409-.6736181l3.6-2.631-3.79 2.185c-.23158002.1294027-.52390906.0554223-.6660571-.1685604-.14214803-.2239828-.08462774-.5199909.1310571-.6744396l1.066-.74-1.033.6c-.22681472.12995-.51544746.0632557-.66225808-.1530278-.14681062-.2162836-.10224336-.50915.10225808-.6719722l4.568-3.599-4.611 2.66c-.22488364.12756093-.50992796.06263942-.65739003-.14972673s-.10870255-.50212944.08939003-.66827327l4.164-3.443-3.62 2.09c-.22737724.12350177-.51141719.05312246-.65482758-.16225292-.14341039-.21537539-.09880759-.50458558.10282758-.66674708l.866-.653c-.20326559.05802834-.42106122-.01803999-.544-.19-.14926201-.20862657-.116427-.49636497.076-.666l1.408-1.241c-.16576312-.08147297-.27310912-.24769401-.27917884-.43229741-.00606973-.18460339.09012559-.35751684.25017884-.44970259l3.058-1.763c.22238984-.12697371.50476631-.06539499.65409943.1426415.14933312.20803648.1173442.49527353-.07409943.6653585l-.563.494 2.442-1.407c.22871944-.13104292.51988771-.06201267.66543532.15776159.14554761.21977425.09547523.5147944-.11443532.67423841l-.765.577 1.755-1.016c.22502404-.12983267.5119893-.06570465.6603401.14756599s.108657.50462239-.0913401.67043401l-4.169 3.443 5.485-3.166c.2271272-.1307942.5167067-.06400457.6636035.15305585.1468968.21706043.1012506.51071589-.1046035.67294415l-4.567 3.6 5.412-3.125c.2322938-.13517681.5298928-.06253672.6737842.16446202s.0825928.52713916-.1387842.67953798l-1.064.738 1.381-.8c.2291341-.12588123.5165618-.0539928.6594556.16493617.1428938.21892896.0930076.51098038-.1144556.67006383l-3.6 2.634 4.419-2.551c.228242-.1318458.5196375-.06386204.6659708.15537372.1463332.21923576.0973404.51441845-.1119708.67462628l-5.409 4.145 6.72-3.878c.2300482-.13085689.5222207-.05977797.6664488.16213184.1442281.22190982.0905463.51777331-.1224488.67486816l-4.853 3.528 6.108-3.525c.2295527-.13149209.521805-.0614183.6667704.15987256.1449654.22129087.0924688.51720615-.1197704.67512744l-6.211 4.578 7.9-4.56c.2318603-.13306172.527371-.0602043.6708066.16538571.1434357.22559001.0840493.52409963-.1348066.67761429l-4.925 3.411 6.991-4.033c.2318603-.13306172.527371-.0602043.6708066.16538571.1434357.22559001.0840493.52409963-.1348066.67761429l-7.2 5.037 10.186-5.88c.2347713-.13363828.5332399-.05663158.6740509.17390914.1408109.23054072.0730402.5312411-.1530509.67909086l-2.992 1.936 4.83-2.789c.2325262-.13076655.5267591-.05595091.6685809.17000241s.0812744.52345026-.1375809.67599759l-9.719 6.601 12.906-7.447c.2340569-.1357068.5336008-.06062069.6759704.16944421s.0759129.53164078-.1499704.68055579l-9.676 6.42 12.593-7.27c.2342478-.13088329.5300435-.05352709.6702262.17527691.1401827.22880401.074765.52746697-.1482262.67672309l-7.537 4.894 22.993-13.279c.234481-.12707284.5274228-.04774006.6657366.18029089.1383139.22803094.0733058.52448086-.1477366.67370911l-16.474 10.493 18.445-10.649c.1536242-.09128136.3442768-.09367127.5001409-.00626949s.2532602.25131686.2555.43c.0022399.17868314-.0910167.34498813-.2446409.43626949l-1.916 1.175 2.368-1.368c.2356087-.12976469.5316571-.04987998.6700067.18079237.1383496.23067236.0694166.52946069-.1560067.67620763l-9.993 6.238 10.54-6.084c.2350866-.12734701.5287583-.04721993.6665908.18187644.1378325.22909636.071048.52608673-.1515908.67412356l-8.4 5.247 8.587-4.958c.2354116-.13795832.5379577-.06170795.6798637.17134529.1419059.23305325.070765.53684142-.1598637.68265471l-11.918 7.639 11.974-6.913c.234023-.12528526.5251579-.04585984.6631351.18091194s.0746978.5218373-.1441351.67208806l-9.243 5.914 8.875-5.123c.2334461-.13529908.5321345-.06097219.6749447.16795606.1428102.22892826.0782242.52987333-.1459447.68004394l-11.855 7.98 10.6-6.12c.2347029-.1405531.538787-.0663884.6824238.1664401.1436368.2328284.0734897.5378644-.1574238.6845599l-5.889 3.87 4.066-2.348c.2340027-.1389988.5362016-.0652981.6799386.1658244s.0762078.5347601-.1519386.6831756l-3.715 2.48 1.914-1.1c.2306836-.128482.5215078-.0554404.6641078.1667933s.0878131.5170425-.1251078.6732067l-3.668 2.6 1.727-1c.2314073-.1518783.5421217-.0874073.694.144s.0874073.5421217-.144.694l-1.713 1.279c.2208669-.0892433.4740235-.0102758.6049818.1887128.1309584.1989887.1033481.4627343-.0659818.6302872l-1.793 1.8c.209147.0325313.3751509.1932299.414456.4012103.0393052.2079803-.0566052.4181767-.239456.5247897l-2.656 1.534c-.217123.1206668-.4899085.063641-.6405105-.1338986s-.1333491-.4756874.0405105-.6531014l1.5-1.5-3.96 2.286c-.2288588.1292299-.518701.0592157-.6633326-.1602346-.1446317-.2194502-.0946742-.513414.1143326-.6727654l1.68-1.254-3.619 2.088c-.2300956.1246328-.5173688.0507679-.6588088-.1693958-.1414401-.2201636-.0891975-.5121441.1198088-.6696042l3.669-2.607-5.971 3.447c-.2330829.1306613-.5277074.0549657-.6689423-.1718661-.1412349-.2268319-.0791592-.5246238.1409423-.6761339l3.7-2.473-5.755 3.319c-.2336556.130691-.5287926.0541466-.6694787-.1736308-.140686-.2277774-.0769932-.5259521.1444787-.6763692l5.9-3.875-8.188 4.726c-.23265.1288599-.5254615.0530472-.6663444-.1725252s-.0805297-.5219566.1373444-.6744748l11.855-7.982-15.294 8.83c-.234023.1252853-.5251579.0458598-.6631351-.1809119-.1379772-.2267718-.0746978-.5218373.1441351-.6720881l9.23-5.906-11.718 6.761c-.2343611.1288923-.5286543.0505227-.6678755-.1778537-.1392213-.2283764-.0740613-.5258734.1478755-.6751463l11.924-7.641-14.716 8.495c-.2350866.127347-.5287583.0472199-.6665908-.1818764-.1378325-.2290964-.071048-.5260868.1515908-.6741236l8.394-5.244-10.569 6.1c-.2350866.127347-.5287583.0472199-.6665908-.1818764-.1378325-.2290964-.071048-.5260868.1515908-.6741236l10-6.245-12.3 7.1c-.2362845.1306359-.5336041.0500916-.6716393-.181948s-.0669238-.5317553.1606393-.677052l1.92-1.173-3.522 2.033c-.2348642.1312813-.531504.0531604-.6712412-.1767732-.1397372-.2299337-.0724576-.5292187.1522412-.6772268l16.468-10.488-19.654 11.346c-.2337734.1287456-.5274505.051198-.667188-.1761759-.1397374-.2273739-.07627-.5244122.144188-.6748241l7.536-4.894-9.953 5.746c-.0759114.0442382-.1621395.0676923-.25.068z" fill="#e4a649"/><path id="Path" d="m22.283 54.47c-.2238015.0001026-.4204126-.1485273-.4813425-.363875-.0609299-.2153478.0286636-.4449556.2193425-.562125l.373-.23-1.885 1.086c-.2343611.1288923-.5286543.0505227-.6678755-.1778537-.1392213-.2283764-.0740613-.5258734.1478755-.6751463l13.261-8.5-16.114 9.3c-.2362075.133071-.5354329.0536509-.6745599-.1790411-.1391271-.2326919-.0674613-.5338687.1615599-.6789589l5.132-3.166-6.607 3.814c-.2349709.1292146-.5300387.050062-.6687925-.179405-.1387537-.2294671-.0717837-.5275361.1517925-.675595l15.742-9.982-17.551 10.129c-.2355125.13196-.5332497.0531389-.6726204-.1780652-.1393708-.2312042-.0700423-.5312938.1566204-.6779348l17.09-10.8-18.456 10.66c-.2362075.133071-.5354329.0536509-.6745599-.1790411-.1391271-.2326919-.0674613-.5338687.1615599-.6789589l14.058-8.738-14.9 8.6c-.23571786.1278172-.53029699.0469384-.66770199-.1833224-.13740501-.2302607-.06871185-.5279174.15570199-.6746776l11.186-6.879-11.759 6.782c-.23571786.1278172-.53029699.0469384-.66770199-.1833224-.13740501-.2302607-.06871185-.5279174.15570199-.6746776l12.347-7.6-12.708 7.334c-.23560872.1297647-.5316571.04988-.67000668-.1807924-.13834959-.2306723-.06941665-.5294607.15600668-.6762076l16.856-10.482-17.258 9.962c-.23628449.1306359-.5336041.0500916-.67163931-.181948s-.06692381-.5317553.16063931-.677052l10.471-6.413-10.498 6.061c-.23693016.1419372-.54406281.0649301-.68599999-.172-.14193717-.2369302-.06493016-.5440628.17199999-.686l16.089-9.974-16.075 9.281c-.23775858.1408326-.54466737.0622586-.68549998-.1755s-.06225859-.5446674.17549998-.6855l5.065-3.076-4.784 2.761c-.23560872.1297647-.5316571.04988-.67000668-.1807924-.13834959-.2306723-.06941665-.5294607.15600668-.6762076l17.487-10.9-17.062 9.851c-.23701856.1320316-.53608427.0509486-.6739531-.1827228-.13786884-.2336714-.06422739-.5346559.1659531-.6782772l1.781-1.076-1.234.712c-.23497088.1292146-.53003872.050062-.66879247-.179405-.13875376-.2294671-.07178369-.5275361.15179247-.675595l19.68-12.431-18.549 10.706c-.23497088.1292146-.53003872.050062-.66879247-.179405-.13875376-.2294671-.07178369-.5275361.15179247-.675595l17.757-11.214-15.442 8.915c-.23610173.1433179-.54368211.0681017-.687-.168s-.06810173-.5436821.168-.687l16.113-10.246-13.894 8.023c-.23665402.1424895-.54401053.066154-.6865-.1705s-.06615402-.5440105.1705-.6865l10.038-6.3-9.593 5.537c-.23377341.1287456-.52745054.051198-.66718798-.1761759-.13973743-.2273739-.07626999-.5244122.14418798-.6748241l15.34-9.98-14.964 8.64c-.23415271.123715-.52415635.0433988-.66130449-.1831476-.13714814-.2265465-.07386591-.5207372.14430449-.6708524l9.763-6.2-9.086 5.244c-.23693016.1419372-.54406282.0649302-.686-.172s-.06493016-.5440628.172-.686l3.034-1.891-2.4 1.385c-.23415271.123715-.52415635.0433988-.66130449-.1831476-.13714814-.2265465-.07386591-.5207372.14430449-.6708524l6.007-3.807-5.08 2.933c-.2341443.133112-.53165209.0568382-.67287099-.1725078-.1412189-.2293459-.07539606-.5293391.14887099-.6784922l8.756-5.727-7.6 4.386c-.2338963.1269547-.5262491.04845-.66508708-.1785941-.13883795-.227044-.07550148-.5230536.14408708-.6734059l4.386-2.834-2.975 1.716c-.2314518.1313128-.5252013.0583356-.6682918-.1660259-.1430904-.2243616-.0853808-.5214879.1312918-.6759741l7.2-5.044-4.763 2.761c-.2280989.1338167-.5209547.0668721-.6682583-.1527586-.1473036-.2196308-.0981078-.515985.1122583-.6762414l4.174-3.216c-.1975295-.0496473-.3452028-.2141474-.3733296-.4158691s.0689152-.4003433.2453296-.5021309l5.293-3.057c.2279124-.13082408.5182022-.06289178.6643976.1554793.1461953.21837108.0983971.51264698-.1093976.6735207l-3.338 2.566 8.2-4.733c.2314518-.13131281.5252013-.05833565.6682918.16602591.1430904.22436156.0853808.52148787-.1312918.67597409l-7.2 5.045 10.3-5.944c.2338963-.12695469.5262491-.04844997.6650871.17859405.1388379.22704402.0755015.5230536-.1440871.67340595l-4.386 2.835 5.9-3.408c.2330372-.12386012.5222123-.04527822.6605113.17949071.138299.22476892.0780959.51832115-.1375113.67050929l-8.758 5.73 10.545-6.093c.2354379-.13454995.5352149-.05690217.6757281.17502611.1405133.23192829.0705395.53358878-.1577281.67997389l-6.01 3.808 7.088-4.092c.1532669-.09181726.3438754-.09489296.5000249-.00806853s.2541174.25035831.257.429-.089758.34525127-.2430249.43706853l-3.036 1.891 3.879-2.239c.2354379-.13454995.5352149-.05690217.6757281.17502611.1405133.23192829.0705395.53358878-.1577281.67997389l-9.742 6.187 10.739-6.2c.2342478-.13088329.5300435-.05352709.6702262.17527691.1401827.22880401.074765.52746699-.1482262.67672309l-15.348 9.985 16.718-9.652c.2355125-.13196.5332497-.0531389.6726204.1780652.1393708.2312042.0700423.5312938-.1566204.6779348l-10.03 6.3 10.728-6.194c.2348642-.1312813.531504-.0531604.6712412.1767732.1397372.2299337.0724576.5292187-.1522412.6772268l-16.12 10.246 17.014-9.821c.2349709-.1292146.5300387-.050062.6687925.179405.1387537.2294671.0717837.5275361-.1517925.675595l-17.756 11.212 18.508-10.684c.2346058-.1253855.5263122-.0451285.6637604.18262.1374483.2277485.0725112.523243-.1477604.67238l-19.67 12.425 20.307-11.725c.2377586-.1405565.5444435-.0617586.685.176.1405564.2377586.0617586.5444435-.176.685l-1.781 1.08 1.846-1.067c.1532669-.0919959.3439707-.0952367.5002749-.0085015.1563042.0867351.2544627.250269.2575.429s-.089508.3455056-.2427749.4375015l-17.5 10.907 17.832-10.295c.2369888-.1350471.5384839-.055235.6776156.1793791.1391316.2346142.0645535.5374465-.1676156.6806209l-5.035 3.058 4.987-2.879c.2356087-.1297647.5316571-.04988.6700067.1807924.1383496.2306723.0694166.5294607-.1560067.6762076l-16.1 9.979 16.233-9.372c.2362845-.1306359.5336041-.0500916.6716393.181948s.0669238.5317553-.1606393.677052l-10.482 6.424 10.327-5.962c.2369302-.1419372.5440628-.0649301.686.172.1419371.2369302.0649301.5440628-.172.686l-16.846 10.476 16.76-9.676c.2362845-.1306359.5336041-.0500916.6716393.181948s.0669238.5317553-.1606393.677052l-12.342 7.6 12.036-6.947c.2362845-.1306359.5336041-.0500916.6716393.181948s.0669238.5317553-.1606393.677052l-11.177 6.879 10.793-6.23c.2352087-.125628.5276152-.0445694.664573.1842276.1369579.228797.070267.5248112-.151573.6727724l-14.065 8.743 13.576-7.838c.2349709-.1292146.5300387-.050062.6687925.179405.1387537.2294671.0717837.5275361-.1517925.675595l-17.09 10.799 16.412-9.478c.2354379-.13455.5352149-.0569022.6757281.1750261.1405133.2319283.0705395.5335888-.1577281.6799739l-15.747 9.994 15.554-8.979c.2362075-.133071.5354329-.0536509.6745599.1790411.1391271.2326919.0674613.5338687-.1615599.6789589l-5.121 3.16 5.245-3.028c.234023-.1252853.5251579-.0458598.6631351.1809119.1379772.2267718.0746978.5218373-.1441351.6720881l-13.281 8.509 13.839-7.989c.2357179-.1278172.530297-.0469384.667702.1833224.137405.2302607.0687118.5279174-.155702.6746776l-.342.21.374-.215c.2354379-.13455.5352149-.0569022.6757281.1750261.1405133.2319283.0705395.5335888-.1577281.6799739l-8.294 5.269 8.405-4.852c.2333291-.1269664.5252099-.0493179.6646076.1768043.1393976.2261221.0776459.5217747-.1406076.6731957l-10.636 6.97 10.664-6.156c.2329061-.1254293.5232086-.0477402.6623373.1772508s.0789338.5194187-.1373373.6717492l-8.915 5.895 8.736-5.043c.1521951-.0936036.3427662-.0989017.4999268-.0138987.1571607.0850031.2570345.2473934.262.426.0049655.1786067-.0857317.3462951-.2379268.4398987l-5.222 3.413 4.747-2.741c.2306836-.128482.5215078-.0554404.6641078.1667933s.0878131.5170425-.1251078.6732067l-7.887 5.6 7.056-4.073c.2327769-.1270897.524286-.0503218.6642741.174934.139988.2252559.0797468.5206233-.1372741.673066l-1.321.882.359-.206c.2324067-.1328499.5282158-.0590851.6710333.1673329s.0819688.5251514-.1380333.6776671l-1.117.765c.2252486-.0429681.4508529.0727925.5473068.2808305.096454.2080379.0390306.4550205-.1393068.5991695l-2.674 2.159c.1816503.0660821.308939.2309487.326902.4234091.017963.1924605-.0766179.3780349-.242902.4765909l-4.266 2.475c-.2262112.1327757-.5165722.0681745-.6651499-.1479864-.1485778-.2161609-.1048589-.5103912.1001499-.6740136l1.8-1.449-5.179 2.987c-.23171.1276221-.5227312.0526794-.6639792-.1709853s-.08384-.5186462.1309792-.6730147l.833-.572-2.456 1.416c-.2327769.1270897-.524286.0503218-.6642741-.174934-.139988-.2252559-.0797468-.5206233.1372741-.673066l1.321-.882-3 1.73c-.2300956.1246328-.5173688.0507679-.6588088-.1693958-.1414401-.2201636-.0891975-.5121441.1198088-.6696042l7.885-5.6-11.157 6.439c-.2337734.1287456-.5274505.051198-.667188-.1761759-.1397374-.2273739-.07627-.5244122.144188-.6748241l5.222-3.413-7.388 4.264c-.233204.1287421-.5263939.0520483-.6666872-.1743946-.1402933-.226443-.0784231-.5231151.1406872-.6746054l8.911-5.892-11.679 6.741c-.2336556.130691-.5287926.0541466-.6694787-.1736308-.140686-.2277774-.0769932-.5259521.1444787-.6763692l10.644-6.977-13.556 7.827c-.234481.1270728-.5274228.0477401-.6657366-.1802909-.1383139-.2280309-.0733058-.5244809.1477366-.6737091l8.287-5.265-10.599 6.119c-.0757164.0449383-.1619569.0690856-.25.07z" fill="#f7b953"/><g fill="#49412c"><path id="Path" d="m29.954 29.458c-.1933441.000129-.3694345-.1112243-.4522025-.2859567s-.0573777-.381524.0652025-.5310433l.277-.337-.852.491c-.2050606.1181262-.4648513.0763143-.6224934-.1001867-.157642-.1765011-.1699563-.4393467-.0295066-.6298133l1.231-1.665-1.26.728c-.2054918.1189109-.4662705.0769181-.6240467-.1004892-.1577761-.1774073-.1690395-.4413052-.0269533-.6315108l.734-.977c-.1988068-.0479185-.348394-.2120729-.3776846-.4144646-.0292907-.2023916.0676201-.4022198.2446846-.5045354l1.539-.89c.2056813-.1187395.4665095-.0764089.6240818.1012842s.1684045.4417118.0259182.6317158l-.522.7 1.221-.705c.2048731-.1183073.4646227-.0768354.6224712.0993845s.1705878.4389507.0305288.6296155l-1.232 1.666 1.151-.663c.2091618-.1199379.4741262-.0735246.6300667.1103675s.1584356.4528792.0059333.6396325l-.658.8c.1689294.0787679.2800221.244961.2882187.4311715s-.0878636.3615222-.2492187.4548285l-1.533.886c-.0761947.0442064-.1629159.0670095-.251.066z"/><path id="Path" d="m28.968 13.966c-.1915959.0003493-.3665434-.1088182-.4504346-.281072s-.0619722-.3772995.0564346-.527928l1.248-1.589-1.414.816c-.2184203.1276802-.4977941.0720852-.6506935-.1294872s-.1311343-.4855915.0506935-.6615128l.367-.357c-.2049806.047935-.4180295-.037652-.5328813-.2140716-.1148518-.1764195-.1069032-.4058793.0198813-.5739284l.793-1.048c-.19125-.0571451-.3301893-.22256354-.3534483-.42080869-.0232591-.19824516.0736189-.39133075.2464483-.49119131l1.493-.861c.2056252-.11760068.4655534-.07477434.6225815.10257788s.1680579.44055394.0264185.63042212l-.549.729 1.159-.669c.2184203-.12768021.4977941-.07208516.6506935.12948722s.1311343.48559145-.0506935.66151278l-.3.295.169-.1c.2073289-.11983773.4705164-.07584722.6276039.10490094.1570875.18074815.1639632.44749812.0163961.63609906l-1.248 1.589.654-.377c.1547852-.0907422.3463247-.0915917.5019087-.0022259.155584.0893657.2513568.2552442.2509624.4346667-.0003945.1794226-.0968957.3448784-.2528711.4335592l-2.901 1.675c-.0759211.0439866-.1622605.0667802-.25.066z"/><path id="Path" d="m51.154 46.387c-.1935458.0000602-.3697424-.1115859-.4523391-.2866224s-.056756-.3820204.0663391-.5313776l.995-1.211-1.826 1.054c-.2225048.1289965-.5065753.0681522-.6567253-.1406622-.15015-.2088145-.1173946-.4974755.0757253-.6673378l.107-.093c-.220439.1262233-.5004889.0670999-.6510942-.1374575-.1506054-.2045574-.1238973-.4895314.0620942-.6625425l.4-.362c-.2119325.1046519-.4681965.046603-.6143438-.1391612-.1461474-.1857642-.1422498-.4484917.0093438-.6298388l.862-1.04c-.1240164-.0358392-.2293655-.1182552-.294-.23-.1380647-.2391402-.0561341-.5449248.183-.683l1.747-1.01c.2096246-.1209913.4758118-.0744647.6319655.1104606.1561537.1849254.1574318.4551452.0030345.6415394l-.582.7 1.476-.852c.220439-.1262233.5004889-.0670999.6510942.1374575.1506054.2045574.1238973.4895314-.0620942.6625425l-.393.361.47-.272c.2228858-.1316399.5093921-.0713981.6603902.1388557.1509982.2102539.1165552.5009919-.0793902.6701443l-.173.151c.2099365-.0568237.4325266.0285806.5505746.2112468s.1044743.4206913-.0335746.5887532l-.994 1.21.06-.034c.2374252-.1242009.5305531-.0391619.6646466.1928199.1340935.2319817.0614797.5284321-.1646466.6721801l-2.453 1.412c-.0745535.0439992-.1594329.0674618-.246.068z"/><path id="Path" d="m8.6 46.449c-.18938603 0-.36251759-.1070012-.4472136-.2763932-.084696-.169392-.06641802-.372098.0472136-.5236068l.858-1.133-1.937 1.114c-.22223957.1285782-.50574389.0679309-.65592975-.1403165s-.11823213-.4963997.07392975-.6666835l.161-.142-.133.076c-.21989257.1179958-.49312141.0557887-.64025961-.1457705-.14713819-.2015592-.12312958-.4807496.05625961-.6542295l.306-.274c-.20682639.1022673-.45677403.0497307-.60492624-.1271497-.1481522-.1768804-.15603323-.4321681-.01907376-.6178503l1.013-1.374c-.1832864.0037945-.35428953-.0918448-.447-.25-.13806467-.2391402-.05613408-.5449248.183-.683l1.747-1.01c.20506065-.1181262.46485129-.0763143.62249336.1001867.15764207.1765011.16995634.4393467.02950664.6298133l-.924 1.249 2.049-1.183c.2198926-.1179958.4931214-.0557887.6402596.1457705s.1231296.4807496-.0562596.6542295l-.3.27.266-.153c.2218647-.1262356.5031961-.0650788.6526317.1418714.1494355.2069502.1189881.4932377-.0706317.6641286l-.24.213c.1799222-.04281.3687807.0171939.491.156.1571445.1782062.1671768.4423892.024.632l-.983 1.3c.2207812.0121382.4073726.1678504.4588264.3828951.0514538.2150446-.0444499.4383496-.2358264.5491049l-1.738 1c-.07402843.0470245-.15934111.0732745-.247.076z"/><path id="Path" d="m25.6 21.308c-.198649.0001864-.3785669-.1172419-.4583598-.299161s-.0443244-.3938197.0903598-.539839l.056-.061-.377.217c-.2104359.1206411-.4771079.0728408-.6325393-.1133813-.1554313-.186222-.1547824-.4571434.0015393-.6426187l.767-.9-.776.447c-.1961463.1128455-.4436308.0798866-.6034081-.0803592-.1597772-.1602458-.1920112-.4078258-.0785919-.6036408l.709-1.217c-.2400971.0473605-.4791916-.0860253-.5650111-.315208-.0858195-.2291826.006859-.4868038.2190111-.608792l1.448-.836c.1963119-.1125616.443751-.0792415.603295.0812396s.1914144.4081111.077705.6037604l-.681 1.17 1.643-.948c.2104359-.1206411.4771079-.0728408.6325393.1133813.1554313.186222.1547824.4571434-.0015393.6426187l-.766.9.71-.409c.2140094-.1242074.4866819-.073198.6413187.1199729.1546367.1931709.1447222.4703962-.0233187.6520271l-.28.3c.214488.0244558.3890603.1838085.4329261.3951825.0438658.2113741-.0528815.4270329-.2399261.5348175l-2.3 1.327c-.0752324.0452138-.1612285.0693895-.249.07z"/><path id="Path" d="m33.1 21.316c-.1962539-.0002482-.3742152-.1152855-.4550196-.2941327-.0808045-.1788471-.0495082-.3884285.0800196-.5358673l.869-.987-1.123.648c-.1992437.1162507-.4521568.0811062-.6121555-.0850646-.1599987-.1661707-.1855498-.4202324-.0618445-.6149354l1.103-1.765c-.2391901.1236004-.5333025.0356095-.6653121-.1990443s-.05451-.5317031.1753121-.6719557l1.732-1c.1991965-.1152477.4513319-.0796452.6108298.0862515.1594978.1658967.1851601.4192369.0621702.6137485l-1.107 1.767 2.024-1.169c.2119487-.1215228.4806809-.0720808.6354985.1169206.1548177.1890014.1503782.4622079-.0104985.6460794l-.87.988.191-.109c.2374252-.1242009.5305531-.0391619.6646466.1928199.1340935.2319817.0614797.5284321-.1646466.6721801l-2.832 1.635c-.0748277.0429945-.1597009.0654203-.246.065z"/></g><path id="Path" d="m29.175 59.47c-.2180248.0029872-.4128443-.1356561-.4814531-.342626-.0686088-.20697.004816-.434534.1814531-.562374l2.139-1.558-4.014 2.321c-.2318603.1330617-.527371.0602043-.6708066-.1653857-.1434357-.22559-.0840493-.5240996.1348066-.6776143l2.723-1.9-3.976 2.3c-.2296891.1296297-.5205695.0585592-.6646041-.1623819s-.0916869-.5157667.1196041-.6736181l6.982-5.1-8.24 4.751c-.2325262.1307666-.5267591.0559509-.6685809-.1700024s-.0812744-.5234503.1375809-.6759976l5.109-3.48-5.5 3.176c-.2324067.1328499-.5282158.0590851-.6710333-.1673329s-.0819688-.5251514.1380333-.6776671l6.6-4.54-6.727 3.885c-.2340569.1357068-.5336008.0606207-.6759704-.1694442s-.0759129-.5316408.1499704-.6805558l1.79-1.165-1.544.892c-.1523738.093425-.3430146.0984627-.5001098.0132156-.1570953-.085247-.2567785-.2478279-.2615-.4265-.0047215-.178672.086236-.3462906.2386098-.4397156l1.665-1.08-1.3.751c-.2335451.1328438-.5303244.0573638-.6720248-.1709163s-.0776546-.5277351.1450248-.6780837l4.384-2.907-4.045 2.335c-.2310609.1298083-.523268.0567757-.6660866-.1664779-.1428185-.2232536-.086628-.5191613.1280866-.6745221l6.408-4.517-6.114 3.534c-.2309306.1317312-.5245674.0597083-.6683337-.1639283-.1437664-.2236366-.0873821-.520673.1283337-.6760717l4.171-2.97-3.8 2.194c-.2318603.1330617-.527371.0602043-.6708066-.1653857-.1434357-.22559-.0840493-.5240996.1348066-.6776143l1.115-.779-.49.283c-.2230421.1299097-.508313.0686909-.6584139-.1412949-.150101-.2099857-.1156933-.4997155.0794139-.6687051l3.11-2.717-2.388 1.379c-.2254575.1330437-.5153687.0696598-.6647344-.1453323-.1493656-.2149921-.1076129-.5087994.0957344-.6736677l.417-.344c-.1134643-.00173-.2239668-.0364792-.318-.1-.1604574-.1213413-.2325665-.3270296-.183-.522l.457-1.814c-.1791204-.0707263-.3017018-.2380365-.3151494-.4301445-.0134475-.1921081.0846292-.3748644.2521494-.4698555l.521-.3c.1739348-.1004898.391121-.0871307.5514291.0339182.160308.121049.2326094.3262826.1835709.5210818l-.392 1.555 3.667-2.116c.2248836-.1275609.509928-.0626394.65739.1497267.1474621.2123662.1087026.5021295-.08939.6682733l-.143.118 1.628-.939c.2226556-.1273746.5055829-.0655928.6548741.1430023.1492912.2085952.1165111.4963282-.0758741.6659977l-3.109 2.716 6.117-3.531c.2318603-.1330617.527371-.0602043.6708066.1653857.1434357.22559.0840493.5240996-.1348066.6776143l-1.125.785 2.826-1.631c.2309306-.1317312.5245674-.0597083.6683337.1639283.1437664.2236366.0873821.520673-.1283337.6760717l-4.171 2.971 6.61-3.816c.2310609-.1298083.523268-.0567757.6660866.1664779.1428185.2232536.086628.5191613-.1280866.6745221l-6.409 4.518 8.477-4.894c.2340569-.1357068.5336008-.0606207.6759704.1694442s.0759129.5316408-.1499704.6805558l-4.39 2.91 3.963-2.287c.2342478-.1308833.5300435-.0535271.6702262.1752769s.074765.527467-.1482262.6767231l-1.646 1.065 1.2-.7c.2342478-.1308833.5300435-.0535271.6702262.1752769s.074765.527467-.1482262.6767231l-1.8 1.17 1.36-.784c.23171-.1276221.5227312-.0526794.6639792.1709853s.08384.5186462-.1309792.6730147l-6.6 4.541 6.189-3.572c.2325262-.1307666.5267591-.0559509.6685809.1700024s.0812744.5234503-.1375809.6759976l-5.1 3.475 4.637-2.674c.2296891-.1296297.5205695-.0585592.6646041.1623819s.0916869.5157667-.1196041.6736181l-6.981 5.1 6.114-3.53c.2318603-.1330617.527371-.0602043.6708066.1653857.1434357.22559.0840493.5240996-.1348066.6776143l-2.731 1.9 1.98-1.142c.2296891-.1296297.5205695-.0585592.6646041.1623819s.0916869.5157667-.1196041.6736181l-2.139 1.558 1.38-.8c.2202286-.1227467.4973928-.0623225.6465459.1409526s.1236267.4857984-.0595459.6590474l-2.624 2.394 1.188-.685c.1549945-.0985297.351531-.1041539.5119064-.0146489.1603754.0895049.2587712.2597296.2562855.4433739s-.1054527.3511436-.2681919.436275l-5.175 2.997c-.2202286.1227467-.4973928.0623225-.6465459-.1409526s-.1236267-.4857984.0595459-.6590474l2.623-2.395-5.536 3.2c-.0760751.0435012-.1623707.0659381-.25.065z" fill="#f9eac0"/><path id="Path" d="m37.7 48.4c-.2099802.0001646-.3976912-.1308859-.469899-.3280602-.0722078-.1971744-.013526-.4184572.146899-.5539398l1.932-1.635-4.009 2.317c-.227445.1317107-.5180356.064845-.6650404-.1530278-.1470048-.2178727-.1002333-.512366.1070404-.6739722l3.1-2.413-4.432 2.559c-.2318603.1330617-.527371.0602043-.6708066-.1653857-.1434357-.22559-.0840493-.5240996.1348066-.6776143l.74-.516-1.257.726c-.228997.1275142-.5175965.0565488-.6613452-.1626219-.1437487-.2191708-.0938504-.5121485.1143452-.6713781l3.852-2.858-4.397 2.536c-.227445.1317107-.5180356.064845-.6650404-.1530278-.1470048-.2178727-.1002333-.512366.1070404-.6739722l5.046-3.931-5.253 3.028c-.2305507.1302945-.5227069.0582293-.6662193-.1643342-.1435123-.2225634-.0886-.5184238.1252193-.6746658l2.133-1.527-1.78 1.026c-.2374252.1242009-.5305531.0391619-.6646466-.1928199-.1340935-.2319817-.0614797-.5284321.1646466-.6721801l10.616-6.125c.2305507-.1302945.5227069-.0582293.6662193.1643342.1435123.2225634.0886.5184238-.1252193.6746658l-2.136 1.53 2.667-1.539c.227445-.1317107.5180356-.064845.6650404.1530278.1470048.2178727.1002333.512366-.1070404.6739722l-5.045 3.931 5.7-3.288c.2292016-.1303039.5201978-.0602449.6649792.1600976s.0935911.5152436-.1169792.6739024l-3.849 2.855 3.927-2.267c.2311923-.1280141.5220815-.054013.6639947.1689178.1419132.2229309.0858401.5178012-.1279947.6730822l-.745.519.449-.259c.227445-.1317107.5180356-.064845.6650404.1530278.1470048.2178727.1002333.512366-.1070404.6739722l-3.1 2.414 2.589-1.494c.2243015-.1303348.511027-.0674761.6602307.1447421.1492038.2122182.1113211.5032983-.0872307.6702579l-1.928 1.633.778-.449c.2374252-.1242009.5305531-.0391619.6646466.1928199.1340935.2319817.0614797.5284321-.1646466.6721801l-5.6 3.233c-.0760011.0424636-.1619607.0638672-.249.062z" fill="#f9eac0"/><path id="Path" d="m24.415 48.337c-.2076989.0000626-.3938087-.1282848-.4675638-.3224472-.073755-.1941624-.019795-.4137033.1355638-.5515528l1.724-1.529-4.036 2.33c-.2347029.1405531-.538787.0663884-.6824238-.1664401-.1436368-.2328284-.0734897-.5378644.1574238-.6845599l3.619-2.371-4.8 2.772c-.230817.1267753-.5204005.0527915-.6621232-.1691615-.1417226-.221953-.0869993-.5157856.1251232-.6718385l8.317-5.844-9.665 5.58c-.2340027.1389988-.5362016.0652981-.6799386-.1658244s-.0762078-.5347601.1519386-.6831756l3.762-2.5-4.133 2.386c-.2337734.1287456-.5274505.051198-.667188-.1761759-.1397374-.2273739-.07627-.5244122.144188-.6748241l.389-.253-.325.186c-.23158.1294027-.5239091.0554223-.6660571-.1685604-.142148-.2239828-.0846277-.5199909.1310571-.6744396l3.737-2.6-3.6 2.077c-.2305507.1302945-.5227069.0582293-.6662193-.1643342-.1435123-.2225634-.0886-.5184238.1252193-.6746658l2.894-2.074-2.432 1.4c-.2236156.1271011-.5071788.0638125-.6555296-.1463081s-.1130835-.4985123.0815296-.6666919l3.439-2.928-2.227 1.285c-.2238916.1275836-.5080784.0641108-.6564103-.1466086-.148332-.2107193-.1122202-.4996603.0834103-.6673914l1.408-1.192c-.064052-.042315-.1171689-.0992015-.155-.166-.1373847-.2389169-.0555349-.543953.183-.682l3.114-1.8c.2238916-.1275836.5080784-.0641108.6564103.1466086.148332.2107193.1122202.4996603-.0834103.6673914l-.214.181 2.145-1.234c.2236156-.1271011.5071788-.0638125.6555296.1463081s.1130835.4985123-.0815296.6666919l-3.438 2.925 6.48-3.74c.2305507-.1302945.5227069-.0582293.6662193.1643342.1435123.2225634.0886.5184238-.1252193.6746658l-2.894 2.075 5.046-2.912c.2311923-.1280141.5220815-.054013.6639947.1689178.1419132.2229309.0858401.5178012-.1279947.6730822l-3.735 2.6 5.963-3.442c.2341443-.133112.5316521-.0568382.672871.1725078.1412189.2293459.075396.5293391-.148871.6784922l-.382.249 1.908-1.1c.2327769-.1270897.524286-.0503218.6642741.174934.139988.2252559.0797468.5206233-.1372741.673066l-3.764 2.5 5.729-3.307c.230817-.1267753.5204005-.0527915.6621232.1691615.1417226.221953.0869993.5157856-.1251232.6718385l-8.316 5.843 10.413-6.012c.2341443-.133112.5316521-.0568382.672871.1725078.1412189.2293459.075396.5293391-.148871.6784922l-10.016 6.565.01.014c.1499946.2078885.1184654.4955388-.073.666l-1.725 1.53.392-.225c.1549945-.0985297.351531-.1041539.5119064-.0146489.1603754.0895049.2587712.2597296.2562855.4433739s-.1054527.3511436-.2681919.436275l-4.66 2.691c-.0760084.0438886-.1622305.0669961-.25.067z" fill="#f9eac0"/><path id="Path" d="m29.579 40.381c-.2039095.0000053-.3873931-.1238142-.4636915-.3129111s-.0301233-.405581.1166915-.5470889l2.247-2.167-3.716 2.146c-.2208953.136633-.509623.0813788-.6644625-.1271591-.1548394-.208538-.1242214-.5009064.0704625-.6728409l2.631-2.489-3.458 2c-.2266506.1274915-.5131906.0599635-.6590607-.1553189-.1458701-.2152823-.1023667-.5064398.1000607-.6696811l.28-.221-.289.166c-.1980203.1138754-.4480385.0790694-.6074259-.0845621-.1593875-.1636315-.1876128-.4144778-.0685741-.6094379l1.147-1.872-.727.42c-.23893.1358451-.5427102.0533708-.6801373-.1846528-.137427-.2380237-.0569695-.5423443.1801373-.6813472l2.432-1.4c.1982675-.1148466.449226-.0802316.609.084.1594839.1638633.1874837.4150386.068.61l-1.148 1.873 4.64-2.686c.2266506-.1274915.5131906-.0599635.6590607.1553189.1458701.2152823.1023667.5064398-.1000607.6696811l-.278.219 1.08-.623c.2208953-.136633.509623-.0813788.6644625.1271591.1548394.208538.1242214.5009064-.0704625.6728409l-2.634 2.49 3.579-2.066c.2190652-.1318893.5023394-.0772423.6566242.1266708s.1298566.4913741-.0566242.6663292l-2.251 2.162 1.253-.722c.1549945-.0985297.351531-.1041539.5119064-.0146489.1603754.0895049.2587712.2597296.2562855.4433739s-.1054527.3511436-.2681919.436275l-4.792 2.766c-.0753233.0460883-.1617013.0709652-.25.072z" fill="#4f442b"/><path id="Path" d="m29.309 56.471c-.1589527.0007879-.3089997-.0733094-.405-.2-.1503695-.2067151-.1206065-.4935606.069-.665l2.8-2.545-4.92 2.839c-.2280542.1290416-.517047.0601323-.6623353-.1579314-.1452882-.2180638-.0975826-.5113034.1093353-.6720686l3.078-2.345-3.678 2.12c-.227731.1281621-.5157443.059345-.6609391-.1579231-.1451949-.217268-.0985947-.509699.1069391-.6710769l2.842-2.187-2.811 1.623c-.2230711.126215-.5054574.0633143-.6538691-.1456472-.1484117-.2089616-.1147824-.4963073.0778691-.6653528l3.335-2.867-3.111 1.8c-.2269587.1282325-.5143539.0605795-.6602778-.1554298-.145924-.2160093-.1014061-.5078844.1022778-.6705702l1.245-.975-.923.532c-.1708489.0984729-.3836186.0873305-.5432474-.028449s-.2362978-.3145683-.1957526-.507551l.216-1.025c-.1902168.0169404-.3722632-.0809636-.463-.249-.1375532-.2386555-.0561721-.5436114.182-.682l.737-.426c.170901-.0991028.384131-.0882862.5441261.0276021.159995.1158883.2367533.3151173.1958739.5083979l-.2.956 6.074-3.507c.2269587-.1282325.5143539-.0605795.6602778.1554298.145924.2160093.1014061.5078844-.1022778.6705702l-1.247.978 1.621-.936c.2235892-.1309392.5101637-.0693762.6602503.1418375.1500866.2112138.1139527.5020905-.0832503.6701625l-3.335 2.86 4.729-2.73c.2279124-.1308241.5182022-.0628918.6643976.1554793.1461953.2183711.0983971.512647-.1093976.6735207l-2.842 2.189 3.911-2.258c.2285788-.1329729.5211739-.064966.667677.1551861.1465031.220152.0962484.5163129-.114677.6758139l-3.081 2.347 2.181-1.259c.2201191-.1211079.4959248-.0600693.6443868.1426092s.1234717.48405-.0583868.6573908l-2.802 2.539 1.8-1.038c.2157843-.1245835.4903641-.0712785.6438596.1249944s.1390557.4756061-.0338596.6550056l-.946.978c.2214752.0105422.409555.1656843.4620252.3811124.0524701.2154282-.0432032.4396818-.2350252.5508876l-2.614 1.509c-.2157843.1245835-.4903641.0712785-.6438596-.1249944s-.1390557-.4756061.0338596-.6550056l.745-.77-2.753 1.589c-.0754832.0456007-.1618163.0701194-.25.071z" fill="#8e234c"/><path id="Path" d="m29.542 44.808c-.1556405-.0001662-.3023275-.0728007-.3968059-.1964851-.0944784-.1236843-.125972-.2843112-.0851941-.4345149l.411-1.523c-.0650234-.2214862.0300263-.4586973.23-.574l.09-.052c.1755449-.1011811.3947986-.0864172.5551938.0373852.1603952.1238023.2302184.3321646.1768062.5276148l-.216.8c.217085.0196065.3964546.1775829.443327.3904522.0468724.2128692-.0495544.4315742-.238327.5405478l-.72.415c-.0759776.0442004-.1621068.0679721-.25.069z" fill="#8e234c"/><path id="Path" d="m56.776 3.965c-.0586229-.00013763-.116792-.0102834-.172-.03-.1395724-.05051322-.2494868-.16042764-.3-.3l-.164-.456-1.173.676c-.1549945.09852969-.351531.10415386-.5119064.01464894s-.2587712-.25972968-.2562855-.44337398c.0024857-.18364429.1054527-.35114353.2681919-.43627496l1.69-.976c.1279279-.07522026.2829343-.08881086.422-.037.1395724.05051322.2494868.16042764.3.3l.165.458c.2425624-.11550792.5330466-.01868373.6577974.21925705.1247509.23794079.0391697.53193369-.1937974.66574295l-.483.278c-.0757146.04371941-.1615697.06682097-.249.067z" fill="#49412c"/><path id="Path" d="m41.544 10.958c-.2193644.0000724-.413158-.1428481-.4778958-.3524424-.0647378-.2095942.0147008-.4369085.1958958-.5605576l2.262-1.545-2.878 1.66c-.1193311.0679338-.2610145.0848781-.393.047-.1306671-.0403923-.2390845-.1325471-.3-.255l-.6-1.185-.7.4c-.2374252.12420086-.5305531.03916186-.6646466-.19281988-.1340935-.23198173-.0614797-.52843213.1646466-.67218012l1.155-.667c.1188723-.07039968.2619032-.08746174.394-.047.1306671.04039227.2390845.13254709.3.255l.6 1.185 13.83-7.98c.2328603-.1351428.5309189-.06163617.6742423.16628028.1433233.22791645.080443.52839646-.1422423.67971972l-2.257 1.542 3.026-1.748c.23893-.13584515.5427102-.05337078.6801373.18465285.137427.23802363.0569695.54234426-.1801373.68134715l-14.439 8.337c-.0758978.0441549-.1621931.067282-.25.067z" fill="#49412c"/><path id="Path" d="m47.682 3.558c-.226294-.00000996-.4243705-.15200579-.4829405-.37058883-.0585699-.21858305.0369699-.4492542.2329405-.56241117l3.168-1.825c.2374252-.12420086.5305531-.03916186.6646466.19281988.1340935.23198173.0614797.52843213-.1646466.67218012l-3.168 1.825c-.0759114.04423822-.1621395.06769228-.25.068z" fill="#49412c"/><path id="Path" d="m17.46 11.259c-.1943398.0002519-.3712201-.112128-.4535562-.2881643-.0823361-.1760364-.0552102-.3838345.0695562-.5328357l.622-.746-1.509.871c-.2041983.116256-.4617963.0746408-.619-.1-.1583158-.173147-.1749518-.4330839-.04-.625l.843-1.2-1.918 1.115c-.1990398.1123116-.4488979.07537155-.6069237-.08973013-.1580259-.16510168-.1839931-.41633724-.0630763-.61026987l.921-1.426-2.019 1.161c-.1992882.11726676-.452989.08258652-.6134939-.08386303-.1605049-.16644956-.1859398-.42124331-.0615061-.61613697l1.039-1.685-2.1 1.21c-.2167987.11912235-.4881174.06180726-.638215-.13482062-.1500976-.19662789-.1338516-.47345796.038215-.65117938l.226-.226-.568.328c-.21070402.12186598-.47855133.07429265-.63440169-.11267838-.15585036-.18697104-.15441415-.45900658.00340169-.64432162l.887-1.04-1.391.8c-.2036526.11724195-.46146652.07684795-.61950163-.09706283-.15803511-.17391079-.17364056-.43440294-.03749837-.62593717l1.1-1.534-1.881 1.091c-.21020118.12476987-.47979927.07926739-.63740589-.10758071-.15760661-.18684809-.15701198-.46025851.00140589-.64641929l.634-.756-1.354.782c-.15839356.09123595-.35394991.08876638-.50998899-.00644037-.15603907-.09520675-.24768835-.26797479-.23901101-.45055963l.069-1.452-2.258 1.305c-.23892998.13584515-.54271023.05337078-.68013727-.18465285-.13742703-.23802363-.05696954-.54234426.18013727-.68134715l3.058-1.763c.15839356-.09123595.35394991-.08876638.50998899.00644037.15603907.09520675.24768835.26797479.23901101.45055963l-.075 1.452 3.01-1.737c.20982655-.1208975.47612972-.07405089.632101.1111958.1559714.1852467.1567714.45563779.001899.6418042l-.635.757 1.429-.824c.2039394-.11925687.463519-.07949727.6224131.09533452s.1737357.43701896.0355869.62866548l-1.1 1.532 1.9-1.1c.210704-.12186598.4785513-.07429265.6344017.11267838.1558503.18697104.1544141.45900658-.0034017.64432162l-.887 1.04 1.352-.78c.2167987-.11912235.4881174-.06180726.638215.13482062.1500976.19662789.1338516.47345796-.038215.65117938l-.228.228.517-.3c.1992882-.11726676.452989-.08258652.6134939.08386303.1605049.16644956.1859398.42124331.0615061.61613697l-1.03 1.683 2.1-1.211c.1990398-.1123116.4488979-.07537155.6069237.08973013.1580259.16510168.1839931.41633724.0630763.61026987l-.921 1.425 2.09-1.206c.2036802-.11907824.4631768-.07715633.619.1.1583158.17314699.1749518.43308388.04.625l-.844 1.2 1.975-1.139c.2098266-.12089751.4761297-.07405089.632101.1111958.1559714.1852467.1567714.45563779.001899.6418042l-.62.744 1.575-.909c.2374252-.12420086.5305531-.03916186.6646466.19281988.1340935.23198173.0614797.52843213-.1646466.67218012l-4.008 2.311c-.0757231.044686-.162075.0681737-.25.068z" fill="#49412c"/><path id="Path" d="m15.016 54.213c-.1712039.0004005-.3307097-.0868229-.4227563-.2311779-.0920466-.1443549-.1038348-.325769-.0312437-.4808221l.243-.519-1.266.731c-.1991965.1152477-.4513319.0796452-.6108298-.0862515-.1594978-.1658967-.1851601-.4192369-.0621702-.6137485l.96-1.522-2.308 1.332c-.1990945.1132785-.4497027.0767785-.6082143-.0885839-.1585116-.1653623-.1843818-.4172898-.0627857-.6114161l1.034-1.613c-.2421917.1174358-.5338867.0220734-.6599355-.2157494-.1260487-.2378228-.0412123-.5327511.1919355-.6672506l1.747-1.009c.1990945-.1132785.4497027-.0767785.6082143.0885839.1585116.1653623.1843818.4172898.0627857.6114161l-1.031 1.613 2.281-1.317c.1991965-.1152477.4513319-.0796452.6108298.0862515.1594978.1658967.1851601.4192369.0621702.6137485l-.96 1.522.888-.512c.1889645-.1068674.4252987-.0795888.5849485.0675172.1596498.1471059.2061336.3804237.1150515.5774828l-.442.945c.1469064.0941905.2340757.2581593.22999.4326204-.0040858.174461-.0988353.3341695-.24999.4213796l-.655.379c-.0760188.0428613-.1617316.0655803-.249.066z" fill="#49412c"/><path id="Path" d="m45.235 54.171c-.1945745-.0002601-.3713269-.1133746-.453069-.2899462-.0817422-.1765716-.0536264-.3845278.072069-.5330538l1.225-1.448-1.732 1c-.2016831.1161827-.4568603.077834-.6154853-.0924968-.1586251-.1703309-.178739-.4275884-.0485147-.6205032l1.117-1.647c-.2422734.067139-.496724-.0560557-.5943172-.2877444-.0975931-.2316887-.0079762-.4998134.2093172-.6262556l1.747-1.009c.2016831-.1161827.4568603-.077834.6154853.0924968.1586251.1703309.178739.4275884.0485147.6205032l-1.095 1.619 2.34-1.35c.2102322-.1207224.4767777-.0732389.6323878.1126561.1556102.1858951.1554467.4566369-.0003878.6423439l-1.226 1.446 1.169-.675c.2374252-.1242009.5305531-.0391619.6646466.1928199.1340935.2319817.0614797.5284321-.1646466.6721801l-3.661 2.11c-.0756184.0452887-.1618652.0697828-.25.071z" fill="#49412c"/><path id="Path" d="m18.483 30.373c-.2034588-.0004153-.3863763-.1240742-.4625824-.3127228s-.0305018-.4046612.1155824-.5462772l.262-.254-1.466.846c-.222272.1250569-.5030453.0627806-.6515981-.1445262-.1485528-.2073069-.1172703-.4931974.0725981-.6634738l1.44-1.261-2.06 1.189c-.2222396.1285782-.5057439.0679309-.6559297-.1403165-.1501859-.2082474-.1182322-.4963997.0739297-.6666835l2.549-2.261-2.875 1.66c-.2203354.1244491-.4989119.0646624-.6487785-.1392378-.1498666-.2039001-.1237692-.4876223.0607785-.6607622l2.94-2.7-2.826 1.631c-.2271272.1307942-.5167067.0640046-.6636035-.1530559-.1468968-.2170604-.1012506-.5107158.1046035-.6729441l.481-.376c-.2120659.0656041-.4419952-.0164639-.5645941-.2015189s-.1085106-.4287846.0345941-.5984811l1.7-2.072c-.2397938.0475079-.4787816-.0853354-.5650226-.3140722-.0862409-.2287368.0055532-.4862953.2170226-.6089278l2.181-1.259c.2091618-.1199379.4741262-.0735246.6300667.1103675s.1584356.4528792.0059333.6396325l-1.653 2.015 3.583-2.068c.2271272-.1307942.5167067-.0640046.6636035.1530559.1468968.2170604.1012506.5107158-.1046035.6729441l-.409.319.609-.35c.2203354-.1244491.4989119-.0646624.6487785.1392378.1498666.2039001.1237692.4876223-.0607785.6607622l-2.938 2.7 3.205-1.851c.2222396-.1285782.5057439-.0679309.6559297.1403165.1501859.2082474.1182322.4963997-.0739297.6666835l-2.549 2.259 2.224-1.283c.2226556-.1273746.5055829-.0655928.6548741.1430023.1492912.2085952.1165111.4963282-.0758741.6659977l-1.441 1.261.576-.332c.2187434-.1297091.5000021-.0745628.6535686.128145s.1305136.4883932-.0535686.663855l-1.092 1.053c.1443385.0957569.2288347.2593967.2233354.432523-.0054993.1731264-.1002107.3310737-.2503354.417477l-2.175 1.255c-.0757038.0447318-.1620685.0682231-.25.068z" fill="#fff"/><path id="Path" d="m41.675 30.4c-.200563.000005-.3817201-.1198358-.4601731-.3044182-.0784529-.1845824-.0390176-.3981814.1001731-.5425818l1.73-1.785-3.024 1.747c-.2190652.1318893-.5023394.0772423-.6566242-.1266708s-.1298566-.4913741.0566242-.6663292l3.019-2.912-3.59 2.079c-.2227723.1294397-.5074311.0684047-.6575526-.1409889s-.1165485-.4985799.0775526-.6680111l2.618-2.3-2.506 1.447c-.2234669.1287231-.5081764.0663691-.6573848-.1439733-.1492085-.2103425-.1139612-.4996608.0813848-.6680267l1.82-1.568-1.233.712c-.2102322.1207224-.4767777.0732389-.6323878-.1126561-.1556102-.1858951-.1554467-.4566369.0003878-.6423439l1.621-1.92c-.1917769.0104412-.373949-.0846718-.475-.248-.1380647-.2391402-.0561341-.5449248.183-.683l2.181-1.259c.210167-.1194548.4756964-.0714408.6307221.1140495.1550256.1854903.1551426.4553258.0002779.6409505l-1.53 1.813 3.359-1.94c.2235892-.1309392.5101637-.0693762.6602503.1418375.1500866.2112138.1139527.5020905-.0832503.6701625l-1.822 1.566 2.274-1.31c.2223898-.1269737.5047663-.065395.6540994.1426415.1493332.2080365.1173442.4952735-.0740994.6653585l-2.617 2.3 2.757-1.592c.2190652-.1318893.5023394-.0772423.6566242.1266708s.1298566.4913741-.0566242.6663292l-3.019 2.912 2.591-1.5c.2160865-.1262428.4922254-.073282.6462727.123949.1540472.197231.1385487.4779753-.0362727.657051l-1.73 1.783.461-.266c.1549945-.0985297.351531-.1041539.5119064-.0146489.1603754.0895049.2587712.2597296.2562855.4433739s-.1054527.3511436-.2681919.436275l-3.565 2.059c-.0766792.044906-.1641455.068069-.253.067z" fill="#fff"/><path id="Shape" d="m58.614 3.737c-.0125963-.03596793-.0338958-.06826068-.062-.094-1.6911001-2.27700104-4.5579216-3.35411241-7.33-2.754-1.3766211.29956761-2.6656604.91243442-3.767 1.791-2.7647859 2.22903876-5.8088649 4.08742293-9.055 5.528-2.3906557-.95100819-4.9284322-1.47920408-7.5-1.561-.2608263-.09524281-.537465-.13970867-.815-.131-.2362279.01033213-.469838.05375534-.694.129-2.4689889.08271308-4.9064138.58067797-7.21 1.473-2.6537354-.84616764-5.1564867-2.10783783-7.415-3.738-1.946-1.536-3.207-3.28-5.766-3.695-2.91855078-.46545714-5.8453302.78465523-7.527 3.215-.01554496.01986866-.02895236.04132051-.04.064-.35938037.54403117-.63983633 1.1362545-.833 1.759-1.086 3.514 1.227 6.492 2.886 9.377l5.2 9.051c-.20935582 1.0493141-.33839652 2.1130642-.386 3.182-.075 1.981.292 4.486-.592 6.289-.615 1.256-1.794 2.23-2.393 3.572-.7677807 1.7271655-1.11068049 3.6131143-1 5.5-.02703153.1653642-.04207074.3324666-.045.5-.00058666.4739931.09962975.9426923.294 1.375.62920978 2.9718478 2.33982482 5.6040566 4.8 7.386.323.232.65.436.978.626.0863178.1105351.2128591.1824336.352.2 1.2657015.66271 2.6326005 1.1107961 4.045 1.326.121.212.568.251.944.133 1.645689.1520615 3.2986676.2108222 4.951.176.2081196.813976.5537573 1.5864188 1.022 2.284 2.182 3.093 5.837 2.663 9.145 2.663 2.862 0 5.706-.377 7.509-2.909.4292889-.6253093.7563758-1.314926.969-2.043 1.5203237-.0171401 3.0378976-.1337224 4.543-.349.161.244.975-.02 1.3-.231 1.4691525-.2896708 2.8939692-.7707734 4.238-1.431.0699645-.0262836.1369944-.0597986.2-.1 2.9548948-1.4975839 5.0813881-4.2426068 5.793-7.478.067-.268.119-.539.167-.81.1202119-.3505875.1918768-.7159779.213-1.086 0-.026-.013-.042-.016-.066s.013-.033.012-.052c0-.1-.026-.189-.038-.284.109291-1.9027842-.2255321-3.8049077-.978-5.556-.5-1.156-1.381-1.992-1.96-3.074-1.008-1.882-.914-3.967-1.024-6.086-.0675513-1.3157777-.2286246-2.6250827-.482-3.918.0274217-.0187909.0514335-.0421262.071-.069 1.6066667-2.8 3.214-5.6 4.822-8.4 1.6-2.789 4.168-5.978 3.448-9.395-.1727433-.81907311-.5035868-1.59658938-.974-2.289zm-12.053.863c2.561-2.023 3.939-5.24 8.806-2.276.2816169.18042111.5419362.39209833.776.631-1.0063891-.04893868-2.0088072.15746175-2.914.6-1.436.695-2.478 2.026-3.716 3-2.129984 1.62658758-4.4945999 2.92033221-7.013 3.837-1.0964389-.74273433-2.2594229-1.38214118-3.474-1.91 2.6985778-.8935265 5.2409236-2.20333228 7.535-3.882zm-16.403 3c.849.257 1.082 1.77 1.112 2.472-.029.686-.253 2.693-1.428 2.336-.824-.25-1.1-1.8-1.112-2.472-.008-.736.284-2.687 1.428-2.336zm-17.876-3.628c2.606169 1.95524887 5.4625859 3.55246112 8.493 4.749-.257.121-.518.231-.771.363-.7461797.39644227-1.4687273.8358474-2.164 1.316-2.3228809-.85162272-4.5221661-2.00843331-6.54-3.44-1.439-1.043-2.7-2.709-4.319-3.46-1.03700188-.47623272-2.1955266-.62148477-3.318-.416 1.696-1.716 4.675-2 8.619.888zm-9.139 7.622c-1.581-2.888-1.37-6.294.257-8.235 1.205.133 3.9 1.945 4.509 2.477.8862512.79135321 1.82143335 1.52613918 2.8 2.2 1.9064476 1.26394357 3.9565273 2.2965365 6.107 3.076-3.0163005 2.303001-5.3848424 5.3478262-6.875 8.838-.29445775.708132-.54984156 1.4318864-.765 2.168-2.027-3.498-4.093-6.979-6.033-10.524zm2.757 32.249c-.063-.36-.11-.724-.138-1.09-.009-.121 0-.226 0-.345.16-1.091.909-2.583 2.158-1.86.87661736.5908396 1.38979807 1.5892779 1.36 2.646-.055 1.139-.843 3.168-2.312 2.176-.51960837-.3724235-.89641171-.9111676-1.068-1.527zm9.149 9.308c-1.1502206-.2238414-2.2618266-.6135771-3.3-1.157.053-1.239.808-3.123 2.323-2.263 1.0898508.7681064 1.4963116 2.1923853.976 3.42zm14.512 5.49c-3.826 0-6.737-1.158-7.559-5.292-.32-1.612-.476-3.274-.67-4.916.896083.0932194 1.8010633.0520993 2.685-.122.1554757 1.6723806.473989 3.3255684.951 4.936.908 2.356 3.279 2.222 5.365 2.222 1.93 0 3.9-.4 4.683-2.427.4739743-1.5376129.7860015-3.1205392.931-4.723.9357627.0855604 1.8789985.0343562 2.8-.152-.224 1.776-.373 3.59-.72 5.34-.905 4.544-4.627 5.134-8.467 5.134zm1.164-16.835v-1.5c2.24-.437 4.78-2.516 5-4.894 0-.019-.01-.03-.012-.048 3.442.263 6.837 1.667 7.449 5.576 1.238 7.89-11.715 8.721-12.438.866zm3.82 6.27c-.223 1.239-.426 2.485-.675 3.719-.262 1.3-.37 2.373-2.173 2.736-.6746013.061499-1.3533987.061499-2.028 0-.8437419.0942541-1.6900977-.1532266-2.3501415-.6871989-.6600439-.5339723-1.0788238-1.3099801-1.1628585-2.1548011-.243-1.255-.457-2.516-.684-3.774 1.8313477-.6152808 3.3885628-1.8539746 4.4-3.5.9194877 1.8673782 2.638922 3.2147346 4.672 3.661zm-.279-12.429c-.2699971 1.3997796-1.1168332 2.6212126-2.333 3.365-2.124 1.337-4.472-.225-5.61-2.094-.3568497-.4539068-.5543483-1.012666-.562-1.59.231-1.434 2.183-1.777 3.387-1.87 1.595-.123 4.791.142 5.117 2.189zm-9.682 1.153c.8491848 1.9116765 2.6214525 3.2525866 4.692 3.55v1.843c-.384 4.172-4.675 5.983-8.134 5.176-.0762068-.0453839-.1633032-.0692317-.252-.069-2.0810357-.488775-3.6733303-2.1663219-4.053-4.27-.856-4.6 3.161-7.607 7.559-7.712-.1002709.5012961-.034265 1.0216194.188 1.482zm20.229 14.222c.132-.549.523-1.512 1.109-1.7.705-.224 1.5.525 1.844 1.053.3011271.4858308.4703615 1.041788.491 1.613-1.0454301.4935818-2.1477536.8563208-3.282 1.08-.2647619-.6487232-.3213725-1.3636943-.162-2.046zm7.547-5.534c-1.0460619-.436707-1.6967723-1.4922503-1.617-2.623 0-1.135.706-2.755 2.092-2.267.801373.3877979 1.3298652 1.1791968 1.381 2.068-.0286454.5646746-.0984979 1.1265027-.209 1.681-.28.733-.797 1.353-1.647 1.141zm.9-8.134c.3594964.8157063.6229318 1.6704451.785 2.547-.5327106-.2963857-1.1464195-.4141505-1.751-.336-1.7608046.2616595-3.0534214 1.7901928-3.019 3.57-.0437267.8623284.26731 1.7049931.8608088 2.3321147s1.4177633.9840749 2.2811912.9878853c.3493419-.0171556.6936913-.0900767 1.02-.216-.066.172-.122.346-.2.515-.7558534 1.7877681-2.004386 3.32381-3.6 4.429-.1226652-.8464911-.6166209-1.5941075-1.3471627-2.0389701-.7305417-.4448626-1.6214749-.5405728-2.4298373-.2610299-.9263123.2378231-1.7104568.8531684-2.1617093 1.6963679-.4512524.8431996-.5282593 1.8369815-.2122907 2.7396321-1.3237461.1637875-2.656164.2476062-3.99.251.3371236-1.9262146.5754354-3.868422.714-5.819.6948313-.2580647 1.3538356-.6038655 1.961-1.029 1.5284762-1.0835928 2.4614262-2.8203378 2.521-4.693.0194336-.034601.0319973-.0726316.037-.112 0-2.3.456-5.236-.661-7.348-1.03-1.951-3.12-2.322-4.35-4.02-.248637-.3474794-.4478692-.7277705-.592-1.13.8760187.8124708 2.0749551 1.1806945 3.256 1 2.7-.366 4.343-2.972 4.345-5.554 0-2.627-1.778-5.4-4.641-5.318-2.971.084-4.688 2.807-4.813 5.53 0 3.418.181 5.674 3.158 7.8 1.5402834 1.0327314 2.5437012 2.6949626 2.74 4.539-.032-.039-.058-.081-.091-.12-2.023-2.43-4.648-2.595-7.529-2.6-1.341-3.2-9.349-2.781-10.931.039-2.9004029.2036971-5.6617711 1.3207769-7.888 3.191.085-2.879 1.337-3.884 3.447-5.72 2.381-2.072 2.536-4.192 2.544-7.108 0-.049.01-.1.012-.148s-.007-.086-.01-.128v-.022c-.17-2.612-1.706-5.386-4.661-5.342-2.916.043-4.775 2.9-4.8 5.591-.022 2.635 1.716 5.452 4.578 5.483 1.2255358.019296 2.3998405-.4909543 3.222-1.4-.1417059.6238977-.4061774 1.2133496-.778 1.734-1.254 1.715-3.317 2.066-4.351 4.019-.6829232 1.6581018-.9317623 3.4629599-.723 5.244-.563 1.516-.369 3.323 1.059 5.392.8523331 1.2259144 2.0909689 2.1307734 3.518 2.57.2 1.668.258 3.659.635 5.481-1.3398514.0098396-2.6791334-.0586103-4.011-.205.728-1.883.024-4.408-2.185-4.83-1.7642045-.2880411-3.4431108.8619128-3.812 2.611-.253-.188-.5-.385-.748-.6-1.34242058-1.1955627-2.39443818-2.6815889-3.076-4.345.31871671.0680895.64659074.0822861.97.042 1.77907896-.1693652 3.1429592-1.6549588 3.16-3.442.0449962-.8808101-.3094366-1.7349787-.96481769-2.3251709-.65538104-.5901922-1.5418813-.8535246-2.41318231-.7168291-.51649807.0816272-1.01130688.2662878-1.455.543.46-2.466 1.882-4.243 3.17-6.644 1.343-2.5.515-4.317.715-7.209.19063639-2.692832.9057053-5.3224512 2.105-7.741 3.1170205-6.3045426 9.2787281-10.54329482 16.281-11.2-.5723688.72960817-.8861336 1.62869224-.892 2.556-.016 1.527.8 3.415 2.561 3.416 1.9 0 2.831-1.893 2.9-3.552-.0186934-.83355939-.2548226-1.64777445-.685-2.362 5.4382567.63965555 10.3965082 3.4227554 13.775 7.732 1.7408378 2.2197332 3.017482 4.7669001 3.754 7.49.767 2.887.089 5.635.469 8.457.351 2.605 2.136 3.671 3.217 6.107zm-14.529-12.469c.1-1.94 1.2-4.994 3.753-4.321 1.9.5 2.769 2.823 2.763 4.571-.008 2.194-1.441 5.1-4.084 4.14-1.722-.623-2.34-2.748-2.432-4.39zm-17.465.168c-.087 1.875-1.061 4.714-3.484 4.38-2.033-.281-3.034-2.687-3.048-4.486-.014-1.887 1.142-4.7 3.484-4.38 2.082.288 2.964 2.683 3.048 4.486zm35.975-13.784c-1.788 3.819-4.172 7.458-6.355 11.109-.9070154-3.6346784-2.7930207-6.9511839-5.453-9.589-.679353-.6611398-1.4026724-1.2755437-2.165-1.839 2.3293359-.8729207 4.5349237-2.0458053 6.561-3.489.758-.55 1.441-1.177 2.171-1.761 1.0684143-1.06794661 2.4821714-1.72058623 3.988-1.841.3656187.11624634.7407197.20023416 1.121.251.135.2.264.4.373.586 1.241 2.161.753 4.45-.241 6.573z" fill="#262626"/><path id="Shape" d="m30.067 23.481c-1.6007834.1225928-2.8285153 1.4717825-2.8 3.077-.0543842.7344273.1867822 1.4601614.6699197 2.0159666.4831374.5558052 1.1682332.8956507 1.9030803.9440334 1.6378977-.0733905 2.9200836-1.4366826 2.893-3.076-.07-1.511-.977-3.02-2.666-2.961zm-.047 4.986c-.867-.082-1.275-1.315-1.287-2.025-.012-.692.336-2 1.247-1.909.882.084 1.254 1.314 1.287 2.025-.032.689-.304 1.998-1.247 1.909z" fill="#262626"/><path id="Shape" d="m28.485 17.6c-.5347523-1.4411161-2.0753468-2.2416889-3.562-1.851-.7362375.2623527-1.3272468.8237341-1.6270851 1.5455177s-.2805561 1.536688.0530851 2.2434823c.5161962 1.4078111 1.9958535 2.2150135 3.459 1.887.7622015-.2419457 1.383236-.8005082 1.7043354-1.5328906s.3111388-1.567593-.0273354-2.2921094zm-1.785 2.769c-.765.43-1.63-.594-1.9-1.22-.3840777-.73505-.310911-1.6255033.188-2.288.775-.688 1.748.485 2.05 1.126.255.698.462 1.934-.338 2.382z" fill="#262626"/><path id="Shape" d="m35.263 15.7c-1.5615021-.3227988-3.1290876.5234274-3.716 2.006-.527 1.434-.258 3.3 1.44 3.742 1.5390765.2784851 3.0604291-.5695025 3.633-2.025.59-1.384.225-3.231-1.357-3.723zm-.029 3.557c-.272.646-.985 1.509-1.77 1.088-.864-.463-.818-1.693-.532-2.472.32-.677 1.046-1.58 1.865-1.022.6630538.6176303.8408645 1.5978275.437 2.409z" fill="#262626"/><path id="Path" d="m17.267 25.057v1c0 .748 1.466.525 1.466-.114v-1c0-.743-1.466-.525-1.466.114z" fill="#262626"/><path id="Path" d="m42.725 25.913v-1c0-.618-1.45-.319-1.45.174v1c0 .618 1.45.319 1.45-.174z" fill="#262626"/></g></svg>