<svg height="512" viewBox="0 0 50 60" width="512" xmlns="http://www.w3.org/2000/svg"><g id="024---Chicken" fill="none"><path id="Path" d="m24.583 59.448c-.2220643.0001161-.4175972-.1462439-.4800683-.3593399-.0624712-.213096.0230901-.4418614.2100683-.5616601l5.646-3.607-7.513 4.337c-.2354116.1379583-.5379577.061708-.6798637-.1713453-.1419059-.2330532-.070765-.5368414.1598637-.6826547l8.73-5.6-10.7 6.179c-.2347713.1336383-.5332399.0566316-.6740509-.1739091-.1408109-.2305408-.0730402-.5312411.1530509-.6790909l12.04-7.791-14.168 8.18c-.2347034.1364868-.5354374.0607325-.6774741-.1706544-.1420368-.2313868-.073465-.5338394.1544741-.6813456l14.827-9.666-16.952 9.791c-.2349709.1292146-.5300387.050062-.6687925-.179405-.1387537-.2294671-.0717837-.5275361.1517925-.675595l11.3-7.146-12.654 7.31c-.2361735.1361818-.537908.0580681-.6783318-.1756081-.1404239-.2336761-.0677709-.5367718.1633318-.6813919l8.3-5.174-9.354 5.4c-.2354116.1379583-.5379577.061708-.6798637-.1713453-.1419059-.2330532-.070765-.5368414.1598637-.6826547l14.982-9.58-16.325 9.419c-.23560872.1297647-.5316571.04988-.67000668-.1807924-.13834959-.2306723-.06941665-.5294607.15600668-.6762076l8.874-5.524-9.687 5.593c-.23583577.1260453-.52910097.0442222-.66561588-.1857118-.13651492-.2299339-.06795177-.5265795.15561588-.6732882l.667-.408-1.041.6c-.23497088.1292146-.53003872.050062-.66879247-.179405-.13875376-.2294671-.07178369-.5275361.15179247-.675595l13.9-8.781-14.784 8.537c-.23460579.1253855-.5263122.0451285-.66376043-.18262s-.07251115-.523243.14776043-.67238l14.7-9.281-15.39 8.882c-.23497088.1292146-.53003872.050062-.66879247-.179405-.13875376-.2294671-.07178369-.5275361.15179247-.675595l16.43-10.431-17.051 9.84c-.23473446.1238045-.5252986.0426548-.6619149-.1848618-.13661629-.2275167-.07168534-.5221296.1479149-.6711382l12.882-8.054-13.204 7.626c-.23520866.125628-.52761522.0445694-.66457305-.1842276-.13695782-.228797-.07026696-.5248112.15157305-.6727724l10.258-6.359-10.265 5.921c-.23628449.1306359-.5336041.0500916-.67163931-.181948s-.06692381-.5317553.16063931-.677052l2.8-1.712-2.68 1.55c-.23543794.13455-.53521485.0569022-.67572813-.1750261s-.0705395-.5335888.15772813-.6799739l17.04-10.869-16.815 9.705c-.23460579.1253855-.5263122.0451285-.66376043-.18262s-.07251115-.523243.14776043-.67238l13.463-8.49-12.869 7.429c-.23508655.127347-.52875831.0472199-.66659082-.1818764-.13783251-.2290964-.071048-.5260868.15159082-.6741236l10.792-6.773-9.854 5.689c-.23541159.1379583-.53795774.061708-.67986369-.1713453-.14190596-.2330532-.07076502-.5368414.15986369-.6826547l14.078-9.058-12.098 6.987c-.23470337.1364868-.53543738.0607325-.67747413-.1706544-.14203676-.2313868-.07346495-.5338394.15447413-.6813456l12.877-8.419-8.511 4.913c-.23332909.1269664-.52520994.0493179-.66460758-.1768043-.13939765-.2261221-.07764593-.5217747.14060758-.6731957l7.328-4.8-5.489 3.168c-.2314518.1313128-.52520132.0583356-.66829177-.1660259-.14309045-.2243616-.08538078-.5214879.13129177-.6759741l7.9-5.541-6.29 3.623c-.23041837.1322364-.52401892.0611893-.66848638-.1617642-.14446747-.2229535-.0893536-.5199576.12548638-.6762358l4.721-3.411-2.619 1.512c-.2269587.1282325-.5143539.0605795-.6602778-.1554298-.145924-.2160093-.1014061-.5078844.1022778-.6705702l4.475-3.5c-.0237661-.0262997-.0445585-.0551407-.062-.086-.1382327-.2388784-.0567713-.5445824.182-.683l3.312-1.912c.2271272-.1307942.5167067-.0640046.6636035.1530559.1468968.2170604.1012506.5107158-.1046035.6729441l-2.266 1.774 4.956-2.861c.2304184-.1322364.5240189-.0611893.6684864.1617642.1444674.2229535.0893536.5199576-.1254864.6762358l-4.719 3.409 7.618-4.4c.2314518-.1313128.5252013-.0583356.6682918.1660259.1430904.2243616.0853808.5214879-.1312918.6759741l-7.9 5.545 11.012-6.357c.2341443-.133112.5316521-.0568382.672871.1725078.1412189.2293459.075396.5293391-.148871.6784922l-7.325 4.8 8.788-5.074c.2352733-.1446986.5433014-.0712733.688.164s.0712733.5433014-.164.688l-12.88 8.418 14.469-8.351c.2354116-.1379583.5379577-.061708.6798637.1713453.1419059.2330532.070765.5368414-.1598637.6826547l-14.098 9.067 15.392-8.889c.2361735-.1361818.537908-.0580681.6783318.1756081.1404239.2336761.0677709.5367718-.1633318.6813919l-10.77 6.763 11.548-6.667c.2346058-.1253855.5263122-.0451285.6637604.18262.1374483.2277485.0725112.523243-.1477604.67238l-13.471 8.492 14.206-8.2c.2354379-.13455.5352149-.0569022.6757281.1750261.1405133.2319283.0705395.5335888-.1577281.6799739l-17.032 10.866 17.844-10.3c.2374824-.1411088.5443912-.0629824.6855.1745s.0629824.5443912-.1745.6855l-2.826 1.726 2.9-1.674c.2369302-.1419372.5440628-.0649301.686.172.1419371.2369302.0649301.5440628-.172.686l-10.257 6.361 10.49-6.052c.2361735-.1361818.537908-.0580681.6783318.1756081.1404239.2336761.0677709.5367718-.1633318.6813919l-12.873 8.043 12.993-7.5c.2341527-.123715.5241564-.0433988.6613045.1831476.1371481.2265465.0738659.5207372-.1443045.6708524l-16.439 10.436 16.593-9.579c.2346058-.1253855.5263122-.0451285.6637604.18262.1374483.2277485.0725112.523243-.1477604.67238l-14.684 9.274 14.773-8.529c.2363779-.1427656.5437344-.0668778.6865.1695.1427656.2363779.0668779.5437344-.1695.6865l-13.91 8.785 14.247-8.225c.2369888-.1350471.5384839-.055235.6776156.1793791.1391316.2346142.0645535.5374465-.1676156.6806209l-.656.4.8-.464c.2356087-.1297647.5316571-.04988.6700067.1807924.1383496.2306723.0694166.5294607-.1560067.6762076l-8.882 5.529 9.31-5.375c.2343611-.1288923.5286543-.0505227.6678755.1778537.1392213.2283764.0740613.5258734-.1478755.6751463l-14.979 9.581 15.752-9.093c.2350866-.127347.5287583-.0472199.6665908.1818764.1378325.2290964.071048.5260868-.1515908.6741236l-8.3 5.174 8.622-4.978c.2363779-.1430418.5439582-.0673779.687.169s.0673779.5439582-.169.687l-11.3 7.142 11.621-6.709c.2342478-.1308833.5300435-.0535271.6702262.1752769s.074765.527467-.1482262.6767231l-14.819 9.655 15.091-8.712c.2347713-.1336383.5332399-.0566316.6740509.1739091.1408109.2305408.0730402.5312411-.1530509.6790909l-12.037 7.789 11.972-6.914c.2343611-.1288923.5286543-.0505227.6678755.1778537.1392213.2283764.0740613.5258734-.1478755.6751463l-8.731 5.608 8.416-4.859c.2354116-.1379583.5379577-.061708.6798637.1713453.1419059.2330532.070765.5368414-.1598637.6826547l-5.647 3.605 4.958-2.862c.2347029-.1405531.538787-.0663884.6824238.1664401.1436368.2328284.0734897.5378644-.1574238.6845599l-6.3 4.125 5.308-3.065c.2305507-.1302945.5227069-.0582293.6662193.1643342.1435123.2225634.0886.5184238-.1252193.6746658l-7.5 5.377 5.306-3.063c.2299138-.1328235.5235501-.0627731.6687427.1595365s.0912979.5193359-.1227427.6764635l-3.138 2.312c.0875387.0443386.1596773.1140378.207.2.1382327.2388784.0567713.5445824-.182.683l-5.7 3.293c-.2299138.1328235-.5235501.0627731-.6687427-.1595365s-.0912979-.5193359.1227427-.6764635l1.475-1.09-6.266 3.618c-.2305507.1302945-.5227069.0582293-.6662193-.1643342-.1435123-.2225634-.0886-.5184238.1252193-.6746658l7.5-5.377-11.893 6.864c-.2341443.133112-.5316521.0568382-.672871-.1725078-.1412189-.2293459-.075396-.5293391.148871-.6784922l6.3-4.125-8.818 5.091c-.0767759.0446734-.1641767.067819-.253.067z" fill="#f8e6bf"/><path id="Path" d="m26.51 50.389c-.2099802.0001646-.3976912-.1308859-.469899-.3280602-.0722078-.1971744-.013526-.4184572.146899-.5539398l3.5-2.957-6.487 3.742c-.2290632.1321979-.5214568.063148-.6671806-.1575572-.1457237-.2207053-.094369-.5167199.1171806-.6754428l2.85-2.131-4.651 2.686c-.2271272.1307942-.5167067.0640046-.6636035-.1530559-.1468968-.2170604-.1012506-.5107158.1046035-.6729441l4.517-3.54-6.552 3.783c-.2290091.1407924-.5283546.075307-.6776589-.1482459s-.0951216-.5251491.1226589-.6827541l4.651-3.475-6.2 3.577c-.2322377.1273115-.5234633.0514462-.664069-.1729923-.1406056-.2244384-.0818101-.5195841.134069-.6730077l1.161-.787-1.852 1.07c-.2296891.1296297-.5205695.0585592-.6646041-.1623819s-.0916869-.5157667.1196041-.6736181l4.981-3.639-6.089 3.515c-.2046858.1184914-.4643967.0773602-.6224526-.0985797-.1580559-.1759398-.1712186-.438558-.0315474-.6294203l1.053-1.441-1.095.632c-.23893.1358451-.5427102.0533708-.6801373-.1846528-.137427-.2380237-.0569695-.5423443.1801373-.6813472l3.144-1.816c.2047369-.1196267.4653423-.0789942.623943.0972827.1586008.1762769.1715725.4397117.031057.6307173l-1.05 1.44 12.106-6.988c.2294759-.1268358.5179525-.0548652.6609568.1648989.1430044.219764.0919582.5126682-.1169568.6711011l-4.98 3.637 5.9-3.406c.2333681-.1382671.5344194-.0652417.6785003.1645824.144081.2298241.078635.5326135-.1475003.6824176l-1.168.79 1.414-.816c.2288588-.1292299.518701-.0592157.6633326.1602346.1446317.2194502.0946742.513414-.1143326.6727654l-4.646 3.472 5.351-3.089c.2269587-.1282325.5143539-.0605795.6602778.1554298.145924.2160093.1014061.5078844-.1022778.6705702l-4.517 3.54 5.768-3.33c.2290632-.1321979.5214568-.063148.6671806.1575572.1457237.2207053.094369.5167199-.1171806.6754428l-2.845 2.131 4.086-2.358c.2238916-.1275836.5080784-.0641108.6564103.1466086.148332.2107193.1122202.4996603-.0834103.6673914l-3.5 2.958 5.033-2.905c.2230711-.126215.5054574-.0633143.6538691.1456472.1484117.2089616.1147824.4963073-.0778691.6653528l-2.07 1.787 2.757-1.593c.1549945-.0985297.351531-.1041539.5119064-.0146489.1603754.0895049.2587712.2597296.2562855.4433739s-.1054527.3511436-.2681919.436275l-7.345 4.24c-.2231941.1282474-.5072862.0660776-.6565145-.1436697s-.1148202-.4985197.0795145-.6673303l2.069-1.784-5.29 3.053c-.0749025.0440368-.1601129.0674956-.247.068z" fill="#f59140"/><path id="Path" d="m21.28 40.205c-.226294-.00001-.4243705-.1520058-.4829405-.3705888-.0585699-.2185831.0369699-.4492542.2329405-.5624112l2.627-1.517c.1549945-.0985297.351531-.1041539.5119064-.0146489.1603754.0895049.2587712.2597296.2562855.4433739s-.1054527.3511436-.2681919.436275l-2.627 1.518c-.0758978.0441549-.1621931.067282-.25.067z" fill="#f59140"/><path id="Path" d="m23.979 22.938c-.2033744-.0000204-.3864729-.1232227-.4631008-.3116088-.0766279-.188386-.0315153-.4044155.1141008-.5463912l2.148-2.094-2.165 1.25c-.2269587.1282325-.5143539.0605795-.6602778-.1554298-.145924-.2160093-.1014061-.5078844.1022778-.6705702l.955-.749-1.187.685c-.2247363.1292165-.510959.0652384-.6592891-.1473681-.1483301-.2126064-.1095663-.5033193.0892891-.6696319l3.778-3.153-5.28 3.048c-.2312043.1356861-.5282776.0648879-.6734329-.160492-.1451554-.2253799-.0867349-.525133.1324329-.679508l2.377-1.7-6.565 3.79c-.2340569.1357068-.5336008.0606207-.6759704-.1694442s-.0759129-.5316408.1499704-.6805558l2.068-1.368-2.427 1.4c-.2336556.130691-.5287926.0541466-.6694787-.1736308-.140686-.2277774-.0769932-.5259521.1444787-.6763692l2.088-1.363-2.142 1.236c-.2340569.1357068-.5336008.0606207-.6759704-.1694442s-.0759129-.5316408.1499704-.6805558l3.857-2.551-3.589 2.074c-.2079146.1194294-.4713404.0744499-.6278456-.1072036-.1565052-.1816534-.1620244-.4488348-.0131544-.6367964l1.519-1.908c-.2419464.1073869-.5256649.0075943-.6471116-.2276092-.1214467-.2352036-.0385329-.5243057.1891116-.6593908l2.244-1.3c.2078536-.1182361.47033-.0727469.6262743.1085383.1559442.1812852.1616968.4476121.0137257.6354617l-1.52 1.906 15.536-8.963c.233204-.12874209.5263939-.05204834.6666872.17439464s.0784231.52311505-.1406872.67460536l-3.846 2.543 3.236-1.868c.2336556-.13069104.5287926-.05414659.6694787.17363081.140686.22777741.0769932.52595205-.1444787.67636919l-2.085 1.367 1.314-.761c.233204-.12874209.5263939-.05204834.6666872.17439464s.0784231.52311506-.1406872.67460536l-2.068 1.371 1.3-.749c.2305507-.1302945.5227069-.0582293.6662193.1643342.1435123.2225634.0886.5184238-.1252193.6746658l-2.389 1.7 1.354-.781c.2247363-.1292165.510959-.0652384.6592891.1473681.1483301.2126064.1095663.5033193-.0892891.6696319l-3.775 3.15 2.262-1.3c.2271272-.1307942.5167067-.0640046.6636035.1530559.1468968.2170604.1012506.5107158-.1046035.6729441l-1.221.958c.1714627-.0159982.3385507.0601239.439.2.1521751.2011243.1307378.4840964-.05.66l-2.308 2.243c.1882531-.0138415.3672605.0834791.458.249.1382327.2388784.0567713.5445824-.182.683l-3.077 1.776c-.0758978.0441549-.1621931.067282-.25.067z" fill="#d45"/><path id="Path" d="m24 3.134c-.226294-.00000996-.4243705-.15200579-.4829405-.37058883-.0585699-.21858305.0369699-.4492542.2329405-.56241117l2.482-1.433c.1549945-.09852969.351531-.10415386.5119064-.01464894s.2587712.25972968.2562855.44337398c-.0024857.18364429-.1054527.35114353-.2681919.43627496l-2.483 1.433c-.0756179.04406906-.161479.06751706-.249.068z" fill="#d45"/><path id="Path" d="m18.241 12.844c-.2152152 0-.4062846-.137715-.4743416-.3418861-.0680571-.2041711.0021694-.4289848.1743416-.5581139l5.64-4.144-5.77 3.332c-.2292016.1303039-.5201978.0602449-.6649792-.1600976s-.0935911-.5152436.1169792-.6739024l5.237-3.89-5.127 2.962c-.2253165.12652975-.5099298.06052016-.6565485-.15227149-.1466186-.21279165-.1069324-.50225149.0915485-.66772851l.712-.58-.182.1c-.2132183.12135773-.4829881.07008988-.6368234-.12102378-.1538354-.19111367-.146285-.46560802.0178234-.64797622l1.212-1.327c-.2177477-.01813458-.3985003-.17556034-.4463605-.3887558s.0482584-.432776.2373605-.5422442l2.31-1.334c.2132183-.12135773.4829881-.07008988.6368234.12102378.1538354.19111367.146285.46560802-.0178234.64797622l-1.013 1.11 2.785-1.608c.2257586-.1294404.5130594-.0640705.6605892.15030466.1475298.21437517.1059565.50607128-.0955892.67069534l-.713.581 7.256-4.182c.2292016-.13030393.5201978-.0602449.6649792.1600976.1447814.22034249.0935911.51524355-.1169792.6739024l-5.237 3.885 6.114-3.53c.2299138-.13282353.5235501-.06277315.6687427.15953646.1451926.2223096.0912979.51933596-.1227427.67646354l-5.638 4.14 5.76-3.325c.1549945-.09852969.351531-.10415386.5119064-.01464894s.2587712.25972968.2562855.44337398c-.0024857.18364429-.1054527.35114353-.2681919.43627496l-13.633 7.871c-.0757806.0445497-.1620945.0680271-.25.068z" fill="#d45"/><path id="Path" d="m16.933 37.457c-.1988826.0001568-.378948-.1175718-.4585728-.2998194-.0796249-.1822476-.0436675-.3943575.0915728-.5401806l1.76-1.9-3.287 1.9c-.2256086.1271264-.5109479.0609576-.657579-.1524896-.1466312-.2134471-.106025-.5035297.093579-.6685104l1.032-.834-1.323.764c-.2254575.1330437-.5153687.0696598-.6647344-.1453323-.1493656-.2149921-.1076129-.5087994.0957344-.6736677l1.706-1.407-1.759 1.016c-.2174475.1222843-.4917629.0655717-.6428937-.1329134-.1511308-.1984852-.1328285-.4780031.0428937-.6550866l2.8-2.786-2.393 1.381c-.2123689.1214471-.4814292.0713915-.6359136-.1183044-.1544843-.1896959-.1490205-.4633181.0129136-.6466956l1.414-1.585c-.1836785.0001159-.3544746-.094351-.452-.25-.1380647-.2391402-.0561341-.5449248.183-.683l2.34-1.352c.2127146-.1241989.4841939-.0749768.6397645.1159961.1555705.1909728.148881.4667972-.0157645.6500039l-1.292 1.448 3.021-1.744c.217123-.1206668.4899085-.063641.6405105.1338986s.1333491.4756874-.0405105.6531014l-2.8 2.787 3.66-2.112c.2248836-.1275609.509928-.0626394.65739.1497267.1474621.2123662.1087026.5021295-.08939.6682733l-1.706 1.406 1.647-.951c.2260575-.1301558.5141897-.0646595.6617686.1504288.1475789.2150884.1050107.5074886-.0977686.6715712l-1.031.833.614-.348c.214156-.122774.4858627-.0708854.6397046.1221662s.1437736.4694853-.0237046.6508338l-1.759 1.9.443-.263c.1547852-.0907422.3463247-.0915917.5019087-.0022259.155584.0893657.2513568.2552442.2509624.4346667-.0003945.1794226-.0968957.3448784-.2528711.4335592l-3.317 1.914c-.0758413.0442906-.1621742.0674278-.25.067z" fill="#fff"/><path id="Path" d="m32.145 37.315c-.2090383-.0000532-.3959807-.1301413-.4686699-.3261344-.0726891-.1959931-.0157811-.4165194.1426699-.5528656l.7-.595-1.411.814c-.2187434.1297091-.5000021.0745628-.6535686-.128145s-.1305136-.4883932.0535686-.663855l2.8-2.7-3.452 1.992c-.2247363.1292165-.510959.0652384-.6592891-.1473681-.1483301-.2126064-.1095663-.5033193.0892891-.6696319l1.733-1.438-1.611.93c-.228437.1350478-.5225838.0681125-.6700912-.1524842s-.0969864-.5180027.1150912-.6775158l.293-.227c-.1739741.0276132-.3498585-.0366886-.465-.17-.1549727-.1855662-.1549727-.4554338 0-.641l1.669-2.029c-.2426235.1095764-.5285587.0098285-.6503802-.2268837-.1218215-.2367123-.0368032-.5273675.1933802-.6611163l2.34-1.352c.2091618-.1199379.4741262-.0735246.6300667.1103675s.1584356.4528792.0059333.6396325l-1.669 2.022 3.685-2.127c.2274132-.1273482.5145055-.05864.6596263.1578646.1451209.2165046.0995839.5081708-.1046263.6701354l-.112.087.311-.179c.225024-.1298327.5119893-.0657046.6603401.147566s.108657.5046224-.0913401.670434l-1.736 1.44 1.862-1.075c.2187434-.1297091.5000021-.0745628.6535686.128145s.1305136.4883932-.0535686.663855l-2.8 2.7 2.558-1.477c.2238668-.1315043.5111377-.0697824.6612322.1420698s.1130656.5033364-.0852322.6709302l-.771.659c.2422752-.0632988.4940127.0623844.5890121.2940719.0949995.2316875.0039604.4979203-.2130121.6229281l-4.473 2.587c-.0774748.0447454-.1655365.0678832-.255.067z" fill="#fff"/><path id="Path" d="m25.272 55.439c-.2173194-.0001878-.4096325-.1407301-.4758165-.3477263s.0089184-.4330406.1858165-.5592737l3.018-2.149-4.826 2.786c-.2241703.1280952-.5090066.0644456-.6573283-.1468868-.1483216-.2113324-.1113468-.5008421.0853283-.6681132l2.883-2.421-4.521 2.61c-.2262036.1284409-.5131028.0619842-.6597948-.1528333-.1466919-.2148176-.1041677-.5062269.0977948-.6701667l1.252-1-2.079 1.2c-.225024.1298327-.5119893.0657046-.6603401-.147566s-.108657-.5046224.0913401-.670434l.831-.688-1.471.849c-.2064997.1192475-.468472.0760768-.6257899-.1031247-.157318-.1792015-.1661971-.4445584-.0212101-.6338753l1.55-2.03-2.624 1.515c-.2012751.1156035-.455642.0774893-.6141943-.0920306-.1585524-.1695199-.1795934-.4258643-.0508057-.6189694l.92-1.371-1.567.9c-.1826924.1052057-.4117448.0845179-.5726303-.0517194-.1608856-.1362374-.2190335-.3587498-.1453697-.5562806l.481-1.279-1.012.584c-.1737077.0995798-.3900704.0859287-.5498848-.0346941-.1598144-.1206229-.232258-.3249537-.1841152-.5193059l.186-.742-.363.21c-.1277468.075785-.2830144.0893985-.422.037-.1395724-.0505132-.2494868-.1604276-.3-.3l-.486-1.349c-.1417208-.0269846-.2645106-.1146915-.336-.24-.1382327-.2388784-.0567713-.5445824.182-.683l.213-.123c.1282195-.0742865.282785-.0878721.4219973-.0370914.1392123.0507806.2487284.1606955.2990027.3000914l.444 1.23.87-.5c.1739348-.1004898.391121-.0871307.5514291.0339182.160308.121049.2326094.3262826.1835709.5210818l-.187.741 1.2-.691c.182643-.1044653.4111431-.0834104.5716211.0526714.160478.1360817.2185918.3580691.1453789.5553286l-.48 1.279 2.224-1.284c.2012751-.1156035.455642-.0774893.6141943.0920306.1585524.1695199.1795934.4258643.0508057.6189694l-.92 1.371 2.921-1.686c.2063079-.1194052.468219-.0765693.6257371.1023402.1575181.1789094.1668365.4441367.0222629.6336598l-1.551 2.03 4.44-2.563c.2245986-.1270093.5089574-.0622563.656419.1494768.1474617.2117332.109592.5009023-.087419.6675232l-.834.691 2.745-1.584c.2262036-.1284409.5131028-.0619842.6597948.1528333.1466919.2148176.1041677.5062269-.0977948.6701667l-1.252 1 3.666-2.116c.2240372-.1259992.5071082-.0616068.6545964.1489061s.1113381.4985559-.0835964.6660939l-2.884 2.422 9.029-5.212c.2309306-.1317312.5245674-.0597083.6683337.1639283.1437664.2236366.0873821.520673-.1283337.6760717l-3.024 2.15 2.5-1.443c.2283835-.1299972.5184238-.0610156.6638282.1578813.1454044.2188968.0965443.5129964-.1118282.6731187l-3.194 2.421c.1489271.0928498.2382712.256983.2354046.4324599-.0028666.175477-.0975241.3366043-.2494046.4245401l-4.733 2.733c-.2281943.1273484-.5159664.0574929-.6603781-.1603041-.1444117-.2177969-.0967481-.5100652.1093781-.6706959l1.51-1.145-4.711 2.719c-.0745306.0441739-.1593681.0679698-.246.069z" fill="#d97d38"/><g fill="#262626"><path id="Shape" d="m43.374 31.943c-.977-1.582-1.32-3.322-2.133-4.98-2.314-4.719-6.691-7.506-11.608-8.814.7505863-1.5652786 1.3784742-3.1864865 1.878-4.849 1.289-4.2 2.807-10.127-1.841-12.426-.0689239-.06803208-.1561217-.1145839-.251-.134-2.724-.7-5.851.314-6.866 2.974-.3695322-.11309058-.749976-.186833-1.135-.22-.1144338-.03414856-.2351025-.04201082-.353-.023-5.208.7-5.322 5.149-3.561 9.076-1.8091898.1885394-3.3313 1.4384964-3.8680897 3.1764756s.0153322 3.6285806 1.4030897 4.8045244c-5.67 3.891-6.756 9.912-11.16 14.88-3.369 3.8-4.76 8.7-2.278 13.377 4.976 9.383 18.657 11.524 28.123 10.255 8.067-1.081 19.953-5.851 20-15.644-.0449558-2.5329104-.9161457-4.9817933-2.481-6.974-1.206-1.622-2.8-2.752-3.869-4.479zm-25.065-18.377c.0785326.0052622.1574119.0012343.235-.012.6885207.1821441 1.308895.5613196 1.785 1.091.361.391 1.744-.146 1.342-.581-.6563393-.712682-1.5212382-1.1995595-2.471-1.391-1.124-2.161-3.366-7.438 1.712-8.139.5486979.01683274 1.0846725.16937937 1.56.444.0615981.02978843.1263335.05259676.193.068.7242035.52694026 1.2478329 1.28435164 1.485 2.148.132.473 1.581.084 1.448-.388-.2784534-1.00671344-.918705-1.87521937-1.798-2.439.2417704-1.01064636.8967492-1.87335683 1.8052573-2.37780893.9085082-.5044521 1.987071-.60429621 2.9727427-.27519107 4.785 2.12 2.2 10.128.729 13.715-.6981248 1.7151586-1.595986 3.3420495-2.675 4.847-.4066667.562-.84 1.1033333-1.3 1.624-.776.32-1.1366667.014-1.082-.918-1.153-1.171-1.681-2.289-3.533-2.55-1.037-.147-1.418.226-2.395.26-.5103014.1838243-1.0109453.3934271-1.5.628-3.2893333-1.48-2.7936667-3.398 1.487-5.754zm8.626 45.028c-8.652.351-21.12-2.452-24.538-11.666-1.993-5.374.987-9.17 4.38-13.079 1.06956126-1.2697343 1.90397198-2.7201324 2.464-4.283 1.2327663-3.5039745 3.5431349-6.5277569 6.6-8.638.1355157-.0081078.2682316-.0420505.391-.1.9488537-.7495648 2.1963261-1.0061793 3.364-.692 1.928-.642 3.104.0986667 3.528 2.222.207.233.506.72.691.929.212717.2037562.5214095.2716686.8.176 1.9-.492 3.418-2.34 4.577-4.453 5.0017967 1.2845241 9.120896 4.8236821 11.144 9.575.4783692 1.5684896 1.1459488 3.0728942 1.988 4.48 1.628 2.238 3.91 3.749 5.051 6.4 5.206 12.117-11.249 18.757-20.44 19.129z"/><path id="Shape" d="m16.836 37.5c2.7319277-.0916546 4.8993805-2.3325353 4.9-5.066-.134-2.6-1.848-4.99-4.66-4.94-2.6960031.1361574-4.8093102 2.3665769-4.8 5.066-.1025811 2.6224858 1.9376994 4.8327896 4.56 4.94zm.373-8.97c1.958.255 2.968 2.262 3.059 4.03-.1 1.875-1.2 4.2-3.477 3.9-1.9-.248-3.041-2.265-3.059-4.03-.02-1.881 1.297-4.182 3.477-3.897z"/><path id="Shape" d="m32.914 37.448c2.6827134-.1355577 4.7941111-2.3399375 4.814-5.026 0-.026-.013-.041-.016-.064s.013-.033.012-.052c-.14-2.735-2.214-5.086-5.1-4.723-2.5091133.3593045-4.3660897 2.5183707-4.346 5.053-.0388283 1.2572543.4313796 2.4769713 1.3040965 3.3828198.8727168.9058484 2.0740753 1.4211568 3.3319035 1.4291802zm.922-8.759c1.5176705.714071 2.4712535 2.2561934 2.432 3.933-.117 1.967-1.359 4.382-3.751 3.831-1.788-.412-2.77-2.406-2.764-4.089.008-2.14 1.661-4.58 4.083-3.675z"/><path id="Shape" d="m38.58 45.786c-.0853963-.5235289-.3297829-1.0081127-.7-1.388-1.431-1.58-4.434-1.539-6.119-2.685-1.426-.971-2.268-2.647-3.827-3.45-1.7307527-.7950387-3.7270528-.77081-5.438.066-.5803822.3047911-1.1182994.684359-1.6 1.129-2.1397319 1.8030843-4.552511 3.2545323-7.148 4.3-.0865807.0353089-.1698996.0781395-.249.128-.016.007-.041.014-.053.021-.8256757.4111254-1.4608107 1.1250701-1.773 1.993-.27.128-.461.282-.354.358.083.059.179.108.264.166-.229 3.55 7.117 7.811 10.053 8.538 5.475 1.355 10.854-1.307 14.593-5.191 1.085-1.128 2.412-2.39 2.368-3.765.141-.123.111-.191-.017-.22zm-17.433-5.325c1.485-1 4.929-1.664 6.622-.793.66.339 1.257 1.375 1.793 1.844 1.448 1.267 2.8 1.581 4.588 2.294 1.684.67 2.432 1.584 2.436 2.689-6.1 3.6-17.56 3.384-23.488-.486.0925273-.8518764.6137388-1.5974879 1.382-1.977 2.3483308-.938452 4.5845208-2.1362073 6.667-3.571zm14.134 9c-2.862 3.708-8.737 5.937-13.1 4.713-1.36-.381-7.21-3.666-8.724-6.7 6.414 3.074 16.619 2.935 23.029-.231-.2525144.8120298-.6619154 1.5666187-1.205 2.221z"/><path id="Path" d="m17.724 32.806v-1c0-.3-1.448-.074-1.448.388v1c0 .298 1.448.074 1.448-.388z"/><path id="Path" d="m33.724 32.806v-1c0-.242-1.448-.035-1.448.388v1c0 .242 1.448.035 1.448-.388z"/><path id="Path" d="m22.724 44.806v-1c0-.336-1.448-.1-1.448.388v1c0 .336 1.448.1 1.448-.388z"/><path id="Path" d="m28.724 44.806v-1c0-.206-1.448-.01-1.448.388v1c0 .206 1.448.006 1.448-.388z"/></g></g></svg>