<svg height="512" viewBox="0 0 60 60" width="512" xmlns="http://www.w3.org/2000/svg"><g id="b"><rect fill="#71b9e8" height="12" rx="3" width="16" x="19" y="8"/><path d="m24 8v-4c0-1.66 1.34-3 3-3 .83 0 1.58.34 2.12.88s.88 1.29.88 2.12v4" fill="#526666"/><circle cx="27" cy="14" fill="#bb69cc" r="2"/><path d="m27.18 20-12.41 30.14c-.47 1.16-1.59 1.86-2.77 1.86-.38 0-.77-.07-1.14-.23-1.53-.63-2.26-2.38-1.63-3.91l11.58-28.11" fill="#88abab"/><path d="m44.23 51c-.29.33-.66.59-1.09.77-.37.16-.76.23-1.14.23-1.18 0-2.3-.7-2.77-1.86l-12.41-30.14 6.37-.25 11.23 27.25.35.86c.45 1.1.2 2.32-.54 3.14z" fill="#526666"/><path d="m52 22.73v24.27h-6v-24.27c.29.17.64.27 1 .27h4c.36 0 .71-.1 1-.27z" fill="#f0c000"/><path d="m52 51v.69c0 1.14-.22 2.28-.65 3.34l-.08-.03h-4.54l-.08.03c-.43-1.06-.65-2.2-.65-3.34v-.69z" fill="#ffe3c5"/><path d="m51.35 55.03c-.02.07-.05.14-.08.21l-1.35 3.15c-.35.81-1.49.81-1.84 0l-1.35-3.15c-.03-.07-.06-.14-.08-.21l.08-.03h4.54z" fill="#526666"/><path d="m53 16v2h-8v-2c0-.74.4-1.38 1-1.73h6c.6.35 1 .99 1 1.73z" fill="#88abab"/><path d="m53 18v3c0 .74-.4 1.38-1 1.73-.29.17-.64.27-1 .27h-4c-.36 0-.71-.1-1-.27-.6-.35-1-.99-1-1.73v-3z" fill="#526666"/><path d="m52 12v2.27h-6v-2.27c0-1.1.9-2 2-2h2c1.1 0 2 .9 2 2z" fill="#d93625"/><path d="m54 49c0 .55-.22 1.05-.59 1.41-.36.37-.86.59-1.41.59h-7.77c.74-.82.99-2.04.54-3.14l-.35-.86h7.58c.55 0 1.05.22 1.41.59.37.36.59.86.59 1.41z" fill="#71b9e8"/></g><g id="c" fill="#232323"><path d="m29.895 14c-.254-3.279-5.115-3.22-5.374 0-.181 3.764 5.586 3.838 5.374 0zm-1.791 0c-.331 1.383-2.309 1.66-2.626 0-.143-2.037 2.86-2.074 2.626 0z"/><path d="m52.818 46.391c-.237-1.82-.341-3.639-.395-5.459-.32-5.68.823-12.005.492-17.71.708-.584 1.169-1.476 1.094-2.425l-.005-.478c-.087-1.649-.017-3.322-.25-4.958-.121-.517-.427-.969-.824-1.321.125-.743.082-1.494.014-2.238-.125-1.513-1.717-2.676-3.144-2.4-.698.124-1.956.104-2.513.308-.919.313-1.584 1.172-1.675 2.13-.044.761-.1 1.593-.233 2.349-.133.124-.255.261-.355.413-.444.582-.45 1.421-.419 2.077.011 1.273-.002 2.547-.063 3.82-.127.795.085 1.621.581 2.23h-.018c-.356 3.519.247 8.57.415 12.135.153 3.739.124 7.471-.315 11.192-.238.016-.475.018-.713.043-3.5-8.426-7.118-17.39-10.19-25.909.471-.323.879-.741 1.167-1.244.681-1.094.53-2.377.535-3.592-.003-1.315-.057-2.656-.08-3.972.162-2.455-1.963-4.476-4.391-4.159-.166.006-.361.013-.568.02.095-1.237.017-2.4-.119-3.703-.815-4.104-6.618-3.927-7.244.054-.098 1.366-.179 2.605-.407 3.889-.458.014-.869.026-1.196.035-1.878-.006-3.501 1.672-3.417 3.535.031 1.539.025 3.236.02 4.767-.157 1.427.144 2.976 1.242 3.902-2.447 5.394-4.562 10.925-6.733 16.433l-3.262 8.445c-.404 1.266-1.505 3.227-1.412 4.527.128 1.294.736 2.206 1.543 2.746-.849 1.528-3.746 6.741-3.746 6.741-.549 1.043 1.032 1.828 1.534.766l3.151-7.075c1.806.525 4.021-.406 4.605-2.849 3.522-8.752 7.418-18.074 11.387-26.734 1.873 4.833 3.951 9.582 5.998 14.344 1.192 2.72 4.296 9.809 5.444 12.441.91 3.215 4.159 3.594 5.909 2.1l.758-.022c-.232 2.521 1.444 4.963 2.571 7.098.538 1.081 2.243 1.031 2.685-.067l.427-1.054c.921-2.01 1.865-4.099 2.156-6.309 2.281-.685 2.234-4.083-.039-4.866zm-1.688-17.387c-.411-.113-.859-.203-1.239-.251-.401-.051-.724-.058-.835-.005-.302.173-.29.35-.096.514.195.164.572.315 1.001.438.402.115.845.202 1.23.255.029.419.057.832.087 1.243-.091-.035-.184-.069-.281-.102l-.052-.018c-.458-.153-.962-.277-1.385-.349-.04-.007-.079-.013-.117-.019-.405-.063-.714-.07-.807.004-.133.105-.175.218-.138.308.032.077.101.154.199.226.253.188.637.352 1.055.493.131.044.264.086.399.124.31.088.627.161.924.214l.06.011c.076.013.137.016.209.026.033.454.065.901.093 1.332-.195-.095-.414-.189-.646-.278l-.059-.023c-.499-.186-1.045-.347-1.502-.443-.042-.009-.082-.017-.122-.024-.46-.089-.803-.1-.892 0-.104.117-.12.254-.04.341.068.074.156.146.258.214.314.21.701.391 1.109.548.137.053.276.103.416.15.322.107.651.196.973.266l.065.014c.17.035.334.061.488.082.011.189.024.389.033.571.012.283.014.566.023.849-.283-.167-.637-.338-1.024-.497-.586-.24-1.231-.451-1.747-.567s-.903-.139-.976-.005c-.088.119-.062.287.057.374.607.402 1.246.729 1.914.98.334.125.675.231 1.023.318.253.063.513.104.773.147.022.794.032 1.587.033 2.38-.261-.224-.629-.476-1.034-.715-.535-.313-1.13-.605-1.613-.788-.484-.183-.848-.252-.945-.139-.094.11-.102.272.003.371.52.486 1.106.877 1.718 1.211.306.167.622.316.947.448.298.121.606.223.919.313-.006.787-.026 1.574-.059 2.361-.225-.261-.557-.566-.926-.864-.483-.386-1.029-.759-1.48-1.01s-.801-.37-.914-.272c-.109.095-.141.255-.05.368.444.555.966 1.025 1.522 1.442.278.209.568.401.87.578.302.176.616.337.941.48-.039.718-.089 1.437-.155 2.154-.184-.257-.421-.541-.69-.828-.431-.459-.928-.914-1.347-1.231s-.761-.497-.883-.406c-.129.072-.176.235-.104.364.383.614.826 1.173 1.327 1.673.25.25.515.486.794.708.258.204.53.393.812.572-.02.182-.036.364-.058.546-1.474-.079-2.949-.182-4.423-.184-.201-1.688-.296-3.376-.346-5.065-.313-5.542.763-11.697.509-17.292 1.339.228 2.707.102 4.068.255.01 0 .019-.002.028-.002-.07 1.57-.006 3.339.103 5.111zm-5.736-12.324c0-.683-.017-1.179.318-1.59.305-.404.802-.635 1.288-.61l3.82.189c1.146.034 1.435.885 1.31 1.831-.006.166-.013.332-.02.497-1.041.001-2.083.402-3.111.523-1.224.151-2.427.115-3.603-.287 0-.185-.004-.37-.002-.554zm3.606 1.8c1.004.119 2.021.506 3.037.526-.016.438-.033.877-.042 1.315l-.013.817c-.047.503-.456.927-.982.967-1.273.072-2.547.122-3.82.213-.886.151-1.647-.467-1.697-1.34-.042-.737-.067-1.475-.08-2.213 1.175-.4 2.375-.436 3.597-.285zm-1.474-8.009c.372-.105.941.006 1.474.036 1.115.076 2.057.226 2.042 1.425-.039.465-.063.931-.046 1.396-.058.003-.118-.003-.176.004l-3.82.189c-.157.004-.311.036-.464.07-.189-1.227-.406-2.718.99-3.12zm-23.083-6.777c.03-.627.356-1.228.828-1.641.925-.846 2.491-.726 3.275.205.67.759.581 1.51.503 2.475-.055.859-.09 1.717-.02 2.575-1.331.042-2.866.089-4.231.13-.219-1.262-.336-2.567-.354-3.743zm-5.045 12.128c-.016-1.533-.001-3.225.02-4.767-.034-1.398 1.2-2.629 2.583-2.576l6.356.189c.781.083 3.844-.023 4.437.312.787.338 1.322 1.159 1.291 2.01.01.247-.042.933-.027 1.188-.037 1.589-.082 3.177-.063 4.767.05 1.133-.849 2.121-1.994 2.16-2.083.068-7.521.25-9.533.337-2.375.231-3.261-1.489-3.069-3.62zm-4.684 33.307c-.286.656-.473 1.306-1.016 1.766-1.488 1.415-4.159.235-4.117-1.807-.018-.694.333-1.257.597-1.902l.908-2.073 3.633-8.293c2.329-5.416 4.712-10.809 6.769-16.337.353.058.704.076.979.076l3.178.124.324.011c-1.931 5.334-3.962 10.626-6.085 15.881-1.115 2.753-4.026 9.921-5.169 12.555zm25.098.966c-3.778-9.559-7.512-19.898-11.68-29.329l3.868.13c.235.006.469-.019.701-.057 2.428 5.23 4.751 10.505 6.981 15.817l3.484 8.354.844 2.1c.253.662.593 1.273.546 1.984-.092 2.571-3.657 3.352-4.743 1.002zm10.165 7.16c-.153.329-.31.699-.46.995-.191.387-.812.338-.9-.067l-.344-1.037c-.202-.556-.385-1.122-.555-1.692.413-.085.839-.072 1.28.025.498.102 1.013.419 1.53.503-.173.427-.36.852-.553 1.273zm1.168-3.191c-.721-.248-1.449.314-2.145.457-.538.119-1.053.113-1.548-.052-.243-.965-.415-1.945-.502-2.936 1.499-.043 3.241-.093 4.239-.121.185.909.145 1.791-.044 2.652zm.855-3.453-6.868-.196c.282-.68.355-1.509.106-2.471 2.297.151 4.601-.087 6.897-.174.18.003.359.047.528.127 1.284.596.82 2.64-.663 2.714z"/></g></svg>