<svg height="512" viewBox="0 0 60 52" width="512" xmlns="http://www.w3.org/2000/svg"><g id="006---Dog" fill="none"><path id="Path" d="m54.95 22.124c-.1968762.0000527-.3754573-.1154321-.4561765-.295s-.0485493-.3897893.0821765-.537l1.965-2.213-2.689 1.553c-.2225048.1289965-.5065753.0681522-.6567253-.1406622-.15015-.2088145-.1173946-.4974755.0757253-.6673378l1.629-1.434-1.768 1.021c-.2202286.1227467-.4973928.0623225-.6465459-.1409526s-.1236267-.4857984.0595459-.6590474l2.674-2.436-2.778 1.6c-.226047.126152-.5110038.0589101-.6568083-.1549885-.1458046-.2138986-.1042381-.5037159.0958083-.6680115l1.588-1.269-1.492.862c-.2279124.1308241-.5182022.0628918-.6643976-.1554793-.1461953-.2183711-.0983971-.512647.1093976-.6735207l1.286-.991-1 .577c-.2248726.1315945-.5131068.0684479-.6623629-.1451111-.149256-.213559-.1094985-.5059386.0913629-.6718889l3.118-2.612-2.854 1.646c-.2245855.1309436-.5120466.0679354-.6612702-.144943-.1492235-.2128783-.1104168-.5045939.0892702-.671057l3.435-2.895-3 1.731c-.22978.1349572-.525025.0659893-.6712375-.156798s-.0920063-.5210957.1232375-.678202l.73-.543-3.1 1.791c-.1547852.0907422-.3463247.0915917-.5019087.0022259-.155584-.0893657-.2513568-.2552442-.2509624-.4346667.0003945-.1794226.0968957-.3448784.2528711-.4335592l10.6-6.122c.230855-.15325902.542241-.09035503.6955.1405s.090355.54224098-.1405.6955l-.732.545.382-.221c.2243015-.13033485.511027-.06747614.6602307.14474207.1492038.21221821.1113211.50329837-.0872307.67025793l-3.434 2.9 2.935-1.7c.2248726-.13159453.5131068-.06844789.6623629.14511112.149256.21355901.1094985.50593856-.0913629.67188888l-3.119 2.613 2.544-1.469c.227731-.12816214.5157443-.059345.6609391.1579231.1451949.217268.0985947.509699-.1069391.6710769l-1.285.991.731-.422c.226047-.126152.5110038-.0589101.6568083.1549885.1458046.2138986.1042381.5037159-.0958083.6680115l-1.589 1.269 1.028-.593c.2202286-.1227467.4973928-.0623225.6465459.1409526s.1236267.4857984-.0595459.6590474l-2.673 2.435 2.086-1.2c.2225048-.1289965.5065753-.0681522.6567253.1406622.15015.2088145.1173946.4974755-.0757253.6673378l-1.626 1.43 1.042-.6c.2127146-.1241989.4841939-.0749768.6397645.1159961.1555705.1909728.148881.4667972-.0157645.6500039l-1.965 2.212.932-.539c.2394154-.1380712.5454288-.0559154.6835.1835s.0559154.5454288-.1835.6835l-3.608 2.081c-.0760084.0438886-.1622305.0669961-.25.067z" fill="#bd732e"/><path id="Path" d="m43.723 3.314c-.226294-.00000996-.4243705-.15200579-.4829405-.37058883-.0585699-.21858305.0369699-.4492542.2329405-.56241117l2.927-1.692c.1548746-.0893164.3456344-.08922352.500422.00024365s.2500871.25471643.25.4335c-.000087.17878356-.0955474.34393995-.250422.43325635l-2.93 1.692c-.0752224.04303376-.1603383.06577728-.247.066z" fill="#bd732e"/><path id="Path" d="m30.291 30.272c-.2202536-.0001707-.4144542-.1444469-.478208-.3552717s.0179569-.4385371.201208-.5607283l3.734-2.5-5.6 3.236c-.2329673.1327691-.5291919.0581284-.6714287-.1691822-.1422368-.2273105-.0798406-.5263539.1414287-.6778178l6.621-4.471-8.919 5.15c-.2354379.13455-.5352149.0569022-.6757281-.1750261-.1405133-.2319283-.0705395-.5335888.1577281-.6799739l1.432-.911-2.641 1.525c-.2333681.1382671-.5344194.0652417-.6785003-.1645824-.144081-.2298241-.078635-.5326135.1475003-.6824176l10.651-7.234-13.076 7.551c-.2355125.13196-.5332497.0531389-.6726204-.1780652-.1393708-.2312042-.0700423-.5312938.1566204-.6779348l1.462-.917-2.531 1.461c-.2372063.141661-.544339.0642063-.686-.173s-.0642063-.544339.173-.686l10.414-6.429-11.681 6.747c-.2356087.1297647-.5316571.04988-.6700067-.1807924-.1383496-.2306723-.0694166-.5294607.1560067-.6762076l15.042-9.389-16.632 9.6c-.2356087.1297647-.5316571.04988-.6700067-.1807924-.1383496-.2306723-.0694166-.5294607.1560067-.6762076l13.989-8.692-14.834 8.569c-.2374824.1411087-.5443912.0629824-.6855-.1745-.1411087-.2374824-.0629824-.5443912.1745-.6855l4.194-2.558-3.916 2.262c-.2361735.1361818-.537908.0580681-.6783318-.1756081-.1404239-.2336761-.0677709-.5367718.1633318-.6813919l12.893-8.061-12.574 7.255c-.2346058.1253855-.5263122.0451285-.6637604-.18262-.1374483-.2277485-.0725112-.523243.1477604-.67238l11.45-7.164-11.021 6.364c-.2334461.1352991-.5321345.0609722-.6749447-.1679561-.1428102-.2289282-.0782242-.5298733.1459447-.6800439l11.729-7.879-11.008 6.354c-.2337734.1287456-.5274505.051198-.667188-.1761759-.1397374-.2273739-.07627-.5244122.144188-.6748241l6.8-4.441-5.9 3.406c-.2342478.1308833-.5300435.0535271-.6702262-.1752769s-.074765-.527467.1482262-.6767231l4.3-2.8-3.319 1.916c-.2317427.1353654-.5290201.0636298-.6735243-.1625272-.1445041-.2261571-.084687-.5260601.1355243-.6794728l7.517-5.292-6.044 3.489c-.2322938.1351768-.5298928.0625367-.6737842-.164462-.1438914-.2269988-.0825928-.5271392.1387842-.679538l2.971-2.066-3.679 2.125c-.2238668.1315043-.5111377.0697824-.6612322-.1420698s-.1130656-.5033364.0852322-.6709302l2.709-2.314-3.99 2.3c-.2238916.1275836-.5080784.0641108-.6564103-.1466086-.148332-.2107193-.1122202-.4996603.0834103-.6673914l2.917-2.473-4.8 2.771c-.23892998.1358451-.54271023.0533708-.68013727-.1846528-.13742703-.2380237-.05696954-.5423443.18013727-.6813472l9.6-5.541c.2238916-.12758363.5080784-.06411079.6564103.14660857.148332.21071936.1122202.49966037-.0834103.66739143l-2.917 2.476 3.9-2.25c.2237424-.12922782.5090949-.06669716.6582921.14425468s.1130922.50083558-.0832921.66874532l-2.708 2.315 9.306-5.374c.2327102-.14159719.5359455-.07085834.6819808.15909275.1460353.2299511.0811265.5344876-.1459808.68490725l-2.977 2.069 5.312-3.07c.2317427-.13536544.5290201-.06362981.6735243.16252724.1445041.22615705.084687.52606004-.1355243.67947276l-7.509 5.29 9.955-5.748c.2342478-.13088329.5300435-.05352709.6702262.17527691.1401827.22880401.074765.52746697-.1482262.67672309l-4.3 2.8 5.441-3.142c.2347034-.13648675.5354374-.06073246.6774741.17065437.1420368.23138684.073465.53383942-.1544741.68134563l-6.8 4.439 7.97-4.6c.2341687-.14635543.5426445-.0751687.689.15900002.1463554.23416872.0751687.54264451-.159.68899998l-11.73 7.878 22.709-13.112c.1530883-.09217452.3437223-.09567565.5000919-.00918455s.2547187.24983437.258.4285c.0032813.17866562-.0890036.34551003-.2420919.43768455l-11.457 7.168 12.625-7.286c.2361735-.13618181.537908-.05806811.6783318.17560806.1404239.23367616.0677709.53677186-.1633318.68139194l-12.894 8.062 15.454-8.919c.2374824-.14110873.5443912-.06298241.6855.17450002.1411087.23748243.0629824.54439122-.1745.68549998l-4.2 2.563 5.6-3.234c.2369302-.14193716.5440628-.06493013.686.17200002.1419371.23693014.0649301.54406279-.172.68599998l-13.991 8.688 15.222-8.789c.2369302-.14221331.5442867-.06543014.6865.17150001s.0654301.54428666-.1715.68649999l-15.047 9.386 15.68-9.053c.2362075-.13307102.5354329-.05365088.6745599.17904108.1391271.23269196.0674613.53386873-.1615599.67895892l-13.373 8.257c.2087963.0278027.3777756.1834787.4225681.3893002s-.0442095.4176414-.2225681.5296998l-1.479.928 1.387-.8c.2333681-.1382671.5344194-.0652417.6785003.1645824.144081.2298241.078635.5326135-.1475003.6824176l-10.646 7.23 10.855-6.268c.2354379-.13455.5352149-.0569022.6757281.1750261.1405133.2319283.0705395.5335888-.1577281.6799739l-1.429.91 1.179-.681c.1514806-.0946754.3419632-.1013451.4996948-.0174967.1577316.0838483.258749.2454762.265.424.006251.1785237-.0832142.3468213-.2346948.4414967l-6.628 4.474 6.49-3.747c.2335451-.1328438.5303244-.0573638.6720248.1709163s.0776546.5277351-.1450248.6780837l-3.732 2.494 3.327-1.92c.2313261-.1333882.5266402-.061466.670727.1633522.1440867.2248181.0860887.5231794-.131727.6776478l-4.374 3.095 3.969-2.291c.2319831-.1309881.5259285-.0570795.6683699.1680527.1424414.2251321.0833463.52241-.1343699.6759473l-.636.439.026-.015c.2263606-.1309251.5153721-.0653166.6630162.1505114.1476442.2158279.1040467.5089685-.1000162.6724886l-1.783 1.433 1.068-.617c.1992882-.1172668.452989-.0825865.6134939.083863.1605049.1664496.1859398.4212433.0615061.616137l-.606.981c.1886428.059803.3242637.2252389.3459038.4219473s-.0747732.3876706-.2459038.4870527l-1.136.656c-.1992882.1172668-.452989.0825865-.6134939-.083863-.1605049-.1664496-.1859398-.4212433-.0615061-.616137l.425-.687-4.98 2.874c-.2259042.1277621-.5120042.0614438-.6586593-.152678-.1466552-.2141217-.1051039-.5048532.0956593-.669322l1.783-1.434-5.136 2.965c-.2319831.1309881-.5259285.0570795-.6683699-.1680527-.1424414-.2251321-.0833463-.52241.1343699-.6759473l.635-.438-2.606 1.5c-.2313261.1333882-.5266402.061466-.670727-.1633522-.1440867-.2248181-.0860887-.5231794.131727-.6776478l4.369-3.089-7.16 4.133c-.0756048.0439835-.1615321.0671045-.249.067z" fill="#bd732e"/><path id="Path" d="m3.494 22.361c-.2053794-.0002678-.38970652-.1260997-.46476307-.3172732-.07505655-.1911734-.02557495-.4088009.12476307-.5487268l.727-.673-1.36.784c-.22238984.1269737-.50476631.065395-.65409943-.1426415s-.1173442-.4952735.07409943-.6653585l2.246-1.972-2.417 1.395c-.22824204.1318458-.51963752.063862-.66597078-.1553737-.14633327-.2192358-.09734046-.5144185.11197078-.6746263l1.038-.8-.8.465c-.22939537.1432185-.53109012.0780892-.68097423-.1470075-.14988412-.2250968-.09363021-.5285717.12697423-.6849925l.393-.288c-.22848956.1159529-.50765569.0404139-.64649899-.1749349-.13884329-.2153487-.09242392-.5008047.10749899-.6610651l1.672-1.275-1.146.661c-.23186034.1330617-.52737097.0602043-.67080661-.1653857-.14343565-.22559-.08404925-.5240996.13480661-.6776143l7.083-4.931-6.547 3.779c-.23308287.1306613-.52770735.0549657-.66894229-.1718661-.14123493-.2268319-.07915925-.5246238.14094229-.6761339l3.541-2.376-3.013 1.739c-.23080222.1338179-.52601117.0628564-.670779-.1612399-.14476784-.2240963-.08809237-.5223777.128779-.6777601l6.278-4.505-5.737 3.312c-.23344605.1352991-.53213452.0609722-.67494472-.1679561-.1428102-.2289282-.07822416-.5298733.14594472-.6800439l1.576-1.063-1.047.6c-.2328603.1351428-.53091891.06163618-.67424226-.16628028-.14332335-.22791645-.08044309-.52839646.14224226-.67971972l1.145-.782-.613.353c-.22459856.12700926-.5089574.06225633-.65641904-.14947682-.14746165-.21173315-.10959197-.50090228.08741904-.66752318l2.625-2.18-1.9 1.1c-.21631472.12634306-.49273892.07310819-.64665886-.12453613s-.13782208-.47868729.03765886-.65746387l1.5-1.539c-.21273785-.02739439-.38430262-.18742548-.42641197-.39774583s.05461923-.42406786.24041197-.53125417l2.538-1.47c.21593068-.12313412.4895276-.06894621.64222301.12719707s.13811588.47467342-.03422301.65380293l-1.235 1.271 3.86-2.229c.22459856-.12700926.5089574-.06225633.65641904.14947682.14746165.21173315.10959197.50090228-.08741904.66752318l-2.626 2.189 6.894-3.981c.2328603-.1351428.5309189-.06163617.6742423.16628028.1433233.22791645.080443.52839646-.1422423.67971972l-1.141.781 2.032-1.174c.2334461-.13529908.5321345-.06097219.6749447.16795606.1428102.22892826.0782242.52987333-.1459447.68004394l-1.573 1.059 2.139-1.235c.2308022-.1338179.5260112-.06285643.670779.16123991.1447678.22409633.0880924.52237765-.128779.67776009l-6.277 4.5 7.115-4.103c.2330829-.13066131.5277074-.05496574.6689423.17186612.1412349.22683187.0791592.52462377-.1409423.67613388l-3.544 2.378 3.94-2.275c.2318603-.13306172.527371-.0602043.6708066.16538571.1434357.22559001.0840493.52409963-.1348066.67761429l-8.976 6.249c.16551855.0683501.28184564.2199996.30497184.3975758.0231262.1775761-.05048011.3539612-.19297184.4624242l-1.67 1.274 1.014-.586c.23015827-.1366689.52712465-.067833.67368315.1561577.14655849.2239907.09071527.5236721-.12668315.6798423l-.587.432c.22806972-.0449032.45700371.0732904.55247156.285229.09546786.2119387.03228647.4617158-.15247156.602771l-1.034.792.152-.088c.22288576-.1316399.50939212-.0713981.66039025.1388557.15099813.2102539.11655515.5009919-.07939025.6701443l-2.245 1.973.837-.483c.22053922-.1280792.50213181-.0696485.65350464.1356028s.12400893.4915375-.06350464.6643972l-1.273 1.178c.18864275.059803.3242637.2252389.34590379.4219473s-.07477315.3876706-.24590379.4870527l-2.91 1.677c-.07580312.044382-.16216154.067526-.25.067z" fill="#bd732e"/><path id="Path" d="m36.728 42.572c-.2256041-.0007854-.4227369-.152554-.481187-.3704563-.0584502-.2179023.0362625-.4479555.231187-.5615437l13-7.507c.2241703-.1280952.5090066-.0644456.6573283.1468868.1483216.2113324.1113468.5008421-.0853283.6681132l-1.98 1.664.526-.3c.2374252-.1242009.5305531-.0391619.6646466.1928199.1340935.2319817.0614797.5284321-.1646466.6721801l-5.459 3.152c-.2241703.1280952-.5090066.0644456-.6573283-.1468868-.1483216-.2113324-.1113468-.5008421.0853283-.6681132l1.983-1.666-8.07 4.659c-.0762015.0431902-.1624118.0656049-.25.065z" fill="#f9eac0"/><path id="Path" d="m30.649 51.365c-.2001363-.0003794-.3807649-.1200648-.4591294-.3042215-.0783646-.1841567-.0393655-.3973007.0991294-.5417785l.782-.812-2.345 1.354c-.2180963.1257781-.4956948.0697764-.6479698-.1307191-.1522751-.2004955-.1317242-.4829397.0479698-.6592809l2.664-2.608-3.716 2.145c-.2266681.1317558-.5166136.0660514-.6643416-.1505461-.1477279-.2165976-.1030619-.5105201.1023416-.6734539l2.813-2.25-2.888 1.666c-.2347034.1364868-.5354374.0607325-.6774741-.1706544-.1420368-.2313868-.073465-.5338394.1544741-.6813456l7.523-4.879-7.158 4.131c-.2361735.1361818-.537908.0580681-.6783318-.1756081-.1404239-.2336761-.0677709-.5367718.1633318-.6813919l.715-.448-.2.116c-.2329061.1254293-.5232086.0477402-.6623373-.1772508s-.0789338-.5194187.1373373-.6717492l9.431-6.239-9.305 5.377c-.1521951.0936036-.3427662.0989017-.4999268.0138987-.1571607-.0850031-.2570345-.2473934-.262-.426-.0049655-.1786067.0857317-.3462951.2379268-.4398987l7.622-4.982-8.384 4.834c-.2327769.1270897-.524286.0503218-.6642741-.174934-.139988-.2252559-.0797468-.5206233.1372741-.673066l9.454-6.282-11.079 6.396c-.2347713.1336383-.5332399.0566316-.6740509-.1739091-.1408109-.2305408-.0730402-.5312411.1530509-.6790909l6.788-4.39-7.891 4.556c-.2347713.1336383-.5332399.0566316-.6740509-.1739091-.1408109-.2305408-.0730402-.5312411.1530509-.6790909l6.361-4.111-7.345 4.24c-.2322938.1351768-.5298928.0625367-.6737842-.164462-.1438914-.2269988-.0825928-.5271392.1387842-.679538l9.775-6.776-12.353 7.135c-.2347713.1336383-.5332399.0566316-.6740509-.1739091-.1408109-.2305408-.0730402-.5312411.1530509-.6790909l4.281-2.766-5.413 3.125c-.2334572.1253051-.5241289.0467367-.6626677-.1791186-.1385388-.2258554-.0768365-.5205686.1406677-.6718814l5.254-3.425-6.063 3.5c-.2321092.1290838-.5246372.0541763-.6661393-.170578-.1415021-.2247542-.0825963-.5209195.1341393-.674422l8.793-6.02-9.629 5.565c-.2318603.1330617-.527371.0602043-.6708066-.1653857-.1434357-.22559-.0840493-.5240996.1348066-.6776143l7.755-5.386-8.146 4.7c-.2328603.1351428-.5309189.0616362-.6742423-.1662803-.1433233-.2279164-.080443-.5283964.1422423-.6797197l4.129-2.818-4.028 2.323c-.2300482.1308569-.52222067.059778-.6664488-.1621318-.14422813-.2219099-.09054634-.5177734.1224488-.6748682l2.877-2.093-2.5 1.441c-.2231941.1282474-.5072862.0660776-.65651452-.1436697-.14922833-.2097473-.11482018-.4985197.07951452-.6673303l3.87-3.343-2.738 1.581c-.2222396.1285782-.5057439.0679309-.6559297-.1403165-.1501859-.2082474-.1182322-.4963997.0739297-.6666835l1.6-1.414c-.1066408-.0408914-.1957332-.1176098-.252-.217-.1382327-.2388784-.0567713-.5445824.182-.683l3.159-1.824c.2222396-.1285782.5057439-.0679309.6559297.1403165.1501859.2082474.1182322.4963997-.0739297.6666835l-.9.8 3.025-1.747c.2237086-.1333262.5122955-.0726121.6633185.1395516.151023.2121638.1139038.5047228-.0853185.6724484l-3.87 3.342 6.166-3.561c.2306768-.1361239.5276494-.0662929.6734904.1583666s.0887428.5243409-.1294904.6796334l-2.877 2.091 7.248-4.184c.2333482-.1425022.537887-.0711396.6836338.1601958.1457468.2313355.0786439.5368412-.1506338.6858042l-4.13 2.82 7.054-4.074c.2327102-.1415972.5359455-.0708583.6819808.1590928.1460353.229951.0811265.5344876-.1459808.6849072l-7.755 5.387 10.535-6.083c.2321092-.1290838.5246372-.0541763.6661393.170578.1415021.2247542.0825963.5209195-.1341393.674422l-8.792 6.02 11.066-6.389c.2342478-.1308833.5300435-.0535271.6702262.1752769s.074765.527467-.1482262.6767231l-5.254 3.419 6.466-3.734c.2347713-.1336383.5332399-.0566316.6740509.1739091.1408109.2305408.0730402.5312411-.1530509.6790909l-4.279 2.765 5.5-3.174c.2322938-.1351768.5298928-.0625367.6737842.164462.1438914.2269988.0825928.5271392-.1387842.679538l-9.78 6.778 14.13-8.158c.2347713-.1336383.5332399-.0566316.6740509.1739091.1408109.2305408.0730402.5312411-.1530509.6790909l-6.363 4.112 7.778-4.49c.2355494-.1441463.5433537-.0700494.6875.1655s.0700494.5433537-.1655.6875l-6.786 4.39 7.69-4.44c.1518379-.0941395.3423647-.1001234.4998108-.0156977s.2578918.2464348.2635.425-.0844729.3465582-.2363108.4406977l-9.45 6.28 10.228-5.905c.2337734-.1287456.5274505-.051198.667188.1761759.1397374.2273739.07627.5244122-.144188.6748241l-7.626 4.987 7.942-4.585c.2329061-.1254293.5232086-.0477402.6623373.1772508s.0789338.5194187-.1373373.6717492l-9.428 6.236 9.5-5.482c.2361735-.1361818.537908-.0580681.6783318.1756081.1404239.2336761.0677709.5367718-.1633318.6813919l-.728.457.332-.192c.2355494-.1441463.5433537-.0700494.6875.1655s.0700494.5433537-.1655.6875l-14.957 9.7c.1479706.2159246.1043595.5094276-.1.673l-2.808 2.25 1.425-.823c.2180963-.1257781.4956948-.0697764.6479698.1307191.1522751.2004955.1317242.4829397-.0479698.6592809l-2.666 2.61 1.981-1.146c.2157843-.1245835.4903641-.0712785.6438596.1249944s.1390557.4756061-.0338596.6550056l-1.07 1.11c.2077877.0353572.3710883.1972213.40828.4046885.0371918.2074671-.0597135.4159772-.24228.5213115l-2.446 1.414c-.0762938.0438571-.1630088.0663132-.251.065z" fill="#f9eac0"/><path id="Path" d="m29.227 34.208c-.2090954.0007183-.3965562-.1287506-.469926-.3245522-.0733699-.1958016-.0171523-.4165805.140926-.5534478l.34-.3-.561.324c-.2112567.1203598-.4784718.0713026-.6332004-.1162472s-.152112-.4592181.0062004-.6437528l1.272-1.462-2.063 1.191c-.1881601.1050237-.42244.0776841-.5813618-.0678429-.1589217-.1455269-.2067311-.3765004-.1186382-.5731571l.567-1.234-.669.386c-.2374252.1242009-.5305531.0391619-.6646466-.1928199-.1340935-.2319817-.0614797-.5284321.1646466-.6721801l2.025-1.169c.188416-.1090283.4257214-.0836224.5867866.0628213.1610653.1464437.2088725.3802679.1182134.5781787l-.568 1.234 3.3-1.905c.2115312-.1216183.4799523-.0727945.6351088.1155214.1551565.188316.1517294.4611197-.0081088.6454786l-1.273 1.462 2.475-1.429c.2233144-.1304087.509223-.0690136.6593121.1415784.150089.2105921.1148283.5008847-.0813121.6694216l-.343.3.122-.07c.23893-.1358451.5427102-.0533708.6801373.1846528.137427.2380237.0569695.5423443-.1801373.6813472l-4.627 2.671c-.0762889.0439775-.1629464.066764-.251.066z" fill="#4f442b"/><path id="Path" d="m30.719 51.354c-.1968762.0000527-.3754573-.1154321-.4561765-.295s-.0485493-.3897893.0821765-.537l1.173-1.322-3.018 1.743c-.2243164.1264895-.5080183.0619132-.6554889-.1492026s-.1104702-.4997121.0854889-.6667974l1.237-1.03-1.775 1.024c-.2219765.128183-.5049351.0677387-.6551637-.1399529-.1502285-.2076917-.1190618-.4953507.0721637-.6660471l3.236-2.9-3.59 2.072c-.2259042.1277621-.5120042.0614438-.6586593-.152678-.1466552-.2141217-.1051039-.5048532.0956593-.669322l2.726-2.2-2.338 1.356c-.2250045.1192086-.5036565.0502816-.6471401-.1600756s-.105962-.4949446.0871401-.6609244l2.6-2.064-2.04 1.176c-.227871.1265147-.5147039.056766-.6590373-.1602571s-.0977476-.5085154.1070373-.6697429l1.366-1.041-.814.47c-.2201191.1211079-.4959248.0600693-.6443868-.1426092s-.1234717-.48405.0583868-.6573908l2.12-1.923-1.534.885c-.2126491.1227903-.4829898.0729918-.6379285-.1175105-.1549386-.1905024-.1486122-.4653186.0149285-.6484895l1.933-2.165-1.31.756c-.2374252.1242009-.5305531.0391619-.6646466-.1928199-.1340935-.2319817-.0614797-.5284321.1646466-.6721801l4.007-2.313c.2123689-.1214471.4814292-.0713915.6359136.1183044.1544843.1896959.1490205.4633181-.0129136.6466956l-1.933 2.166 2.884-1.665c.2201191-.1211079.4959248-.0600693.6443868.1426092s.1234717.48405-.0583868.6573908l-2.119 1.922 3.572-2.062c.2280542-.1290416.517047-.0601323.6623353.1579314.1452882.2180638.0975826.5113034-.1093353.6720686l-1.365 1.04 1.132-.653c.2263468-.1267998.5120755-.0594093.6579064.1551704.1458308.2145797.1033101.5050523-.0979064.6688296l-2.6 2.062 2.04-1.178c.2259042-.1277621.5120042-.0614438.6586593.152678.1466552.2141217.1051039.5048532-.0956593.669322l-2.731 2.2 2.169-1.252c.2197759-.1165123.4917776-.0537473.6382794.1472845.1465019.2010317.1229447.4791853-.0552794.6527155l-3.236 2.9 2.653-1.531c.2243164-.1264895.5080183-.0619132.6554889.1492026s.1104702.4997121-.0854889.6667974l-1.239 1.032.632-.364c.212437-.1228152.482602-.0733206.6377036.116828.1551017.1901487.1492961.4647486-.0137036.648172l-1.3 1.461c.1806952.0069834.3471767.099886.448.25.1373847.2389169.0555349.543953-.183.682l-2.309 1.334c-.074242.0438734-.158766.0673331-.245.068z" fill="#dd4780"/><path id="Path" d="m29.492 25.5c-.1808362-.0001709-.3474875-.097973-.4358195-.2557679-.088332-.157795-.0845771-.3509886.0098195-.5052321l.472-.77-.258.149c-.2036526.117242-.4614665.076848-.6195016-.0970628s-.1736406-.434403-.0374984-.6259372l.626-.878c-.2123209.1023831-.4673107.0425717-.6119601-.143544-.1446495-.1861156-.139666-.4479788.0119601-.628456l.319-.378c-.168956-.0217827-.315196-.1280895-.3880441-.2820823s-.0622793-.3344798.0280441-.4789177l.884-1.411-.21.122c-.2104988.1219393-.4782123.0746814-.6342394-.1119586s-.1550818-.458491.0022394-.6440414l.3-.36c-.1647525-.0260228-.3056798-.1324856-.3757421-.2838521-.0700622-.1513666-.0600322-.3277022.0267421-.4701479l.921-1.512-.245.142c-.2104988.1219393-.4782123.0746814-.6342394-.1119586s-.1550818-.458491.0022394-.6440414l.3-.357c-.1703177-.0278305-.3142436-.1415243-.3807492-.3007714-.0665055-.1592472-.0461879-.3415331.0537492-.4822286l.795-1.116-.166.095c-.2079146.1194294-.4713404.0744499-.6278456-.1072036-.1565052-.1816534-.1620244-.4488348-.0131544-.6367964l1.2-1.511-.767.443c-.2207276.1320893-.5056598.0751513-.6586724-.1316224-.1530126-.2067738-.124171-.4959044.0666724-.6683776l3.209-3-3.3 1.907c-.2231941.12824745-.5072862.06607757-.6565145-.14366969s-.1148202-.49851967.0795145-.66733031l1.324-1.146-1.407.812c-.2036526.11724195-.4614665.07684795-.6195016-.09706283-.1580351-.17391079-.1736406-.43440294-.0374984-.62593717l1.391-1.951-2.065 1.193c-.1194712.06759744-.2611477.08418044-.393.046-.1306671-.04039227-.2390845-.13254709-.3-.255l-.571-1.134-.273.159c-.2394154.13807117-.5454288.05591542-.6835-.18350001s-.0559154-.5454288.1835-.68349999l.732-.422c.1189783-.07018434.2620538-.0868886.394-.046.1304832.04015901.2388706.13192699.3.254l.57 1.134 3.6-2.079c.2036526-.11724195.4614665-.07684795.6195016.09706283.1580351.17391079.1736406.43440294.0374984.62593717l-1.381 1.946 3.961-2.288c.2231941-.12824745.5072862-.06607757.6565145.14366969s.1148202.49851967-.0795145.66733031l-1.321 1.143 2.52-1.454c.2207276-.13208931.5056598-.07515133.6586724.13162243s.124171.49590434-.0666724.66837757l-3.589 3.355c.171502.03256192.313605.15221176.3748991.31566283.0612942.16345106.0329042.34703576-.0748991.48433717l-1.223 1.545c.1836633-.0541046.3820962.0014256.511.143.1584442.1742099.1738553.4353641.037.627l-.8 1.122c.2129082-.0950708.4632646-.0303583.6034344.1559768.1401699.186335.1329366.4448185-.0174344.6230232l-.3.355c.1643923.0265882.3047582.1332761.3743779.2845536.0696197.1512774.0593549.3272874-.0273779.4694464l-.921 1.512.25-.145c.2104988-.1219393.4782123-.0746814.6342394.1119586s.1550818.458491-.0022394.6440414l-.3.358c.1664754.0254419.3089591.1329793.3790716.2860988.0701126.1531194.0584336.3312472-.0310716.4739012l-.884 1.409.215-.124c.2102941-.1220171.4778777-.0750757.6340828.1112352.156205.186311.1557481.4579804-.0010828.6437648l-.316.376c.1742075.022558.3237991.1348793.3940572.295879s.0508759.3470589-.0510572.490121l-.626.878c.1996612-.0993509.4409801-.0544616.5915605.1100399.1505803.1645015.174012.408839.0574395.5989601l-.506.825c.2059087-.0330363.4110434.063381.517.243.0666188.1149293.0847639.2516448.0504306.3799727-.0343334.1283278-.1183225.2377179-.2334306.3040273l-1.506.869c-.076107.044758-.1627087.0685648-.251.069z" fill="#f9eac0"/><path id="Path" d="m21.738 22.422c-.2079988.000117-.3943453-.1285474-.4679386-.3230918-.0735934-.1945444-.0190605-.41433.1369386-.5519082l.359-.315-1.2.693c-.2278175.1562966-.5392034.0983174-.6955-.1295-.1562966-.2278175-.0983174-.5392034.1295-.6955l.479-.385-.864.5c-.2254634.1287726-.5119753.0635416-.6594703-.1501437-.1474949-.2136853-.1068861-.5047094.0934703-.6698563l1.453-1.189-1.649.952c-.2244518.1286386-.5099659.0648202-.6582866-.1471407-.1483207-.211961-.1104625-.5020607.0872866-.6688593l1.878-1.577-1.76 1.018c-.2205392.1280792-.5021318.0696485-.6535046-.1356028-.1513729-.2052513-.124009-.4915375.0635046-.6643972l2.08-1.926-1.464.845c-.2166955.1249531-.4923876.0705435-.6453641-.1273666-.1529764-.19791-.1361605-.4784164.0393641-.6566334l1.155-1.17c-.1854465-.0635303-.3166622-.229567-.3356132-.4246755-.0189509-.1951086.0778592-.3832935.2476132-.4813245l2.34-1.351c.2166955-.1249531.4923876-.0705435.6453641.1273666.1529764.19791.1361605.4784164-.0393641.6566334l-.7.708 2.108-1.218c.2205392-.1280792.5021318-.0696485.6535046.1356028.1513729.2052513.124009.4915375-.0635046.6643972l-2.079 1.927 2.856-1.649c.2245855-.1309436.5120466-.0679354.6612702.144943.1492235.2128783.1104168.5045939-.0892702.671057l-1.88 1.578 2.034-1.175c.2259084-.1319558.5153456-.0674504.6638412.1479469s.1058364.5088509-.0978412.6730531l-1.447 1.187 1.2-.692c.2263606-.1309251.5153721-.0653166.6630162.1505114.1476442.2158279.1040467.5089685-.1000162.6724886l-.523.42c.2260644-.0818938.4784068.0087134.6007424.2157054.1223357.206992.0800188.4717478-.1007424.6302946l-.772.681c.2099238.0317163.3769291.1925452.41653.4011254.039601.2085801-.0568381.4194265-.24053.5258746l-3.6 2.08c-.078427.0459742-.1681172.0691759-.259.067z" fill="#fff"/><path id="Path" d="m37.553 22.389c-.2023268-.000043-.3846856-.1220166-.4619747-.3089993-.0772891-.1869828-.0342727-.402115.1089747-.5450007l1.708-1.7-2.981 1.721c-.2262112.1327757-.5165722.0681745-.6651499-.1479864-.1485778-.2161609-.1048589-.5103912.1001499-.6740136l1.137-.918-1.407.812c-.2234669.1287231-.5081764.0663691-.6573848-.1439733-.1492085-.2103425-.1139612-.4996608.0813848-.6680267l2.255-1.943-2.308 1.327c-.2279124.1308241-.5182022.0628918-.6643976-.1554793-.1461953-.2183711-.0983971-.512647.1093976-.6735207l.3-.228c-.2285791.0729375-.4767443-.0267755-.5913118-.2375895-.1145676-.2108141-.063235-.47329.1223118-.6254105l.678-.559c-.2219943.1019918-.4851864.0286287-.6224112-.1734929-.1372247-.2021216-.1082964-.4738115.0684112-.6425071l1.037-1c-.1578731-.0873708-.2564251-.2530244-.2578752-.4334557-.0014501-.1804312.0944268-.3476474.2508752-.4375443l2.34-1.351c.2190652-.1318893.5023394-.0772423.6566242.1266708s.1298566.4913741-.0566242.6663292l-.3.293 1.565-.9c.2248836-.1275609.509928-.0626394.65739.1497267.1474621.2123662.1087026.5021295-.08939.6682733l-.667.551 1.191-.687c.227731-.1281621.5157443-.059345.6609391.1579231.1451949.217268.0985947.509699-.1069391.6710769l-.225.174.373-.216c.2234669-.1287231.5081764-.0663691.6573848.1439733.1492085.2103425.1139612.4996608-.0813848.6680267l-2.268 1.95 2.333-1.347c.2262112-.1327757.5165722-.0681745.6651499.1479864.1485778.2161609.1048589.5103912-.1001499.6740136l-1.134.917.757-.438c.217123-.1206668.4899085-.063641.6405105.1338986s.1333491.4756874-.0405105.6531014l-1.708 1.7.565-.326c.23893-.1358451.5427102-.0533708.6801373.1846528.137427.2380237.0569695.5423443-.1801373.6813472l-3.878 2.241c-.0751267.0433832-.1602484.0664729-.247.067z" fill="#fff"/><g fill="#262626"><path id="Shape" d="m37.852 22.565c2.848.019 4.748-2.436 4.885-5.11-.134-2.6-1.851-5.059-4.683-5.023-2.7082001.1470704-4.8201529 2.4009662-4.791 5.113-.0997968 2.6464435 1.9442491 4.8824667 4.589 5.02zm.373-8.974c1.942.236 2.948 2.194 3.038 3.954-.1 1.882-1.234 4.138-3.488 3.864-1.887-.23-3.022-2.2-3.038-3.954-.018-1.894 1.326-4.127 3.488-3.864z"/><path id="Shape" d="m22.261 22.318c2.5411625-.3014663 4.4570456-2.4530249 4.463-5.012-.14-2.748-2.2-5.007-5.075-4.616-2.5087006.3278192-4.3822418 2.4699884-4.373 5-.0354574 1.3017224.4912344 2.5556973 1.4455705 3.4416887.9543361.8859915 2.2439227 1.3182225 3.5394295 1.1863113zm.5-8.737c1.5718809.759289 2.5543053 2.3678526 2.512 4.113-.116 2.256-1.862 4.863-4.392 3.532-1.3793169-.8166104-2.206475-2.3177492-2.16-3.92.011-2.057 1.679-4.672 4.043-3.725z"/><path id="Shape" d="m57.467 2.576c-1.781-1.225-3.672-.853-5.68-.965-2.07-.115-3.48-1.2-5.681-.758-.013 0-.025.01-.039.013-.1196537.00986242-.2367062.04030962-.346.09-2.075.991-3.409 3.548-5.365 4.378-1.185.5-2.872.029-4.555-.539.026-.387-.5-.717-1.019-.427-.028.016-.053.035-.081.052-.8960914-.34379204-1.8273995-.58760228-2.777-.727-2.3530566-.21599873-4.7255674.03896375-6.979.75-.869.276-2.283 1.245-3.064 1.291-2.106.125-2.9-1.37-4.206-2.532-2.588-2.307-3.592-2.509-5.87-2.094 1.1551733.34176165 2.2623397.82864607 3.295 1.449 1.818.969 3.213 3.089 5.026 4.317-1.290355.89970852-2.4625376 1.95799892-3.489 3.15-.222.257.193.316.364.32.3568847.006916.7025098-.1250239.964-.368.9732777-1.13102785 2.0857833-2.13433254 3.311-2.986.052-.024.108-.047.148-.071 1.0425985-.62405098 2.1488741-1.13494916 3.3-1.524 2.7758731 1.62696057 4.5032265 4.5829405 4.558 7.8v11c0 .385 1.448.133 1.448-.388v-10.817c0-.014.011-.024.012-.038.0290033-3.07695682 1.6801234-5.91005548 4.343-7.452 1.1206633.39452104 2.2003914.89687595 3.224 1.5.0611947.10218808.1592698.17699718.274.209 1.2826564.8707841 2.4420935 1.91047666 3.447 3.091.358.419 1.747-.114 1.34-.59-1.0121996-1.18037425-2.1720534-2.22562058-3.451-3.11 2.125-1.474 3.8-3.7 6.016-4.906 1.0363534.24483632 2.0866202.4265041 3.145.544.012.018.01.037.029.055.7758849.82504149 1.412518 1.77070339 1.885 2.8.5662244.97591447 1.4048004 1.76548955 2.413 2.272.445.237 1.768-.4 1.146-.73-1.0268372-.53265435-1.8573145-1.37854328-2.371-2.415-.3123348-.64200526-.6835943-1.25362944-1.109-1.827 1.755 0 3.483-.192 5.037.84 2.831 1.88 2.166 5.623 2.166 8.565.1063889 2.0699458.0866858 4.1444483-.059 6.212-.0085239.6652658-.1542284 1.321617-.428 1.928-2.2 3.1-3.654.038-4.425-1.533-1.103999-2.3383044-1.6701937-4.8942106-1.657-7.48l.02-1c.013-.662-1.445-.391-1.456.154l-.013.631c-1.2122163.1900424-2.3990781.5164461-3.538.973-.0542086.0216519-.1066931.0473927-.157.077h-.007c-.016.007-.031.017-.047.024s-.05.023-.067.035c-.7167121.3269158-1.3932072.7356316-2.016 1.218-.091.062-.357.227-.281.385 1.9180804 3.9078467 2.4995446 8.337515 1.655 12.608-.8767539-.3005651-1.7928171-.4710425-2.719-.506-.7837957.009669-1.565586.0815616-2.338.215-1.0177133.0196417-2.035759-.0137368-3.05-.1-.994-.187-1.943-.48-3.091-.7-3.3571055-.6346261-6.8128707-.5209249-10.121.333-1.9010427.3339201-3.8289856.4905927-5.759.468h-.331c-.7205514-.1674378-1.4629167-.2207531-2.2-.158-.3638666.0476346-.7240429.1201376-1.078.217-3.52-1.211-.409-10.255.743-12.663.0203352-.0634233.0019948-.132883-.047-.178-1.7966792-1.2748544-3.8883969-2.0712076-6.078-2.314v-.731c0-.642-1.454-.354-1.454.164v1c0 .02.013.03.015.048-.00562691.0206572-.009639.0417207-.012.063 0 1.766-1.43 12.04-5.19 9.9-1.173-.667-1.284-3.107-1.362-4.287-.174-2.653-.047-5.4 0-8.06.052-2.875 1-5.287 4.22-6.36 1.08396737-.2006796 2.19465572-.21049372 3.282-.029-1.316 1.493-1.778 3.482-3.665 4.487-.854.454.455.544.87.322.99388638-.49228979 1.83497046-1.24591218 2.433-2.18.48497731-1.02597573 1.10552169-1.98218585 1.845-2.843.0212638-.02087453.0409824-.04326684.059-.067.1-.091.124-.158.121-.213.0511015-.21287853.1255527-.41946363.222-.616l-.809.167c-2.192.456-5.106-.252-7.338 1.127-2.928 1.81-2.692 4.828-2.692 7.821 0 2.754-.4 5.808.187 8.527.532 2.484 2.22 4.25 4.789 3.106 3.3-1.47 4.337-7.141 4.459-10.51 1.794.259 3.928 1.083 4.067 3.174.061.919-1.084 3.3-1.25 4.284-.3899227 2.6093639-.2741518 5.2693797.341 7.835-.111.067-.227.126-.337.2-.0859898.0516363-.1610627.1195756-.221.2-4.055 3.596-4.065 10.175 1.378 12.627 1.1285233.3594896 2.2956525.5840537 3.477.669 2.295803.5950763 4.4956793 1.5125331 6.534 2.725 2.008 1.2 1.436 1.311 1.568 3.373.0332586 1.2045073.4013459 2.3759459 1.063 3.383 1.225441 1.2956725 3.0605761 1.8187915 4.785 1.364.0587106-.0156033.115932-.0363502.171-.062l.017-.005.013-.006c.038884-.015719.0766398-.0340957.113-.055 3.056-1.407 2.364-2.984 3.3-5.766v-1.2l3.048-1.935c.7-.359 1.534-.668 2.262-.96 1.81-.727 3.371-.664 5.165-1.225 6.4-2 7.051-9.835 1.9-13.5.5681519-2.355348.7261305-4.7909936.467-7.2-.275-2.238-2.524-5.912-.193-7.218 4.217-1.584 2.539-.478 3.283 2.915.3411675 1.6967601.9673633 3.323449 1.852 4.811 1.039 1.654 2.383 2.948 4.413 2.273 2.888-.961 2.8-4.592 2.8-7.094-.003-3.651 1.279-10.077-2.26-12.511zm-27.433 6.9c-.7709494-1.86285169-2.1070549-3.43679802-3.82-4.5 2.4563821-.56819477 5.0137446-.53388618 7.454.1-1.6045506 1.09142655-2.8650551 2.61728224-3.634 4.399zm.775 40.97c-1.1678923.2112971-2.3609337-.2063813-3.142-1.1-1.433-2.359-.118-3.552-.94-5.55v-5.611c1.2448969-.2774772 2.3636182-.957567 3.183-1.935.8236316 1.0611469 2.0337502 1.7532082 3.366 1.925v5.873c-.938 2.583 2.034 4.346-2.467 6.397zm-.2-17.134c-.877.49-1.091-.24-1.524-.679-.3782933-.3521459-.8049325-.6484699-1.267-.88-2.454-1.435.3-2.4 1.89-2.4 1.089 0 3.312.209 3.559 1.59-.172.726-.95.864-1.481 1.265-.3743088.3878614-.7685062.7560238-1.181 1.103zm18.491 1.274c-.817 3.348-3.315 3.846-6.448 4.928-2.3278272.6368381-4.6072755 1.4388724-6.821 2.4-.354.182-.739.361-1.1.572v-4.186c.3936633-.0028991.7865085-.0363328 1.175-.1 2.7330934-.3342554 4.7962307-2.6406931 4.825-5.394 0-.244-1.443-.043-1.448.388.0705838 1.2285082-.3962802 2.4270369-1.2792595 3.2841027-.8829794.8570659-2.094879 1.2880327-3.3207405 1.1808973-.1461933-.0829391-.3181008-.1082616-.482-.071-.064-.012-.126-.019-.191-.033-1.699933-.3355188-3.0007665-1.7110068-3.241-3.427.557894-.2974192 1.0567517-.6942687 1.472-1.171.789-.755 2.261-1.055 2.488-2.279 0-.014-.008-.021-.008-.033s.015-.035.012-.053c-.474-3.148-9.949-2.438-9.421.536.19 1.069 1.943 1.531 2.586 2.235.3476773.4423711.8277326.7619408 1.37.912-.142307 1.6713437-1.435327 3.0148331-3.1 3.221-.1189729.0037383-.2369579.0228983-.351.057-.6224986.0712944-1.2528208.0265378-1.859-.132-1.9390654-.6428207-3.2419555-2.4632309-3.225-4.506-.008-.628-1.458-.328-1.452.17-.021968 1.4422358.5486153 2.8303523 1.5785165 3.8402187s2.4289574 1.5530739 3.8704835 1.5027813c.181 0 .365 0 .55-.014v3.854c-1.0196929-.4408792-2.0649014-.8202264-3.13-1.136-1.7929156-.7417272-3.648663-1.3213764-5.545-1.732-5.707-1.238-8.057-7.8-3.138-11.864 1.914-1.26 3.726-1.1 5.842-.565.8184923.2131674 1.6766281.223465 2.5.03 1.6866209-.2960753 3.3531766-.6968502 4.99-1.2 2.954847-.2230302 5.9264043.0151533 8.808.706.464.113.933.214 1.411.293l.281.059c2.8.6 5.7-.844 8.483.382 2.465 1.652 4.06 4.291 3.318 7.345z"/><path id="Path" d="m11.115 1.242c.243-.05.473-.094.69-.134-.391-.075-.587-.008-.69.134z"/><path id="Path" d="m29.276 41.194v6c0 .325 1.448.092 1.448-.388v-6c0-.325-1.448-.092-1.448.388z"/><path id="Path" d="m38.724 17.806v-1c0-.2-1.448-.006-1.448.388v1c0 .206 1.448.006 1.448-.388z"/><path id="Path" d="m22.735 17.949v-1c0-.773-1.47-.569-1.47.1v1c0 .774 1.47.571 1.47-.1z"/></g></g></svg>