<?xml version="1.0" encoding="iso-8859-1"?>
<!-- Generator: Adobe Illustrator 19.0.0, SVG Export Plug-In . SVG Version: 6.00 Build 0)  -->
<svg version="1.1" id="Layer_1" xmlns="http://www.w3.org/2000/svg" xmlns:xlink="http://www.w3.org/1999/xlink" x="0px" y="0px"
	 viewBox="0 0 512 512" style="enable-background:new 0 0 512 512;" xml:space="preserve">
<g>
	<path style="fill:#FFFFFF;" d="M167.336,381.796c0.02,0.011,0.04,0.024,0.06,0.036
		C167.403,381.835,167.392,381.828,167.336,381.796z"/>
	<path style="fill:#FFFFFF;" d="M181.592,209.429c-0.26,0.827-0.537,1.648-0.814,2.469c0.121-0.32,0.373-1.06,0.815-2.472
		C181.593,209.428,181.592,209.428,181.592,209.429z"/>
	<path style="fill:#FFFFFF;" d="M489.234,206.726c-5.088-16.099-11.251-32.965-19.149-47.864c-1.961-3.698-4.848-6.804-6.821-10.092
		c-2.088-3.476-4.155-6.899-6.353-10.31c-1.488-2.309-3.04-4.53-4.631-6.704c-0.016-0.053-0.033-0.109-0.049-0.16
		c-3.25-10.424-7.914-19.393-15.325-27.449c-13.841-15.045-31.396-29.031-48.861-39.669c-2.675-1.628-6.059-2.74-8.315-4.844
		c-3.314-3.09-5.993-6.24-9.856-8.846c-4.184-2.822-8.952-4.033-13.219-6.46c-3.172-1.805-6.632-4.255-10.126-6.099
		c-4.751-2.505-9.212-5.339-14.221-7.346c-4.538-1.816-8.908-2.109-13.606-3.127c-7.832-1.695-15.686-3.717-23.607-2.495
		c-0.178-0.003-0.357-0.01-0.535-0.011c-7.266-0.094-12.636,6.669-13.219,13.323c-8.766-2.91-17.631-5.559-26.663-7.451
		c-20.292-4.251-41.042-4.532-60.368,1.732c-3.553-0.835-7.064-0.833-10.935,0.073c-3.746,0.877-7.328,1.098-10.864,2.239
		c-0.221-0.02-0.437-0.059-0.661-0.064c-4.213-0.113-6.717,0.787-10.637,2.352c-0.401,0.16-0.922,0.317-1.532,0.483
		c-1.305-0.139-2.697,0.01-4.148,0.515c-3.877,1.352-7.73,2.849-11.537,4.45c-5.589,1.764-11.14,3.483-16.51,6.205
		c-7.217,3.657-14.614,7.011-21.057,11.962c-7.107,5.461-13.16,11.876-18.911,18.719c-4.015,4.779-7.89,9.656-11.639,14.62
		c-2.171,2.039-4.331,4.094-6.369,6.319c-5.254,5.738-9.592,11.617-13.572,18.307c-1.495,2.512-2.49,5.433-4.1,7.855
		c-1.751,2.637-4.174,4.832-5.93,7.507c-3.9,5.94-8.351,11.221-11.28,17.873c-3.107,7.059-5.242,14.377-7.847,21.615
		c-2.885,8.014-7.22,15.149-7.92,23.83c-0.547,6.787-0.164,13.346-1.164,20.132c-0.995,6.759-2.413,12.989-2.823,19.865
		c-0.922,15.492-4.054,31.864,0.824,47.005c2.192,6.804,4.461,12.815,5.755,19.85c1.414,7.678,4.412,15.297,6.457,22.846
		c3.459,12.776,10.271,26.356,14.324,37.677c5.214,14.564,15.461,26.522,24.346,38.918c9.172,12.796,19.853,24.251,31.981,34.319
		c11.571,9.606,24.478,17.377,36.816,25.894c12.165,8.398,24.917,14.925,39.346,18.715c6.929,1.821,13.529,4.852,20.581,6.316
		c7.497,1.555,14.518,1.639,21.901,3.891c14.637,4.464,30.286,5.675,45.45,6.686c3.479,0.233,4.071,0.544,7.257,0.89
		c2.886,0.313,4.681-0.03,7.712-0.38c0.116-0.013,3.013-0.337,1.191-0.24c7.704-0.408,15.284-1.262,22.959-2.082
		c9.362-1,18.391-3.313,27.45-5.782c8.539-2.328,18.107-4.665,25.925-8.919c13.963-7.598,25.809-19.456,38.69-28.679
		c15.251-10.921,27.8-24.727,40.182-38.698c5.88-6.636,10.531-14.258,15.742-21.407c5.76-7.902,11.325-15.594,16.049-24.183
		c3.099-5.636-0.021-10.636-4.615-12.204c3.163-6.002,6.606-11.901,8.842-18.29c1.232-3.523,1.831-7.327,3.227-10.788
		c1.915-4.747,5.316-8.701,7.048-13.557c5.99-16.793,7.914-35.171,11.113-52.625C495.008,243.342,495.263,225.808,489.234,206.726z
		 M167.426,271.775c0.354-4.481,1.005-8.939,1.538-13.402c0.213-1.779,0.428-3.56,0.638-5.339c0.053-0.454,0.096-0.831,0.133-1.167
		c0.07-0.357,0.151-0.78,0.248-1.291c1.818-9.673,4.504-19.102,7.363-28.518c1.04-3.423,2.289-6.776,3.433-10.16
		c-0.327,0.857,0.291-1.382,0.75-2.335c0.021-0.044,0.043-0.09,0.066-0.134c0.004-0.014,0.01-0.027,0.013-0.041
		c-0.004,0.014-0.007,0.024-0.011,0.039c1.072-2.23,2.125-4.464,3.266-6.66c4.318-8.317,9.322-16.268,14.647-23.973
		c1.128-1.634,2.293-3.24,3.436-4.864c0.251-0.211,0.537-0.457,0.878-0.755c3.136-2.759,6.012-5.78,9.208-8.494
		c0.844-0.717,1.702-1.418,2.56-2.121c-0.054,0.07-0.111,0.139-0.166,0.208c-5.146,6.58-8.502,13.706-11.788,21.347
		c-2.059,4.791-4.043,9.613-6,14.447c-0.654,1.616-1.309,3.232-1.968,4.847c-0.311,0.754-0.47,1.138-0.486,1.188l-0.524,1.224
		c-6.45,15.231-12.411,30.602-17.523,46.338c-4.253,13.093-8.048,26.899-9.577,40.685
		C167.032,285.83,166.872,278.789,167.426,271.775z"/>
</g>
<g>
	<path style="fill:#CCCCCC;" d="M451.319,315.445c1.278-6.929,2.085-13.954,1.477-20.891c-0.33-3.763-5.376-5.725-7.484-2.028
		c-4.648,8.151-7.417,17.438-12.019,25.714c-4.402,7.912-10.747,15.416-16.465,22.445c-3.079,3.784-6.216,7.535-9.406,11.247
		c-2.54,1.941-5.085,3.874-7.623,5.808c-2.485,1.894-4.989,3.794-7.513,5.689c-1.097,0.705-2.192,1.388-3.29,2.018
		c-8.685,4.987-17.096,10.477-25.597,15.773c-1.642,1.024-3.29,2.001-4.939,2.954c5.055-4.057,9.572-9.45,14.177-13.824
		c11.014-10.459,21.929-20.996,31.687-32.661c10.027-11.988,18.955-24.827,28.53-37.166c3.264-4.208,4.025-9.73,0-13.844
		c-3.341-3.416-10.608-4.17-13.844,0c-3.057,3.94-6.047,7.932-9.032,11.932c-2.659-1.321-5.746-1.756-8.401-0.865
		c-7.313,2.458-11.905,7.151-17.441,12.249c-6.135,5.649-12.962,10.446-19.326,15.819c-6.035,5.095-11.225,10.943-17.904,15.195
		c-3.189,2.031-6.193,4.19-9.192,6.502c-3.414,2.633-7.241,4.444-10.294,7.511c-2.672,2.685-0.872,8.369,3.313,8
		c5.222-0.463,11.155-1.961,16.572-3.698c-1.548,1.402-3.103,2.799-4.665,4.194c-5.932,5.299-11.959,10.52-18.072,15.634
		c-2.623-6.003-9.525-12.278-12.77-15.475c-8.531-8.405-16.866-16.842-24.991-25.648c-15.501-16.802-30.954-34.373-43.009-53.853
		c-3.521-5.69-10.391-3.906-12.759,0.575c-1.249-1.829-3.309-3.174-5.975-3.353c-0.281-0.019-0.561-0.037-0.841-0.057
		c-5.526-0.37-8.121,5.204-7.443,9.77c1.726,11.638,6.993,22.272,11.624,32.983c4.784,11.065,10.987,23.754,19.902,32.112
		c8.194,7.683,17.451,15.701,27.726,20.392c4.735,2.162,10.326,4.335,15.318,5.726c0.418,0.117,0.82,0.207,1.211,0.283
		c4.919,3.893,10.314,7.091,16.44,9.131c-4.827,3.763-9.705,7.503-15.322,10.017c-2.785,1.247-5.669,2.286-8.592,3.237
		c-4.133,0.154-8.278,0.171-12.428,0.031c-1.992-0.214-4.034-0.293-6.063-0.316c-25.184-1.715-50.193-8.752-72.003-20.503
		c-1.671-0.9-3.3-1.127-4.779-0.885c-4.12-2.362-8.161-4.948-12.129-7.811c-15.869-11.455-28.808-26.415-41.91-40.833
		c-6.287-6.919-12.158-14.26-17.953-21.592c-1.871-2.368-3.556-4.858-5.159-7.4c-4.138-15.928-6.582-31.995-7.638-48.901
		c-0.734-11.729-0.764-23.593-1.869-35.291c-0.233-2.468-1.034-4.57-0.79-6.93c0.24-2.32,1.264-4.827,1.852-7.094
		c1.735-6.7,3.337-13.433,5.102-20.123c3.591-13.613,7.183-27.224,10.718-40.852c1.634-6.296,1.808-12.61,4.795-18.392
		c3.03-5.865,6.353-11.571,9.269-17.496c4.004-8.135-7.737-15.235-12.282-7.18c-4.35,7.71-9.212,15.121-13.581,22.818
		c-4.277,7.531-5.793,16.61-8.378,24.908c-4.862,15.618-9.687,31.196-15.285,46.542c0.641-8.172,1.437-16.337,2.486-24.563
		c1.197-9.382,3.991-18.222,6.243-27.377c1.008-4.098,1.739-8.267,2.916-12.323c0.693-2.389,1.494-4.598,2.505-6.869
		c0.21-0.448,0.42-0.895,0.628-1.344c0.137-0.226,0.25-0.421,0.347-0.595c6.053-2.573,6.227-13.529-1.087-14.638
		c-0.433-0.066-0.847-0.094-1.262-0.127c1.115-2.909,2.3-5.788,3.644-8.602c0.171-0.36,0.35-0.753,0.533-1.171
		c3.874-3.403,7.96-6.526,11.854-9.363c2.742-1.998,1.251-6.896-2.45-5.812c-0.914,0.268-1.818,0.561-2.723,0.851
		c1.722-2.727,3.698-4.934,5.989-5.788c4.684-1.749,5.785-9.398,0-10.65c-18.756-4.063-30.649,18.672-37.78,34.314
		c-2.275,1.921-4.508,3.894-6.687,5.886c-4.668,4.267-7.877,9.743-11.525,14.874c-14.701,20.671-24.348,42.701-27.426,68.006
		c-1.582,13.012,0.784,25.281,3.55,37.961c-1.371,10.638-2.485,21.303-3.17,31.995c-2.015,15.556-2.5,31.386-2.332,46.935
		c0.198,18.307,3.521,47.163,22.092,55.834c5.066,6.733,10.97,12.185,18.742,16.035c4.801,6.389,10.42,12.169,16.977,17.09
		c2.308,1.731,4.738,3.299,7.25,4.734c2.258,2.822,4.692,5.459,7.357,7.824c4.545,4.034,10.319,7.197,16.298,8.399
		c5.106,33.398,46.698,46.382,75.349,50.319c0.603,0.083,1.202,0.147,1.804,0.221c22.542,9.984,46.718,14.314,71.158,9.123
		c8.809-1.872,18.925-5.184,27.413-9.609c13.72-1.712,27.223-5.046,40.342-9.897c15.662-5.792,37.95-18.569,38.945-37.157
		c6.29-4.765,12.209-9.755,17.626-14.625c15.626-14.05,30.283-29.948,42.657-46.998c2.647-2.739,5.181-5.602,7.531-8.682
		c6.305-8.261,12.932-19.812,14.37-30.266C455.145,318.638,453.551,316.236,451.319,315.445z M207.415,424.358
		c6.627,1.217,13.277,2.175,19.943,3.02c0.728,0.149,1.457,0.317,2.183,0.453c5.052,0.94,10.783,1.651,16.516,1.742
		c8.539,0.97,17.1,1.908,25.685,2.326c-0.35,0.837-0.544,1.729-0.591,2.627c-6.826,1.936-13.135,3.609-20.316,4.795
		c-2.934,0.484-5.839,1.005-8.729,1.531c-15.292-2.943-30.553-8.267-45.108-13.043C200.737,427.21,204.441,426.213,207.415,424.358z
		 M310.529,432.278c-4.481,1.06-8.486,1.445-12.332,1.167c-0.761-1.022-1.863-1.771-3.254-2.053
		c11.391-1.128,22.92-3.524,34.087-6.817C323.214,427.98,317.277,430.684,310.529,432.278z"/>
	<path style="fill:#CCCCCC;" d="M407.155,152.446c-8.428-10.377-28.684-3.903-39.389-0.607c-12.389,3.814-24.758,7.71-37.167,11.458
		c-12.371,3.737-24.658,8.078-37.166,11.311c-9.006,2.328-18.148,4.537-27.286,3.127c-1.428-6.245-10.818-9.089-14.63-2.382
		c-8.579,15.101,9.119,22.762,21.537,24.458c15.883,2.169,32.359-1.364,47.703-5.299c14.914-3.826,29.776-7.153,44.544-11.601
		c8.291-2.498,16.56-5.081,24.607-8.279c8.107-3.223,15.942-5.254,19.421-13.963C410.495,157.745,408.939,154.642,407.155,152.446z"
		/>
	<path style="fill:#CCCCCC;" d="M232.849,165.462c-1.534-7.2-3.883-14.094-5.495-21.258c-1.716-7.633-1.816-15.564-1.824-23.362
		c-0.007-8.275,0.01-16.582,0.253-24.851c0.1-3.426-0.113-6.789-0.473-10.13c1.321-7.016,2.753-14.018,4.351-21.011
		c2.775-12.136-15.489-17.286-18.718-5.161c-6.082,22.842-10.927,45.894-14.648,69.233c-1.805,11.315-4.505,22.821-5.111,34.283
		c-0.221,4.207,0.641,8.681,0.103,12.818c-0.474,3.637-1.588,5.406,0.061,9.051c1.082,2.39,4.251,2.161,5.913,0.763
		c2.652-2.23,5.558-4.04,8.031-6.504c1.983-1.976,3.503-4.384,4.692-6.959c5.341,5.75,13.277,9.225,20.093,3.57
		C233.08,173.451,233.603,169.002,232.849,165.462z"/>
</g>
<path d="M505.427,224.299c-0.644-6.31-1.641-12.505-2.139-18.835c-0.59-7.475-2.934-13.81-5.032-20.94
	c-2.015-6.849-3.449-13.849-6.092-20.5c-2.75-6.926-5.969-13.716-8.981-20.531c-5.623-12.723-16.337-21.431-22.568-33.572
	c-6.142-11.969-17.493-18.951-25.816-29.018c-4.183-5.059-8.279-10.046-13.356-14.261c-5.045-4.191-11.141-6.657-16.272-10.917
	c-10.44-8.666-22.471-14.677-34.28-21.21c-6.003-3.321-10.988-8.004-17.15-11.064c-6.704-3.33-13.641-6.439-20.61-9.17
	c-7.078-2.776-14.485-3.93-21.868-5.603c-8.01-1.815-15.975-3.864-24.074-5.254c-6.873-1.18-13.297-1.602-20.242-1.201
	c-7.231,0.417-13.893-2.191-21.061-2.222c-14.91-0.064-30.642,5.215-44.884,9.139c-14.864,4.097-30.206,7.517-44.601,13.095
	c-13.274,5.142-25.488,12.575-38.391,18.531C105.562,46.511,96.169,55.3,86.307,64.718c-3.456,3.301-6.77,6.791-9.889,10.451
	c-2.779,2.883-5.506,5.782-8.228,8.588c-9.802,10.11-17.744,19.708-24.257,32.284c-2.799,5.402-5.455,10.895-8.658,16.076
	c-3.637,5.886-7.96,11.278-10.781,17.644c-6.057,13.67-10.251,28.855-12.498,43.61c-4.448,29.235-9.465,59.754-4.994,89.306
	c2.286,15.115,4.083,29.968,7.143,44.971c2.817,13.813,6.877,26.893,12.7,39.755c6.005,13.262,14.213,24.668,21.547,37.106
	c3.267,5.541,5.623,10.191,10.361,14.774c4.667,4.512,8.307,9.973,13.12,14.285c4.764,4.268,10.119,7.845,14.907,12.108
	c5.482,4.881,10.457,9.954,16.842,13.677c5.593,3.262,10.85,7.571,16.562,10.487c6.504,3.32,13.61,5.406,20.197,8.645
	c12.508,6.152,26.121,12.788,39.668,16.198c6.699,1.686,13.053,3.09,19.513,5.623c6.734,2.639,13.691,2.964,20.739,4.304
	c14.707,2.795,28.968,6.544,44.01,7.266c6.576,0.316,12.816,0.071,19.265-1.225c7.248-1.458,14.588-0.483,21.922-2.048
	c14.216-3.033,28.084-6.406,41.369-12.431c13.206-5.99,25.768-12.906,37.424-21.504c5.338-3.937,11.385-6.807,16.593-10.873
	c4.562-3.561,7.848-8.184,11.677-12.471c4.548-5.094,9.862-9.448,14.357-14.59c4.922-5.631,9.309-11.739,14.183-17.427
	c8.866-10.347,17.578-21.115,23.704-33.366c3.017-6.035,6.229-11.809,9.552-17.676c3.451-6.092,4.879-12.371,7.121-18.891
	c2.34-6.806,6.032-13.105,8.445-19.917c2.589-7.304,5.615-14.71,7.703-22.169c1.615-5.77,2.883-12.369,3.737-18.282
	c0.576-3.981,0.201-7.795,1.025-11.764c0.753-3.623,1.705-7.204,2.478-10.823C507.729,253.023,506.814,237.897,505.427,224.299z
	 M487.483,215.825c-2.969,2.339-5.136,5.005-7.633,8.498c-0.111,0.156-0.303,0.4-0.537,0.691c-0.376-0.51-0.861-0.955-1.417-1.297
	c3.266-4.907,6.58-9.717,8.581-15.215C486.872,210.931,487.209,213.378,487.483,215.825z M392.702,403.45
	c0.415,0.024,0.838-0.056,1.207-0.24c-0.054,1.566-0.1,3.139-0.123,4.708c-0.157-0.495-0.358-0.974-0.643-1.419
	c-0.241-0.378-0.53-0.684-0.84-0.945C392.453,404.854,392.584,404.153,392.702,403.45z M393.832,412.71
	c0.021,0.587,0.053,1.172,0.09,1.756c-0.197,0.024-0.394,0.051-0.59,0.093C393.538,413.931,393.701,413.316,393.832,412.71z
	 M394.447,392.099c-0.191-1.765-0.397-3.53-0.593-5.292c0.02-2.293-0.026-4.581-0.134-6.849
	C394.513,383.781,394.586,388.081,394.447,392.099z M326.417,400.344c1.549-3.016,3.083-6.213,4.769-9.332
	c-2.139,4.628-4.49,9.153-6.939,13.634C324.968,403.212,325.682,401.774,326.417,400.344z M329.252,420.192
	c7.306-12.865,15.187-25.398,22.272-38.383c-4.211,10.09-10.154,19.218-15.666,28.654c-2.089,3.577-4.068,7.217-6.018,10.871
	c-0.537,0.241-1.077,0.48-1.618,0.717C328.568,421.433,328.9,420.808,329.252,420.192z M363.198,379.183
	c0.263-0.026,0.524-0.05,0.787-0.076c-1.09,1.996-2.37,3.897-3.681,5.779C361.345,383.023,362.329,381.132,363.198,379.183z
	 M372.821,378.249c0.313-0.033,0.624-0.067,0.935-0.1c-0.655,0.982-1.304,1.969-1.936,2.967
	C372.162,380.163,372.495,379.207,372.821,378.249z M341.302,382.474c0.014-0.04,0.029-0.08,0.043-0.119
	c0.013-0.003,0.027-0.006,0.04-0.007C341.358,382.392,341.33,382.432,341.302,382.474z M286.464,439.911
	c2.523-5.649,4.702-11.38,6.869-17.203c1.174-3.156,2.413-6.316,3.673-9.472c-0.767,3.293-1.548,6.566-2.869,9.769
	c-1.671,4.05-2.749,8.044-3.654,12.316c-0.156,0.334-0.306,0.671-0.463,1.007c-0.317,0.677-0.615,1.379-0.904,2.095
	C288.217,438.904,287.333,439.401,286.464,439.911z M301.942,401.068c1.437-3.52,3.324-6.787,5.121-10.123
	c0.773-0.208,1.544-0.43,2.31-0.665c-1.878,4.988-3.807,9.947-5.805,14.88c-0.751-0.751-1.992-0.971-3.044-0.618
	C300.996,403.383,301.472,402.223,301.942,401.068z M267.66,458.817c0.159-0.044,0.314-0.089,0.474-0.131
	c0.377,0.457,0.775,0.902,1.184,1.339c-0.715-0.2-1.435-0.34-2.156-0.421C267.323,459.358,267.49,459.093,267.66,458.817z
	 M291.455,467.293c-0.041,0.127-0.074,0.256-0.114,0.383c-0.724-0.198-1.448-0.397-2.172-0.6
	C289.932,467.189,290.695,467.275,291.455,467.293z M303.448,466.839c0.221,0.119,0.46,0.219,0.727,0.287
	c0.484,0.123,0.951,0.178,1.409,0.206c-0.497,1.244-0.957,2.665-1.204,4.07c-1.134-0.358-2.273-0.704-3.416-1.037
	C301.867,469.225,302.684,468.049,303.448,466.839z M315.452,475.229c-0.231-0.096-0.463-0.198-0.694-0.291
	c0.244-0.311,0.48-0.63,0.708-0.955C315.423,474.412,315.426,474.825,315.452,475.229z M311.85,454.212
	c1.869-4.083,4.093-8.077,5.865-11.764c1.339-2.785,2.707-5.546,4.095-8.295c0.508-0.201,1.015-0.406,1.522-0.607
	c-1.739,3.212-3.516,6.403-5.388,9.539C317.121,444.464,314.528,449.786,311.85,454.212z M315.797,389.47
	c0.181-0.498,0.368-0.994,0.55-1.492c0.064-0.021,0.129-0.041,0.193-0.063C316.29,388.425,316.044,388.943,315.797,389.47z
	 M335.231,428.628c0.241-0.106,0.481-0.214,0.721-0.321c-3.913,6.966-7.928,13.856-12.295,20.556
	C327.457,442.084,331.305,435.334,335.231,428.628z M394.929,360.409c-0.687-0.031-1.369,0.04-2.002,0.266
	c-9.32,3.329-19.652,5.245-29.516,5.651c-10.845,0.446-21.361,2.859-31.968,4.991c-5.351,1.075-10.56,2.53-15.762,3.993
	c-2.359-1.582-4.877-0.463-7.294,2.009c-1.965,0.523-3.934,1.027-5.92,1.482c-3.723,0.852-7.35-0.338-11.001,1.131
	c-0.094,0.039-0.18,0.087-0.273,0.127c-2.085-6.542-7.417-11.785-12.049-16.756c-6.599-7.08-14.166-14.284-19.86-22.058
	c-5.408-7.38-11.33-14.485-16.42-22.011c-3.668-5.422-10.877-10.871-15.041-17.033c1.929-1.122,3.657-2.64,5.115-4.684
	c4.274-5.986,5.154-13.707,7.99-20.362c4.258-9.989,9.43-19.625,14.387-29.278c4.52-8.803,10.223-17.755,13.791-26.955
	c1.766-4.551,1.274-9.767,2.342-14.557c0.618-2.773,0.226-5.324-0.621-7.808c0.023-0.009,0.046-0.017,0.069-0.026
	c0.721,0.06,1.448,0.08,2.196-0.004c2.643-0.297,5.288-1.389,7.907-1.913c2.982-0.597,5.899-1.385,8.795-2.239
	c7.771-1.279,15.921-3.406,23.489-5.685c4.988,10.354,13.663,20.166,25.604,14.154c6.88-3.463,10.887-10.466,13.056-18.419
	c0.658-0.01,1.317-0.029,1.973-0.033c2.697-0.021,4.071-2.075,4.137-4.168c1.405,0.063,2.717,0.307,3.867,0.8
	c-0.658,2.095-0.894,4.264-0.18,6.424c1.369,4.145,5.398,5.589,8.888,7.521c1.819,1.007,3.464,2.203,4.992,3.523
	c-0.136,0.371-0.276,0.74-0.398,1.121c-1.317,4.098,2.82,6.116,5.949,4.889c4.669,6.223,7.948,13.741,11.36,20.514
	c6.787,13.477,13.237,32.895,29.479,34.06c0.286,0.383,0.641,0.701,1.041,0.938c0.668,2.849-1.408,7.118-1.881,9.502
	c-0.887,4.465-0.443,8.972-0.85,13.47c-1.001,11.045-5.036,20.853-9.302,30.903c-3.751,8.838-6.644,18.248-10.04,27.257
	C398.686,347.205,397.192,354.069,394.929,360.409z M162.135,289.256c0.571-1.888,1.05-3.796,1.571-5.578
	c1.13,0.044,2.26,0.079,3.391,0.113c-0.68,1.913-1.308,3.858-1.832,5.818C164.22,289.495,163.176,289.377,162.135,289.256z
	 M218.972,46.673c3.787-2.959,7.418-5.998,10.914-8.302c0.176-0.116,0.35-0.231,0.525-0.347c-1.519,1.452-3.053,2.887-4.704,4.187
	C223.577,43.889,221.265,45.263,218.972,46.673z M244.787,17.506c-2.577,1.768-5.155,3.54-7.738,5.298
	c1.915-1.768,3.831-3.536,5.748-5.304C243.464,17.485,244.127,17.492,244.787,17.506z M209.94,28.847
	c-1.764,1.354-3.554,2.676-5.363,3.967c-0.073,0.036-0.14,0.07-0.213,0.106c-4.711,2.335-8.906,6.04-13.222,9.031
	c-4.183,2.899-0.248,9.79,4.027,6.89c0.281-0.19,0.564-0.383,0.845-0.574c-0.84,1.254-1.341,2.71-1.507,4.558
	c-0.001,0.01,0.003,0.02,0.001,0.03c-1.668-0.437-3.374-0.974-5.188-1.684c-3.219-1.261-6.644-2.436-10.066-3.67
	c5.789-2.513,11.497-6.94,15.945-9.57C200.188,34.983,205.039,31.86,209.94,28.847z M212.262,51.543
	c-0.366,0.47-0.575,0.98-0.677,1.502c-0.868,0.174-1.721,0.326-2.55,0.453C210.123,52.896,211.198,52.239,212.262,51.543z
	 M204.515,88.098c0.538-5.758,3.206-10.618,2.693-16.445c-0.204-2.318-0.097-4.178,0.174-6.106c4.882-0.591,9.709-1.931,14.57-3.103
	c4.177-1.008,8.297-2.021,12.429-2.886c0.842,1.488,2.408,2.363,4.541,1.479c2.399-0.994,4.697-2.133,6.956-3.334
	c2.042-0.213,4.098-0.373,6.189-0.421c9.039-0.21,17.875-2.062,26.889-2.216c6.709-0.114,13.245-0.411,19.258-3.726
	c1.244-0.685,2.463-1.465,3.671-2.28c5.191,0.623,11.085-0.99,14.628,3.516c0.62,0.788,2.175,0.368,2.33-0.615
	c0.087-0.554,0.117-1.082,0.119-1.598c4.291,3.733,9.009,6.69,13.87,10.623c3.627,2.934,7.024,6.026,11.125,8.307
	c4.938,2.747,9.47,4.691,13.734,8.542c7.918,7.151,15.615,14.885,23.736,21.761c4.452,3.77,15.719,7.246,15.421,14.107
	c-0.001,0.046,0.009,0.084,0.009,0.129c-8.307,4.058-7.854,15.041-10.704,23.046c-2.475,6.949-6.797,12.248-10.79,18.324
	c-4.011,6.105-7.148,12.99-10.538,19.478c-3.403-1.252-7.324-1.08-11.06-0.498c0.621-6.377,0.408-12.682-0.181-17.743
	c-0.547-4.689-1.332-20.154-6.179-25.772c-0.087-0.177-0.197-0.351-0.358-0.517c-5.068-5.185-10.546-11.205-18.491-10.63
	c-6.332,0.458-11.227,5.676-14.658,10.573c-10.557,15.062-9.045,33.577-3.873,50.303c-2.749,0.598-5.489,1.239-8.208,1.971
	c-7.974,2.143-15.919,4.889-23.813,7.32c-3.119,0.96-6.142,1.759-9.276,2.562c-0.247,0.063-0.461,0.119-0.674,0.176
	c-4.191-8.111-9.785-15.451-15.652-22.412c-7.493-8.888-15.928-16.679-25.02-23.896c-4.404-3.496-8.872-7.597-13.851-10.253
	c-2.59-1.381-7.653-1.267-9.61-2.823c-0.183-0.146-0.37-0.274-0.555-0.397c-0.266-2.119-0.331-4.912-0.503-5.916
	c-0.74-4.334-1.178-8.638-1.102-13.037C201.905,105.08,203.717,96.65,204.515,88.098z M393.932,183.838
	c0.268-0.496,0.531-1.007,0.8-1.505c-0.146,0.795-0.294,1.591-0.444,2.386c-1.669,3.479-3.244,6.957-4.724,10.481
	c-0.297-0.356-0.598-0.707-0.904-1.055C390.462,190.714,392.118,187.19,393.932,183.838z M402.673,216.535
	c-0.196-0.391-0.396-0.781-0.593-1.172c0.407-0.103,0.803-0.256,1.172-0.47C403.054,215.437,402.864,215.986,402.673,216.535z
	 M411.095,232.211c-0.133,0.45-0.233,0.904-0.34,1.357c-1.357-2.69-2.557-5.475-3.78-8.145c0.751-0.166,1.471-0.547,2.079-1.217
	c1.934-2.129,2.46-4.392,3.693-6.917c0.191-0.393,0.4-0.774,0.614-1.154c0.276,1.087,0.733,2.132,1.449,3.103
	c0.323,0.437,0.698,0.794,1.092,1.111c-2.102,2.773-4.167,4.808-5.476,8.161C409.905,229.845,410.279,231.173,411.095,232.211z
	 M415.086,145.075c0.393-1.972,0.795-3.943,1.232-5.908c0.263-1.178,0.547-2.413,0.807-3.68c1.958-3.653,4.09-7.204,6.47-10.624
	c0.094,0.009,0.19,0.024,0.284,0.031c-1.117,3.114-2.767,6.173-3.727,8.425C418.479,137.248,416.798,141.169,415.086,145.075z
	 M402.246,125.463c-0.463,0.655-0.928,1.314-1.392,1.972c-0.65-0.371-1.474-0.367-2.189,0.354c-0.054,0.054-0.094,0.113-0.146,0.167
	c0.234-1.441,0.553-2.809,1.132-3.654c1.058-1.541,2.905-2.221,5.109-2.413C403.858,122.998,403.018,124.189,402.246,125.463z
	 M314.178,175.545c-2.131-8.091-4.084-16.412-3.003-24.801c0.995-7.727,3.816-15.167,8.769-21.228
	c3.718-4.551,7.848-7.455,13.99-5.215c2.934,1.071,5.353,3.253,7.593,5.528c-0.174,0.664,0.069,1.391,0.961,1.588
	c3.212,0.708,4.155,10.954,4.622,13.523c0.907,4.972,1.871,10.043,2.248,15.082c0.374,4.972,0.24,10.093-0.45,15.115
	c-1.239,0.28-2.476,0.571-3.706,0.881c-10.042,0.406-20.063,1.474-29.94,3.321C314.862,178.048,314.501,176.773,314.178,175.545z
	 M346.859,184.561c-0.121,0.397-0.226,0.801-0.356,1.194c-2.77,8.401-11.894,18.231-20.99,11.061
	c-3.046-2.402-5.358-5.783-7.154-9.472C327.781,185.792,337.331,184.902,346.859,184.561z M216.974,282.275
	c-0.48,0.577-0.951,1.16-1.478,1.712c-0.057,0.06-0.091,0.124-0.144,0.186c0.194-0.587,0.374-1.18,0.558-1.771
	C216.264,282.36,216.62,282.318,216.974,282.275z M202.819,189.443c-0.27,0.347-0.54,0.694-0.811,1.04
	c-0.063-0.316-0.146-0.625-0.226-0.937c0.484-0.824,0.972-1.646,1.461-2.469c1.641-1.704,3.262-3.427,4.877-5.162
	c-0.364,0.547-0.714,1.104-1.088,1.641C205.653,185.538,204.237,187.493,202.819,189.443z M176.885,250.733
	c-1.077,1.582-2.285,3.539-3.607,5.621c1.516-2.69,2.986-5.409,4.525-8.077c0.89-1.541,1.826-3.044,2.75-4.561
	c-0.104,0.356-0.213,0.708-0.314,1.064c-0.16,0.555-0.336,1.098-0.497,1.652C178.793,247.869,177.855,249.311,176.885,250.733z
	 M149.052,225.841c-1.719,2.529-3.447,5.048-5.148,7.598c0.427-2.775,0.885-5.546,1.427-8.309c0.003-0.017,0.007-0.034,0.011-0.051
	c0.217,0.109,0.448,0.201,0.701,0.271C147.059,225.631,148.061,225.785,149.052,225.841z M126.475,267.084
	c0.627,0.982,1.646,1.708,2.79,1.925c-0.037,0.423-0.064,0.844-0.1,1.267c-0.457-0.103-0.931-0.211-1.427-0.328
	c-0.397-0.401-0.785-0.801-1.165-1.182C126.54,268.203,126.506,267.644,126.475,267.084z M126.218,261.585
	c-0.08-2.505-0.097-5.008,0.024-7.507c0.228-4.731,0.551-9.473,0.908-14.214c2.051-0.448,4.035-1.706,5.866-3.239
	c-0.523,4.732-1.118,9.465-1.711,14.19C128.956,254.119,127.009,257.605,126.218,261.585z M152.161,271.965
	c-0.134,0.56-0.263,1.122-0.394,1.682c-0.386-0.021-0.771-0.041-1.157-0.066C151.141,273.051,151.667,272.517,152.161,271.965z
	 M157.325,251.619c-0.83,1.065-1.634,2.149-2.476,3.206c-0.394,0.494-0.964,1.304-1.651,2.29c0.147-0.563,0.291-1.125,0.443-1.688
	c1.475-2.686,3.034-5.322,4.657-7.927C157.983,248.88,157.657,250.252,157.325,251.619z M248.882,185.598
	c0.443,0.564,0.918,1.165,1.404,1.788c-0.076,0.063-0.154,0.117-0.227,0.186c-1.794,1.719-3.437,3.53-4.975,5.405
	C246.372,190.526,247.638,188.067,248.882,185.598z M234.512,246.714c3.307-5.178,6.633-10.341,9.956-15.509
	c-0.868,1.836-1.756,3.663-2.693,5.471c-3.176,6.127-6.416,12.212-9.67,18.292c-0.514-0.701-1.03-1.399-1.537-2.103
	C231.885,250.815,233.202,248.766,234.512,246.714z M231.617,166.417c-4.502,4.957-8.194,10.611-11.735,16.33
	c-0.113,0.129-0.223,0.257-0.336,0.386c3.794-5.796,7.635-11.707,10.937-17.763C230.86,165.72,231.244,166.064,231.617,166.417z
	 M218.878,271.506c0.044-0.073,0.09-0.149,0.134-0.221c2.135-3.561,4.338-7.083,6.562-10.593c0.608,1.157,1.128,2.576,1.369,4.035
	c-1.211,2.44-2.353,4.892-3.557,7.298c-1.475,0.563-3.237,0.791-4.867,0.935C218.638,272.477,218.76,271.993,218.878,271.506z
	 M128.788,185.091c0.044,0.031,0.079,0.07,0.124,0.1c-1.675,1.749-2.425,4.395-3.204,6.57c-0.408,1.14-0.793,2.27-1.165,3.403
	c-0.314-2.405-0.741-4.789-1.281-7.148C125.071,187.067,126.96,186.175,128.788,185.091z M111.755,205.895
	c0.053,3.773,0.119,7.545,0.167,11.308c0.141,10.884,1.842,21.684,1.928,32.609c0.003,0.403,0,0.804,0.001,1.207
	c-1.171-3.283-2.158-6.646-2.833-10.276C109.03,230.061,109.186,217.242,111.755,205.895z M127.031,281.785
	c1.258,0.723,2.526,1.244,3.796,1.459c1.856,0.82,4.362,0.328,5.635-1.458c0.15-0.113,0.301-0.223,0.451-0.35
	c0.498,0.083,0.998,0.163,1.498,0.24c-0.004,0.163-0.017,0.323-0.019,0.486c-0.046,4.609,5.943,5.808,8.302,2.249
	c0.351-0.53,0.658-1.078,0.944-1.632c0.73,0.061,1.461,0.116,2.193,0.164c-0.313,1.746-0.585,3.504-0.831,5.273
	c-0.748-0.007-1.495-0.02-2.249,0.001c-6.439,0.186-14.33-1.142-19.775-5.232c0.026-0.189,0.051-0.378,0.056-0.583
	C127.037,282.196,127.03,281.99,127.031,281.785z M197.275,288.511c0.818,0.32,1.732,0.411,2.636,0.187
	c-0.001,0.55,0.129,1.044,0.338,1.488c-1.231-0.043-2.463-0.069-3.696-0.077C196.792,289.574,197.044,289.048,197.275,288.511z
	 M210.467,287.634c1.309,0.393,2.819,0.104,3.807-1.07c-0.343,3.614,4.32,7.027,7.494,3.694c1.071-1.125,2.058-2.292,2.99-3.487
	c-0.754,1.779-1.684,3.253-2.902,4.037c-2.937,1.892-8.801,1.128-13.92,0.323C209.142,290.046,209.886,288.893,210.467,287.634z
	 M419.968,244.903c1.638-1.805,3.15-3.676,4.568-5.616c0.273,0.414,0.611,0.787,1.012,1.092c-0.484,0.598-0.975,1.192-1.497,1.759
	c-0.945,1.027-1.265,2.306-1.161,3.556C421.885,245.584,420.908,245.33,419.968,244.903z M480.04,183.417
	c-0.099,0.054-0.207,0.101-0.304,0.157c-0.301-0.992-0.998-1.852-1.852-2.488c0.251-0.54,0.497-1.081,0.75-1.619
	c0.076-0.163,0.153-0.326,0.228-0.49C479.265,180.456,479.653,181.936,480.04,183.417z M466.507,148.749
	c-0.041,0.037-0.083,0.076-0.123,0.113c0.023-0.079,0.039-0.159,0.061-0.236C466.466,148.667,466.487,148.709,466.507,148.749z
	 M459.536,234.27c1.639-2.252,3.537-4.304,5.472-6.325c-0.471,0.881-0.918,1.769-1.304,2.675c-1.771,4.153,1.826,7.858,6.02,6.02
	c0.318-0.14,0.625-0.296,0.931-0.45c-0.366,0.577-0.668,1.104-0.884,1.556c-0.14,0.024-0.256,0.044-0.313,0.053
	c-2.859,0.453-5.656,1.224-8.512,1.679c-1.796,0.287-3.594,0.411-5.393,0.477C456.897,238.107,458.139,236.188,459.536,234.27z
	 M451.162,127.656c0.338,0.426,0.691,0.84,1.038,1.258c-0.811,0.92-1.381,1.842-1.845,2.805c-0.328-0.188-0.673-0.347-1.047-0.423
	c-1.025-0.207-1.932-0.31-2.79-0.368c-0.154-0.842-0.4-1.691-0.73-2.546c0.061-0.624,0.079-1.241,0.054-1.846
	C447.611,127.006,449.38,127.449,451.162,127.656z M323.878,29.711c2.412,0.798,4.779,1.672,7.08,2.656
	c5.659,2.42,11.588,4.807,16.922,7.892c6.042,3.493,11.198,7.981,17.473,11.2c11.721,6.01,22.336,12.933,32.688,21.006
	c3.964,3.092,8.729,4.872,12.593,7.915c5.228,4.117,8.978,9.759,13.309,14.711c3.924,4.488,8.905,7.765,12.905,12.211
	c2.747,3.053,4.898,5.999,6.937,9.135c-0.277-0.101-0.547-0.226-0.83-0.308c-3.334-0.98-6.713-1.008-10.1-0.947
	c-0.323-1.379-0.87-2.723-1.724-3.998c-1.445-2.161-4.602-2.895-6.549-0.844c-1.272,1.339-2.492,2.729-3.684,4.144
	c-5.179-0.941-10.461-2.393-15.702-2.362c-0.28-6.387-5.061-10.433-10.637-13.887c-8.891-5.508-16.02-12.675-24.017-19.436
	c-4.104-3.47-7.925-7.503-12.386-10.517c-4.458-3.012-9.695-4.544-14.16-7.545c-4.759-3.199-8.756-7.601-13.906-10.23
	c-4.074-2.079-8.943-3.094-12.935-5.469c-1.329-1.698-3.286-2.949-5.515-3.737c2.225-1.979,4.387-3.985,6.474-5.879
	C320.141,33.585,322.303,31.745,323.878,29.711z M164.349,36.952c0.914-0.273,1.838-0.524,2.753-0.793
	c-2.099,1.868-0.601,5.116,1.866,5.488c-0.364,0.323-0.728,0.694-1.101,1.157c-0.904-0.454-1.792-0.924-2.652-1.421
	c-1.676-0.97-3.152-2.213-4.825-3.144C161.7,37.786,163.017,37.351,164.349,36.952z M31.223,175.329
	c0.137,0.625,0.278,1.252,0.426,1.879c-0.458,0.741-0.981,1.427-1.545,2.088C30.463,177.974,30.83,176.65,31.223,175.329z
	 M27.737,317.187c-6.289-26.995-8.358-55.785-6.1-83.421c0.835-10.214,2.206-20.484,3.808-30.672
	c0.871-1.16,1.134-2.382,1.796-4.221c1.092-3.027,3.116-4.874,5.411-7.076c2.32-2.225,4.552-4.432,6.4-6.933
	c5.566,0.544,11.053,1.606,16.659,1.995c6.105,0.424,11.672,3.273,17.724,4.134c6.283,0.892,12.479,0.63,18.185,3.587
	c3.437,1.782,5.96,2.346,9.77,1.318c0.931-0.251,0.708-1.604-0.223-1.644c-5.146-0.223-7.473-5.82-11.589-8.098
	c-5.583-3.09-12.326-2.85-18.351-4.52c-9.23-2.558-18.432-4.557-27.898-5.815c2.312-8.148,2.33-18.03-3.937-23.879
	c0.206-0.384,0.397-0.774,0.617-1.152c6.373-10.974,12.402-21.778,18.247-33.059c6.159-11.888,15.085-20.81,24.093-30.559
	c9.035-9.779,18.098-19.993,30.237-25.896c11.632-5.658,23.994-10.584,35.047-17.319c0.207,0.047,0.423,0.084,0.657,0.1
	c3.384,0.224,4.851,0.516,7.376,2.52c1.297,1.03,2.223,2.362,3.624,3.33c3.536,2.443,7.89,3.987,11.818,5.708
	c8.117,3.554,16.589,7.854,25.319,9.64c1.385,0.284,2.762,0.447,4.131,0.531c-0.251,2.285,0.22,4.658,0.167,6.933
	c-0.071,3.117-1.574,4.928-2.476,7.737c-1.025,3.196-1.118,6.726-1.598,10.026c-2.163,14.854-4.195,28.612-1.532,43.288
	c-0.19,0.228-0.37,0.466-0.524,0.718c-15.189,2.29-28.922,14.014-41.811,21.423c-7.785,4.475-16.25,8.785-23.165,14.577
	c-3.726,3.122-6.664,6.103-11.184,8.134c-3.537,1.589-6.736,3.079-9.338,6.067c-9.61,11.044-10.07,32.571-9.57,46.321
	c0.313,8.596,1.798,17.293,4.03,25.591c1.265,4.704,3.054,9.233,4.2,13.97c1.028,4.254,1.304,8.723,2.389,12.933
	c1.562,6.056,5.723,10.186,10.77,13.179c-1.397,2.665-2.479,5.533-3.471,8.345c-2.917,8.269-9.096,14.972-12.645,23.052
	c-3.868,8.805-6.146,18.247-9.153,27.36c-1.174,3.554-2.242,7.044-2.896,10.69c-2.345-0.668-4.754-1.128-7.267-1.692
	c-1.391-2.677-3.531-4.237-6.726-4.154c-1.292,0.033-2.422,0.421-3.419,1.061c-2.426-0.902-4.824-1.852-7.226-2.782
	c-1.364-1.899-3.123-3.427-5.496-4.284c-1.307-0.471-3.137-0.003-4.134,0.988c-1.344-0.374-2.7-0.721-4.088-0.998
	c-0.751-0.15-1.592-0.24-2.466-0.31c-1.982-2.386-4.432-3.129-7.574-1.18c-0.434,0.27-0.8,0.58-1.134,0.907
	c-1.809-0.069-3.606-0.194-5.276-0.494C33.232,341.506,30.599,329.472,27.737,317.187z M64.596,375.562
	c1.025,4.337,1.865,8.785,2.342,13.194c0,0.624-0.014,1.247,0.003,1.874c0,0.013,0.003,0.026,0.003,0.039
	c-0.331-2.607-0.843-5.215-1.391-7.924C65.06,380.31,64.755,377.956,64.596,375.562z M76.125,381.305
	c0.334-2.309,0.82-4.698,1.504-6.977c0.328,0.113,0.653,0.233,0.982,0.34c0.585,8.262-0.453,16.403-1.088,24.614
	C76.107,393.538,75.167,387.918,76.125,381.305z M76.744,414.844c0,0.03,0.004,0.061,0.004,0.091
	c-0.024-0.027-0.05-0.054-0.074-0.081C76.698,414.85,76.721,414.85,76.744,414.844z M87.768,377.12
	c1.238,0.411,2.393,0.937,3.479,1.555c-1.15-0.273-2.425-0.07-3.467,0.511C87.785,378.486,87.781,377.798,87.768,377.12z
	 M96.478,432.462c-0.12-0.109-0.243-0.21-0.364-0.317c0.143-0.13,0.283-0.266,0.407-0.418
	C96.503,431.971,96.493,432.217,96.478,432.462z M97.811,423.554c0.523-5.93,1.502-12.505,1.791-18.968
	c0.163-0.78,0.343-1.559,0.543-2.332c-0.004,0.398-0.031,0.8-0.094,1.204C100.34,410.261,99.05,416.917,97.811,423.554z
	 M100.724,388.622c-0.918-0.021-1.761,0.134-2.548,0.421c-0.942-3.199-2.425-6.155-4.602-8.756c0.046-0.001,0.093,0.001,0.137,0
	c2.947,2.26,5.373,5.232,7.65,8.404C101.148,388.668,100.949,388.626,100.724,388.622z M65.838,402.68
	c0.585-0.533,1.007-1.202,1.121-1.962c0.333-2.215,0.4-4.345,0.304-6.447c0.109,0.801,0.233,1.595,0.386,2.378
	c0.34,3.591,0.827,7.124,1.936,10.518c-0.356-0.374-0.701-0.747-1.06-1.121C67.526,405.005,66.648,403.87,65.838,402.68z
	 M106.531,441.556c4.044-8.319,4.203-17.797,5.548-26.772c0.447-2.983,1.102-5.942,1.865-8.862c0.081-0.314,0.187-0.641,0.304-0.975
	c0.431,0.44,0.874,0.878,1.319,1.315c-0.426,4.925-2.002,9.747-2.686,14.64c-0.738,5.276-0.735,10.69-1.749,15.922
	c-0.591,3.053-1.151,5.109-0.93,7.363c-0.094-0.06-0.188-0.121-0.283-0.18C108.746,443.259,107.627,442.425,106.531,441.556z
	 M118.406,449.417c0.604-0.531,1.085-1.199,1.332-1.986c2.953-9.365,2.525-19.236,6.699-27.731c-0.106,3.5-1.037,7.637-1.287,9.228
	c-1.022,6.537-1.798,13.122-3.416,19.546c-0.323,1.284-0.059,2.442,0.534,3.374C120.981,451.036,119.695,450.236,118.406,449.417z
	 M125.759,454.043c1.541,0.19,3.144-0.406,4.105-2.142c0.33-0.595,0.608-1.202,0.872-1.812c1.152,1.971,3.788,2.553,5.866,1.538
	c0.581,0.858,1.514,1.468,2.543,1.772c-0.288,2.045-0.49,4.067-0.464,6.24c-4.105-1.548-8.445-2.816-12.095-5.072
	C126.313,454.395,126.035,454.215,125.759,454.043z M155.879,425.982c-1.883-3.723-5.188-5.064-7.728-8.049
	c-2.743-3.227-4.278-6.543-7.844-9.248c-5.311-4.027-11.251-7.802-16.318-12.352c-1.045-4.847-3.319-9.306-7.808-8.929
	c-4.163-5.75-8.202-11.621-13.68-16.242c-0.738-0.623-1.477-1.162-2.216-1.655c2.302-9.715,6.085-19.319,9.236-28.809
	c2.98-8.971,7.273-16.707,12.048-24.794c2.092-3.543,2.939-6.86,4.128-10.753c0.545-1.785,1.337-3.417,2.203-5.002
	c2.963,1.344,5.968,2.56,9.199,3.124c5.9,1.03,11.838-0.238,17.754,0.427c3.624,0.407,7.236,0.731,10.843,1.015
	c1.485,1.178,3.79,1.338,5.469,0.498c0.053-0.027,0.097-0.063,0.148-0.09c3.076,0.191,6.15,0.333,9.222,0.441
	c1.579,2.478,5.469,2.365,7.435,0.186c9.506,0.136,19.032-0.086,28.664-0.648c2.576-0.15,5.048-0.516,7.343-1.234
	c2.479,5.446,6.503,10.687,9.089,15.244c5.683,10.017,12.018,19.738,18.946,29.002c6.519,8.716,14.687,16.709,21.997,24.808
	c1.849,2.049,3.703,4.101,5.236,6.406c1.424,2.139,2.129,5.011,3.737,6.966c0.341,0.414,0.717,0.78,1.111,1.11
	c-3.569,8.028-5.209,16.095-9.859,23.794c-5.246,8.689-8.608,18.609-11.704,28.241c-0.176,0.547-0.354,1.09-0.531,1.632
	c-1.271,2.429-2.285,4.857-2.652,6.954c-0.307,0.654-0.615,1.307-0.97,1.941c-5.683,0.855-11.434,2.432-17.153,1.275
	c-4.121-0.834-7.965-2.755-11.974-3.98c-4.719-1.442-9.348-1.632-14.221-2.116c-10.453-1.04-20.74-4.828-30.917-7.343
	c-8.872-2.193-17.94-4.157-26.605-7.12C157.158,429.068,156.645,427.493,155.879,425.982z M298.574,492.597
	c-6.536,1.02-12.918,0.354-19.479,1.792c-6.527,1.431-13.372,0.978-20.006,0.43c-14.14-1.168-27.663-5.491-41.671-7.458
	c-5.956-0.837-10.875-2.159-16.499-4.303c-6.547-2.496-13.466-3.229-20.094-5.381c-7.972-2.588-15.648-5.919-23.247-9.42
	c1.886-6.333,0.338-14.478,0.34-20.473c0.001-3.136,0.257-6.412,0.266-9.666c7.088,3.624,14.291,6.07,22.246,8.127
	c10.084,2.607,20.187,6.427,30.497,7.984c5.685,0.858,11.33,0.922,16.83,2.792c4.431,1.507,8.649,3.41,13.317,4.12
	c3.42,0.521,7.3,0.564,11.247,0.29c-0.016,0.404-0.02,0.811,0.024,1.238c0.964,8.989,9.79,6.889,15.766,9.073
	c11.048,4.04,22.309,6.527,33.605,9.747c5.261,1.499,13.466,3.04,19.203,5.955C313.51,489.717,305.863,491.461,298.574,492.597z
	 M321.655,478.39c0.033-0.029,0.069-0.046,0.101-0.076c0.363-0.336,0.693-0.687,1.042-1.03c0.327,2.233,1.664,3.67,4.454,3.856
	c1.244,0.083,2.385-0.211,3.44-0.744c0.1,1.237,0.7,2.4,1.734,2.999c-1.549,0.63-3.127,1.237-4.727,1.814
	C326.838,482.473,324.531,480.235,321.655,478.39z M486.599,269.056c-2.91,12.662-2.619,25.718-7.013,38.083
	c-2.25,6.333-4.398,12.716-6.694,19.031c-2.463,6.774-6.434,12.876-8.722,19.723c-3.898,11.677-10.296,22.148-16.128,33.029
	c-6.41,11.961-15.321,21.951-24.023,32.237c-3.985,4.711-7.518,9.839-11.758,14.321c-0.174,0.184-0.36,0.358-0.535,0.54
	c-0.11-0.326-0.234-0.653-0.391-0.984c-9.031-18.991,4.3-46.037-11.887-62.638c-0.143-0.147-0.306-0.28-0.468-0.414
	c0.982-1.495,1.891-3.11,2.745-5.017c2.298-5.125,4.438-10.311,6.797-15.409c5.058-10.93,9.15-22.231,13.91-33.275
	c4.528-10.506,5.586-21.498,6.187-32.734c0.301-5.633,3.377-11.968,2.151-17.437c7.764-1.878,14.585-4.651,22.839-4.612
	c6.959,0.033,15.218-0.771,21.917-2.795c4.759-1.438,6.42-5.955,8.951-9.826c1.434-2.193,2.875-4.32,4.264-6.449
	c0.11,4.475,0.111,8.951,0.354,13.424C489.501,255.326,488.268,261.797,486.599,269.056z"/>
<path d="M37.499,256.5c2.34-5.172,3.597-9.707,7.381-14.133c1.849-2.162,2.549-4.734,4.201-6.959
	c1.522-2.049,2.39-2.739,2.745-5.405c0.473-3.556-5.218-4.125-6.136-0.831c-0.328,1.178-3.658,3.916-4.46,5.206
	c-1.512,2.436-3.696,4.035-5.462,6.295c-3.032,3.88-6.442,9.887-4.938,14.954C31.65,258.382,36.139,259.504,37.499,256.5z"/>
<path d="M48.384,263.333c3.043-3.016,6.609-5.242,9.312-8.628c2.055-2.573-1.372-6.245-3.708-3.707
	c-4.26,4.628-10.117,7.126-14.226,12.069c-2.071,2.492-8.015,8.584-2.5,10.591c1.1,0.4,2.323-0.099,3.136-0.828
	C43.515,270.027,45.423,266.268,48.384,263.333z"/>
<path d="M50.083,279.719c2.173-3.366,4.488-7.029,4.637-11.16c0.01-0.273-0.338-0.396-0.524-0.217
	c-3.37,3.259-6.326,7.076-9.253,10.764c-2.576,3.246-5.111,6.543-5.055,10.873c0.017,1.355,1.881,2.332,2.857,1.184
	C45.671,287.721,47.639,283.506,50.083,279.719z"/>
<path d="M51.369,289.979c0.056,7.69-6.84,13.596-7.972,21.138c-0.15,0.995,0.948,1.826,1.771,1.031
	c3.17-3.063,5.449-8.002,7.31-11.996c1.616-3.471,2.67-6.784,2.069-10.603C54.259,287.721,51.356,288.195,51.369,289.979z"/>
<path d="M163.706,379.279c-3.524,3.269-4.869,7.845-7.02,11.996c-1.718,3.316-4.959,7.478-2.932,11.282
	c0.724,1.358,2.677,1.522,3.723,0.48c5.262-5.245,5.226-14.35,10.41-19.578C170.578,380.747,166.491,376.695,163.706,379.279z"/>
<path d="M173.841,399.029c0.638,0.641,0.628,0.333,0.221,1.227c-0.418,0.918-0.787,1.844-0.985,2.833
	c-0.38,1.892,0.892,4.495-0.084,6.037c-0.855,1.349,0.837,2.987,2.175,2.175c1.267-0.77,2.185-1.759,2.8-3.12
	c0.704-1.555,0.527-3.256,0.978-4.867c0.931-3.329,1.689-5.473-1.199-8.189C175.159,392.693,171.322,396.501,173.841,399.029z"/>
<path d="M199.426,454.981c-4.425,3.531-10.508,18.712-2.37,21.34c1.515,0.49,3.184,0.091,3.764-1.534
	c0.517-1.449-0.364-3.233-0.503-4.698c-0.318-3.36,0.607-8.626,3.251-10.967C206.438,456.581,202.307,452.681,199.426,454.981z"/>
<path d="M213.584,462.85c-1.594,0.516-2.223,1.889-2.013,3.451c-0.004-0.031-0.007-0.049-0.011-0.086
	c0.017,0.137,0.03,0.274,0.041,0.413c0.016,0.208,0.024,0.416,0.026,0.624c0,0.153-0.016,0.326-0.02,0.493
	c-0.054,0.043-0.093,0.071-0.16,0.123c-0.328,0.331-0.555,0.721-0.683,1.17c-0.29,1.272,0.2,2.223,1.219,2.996
	c0.778,0.59,1.881,0.376,2.677,0c2.797-1.319,2.857-4.562,2.456-7.177C216.89,463.367,214.941,462.411,213.584,462.85z"/>
<path d="M353.149,258.04c-1.001,0.767-1.444,1.898-0.811,3.09c0.181,0.341,0.441,0.71,0.697,0.981
	c0.116,0.123,0.408,0.46,0.451,0.451c0.273,0.563,0.448,1.238,0.565,1.815c0.29,1.435,0.436,3.14,0.02,4.562
	c-0.594,2.029-2.275,0.945-3.244-0.366c-1.327-1.792-2.637-4.091-2.954-6.322c-0.35-2.462-4.714-1.903-4.382,0.593
	c0.466,3.517,2.51,7.767,5.208,10.141c2.873,2.528,7.515,2.783,9.956-0.493c1.895-2.546,2.356-6.576,1.616-9.595
	C359.629,260.28,356.356,255.581,353.149,258.04z"/>
<path d="M343.356,315.681c-1.669-1.047-2.867-2.546-3.794-4.261c-1.709-3.162-6.504-0.353-4.817,2.816
	c1.321,2.479,3.192,4.585,5.531,6.146c2.146,1.434,5.452,2.807,7.804,1.175c1.047-0.727,1.157-1.922,0.373-2.892
	C347.187,317.103,345.025,316.727,343.356,315.681z"/>
<g>
</g>
<g>
</g>
<g>
</g>
<g>
</g>
<g>
</g>
<g>
</g>
<g>
</g>
<g>
</g>
<g>
</g>
<g>
</g>
<g>
</g>
<g>
</g>
<g>
</g>
<g>
</g>
<g>
</g>
</svg>
