<svg height="512" viewBox="0 0 60 50" width="512" xmlns="http://www.w3.org/2000/svg"><g id="038---Frog" fill="none"><path id="Path" d="m29 49.381c-.2218047.0003139-.4173044-.1455359-.4801907-.3582393-.0628862-.2127034.0218744-.4414127.2081907-.5617607l13.537-8.769-16.122 9.308c-.234481.1270728-.5274228.0477401-.6657366-.1802909-.1383139-.2280309-.0733058-.5244809.1477366-.6737091l12.768-8.108-14.514 8.379c-.2348642.1312813-.531504.0531604-.6712412-.1767732-.1397372-.2299337-.0724576-.5292187.1522412-.6772268l14.851-9.447-16.559 9.561c-.2363779.1427656-.5437344.0668779-.6865-.1695s-.0668779-.5437344.1695-.6865l15.122-9.565-16.608 9.588c-.2348642.1312813-.531504.0531604-.6712412-.1767732-.1397372-.2299337-.0724576-.5292187.1522412-.6772268l18.277-11.69-19.8 11.43c-.2346058.1253855-.5263122.0451285-.6637604-.18262-.1374483-.2277485-.0725112-.523243.1477604-.67238l16.343-10.32-17.552 10.133c-.2372063.141661-.5443389.0642063-.686-.173-.141661-.2372063-.0642063-.544339.173-.686l9.187-5.67-9.84 5.681c-.1529097.0925318-.3435692.0964583-.5001589.0103006-.1565897-.0861578-.2553199-.2493105-.259-.428-.00368-.1786896.0882492-.3457688.2411589-.4383006l16.562-10.477-17.669 10.2c-.2362845.1306359-.5336041.0500916-.6716393-.181948s-.0669238-.5317553.1606393-.677052l6.629-4.06-7.261 4.191c-.2346058.1253855-.5263122.0451285-.6637604-.18262-.1374483-.2277485-.0725112-.523243.1477604-.67238l19.9-12.573-21.709 12.534c-.23638246.1285498-.53210687.0469768-.6691568-.184581-.13704993-.2315579-.06627089-.5300498.1601568-.675419l3.063-1.856-3.869 2.231c-.23617349.1361818-.537908.0580681-.67833183-.1756081-.14042384-.2336761-.06777083-.5367718.16333183-.6813919l19.835-12.37-21.234 12.262c-.2372063.1413849-.5441151.0637063-.6855-.1735s-.0637063-.5441151.1735-.6855l15.1-9.274-15.91 9.185c-.23620749.133071-.53543293.0536509-.67455995-.1790411-.13912701-.2326919-.06746125-.5338687.16155995-.6789589l21.51-13.384-22.332 12.893c-.23596019.1244074-.52802952.041678-.66369597-.1879935-.13566644-.2296716-.06715011-.5253981.15569597-.6720065l6.134-3.711-6.263 3.613c-.23583577.1260453-.52910097.0442222-.66561588-.1857118-.13651492-.2299339-.06795177-.5265795.15561588-.6732882l14.681-8.981-14.918 8.612c-.23698876.1350471-.53848394.055235-.67761558-.1793791-.13913163-.2346142-.06455352-.5374465.16761558-.6806209l9.765-5.932-9.682 5.59c-.23701856.1320316-.53608427.0509486-.6739531-.1827228-.13786884-.2336714-.06422739-.5346559.1659531-.6782772l.353-.212-.187.107c-.23638246.1285498-.53210687.0469768-.6691568-.184581-.13704993-.2315579-.06627089-.5300498.1601568-.675419l3.325-2.01-2.961 1.712c-.23571786.1278172-.53029699.0469384-.66770199-.1833224-.13740501-.2302607-.06871185-.5279174.15570199-.6746776l17.873-11.042-17.476 10.086c-.23775858.1408326-.54466738.0622586-.68549998-.1755-.14083261-.2377586-.06225859-.5446674.17549998-.6855l6.045-3.667-5.388 3.116c-.23637787.1427656-.54373437.0668778-.68649997-.1695-.14276561-.2363779-.06687788-.5437344.16949997-.6865l21-13.246-19.649 11.342c-.23775858.1408326-.54466739.0622586-.6855-.1755s-.06225858-.5446674.1755-.6855l1.8-1.09-.229.132c-.23698876.1350471-.53848394.055235-.67761558-.1793791-.13913163-.2346142-.06455352-.5374465.16761558-.6806209l5.144-3.14c-.14156299-.0251678-.26543981-.1100599-.34-.233-.14144229-.2329481-.07028398-.5362604.16-.682l5.708-3.606-5.567 3.211c-.23610173.1433179-.54368209.0681017-.68699998-.168s-.06810174-.5436821.16799998-.687l6.209-3.963-6.083 3.507c-.23448097.1270728-.52742279.0477401-.66573664-.1802909-.13831386-.2280309-.07330581-.5244809.14773664-.6737091l3.986-2.538-3.6 2.075c-.23354514.1328438-.53032442.0573638-.6720248-.1709163s-.07765459-.5277351.1450248-.6780837l7.066-4.7-6.7 3.866c-.23210925.1290838-.52463723.0541763-.66613933-.170578-.1415021-.2247542-.08259625-.5209195.13413933-.674422l5.457-3.714-4.763 2.749c-.2313261.1333882-.5266402.061466-.67072696-.1633522-.14408676-.2248181-.08608875-.5231794.13172696-.6776478l5.623-3.969-4.666 2.694c-.2313261.1333882-.5266402.061466-.67072696-.1633522-.14408676-.2248181-.08608875-.52317937.13172696-.6776478l3.646-2.585-2.379 1.373c-.23055066.13029452-.52270695.05822926-.66621925-.16433419-.14351231-.22256344-.08860007-.51842379.12521925-.67466581l1.509-1.082c-.22863471.06516685-.47154022-.03966917-.58095501-.25073539-.10941479-.21106623-.05507876-.46998952.12995501-.61926461l2.018-1.588c-.0450212-.03697203-.0826774-.08209157-.111-.133-.1375532-.23865551-.0561721-.54361136.182-.682l3.665-2.116c.2269587-.12823252.5143539-.06057953.6602778.15542976.145924.21600929.1014061.50788441-.1022778.67057024l-.2.155 2.588-1.492c.2299606-.12621559.518365-.05325461.6606421.16713023.1422771.22038483.0900471.51325417-.1196421.67086977l-1.4 1 2.805-1.619c.2313261-.13338821.5266402-.06146595.670727.16335216.1440867.22481812.0860887.52317941-.131727.67764784l-3.647 2.587 4.9-2.828c.2310609-.12980827.523268-.05677568.6660866.16647793.1428185.2232536.086628.51916126-.1280866.67452207l-5.616 3.964 6.731-3.886c.2328603-.1351428.5309189-.06163618.6742423.16628028.1433233.22791645.080443.52839646-.1422423.67971972l-5.456 3.723 8.9-5.139c.2335451-.1328438.5303244-.05736382.6720248.17091629s.0776546.52773513-.1450248.67808371l-7.059 4.694 9.828-5.673c.234481-.12707284.5274228-.04774006.6657366.18029089.1383139.22803094.0733058.52448086-.1477366.67370911l-4 2.551 5.6-3.231c.2361017-.14359403.543906-.06860173.6875.1675s.0686017.54390597-.1675.6875l-6.201 3.958 7.648-4.416c.2354379-.13454995.5352149-.05690217.6757281.17502611.1405133.23192829.0705395.53358878-.1577281.67997389l-5.721 3.618 9.841-5.682c.2358358-.12604535.529101-.04422218.6656159.18571176s.0679517.52657952-.1556159.67328824l-.94.574 3.144-1.818c.2377586-.14083259.5446674-.06225856.6855.17550002.1408326.23775857.0622586.54466736-.1755.68549998l-1.838 1.116 3.067-1.77c.2355125-.13195996.5332497-.0531389.6726204.17806525.1393708.23120415.0700423.53129378-.1566204.67793475l-21 13.242 22.95-13.249c.2369888-.13504713.5384839-.05523499.6776156.17937913.1391316.23461413.0645535.53744647-.1676156.68062087l-6.052 3.669 6.637-3.828c.2362075-.13307102.5354329-.05365088.6745599.17904108.1391271.23269196.0674613.53386873-.1615599.67895892l-17.868 11.042 18.713-10.8c.2359602-.12440737.5280295-.041678.663696.18799355.1356664.22967154.0671501.52539802-.155696.67200645l-3.308 2 3.6-2.078c.2370186-.13203157.5360843-.0509486.6739531.18272279s.0642274.53465591-.1659531.67827721l-.349.21.454-.261c.2363825-.12854979.5321069-.0469768.6691568.18458103.1370499.23155784.0662709.53004973-.1601568.67541897l-9.774 5.937 9.986-5.765c.2362845-.13063592.5336041-.05009165.6716393.18194798.1380352.23203962.0669238.53175531-.1606393.67705202l-14.687 8.981 14.82-8.556c.2363825-.12854979.5321069-.0469768.6691568.18458103.1370499.23155784.0662709.53004973-.1601568.67541897l-6.133 3.709 6.1-3.523c.2356087-.12976469.5316571-.04987998.6700067.18079237.1383496.23067236.0694166.52946069-.1560067.67620763l-21.51 13.386 21.5-12.411c.2357179-.1278172.530297-.0469384.667702.1833224.137405.2302607.0687118.5279174-.155702.6746776l-15.097 9.272 14.84-8.568c.2361735-.1361818.537908-.0580681.6783318.1756081.1404239.2336761.0677709.5367718-.1633318.6813919l-19.844 12.376 19.458-11.231c.2377586-.1405564.5444435-.0617585.685.176.1405564.2377586.0617586.5444435-.176.685l-3.02 1.83 2.383-1.376c.2349709-.1292146.5300387-.050062.6687925.179405.1387537.2294671.0717837.5275361-.1517925.675595l-19.9 12.571 18.922-10.926c.2362845-.1306359.5336041-.0500916.6716393.181948s.0669238.5317553-.1606393.677052l-6.655 4.076 5.66-3.267c.2354379-.13455.5352149-.0569022.6757281.1750261.1405133.2319283.0705395.5335888-.1577281.6799739l-16.552 10.472 17.918-10.345c.2372063-.1413849.5441151-.0637063.6855.1735s.0637063.5441151-.1735.6855l-9.216 5.688 9.859-5.691c.2349709-.1292146.5300387-.050062.6687925.179405.1387537.2294671.0717837.5275361-.1517925.675595l-16.326 10.314 17.17-9.912c.2354116-.1379583.5379577-.061708.6798637.1713453.1419059.2330532.070765.5368414-.1598637.6826547l-18.287 11.69 18.913-10.918c.2363779-.1427656.5437344-.0668778.6865.1695.1427656.2363779.0668779.5437344-.1695.6865l-15.106 9.556 15.316-8.838c.234481-.1270728.5274228-.0477401.6657366.1802909.1383139.2280309.0733058.5244809-.1477366.6737091l-14.857 9.446 14.877-8.59c.234481-.1270728.5274228-.0477401.6657366.1802909.1383139.2280309.0733058.5244809-.1477366.6737091l-12.779 8.115 12.482-7.206c.2355494-.1441463.5433537-.0700494.6875.1655s.0700494.5433537-.1655.6875l-13.532 8.765 12.878-7.434c.2343611-.1288923.5286543-.0505227.6678755.1778537.1392213.2283764.0740613.5258734-.1478755.6751463l-8.424 5.39 7.4-4.271c.2341687-.1463554.5426445-.0751687.689.159.1463554.2341687.0751687.5426445-.159.689l-8.735 5.878 6.725-3.882c.1549945-.0985297.351531-.1041539.5119064-.0146489.1603754.0895049.2587712.2597296.2562855.4433739s-.1054527.3511436-.2681919.436275l-19.311 11.153c-.2334461.1352991-.5321345.0609722-.6749447-.1679561-.1428102-.2289282-.0782242-.5298733.1459447-.6800439l8.737-5.881-13.665 7.89c-.2348642.1312813-.531504.0531604-.6712412-.1767732-.1397372-.2299337-.0724576-.5292187.1522412-.6772268l8.425-5.398-10.93 6.309c-.0758121.0458093-.1624328.0706566-.251.072z" fill="#82c05c"/><path id="Path" d="m29.824 43.448c-.208118-.0002419-.3943229-.1293732-.4674955-.3242037-.0731727-.1948305-.0180095-.4146127.1384955-.5517963l3.655-3.195-6.05 3.494c-.2280542.1290416-.517047.0601323-.6623353-.1579314-.1452882-.2180638-.0975826-.5113034.1093353-.6720686l1.379-1.052-2.29 1.323c-.2280989.1338167-.5209547.0668721-.6682583-.1527586-.1473036-.2196308-.0981078-.515985.1122583-.6762414l.586-.453-1.093.631c-.2125801.1214168-.481811.0710563-.6361309-.1189903-.1543198-.1900467-.1483392-.4638818.0141309-.6470097l1.8-2.014-2.629 1.519c-.2208953.136633-.509623.0813788-.6644625-.1271591-.1548394-.208538-.1242214-.5009064.0704625-.6728409l.342-.324-.438.253c-.2040746.1179452-.462806.0773491-.6209509-.0974299-.1581449-.1747791-.1727488-.4362685-.0350491-.6275701l.486-.67-.469.27c-.1539269.0888816-.3434681.0893635-.497845.0012658-.1543768-.0880978-.2503782-.2515293-.252155-.4292658l-.01-.959c-.1981212-.04927-.3463885-.214042-.3745518-.4162458-.0281633-.2022037.0694349-.4012203.2465518-.5027542l.372-.214c.1538642-.0883754.3430408-.088585.4971005-.0005509.1540597.0880342.2499226.2511235.2518995.4285509l.008.8 1.758-1.012c.2040207-.1168465.4618881-.0757661.6195016.0986916.1576136.1744578.1723898.4351585.0354984.6263084l-.485.671 2.089-1.206c.2208953-.136633.509623-.0813788.6644625.1271591.1548394.208538.1242214.5009064-.0704625.6728409l-.341.322 1.658-.957c.2128621-.1227709.4833831-.0726697.6381602.1181888.1547771.1908586.1479267.4658947-.0161602.6488112l-1.8 2.013 4.834-2.79c.2280989-.1338167.5209547-.0668721.6682583.1527586.1473036.2196308.0981078.515985-.1122583.6762414l-.586.453 2.62-1.513c.2280542-.1290416.517047-.0601323.6623353.1579314.1452882.2180638.0975826.5113034-.1093353.6720686l-1.381 1.053 3.707-2.14c.2226556-.1273746.5055829-.0655928.6548741.1430023.1492912.2085952.1165111.4963282-.0758741.6659977l-3.655 3.2 4.208-2.429c.2231941-.1282474.5072862-.0660776.6565145.1436697s.1148202.4985197-.0795145.6673303l-1.925 1.652c.1719189.0763548.2864338.2427405.296354.4305909.0099201.1878503-.0864334.3653718-.249354.4594091l-3.284 1.9c-.2228025.1258076-.5046322.0631099-.6530847-.1452897-.1484525-.2083995-.1156192-.4952461.0760847-.6647103l1.093-.946-4.076 2.353c-.0764282.0421977-.1627255.0632542-.25.061z" fill="#8e234c"/><path id="Path" d="m18.308 22.416c-.2041799.0000218-.38786-.124107-.4639939-.3135617-.076134-.1894546-.029424-.4061676.1179939-.5474383l2.177-2.081-4.039 2.326c-.2296891.1296297-.5205695.0585592-.6646041-.1623819s-.0916869-.5157667.1196041-.6736181l.455-.333-.921.531c-.2272713.1290292-.5155715.0612656-.6615658-.155498-.1459944-.2167636-.1004262-.5093938.1045658-.671502l3.371-2.624-3.928 2.267c-.2304519.1256553-.5188365.0517188-.6604036-.1693153-.1415671-.2210342-.088116-.5139083.1224036-.6706847l1.142-.807-1.168.674c-.226507.1291681-.5142486.0625855-.6609917-.1529516-.1467432-.2155372-.103215-.5076567.0999917-.6710484l4.836-3.835-4.984 2.877c-.2309306.1317312-.5245674.0597083-.6683337-.1639283-.1437664-.2236366-.0873821-.520673.1283337-.6760717l1.911-1.365-1.642.949c-.2308022.1338179-.5260112.0628564-.670779-.1612399s-.0880924-.5223777.128779-.6777601l1.882-1.354-1.475.852c-.2304184.1322364-.5240189.0611893-.6684864-.1617642-.1444674-.2229535-.0893536-.5199576.1254864-.6762358l1.472-1.066-.825.478c-.2256086.1271264-.5109479.0609576-.657579-.1524896-.1466312-.2134471-.106025-.5035297.093579-.6685104l2.815-2.279-1.784 1.029c-.2164748.1176434-.486383.0600602-.6359981-.1356862-.149615-.1957464-.134338-.4713056.0359981-.6493138l2.058-2.075c-.2192618-.01473702-.4031991-.1709106-.4533014-.38487948-.0501023-.21396887.0453766-.43556967.2353014-.54612052l2.733-1.578c.2164748-.11764339.486383-.06006017.6359981.13568619.149615.19574636.134338.47130559-.0359981.64931381l-1.832 1.855 4.044-2.334c.2257586-.1294404.5130594-.0640705.6605892.15030466.1475298.21437517.1059565.50607128-.0955892.67069534l-2.81 2.275 3.693-2.134c.2304184-.13223644.5240189-.06118928.6684864.16176419.1444674.22295348.0893536.51995759-.1254864.67623581l-1.477 1.07 1.786-1.031c.2308022-.1338179.5260112-.06285643.670779.16123991.1447678.22409633.0880924.52237765-.128779.67776009l-1.889 1.356 1.964-1.134c.2309306-.13173121.5245674-.05970825.6683337.16392831.1437664.22363655.0873821.52067301-.1283337.67607169l-1.909 1.361 1.874-1.082c.226507-.12916814.5142486-.0625855.6609917.1529516.1467432.2155372.103215.5076567-.0999917.6710484l-4.835 3.836 4.762-2.745c.2310609-.1298083.523268-.0567757.6660866.1664779.1428185.2232536.086628.5191613-.1280866.6745221l-1.14.8.726-.418c.2271002-.1265913.5133226-.0580067.6583864.1577626.1450637.2157693.100553.506709-.1023864.6692374l-3.369 2.623 2.69-1.554c.2296891-.1296297.5205695-.0585592.6646041.1623819s.0916869.5157667-.1196041.6736181l-.7.513c.2164074-.0364224.4312709.0725229.5297796.2686219.0985087.1960989.0576354.4335115-.1007796.5853781l-2.177 2.078.266-.153c.2374252-.1242009.5305531-.0391619.6646466.1928199.1340935.2319817.0614797.5284321-.1646466.6721801l-3.868 2.234c-.0755435.0453409-.1618956.0695195-.25.07z" fill="#fff"/><path id="Path" d="m41.743 22.424c-.2059464-.000202-.3907013-.1266595-.4654312-.3185694s-.0241455-.4100087.1274312-.5494306l2.544-2.337-4.165 2.4c-.2253165.1265297-.5099298.0605202-.6565485-.1522715-.1466186-.2127916-.1069324-.5022515.0915485-.6677285l3.517-2.859-4.336 2.509c-.2283835.1299972-.5184238.0610156-.6638282-.1578813-.1454044-.2188968-.0965443-.5129964.1118282-.6731187l3.407-2.591-3.735 2.157c-.2265186.1336661-.5178659.0689882-.6665473-.1479706s-.103858-.5120137.1025473-.6750294l5.044-4.061-5.258 3.035c-.229416.1334891-.5231565.0644561-.6690977-.1572468-.1459412-.221703-.0932171-.5188044.1200977-.6767532l3.392-2.527-3.167 1.826c-.2290632.1321979-.5214568.063148-.6671806-.1575572-.1457237-.2207053-.094369-.5167199.1171806-.6754428l3.069-2.3-2.632 1.519c-.2306836.128482-.5215078.0554404-.6641078-.1667933s-.0878131-.5170425.1251078-.6732067l.529-.375c-.2266102.0522696-.45934-.0586027-.5615257-.2675103s-.0468446-.4606876.1335257-.6074897l2.659-2.164-1.567.9c-.2190652.1318893-.5023394.0772423-.6566242-.1266708s-.1298566-.4913741.0566242-.6663292l1.861-1.79c-.1272096-.03427314-.2353092-.11823048-.3-.233-.1373847-.23891688-.0555349-.54395304.183-.682l2.737-1.574c.2190652-.13188932.5023394-.07724227.6566242.12667084s.1298566.49137409-.0566242.66632916l-1.423 1.368 3.428-1.979c.2259084-.13195581.5153456-.06745042.6638412.14794688.1484956.21539729.1058364.50885096-.0978412.67305312l-2.654 2.16 3.576-2.065c.2313261-.13338821.5266402-.06146595.670727.16335216.1440867.22481812.0860887.52317941-.131727.67764784l-.34.24.546-.314c.2290632-.13219788.5214568-.06314799.6671806.15755725.1457237.22070523.094369.51671981-.1171806.67544275l-3.071 2.3 3.338-1.927c.229416-.13348907.5231565-.06445615.6690977.15724684.1459412.22170298.0932171.51880432-.1200977.67675316l-3.394 2.528 3.463-2c.2265186-.1336661.5178659-.0689882.6665473.1479706s.103858.5120137-.1025473.6750294l-5.048 4.061 4.958-2.861c.2285788-.1329729.5211739-.064966.667677.1551861.1465031.220152.0962484.5163129-.114677.6758139l-3.4 2.587 2.949-1.7c.2253165-.1265297.5099298-.0605202.6565485.1522715.1466186.2127916.1069324.5022515-.0915485.6677285l-3.519 2.86 2.652-1.531c.2203354-.1244491.4989119-.0646624.6487785.1392378.1498666.2039001.1237692.4876223-.0607785.6607622l-2.549 2.337.8-.464c.1549945-.0985297.351531-.1041539.5119064-.0146489.1603754.0895049.2587712.2597296.2562855.4433739s-.1054527.3511436-.2681919.436275l-4.737 2.735c-.0745535.0439992-.1594329.0674618-.246.068z" fill="#fff"/><g fill="#262626"><path id="Shape" d="m55.938 21.47c-1.443-1.267-2.44-1.115-2.856-3.2-.257-1.294.678-3.694.61-5.169-.26-5.673-4.009-11.638-10.036-12.365-2.506-.3-4.145.624-6.463 1.2-1.953.483-3.3-.074-5.368-.222-2.946-.212-5.863.867-8.608.187-2.485-.615-4.224-1.527-6.88-1.04-4.6412947 1.00094073-8.31802775 4.53944782-9.496 9.139-.38098799 1.3652251-.57112643 2.7766243-.565 4.194 0 1.633 1.21 4.344.356 5.828-.231.4-1.506.9-1.943 1.242-1.25095881.9604873-2.28914949 2.1699505-3.049 3.552-2.91684705 5.4786206-.85215776 12.2844483 4.617 15.219 1.689.887 3.517 1.21 5.192 2.146 1.83 1.022 3.413 2.415 5.235 3.468 2.9509769 1.7515016 6.2093721 2.9231662 9.6 3.452 6.6255558.7795174 13.3050002-.9230302 18.749-4.779 6.379-4.322 14.111-5.217 14.686-14.432 0-.013-.01-.019-.011-.032s.018-.034.016-.052c-.0696611-3.1793246-1.4377407-6.1915569-3.786-8.336zm-5.391 18.923c-1.3311336.4849623-2.6229515 1.0716964-3.864 1.755-8.043 5.278-15.794 8.552-25.394 4.588-2.944-1.216-5.249-3.08-7.862-4.783-2.177-1.42-4.836-1.681-6.985-3.152-7.042-4.821-5.752-15.414 1.936-18.861.117-.052.528-.221.456-.424-1.18995306-3.1089844-1.38356024-6.511089-.554-9.735.44075708-1.63329317 1.19473429-3.16536127 2.22-4.511 1.97-2.55 3.542-2.97 6.7-3.193 7.078-.5-.143.219 6.032 1.243.7694134.5719123 1.4706659 1.2302173 2.09 1.962.314.379 1.706-.13 1.346-.564-.4977665-.58571708-1.0513782-1.12157836-1.653-1.6.906-.234 1.921-.567 1.953-.571 2.794-.428 4.948.132 7.659.484.233.03.433.068.626.106-.7063002.54852444-1.3534674 1.16921517-1.931 1.852-.224.27.191.4.389.412.361127.01643968.7111768-.12694539.957-.392.6041865-.71049593 1.2891431-1.34813318 2.041-1.9.0282257-.02457621.0522131-.05363135.071-.086 2.3373844-1.73340927 5.4066925-2.13013287 8.108-1.048l1.988 1.065c5.43 3.71 6.346 10.994 4.3 16.78-.038.106.05.168.133.2 4.1255539 1.711806 6.8567579 5.6918403 6.97 10.157-.355 5.26-2.849 7.938-7.732 10.216z"/><path id="Shape" d="m17.83 22.483c4.523 0 6.719-4.652 6.9-8.552-.177-3.8-2.162-8.49-6.653-8.413-4.365.075-6.781 4.667-6.807 8.551-.026 3.781 2.259 8.411 6.56 8.414zm1.22-15.783c3.013.914 4.091 4.616 4.22 7.372-.144 3.078-1.87 8.643-6.32 7.234-2.913-.923-4.207-4.631-4.22-7.372-.015-3.234 1.97-8.555 6.32-7.234z"/><path id="Shape" d="m41.371 5.753c-3.978.637-6.1 4.7-6.095 8.441.006 4.043 2.677 8.711 7.263 8.062 4.147-.587 6.01-4.673 6.185-8.45-.188-4.039-2.606-8.812-7.353-8.053zm-1.512 15.052c-2.193-1.517-3.14-4.436-3.135-7 .008-3.557 2.841-9.776 7.417-6.611 2.277 1.575 3.013 4.4 3.135 7-.163 3.487-2.704 9.871-7.417 6.611z"/><path id="Shape" d="m47.328 32c-1.465 2.279-4.4 3.483-7.667 4.1-.038-.421-1.293-.2-1.421.229-3.5234584.3927517-7.0751068.4677206-10.612.224-1.58-.079-3.695-.184-5.864-.506-.063-.225-.462-.242-.829-.138-3.354-.586-6.694-1.744-8.261-4.181-.244-.38-1.654.08-1.348.556 1.711 2.662 5.263 3.981 9.108 4.616 2.157 8.891 16.971 8.406 19.123-.261 3.7-.656 7.391-1.948 9.115-4.629.346-.544-1.098-.396-1.344-.01zm-25.266 5.124c3.4260827.3366363 6.8732048.4055119 10.31.206 1.564-.068 3.606-.179 5.734-.47-1.941 7.654-13.653 7.315-16.044.264z"/><path id="Path" d="m18.724 15.806v-4c0-.255-1.448-.044-1.448.388v4c0 .255 1.448.044 1.448-.388z"/><path id="Path" d="m41.276 12.194v4c0 .326 1.448.093 1.448-.388v-4c0-.327-1.448-.093-1.448.388z"/><path id="Path" d="m26.555 22.021c1.706-1.218 5.054-1 6.762.226.328.233 1.572-.347 1.366-.494-2.355-1.681-6.909-1.437-9.238.226-.584.421.849.228 1.11.042z"/><path id="Path" d="m26.724 28.806v-2c0-.315-1.448-.085-1.448.388v2c0 .315 1.448.085 1.448-.388z"/><path id="Path" d="m33.275 27.09v2c0 .6 1.45.3 1.45-.18v-2c0-.603-1.45-.299-1.45.18z"/></g></g></svg>