<svg height="512" viewBox="0 0 60 60" width="512" xmlns="http://www.w3.org/2000/svg"><g id="028---Giraffe" fill="none"><path id="Path" d="m28.794 59.324c-.2169298-.0003591-.408881-.1405589-.4752193-.3470968-.0663383-.2065378.0080718-.4322908.1842193-.5589032l1.808-1.3-2.99 1.726c-.2290632.1321979-.5214568.063148-.6671806-.1575572-.1457237-.2207053-.094369-.5167199.1171806-.6754428l2.508-1.875-3.5 2.018c-.2231941.1282474-.5072862.0660776-.6565145-.1436697s-.1148202-.4985197.0795145-.6673303l3.22-2.78-4.214 2.437c-.2241703.1280952-.5090066.0644456-.6573283-.1468868-.1483216-.2113324-.1113468-.5008421.0853283-.6681132l1.7-1.433-2.1 1.211c-.2254634.1287726-.5119753.0635416-.6594703-.1501437-.1474949-.2136853-.1068861-.5047094.0934703-.6698563l.139-.113-.142.081c-.1917679.1141164-.4359415.0873403-.5984214-.0656229-.1624799-.1529633-.203927-.3950786-.1015786-.5933771l.851-1.671-1.011.583c-.1580773.0910084-.3531707.0887137-.5090636-.0059876s-.2478461-.2667807-.2399364-.4490124l.03-.667c-.1379691-.0290343-.2569578-.1156377-.327-.238-.0666188-.1149293-.0847639-.2516448-.0504306-.3799727.0343334-.1283278.1183225-.2377179.2334306-.3040273l.427-.246c.15865-.0900896.3535134-.087797.51.006.1558534.0951116.2474712.2676138.239.45l-.023.512 1.683-.971c.1919667-.1146891.436745-.0879692.5994468.0654353.1627017.1534044.2037616.3961893.1005532.5945647l-.851 1.67 4.048-2.336c.2259084-.1319558.5153456-.0674504.6638412.1479469s.1058364.5088509-.0978412.6730531l-.135.114 1.62-.935c.2245855-.1309436.5120466-.0679354.6612702.144943.1492235.2128783.1104168.5045939-.0892702.671057l-1.7 1.433 3.9-2.253c.2231941-.1282474.5072862-.0660776.6565145.1436697s.1148202.4985197-.0795145.6673303l-3.22 2.779 6.231-3.6c.2290632-.1321979.5214568-.063148.6671806.1575572.1457237.2207053.094369.5167199-.1171806.6754428l-2.509 1.875 4.458-2.573c.2299606-.1262156.518365-.0532546.6606421.1671302.1422771.2203849.0900471.5132542-.1196421.6708698l-1.809 1.3.744-.428c.2271272-.1307942.5167067-.0640046.6636035.1530559.1468968.2170604.1012506.5107158-.1046035.6729441l-1.648 1.29c.1977196-.0213284.3895479.0753687.49.247.1373847.2389169.0555349.543953-.183.682l-5.722 3.3c-.2257343.1220113-.5071854.0533406-.6513604-.1589241-.1441749-.2122647-.1042663-.4992102.0923604-.6640759l1.417-1.109-3.375 1.948c-.0752559.0439464-.1608523.0670712-.248.067z" fill="#d1793c"/><path id="Path" d="m46.934 22.219c-.226294-.00001-.4243705-.1520058-.4829405-.3705888-.0585699-.2185831.0369699-.4492542.2329405-.5624112l11.98-6.918c.2247363-.1292165.510959-.0652384.6592891.1473681.1483301.2126064.1095663.5033193-.0892891.6696319l-2.312 1.932.2-.117c.1549945-.0985297.351531-.1041539.5119064-.0146489.1603754.0895049.2587712.2597296.2562855.4433739s-.1054527.3511436-.2681919.436275l-5.214 3.011c-.2243164.1264895-.5080183.0619132-.6554889-.1492026s-.1104702-.4997121.0854889-.6667974l2.312-1.933-6.969 4.024c-.0750306.0437329-.1601583.0671689-.247.068z" fill="#f7b953"/><path id="Path" d="m34.026 10.258c-.189386 0-.3625176-.1070012-.4472136-.2763932-.084696-.16939202-.066418-.37209798.0472136-.5236068l1.607-2.114-.973.561c-.1757224.10145978-.3953377.08666025-.5558586-.03745844-.160521-.12411868-.2301131-.33294122-.1761414-.52854156l.252-.909c-.1663857-.08109947-.274355-.24748349-.2806401-.43247486-.0062851-.18499136.0901425-.35831978.2506401-.45052514l.5-.291c.1758493-.10106789.3953325-.08589109.5555975.0384184s.2295559.33312031.1754025.5285816l-.168.606 2.066-1.193c.2056017-.11955635.4669654-.07773815.625.1.1573829.17861858.1670048.44343052.023.633l-1.6 2.114 1.794-1.035c.2374252-.12420086.5305531-.03916186.6646466.19281988.1340935.23198173.0614797.52843213-.1646466.67218012l-3.945 2.277c-.0757231.044686-.162075.0681737-.25.068z" fill="#f7b953"/><path id="Path" d="m21.748 13.329c-.2076989.0000626-.3938087-.1282848-.4675638-.3224472-.073755-.1941624-.019795-.4137033.1355638-.5515528l.674-.6c-.2087725.0261822-.4115976-.0811377-.507392-.268474-.0957944-.1873362-.0640582-.4145991.079392-.568526l1.638-1.744-1.03.594c-.2034689.11744382-.4612594.07739424-.6195066-.09624472-.1582471-.17363897-.1742651-.4340297-.0384934-.62575528l1.348-1.892-.7.405c-.1792001.10366687-.4037536.08617624-.5647404-.04398802s-.2251073-.34607808-.1612596-.54301198l.215-.664c-.0746499-.04374313-.1366711-.10610893-.18-.181-.0661356-.11508197-.0837986-.25173805-.0490968-.37985345s.1189205-.2371754.2340968-.30314655l.506-.291c.179283-.10258063.4031903-.084359.563528.04586006.1603378.13021905.2240983.34562813.160472.54213994l-.1.3 1.569-.907c.2036526-.11724195.4614665-.07684795.6195016.09706283.1580351.17391079.1736406.43440294.0374984.62593717l-1.348 1.895 1.959-1.13c.2143746-.12279557.4862971-.07061406.6399891.12281292.153692.19342699.1430745.47010737-.0249891.65118708l-1.636 1.745 1.021-.589c.2222396-.12857817.5057439-.06793094.6559297.14031646.1501859.20824741.1182322.4963997-.0739297.66668354l-.532.471c.2412097-.13000744.5421222-.04165144.6747532.1981257.132631.2397771.0475628.5416355-.1907532.6768743l-4.255 2.457c-.076426.0446377-.1634966.0677874-.252.067z" fill="#f7b953"/><path id="Path" d="m20.619 46.76c-.2225971-.0002631-.4182138-.1476474-.4798555-.3615395-.0616417-.213892.0255381-.4427757.2138555-.5614605l6.12-3.867-7.534 4.348c-.2346058.1253855-.5263122.0451285-.6637604-.18262-.1374483-.2277485-.0725112-.523243.1477604-.67238l7.458-4.7-7.854 4.534c-.2337734.1287456-.5274505.051198-.667188-.1761759-.1397374-.2273739-.07627-.5244122.144188-.6748241l14.618-9.564-15.386 8.879c-.2361735.1361818-.537908.0580681-.6783318-.1756081-.1404239-.2336761-.0677709-.5367718.1633318-.6813919l7.006-4.387-7.186 4.148c-.2343611.1288923-.5286543.0505227-.6678755-.1778537-.1392213-.2283764-.0740613-.5258734.1478755-.6751463l13.273-8.543-13.694 7.907c-.2372063.1413849-.5441151.0637063-.6855-.1735s-.0637063-.5441151.1735-.6855l13.562-8.35-13.666 7.887c-.2359602.1244074-.5280295.041678-.663696-.1879935-.1356664-.2296716-.0671501-.5253981.155696-.6720065l3.378-2.048-3.3 1.908c-.2372063.1413849-.5441151.0637063-.6855-.1735s-.0637063-.5441151.1735-.6855l10.087-6.189-10.1 5.833c-.2372063.141661-.5443389.0642063-.686-.173-.141661-.2372063-.0642063-.544339.173-.686l11.284-6.961-11.14 6.43c-.2356087.1297647-.5316571.04988-.6700067-.1807924-.1383496-.2306723-.0694166-.5294607.1560067-.6762076l12.1-7.5-11.96 6.9c-.2348642.1312813-.531504.0531604-.6712412-.1767732-.1397372-.2299337-.0724576-.5292187.1522412-.6772268l17.856-11.42-17.644 10.182c-.2347034.1364868-.5354374.0607325-.6774741-.1706544-.1420368-.2313868-.073465-.5338394.1544741-.6813456l11.852-7.683-11.5 6.637c-.2348642.1312813-.531504.0531604-.6712412-.1767732-.1397372-.2299337-.0724576-.5292187.1522412-.6772268l8.543-5.477-7.959 4.594c-.2327769.1270897-.524286.0503218-.6642741-.174934-.139988-.2252559-.0797468-.5206233.1372741-.673066l12.908-8.6-12.054 6.961c-.234481.1270728-.5274228.0477401-.6657366-.1802909-.1383139-.2280309-.0733058-.5244809.1477366-.6737091l6.538-4.172-5.627 3.248c-.236654.1424895-.5440105.066154-.6865-.1705-.1424894-.236654-.066154-.5440105.1705-.6865l1.423-.887-.355.2c-.2328603.1351428-.5309189.0616362-.6742423-.1662803-.1433233-.2279164-.080443-.5283964.1422423-.6797197l6.187-4.21-6.623 3.824c-.2305507.1302945-.5227069.0582293-.6662193-.1643342-.1435123-.2225634-.0886-.5184238.1252193-.6746658l6.189-4.438-8.231 4.753c-.22389156.1275836-.5080784.0641108-.65641034-.1466086-.14833193-.2107193-.11222019-.4996603.08341034-.6673914l4.188-3.535-6.109 3.523c-.22681472.12995-.51544746.0632557-.66225808-.1530278-.14681062-.2162836-.10224336-.50915.10225808-.6719722l3.654-2.884-4.945 2.853c-.22892401.1342308-.52283513.0662362-.66954789-.1548961-.14671277-.2211323-.09511283-.5183603.11754789-.6771039l2.867-2.165-3.733 2.156c-.22878427.1364419-.52436704.069561-.67212842-.1520811-.14776138-.221642-.09581189-.5202111.11812842-.6789189l2.953-2.258-3.684 2.127c-.22374237.1292278-.5090949.0666972-.65829208-.1442547-.14919718-.2109518-.11309223-.5008356.08329208-.6687453l3.523-3.023-4.308 2.487c-.19691002.1135988-.44566815.0800668-.60547089-.081616s-.19042308-.410816-.07452911-.606384l.98-1.647-.445.257c-.15499454.0985297-.35153099.1041539-.51190641.0146489-.16037542-.0895049-.25877124-.2597296-.25628554-.4433739s.10545276-.3511436.26819195-.436275l2.105-1.216c.19689969-.1140323.44596122-.0807419.606.081.15993657.1619122.19035251.4114051.074.607l-.98 1.647 7.3-4.215c.2234669-.1287231.5081764-.0663691.6573848.1439733.1492085.2103425.1139612.4996608-.0813848.6680267l-3.522 3.023 5.716-3.3c.228242-.1318458.5196375-.063862.6659708.1553737.1463332.2192358.0973404.5144185-.1119708.6746263l-2.95 2.257 4.06-2.345c.228924-.1342308.5228351-.0662362.6695479.1548961s.0951128.5183603-.1175479.6771039l-2.87 2.164 3.914-2.259c.2266506-.1274915.5131906-.0599635.6590607.1553189.1458701.2152823.1023667.5064398-.1000607.6696811l-3.656 2.885 5-2.885c.2237606-.125536.506225-.0613343.6537387.148589s.1121964.4974311-.0817387.665411l-4.186 3.533 12.156-7.013c.2305507-.1302945.5227069-.0582293.6662193.1643342.1435123.2225634.0886.5184238-.1252193.6746658l-6.193 4.44 9.439-5.449c.2325262-.1307666.5267591-.0559509.6685809.1700024s.0812744.5234503-.1375809.6759976l-6.186 4.214 12.968-7.49c.2361735-.13618181.537908-.05806811.6783318.17560806.1404239.23367616.0677709.53677186-.1633318.68139194l-1.4.878.889-.512c.234481-.12707284.5274228-.04774006.6657366.18029089.1383139.22803094.0733058.52448091-.1477366.67370911l-6.543 4.177 6.021-3.475c.2327769-.1270897.524286-.0503218.6642741.174934.139988.2252559.0797468.5206233-.1372741.673066l-12.913 8.608 13.109-7.569c.2354116-.1379583.5379577-.061708.6798637.1713453.1419059.2330532.070765.5368414-.1598637.6826547l-8.532 5.47 9.668-5.584c.2355494-.1441463.5433537-.0700494.6875.1655s.0700494.5433537-.1655.6875l-11.854 7.687 19.873-11.473c.234023-.1252853.5251579-.0458598.6631351.1809119.1379772.2267718.0746978.5218373-.1441351.6720881l-17.852 11.421 20.526-11.847c.2356087-.1297647.5316571-.04988.6700067.1807924.1383496.2306723.0694166.5294607-.1560067.6762076l-12.1 7.5 13.461-7.771c.2362075-.133071.5354329-.0536509.6745599.1790411.1391271.2326919.0674613.5338687-.1615599.6789589l-11.291 6.961 12.578-7.262c.2372063-.1413849.5441151-.0637063.6855.1735s.0637063.5441151-.1735.6855l-10.08 6.184 11.278-6.511c.2377586-.1405565.5444435-.0617586.685.176s.0617586.5444435-.176.685l-3.389 2.054 3.913-2.258c.2357179-.1278172.530297-.0469384.667702.1833224.137405.2302607.0687118.5279174-.155702.6746776l-13.564 8.35 1.009-.582c.2343611-.1288923.5286543-.0505227.6678755.1778537.1392213.2283764.0740613.5258734-.1478755.6751463l-13.269 8.543 13.373-7.721c.1530883-.0921745.3437223-.0956757.5000919-.0091846s.2547187.2498344.258.4285c.0032813.1786657-.0890036.3455101-.2420919.4376846l-7 4.387 6.809-3.932c.2341443-.133112.5316521-.0568382.672871.1725078.1412189.2293459.075396.5293391-.148871.6784922l-14.625 9.566 14.486-8.362c.2349709-.1292146.5300387-.050062.6687925.179405.1387537.2294671.0717837.5275361-.1517925.675595l-7.46 4.705 7.052-4.071c.2349709-.1292146.5300387-.050062.6687925.179405.1387537.2294671.0717837.5275361-.1517925.675595l-6.111 3.863 5.629-3.25c.234481-.1270728.5274228-.0477401.6657366.1802909.1383139.2280309.0733058.5244809-.1477366.6737091l-5.431 3.46 4.8-2.77c.2336556-.130691.5287926-.0541466.6694787.1736308.140686.2277774.0769932.5259521-.1444787.6763692l-6.989 4.581 6.2-3.582c.2355494-.1441463.5433537-.0700494.6875.1655s.0700494.5433537-.1655.6875l-2.545 1.646 1.7-.978c.2311923-.1280141.5220815-.054013.6639947.1689178.1419132.2229309.0858401.5178012-.1279947.6730822l-6.023 4.209 4.747-2.74c.2268147-.12995.5154475-.0632557.6622581.1530278.1468106.2162836.1022433.50915-.1022581.6719722l-5.383 4.244 3.417-1.973c.2269587-.1282325.5143539-.0605795.6602778.1554298.145924.2160093.1014061.5078844-.1022778.6705702l-1.721 1.346c.161063-.0079047.3148502.0676664.407.2.1516643.2038845.1262831.4891003-.059.663l-1.816 1.712.007.012c.1373847.2389169.0555349.543953-.183.682l-1.5.864c-.2208144.1342809-.5075757.0781561-.6614736-.1294633s-.1242133-.4983097.0684736-.6705367l.277-.261-1.834 1.059c-.2276227.1347294-.5207984.0688675-.6689241-.1502738-.1481257-.2191412-.0999482-.5157364.1099241-.6767262l1.357-1.054-3.268 1.886c-.2272986.1336432-.5193131.0678079-.6672772-.1504392-.1479641-.218247-.1010173-.5138867.1072772-.6755608l5.386-4.245-8.785 5.072c-.2318603.1330617-.527371.0602043-.6708066-.1653857-.1434357-.22559-.0840493-.5240996.1348066-.6776143l6.024-4.209-8.753 5.053c-.2338963.1269547-.5262491.04845-.6650871-.1785941-.1388379-.227044-.0755015-.5230536.1440871-.6734059l2.548-1.648-4.334 2.5c-.2336556.130691-.5287926.0541466-.6694787-.1736308-.140686-.2277774-.0769932-.5259521.1444787-.6763692l6.989-4.583-9.414 5.435c-.2348642.1312813-.531504.0531604-.6712412-.1767732-.1397372-.2299337-.0724576-.5292187.1522412-.6772268l5.424-3.455-7.469 4.311c-.0759114.0442382-.1621395.0676923-.25.068z" fill="#f7b953"/><path id="Path" d="m31.105 54.414c-.2152152 0-.4062846-.137715-.4743416-.3418861-.0680571-.2041711.0021694-.4289848.1743416-.5581139l3.588-2.731-6.093 3.522c-.2322938.1351768-.5298928.0625367-.6737842-.164462-.1438914-.2269988-.0825928-.5271392.1387842-.679538l2.8-1.94-4.328 2.5c-.2302873.1343427-.5254749.0643663-.6709518-.1590541-.1454768-.2234204-.0900639-.5216852.1259518-.6779459l6.9-5.026-8.895 5.135c-.2340027.1389988-.5362016.0652981-.6799386-.1658244s-.0762078-.5347601.1519386-.6831756l3.981-2.66-4.81 2.777c-.2355494.1441463-.5433537.0700494-.6875-.1655s-.0700494-.5433537.1655-.6875l.8-.518-1.2.694c-.2335451.1328438-.5303244.0573638-.6720248-.1709163s-.0776546-.5277351.1450248-.6780837l5.152-3.442-5.62 3.244c-.2340569.1357068-.5336008.0606207-.6759704-.1694442s-.0759129-.5316408.1499704-.6805558l4.755-3.156-4.821 2.783c-.2329061.1254293-.5232086.0477402-.6623373-.1772508s-.0789338-.5194187.1373373-.6717492l3.782-2.494-3.61 2.084c-.2333482.1425022-.537887.0711396-.6836338-.1601958-.1457468-.2313355-.0786439-.5368412.1506338-.6858042l6.142-4.2-5.777 3.332c-.2340027.1389988-.5362016.0652981-.6799386-.1658244s-.0762078-.5347601.1519386-.6831756l3.178-2.119-2.5 1.44c-.2299138.1328235-.5235501.0627731-.6687427-.1595365s-.0912979-.5193359.1227427-.6764635l6.422-4.71-5.319 3.071c-.2305507.1302945-.5227069.0582293-.6662193-.1643342-.1435123-.2225634-.0886-.5184238.1252193-.6746658l2.929-2.1-1.531.884c-.2222396.1285782-.5057439.0679309-.6559297-.1403165-.1501859-.2082474-.1182322-.4963997.0739297-.6666835l2.865-2.545c-.2201172-.0127953-.4058697-.1682648-.45723-.3826882s.0437971-.4371785.23423-.5483118l3.68-2.125c.2218647-.1262356.5031961-.0650788.6526317.1418714.1494355.2069502.1189881.4932377-.0706317.6641286l-2.559 2.279 6.117-3.531c.2299606-.1262156.518365-.0532546.6606421.1671302.1422771.2203849.0900471.5132542-.1196421.6708698l-2.928 2.1 4.394-2.537c.2299138-.1328235.5235501-.0627731.6687427.1595365s.0912979.5193359-.1227427.6764635l-6.427 4.712 7.979-4.607c.2340027-.1389988.5362016-.0652981.6799386.1658244s.0762078.5347601-.1519386.6831756l-3.172 2.115 3.751-2.165c.2328603-.1351428.5309189-.0616362.6742423.1662803.1433233.2279164.080443.5283964-.1422423.6797197l-6.141 4.2 6.818-3.935c.2329061-.1254293.5232086-.0477402.6623373.1772508s.0789338.5194187-.1373373.6717492l-3.784 2.5 4.113-2.374c.234721-.145527.542973-.073221.6885.1615s.073221.542973-.1615.6885l-4.756 3.151 4.973-2.87c.2335451-.1328438.5303244-.0573638.6720248.1709163s.0776546.5277351-.1450248.6780837l-5.15 3.437 5.3-3.061c.2342478-.1308833.5300435-.0535271.6702262.1752769s.074765.527467-.1482262.6767231l-.808.522.664-.383c.2330829-.1306613.5277074-.0549657.6689423.1718661.1412349.2268319.0791592.5246238-.1409423.6761339l-3.985 2.663 3.861-2.228c.2302873-.1343427.5254749-.0643663.6709518.1590541.1454768.2234204.0900639.5216852-.1259518.6779459l-6.9 5.024 6.685-3.859c.2322938-.1351768.5298928-.0625367.6737842.164462.1438914.2269988.0825928.5271392-.1387842.679538l-2.8 1.939 2.406-1.389c.2285788-.1329729.5211739-.064966.667677.1551861.1465031.220152.0962484.5163129-.114677.6758139l-3.59 2.731 2.794-1.612c.2208144-.1342809.5075757-.0781561.6614736.1294633s.1242133.4983097-.0684736.6705367l-2.069 1.96c.2115993-.0427912.4269984.0536562.536.24.1375532.2386555.0561721.5436114-.182.682l-3.438 1.986c-.2208144.1342809-.5075757.0781561-.6614736-.1294633s-.1242133-.4983097.0684736-.6705367l1.993-1.884-5.945 3.431c-.0758413.0442906-.1621742.0674278-.25.067z" fill="#e88a44"/><path id="Path" d="m24.339 47.375c-.2025859-.0000409-.3851259-.122321-.4622494-.3096523-.0771236-.1873313-.0335866-.4026863.1102494-.5453477l.826-.818-1.273.735c-.2187434.1297091-.5000021.0745628-.6535686-.128145s-.1305136-.4883932.0535686-.663855l1.431-1.383-1.034.595c-.2130048.1213721-.4825903.0704054-.6365857-.1203501-.1539953-.1907555-.1469715-.4650266.0165857-.6476499l1.249-1.374c-.1924768-.0555666-.333204-.2206558-.357597-.4195023-.024393-.1988466.0722582-.3930556.245597-.4934977l2.046-1.182c.2132902-.1227487.4841863-.0720462.6386451.1195326.1544588.1915787.14655.4670654-.0186451.6494674l-.91 1 1.772-1.022c.2187434-.1297091.5000021-.0745628.6535686.128145s.1305136.4883932-.0535686.663855l-1.427 1.381 1.112-.642c.2174615-.1255706.4943255-.070369.647.129.1534797.1999005.1341924.4827816-.045.66l-.972.961c.1901553-.0141199.3713468.0829052.465.249.1380647.2391402.0561341.5449248-.183.683l-2.991 1.727c-.0754117.0445587-.1614077.0680435-.249.068z" fill="#d1793c"/><path id="Path" d="m35.187 47.446c-.1836081-.0005805-.3521275-.1017478-.4389648-.2635241-.0868373-.1617762-.0780211-.3581327.0229648-.5114759l.553-.84-1.459.842c-.2151776.1214905-.4868331.0675731-.6393017-.1268869-.1524686-.1944599-.1400176-.4711344.0293017-.6511131l.485-.507-.678.391c-.2017332.1172341-.4577314.0793571-.6168729-.0912714-.1591416-.1706284-.179114-.4286418-.0481271-.6217286l1.26-1.857-1.318.761c-.2009205.1160712-.4552946.0786595-.614288-.0903455-.1589934-.1690049-.1808212-.4251871-.052712-.6186545l.594-.9c-.2111682-.0299111-.3801174-.1904762-.4207287-.39985s.0560565-.4214595.2407287-.52815l1.39-.8c.2009205-.1160712.4552946-.0786595.614288.0903455.1589934.1690049.1808212.4251871.052712.6186545l-.461.694 1.362-.786c.2016925-.1165828.4571726-.0784267.616.092.1587216.1705384.1786294.4280963.048.621l-1.26 1.857 1.837-1.06c.215258-.1229472.4881008-.0696094.6412115.1253499.1531108.1949593.1402554.4726694-.0302115.6526501l-.487.508.248-.143c.2006932-.1152838.4542754-.0777619.6129832.0907015.1587078.1684635.1810538.4238309.0540168.6172985l-.637.966c.2261084.0004614.4237679.1526083.4820715.371071.0583035.2184626-.0372607.4488654-.2330715.561929l-1.5.865c-.0751127.0456101-.1611282.0701366-.249.071z" fill="#d1793c"/><path id="Path" d="m29.907 30.446c-.1796524-.0000313-.3454783-.0964414-.4343881-.2525505s-.0872346-.3479171.0043881-.5024495l.959-1.619-1.865 1.076c-.2167987.1191224-.4881174.0618073-.638215-.1348206s-.1338516-.473458.038215-.6511794l.336-.337-.009.005c-.2062947.1212264-.4695607.0793051-.628-.1-.1574627-.180998-.1641773-.448325-.016-.637l.7-.886c-.1818991-.0656289-.3096463-.2302633-.3280407-.4227628s.0758623-.3783476.2420407-.4772372l1.532-.897c.2075237-.1196981.4707878-.075377.6276801.1056714.1568924.1810484.1633179.4479398.0153199.6363286l-.408.52 1.048-.6c.2167987-.1191224.4881174-.0618073.638215.1348206s.1338516.473458-.038215.6511794l-.336.336.238-.137c.1967424-.1138782.445542-.0807073.6055772.0807379s.1910224.4105262.0754228.6062621l-.96 1.622c.2413209-.1055154.5231166-.0057366.6442705.2281246.1211538.2338611.0401188.5216075-.1852705.6578754l-1.611.931c-.0753157.0424676-.1605449.0642062-.247.063z" fill="#e88a44"/><path id="Path" d="m25.013 23.09c-.1839669.0001537-.3531583-.1007281-.4404891-.2626452-.0873308-.1619172-.0786928-.3587122.0224891-.5123548l1.286-1.957-1.55.895c-.2034689.1174438-.4612594.0773942-.6195066-.0962447-.1582471-.173639-.1742651-.4340297-.0384934-.6257553l.782-1.1c-.2146481-.0241083-.3895489-.1833264-.4336571-.3947726-.0441081-.2114462.0525494-.427312.2396571-.5352274l1.539-.891c.2034689-.1174438.4612594-.0773942.6195066.0962447.1582471.173639.1742651.4340297.0384934.6257553l-.647.913 1.4-.806c.2005172-.1155234.4541079-.0783538.6130377.0898548.1589297.1682086.1816656.4234984.0549623.6171452l-1.291 1.954 1.064-.615c.1549945-.0985297.351531-.1041539.5119064-.0146489.1603754.0895049.2587712.2597296.2562855.4433739s-.1054527.3511436-.2681919.436275l-2.889 1.668c-.0753233.0460883-.1617013.0709652-.25.072z" fill="#e88a44"/><path id="Path" d="m33.878 23.438c-.1786305-.0000045-.3436899-.0953058-.4330032-.2500055s-.0893121-.3452959.0000032-.4999945l1-1.727-1.92 1.108c-.2145165.1213913-.4854956.0683443-.6384044-.1249743s-.1421256-.4692305.0254044-.6500257l.551-.584-.165.095c-.2109099.1217971-.4788947.0739095-.6345697-.1133946-.1556749-.1873041-.1537451-.4595272.0045697-.6446054l.587-.685c-.1537159-.0895772-.2482541-.2540881-.2482541-.432s.0945382-.3424228.2482541-.432l1.545-.888c.2109099-.1217971.4788947-.0739095.6345697.1133946.1556749.1873041.1537451.4595272-.0045697.6446054l-.091.107.587-.339c.2145165-.1213913.4854956-.0683443.6384044.1249743s.1421256.4692305-.0254044.6500257l-.551.584.586-.338c.196194-.1137822.444399-.0812586.6046539.0792308.1602548.1604895.1924152.4087418.0783461.6047692l-1 1.727.034-.019c.1549945-.0985297.351531-.1041539.5119064-.0146489.1603754.0895049.2587712.2597296.2562855.4433739s-.1054527.3511436-.2681919.436275l-1.658.957c-.0772625.0452591-.1654689.0684349-.255.067z" fill="#e88a44"/><path id="Path" d="m22.923 6.335c-.2076989.00006258-.3938087-.1282848-.4675638-.32244718-.073755-.19416237-.019795-.41370333.1355638-.55155282l.556-.494-1.431.826c-.2115312.12161827-.4799523.07279453-.6351088-.11552142s-.1517294-.46111972.0081088-.64547858l1.682-1.932-2.328 1.343c-.2114635.12030066-.4788239.07093206-.63338-.11695482-.1545561-.18788687-.1514409-.45974924.00738-.64404518l.578-.66c-.2312852.01446567-.4422009-.13188777-.5095981-.35360768-.0673971-.22171991.0263888-.46069478.2265981-.57739232l2.288-1.323c.2114635-.12030066.4788239-.07093206.63338.11695482.1545561.18788687.1514409.45974924-.00738.64404518l-.47.538 2.3-1.33c.2115312-.12161827.4799523-.07279453.6351088.11552142s.1517294.46111972-.0081088.64547858l-1.673 1.932 3.1-1.787c.2218647-.12623564.5031961-.06507878.6526317.14187143.1494355.20695022.1189881.4932377-.0706317.66412857l-.553.492.628-.363c.2122255-.12284529.4822194-.073656.6374856.1161414s.1499782.4641845-.0124856.6478586l-.563.637c.1809244.00126446.3483966.09577476.443.25.1375532.23865551.0561721.54361136-.182.682l-2.29 1.321c-.2119487.12152279-.4806809.07208076-.6354985-.11692061-.1548177-.18900138-.1503782-.46220791.0104985-.64607939l.434-.491-2.234 1.29c-.0765954.04422916-.1635525.06734871-.252.067z" fill="#bd732e"/><path id="Path" d="m36.985 6.346c-.187246-.00165393-.3578731-.10779405-.4421204-.27502498-.0842473-.16723094-.0679918-.36751846.0421204-.51897502l1.123-1.552-3.478 2.01c-.2088997.11882013-.4727821.0722109-.6283375-.11098247s-.1587734-.45114113-.0076625-.63801753l1.829-2.239-2.9 1.672c-.2068255.11777717-.4680042.0734377-.6243729-.10599777s-.1645788-.44422391-.0196271-.63300223l.811-1.046-.081.047c-.2374252.12420086-.5305531.03916186-.6646466-.19281988-.1340935-.23198173-.0614797-.52843213.1646466-.67218012l2.291-1.323c.2068846-.11894184.4689871-.07510419.6259077.10468544s.1649156.4454126.0190923.63431456l-.812 1.046 3.056-1.762c.2089623-.12004631.4738237-.07395617.6299505.10962154s.1590908.45240303.0070495.63937846l-1.826 2.237 3.151-1.819c.2044458-.11756165.4632411-.07628114.6209674.09905067.1577262.1753318.171493.43703694.0330326.62794933l-1.128 1.55.7-.4c.2374252-.12420086.5305531-.03916186.6646466.19281988.1340935.23198173.0614797.52843213-.1646466.67218012l-2.74 1.581c-.0766054.04398534-.1636766.06644418-.252.065z" fill="#bd732e"/><path id="Path" d="m20.484 34.4c-.2018876-.0004461-.3836984-.1222616-.4608971-.3088069-.0771987-.1865454-.0346364-.4012141.1078971-.5441931l.594-.594-1.913 1.1c-.2263657.1357025-.5192228.0720953-.6689012-.1452821-.1496784-.2173775-.1046264-.5136569.1029012-.6767179l.473-.382-.894.515c-.220007.1195261-.4945025.0578939-.6422936-.1442135-.147791-.2021073-.1233056-.4823693.0572936-.6557865l2.659-2.4-3.048 1.76c-.2238668.1315043-.5111377.0697824-.6612322-.1420698s-.1130656-.5033364.0852322-.6709302l2.388-2.046-2.263 1.3c-.227731.1281621-.5157443.059345-.6609391-.1579231-.1451949-.217268-.0985947-.509699.1069391-.6710769l.334-.256c-.199973.0464096-.4081684-.032602-.527-.2-.148862-.2123588-.1106509-.5032846.088-.67l.923-.776-.1.056c-.2187434.1297091-.5000021.0745628-.6535686-.128145s-.1305136-.4883932.0535686-.663855l1.1-1.07c-.146336-.0944605-.2329701-.258266-.2286834-.4323885.0042867-.1741224.0988765-.3334664.2496834-.4206115l2.181-1.259c.2187434-.1297091.5000021-.0745628.6535686.128145s.1305136.4883932-.0535686.663855l-.306.3 1.522-.878c.2240372-.1259992.5071082-.0616068.6545964.1489061s.1113381.4985559-.0835964.6660939l-.925.779 1.447-.835c.227731-.1281621.5157443-.059345.6609391.1579231.1451949.217268.0985947.509699-.1069391.6710769l-.205.157.3-.174c.2237424-.1292278.5090949-.0666972.6582921.1442547.1491972.2109518.1130922.5008356-.0832921.6687453l-2.389 2.048 2.468-1.424c.220007-.1195261.4945025-.0578939.6422936.1442135.147791.2021073.1233056.4823693-.0572936.6557865l-2.659 2.4 2.281-1.317c.2259084-.1319558.5153456-.0674504.6638412.1479469s.1058364.5088509-.0978412.6730531l-.6.485c.2161958-.043552.4353934.0596864.539511.2541007.1041177.1944143.0685628.4340842-.087511.5898993l-1.216 1.229c.0840694.0439031.1535574.1113064.2.194.1373847.2389169.0555349.543953-.183.682l-2.172 1.254c-.0749212.045087-.1605616.0692597-.248.07z" fill="#fff"/><path id="Path" d="m40.485 34.4c-.2016322-.0004431-.3832671-.121953-.4606318-.308153-.0773648-.1861999-.0353181-.400648.1066318-.543847l.616-.618-1.947 1.117c-.2184203.1276802-.4977941.0720852-.6506935-.1294872s-.1311343-.4855915.0506935-.6615128l2.469-2.4-3.323 1.918c-.2277686.1327124-.5194462.0657934-.6665848-.1529333s-.0991876-.5141157.1095848-.6750667l.8-.618-.794.458c-.2205392.1280792-.5021318.0696485-.6535046-.1356028-.1513729-.2052513-.124009-.4915375.0635046-.6643972l2.961-2.736-2.832 1.635c-.220007.1195261-.4945025.0578939-.6422936-.1442135-.147791-.2021073-.1233056-.4823693.0572936-.6557865l1.979-1.79-1.264.73c-.2158593.1261512-.4917204.0734664-.6458975-.1233553-.154177-.1968218-.1392724-.477273.0348975-.6566447l1.311-1.361c-.1805476-.0680978-.3057952-.2340102-.3218199-.4263067s.080034-.376651.2468199-.4736933l2.181-1.259c.2154812-.1230022.4885691-.0693794.6415393.1259712.1529702.1953505.1395447.4733291-.0315393.6530288l-.856.89 2.281-1.317c.220007-.1195261.4945025-.0578939.6422936.1442135.147791.2021073.1233056.4823693-.0572936.6557865l-1.979 1.79 2.632-1.519c.2205392-.1280792.5021318-.0696485.6535046.1356028.1513729.2052513.124009.4915375-.0635046.6643972l-2.96 2.736 3.254-1.884c.2271002-.1265913.5133226-.0580067.6583864.1577626.1450637.2157693.100553.506709-.1023864.6692374l-.8.618.455-.262c.2184203-.1276802.4977941-.0720852.6506935.1294872s.1311343.4855915-.0506935.6615128l-2.467 2.406 1.74-1c.2164748-.1176434.486383-.0600602.6359981.1356862.149615.1957464.134338.4713056-.0359981.6493138l-1.227 1.235c.0870602.0446524.1587945.1142973.206.2.1373847.2389169.0555349.543953-.183.682l-2.172 1.254c-.0760993.0433341-.1624393.0654371-.25.064z" fill="#fff"/><path id="Path" d="m14.675 40.893c-.1871016-.0001153-.3584827-.1046821-.4441722-.2710081-.0856894-.166326-.0713468-.3665759.0371722-.5189919l.732-1.029-.73.421c-.2093617.1198333-.4744325.0730979-.6301877-.1111103-.1557553-.1842081-.1577794-.4533598-.0048123-.6398897l.259-.313-.041.023c-.181296.1037699-.4079959.0838969-.5684722-.0498333-.1604764-.1337303-.2209038-.3531301-.1515278-.5501667l.245-.671c-.2389626.1270217-.5356148.0408643-.6693571-.1944029-.1337422-.2352672-.0560257-.5342417.1753571-.6745971l1.186-.685c.181296-.1037699.4079959-.0838969.5684722.0498333.1604764.1337303.2209038.3531301.1515278.5501667l-.245.671 1.245-.718c.2094231-.1210892.4754979-.0748836.6318351.1097222.1563373.1846058.1580911.454657.0041649.6412778l-.259.313.327-.188c.2034152-.1163622.4603566-.0758339.6180782.0974918.1577216.1733258.1739018.4329402.0389218.6245082l-.733 1.029.143-.082c.2374252-.1242009.5305531-.0391619.6646466.1928199.1340935.2319817.0614797.5284321-.1646466.6721801l-2.137 1.233c-.0754309.0445132-.1614143.0679946-.249.068z" fill="#e88a44"/><path id="Path" d="m44.4 41.136c-.1937489-.000007-.3700533-.1119462-.4524788-.2872878-.0824255-.1753415-.056133-.3825185.0674788-.5317122l.131-.158-.334.193c-.2187434.1297091-.5000021.0745628-.6535686-.128145s-.1305136-.4883932.0535686-.663855l.426-.413-.26.15c-.2073289.1198377-.4705164.0758472-.6276039-.1049009-.1570875-.1807482-.1639632-.4474982-.0163961-.6360991l.749-.954c-.2162656-.021415-.3939329-.1800752-.4395775-.392551-.0456447-.2124758.0511872-.4301047.2395775-.538449l1.8-1.036c.2073289-.1198377.4705164-.0758472.6276039.1049009.1570875.1807482.1639632.4474982.0163961.6360991l-.6.762 1.527-.881c.2187434-.1297091.5000021-.0745628.6535686.128145s.1305136.4883932-.0535686.663855l-.835.808c.165922.0412048.2992894.1643282.3535954.3264355.054306.1621074.0220215.3407242-.0855954.4735645l-.787.943c.037093.0337423.0684968.0732504.093.117.1380647.2391402.0561341.5449248-.183.683l-1.166.672c-.0743542.0422619-.1584751.0643264-.244.064z" fill="#e88a44"/><path id="Path" d="m30.361 15.394c-.1955701.0003486-.373391-.1133576-.4551281-.2910282-.0817371-.1776707-.0523842-.3866868.0751281-.5349718l.707-.827-1.975 1.14c-.220439.1262233-.5004889.0670999-.6510942-.1374575-.1506054-.2045574-.1238973-.4895314.0620942-.6625425l.238-.219-.44.254c-.2123689.1214471-.4814292.0713915-.6359136-.1183044-.1544843-.1896959-.1490205-.4633181.0129136-.6466956l.293-.329-.147.084c-.1813457.1044959-.4085857.0849849-.5694642-.0488946-.1608786-.1338796-.2213477-.3537936-.1515358-.5511054l.16-.453c-.1843949-.0647358-.3141729-.2309692-.3322345-.4255611s.0789042-.3818711.2482345-.4794389l.665-.383c.1813936-.1052269.4091772-.0860808.5704603.0479495.161283.1340303.2217925.3544628.1515397.5520505l-.071.2 1.672-.964c.2123689-.1214471.4814292-.0713915.6359136.1183044.1544843.1896959.1490205.4633181-.0129136.6466956l-.293.327 1.663-.959c.220439-.1262233.5004889-.0670999.6510942.1374575.1506054.2045574.1238973.4895314-.0620942.6625425l-.239.22.579-.334c.2109099-.1217971.4788947-.0739095.6345697.1133946.1556749.1873041.1537451.4595272-.0045697.6446054l-.97 1.135c.1992222.0470988.349609.2108821.3795776.4133906s-.0665356.4028284-.2435776.5056094l-1.895 1.094c-.0757231.044686-.162075.0681737-.25.068z" fill="#e88a44"/><g fill="#262626"><path id="Shape" d="m24.724 28.806c-.128-2.773-2-5.655-5.108-5.234-2.7.366-4.342 2.981-4.343 5.562 0 2.628 1.779 5.405 4.644 5.327 2.973-.079 4.686-2.817 4.811-5.535 0-.027-.013-.044-.017-.068s.014-.033.013-.052zm-5.21 4.624c-1.9-.5-2.767-2.818-2.761-4.564.009-2.194 1.444-5.087 4.085-4.136 1.721.62 2.338 2.74 2.43 4.38-.101 1.94-1.196 4.99-3.754 4.32z"/><path id="Shape" d="m39.911 34.437c2.968-.093 4.69-2.789 4.816-5.518 0-.024-.013-.039-.016-.06s.014-.034.013-.053c-.128-2.777-1.992-5.633-5.1-5.209-2.7.367-4.345 2.957-4.349 5.541-.004 2.624 1.776 5.388 4.636 5.299zm.923-9.722c1.718.7 2.344 2.716 2.436 4.41-.1 1.938-1.194 5-3.751 4.323-1.9-.506-2.771-2.834-2.766-4.586.005-2.124 1.452-5.22 4.081-4.147z"/><path id="Shape" d="m26.847 40.668c-1.7350709-.0323272-3.3305869.9471565-4.087 2.509-.734 1.438-.762 3.871 1.265 4.148 1.7752093.0763841 3.4274454-.9047537 4.21-2.5.705-1.499.771-3.974-1.388-4.157zm-2.9 5.168c-.3603896-.9482185-.2694817-2.0089332.247-2.882.524-1.007 1.944-2.316 2.791-.908.4248241.9722231.353295 2.0898645-.192 3-.578 1.023-2.056 2.388-2.842.79z"/><path id="Shape" d="m33.02 40.592c-1.986.653-2.016 2.931-1.261 4.541.01.02.029.03.041.048.0046556.0273317.0120254.054131.022.08.839 1.47 2.531 2.776 4.3 2.1 1.878-.717 1.878-3.008 1.092-4.554-.754-1.476-2.467-2.783-4.194-2.215zm2.6 5.837c-1 .351-2.034-1.059-2.45-1.776-.363-.8-.829-2.3.023-2.932.957-.712 2.251.889 2.627 1.62s.922 2.694-.201 3.088z"/><path id="Shape" d="m27.264 27.546c-.110925 1.5441893 1.0438005 2.8890629 2.587 3.013 1.6455131-.0793471 2.9265762-1.4580996 2.885-3.105-.07-1.514-.981-3.064-2.68-3.017-1.6083007.131093-2.8339591 1.4959111-2.792 3.109zm2.726-1.973c.878.074 1.241 1.263 1.274 1.973-.032.7-.315 1.961-1.254 1.881-.862-.072-1.263-1.264-1.274-1.973s.347-1.954 1.254-1.881z"/><path id="Shape" d="m25.836 23.5c1.6371935-.0685948 2.9225485-1.4275253 2.9-3.066-.07-1.509-.975-3-2.661-2.941-1.5973409.1214177-2.8241697 1.4652334-2.8 3.067-.0546322.7304876.1854042 1.4524501.6665522 2.0048028s1.1633699.8891326 1.8944478.9351972zm.2-4.968c.848.149 1.2 1.311 1.233 2.028-.032.7-.321 2.075-1.3 1.9-.833-.147-1.221-1.313-1.233-2.028s.349-2.064 1.299-1.897z"/><path id="Shape" d="m33.849 23.551c1.6443145-.0782686 2.9257812-1.4542807 2.887-3.1-.07-1.513-.981-3.055-2.678-3-1.6057816.1294382-2.8315448 1.4894476-2.794 3.1-.1096319 1.5406129 1.0451032 2.880731 2.585 3zm.139-4.986c.879.076 1.244 1.273 1.276 1.984-.032.693-.312 1.967-1.252 1.886-.863-.074-1.265-1.273-1.276-1.984s.344-1.964 1.252-1.886z"/><path id="Shape" d="m21.265 11.333c-.579 3.158-3.161 1.8-5.141.883-4.055-1.878-6.652-1.754-10.85-.444-2.18.68-6.155 1.4-4.64 4.6 1.826 3.862 8.386 5.351 12.288 5.91-1.7783082 4.5370305-1.9894915 9.5382036-.6 14.209-.0246598.0434437-.0302683.0951474-.0154975.1428683.0147707.0477209.0486073.0872154.0934975.1091317.4689292 1.5122884 1.0915108 2.972574 1.858 4.358.0139467.0521652.0423762.0993165.082.136 1.0867804 1.9261049 2.4233526 3.7001313 3.975 5.276.012.012.035.014.051.022.1004601 1.7855781.8447666 3.4742123 2.095 4.753-.0612222.0692731-.0965588.1576144-.1.25 0 4.62 5.484 8 9.57 7.957 4.05-.04 9.714-3.454 9.714-8.083.0015637-.0784805-.0199984-.1556864-.062-.222 1.2715627-1.2878177 2.0323557-2.9934723 2.141-4.8 0-.008-.006-.012-.006-.02 2.7723667-2.8227069 4.8200402-6.2747248 5.968-10.061.006-.008 0-.014.006-.021 1.4028793-4.7239029 1.1881933-9.7809907-.61-14.369 4.029-.624 8.36-1.879 11.287-4.81 3.563-3.569-1.526-4.588-4.311-5.457-3.1105631-1.1401301-6.5597136-.8996862-9.482.661-2.09.968-5.094 2.615-5.849-.841-.2141096-1.8268727-.2178004-3.67228548-.011-5.5 1.1483722-.37067685 1.9493097-1.41102066 2.014-2.616-.016-4.071-9.065-3.745-9.457.2 0 .03.012.049.015.076s-.011.031-.009.048c.1646773 1.09526714.9344554 2.00328002 1.988 2.345v2.893c0 .288.151 1.1 0 1.353-.409.685-2.236.18-2.936.17-.808-.011-2.811.512-3.354-.014-.385-.372-.238-.946-.238-1.46v-3.11c1.0508348-.39621959 1.8105295-1.32287178 1.993-2.431 0-.028-.012-.045-.014-.07s.011-.032.009-.05c-.4-3.991-9.464-3.673-9.451.328.0521046 1.17720552.8616239 2.1846523 2 2.489.1649176 1.73293174.1612336 3.4777801-.011 5.21zm-5.799 28.967c-.6438557-1.2088402-1.177351-2.4732976-1.594-3.778 1.905-.693 3.29 2.669 1.594 3.778zm24.781 6.077c-.0039356.0335972-.0008713.0676454.009.1 0 .059.013.117.016.176-.478 6.679-7.994 7.658-13.53 6.7-5.38-.936-7.867-4.754-6.662-10.068 1.442-6.358 8.331-11.215 14.507-7.42 3.723 2.282 5.4 6.296 5.66 10.509zm-11 12.07c-2.81-.321-6.513-2.83-7.276-5.9 4.392 2.925 11.725 2.877 16.119-.1-.669 3.758-5.411 6.388-8.842 5.997zm14.5-19.856c-.162-1.435 1-2.681 2.386-1.941-.3899272 1.2257718-.8851045 2.4155356-1.48 3.556-.5088124-.3938302-.8349401-.9781874-.903-1.618zm-4.505-34.959c-.04 1.88-2.774 2.322-4.691 1.609-.0925911-.07177786-.2027631-.11736628-.319-.132-.7606821-.28269817-1.3231926-.93581437-1.49-1.73.352-2.735 6.558-2.507 6.5.253zm-9.3 7.931c.661 0 1.509.16 2.309.2.063 1.621-1.112 3.66-3 2.609-.9159189-.5490126-1.4831849-1.5322736-1.5-2.6.766-.056 1.572-.209 2.194-.209zm-2.683-7.939c-.0995508.64885782-.5168511 1.205008-1.112 1.482-.2798934-.01959549-.5542213.08501489-.75.286-.8921355.23571178-1.8306211.23226274-2.721-.01-.1523398-.21090009-.4140872-.31301677-.669-.261-.733737-.27754729-1.2271323-.9708289-1.249-1.755.053-2.824 6.126-2.426 6.501.258zm-2 2.727c-.016 1.258-.062 2.526.007 3.777-.0451636.6930282.3913124 1.3264356 1.055 1.531-.0997275 1.0274573.2847294 2.0427536 1.0399868 2.7464583s1.7951574 1.0155408 2.8130132.8435417c1.9361383-.1443461 3.4544666-1.7208066 3.526-3.661.6140871-.2413396 1.022767-.8283238 1.036-1.488.0935766-1.21432462.0995922-2.4338113.018-3.649.8316579.12139605 1.677407.10856633 2.505-.038-.109 2.224-.708 5.952.987 7.332 1.639 1.333 3.852.226 5.447-.493 4.266-1.922 7.138-1.69 11.432-.351 1.991.621 4.152 1.478 2.417 3.875-2.229 3.078-7.149 4.258-10.63 4.741-.547-1.031-2.583-3.62-1.743-4.475.7242774-.4726814 1.5131087-.8381305 2.342-1.085.6936705-.4686507 1.5455617-.6414043 2.367-.48.753.162 1.5.472 2.232.7.356.112 1.651-.451 1.18-.6-.9539851-.376083-1.9390846-.6678652-2.944-.872-1.1953724-.0474778-2.378954.2518905-3.408.862-1.116557.3482643-2.1724141.8674221-3.13 1.539-.4408766.3773103-.5505369 1.0151047-.261 1.518.49 1.157 1.432 2.229 1.979 3.4 1.7906436 4.3633474 2.0935982 9.1951579.862 13.748-1.2740872-.1995179-2.5644265.2436971-3.447 1.184-.5700663.6635751-.7656768 1.5705244-.5198053 2.4100806.2458715.8395563.8998335 1.4977007 1.7378053 1.7489194-.7477324 1.2979657-1.6141009 2.5238704-2.588 3.662-.9-6.22-5.552-11.8-12.4-11.086-5.716.593-9.97 5.4-10.74 10.966-.9580088-1.1280151-1.8121473-2.3402758-2.552-3.622.7353115-.2898309 1.3193893-.8688316 1.6156288-1.6015847s.2786593-1.5549937-.0486288-2.2744153c-.7438261-1.3402586-2.3582014-1.9320259-3.792-1.39-1.2799631-4.5714364-1.0231371-9.4367259.731-13.848.0332748-.0548208.0566317-.115075.069-.178.005-.008.015-.015.019-.023.548-1.171 1.487-2.234 1.979-3.4.275901-.4552518.2189029-1.0378534-.14-1.431-.663-.7-2.109-1.055-2.946-1.444-.967829-.5864543-2.0999747-.8426435-3.226-.73-.98989924.2241525-1.96346449.515153-2.914.871-.834.263-.7.853.156.582.72519462-.2885727 1.47093713-.5225574 2.231-.7.9554628-.0693996 1.9081917.1673816 2.72.676.8221292.2644555 1.6086798.6288481 2.342 1.085.917.792.118 1.572-.392 2.386-.319.51-.6 1.038-.873 1.573-3.312-.682-15.284-4.193-10-7.732 3.43-2.3 8.446-1.838 11.884-.246 2 .928 4.362 2.28 6.386.517 1.762-1.535 1.233-4.887 1.089-7.253.8306373.0902273 1.6703124.04871603 2.488-.123z"/><path id="Path" d="m19.267 28.059v2c0 .741 1.466.513 1.466-.118 0-.6666667 0-1.3333333 0-2-.001-.741-1.466-.513-1.466.118z"/><path id="Path" d="m40.725 29.806c0-.6666667 0-1.3333333 0-2 0-.27-1.449-.054-1.448.388v2c-.001.27 1.448.054 1.448-.388z"/></g></g></svg>