<svg height="512" viewBox="0 0 60 60" width="512" xmlns="http://www.w3.org/2000/svg"><g id="b"><path d="m48 50v2c0 3.87-3.13 7-7 7h-22c-3.87 0-7-3.13-7-7v-2z" fill="#ecf0f1"/><path d="m48 28v2h-36v-2c0-3.87 3.13-7 7-7h22c3.87 0 7 3.13 7 7z" fill="#ecf0f1"/><path d="m12 30h36v20h-36z" fill="#71b9e8"/><path d="m40 21v-4c0-1.105-.895-2-2-2h-16c-1.105 0-2 .895-2 2v4z" fill="#88abab"/><path d="m35 15-2.661-12.419c-.198-.922-1.013-1.581-1.956-1.581h-.766c-.943 0-1.758.659-1.956 1.581l-2.661 12.419z" fill="#526666"/><path d="m34 42c0-3-4-8-4-8s-4 5-4 8c0 2.209 1.791 4 4 4s4-1.791 4-4z" fill="#ecf0f1"/></g><g id="c" fill="#232323"><path d="m48.869 29c.392-4.832-3.295-8.814-8.048-8.739-.105-1.015-.193-2.031-.251-3.046.041-1.629-1.38-2.855-3-2.638-.557.02-1.145.031-1.755.036-.8-2.451-1.471-4.93-2.057-7.428-.31-1.28-.582-2.569-.856-3.857-.123-1.099-.616-2.321-1.79-2.665-1.143-.258-2.414-.336-3.333.538-.571.463-.771 1.392-.95 2.069-.951 3.633-2.039 7.242-2.613 10.958-.62-.034-1.219-.067-1.787-.098-1.58-.231-3.187.871-3.402 2.484-.073 1.298-.039 2.603.052 3.904h-.08c-3.856-.055-7.308 3.25-7.408 7.089 0 4.457-.016 18.714-.05 23.392-.289 3.034 1.108 6.149 3.838 7.635 1.292.752 2.937 1.021 4.374.978l4.249.056 16.996.226c4.09.099 7.839-3.363 7.971-7.474.052-1.515.008-4.895.027-6.425l-.129-16.996zm-4.548 20.004c-.407-.458-.886-.941-1.259-1.312-.191-.19-.334-.341-.406-.413-.443-.45-.924-.861-1.387-1.264-.142-.123-.283-.245-.426-.362-.363-.298-.713-.57-1.046-.777-.087-.054-.194-.051-.269.007-.1.077-.13.212-.071.316.035.063.077.126.124.186.73.925 1.523 1.789 2.362 2.603l.056.054c.347.335.709.654 1.073.971-.645.008-1.294.02-1.956.039-.26-.272-.533-.545-.793-.793-.149-.142-.276-.266-.366-.349-.405-.373-.827-.728-1.229-1.051-.124-.099-.246-.196-.367-.287-.357-.267-.68-.487-.942-.606-.086-.039-.17-.031-.226.015-.083.068-.119.173-.09.267.018.058.047.116.088.169.622.798 1.316 1.525 2.051 2.203l.049.045c.164.15.34.287.509.431-.615.022-1.227.046-1.842.073-.12-.114-.244-.23-.373-.345-.562-.501-1.192-.995-1.707-1.334-.515-.34-.916-.526-1.019-.411-.118.087-.143.252-.057.37.523.653 1.099 1.246 1.724 1.784-2.324.11-4.575.229-6.525.289-5.856.166-11.707.128-17.55-.383-.018-4.579-.054-14.481-.04-18.271 2.863-.258 5.727-.394 8.59-.443 8.369-.316 17.698.798 26.122.495-.005 2.146-.029 4.879-.054 7.435-.225-.226-.45-.437-.657-.607-.39-.32-.715-.506-.845-.426-.134.065-.189.226-.125.359.334.607.73 1.161 1.187 1.66.133.145.282.276.425.412-.007.68-.014 1.331-.02 1.945-.131-.143-.24-.265-.313-.345-.334-.366-.699-.705-1.046-1.018-.089-.08-.177-.158-.265-.233-.325-.277-.628-.507-.883-.632-.067-.033-.14-.029-.195.007-.08.052-.121.14-.108.22.013.082.043.171.096.253.47.724 1.013 1.388 1.598 2.01.033.035.066.07.099.104.296.309.605.606.927.89l.049.044.027.022c-.008.817-.015 1.51-.018 2.025-.204-.225-.405-.44-.579-.625-.184-.194-.322-.347-.386-.418-.402-.45-.859-.849-1.295-1.248-.111-.102-.222-.202-.334-.299-.362-.315-.715-.603-1.058-.826-.078-.051-.179-.05-.254.003-.098.069-.131.195-.08.292.05.098.111.198.183.295.638.864 1.338 1.673 2.081 2.439.042.043.083.086.125.128.375.381.762.749 1.161 1.106l.061.055c.12.107.25.204.373.309-.001.547.001 1.306.004 2.138-.729-.798-1.538-1.585-1.651-1.743-.512-.495-1.02-.994-1.544-1.477s-1.063-.951-1.636-1.386c-.09-.068-.218-.072-.313-.001-.115.086-.139.249-.053.364.886 1.126 1.831 2.195 2.833 3.206.502.506 1.018.997 1.548 1.474.08.072.165.138.246.209-.682-.022-1.387-.033-2.116-.033zm-16.03-46.386c.186-.797.876-1.173 1.709-1.138.635-.048 1.07.008 1.511.417.449.412.469 1.016.62 1.596.805 3.678 1.501 7.365 1.922 11.115-2.561-.029-5.363-.148-7.946-.28 1.026-3.839 1.511-7.798 2.184-11.711zm-7.289 14.371c-.014-.825.689-1.171 1.427-1.12 4.435-.24 10.762-.608 15.141-.446 1.212-.133 2.025.733 1.859 1.792-.058 1.026-.148 2.052-.254 3.078-.647.008-1.475.018-2.423.029.111-.592.248-1.322.248-1.322.21-1.585-2.21-1.585-2 0l.251 1.339c-.789.009-1.629.018-2.498.028.107-.591.247-1.367.247-1.367.135-.679-.498-1.318-1.181-1.181-.552.1-.919.628-.819 1.181l.25 1.384c-.839.009-1.689.018-2.534.028.118-.586.284-1.411.284-1.411.23-1.607-2.23-1.607-2 0l.287 1.427c-.888.01-1.756.019-2.581.028.116-.577.293-1.455.293-1.455.23-1.607-2.23-1.607-2 0l.296 1.471c-.884.01-1.684.019-2.374.026.084-1.169.092-2.339.081-3.508zm-2.003 4.491 16.996.189c1.33.06 4.993-.052 6.22.201 2.48.509 4.506 2.639 4.846 5.147.036.056.053.841.059 2.05-5.158-.238-12.113.3-17.121.453-5.866.166-11.726.128-17.579-.385 0-1.212-.018-2.368.434-3.423.913-2.508 3.481-4.297 6.145-4.232zm22 36.625-16.996.226-4.249.056c-1.398.065-2.622-.094-3.839-.731-2.442-1.264-3.655-3.954-3.458-6.656v-.138c2.847-.256 5.695-.391 8.542-.439 8.331-.314 17.613.787 26.008.498-.002.567-.007 1.06-.016 1.396-.085 3.111-2.84 5.814-5.992 5.787z"/><path d="m29.68 33.744c-1.096 1.475-2.12 2.966-3.013 4.587-.915 1.674-1.785 3.728-.928 5.662 2.017 4.822 9.361 3.295 9.156-1.994-.38-3.298-2.664-5.747-4.575-8.256-.154-.212-.487-.214-.64 0zm-2.659 9.649c-1.342-2.68 1.218-6.319 2.965-8.685 1.47 2.173 2.99 4.693 3.119 7.292-.198 3.146-4.526 4.267-6.084 1.393z"/></g></svg>