<?xml version="1.0" encoding="iso-8859-1"?>
<!-- Generator: Adobe Illustrator 19.0.0, SVG Export Plug-In . SVG Version: 6.00 Build 0)  -->
<svg version="1.1" id="Layer_1" xmlns="http://www.w3.org/2000/svg" xmlns:xlink="http://www.w3.org/1999/xlink" x="0px" y="0px"
	 viewBox="0 0 512.005 512.005" style="enable-background:new 0 0 512.005 512.005;" xml:space="preserve">
<g>
	<path style="fill:#FFFFFF;" d="M373.895,56.013c-0.572-1.011-1.22-1.977-1.986-2.872c-3.693-4.31-9.319-4.433-13.77-2.106
		c-4.839-4.004-11.302-4.065-15.857-0.44c-1.769-0.83-3.845-1.402-6.296-1.638c-2.423-0.234-5.165,0.716-7.399,2.278
		c-1.82-2.408-4.36-4.249-7.913-5.15c-5.583-1.416-11.384,0.949-14.409,5.819c-0.156-0.079-0.298-0.172-0.46-0.246
		c-5.089-2.325-11.445-2.437-15.564,2.008c-0.814,0.878-1.559,1.808-2.271,2.758c-1.592-2.354-3.722-4.484-6.611-6.319
		c-4.817-3.058-11.425-1.818-15.397,1.987c-0.228,0.22-0.434,0.455-0.656,0.679c-0.057-0.082-0.109-0.168-0.168-0.249
		c-3.294-4.525-8.942-7.97-14.772-6.012c-3.868,1.299-6.775,3.429-8.921,6.185c-0.517-0.843-1.07-1.669-1.671-2.47
		c-5.77-7.691-15.736-8.565-21.757-0.993c-4.84-5.633-12.401-8.47-19.522-4.094c-5.15,3.164-7.463,8.733-8.425,14.876
		c-1.009-0.568-2.103-1.043-3.319-1.377c-1.599-0.439-3.175-0.572-4.704-0.47c0.357-0.317,0.725-0.622,1.063-0.967
		c1.326-1.35,1.349-3.602,0-4.953c-8.481-8.49-21.894-6.635-32.492-10.744c-4.512-1.749-8.328-4.328-12.522-6.636
		c-3.933-2.165-7.624-5.066-12.278-5.105c-6.977-0.059-8.893,7.812-5.197,12.547c3.252,4.166,6.925,7.879,11.008,11.055
		c-3.136,1.494-5.51,4.553-5.581,9.206c-0.059,3.872,0.65,7.499,0.992,11.279c0.331,3.66,0.445,7.299,0.821,10.947
		c-0.869,10.607-1.936,23.122,3.244,31.763c1.02,1.702,2.481,2.93,4.133,3.723c0.808,4.649,2.063,9.246,4.356,13.829
		c1.298,2.593,2.919,5.059,4.642,7.457c1.31,4.628,3.361,9.08,5.409,12.698c5.552,9.805,16.117,17.436,27.673,15.094
		c1.55-0.315,2.772-1.226,3.63-2.426c0.138-0.03,0.277-0.051,0.414-0.085c2.471-0.622,4.655-1.86,6.569-3.523l0.648-0.838
		c0.009-0.007,0.013-0.011,0.023-0.018c1.011-0.997,1.823-1.88,2.581-3.114c3.141-5.113-0.504-9.886-5.193-10.833
		c-1.052-0.905-2.163-1.721-3.3-2.504c2.778-0.961,5.292-2.884,6.509-5.244c0.383-0.742,0.705-1.511,0.998-2.295
		c1.677,3.069,3.772,5.94,6.476,8.506c4.884,4.638,13.585,5.343,18.38,0c0.437-0.487,0.836-0.986,1.211-1.491
		c4.36,1.193,7.804,0.721,10.525-0.869c2.325,6.168,6.408,10.785,13.56,11.641c9.131,1.094,13.752-3.798,16.013-10.908
		c0.259,0.067,0.507,0.145,0.776,0.199c4.595,0.909,9.41-0.16,12.637-3.427c3.001,8.479,12.471,13.297,20.776,8.263
		c3.168-1.92,5.172-4.717,6.514-7.895c2.408,0.871,5.094,1.06,7.88,0.293c3.762-1.036,6.296-3.488,8.096-6.6
		c3.858,2.752,8.887,3.413,14.147,0.245c1.58-0.952,2.898-2.17,4.038-3.554c1.921,1.122,4.277,1.891,7.184,2.182
		c3.959,0.396,9.343-2.618,10.963-6.288c0.461-1.044,0.936-2.065,1.408-3.079c1.769,0.715,3.528,1.081,5.224,1.125
		c0.338,0.383,0.706,0.745,1.121,1.078c0.889,0.715,2.154,1.368,3.338,0.882c0.018-0.007,0.034-0.017,0.052-0.026
		c2.103,3.047,5.288,5.059,9.4,3.882c7.521-2.153,7.885-11.44,8.62-17.899c0.096-0.521,0.159-1.043,0.198-1.565
		c0.882-6.934,2.102-13.846,3.168-20.755C383.69,80.826,385.506,62.831,373.895,56.013z M171.736,63.444
		c-0.795,0.897-1.505,1.882-2.119,2.942c-0.39-0.758-0.806-1.509-1.222-2.259C169.529,63.96,170.641,63.723,171.736,63.444z
		 M156.228,92.072c0.076,0.165,0.172,0.295,0.26,0.442c0.29,2.199,0.573,4.401,0.856,6.602c-0.699-0.332-1.419-0.584-2.151-0.754
		c-0.509-2.791-1.124-5.574-1.636-8.312c-0.521-2.786-1.259-5.563-2.046-8.34C153.071,85.17,154.647,88.622,156.228,92.072z
		 M151.139,69.852c0.026,0.179,0.084,0.357,0.129,0.537C148.968,69.651,150.747,66.991,151.139,69.852z"/>
	<path style="fill:#FFFFFF;" d="M375.677,391.462c-1.138-4.381-2.736-8.658-4.333-12.932c-1.494-5.622-3.349-11.173-5.398-16.431
		c-0.709-1.977-1.481-3.927-2.378-5.819l-0.174,0.103c-0.695-1.085-1.536-2.041-2.504-2.802
		c-4.801-11.239-12.198-20.611-23.678-26.673c-6.456-3.408-12.742-6.968-19.306-10.136c2.343,1.131-1.08-0.822-1.765-1.339
		c-1.481-1.119-2.995-1.993-4.633-2.846c-3.401-1.77-5.919-4.464-9.288-6.219c-2.861-1.491-6.091-2.33-8.601-4.497
		c-2.131-1.84-3.716-4.67-5.281-6.963c-1.947-2.852-2.862-6.154-4.826-8.998c-2.177-3.152-4.581-6.359-7.012-9.327
		c-3.407-4.16-10.463-3.951-14.351-0.855c-0.172,0.138-0.328,0.282-0.489,0.424c-0.875-0.246-1.81-0.384-2.811-0.384
		c-4.517,0-9.283,3.29-10.291,7.834c-0.675,3.041-0.509,5.909,0.434,8.854c0.303,0.945,0.403,1.718,0.537,1.946
		c-0.546,0.715-1.461,1.993-1.718,2.363c-0.773,1.119-1.485,2.27-2.164,3.44c-5.338,1.863-10.437,4.375-15.534,6.839
		c-5.366,2.593-11.301,6.009-16.947,7.747c-2.89,0.891-5.886,0.944-8.764,1.982c-3.38,1.219-6.637,2.887-9.932,4.325
		c-5.771,2.518-10.775,5.786-15.799,9.569c-5.11,3.849-10.458,6.87-15.801,10.326c-11.428,7.393-19.695,20.853-23.073,33.909
		c-1.783,6.896-2.935,14.163-3.791,21.227c-0.253,2.084-0.348,4.124-0.239,6.104c-0.694,2.764-0.92,5.576-0.348,8.415
		c0.786,3.9,3.88,5.661,7.147,5.685c4.301,2.323,10.384-1.743,9.815-6.298c0.105-0.335,0.253-0.848,0.401-1.378
		c0.992-1.493,1.955-2.992,2.905-4.499c1.372,3.235,3.554,6.031,6.252,8.331c-0.831,2.186-1.071,4.612-0.409,7.353
		c0.132,0.546,0.312,1.052,0.499,1.553c-3.279,2.397-4.277,8.174,0.12,10.168c4.383,1.986,9.103,4.038,13.976,5.788
		c-2.946,0.973-5.853,2.042-8.834,2.931c-3.791,1.13-7.795,3.125-11.65,3.768c-6.245,1.041-4.14,9.94,1.407,10.39
		c3.965,0.322,8.055-0.614,12.052-0.797c4.009-0.183,8.015-0.393,12.02-0.637c8.723-0.531,17.398-0.964,26.119-1.73
		c17.369-1.527,34.881-4.005,50.83-11.239c2.319-1.052,2.36-5.135,0-6.171c-15.344-6.743-32.049-6.042-48.355-3.582
		c-0.055-0.124-0.095-0.248-0.156-0.372c-1.228-2.543-3.156-4.351-5.463-5.664c0.978-4.038-0.242-8.276-5.243-10.58
		c-0.283-0.131-0.565-0.261-0.848-0.389c3.401-2.22,6.629-4.971,9.641-7.874c0.087,0.001,0.172,0.004,0.259,0.006
		c2.332,0.04,4.656,0.109,6.977,0.183c8.994,6.756,25.344,7.628,32.727,0.81c0.414-0.382,0.772-0.801,1.089-1.246
		c11.766-1.321,23.308-3.968,35.174-4.448c11.98-0.486,23.665,0.933,35.567,1.884c5.076,0.405,10.156-0.195,15.2,0.618
		c3.516,0.567,6.389,1.693,9.241,3.13c0.571,1.783,1.359,3.54,2.436,5.265c2.831,4.537,8.256,4.776,11.868,1.716
		c3.014,0.764,6.123,0.701,9.338-1.009c5.086-0.454,9.759-4.012,9.721-10.744C377.224,398.087,377,394.683,375.677,391.462z
		 M192.603,373.776c-0.382,1.755-0.719,3.533-0.93,5.306c-0.434,0.041-0.872,0.07-1.304,0.12c-0.382,0.044-0.765,0.098-1.147,0.143
		C190.353,377.509,191.475,375.655,192.603,373.776z M260.2,368.706c-5.909,2.102-11.813,4.668-17.785,6.833
		c0.296-3.356,0.842-6.833,1.691-10.171c0.14-0.25,0.29-0.489,0.428-0.742c4.027-7.322,8.514-14.962,9.929-23.292
		c0.726-4.268,0.005-8.553-2.602-11.734c1.137-1.586,2.251-3.192,3.334-4.806c0.221,0.66,0.451,1.316,0.709,1.965
		c2.12,5.355,5.816,12.039,10.779,16.658c-0.179,4.418,0.559,9.132,1.232,12.85c0.542,2.989,1.176,5.916,1.949,8.77
		C266.347,366.371,263.063,367.689,260.2,368.706z"/>
</g>
<path style="fill:#C18140;" d="M385.659,426.93c0.11-1.903-0.306-3.802-1.226-5.448c-0.196-0.737-0.399-1.46-0.6-2.167
	c-0.644-2.252-1.27-4.518-1.976-6.756c0.001-0.085,0.005-0.17,0.006-0.254c0.01,0.25,0.05-0.057,0.093-0.615
	c0.226-0.307,0.435-0.627,0.604-0.972c0.4-0.816,0.642-1.666,0.748-2.514c0.661-0.781,1.134-1.693,1.297-2.763
	c0.315-2.081,0.193-3.798-1.132-5.511c-1.097-1.42-3.055-2.724-4.965-2.492c-0.722,0.088-1.446,0.139-2.138,0.346
	c-0.349,0.105-0.649,0.224-0.922,0.359c-2.329-1.283-4.07-2.883-6.835-3.466c-1.963-0.415-3.677-0.672-5.611-1.226
	c-5.125-1.469-9.614-3.699-15.028-4.215c-0.592-0.056-1.185-0.128-1.777-0.193c-1.056-1.637-2.373-3.077-3.806-4.156
	c-6.343-4.773-14.745-7.006-21.84-10.463c-3.65-1.779-7.096-3.977-10.623-5.984c-3.251-1.851-6.769-4.766-10.513-5.43
	c-3.133-2.669-6.253-5.353-9.304-8.115c-2.09-1.891-4.238-3.804-6.607-5.337c-0.567-0.367-1.195-0.651-1.781-0.989
	c-0.09-0.052-0.19-0.12-0.295-0.194c-0.283-0.288-0.553-0.588-0.842-0.871c-1.498-1.474-3.177-2.4-4.903-2.869
	c-0.632-4.079-1.331-8.145-2.068-12.206c-0.304-3.124-0.611-6.248-0.965-9.363c-0.539-4.759-1.504-10.074-1.94-15.33
	c0.063-2.257,0.22-4.542,0.494-6.9c0.375-3.214,1.071-6.199,0.54-8.869c0.073-0.56,0.154-1.117,0.223-1.679
	c0.392-0.533,0.748-1.134,1.058-1.809c0.375-0.815,0.692-1.637,0.966-2.464c0.021,0.009,0.041,0.017,0.062,0.027
	c0.057-0.232,0.096-0.465,0.146-0.698c1.598-5.285,1.519-10.797,2.658-16.284c1.84-8.869,3.111-17.821,4.167-26.813
	c0.621-5.285,1.111-10.581,1.638-15.876c2.357-4.972,5.041-9.765,7.782-14.572c0.178-0.311,0.365-0.631,0.547-0.945
	c1.498-0.917,3.05-1.742,4.727-2.347c3.257-1.175,5.46-2.59,8.42-4.337c2.75-1.622,5.897-2.591,8.689-4.227
	c5.031-2.945,9.791-6.292,14.761-9.33c1.871-0.629,3.649-1.487,5.238-2.539c0.905-0.599,1.798-1.228,2.681-1.882
	c3.068-1.66,5.93-3.518,7.64-6.479c3.072-2.922,5.964-6.036,8.64-9.133c2.257-2.613,4.261-5.364,6.13-8.199
	c7.6,3.129,14.412-6.464,16.365-12.689c2.006-6.393,2.707-14.258,1.094-20.848c0.09-0.775,0.173-1.549,0.207-2.34
	c0.389-8.776-8.708-11.019-14.41-7.307c-0.337-0.359-0.67-0.72-1.037-1.054c-6.235-5.665-14.734-7.297-22.922-6.501
	c-1.188,0.116-2.363,0.284-3.534,0.471c-0.618-1.239-1.702-2.213-3.289-2.525c-7.317-1.437-14.012,2.634-20.421,5.741
	c-6.84,3.317-14.113,5.871-21.208,8.614c-7.53,2.912-14.837,3.367-22.554,5.159c-3.421,0.794-6.479,2.484-9.796,3.545
	c-0.593,0.189-1.192,0.359-1.797,0.517c-3.056,0.335-6.101,0.758-9.117,1.447c-3.69-1.812-8.002-2.401-11.999-2.631
	c-6.164-0.355-12.915-1.805-18.969-0.034c-0.029-0.009-0.057-0.02-0.087-0.028c-2.625-0.75-5.331-0.539-7.906-1.041
	c-2.421-0.472-5.021-1.635-7.517-2.295c-1.888-0.5-3.626-1.256-5.339-2.041c0.052-2.458-1.104-4.911-3.969-6.541
	c-4.118-2.341-7.116-4.215-12.163-3.189c-3.608,0.734-7.288,2.243-10.764,3.474c-6.603,2.337-11.116,8.234-12.615,14.959
	c-1.253,2.603-1.591,5.521-1.666,8.554c-0.083,0.712-0.133,1.436-0.131,2.192c0.002,0.947,0.057,1.942,0.165,2.947
	c0.111,3.521,0.611,6.806,1.413,10.04c0.011,1.339,0.072,2.673,0.227,3.989c1.108,9.393,8.655,17.067,17.543,16.161
	c-0.73,5.181,3.597,10.562,9.136,10.503c2.828-0.029,5.468,0.188,8.295,0.725c4.639,0.881,8.753,3.736,13.185,5.427
	c4.261,1.626,8.059,3.056,12.033,5.281c3.285,1.84,6.253,3.208,9.587,4.073c2.307,1.315,5.094,3.219,7.782,5.183
	c0.822,12.576,3.449,26.443,12.305,34.791c-0.572,9.59-1.397,19.157-1.774,28.76c-0.401,10.246-0.603,20.512-1.378,30.74
	c-0.701,9.256-2.165,18.442-2.273,27.722c-0.409,2.065-0.83,4.132-1.396,6.167c-1.929,6.939-3.723,14.04-6.066,20.905
	c-4.233,6.481-7.482,13.597-11.31,20.422c-3.219,5.738-7.495,11.022-12.123,15.93c-3.446,1.283-6.794,2.711-10.234,4.172
	c-1.227,0.522-2.362,1.104-3.449,1.724c-6.074-2.398-13.078-3.09-19.447-3.689c-8.276-0.778-16.394,0.088-24.588,0.889
	c-0.293-0.194-0.597-0.389-0.926-0.586c-0.278-0.166-1.576-0.775-2.658-1.243c-1.69-4.78-7.231-7.563-12.112-6.221
	c-3.8,1.044-5.995,3.766-6.813,7.046c-0.068-0.01-0.137-0.018-0.206-0.028c-0.603,3.433-0.522,6.613,0.323,9.436
	c0.04,2.436-0.167,4.908-0.453,7.389c-2.67,8.449-4.486,16.973-4.905,25.888c-0.251,5.336,2.01,10.473,6.634,13.361
	c4.737,2.959,11.334,2.352,16.62,1.691c5.724-0.717,11.197-2.13,16.801-3.424c5.962-1.377,12.622-1.154,18.74-1.748
	c11.443-1.113,22.53-1.156,34.059-1.085c6.11,0.038,12.221,0.077,18.331,0.116c6.043,0.039,12.032,1.033,18.024,1.082
	c5.558,0.045,11.116-1.438,16.704-1.607c5.724-0.173,11.395-0.634,17.106-1.039c5.206-0.37,10.339-1.37,15.573-1.288
	c3.031,0.048,5.905-0.627,8.892-0.677c2.573-0.044,5.15,0.644,7.783,0.815c5.154,0.333,10.128-0.85,15.334-0.711
	c6.817,0.182,13.643,0.118,20.461,0.257c10.807,0.22,27.699,6.884,32.094-7.704C386.523,434.906,386.344,430.863,385.659,426.93z"/>
<g>
	<path style="fill:#9E6226;" d="M260.19,229.144c5.407-4.572,1.042-13.444-1.644-18.258c-3.805-6.818-8.327-12.884-12.851-19.166
		c1.72-3.321,0.98-7.715-2.922-10.661c-2.702-2.041-4.681-4.762-7.571-6.617c-3.828-2.457-7.717-3.279-12.057-4.257
		c-0.35-0.079-0.694-0.167-1.043-0.248c-2.336-1.109-4.736-2.118-7.089-3.025c-4.959-1.913-8.837-4.681-12.82-8.223
		c-3.679-3.272-8.379-1.082-9.76,2.36c-6.071-5.054-9.73-14.081-13.02-21.676c0.967-6.542-5.902-13.725-12.648-11.102
		c-0.488,0.19-0.977,0.379-1.465,0.57c-3.061,1.189-6.508,3.441-7.053,7.053c-0.187,1.231-0.232,2.471-0.178,3.717
		c-0.539,1.321-0.964,2.695-0.956,4.516c0.013,3.627,1.125,7.394,2.199,10.839c0.84,2.695,1.921,5.403,3.523,7.739
		c1.463,2.134,3.88,4.027,4.96,6.34c0.023-0.013,0.048-0.028,0.071-0.041c0.992,1.625,2.345,2.754,3.866,3.433
		c3.383,4.725,7.583,8.942,12.379,11.741c4.223,2.464,8.671,3.349,13.389,4.217c4.682,0.861,9.122,2.406,13.725,3.597
		c3.772,0.977,7.612,1.422,11.45,1.968c2.02,2.646,3.93,5.378,5.835,8.106c4.712,6.751,9.109,13.971,14.762,19.978
		c0.005,0.026,0.013,0.051,0.018,0.078c0.664,3.43,0.649,7.158,0.916,10.647c0.645,8.443-1.026,17.354-1.405,25.835
		c-0.81,18.118-0.44,34.848,8.031,51.295c0.936,1.818,4.032,1.915,4.938,0c3.906-8.256,2.512-16.928,2.787-25.798
		c0.3-9.663,1.801-19.279,1.823-28.948c0.02-8.626,0.715-16.942-1.077-25.391C259.602,229.587,259.901,229.388,260.19,229.144z"/>
	<path style="fill:#9E6226;" d="M340.004,432.497c-2.382-1.049-4.878-1.291-7.424-1.155c-0.514-0.437-1.194-0.749-2.024-0.859
		c-6.501-0.862-12.786,0.498-19.208,0.251c-6.528-0.25-12.995-1.227-19.551-1.346c-14.614-0.262-29.228-1.285-43.852-0.858
		c-7.46,0.217-15.103,0.667-22.525-0.36c-6.796-0.942-13.448-2.445-20.296-3.106c-1.393-0.134-2.767-0.232-4.132-0.31
		c-1.363-0.192-2.729-0.345-4.096-0.438c-4.041-0.273-7.76-0.44-11.68-1.659c-4.479-1.393-8.339-3.496-13.152-4.32
		c-4.697-0.804-9.407-1.241-14.169-1.314c-1.271-0.02-2.562-0.067-3.854-0.083c-0.205-1.708-0.257-5.093-1.11-7.264
		c-0.717-1.829-1.887-3.439-3.316-4.76c-0.238-0.403-0.468-0.815-0.728-1.186c-5.149-7.342-15.902-5.091-17.962,2.259
		c-2.575,2.025-4.335,5.063-4.051,8.399c0.004,1.57,0.048,3.127,0.1,4.681c-1.128,2.445-1.809,5.093-2.069,7.244
		c-0.273,2.273,0.688,4.504,2.259,6.264c0.16,2.181,0.636,4.365,1.539,6.323c-0.024,1.581,0.121,3.14,0.525,4.649
		c1.819,6.809,8.022,10.481,14.836,10.079c0.717-0.043,3.157,0.205,2.72-0.004c0.954,0.301,1.875,0.736,2.841,0.966
		c3.303,0.789,6.368,0.42,9.586-0.438c4.65-1.241,7.696-6.004,6.989-10.704c-0.121-0.806-0.324-1.543-0.584-2.227
		c2.34,0.388,4.576,1.012,6.791,2.02c8.303,3.779,16.799,4.207,25.67,5.213c7.767,0.88,15.439,2.709,23.192,3.688
		c8.903,1.122,17.675,2.485,26.574,3.727c7.889,1.1,16.334,0.772,24.311,1.066c7.993,0.295,16.949-0.711,24.587-3.028
		c3.891-1.181,7.611-2.829,11.69-3.18c4.22-0.362,8.401-0.381,12.595-1.075c8.253-1.365,13.631-5.256,19.833-10.528
		C342.775,437.491,342.394,433.549,340.004,432.497z"/>
	<path style="fill:#9E6226;" d="M253.228,342.325c-1.099-3.267-5.743-4.233-7.578-0.991c-4.078,7.21-7.192,15.007-10.674,22.55
		c-1.807,3.916-3.993,7.657-5.803,11.551c-0.984,2.115-1.674,6.267-3.977,7.308c-2.381,1.077-1.034,4.611,1.263,4.662
		c6.92,0.155,13.128-10.413,16.312-15.244C248.047,364.157,256.609,352.371,253.228,342.325z"/>
</g>
<g>
	<path style="fill:#D4A375;" d="M347.292,102.004c-0.041-1.525-0.995-2.77-2.265-3.518c0.024-0.221,0.055-0.44,0.078-0.661
		c0.565-5.343-8.356-6.548-9.407-1.274c-2.12,10.65-5.354,20.831-8.242,31.26c-1.715-0.201-3.455-0.368-5.21-0.65
		c-6.013-0.962-11.534-0.123-17.482,0.875c-10.636,1.783-22.202,5.332-31.96,9.984c-2.026,0.966-3.194,2.548-3.677,4.337
		c-1.294-0.21-2.642-0.467-4.123-0.771c-3.164-0.647-5.465-0.959-8.177-2.866c-2.293-1.613-3.961-3.055-6.853-3.444
		c-2.807-0.378-5.031,0.961-6.271,2.845c-0.767-0.542-1.503-1.138-2.193-1.809c-0.638-0.976-1.624-1.809-3.016-2.318
		c-0.148-0.054-0.296-0.109-0.444-0.162c-3.977-1.452-8.172,3.022-6.9,6.9c5.161,15.735,25.652,20.171,41.486,20.679
		c-1.316,3.971-1.559,8.727-2.136,12.589c-1.852,12.383-3.968,26.769,2.341,38.19c0.002,0.101-0.002,0.202,0,0.304
		c0.012,0.406,0.265,0.642,0.564,0.722c0.004,0.005,0.006,0.011,0.009,0.016c1.209,1.988,4.099,1.988,5.308,0
		c5.433-8.938,3.944-18.471,4.525-28.504c0.283-4.899,0.966-9.859,1.596-14.728c0.152-1.184,0.29-2.324,0.368-3.508
		c0.065-0.995,0.138-1.582,0.172-1.899c1.292-0.991,2.031-2.491,2.253-4.077c0.155-0.026,0.311-0.048,0.465-0.074
		c-0.262,0.427-0.509,0.866-0.734,1.322c-1.019,2.065-1.031,4.936,0.85,6.59c9.237,8.122,21.084-0.168,29.688-5.64
		c0.187-0.118,0.357-0.249,0.542-0.368c-0.204,3.597,3.778,7.105,7.244,4.734c10.005-6.842,13.837-19.283,17.474-30.32
		C346.592,126.357,349.295,113.043,347.292,102.004z"/>
	<path style="fill:#D4A375;" d="M285.844,370.472c-2.284-1.365-3.824-3.418-5.998-4.9c-2.301-1.569-4.612-2.041-6.114-4.6
		c-3.072-5.236-2.967-12.919-3.773-18.803c-0.912-6.661-1.683-13.335-2.468-20.011c-0.775-6.589-0.555-13.225-1.807-19.754
		c0.031-2.269,0.057-4.538,0.133-6.796c0.354-10.646,2.242-21.296,3.478-31.879c0.201-1.726-2.531-1.729-2.717,0
		c-1.259,11.79-2.31,23.551-2.953,35.34c-3.228-1.984-8.849,0.873-8.039,5.897c1.377,8.55,0.872,17.729,1.575,26.401
		c0.673,8.307,1.309,16.743,2.53,24.988c2.085,14.08,11.907,23.756,26.154,16.958C286.993,372.762,286.833,371.063,285.844,370.472z
		"/>
	<path style="fill:#D4A375;" d="M332.681,388.761c-1.148,2.576-3.117,4.719-4.836,6.925c-0.379,0.488-0.734,0.987-1.081,1.491
		c-0.556-0.634-1.164-1.248-1.812-1.833c-0.124-0.828-0.84-1.625-1.716-1.583c-0.063,0.002-0.131-0.001-0.195,0.001
		c-2.212-1.683-4.588-3.057-6.484-3.96c-3.668-1.747-8.975-2.925-13.474-2.318c-6.038-2.145-12.142-3.959-18.624-4.204
		c-6.584-0.249-13.363,0.912-19.84,1.986c-3.327,0.551-6.647,1.131-9.938,1.863c-1.746,0.389-6.635,2.567-8.15,1.598
		c-6.528-4.176-12.099,5.88-5.988,10.246c4.993,3.568,12.005,1.161,17.474,0.251c8.288-1.378,16.921-1.836,25.31-1.349
		c5.464,0.317,10.768,1.653,16.107,2.806c0.959,0.479,2.037,0.728,3.185,0.649c1.818,0.349,3.643,0.659,5.485,0.862
		c1.104,0.122,2.152,0.152,3.162,0.111c2.719,1.407,4.981,3.858,7.743,5.226c0.59,0.293,1.237,0.537,1.907,0.733
		c0.607,3.336,5.449,5.946,8.096,2.748c2.567-3.099,4.481-6.573,7.206-9.546c2.432-2.653,4.88-5.195,5.608-8.849
		C342.858,387.446,335.136,383.254,332.681,388.761z"/>
</g>
<g>
	<path style="fill:#CCCCCC;" d="M321.912,65.482c-10.537-6.633-21.309-5.941-33.194-4.195c-11.669,1.715-23.085,4.495-34.837,5.627
		c-12.212,1.175-23.405-0.919-35.441-2.552c-5.984-0.812-11.955-1.392-17.996-0.953c-4.81,0.35-10.318,2.609-14.745,0.597
		c-1.868-0.849-3.838-1.31-5.752-1.304c-3.447-0.989-6.918-1.87-10.651-1.849c-0.945,0.005-1.897,0.066-2.842,0.181
		c-5.502-3.408-13.31-2.129-16.95,4.024c-0.216,0.365-0.387,0.733-0.572,1.1c-3.486,1.421-6.431,4.331-7.133,7.922
		c-0.809,4.142-0.526,8.268-0.194,12.381c-0.477,2.446-0.871,4.889-1.238,7.199c-1.202,7.56,0.098,13.657,6.545,18.367
		c3.78,2.762,8.378,2.019,11.884-0.404c2.101,1.446,4.59,2.35,7.48,2.435c7.638,0.224,12.239-5.276,13.658-11.876
		c0.784,0.698,1.757,1.272,2.94,1.664c6.123,2.024,13.041,2.651,19.447,3.264c6.379,0.611,11.916,0.065,18.016-1.693
		c3.532-1.017,4.038-4.933,1.987-7.527c-3.86-4.881-9.755-6.207-15.688-6.447c-6.423-0.26-13.414-0.872-19.544-2.898
		c-2.97-0.982-5.419-0.228-7.116,1.378c-0.032-0.587-0.061-1.174-0.122-1.764c-0.017-0.16-0.051-0.518-0.095-0.964
		c0.527,0.292,1.164,0.389,1.86,0.165c0.598-0.193,1.236-0.303,1.89-0.379c0.681,0.121,1.357,0.248,2.057,0.338
		c1.12,0.143,2.215,0.016,3.261-0.299c1.204,0.087,2.384,0.174,3.468,0.163c4.243-0.044,8.023,0.235,12.168,1.053
		c6.806,1.341,13.829,1.431,20.739,1.813c8.82,0.488,17.199,0.272,25.01-2.419c11.18-0.678,22.375-2.381,33.175-5.281
		c11.595-3.113,23.713-6.36,35.782-6.744C324.597,75.433,326.508,68.375,321.912,65.482z"/>
	<path style="fill:#CCCCCC;" d="M225.784,324.614c-6.639-3.1-11.361-1.275-17.532,2.018c-5.959,3.179-11.494,6.498-16.722,10.819
		c-0.289,0.238-0.572,0.487-0.858,0.731c-1.553-0.255-3.173-0.216-4.775,0.211c-7.067,1.882-11.823,8.19-15.179,14.318
		c-3.699,6.753-7.092,13.293-10.149,20.36c-4.77,7.816,4.712,19.517,13.397,13.596c2.19-1.493,3.887-3.278,5.35-5.227
		c3.306,0.248,6.756-0.812,8.969-3.263c3.231-3.579,4.412-7.623,7.626-11.181c3.705-4.105,7.59-8.385,11.837-11.935
		c8.35-6.979,20.26-12.756,21.365-24.643C229.311,328.279,227.73,325.521,225.784,324.614z"/>
</g>
<g>
	<path style="fill:#4D4D4D;" d="M408.485,32.762c-0.844-5.095-0.644-10.498-3.375-15.089c-5.775-9.705-19.377-9.128-29.211-9.98
		c-10.403-0.901-20.373,0.312-30.713,0.184c-2.208-0.027-4.418,0.006-6.63,0.07c-4.66-2.156-9.726-2.329-15.606-2.284
		c-9.659,0.073-19.117,0.56-28.729,1.378c-8.862,0.755-17.315-0.525-26.123-0.639c-9.935-0.131-19.89,0.055-29.823,0.244
		c-8.866,0.17-19.294-1.099-27.878,1.346c-7.889,2.247-16.565,3.112-24.781,3.306c-12.611,0.296-24.693,3.623-36.792,6.875
		c-1.165-0.03-2.331-0.059-3.506-0.057c-12.861,0.015-25.569,0.693-38.408,1.158c-13.492,0.488-15.097,18.507-4.629,22.807
		c0.683,1.441,1.443,2.778,2.253,3.865c3.615,4.854,9.15,5.522,14.789,5.831c12.196,0.67,24.482,2.031,36.615,3.274
		c13.23,1.354,27.219,0.468,40.504,0.098c13.468-0.376,26.852,2.049,40.4,1.927c6.925-0.062,13.893-0.266,20.8,0.329
		c6.276,0.542,12.622,0.216,18.859,0.869c13.067,1.367,26.406-0.853,39.501-1.5c14.209-0.703,28.146-3.318,42.329-3.09
		c7.292,0.117,14.426-1.731,21.797-0.867c6.273,0.736,12.12,2.295,17.804,2.143c4.47-0.118,9.853-3.323,10.678-8.129
		C409.46,41.884,409.301,37.696,408.485,32.762z"/>
	<path style="fill:#4D4D4D;" d="M404.031,467.203c-0.3-9.371-9.62-12.653-16.088-9.076c-0.969-1.093-2.259-1.976-3.909-2.471
		c-10.382-3.119-19.167-1.979-29.814-1.199c-11.019,0.806-21.341-0.87-32.253-1.474c-10.811-0.598-21.747,0.507-32.584,0.185
		c-8.958-0.266-18.068-1.178-26.961-2.303c-9.632-1.219-19.116-1.91-28.739-2.573c-4.559-0.314-8.475-1.737-12.959-2.423
		c-5.631-0.86-11.278-1.352-16.971-1.492c-10.652-0.261-21.006-0.065-31.547,1.343c-9.648,1.288-19.07,1.203-28.656,3.407
		c-11.094,2.551-23.744,4.072-33.993,9.166c-5.444,2.706-8.926,7.59-8.312,13.813c0.224,2.279,1.08,4.403,2.232,6.406
		c-1.228,4.028-0.423,8.466,2.752,11.641c3.19,3.19,7.943,3.258,11.924,4.468c1.923,0.584,3.59,0.777,5.153,0.72
		c3.022,1.403,6.184,2.513,9.471,3.218c5.166,1.106,10.051-0.394,15.166-0.604c3.912-0.161,7.838-0.617,11.749-0.997
		c5.687-0.551,11.59-0.467,17.294-0.087c4.606,0.307,8.672,0.073,13.272-0.224c9.976-0.648,19.994,0.981,29.887,1.087
		c4.773,0.051,9.468,0.937,14.27,0.976c6.097,0.049,12.195-0.021,18.292-0.009c7.569,0.015,15.092,0.515,22.632,0.764
		c1.239,1.12,2.474,2.238,3.91,3.078c3.523,2.06,8.275,1.908,12.237,1.952c6.643,0.072,13.187-0.812,19.791-0.798
		c13.481,0.031,26.807-3.383,40.29-3.253c7.02,0.067,14.087-0.567,21.119-0.758c6.234-0.17,11.926-2.47,18.084-2.639
		c7.743-0.211,16.021-4.47,16.392-13.178C407.403,478.182,404.211,472.827,404.031,467.203z"/>
</g>
<g>
	<path style="fill:#666666;" d="M386.952,17.845c-3.382-2.737-5.782-4.57-10.285-4.759c-4.49-0.188-8.947,0.145-13.447-0.298
		c-9.444-0.93-18.84-1.525-28.283-2.315c-9.913-0.83-19.562,1.097-29.483,1.128c-4.637,0.015-9.322-0.29-13.954-0.121
		c-4.572,0.167-8.954,1.109-13.561,1.121c-10.304,0.028-20.579-0.67-30.892-0.589c-10.573,0.082-21.108,0.869-31.68,1.208
		c-4.348,0.139-8.583,0.228-12.889,0.87c-4.371,0.651-8.831,0.473-13.211,1.225c-5.115,0.878-10.315,1.193-15.411,2.086
		c-3.935,0.689-7.545,2.63-11.252,3.883c-5.681-0.527-11.297-1.59-17.063-2.142c-9.455-0.906-20.154-1.753-29.291,1.009
		c-4.433,1.339-4.396,7.601,0,8.96c0.196,0.061,0.394,0.109,0.59,0.168c-0.556,1.376-0.109,3.22,1.587,3.525
		c3.219,0.579,6.339,1.504,9.632,1.453c4.102-0.065,7.447,0.814,11.489,1.402c7.283,1.059,14.259,0.379,21.447,0.04
		c1.815,0.135,3.632,0.234,5.453,0.25c2.463,0.021,4.915-0.105,7.363-0.27c5.141,0.163,10.274,0.37,15.445-0.024
		c1.642-0.124,3.285-0.2,4.928-0.256c3.7,0.495,7.346,1.298,11.108,1.324c4.601,0.03,9.2-0.667,13.798-0.816
		c3.765-0.122,7.516-0.303,11.258-0.493c7.618-0.226,15.219-0.611,22.834-0.894c7.009-0.07,14.025,0.165,21.081,1.019
		c9.33,1.131,18.916-1.757,28.283-2.071c8.82-0.296,17.492-0.601,26.236-1.874c5.142-0.748,10.398-1.674,15.561-2.206
		c5.069-0.522,10.115,0.25,15.184-0.538c0.085-0.013,0.172-0.029,0.257-0.044c0.464,0.052,0.926,0.088,1.389,0.143
		c6.734,0.803,18.633,2.75,24.534-1.45C388.597,25.443,390.293,20.55,386.952,17.845z"/>
	<path style="fill:#666666;" d="M396.541,459.501c-3.523-4.174-8.001-3.783-12.952-4.333c-4.962-0.551-9.077,0.266-13.977,0.68
		c-5.327,0.449-10.8,0.115-16.144,0.144c-21.701,0.122-43.275-0.671-64.945-0.61c-5.034,0.015-10.231,0.376-15.242-0.078
		c-4.983-0.451-9.93-1.304-14.93-1.59c-4.155-0.237-8.233-1.026-12.409-0.803c-5.499,0.294-11.058,1.187-16.538,1.725
		c-11.677,1.147-23.844,0.316-35.591,0.379c-10.498,0.056-21.066-1.374-31.543-0.378c-5.231,0.498-10.307,1.958-15.486,2.663
		c-4.973,0.676-10.064,0.011-15.04,0.81c-7.128,1.144-18.267,4.088-21.275,11.595c-0.361,0.902,0.244,2.041,1.019,2.502
		c3.256,1.94,4.851,1.659,8.506,1.266c4.318-0.465,8.616,0.174,12.958-0.22c4.228-0.383,8.478,0.209,12.717,0.142
		c5.233-0.083,10.424-1.436,15.646-1.835c9.042-0.689,17.98,1.122,26.988,0.989c10.997-0.161,22.052-0.04,33.049,0.159
		c9.722,0.176,19.654-2.536,29.31-1.598c9.195,0.893,18.517,2.724,27.758,2.714c21.62-0.023,43.086,0.893,64.699,0.964
		c10.256,0.033,21.008,0.969,31.186-0.184c7.955-0.902,19.478,4.298,24.11-4.842C400.215,466.207,398.992,462.406,396.541,459.501z"
		/>
</g>
<path d="M414.771,464.399c-0.385-4.572-2.018-9.583-5.147-13.031c-3.988-4.395-8.853-5.161-14.52-5.152
	c-3.025,0.005-6.052,0-9.077-0.001c0.396-1.167,0.742-2.312,0.987-3.347c0.488-2.066,0.256-4.218,0.673-6.309
	c0.451-2.26,1.364-4.381,1.743-6.667c0.867-5.241,1.325-10.601,2.127-15.873c0.801-5.26-0.817-9.391-1.137-14.506
	c-0.321-5.138-1.258-9.891-2.481-14.923c-1.321-5.43-2.191-11.064-4.221-16.289c-1.746-4.49-4.36-8.483-6.818-12.598
	c-2.54-4.248-5.385-7.899-8.486-11.74c-3.413-4.228-6.171-8.939-9.686-13.098c-6.811-8.06-16.481-15.263-25.969-19.845
	c-10.007-4.833-21.529-6.622-31.092-12.351c-7.799-4.672-7.516-14.141-10.779-21.709c-0.629-1.46-1.915-1.948-3.211-1.801
	c-0.135-3.998,0.354-8.256,0.359-11.877c0.006-4.811,1.124-9.502,1.675-14.274c0.564-4.888,0.822-9.827,1.471-14.706
	c2.95-7.438,2.936-16.449,10.485-20.97c9.563-5.73,21.086-7.518,31.092-12.351c9.488-4.582,19.158-11.785,25.969-19.845
	c3.514-4.159,6.273-8.87,9.686-13.098c3.101-3.841,5.947-7.493,8.486-11.74c2.459-4.113,5.072-8.106,6.818-12.598
	c2.031-5.224,2.901-10.858,4.221-16.289c1.224-5.032,2.16-9.785,2.481-14.923c0.318-5.115,1.937-9.245,1.137-14.506
	c-0.803-5.272-1.26-10.632-2.127-15.873c-0.379-2.287-1.292-4.407-1.743-6.667c-0.417-2.091-0.184-4.243-0.673-6.309
	c-0.245-1.036-0.59-2.18-0.987-3.347c3.025-0.001,6.051-0.006,9.077-0.001c5.668,0.01,10.532-0.756,14.52-5.152
	c3.129-3.447,4.762-8.459,5.147-13.031c0.3-3.574,0.263-6.397,1.103-9.886c0.76-3.16,0.927-5.947,0.237-9.136
	c-2.492-11.495-9.985-17.305-20.845-20.353c-5.598-1.571-11.181-2.37-16.986-2.41c-3.46-0.024-6.231-0.797-9.448-1.932
	c-4.078-1.442-7.414-1.851-11.756-1.901c-7.65-0.088-15.025-1.701-22.784-1.692c-8.384,0.009-16.769-0.05-25.153-0.044
	c-16.82,0.011-33.966-1.086-50.64,1.228c-15.871,2.202-31.946,2.16-47.946,2.64c-7.851,0.235-15.377,0.575-23.096,2.045
	c-1.518,0.289-3.018,0.444-4.514,0.545c-3.444,0.012-6.883,0.128-10.29,0.523c-7.66,0.887-14.923,1.285-22.641,1.098
	c-13.077-0.316-28.973-2.565-41.363,2.534c-4.404,1.813-8.583,4.731-10.88,9.019c-2.792,5.211-1.926,11.397-1.826,17.048
	c0.181,10.149,2.123,19.495,13.287,22.01c3.807,0.858,7.695,1.409,11.613,1.814c-1.383,7.701-2.287,15.496-2.408,23.323
	c-0.156,10.121,1.461,19.738,3.345,29.648c2.004,10.546,5.561,21.154,9.195,31.242c1.555,4.318,3.852,8.224,5.515,12.462
	c1.824,4.649,2.894,8.228,6.303,12.07c12.016,13.537,28.154,24.755,44.971,31.258c9.421,3.643,19.489,5.325,28.769,9.321
	c3.876,1.669,9.033,3.518,12.274,6.26c0.211,0.179,0.4,0.37,0.597,0.557c0.365,5.842,3.5,12.02,5.12,17.33
	c1.198,3.928,2.925,7.794,3.16,11.935c0.262,4.633-0.306,9.382-0.355,14.021c-0.045,4.19,0.29,8.639-0.372,12.78
	c-0.627,3.917-1.775,7.902-2.68,11.765c-0.626,2.67-1.383,5.154-2.373,7.578c-0.949,1.154-1.884,2.335-3.096,3.361
	c-3.241,2.741-8.399,4.59-12.274,6.26c-9.28,3.996-19.347,5.679-28.769,9.321c-16.817,6.503-32.956,17.721-44.971,31.258
	c-3.41,3.841-4.479,7.421-6.303,12.07c-1.661,4.238-3.96,8.144-5.515,12.462c-3.634,10.088-7.191,20.697-9.195,31.242
	c-1.883,9.91-3.501,19.527-3.345,29.648c0.121,7.827,1.025,15.622,2.408,23.323c-3.918,0.405-7.806,0.956-11.613,1.814
	c-11.164,2.515-13.106,11.861-13.287,22.01c-0.1,5.651-0.967,11.835,1.826,17.048c2.297,4.288,6.476,7.207,10.88,9.019
	c12.39,5.099,28.287,2.85,41.363,2.534c7.718-0.187,14.981,0.211,22.641,1.098c3.407,0.395,6.845,0.511,10.29,0.523
	c1.496,0.1,2.996,0.256,4.514,0.545c7.719,1.47,15.245,1.809,23.096,2.044c16,0.479,32.076,0.437,47.946,2.64
	c16.673,2.314,33.821,1.217,50.64,1.228c8.384,0.006,16.769-0.052,25.153-0.044c7.757,0.009,15.134-1.604,22.784-1.692
	c4.342-0.05,7.678-0.459,11.756-1.901c3.216-1.137,5.987-1.909,9.448-1.934c5.804-0.04,11.388-0.839,16.986-2.41
	c10.861-3.047,18.353-8.858,20.845-20.353c0.69-3.189,0.523-5.975-0.237-9.136C415.033,470.796,415.071,467.972,414.771,464.399z
	 M373.202,138.767c-1.469,4.107-3.613,7.898-6.043,11.523c-1.568,0.593-3.297,0.329-4.967,0.74
	c-1.918,0.472-3.615,1.632-5.448,2.313c-4.492,1.67-9.418,1.997-14.245,2.395c0.002-0.004,0.005-0.007,0.007-0.011
	c2.295-4.167,4.478-8.655,6.191-13.092c0.78-2.021-2.174-2.898-3.266-1.377c-2.49,3.466-4.565,6.758-6.529,10.567
	c-0.898,1.742-1.966,3.238-3.135,4.651c-4.159,0.589-8.251,1.317-12.496,1.337c-4.629,0.021-9.26-0.018-13.89-0.037
	c2.714-3.575,5.242-7.285,7.241-11.307c3.484-7.011,6.563-15.445,7.408-23.239c0.216-1.993,0.171-3.99,0.011-5.986
	c6.98-1.502,14.048-2.402,21.209-2.19c1.016,0.031,2.02,0.072,3.014,0.124c-0.271,1.568-0.561,3.079-0.827,4.478
	c-0.489,2.578,3.46,3.682,3.951,1.089c0.316-1.663,0.603-3.434,0.829-5.263c6.436,0.677,12.401,2.313,17.923,6.541
	c2.279,1.744,3.467,5.35,5.729,6.729C375.094,132.133,374.356,135.54,373.202,138.767z M305.939,162.16
	c3.128,0.015,6.263-0.015,9.411-0.021c5.438-0.011,10.748-0.353,16.048-0.858c-0.006,0.006-0.011,0.012-0.017,0.018
	c-5.83,6.262-10.72,14.23-18.152,18.784c-4.146,2.541-10.731,5.065-14.917,1.167c-5.153-4.8,1.633-11.718,4.909-15.743
	C304.126,164.398,305.035,163.282,305.939,162.16z M323.086,100.132c1.703-10.177,12.606-16.171,21.144-8.54
	c5.013,4.479,5.486,11.635,4.762,18.475c-0.55-0.023-1.099-0.045-1.644-0.065c-8.148-0.288-16.06,0.7-23.851,2.397
	C322.961,108.279,322.41,104.178,323.086,100.132z M305.133,157.736c-11.946-0.14-23.119-2.325-34.676-5.387
	c-10.342-2.74-22.051-4.173-31.506-9.357c-5.836-3.2-11.273-6.563-17.067-9.468c0.989,0.212,1.981,0.417,2.969,0.637
	c7.168,1.594,15.212,0.462,22.521,0.728c7.75,0.282,15.48,0.536,23.117-1.059c8.161-1.704,15.874-5.086,23.757-7.713
	c8.77-2.924,17.691-6.01,26.763-8.187C320.541,132.447,313.582,145.829,305.133,157.736z M117.783,51.011
	c-5.159-0.462-10.012-0.576-11.199-6.486c-0.889-4.432-0.584-9.488-0.608-13.99c-0.078-15.58,23.249-12.172,33.657-12.034
	c7.242,0.095,14.593,0.567,21.829,0.195c7.247-0.373,14.273-1.902,21.566-1.943c7.296-0.04,14.74,0.338,22.018-0.15
	c2.473-0.166,4.908-0.503,7.336-0.87c8.146,0.407,16.311,0.872,24.367,0.118c4.096-0.383,8.216-0.91,12.345-1.436
	c2.077,0.255,4.162,0.499,6.24,0.466c3.174-0.05,7.549-1.722,10.33,0.606c2.335,1.955,5.579-0.749,4.345-3.033
	c0.955-0.028,1.91-0.067,2.863-0.067c13.702-0.012,27.402-0.046,41.104-0.074c6.026-0.012,12.052,0.01,18.079-0.002
	c2.974-0.006,5.979-0.163,8.949-0.051c3.396,0.128,6.546,1.13,9.907,1.531c2.837,0.338,5.62-0.043,8.453,0.081
	c2.996,0.129,5.353,1.275,8.134,2.219c5.854,1.988,11.656,1.058,17.636,1.996c8.77,1.376,21.3,4.689,18.673,16.309
	c-0.573,2.535-1.588,4.79-1.803,7.433c-0.2,2.458,0.122,4.843-0.64,7.251c-1.852,5.855-8.26,3.74-13.336,3.767
	c-27.038,0.139-54.076,0.079-81.114,0.1c-13.178,0.01-26.353,0.084-39.53,0.205c-12.679,0.117-25.128,1.99-37.759,2.241
	C204,55.9,178.212,55.865,152.688,53.392c-6.241-0.605-12.445-0.317-18.696-0.57C128.542,52.601,123.207,51.496,117.783,51.011z
	 M147.738,150.574c-1.098-2.297-2.346-4.512-3.355-6.872c-4.19-9.79-7.59-20.782-9.936-31.163
	c-2.114-9.357-3.761-18.874-4.232-28.461c-0.372-7.599-0.542-15.166-1.497-22.683c5.879,0.356,11.771,0.531,17.537,0.914
	c14.769,0.981,29.444,3.068,44.26,3.874c14.744,0.803,29.879,1.52,44.637,0.797c6.912-0.339,13.738-1.508,20.671-1.554
	c7.702-0.051,15.416,0.135,23.118,0.206c30.817,0.287,61.64,0.134,92.457,0.157c2.191,0.001,4.383,0,6.574-0.001
	c0.224,1.633,0.37,3.164,0.483,3.994c0.231,1.663-0.399,3.443-0.395,5.113c0.005,2.206,0.739,4.315,1.084,6.464
	c0.716,4.468,0.466,9.028,1.142,13.543c0.444,2.975,1.193,5.833,0.648,8.848c-0.306,1.691-1.103,3.261-1.361,4.994
	c-0.668,4.484-1.056,8.679-2.008,13.049c-0.475-0.891-0.976-1.752-1.642-2.359c-2.153-1.96-5.217-3.607-7.746-5.065
	c-4.706-2.714-10.114-3.676-15.517-4.091c0.457-10.828-2.198-22.049-14.594-24.376c-5.587-1.049-11.152,0.844-14.443,5.531
	c-4.385,6.243-3.564,12.966-2.83,20.081c0.051,0.493,0.085,0.983,0.121,1.474c-7.583,1.804-15.062,4.224-22.54,6.763
	c-7.701,2.614-15.281,5.694-23.052,8.084c-8.88,2.731-17.65,2.974-26.859,2.711c-8.775-0.251-17.521,0.583-26.141-0.977
	c-4.495-0.814-9.265-1.498-13.958-1.563c-3.294-1.145-6.593-2.276-9.838-3.554c-4.479-1.764-8.734-4.3-13.386-5.6
	c-1.496-0.418-2.978-0.706-4.449-0.889c0.229-0.616,0.432-1.246,0.559-1.918c0.644-3.39-4.37-4.875-5.238-1.444
	c-0.285,1.127-0.8,2.163-1.4,3.168c-1.053,0.055-2.104,0.15-3.153,0.279c0.604-1.818,1.167-3.615,1.965-4.971
	c2.251-3.826,4.883-6.603,5.485-11.172c0.406-3.086-4.549-3.597-5.336-0.722c-0.714,2.604-2.683,4.406-4.315,6.462
	c-1.527,1.921-2.59,4.01-3.599,6.237c-0.749,1.654-1.643,3.665-1.976,5.613c-0.427,0.1-0.853,0.201-1.28,0.305
	c-7.934,1.927-11.091,11.18-13.013,18.229C148.307,141.999,147.61,146.329,147.738,150.574z M144.384,368.303
	c1.491-3.483,3.508-6.648,4.781-10.235c1.735-4.888,3.774-7.412,7.585-10.868c14.275-12.944,28.98-22.462,47.383-28.633
	c8.528-2.859,16.638-6.296,24.512-10.668c0.509-0.283,1.01-0.57,1.508-0.859c0.695,0.222,1.477,0.188,2.152-0.207
	c3.796-2.219,6.306-5.553,8.076-9.354c0.345-0.681,0.654-1.392,0.908-2.151c0.865-2.257,1.525-4.625,2.073-6.987
	c2.06-8.88,3.241-16.894,3.181-26.008c-0.056-8.784,0.955-17.377-2.029-25.794c-1.48-4.174-2.762-8.375-4.392-12.496
	c-0.046-0.117-0.088-0.238-0.133-0.356c1.4-0.767,2.28-2.44,1.962-4.339c-1.294-7.735-6.944-11.706-13.307-15.24
	c-7.874-4.372-15.983-7.808-24.512-10.669c-16.117-5.405-29.399-13.377-42.038-23.969c-2.52-3.172-4.776-6.485-6.557-9.569
	c-4.645-8.043-2.425-19.394,0.76-27.561c1.919-4.92,4.074-7.011,8.084-8.464c0.32,0.473,0.732,0.915,1.281,1.304
	c0.432,0.306,1.103,0.26,1.539,0c1.07-0.634,1.863-1.635,2.511-2.812c0.74-0.182,1.471-0.353,2.192-0.499
	c-0.581,0.915-1.11,1.855-1.483,2.866c-1.224,3.303-2.481,7.697-0.549,10.948c0.584,0.983,1.805,1.027,2.619,0.338
	c2.883-2.445,3.034-6.758,4.249-10.096c0.603-1.654,1.499-3.136,2.347-4.639c0.288,0.013,0.566,0.017,0.861,0.04
	c5.042,0.393,9.203,2.625,13.776,4.588c2.464,1.058,4.975,2.008,7.494,2.935c-0.002,0.215,0.111,0.436,0.337,0.484
	c0.754,0.161,1.508,0.312,2.262,0.47c0.937,0.342,1.875,0.683,2.809,1.028c9.547,3.532,18.157,7.585,26.646,13.183
	c7.51,4.953,15.602,7.114,24.221,9.408c9.716,2.585,19.303,5.685,29.233,7.384c5.064,0.866,10.124,1.188,15.199,1.302
	c-1.513,1.996-3.05,3.949-4.588,5.852c-3.799,4.701-6.639,9.647-1.815,14.978c4.453,4.92,11.28,3.994,16.892,1.746
	c8.838-3.541,14.568-11.451,20.873-18.185c1.916-2.046,3.961-3.961,5.796-6.043c2.624-0.309,5.259-0.639,7.919-0.971
	c4.644-0.578,9.091-1.206,13.35-3.175c1.078-0.499,2.17-0.795,3.255-1.033c-2.063,2.765-4.188,5.472-6.191,8.192
	c-6.401,8.693-12.472,16.19-21.372,22.511c-8.69,6.173-18.48,9.026-28.274,12.905c-7.14,2.828-14.968,6.029-19.271,12.772
	c-2.404,3.768-4.44,8.815-5.073,13.769c-2.091,4.562-3.25,8.877-3.967,13.982c-0.851,6.058-1.986,12.041-2.918,18.076
	c-0.81,5.248-0.375,10.613-0.592,15.902c-0.36,8.776,1.274,14.454,6.8,21.197c1.446,1.764,3.257,3.6,5.287,5.002
	c0.154,0.257,0.306,0.517,0.464,0.764c4.303,6.744,12.132,9.946,19.271,12.772c9.794,3.879,19.584,6.733,28.274,12.905
	c8.9,6.321,14.972,13.819,21.372,22.511c5.725,7.776,12.472,15.434,15.787,24.701c1.655,4.631,2.453,9.633,3.74,14.384
	c0.557,2.057,0.955,4.057,1.282,6.046c-5.265-2.414-10.407-5.131-15.929-6.936c-4.597-1.503-9.299-2.704-13.973-3.989
	c0.645-2.259,1.142-4.555,1.447-6.887c0.738-5.637,0.417-14.082-5.638-16.734c-0.32-0.14-0.642-0.172-0.947-0.14
	c-1.936-4.381-6.117-7.627-10.429-10.16c-0.866-0.509-1.579,0.607-1.011,1.31c3.602,4.453,8.636,9.034,8.181,15.269
	c-0.168,2.296,2.725,2.68,3.878,1.204c1.021,4.72,0.462,9.691-0.883,14.585c-1.142-0.348-2.28-0.704-3.411-1.086
	c-5.553-1.873-10.747-4.65-16.512-5.797c-0.263-1.624-0.561-3.221-0.889-4.767c-1.271-5.981-5.527-21.975,4.127-22.942
	c0.897-0.09,0.939-1.432,0-1.43c-10.7,0.026-9.469,13.324-8.381,20.712c0.389,2.645,0.732,5.242,1.012,7.83
	c-4.877-0.489-9.923-0.398-14.736,0.173c-5.658,0.671-11.371,1.821-16.999,2.784c-7.181,1.227-14.187,2.654-21.414,3.482
	c-5.902,0.676-12.851,3.561-18.224,6.063c-4.199,1.955-8.805,4.148-12.368,7.269c-1.265,0.183-2.496,0.31-3.552,0.477
	c-4.586,0.727-9.03,1.987-13.568,2.945c-9.913,2.091-20.209,4.983-30.309,5.876c-11.113,0.983-21.974-2.173-32.673-4.736
	c-6.043-1.447-13.147-4.636-17.735-9.604C139.274,381.549,141.657,374.67,144.384,368.303z M323.865,381.435
	c5.721,1.438,11.058,4.253,16.745,5.833c0.081,0.022,0.161,0.043,0.242,0.065c-1.561,3.978-3.439,7.805-5.18,11.284
	c-2.64,5.277-6.703,13.074-12.82,14.6c-9.281,2.314-2.023-8.254-0.809-12.005C324.025,395.083,324.385,388.177,323.865,381.435z
	 M130.216,427.927c0.47-9.587,2.118-19.103,4.232-28.461c0.534-2.365,1.131-4.764,1.771-7.17c3.068,3.331,7.163,5.886,11.271,7.65
	c5.475,2.351,11.702,3.384,17.483,4.743c6.735,1.583,13.659,2.853,20.608,2.612c6.168-0.215,12.171-1.635,18.138-3.092
	c6.484-1.582,13.058-2.683,19.529-4.307c4.401-1.105,15.567-1.663,19.946-5.954c3.056-0.866,6.229-1.544,8.803-2.407
	c6.104-2.046,11.816-4.151,18.23-4.638c6.302-0.478,12.62-2.114,18.856-3.168c2.852-0.482,5.763-0.449,8.588-1.064
	c3.036-0.66,5.712-1.658,8.848-1.946c4.187-0.383,8.647-0.584,12.911-0.099c0.159,3.23,0.168,6.487-0.05,9.836
	c-0.37,5.683-1.522,10.164-4.362,15.03c-1.219,2.087-2.846,4.655-2.02,7.179c1.371,4.185,7.701,7.073,11.645,5.43
	c6.378-2.657,11.577-10.386,14.889-16.037c2.482-4.234,4.84-8.675,6.704-13.292c4.822,1.259,9.663,2.482,14.41,3.957
	c6.193,1.924,11.577,4.93,18.182,5.038c0.24,1.803,0.47,3.621,0.748,5.491c0.259,1.733,1.055,3.303,1.361,4.994
	c0.545,3.014-0.204,5.871-0.648,8.848c-0.675,4.515-0.426,9.076-1.142,13.543c-0.344,2.149-1.08,4.259-1.084,6.464
	c-0.004,1.67,0.626,3.45,0.395,5.113c-0.115,0.83-0.26,2.359-0.483,3.993c-2.191-0.001-4.383-0.002-6.574-0.001
	c-30.817,0.023-61.641-0.128-92.457,0.157c-7.702,0.072-15.416,0.257-23.118,0.206c-6.933-0.045-13.759-1.215-20.671-1.554
	c-14.759-0.723-29.893-0.006-44.637,0.797c-14.816,0.806-29.491,2.895-44.26,3.874c-5.766,0.383-11.658,0.557-17.537,0.914
	C129.674,443.091,129.844,435.526,130.216,427.927z M385.133,493.921c-5.979,0.938-11.782,0.009-17.636,1.996
	c-2.781,0.944-5.138,2.09-8.134,2.219c-2.834,0.122-5.615-0.259-8.453,0.081c-3.361,0.4-6.511,1.403-9.907,1.531
	c-2.97,0.111-5.975-0.045-8.949-0.051c-6.026-0.012-12.052,0.01-18.079-0.002c-13.702-0.028-27.402-0.062-41.104-0.074
	c-0.953-0.001-1.908-0.039-2.863-0.067c1.233-2.282-2.01-4.988-4.345-3.033c-2.78,2.329-7.156,0.656-10.33,0.606
	c-2.079-0.033-4.162,0.211-6.24,0.466c-4.129-0.526-8.249-1.053-12.345-1.436c-8.056-0.754-16.22-0.289-24.367,0.118
	c-2.429-0.367-4.864-0.703-7.336-0.869c-7.278-0.489-14.722-0.11-22.018-0.15c-7.294-0.04-14.319-1.569-21.566-1.943
	c-7.235-0.373-14.586,0.099-21.829,0.195c-10.408,0.138-33.735,3.546-33.657-12.034c0.022-4.501-0.282-9.558,0.608-13.99
	c1.187-5.91,6.04-6.023,11.199-6.486c5.425-0.487,10.761-1.591,16.21-1.81c6.249-0.253,12.454,0.035,18.696-0.57
	c25.525-2.473,51.312-2.508,76.937-1.999c12.631,0.25,25.08,2.124,37.759,2.24c13.177,0.122,26.352,0.195,39.53,0.205
	c27.038,0.021,54.076-0.039,81.114,0.1c5.076,0.026,11.484-2.088,13.336,3.767c0.761,2.409,0.44,4.793,0.64,7.251
	c0.215,2.642,1.23,4.898,1.803,7.433C406.433,489.232,393.904,492.544,385.133,493.921z"/>
<path d="M201.279,399.027c2.558-2.626,6.763-3.325,9.47-6.171c2.833-2.979,5.124-6.434,7.901-9.466
	c2.212-2.414,3.472-5.386,5.213-8.143c2.829-4.483,6.204-8.56,8.364-13.439c3.835-8.666,6.23-18.55,8.317-27.763
	c2.157-9.525,4.567-19.833,4.628-29.637c0.005-0.869-1.267-0.845-1.335,0c-0.792,9.932-4.045,20.284-6.978,29.785
	c-2.846,9.216-5.941,19.301-10.9,27.612c-4.061,6.806-8.736,13.732-13.525,20.009c-2.207,2.892-3.799,6.134-6.101,8.969
	c-2.023,2.491-5.17,4.199-6.59,7.064C199.27,398.798,200.468,399.859,201.279,399.027z"/>
<path d="M271.008,321.664c0.488,8.215,2.49,15.843,6.209,23.188c5.982,11.813,17.022,27.329,31.941,26.928
	c1.38-0.037,2.184-2.137,0.758-2.797c-13.226-6.116-22.217-15.284-28.886-28.261c-3.761-7.316-5.923-14.787-6.637-22.994
	c-0.32-3.678-0.071-7.382-0.409-11.048c-0.375-4.055-1.476-7.927-1.664-12.034c-0.057-1.249-1.965-1.265-1.954,0
	c0.044,4.665,1.158,9.214,1.022,13.863C271.26,312.921,270.744,317.233,271.008,321.664z"/>
<path d="M220.018,353.947c0.426,0.638,1.35,1.195,2.148,0.875c4.005-1.609,7.851-4.948,4.965-9.482
	c-0.536-0.843-1.613-0.577-1.959,0.256c-0.467,1.124-0.783,2.651-1.515,3.633c-0.44,0.59-1.091,1.041-1.759,1.437
	c-0.305-0.21-0.623-0.403-0.983-0.547c-0.628-0.253-1.305-0.24-1.738-0.739c-0.52-0.597-0.406-2.447-0.425-3.228
	c-0.033-1.458,0.028-2.894,1.559-3.582c0.445-0.2,0.109-0.817-0.312-0.74c-2.927,0.54-3.485,3.734-3.599,6.262
	c-0.06,1.339,0.028,2.809,0.969,3.857C218.126,352.794,219.385,352.997,220.018,353.947z"/>
<path d="M222.154,332.666c0.105,0.039,0.21,0.068,0.314,0.102c0.625,0.398,1.46,0.421,2.176,0.324
	c0.544-0.073,1.082-0.329,1.466-0.727c0.464-0.479,0.557-1.097,0.572-1.737c0.015-0.627-0.355-1.267-0.903-1.574
	c-0.271-0.151-0.6-0.289-0.92-0.249c-0.626,0.079-1.064,0.307-1.391,0.714c-0.094,0.048-0.324,0.166-0.157,0.096
	c-0.177,0.073-0.344,0.134-0.506,0.2c-0.744-0.059-1.468,0.24-1.685,1.032C220.892,331.68,221.405,332.382,222.154,332.666z"/>
<path d="M169.584,363.577c4.222,0.64,8.784-4.233,12.644-5.875c1.577-0.671,3.068-1.249,4.551-2.09
	c0.717-0.406,1.404-0.872,2.147-1.233c0.379-0.211,0.771-0.398,1.174-0.562c0.128-0.015,0.237-0.032,0.329-0.051
	c1.369,1.337,3.921,0.222,4.001-1.786c0.261-6.524-7.699-3.218-10.798-1.749c-4.41,2.092-16.117,5.093-15.449,11.508
	C168.264,362.497,168.716,363.445,169.584,363.577z"/>
<path d="M165.691,380.806c2.991-2.31,5.844-4.292,9.075-6.268c3.802-2.325,7.081-5.165,11.128-7.145
	c2.318-1.133,0.665-5.206-1.78-4.224c-4.711,1.892-8.67,4.847-13.197,7.038c-3.776,1.827-7.557,3.469-8.964,7.726
	C161.307,379.891,163.91,382.182,165.691,380.806z"/>
<path d="M158.306,392.395c3.345,1.783,6.041-2.068,8.648-3.567c3.103-1.785,6.537-2.578,8.903-5.464
	c2.419-2.952-1.826-7.194-4.212-4.212c-2.041,2.551-5.298,3.166-7.978,4.826c-2.186,1.354-5.381,4.065-6.093,6.614
	C157.389,391.25,157.688,392.066,158.306,392.395z"/>
<path d="M149.796,424.543c1.871,0.548,4.417,0.145,5.315-1.803c0.346-0.753,0.39-1.504,0.098-2.191
	c0.958-0.822,2.215-1.51,3.02-2.03c1.741-1.125,3.403-2.53,4.906-3.961c1.799-1.713-0.608-5.02-2.714-3.518
	c-3.945,2.814-10.359,3.811-12.653,8.517C146.806,421.53,147.573,423.893,149.796,424.543z"/>
<path d="M160.817,425.659c-2.787,2.637-9.69,6.661-6.908,11.395c0.376,0.639,1.281,1.086,2.018,0.821
	c1.953-0.7,3.188-2.29,4.506-3.817c1.353-1.566,2.862-2.997,4.292-4.49C167.191,426.992,163.404,423.211,160.817,425.659z"/>
<path d="M165.508,107.08c2.253-2.425,3.61-6.224,4.527-9.374c0.465-1.594,0.614-3.24,1.163-4.809
	c0.489-1.399,0.967-2.521,1.26-3.818c1.559-1.193,1.283-4.139-1.148-4.029c-0.328,0.015-0.655,0.029-0.983,0.044
	c-0.764,0.034-1.727,0.411-2.054,1.178c-1.43,3.355-2.978,6.334-4.155,9.802c-1.116,3.29-3.551,6.478-2.193,10.059
	C162.464,107.557,164.32,108.357,165.508,107.08z"/>
<path d="M188.292,130.535c-0.476-2.673-5.01-2.087-4.773,0.647c0.084,0.976-1.864,1.952-2.406,2.834
	c-0.839,1.367-0.989,3.011-1.776,4.405c-1.724,3.058-4.17,5.775-3.205,9.519c0.198,0.764,0.917,1.604,1.735,1.735
	c1.636,0.261,2.462-0.509,3.181-1.952c1.138-2.281,2.43-4.456,3.599-6.728c0.461-0.897,0.731-1.785,1.022-2.744
	c0.384-1.263,0.751-1.655,1.464-2.674C188.358,133.824,188.677,132.692,188.292,130.535z"/>
<path d="M195.691,140.103c-2.145-1.472-4.183,1.309-3.26,3.26c0.05,0.104-2.582,3.783-2.845,4.426
	c-0.88,2.145-1.566,4.189-1.666,6.447c-1.015,1.169-0.281,2.974,1.113,3.435c0.283,0.094,0.566,0.187,0.849,0.281
	c1,0.331,2.58-0.196,3.022-1.23c1.305-3.057,2.058-6.28,3.583-9.211C197.848,144.891,198.442,141.991,195.691,140.103z"/>
<path d="M209.18,162.451c-0.534-2.332-1.314-4.592-3.113-6.251c-2.435-2.246-5.916,1.219-3.639,3.639
	c1.581,1.681,1.211,4.446,1.786,6.534c0.607,2.202,2.079,4.134,4.143,5.163c1.358,0.677,2.826-0.699,2.086-2.086
	C209.41,167.51,209.68,164.63,209.18,162.451z"/>
<path d="M149.977,469.369c-1.702,0.301-1.896,1.929-1.25,3.134c-0.02,0.026-0.04,0.056-0.059,0.081
	c-0.69,0.892-1.074,1.736-1.315,2.855c-0.489,2.274-0.394,5.158,0.69,7.241c0.662,1.27,2.259,1.77,3.58,1.457
	c0.149-0.035,0.299-0.071,0.448-0.106c1.98-0.47,2.445-2.392,1.81-3.94c-0.118-1.103-0.349-2.202-0.4-3.313
	c-0.011-0.224,0.032-1.469-0.082-1.032c0.052-0.205,0.578-1.192,0.723-1.574C155.282,471.118,153.096,468.816,149.977,469.369z"/>
<path d="M165.472,480.223c-0.046-0.084-0.368-0.559-0.407-0.584c-0.051-0.192-0.368-1.479-0.367-1.476
	c-0.113-0.748-0.157-1.516-0.242-2.27c-0.116-1.041-0.372-1.829-0.514-2.584c-0.449-2.398-4.278-2.33-4.778,0
	c-0.043,0.195-0.089,0.388-0.134,0.582c-1.005,1.885-1.008,4.732-0.605,6.641c0.627,2.969,2.809,5.008,5.915,4.378
	c1.557-0.316,2.464-2.481,1.546-3.798C166.19,481.553,165.62,480.486,165.472,480.223z"/>
<path d="M176.539,472.749c-0.195-3.616-5.27-3.555-5.575,0c-0.232,2.709-2.295,4.864-1.465,7.74c0.634,2.201,3.568,4.5,5.832,2.895
	c0.912-0.648,1.222-1.488,1.047-2.572c0.22,1.355,0.115,0.411,0.107-0.028c-0.005-0.362-0.095-0.736-0.181-1.083
	c-0.106-0.423-0.362-0.693-0.673-0.84c0-0.209-0.01-0.448-0.01-0.444c0.028-0.226,0.105-0.457,0.161-0.681
	C176.193,476.078,176.631,474.476,176.539,472.749z"/>
<path d="M188.389,470.867c-1.858-0.21-2.328,2.206-1.204,3.281c-0.134,0.747-0.298,1.48-0.644,2.236
	c-0.792,1.727-1.327,3.156-0.793,5.087c0.59,2.135,3.978,2.862,5.025,0.656c0.9-1.897,1.497-4.459,1.414-6.584
	c-0.039-0.997-0.243-2.279-0.731-3.148C190.743,471.127,189.72,471.017,188.389,470.867z"/>
<path d="M207.283,472.797c-0.618-0.095-1.198-0.115-1.815-0.133c-1.791-0.052-2.826,1.858-2.395,3.346
	c-0.317,0.79-0.509,1.625-0.493,2.497c0.032,1.652,0.425,3.528,1.901,4.468c0.55,0.351,1.425,0.377,1.973,0
	c1.158-0.799,1.57-2.063,1.829-3.364c0.127-0.637,0.243-1.277,0.373-1.912c-0.067,0.324,0.038-0.065,0.068-0.168
	c0.062-0.218,0.122-0.456,0.216-0.662C209.595,475.432,209.218,473.095,207.283,472.797z"/>
<path d="M277.765,476.409c-0.244-3.564-5.246-3.546-5.527,0c-0.287,3.605-0.981,7.471,1.222,10.631
	c1.925,2.763,5.768,1.005,5.261-2.218C278.278,481.998,277.96,479.263,277.765,476.409z"/>
<path d="M283.936,477.629c-0.199,3.413-2.972,7.43-0.862,10.745c0.732,1.15,2.071,1.194,3.068,0.395
	c1.358-1.087,2.381-3.185,3.095-4.753c0.91-2.001,1.302-4.194,1.228-6.389C290.322,473.409,284.179,473.444,283.936,477.629z"/>
<path d="M142.996,46.795c0.356-1.865-0.04-3.4-0.4-5.232c-0.437-2.23-0.446-4.489-0.429-6.753c0.026-3.312-5.121-3.316-5.147,0
	c-0.033,4.242,0.534,7.941,1.741,11.985C139.343,48.744,142.57,49.024,142.996,46.795z"/>
<path d="M149.629,40.889c1.025,3.092,4.761,5.277,6.996,1.926c0.401-0.601,0.126-1.516-0.487-1.858
	c-0.448-0.25-0.769-0.644-0.127,0.079c-0.365-0.412-0.636-0.699-1.134-0.971c-0.017-0.009-0.248-0.14-0.379-0.206
	c-0.09-0.099-0.243-0.251-0.254-0.268c-0.366-0.561-1.013-1.514-1.427-2.32c-0.806-1.561-1.454-3.779-3.253-4.439
	c-0.699-0.256-1.163,0.595-0.888,1.155C149.699,36.078,148.907,38.713,149.629,40.889z"/>
<path d="M162.944,39.394c-0.111,1.604,0.316,3.001,1.51,4.109c1.843,1.709,5.332-0.61,3.671-2.833
	c-0.821-1.098-0.714-2.146-0.971-3.43c-0.278-1.391-0.849-2.717-1.931-3.658c-1.672-1.455-4.071,0.869-2.461,2.459
	C163.692,36.96,163.025,38.217,162.944,39.394z"/>
<path d="M175.452,41.297c0.262,1.003,1.178,1.582,2.162,1.646c0.224,0.018,0.451,0.029,0.677,0.033
	c0.759,0.023,1.455-0.428,1.843-1.058c0.667-1.083,0.237-1.975-0.532-2.607c-0.383-1.707-1.078-3.324-1.483-5.033
	c-0.509-2.147-4.166-1.747-3.932,0.532C174.415,37.008,174.893,39.164,175.452,41.297z"/>
<g>
</g>
<g>
</g>
<g>
</g>
<g>
</g>
<g>
</g>
<g>
</g>
<g>
</g>
<g>
</g>
<g>
</g>
<g>
</g>
<g>
</g>
<g>
</g>
<g>
</g>
<g>
</g>
<g>
</g>
</svg>
