<svg height="512" viewBox="0 0 60 60" width="512" xmlns="http://www.w3.org/2000/svg"><g id="011---Lion" fill="none"><path id="Path" d="m37.939 53.845c-.226294-.00001-.4243705-.1520058-.4829405-.3705888-.0585699-.2185831.0369699-.4492542.2329405-.5624112l11.829-6.829c.2374252-.1242009.5305531-.0391619.6646466.1928199.1340935.2319817.0614797.5284321-.1646466.6721801l-11.829 6.829c-.0759114.0442382-.1621395.0676923-.25.068z" fill="#ac682e"/><path id="Path" d="m29.509 59.274c-.2206812.000052-.4152989-.1445779-.4789014-.355895s.0188533-.439341.2029014-.561105l8.267-5.457-8.848 5.108c-.2343611.1288923-.5286543.0505227-.6678755-.1778537-.1392213-.2283764-.0740613-.5258734.1478755-.6751463l7.515-4.841-8.023 4.632c-.234023.1252853-.5251579.0458598-.6631351-.1809119-.1379772-.2267718-.0746978-.5218373.1441351-.6720881l8.17-5.222-8.8 5.082c-.2356087.1297647-.5316571.04988-.6700067-.1807924-.1383496-.2306723-.0694166-.5294607.1560067-.6762076l1.049-.65-1.529.882c-.2356087.1297647-.5316571.04988-.6700067-.1807924-.1383496-.2306723-.0694166-.5294607.1560067-.6762076l4.317-2.686-4.984 2.874c-.234481.1270728-.5274228.0477401-.6657366-.1802909-.1383139-.2280309-.0733058-.5244809.1477366-.6737091l11.71-7.435-12.956 7.482c-.2354116.1379583-.5379577.061708-.6798637-.1713453-.1419059-.2330532-.070765-.5368414.1598637-.6826547l16.33-10.498-18.08 10.44c-.2356087.1297647-.5316571.04988-.6700067-.1807924-.1383496-.2306723-.0694166-.5294607.1560067-.6762076l10.528-6.546-11.644 6.723c-.2374824.1411087-.5443912.0629824-.6855-.1745-.1411087-.2374824-.0629824-.5443912.1745-.6855l4.088-2.5-4.84 2.8c-.2349709.1292146-.5300387.050062-.6687925-.179405-.1387537-.2294671-.0717837-.5275361.1517925-.675595l17.944-11.314-19.384 11.19c-.236654.1424895-.5440105.066154-.6865-.1705s-.066154-.5440105.1705-.6865l18.381-11.518-19.561 11.294c-.2372063.1413849-.5441151.0637063-.6855-.1735s-.0637063-.5441151.1735-.6855l11.3-6.93-12.008 6.934c-.2356087.1297647-.5316571.04988-.6700067-.1807924-.1383496-.2306723-.0694166-.5294607.1560067-.6762076l17.945-11.141-18.791 10.849c-.2377586.1405565-.5444435.0617586-.685-.176-.1405564-.2377586-.0617586-.5444435.176-.685l3.217-1.944-3.47 2c-.2369888.1350471-.53848394.055235-.67761558-.1793791-.13913163-.2346142-.06455352-.5374465.16761558-.6806209l7.862-4.771-8.185 4.725c-.23617349.1361818-.537908.0580681-.67833183-.1756081-.14042384-.2336761-.06777083-.5367718.16333183-.6813919l22.884-14.331-23.537 13.589c-.23571786.1278172-.53029699.0469384-.66770199-.1833224-.13740501-.2302607-.06871185-.5279174.15570199-.6746776l16.935-10.427-17.262 9.967c-.23775858.1408326-.54466737.0622586-.68549998-.1755s-.06225859-.5446674.17549998-.6855l8.891-5.4-8.949 5.168c-.23571786.1278172-.53029699.0469384-.66770199-.1833224-.13740501-.2302607-.06871185-.5279174.15570199-.6746776l16.2-9.952-16.358 9.446c-.23701856.1320316-.53608427.0509486-.6739531-.1827228-.13786884-.2336714-.06422739-.5346559.1659531-.6782772l4.708-2.845-4.6 2.655c-.23628449.1306359-.5336041.0500916-.67163931-.181948s-.06692381-.5317553.16063931-.677052l13.279-8.114-13.255 7.653c-.23748244.1411087-.54439124.0629824-.68549999-.1745-.14110876-.2374824-.06298245-.5443912.17449999-.6855l11.58-7.056-11.462 6.617c-.23698876.1350471-.53848394.055235-.67761558-.1793791-.13913163-.2346142-.06455352-.5374465.16761558-.6806209l9.952-6.051-9.762 5.636c-.23571786.1278172-.53029699.0469384-.66770199-.1833224-.13740501-.2302607-.06871185-.5279174.15570199-.6746776l18.326-11.32-18.234 10.525c-.23473446.1238045-.5252986.0426548-.6619149-.1848618-.13661629-.2275167-.07168534-.5221296.1479149-.6711382l21.173-13.21-20.96 12.1c-.23560872.1297647-.5316571.04988-.67000668-.1807924-.13834959-.2306723-.06941665-.5294607.15600668-.6762076l19.305-12.02-19.07 11.012c-.23473446.1238045-.5252986.0426548-.6619149-.1848618-.13661629-.2275167-.07168534-.5221296.1479149-.6711382l18.567-11.589-18.231 10.523c-.23520866.125628-.52761522.0445694-.66457305-.1842276-.13695782-.228797-.07026696-.5248112.15157305-.6727724l14.026-8.68-13.628 7.869c-.23638246.1285498-.53210687.0469768-.6691568-.184581-.13704993-.2315579-.06627089-.5300498.1601568-.675419l1.702-1.032-1.271.733c-.23617349.1361818-.537908.0580681-.67833183-.1756081-.14042384-.2336761-.06777083-.5367718.16333183-.6813919l12.4-7.709-11.898 6.866c-.23748244.1411088-.54439125.0629824-.6855-.1745s-.06298244-.5443912.1745-.6855l3.044-1.863-2.487 1.436c-.15344557.0916386-.34412375.094454-.50020791.0073855-.15608416-.0870684-.25386141-.2507929-.2565-.4295s.09026234-.3452469.24370791-.4368855l4.559-2.816-3.952 2.281c-.23477127.1336383-.53323995.0566316-.67405087-.1739091-.14081092-.2305408-.07304023-.5312411.15305087-.6790909l8.4-5.4-7.671 4.424c-.23436107.1288923-.5286543.0505227-.66787555-.1778537-.13922124-.2283764-.07406124-.5258734.14787555-.6751463l6.356-4.085-5.214 3.012c-.23436107.1288923-.5286543.0505227-.66787555-.1778537-.13922124-.2283764-.07406124-.5258734.14787555-.6751463l4.21-2.7-2.968 1.716c-.23308287.1306613-.52770735.0549657-.66894229-.1718661-.14123493-.2268319-.07915925-.5246238.14094229-.6761339l7.02-4.686-5.586 3.225c-.23470287.1405531-.53878699.0663884-.6824238-.1664401-.14363681-.2328284-.07348967-.5378644.1574238-.6845599l2.562-1.679-1.351.778c-.23041837.1322364-.52401892.0611893-.66848638-.1617642-.14446747-.2229535-.0893536-.5199576.12548638-.6762358l5.676-4.1-4.133 2.39c-.22346694.12872313-.50817637.06636914-.65738482-.14397333-.14920846-.21034247-.11396118-.49966082.08138482-.66802667l3.576-3.072c-.2097817.03922274-.421665-.05712423-.53-.241-.13806467-.23914015-.0561341-.54492481.183-.683l4.36-2.517c.2231941-.12824745.5072862-.06607757.6565145.14366969s.1148202.49851967-.0795145.66733031l-3.464 2.98 8.038-4.642c.2304184-.13223644.5240189-.06118928.6684864.16176419.1444674.22295348.0893536.51995759-.1254864.67623581l-5.677 4.097 8.048-4.65c.2347029-.14055309.538787-.06638835.6824238.16644007.1436368.23282843.0734897.5378644-.1574238.68455993l-2.568 1.687 3.718-2.146c.2335451-.1328438.5303244-.05736382.6720248.17091629s.0776546.52773513-.1450248.67808371l-7.012 4.678 8.268-4.773c.2343611-.12889229.5286543-.05052268.6678755.17785371.1392213.22837639.0740613.52587341-.1478755.67514629l-4.211 2.701 4.87-2.812c.2354116-.13795832.5379577-.06170795.6798637.17134529.1419059.23305325.070765.53684142-.1598637.68265471l-6.359 4.083 7.347-4.242c.2354116-.13795832.5379577-.06170795.6798637.17134529.1419059.23305325.070765.53684142-.1598637.68265471l-8.394 5.4 14.926-8.617c.2372063-.14166103.544339-.06420629.686.17300001.141661.23720629.0642063.54433895-.173.68599999l-4.574 2.826 7.164-4.136c.2358358-.12604535.529101-.04422219.6656159.18571176.1365149.22993394.0679517.52657952-.1556159.67328824l-3.074 1.882 4.7-2.716c.2369302-.14193718.5440628-.06493016.686.172s.0649302.54406282-.172.686l-12.382 7.7 14.191-8.189c.2363825-.12854979.5321069-.0469768.6691568.18458103.1370499.23155784.0662709.53004973-.1601568.67541897l-1.711 1.038 2.633-1.52c.2362075-.13307102.5354329-.05365088.6745599.17904108.1391271.23269196.0674613.53386873-.1615599.67895892l-14.02 8.676 15.183-8.765c.2350866-.12734701.5287583-.04721993.6665908.18187644.1378325.22909636.071048.52608673-.1515908.67412356l-18.577 11.591 19.773-11.415c.2369302-.14221331.5442867-.06543014.6865.17150001s.0654301.54428666-.1715.68649999l-19.3 12.013 20.296-11.713c.2356087-.12976469.5316571-.04987998.6700067.18079237.1383496.23067236.0694166.52946069-.1560067.67620763l-21.174 13.209 22-12.7c.2362075-.13307102.5354329-.05365088.6745599.17904108.1391271.23269196.0674613.53386873-.1615599.67895892l-18.326 11.319 18.771-10.838c.2369888-.13504713.5384839-.05523499.6776156.17937913.1391316.23461413.0645535.53744647-.1676156.68062087l-9.974 6.065 9.933-5.73c.2358358-.12604535.529101-.04422219.6656159.18571176.1365149.22993394.0679517.52657952-.1556159.67328824l-11.56 7.041 11.539-6.662c.2362845-.13063592.5336041-.05009165.6716393.18194798.1380352.23203962.0669238.53175532-.1606393.67705202l-13.285 8.117 13.288-7.671c.2363825-.1285498.5321069-.0469768.6691568.184581.1370499.2315579.0662709.5300498-.1601568.675419l-4.69 2.833 4.592-2.65c.2357179-.1278172.530297-.0469384.667702.1833224.137405.2302607.0687118.5279174-.155702.6746776l-16.19 9.945 16.24-9.376c.2377586-.1408326.5446674-.0622586.6855.1755s.0622586.5446674-.1755.6855l-8.919 5.413 8.861-5.115c.2357179-.1278172.530297-.0469384.667702.1833224.137405.2302607.0687118.5279174-.155702.6746776l-16.935 10.429 17.006-9.819c.1530883-.0921745.3437223-.0956757.5000919-.0091846s.2547187.2498344.258.4285c.0032813.1786657-.0890036.3455101-.2420919.4376846l-22.893 14.336 23.106-13.34c.2369888-.1350471.5384839-.055235.6776156.1793791.1391316.2346142.0645535.5374465-.1676156.6806209l-7.839 4.76 7.483-4.319c.2363825-.1285498.5321069-.0469768.6691568.184581.1370499.2315579.0662709.5300498-.1601568.675419l-3.213 1.946 2.837-1.637c.2352087-.125628.5276152-.0445694.664573.1842276.1369579.228797.070267.5248112-.151573.6727724l-17.95 11.139 17.537-10.125c.2357179-.1278172.530297-.0469384.667702.1833224.137405.2302607.0687118.5279174-.155702.6746776l-11.311 6.937 10.854-6.266c.2361735-.1361818.537908-.0580681.6783318.1756081.1404239.2336761.0677709.5367718-.1633318.6813919l-18.373 11.512 17.726-10.232c.2349709-.1292146.5300387-.050062.6687925.179405.1387537.2294671.0717837.5275361-.1517925.675595l-17.946 11.312 17.278-9.975c.2369888-.1350471.5384839-.055235.6776156.1793791.1391316.2346142.0645535.5374465-.1676156.6806209l-4.088 2.5 3.433-1.983c.2369302-.1419372.5440628-.0649302.686.172s.0649302.5440628-.172.686l-10.522 6.541 9.737-5.622c.2354116-.1379583.5379577-.061708.6798637.1713453.1419059.2330532.070765.5368414-.1598637.6826547l-16.336 10.5 15.381-8.88c.2354379-.13455.5352149-.0569022.6757281.1750261.1405133.2319283.0705395.5335888-.1577281.6799739l-11.709 7.433 10.655-6.151c.2356087-.1297647.5316571-.04988.6700067.1807924.1383496.2306723.0694166.5294607-.1560067.6762076l-4.316 2.686 3.319-1.915c.2352087-.125628.5276152-.0445694.664573.1842276.1369579.228797.070267.5248112-.151573.6727724l-1.056.655c.237442-.1167879.5247641-.0283577.6554472.2017293.130683.230087.0594726.5221538-.1624472.6662707l-8.167 5.219 6.631-3.828c.2343611-.1288923.5286543-.0505227.6678755.1778537.1392213.2283764.0740613.5258734-.1478755.6751463l-7.523 4.846 5.5-3.173c.2327769-.1270897.524286-.0503218.6642741.174934.139988.2252559.0797468.5206233-.1372741.673066l-19.9 13.135c-.029433.1391239-.1167128.2591337-.24.33l-2.1 1.212c-.0761907.044327-.1628542.0674603-.251.067z" fill="#ac682e"/><path id="Path" d="m22.205 41.47c-.2227823.0001822-.4188095-.1470511-.4807165-.3610592-.0619071-.2140082.0252425-.4431572.2137165-.5619408l1.939-1.222-3.597 2.075c-.2342478.1308833-.5300435.0535271-.6702262-.1752769s-.074765-.527467.1482262-.6767231l8.8-5.69-11.329 6.542c-.2347713.1336383-.5332399.0566316-.6740509-.1739091-.1408109-.2305408-.0730402-.5312411.1530509-.6790909l10.6-6.819-12.62 7.288c-.2347034.1364868-.5354374.0607325-.6774741-.1706544-.1420368-.2313868-.073465-.5338394.1544741-.6813456l14.675-9.564-16.256 9.384c-.2356087.1297647-.5316571.04988-.6700067-.1807924-.1383496-.2306723-.0694166-.5294607.1560067-.6762076l6.388-3.976-6.928 4c-.2352087.125628-.5276152.0445694-.664573-.1842276-.1369579-.228797-.070267-.5248112.151573-.6727724l5.421-3.358-5.713 3.3c-.2348642.1312813-.531504.0531604-.6712412-.1767732-.13973716-.2299337-.07245763-.5292187.1522412-.6772268l13.9-8.855-14.222 8.205c-.23436107.1288923-.5286543.0505227-.66787555-.1778537-.13922124-.2283764-.07406124-.5258734.14787555-.6751463l15.478-9.921-15.455 8.923c-.23477127.1336383-.53323995.0566316-.67405087-.1739091-.14081092-.2305408-.07304023-.5312411.15305087-.6790909l16.62-10.723-16.071 9.278c-.23448097.1270728-.52742279.0477401-.66573664-.1802909-.13831386-.2280309-.07330581-.5244809.14773664-.6737091l12.818-8.136-11.343 6.548c-.2361017.1433179-.54368209.0681017-.68699998-.168s-.06810174-.5436821.16799998-.687l11.875-7.579-7.741 4.469c-.2361735.1361818-.537908.0580681-.6783318-.1756081-.1404239-.2336761-.0677709-.5367718.1633318-.6813919l2.147-1.343-.753.434c-.2342478.1308833-.5300435.0535271-.6702262-.1752769s-.074765-.527467.1482262-.6767231l6.619-4.285-5.584 3.227c-.2324067.1328499-.5282158.0590851-.6710333-.1673329s-.0819688-.5251514.1380333-.6776671l4.175-2.872-3.232 1.867c-.2328603.1351428-.5309189.0616362-.6742423-.1662803-.1433233-.2279164-.080443-.5283964.1422423-.6797197l1.471-1-.606.35c-.2296891.1296297-.5205695.0585592-.6646041-.1623819s-.0916869-.5157667.1196041-.6736181l2.9-2.124-1.954 1.128c-.2240205.1297641-.5100442.0670649-.6592395-.1445117s-.1122125-.502047.0852395-.6694883l4.2-3.583-3.043 1.756c-.2268147.12995-.5154475.0632557-.6622581-.1530278-.1468106-.2162836-.1022433-.50915.1022581-.6719722l1.018-.806-.04.023c-.220439.1262233-.5004889.0670999-.6510942-.1374575-.1506054-.2045574-.1238973-.4895314.0620942-.6625425l1.2-1.1c-.1587886-.0864926-.2585078-.251977-.2607886-.4327796-.0022807-.1808027.0932323-.3487498.2497886-.4392204l2.632-1.52c.2203354-.12444915.4989119-.06466237.6487785.13923777s.1237692.48762234-.0607785.66076223l-.384.354 2.04-1.185c.2268147-.12994997.5154475-.06325566.6622581.15302785.1468106.2162835.1022433.50914993-.1022581.67197215l-1.024.81 1.848-1.065c.2240205-.12976407.5100442-.0670649.6592395.14451171s.1122125.50204694-.0852395.66948829l-4.2 3.582 5.261-3.037c.2296891-.1296297.5205695-.0585592.6646041.1623819s.0916869.5157667-.1196041.6736181l-2.905 2.124 3.976-2.295c.2321092-.1290838.5246372-.0541763.6661393.170578.1415021.2247542.0825963.5209195-.1341393.674422l-1.464 1 2.797-1.611c.2324067-.1328499.5282158-.0590851.6710333.1673329s.0819688.5251514-.1380333.6776671l-4.186 2.877 11.6-6.7c.2342478-.13088329.5300435-.05352709.6702262.17527691.1401827.22880401.074765.52746697-.1482262.67672309l-6.605 4.278 8.212-4.741c.236654-.14248947.5440105-.06615402.6865.1705s.066154.54401053-.1705.6865l-2.16 1.35 2.752-1.588c.2354379-.13454995.5352149-.05690217.6757281.17502611.1405133.23192829.0705395.53358879-.1577281.67997389l-11.878 7.582 12.519-7.228c.2349709-.1292146.5300387-.050062.6687925.179405.1387537.2294671.0717837.5275361-.1517925.675595l-12.81 8.128 12.969-7.488c.2347713-.1336383.5332399-.0566316.6740509.1739091.1408109.2305408.0730402.5312411-.1530509.6790909l-16.621 10.728 16.581-9.574c.2354116-.1379583.5379577-.061708.6798637.1713453.1419059.2330532.070765.5368414-.1598637.6826547l-15.478 9.927 15.379-8.879c.234481-.1270728.5274228-.0477401.6657366.1802909.1383139.2280309.0733058.5244809-.1477366.6737091l-13.892 8.847 13.764-7.946c.2352087-.125628.5276152-.0445694.664573.1842276.1369579.228797.070267.5248112-.151573.6727724l-5.455 3.38 5.214-3.01c.1532669-.0919959.3439707-.0952367.5002749-.0085015.1563042.0867351.2544627.250269.2575.429s-.089508.3455056-.2427749.4375015l-6.363 3.959 6.131-3.54c.2352733-.1446986.5433014-.0712733.688.164s.0712733.5433014-.164.688l-14.682 9.568 14.6-8.428c.2343611-.1288923.5286543-.0505227.6678755.1778537.1392213.2283764.0740613.5258734-.1478755.6751463l-10.6 6.82 10.581-6.108c.2347713-.1336383.5332399-.0566316.6740509.1739091.1408109.2305408.0730402.5312411-.1530509.6790909l-8.8 5.685 9.02-5.207c.2355125-.13196.5332497-.0531389.6726204.1780652.1393708.2312042.0700423.5312938-.1566204.6779348l-1.939 1.22 2.129-1.228c.2341527-.123715.5241564-.0433988.6613045.1831476.1371481.2265465.0738659.5207372-.1443045.6708524l-2.167 1.374 2.501-1.444c.2348642-.1312813.531504-.0531604.6712412.1767732.1397372.2299337.0724576.5292187-.1522412.6772268l-1.346.855 1.649-.951c.23171-.1276221.5227312-.0526794.6639792.1709853s.08384.5186462-.1309792.6730147l-8.076 5.548 8.662-5c.2334461-.1352991.5321345-.0609722.6749447.1679561.1428102.2289282.0782242.5298733-.1459447.6800439l-4.816 3.239 4.914-2.837c.2330829-.1306613.5277074-.0549657.6689423.1718661.1412349.2268319.0791592.5246238-.1409423.6761339l-2.613 1.752 2.476-1.43c.2279124-.1308241.5182022-.0628918.6643976.1554793.1461953.2183711.0983971.512647-.1093976.6735207l-5.645 4.336 5.193-3c.2271272-.1307942.5167067-.0640046.6636035.1530559.1468968.2170604.1012506.5107158-.1046035.6729441l-3.128 2.459 2.026-1.169c.2221262-.1265945.5039712-.0652242.6533525.1422642.1493814.2074884.1181698.4942439-.0723525.6647358l-1.85 1.631c.1811568.0669828.307534.232314.3246349.4246991.0171009.1923852-.078133.3774151-.2446349.4753009l-3.237 1.871c-.2225048.1289965-.5065753.0681522-.6567253-.1406622-.15015-.2088145-.1173946-.4974755.0757253-.6673378l1.174-1.034-3.787 2.182c-.2271272.1307942-.5167067.0640046-.6636035-.1530559-.1468968-.2170604-.1012506-.5107158.1046035-.6729441l3.129-2.456-5.685 3.282c-.2279124.1308241-.5182022.0628918-.6643976-.1554793-.1461953-.2183711-.0983971-.512647.1093976-.6735207l5.645-4.335-8.946 5.164c-.232368.1256461-.5223842.0488566-.6621282-.1753162-.1397441-.2241727-.0809951-.5183743.1341282-.6716838l2.615-1.753-4.5 2.6c-.23265.1288599-.5254615.0530472-.6663444-.1725252s-.0805297-.5219566.1373444-.6744748l4.814-3.238-7.078 4.085c-.2319831.1309881-.5259285.0570795-.6683699-.1680527-.1424414-.2251321-.0833463-.52241.1343699-.6759473l8.076-5.547-11.071 6.391c-.234481.1270728-.5274228.0477401-.6657366-.1802909-.1383139-.2280309-.0733058-.5244809.1477366-.6737091l1.354-.86-2.971 1.714c-.234481.1270728-.5274228.0477401-.6657366-.1802909-.1383139-.2280309-.0733058-.5244809.1477366-.6737091l2.16-1.369-3.853 2.223c-.0752714.0451234-.1612424.069292-.249.07z" fill="#f7b953"/><path id="Path" d="m23.526 25.375c-.2022515.000362-.3848019-.1211573-.4625134-.3078837-.0777114-.1867264-.0352767-.4018795.1075134-.5451163l.655-.66-2.05 1.184c-.2206356.1300292-.503851.072325-.6560244-.1336626s-.1241014-.4936554.0650244-.6663374l2.105-1.96-2.9 1.673c-.2244518.1286386-.5099659.0648202-.6582866-.1471407-.1483207-.211961-.1104625-.5020607.0872866-.6688593l1.831-1.532-1.98 1.144c-.2208144.1342809-.5075757.0781561-.6614736-.1294633s-.1242133-.4983097.0684736-.6705367l2.723-2.564-2.5 1.443c-.2083072.1191748-.4719066.0735406-.6280287-.1087241-.1561221-.1822646-.1607271-.4497453-.0109713-.6372759l1.764-2.2-.03.017c-.1549945.0985297-.351531.1041539-.5119064.0146489-.1603754-.0895049-.2587712-.2597296-.2562855-.4433739s.1054527-.3511436.2681919-.436275l2.34-1.352c.2086224-.1215204.4742806-.0766091.6313635.1067361s.1607169.4527484.0086365.6402639l-1.765 2.2 3.88-2.239c.2192049-.1250239.4972153-.0671074.6482603.1350489.1510451.2021563.1277753.4851803-.0542603.6599511l-2.718 2.57 3.292-1.9c.2248726-.1315945.5131068-.0684479.6623629.1451111.149256.213559.1094985.5059386-.0913629.6718889l-1.83 1.529 1.706-.984c.2205392-.1280792.5021318-.0696485.6535046.1356028.1513729.2052513.124009.4915375-.0635046.6643972l-2.106 1.961 1.486-.857c.216926-.1250668.492915-.0703862.6457677.1279434.1528528.1983296.1354294.4791432-.0407677.6570566l-1.143 1.151c.1806688.0678757.3061414.2336718.3223812.4259856.0162399.1923138-.0796531.3768029-.2463812.4740144l-2.331 1.346c-.0777525.0448491-.1662553.0676663-.256.066z" fill="#fff"/><path id="Path" d="m37.4 25.4c-.2026648-.0004412-.3850178-.1231764-.4617194-.3107666s-.0325788-.4029265.1117194-.5452334l.628-.618-1.923 1.11c-.2190652.1318893-.5023394.0772423-.6566242-.1266708s-.1298566-.4913741.0566242-.6663292l2.378-2.294-3.258 1.881c-.2202286.1227467-.4973928.0623225-.6465459-.1409526s-.1236267-.4857984.0595459-.6590474l2.718-2.477-2.937 1.7c-.2245855.1309436-.5120466.0679354-.6612702-.144943-.1492235-.2128783-.1104168-.5045939.0892702-.671057l1.562-1.306-1.159.669c-.2085649.1202746-.4732297.0748336-.6297325-.1081204s-.1603978-.4514631-.0092675-.6388796l1.733-2.141c-.1549945.0985297-.351531.1041539-.5119064.0146489-.1603754-.0895049-.2587712-.2597296-.2562855-.4433739s.1054527-.3511436.2681919-.436275l2.34-1.352c.2085649-.1202746.4732297-.0748336.6297325.1081204s.1603978.4514631.0092675.6388796l-1.733 2.141 3.817-2.2c.2243164-.1264895.5080183-.0619132.6554889.1492026s.1104702.4997121-.0854889.6667974l-1.559 1.3 1.944-1.122c.2202286-.1227467.4973928-.0623225.6465459.1409526s.1236267.4857984-.0595459.6590474l-2.716 2.476 2.794-1.613c.2190652-.1318893.5023394-.0772423.6566242.1266708s.1298566.4913741-.0566242.6663292l-2.377 2.292 1.78-1.027c.217772-.1239843.4936884-.0676117.6453756.131857.1516872.1994686.1322878.4804159-.0453756.657143l-1.08 1.062c.1897776.0591822.3264687.2251666.3481597.4227712s-.0757391.3892883-.2481597.4882288l-2.55 1.471c-.0756041.045082-.1619752.0689204-.25.069z" fill="#fff"/><path id="Path" d="m30.163 49.45c-.2132463-.0003569-.4027983-.1359212-.4720574-.3376073-.0692591-.201686-.0029812-.4251025.1650574-.5563927l2.668-2.076-4.546 2.625c-.2301828.1290216-.5210052.0569569-.6643125-.1646141-.1433073-.2215711-.0897614-.5163656.1223125-.6733859l2.94-2.108-4.014 2.317c-.2328603.1351428-.5309189.0616362-.6742423-.1662803-.1433233-.2279164-.080443-.5283964.1422423-.6797197l2.018-1.38-2.641 1.524c-.2325262.1307666-.5267591.0559509-.6685809-.1700024s-.0812744-.5234503.1375809-.6759976l2.487-1.685-3.016 1.74c-.2296118.1252291-.5169379.0523455-.6590968-.1671876-.1421588-.2195331-.0911117-.5115306.1170968-.6698124l6.619-4.774-7.3 4.214c-.2318603.1330617-.527371.0602043-.6708066-.1653857-.1434357-.22559-.0840493-.5240996.1348066-.6776143l3.463-2.412-3.577 2.069c-.2254634.1287726-.5119753.0635416-.6594703-.1501437-.1474949-.2136853-.1068861-.5047094.0934703-.6698563l4.911-3.992-5.029 2.9c-.220439.1262233-.5004889.0670999-.6510942-.1374575-.1506054-.2045574-.1238973-.4895314.0620942-.6625425l3.242-2.994-2.916 1.683c-.2187434.1297091-.5000021.0745628-.6535686-.128145s-.1305136-.4883932.0535686-.663855l1.144-1.107-.564.325c-.1702693.0988386-.3826907.0885573-.5426189-.0262629-.1599282-.1148203-.2375893-.3128034-.1983811-.5057371l.3-1.483c-.1816503-.0660821-.308939-.2309487-.326902-.4234091-.017963-.1924605.0766179-.3780349.242902-.4765909l.5-.287c.1702171-.0982135.3821823-.0876082.541746.0271052s.2371332.31226.198254.5048948l-.254 1.255 3.106-1.792c.2187434-.1297091.5000021-.0745628.6535686.128145s.1305136.4883932-.0535686.663855l-1.145 1.102 3.3-1.9c.220439-.1262233.5004889-.0670999.6510942.1374575.1506054.2045574.1238973.4895314-.0620942.6625425l-3.24 2.992 6.58-3.8c.2253165-.1265297.5099298-.0605202.6565485.1522715.1466186.2127916.1069324.5022515-.0915485.6677285l-4.911 3.993 8.349-4.82c.2318603-.1330617.527371-.0602043.6708066.1653857.1434357.22559.0840493.5240996-.1348066.6776143l-3.457 2.408 5.638-3.256c.2301828-.1290216.5210052-.0569569.6643125.1646141.1433073.2215711.0897614.5163656-.1223125.6733859l-6.62 4.774 6.5-3.753c.2325262-.1307666.5267591-.0559509.6685809.1700024s.0812744.5234503-.1375809.6759976l-2.488 1.686 1.941-1.12c.2328603-.1351428.5309189-.0616362.6742423.1662803.1433233.2279164.080443.5283964-.1422423.6797197l-2.016 1.379 1.469-.847c.2305507-.1302945.5227069-.0582293.6662193.1643342.1435123.2225634.0886.5184238-.1252193.6746658l-2.94 2.108 2.059-1.188c.2272713-.1290292.5155715-.0612656.6615658.155498.1459944.2167636.1004262.5093938-.1045658.671502l-2.673 2.075 1.161-.67c.1549945-.0985297.351531-.1041539.5119064-.0146489.1603754.0895049.2587712.2597296.2562855.4433739s-.1054527.3511436-.2681919.436275l-7.461 4.308c-.0758978.0441549-.1621931.067282-.25.067z" fill="#f9eac0"/><path id="Path" d="m7.3 22.69c-.18938603 0-.36251759-.1070012-.4472136-.2763932-.084696-.169392-.06641802-.372098.0472136-.5236068l1.062-1.426-1.6.925c-.21646605.1248481-.49186915.0707117-.64497177-.1267831s-.13688866-.4776996.03797177-.6562169l2.215-2.274-2.932 1.691c-.22620357.1284409-.51310281.0619842-.65979477-.1528333-.14669196-.2148176-.10416776-.5062269.09779477-.6701667l1.611-1.286-1.981 1.144c-.22605753.1301558-.5141897.0646595-.6617686-.1504288-.1475789-.2150884-.10501073-.5074886.0977686-.6715712l3.81-3.086-4.482 2.587c-.23004825.1308569-.52222067.059778-.6664488-.1621318-.14422813-.2219099-.09054634-.5177734.1224488-.6748682l2.349-1.709-2.575 1.487c-.22791241.1308241-.51820223.0628918-.66439759-.1554793-.14619535-.2183711-.09839715-.512647.10939759-.6735207l3.481-2.683-3.526 2.034c-.23163361.1380114-.53097857.0675015-.67666125-.1593858-.14568268-.2268872-.08522576-.5284233.13666125-.6816142l.359-.254c-.22523153.1136778-.49986777.0417488-.64045961-.1677407-.14059183-.2094895-.10308817-.4909008.08745961-.6562593l3.4-2.954-2.651 1.534c-.21809635.1257781-.49569476.0697764-.64796984-.1307191s-.13172419-.4829397.04796984-.6592809l1.814-1.771c-.20977082-.03203718-.37647004-.19299661-.41583467-.40151665-.03936462-.20852004.05718084-.41917507.24083467-.52548335l2.793-1.617c.21809635-.12577812.49569476-.06977641.64796984.13071911s.13172419.48293973-.04796984.65928089l-1.5 1.469 3.74-2.159c.22319408-.12824745.5072862-.06607757.65651452.14366969.14922833.20974726.11482018.49851967-.07951452.66733031l-3.404 2.953 4.778-2.758c.2313261-.13338821.5266402-.06146595.670727.16335216.1440867.22481812.0860887.52317941-.131727.67764784l-.351.248.705-.406c.2279124-.13082408.5182022-.06289178.6643976.1554793.1461953.21837108.0983971.51264698-.1093976.6735207l-3.486 2.685 4.287-2.475c.2300482-.13085689.5222207-.05977797.6664488.16213184.1442281.22190982.0905463.51777336-.1224488.67486816l-2.347 1.708 1.766-1.019c.2262112-.1327757.5165722-.0681745.6651499.1479864.1485778.2161609.1048589.5103912-.1001499.6740136l-3.809 3.084 2.243-1.294c.2262036-.1284409.5131028-.0619842.6597948.1528333.1466919.2148176.1041677.5062269-.0977948.6701667l-1.617 1.291.313-.181c.216544-.1264521.4932612-.0729453.6470564.1251165.1537951.1980619.1370924.4794093-.0390564.6578835l-2.22 2.275.564-.325c.2052485-.117948.4650826-.0757972.6225191.1009864.1574365.1767835.1693242.4397458.0284809.6300136l-1.25 1.681c.20403381.0406349.36158661.2033632.39560801.4086034s-.06259841.4101012-.24260801.5143966l-1.567.9c-.07463267.0436936-.15951804.0668128-.246.067z" fill="#f7b953"/><path id="Path" d="m51.74 23.359c-.2021869-.0032177-.3825309-.1279021-.4569509-.3159222-.0744201-.1880201-.0282633-.4023556.1169509-.5430778l.482-.455-.3.175c-.225056.1607148-.5377851.108556-.6985-.1165-.1607148-.225056-.108556-.5377851.1165-.6985l3.169-2.753-3.242 1.872c-.2240372.1259992-.5071082.0616068-.6545964-.1489061s-.1113381-.4985559.0835964-.6660939l3.929-3.3-4.045 2.335c-.2247421.1254395-.5079955.0597743-.6546194-.1517571-.1466238-.2115314-.1087109-.4998143.0876194-.6662429l3.982-3.278-4.085 2.358c-.2260477.1402948-.5223705.0790089-.6742216-.1394435-.151851-.2184524-.1060453-.5175595.1042216-.6805565l3.763-3.078-3.843 2.219c-.2283835.1299972-.5184238.0610156-.6638282-.1578813-.1454044-.2188968-.0965443-.5129964.1118282-.6731187l1.919-1.452-1.839 1.061c-.2251719.1281476-.5109328.0630663-.6584056-.14995-.1474728-.2130162-.107801-.5033971.0914056-.66905l2.68-2.2-2.68 1.547c-.2279124.1308241-.5182022.0628918-.6643976-.1554793-.1461953-.2183711-.0983971-.512647.1093976-.6735207l.556-.427-.4.228c-.223215.1246833-.504532.0608811-.6521181-.1478993-.1475861-.2087803-.1138868-.4952664.0781181-.6641007l1.341-1.143c-.0961998-.04232347-.1761655-.11457317-.228-.206-.1375532-.23865551-.0561721-.54361136.182-.682l3.397-1.962c.223215-.12468326.504532-.06088106.6521181.14789926.1475861.20878031.1138868.49526649-.0781181.66410074l-.472.4 2.259-1.3c.2279124-.13082408.5182022-.06289178.6643976.1554793.1461953.21837108.0983971.51264698-.1093976.6735207l-.558.428 1.375-.793c.1471934-.10128479.3372405-.11634905.4985525-.0395182.1613119.07683084.2693815.23388436.2835.412s-.0678591.35023341-.2150525.4515182l-2.679 2.2 3.54-2.043c.2281943-.12734837.5159664-.05749287.6603781.16030407s.0967481.51006523-.1093781.67069593l-1.912 1.447 2.21-1.277c.2256098-.13119678.5141774-.06680355.6626093.14785982.1484318.21466336.1067938.50738169-.0956093.67214018l-3.764 3.077 3.98-2.3c.2247421-.1254395.5079955-.0597743.6546194.1517571.1466238.2115314.1087109.4998143-.0876194.6662429l-3.984 3.28 3.747-2.163c.2244518-.1286386.5099659-.0648202.6582866.1471407.1483207.211961.1104625.5020607-.0872866.6688593l-3.929 3.3 2.81-1.621c.2229237-.1277986.5064223-.0658196.6556784.1433455.1492561.2091652.11567.4974096-.0776784.6666545l-3.427 2.977c.1601511-.0129049.3142333.0641362.4.2.1513161.203453.1263895.4879593-.058.662l-2.71 2.566c.0179292.1943893-.0789139.381437-.248.479l-.72.416c-.0760993.0433341-.1624393.0654371-.25.064z" fill="#f7b953"/><path id="Path" d="m39.351 41.47c-.2137813.0001911-.4040333-.1355544-.4733966-.3377701-.0693634-.2022157-.0024908-.4261592.1663966-.5572299l.7-.545-2.114 1.221c-.2304184.1322364-.5240189.0611893-.6684864-.1617642-.1444674-.2229535-.0893536-.5199576.1254864-.6762358l.736-.533-1.669.963c-.2267918.1258849-.5121894.0574365-.6572109-.1576223-.1450215-.2150589-.1015044-.5053056.1002109-.6683777l4.003-3.132-5.253 3.035c-.2295527.1314921-.521805.0614183-.6667704-.1598726-.1449654-.2212908-.0924688-.5172061.1197704-.6751274l3.505-2.585-4.439 2.562c-.2299138.1328235-.5235501.0627731-.6687427-.1595365s-.0912979-.5193359.1227427-.6764635l3.793-2.782-5.267 3.041c-.2321092.1290838-.5246372.0541763-.6661393-.170578-.1415021-.2247542-.0825963-.5209195.1341393-.674422l1.28-.874-6.466 3.734c-.2324067.1328499-.5282158.0590851-.6710333-.1673329s-.0819688-.5251514.1380333-.6776671l5.583-3.848-9.688 5.593c-.23265.1288599-.5254615.0530472-.6663444-.1725252s-.0805297-.5219566.1373444-.6744748l5.468-3.669-7.075 4.086c-.2322938.1351768-.5298928.0625367-.6737842-.164462-.1438914-.2269988-.0825928-.5271392.1387842-.679538l6.535-4.519-7.676 4.432c-.2302873.1343427-.5254749.0643663-.6709518-.1590541-.1454768-.2234204-.0900639-.5216852.1259518-.6779459l6.915-5.04-7.73 4.462c-.2299138.1328235-.5235501.0627731-.6687427-.1595365s-.0912979-.5193359.1227427-.6764635l5.13-3.765-5.335 3.077c-.2314518.1313128-.5252013.0583356-.6682918-.1660259-.1430904-.2243616-.0853808-.5214879.1312918-.6759741l1.578-1.107-1.254.724c-.2285788.1329729-.5211739.064966-.667677-.1551861-.1465031-.220152-.0962484-.5163129.114677-.6758139l2.148-1.632-1.516.875c-.2148894.1243392-.4884665.0721685-.6425166-.1225268-.1540502-.1946953-.1419081-.4729375.0285166-.6534732l2.052-2.171c-.2428319.0803594-.5071561-.0355076-.6126121-.2685398-.1054561-.2330321-.0180349-.5080776.2026121-.6374602l2.853-1.648c.2148145-.122858.4871855-.0700952.640583.1240916.1533976.1941868.1416695.4713733-.027583.6519084l-2.027 2.152 5.4-3.114c.2285788-.1329729.5211739-.064966.667677.1551861.1465031.220152.0962484.5163129-.114677.6758139l-2.153 1.63 4.268-2.461c.230817-.1267753.5204005-.0527915.6621232.1691615.1417226.221953.0869993.5157856-.1251232.6718385l-1.576 1.105 3.371-1.946c.2299138-.1328235.5235501-.0627731.6687427.1595365s.0912979.5193359-.1227427.6764635l-5.131 3.764 7.973-4.6c.2300482-.1308569.5222207-.059778.6664488.1621318.1442281.2219099.0905463.5177734-.1224488.6748682l-6.914 5.039 10.182-5.876c.2313246-.1263251.5209869-.0513891.6620294.1712679.1410425.2226569.0850249.5165645-.1280294.6717321l-6.534 4.514 9.285-5.36c.232368-.1256461.5223842-.0488566.6621282.1753162.1397441.2241727.0809951.5183743-.1341282.6716838l-5.469 3.67 7.651-4.414c.2327682-.1379387.5330334-.0656905.677577.1630348s.0809181.5309351-.143577.6819652l-5.583 3.849 7.073-4.083c.2321092-.1290838.5246372-.0541763.6661393.170578.1415021.2247542.0825963.5209195-.1341393.674422l-1.28.874 1.763-1.017c.2299138-.1328235.5235501-.0627731.6687427.1595365s.0912979.5193359-.1227427.6764635l-3.794 2.782 4.306-2.485c.2295527-.1314921.521805-.0614183.6667704.1598726.1449654.2212908.0924688.5172061-.1197704.6751274l-3.508 2.583 3.661-2.114c.2269587-.1282325.5143539-.0605795.6602778.1554298.145924.2160093.1014061.5078844-.1022778.6705702l-4.007 3.132 3.844-2.218c.2296118-.1252291.5169379-.0523455.6590968.1671876.1421588.2195331.0911117.5115306-.1170968.6698124l-.731.53.088-.05c.2272713-.1290292.5155715-.0612656.6615658.155498.1459944.2167636.1004262.5093938-.1045658.671502l-.9.7c.2028096-.0287881.4029683.0675407.507.244.1380647.2391402.0561341.5449248-.183.683l-5.967 3.439c-.0754236.0447692-.161297.0689103-.249.07z" fill="#f9eac0"/><path id="Path" d="m30.254 34.417c-.2059464-.000202-.3907013-.1266595-.4654312-.3185694s-.0241455-.4100087.1274312-.5494306l1.743-1.6-3.078 1.778c-.2250073.1341909-.5154423.071948-.6656978-.1426651-.1502554-.2146131-.1093763-.5088164.0936978-.6743349l1.211-1.013-1.68.969c-.2163843.1232964-.4905169.0685506-.6429461-.1284-.1524291-.1969505-.1366764-.476052.0369461-.6546l1.658-1.685-2.741 1.583c-.220439.1262233-.5004889.0670999-.6510942-.1374575-.1506054-.2045574-.1238973-.4895314.0620942-.6625425l.451-.414-.986.568c-.2087634.1201586-.4735249.0743925-.6298391-.1088725-.1563143-.183265-.1597449-.451931-.0081609-.6391275l.3-.366c-.2437299.0938436-.5186271-.0157074-.6310053-.2514658-.1123781-.2357584-.0243746-.5182921.2020053-.6485342l2.266-1.308c.2087634-.1201586.4735249-.0743925.6298391.1088725.1563143.183265.1597449.451931.0081609.6391275l-.286.352 2.556-1.475c.2203354-.1244491.4989119-.0646624.6487785.1392378.1498666.2039001.1237692.4876223-.0607785.6607622l-.451.415 2.015-1.163c.216466-.1248481.4918692-.0707117.6449718.1267831s.1368886.4776996-.0379718.6562169l-1.659 1.685 3.462-2c.2245855-.1309436.5120466-.0679354.6612702.144943.1492235.2128783.1104168.5045939-.0892702.671057l-1.21 1.013 2.025-1.169c.220439-.1262233.5004889-.0670999.6510942.1374575.1506054.2045574.1238973.4895314-.0620942.6625425l-1.743 1.6 1.425-.823c.23893-.1358451.5427102-.0533708.6801373.1846528.137427.2380237.0569695.5423443-.1801373.6813472l-5.354 3.089c-.0747248.0434738-.15955.0665766-.246.067z" fill="#4f442b"/><path id="Path" d="m30.814 45c-.174201.0009294-.3309822-.1055254-.3943783-.2677839-.0633961-.1622584-.0203113-.346803.1083783-.4642161l1.207-1.111-2.943 1.7c-.191561.0993427-.4272061.0381656-.5462505-.141815-.1190443-.1799807-.0831312-.4207742.0832505-.558185l.323-.239-.856.493c-.1864466.1192088-.4333581.0737195-.5650812-.1041065-.131723-.1778261-.1032859-.4272773.0650812-.5708935l2.638-2.436-3.511 2.027c-.1891553.1068545-.4285281.0526387-.5531822-.1252909-.1246542-.1779296-.0938523-.4214249.0711822-.5627091l1.792-1.5-1.993 1.15c-.1761288.1035651-.4011928.0657151-.5337569-.0897643-.132564-.1554794-.1343532-.383697-.0042431-.5412357l1.5-1.844-1.477.852c-.130815.0834295-.2968611.0883462-.4323834.0128031s-.2186607-.2193606-.216492-.3745004c.0021686-.1551398.0892945-.2965772.2268754-.3683027l3.461-2c.1761288-.1035651.4011928-.0657151.5337569.0897643.132564.1554794.1343532.383697.0042431.5412357l-1.5 1.844 4.2-2.422c.1894088-.111629.4328213-.0587159.558795.1214711.1259738.1801869.0920861.4269683-.077795.5665289l-1.792 1.5 2.624-1.514c.1862567-.1117322.426904-.0638375.5561872.1106947.1292831.1745322.1049724.4186921-.0561872.5643053l-2.635 2.426 3.811-2.2c.191561-.0993427.4272061-.0381656.5462505.141815.1190443.1799807.0831312.4207742-.0832505.558185l-.325.242c.1868964-.1020803.420564-.0489137.5448953.1239804.1243312.1728942.1003616.4113323-.0558953.5560196l-1.262 1.162c.2035947-.0501302.4131168.0568244.4919396.2511201s.0030366.4169956-.1779396.5228799l-3.139 1.811c-.0646279.0422222-.1398182.0654377-.217.067z" fill="#8e234c"/><path id="Path" d="m9.082 18.635c-.1799667.0001826-.34614704-.0963646-.43512342-.2527975-.08897639-.1564329-.08701967-.3486137.00512342-.5032025l.819-1.379-1.414.816c-.21679873.1191224-.48811736.0618073-.63821498-.1348206-.15009763-.1966279-.13385163-.473458.03821498-.6511794l1.143-1.146-1.583.916c-.21045314.121793-.47801344.0745268-.634-.112-.15664967-.1860885-.15664967-.4579115 0-.644l1.5-1.778-2.001 1.157c-.21525801.1229472-.48810082.0696094-.64121155-.1253499-.15311072-.1949593-.14025536-.4726694.03021155-.6526501l.9-.939-.607.35c-.21105057.1204235-.47812422.0716789-.63302661-.115536-.1549024-.1872148-.15278168-.458692.00502661-.643464l.73-.849c-.16915359-.0783688-.28066015-.2443356-.28927786-.4305622s.08708478-.361782.24827786-.4554378l1.675-.962c.21111633-.12173286.47924264-.0735321.63474343.1141072.1555008.1876393.15307467.4600529-.00574343.6448928l-.314.365 1.093-.631c.21525801-.1229472.48810082-.0696094.64121155.1253499.15311072.1949593.14025536.4726694-.03021155.6526501l-.9.939 1.455-.839c.2104988-.1219393.4782123-.0746814.6342394.1119586s.1550818.458491-.0022394.6440414l-1.506 1.773 2.4-1.386c.2167987-.1191224.4881174-.0618073.638215.1348206s.1338516.473458-.038215.6511794l-1.221 1.22c.1937919-.0388874.3923034.0400368.5064915.2013706.114188.1613339.122618.374793.0215085.5446294l-1.107 1.867c.0633759.0431095.1163301.0998217.155.166.1380647.2391402.0561341.5449248-.183.683l-.839.485c-.07620463.0444081-.16280018.0678683-.251.068z" fill="#d0673a"/><path id="Path" d="m51 18.424c-.1993545.0001033-.3797211-.1182267-.4590104-.3011351-.0792892-.1829083-.0423481-.3954394.0940104-.5408649l2.207-2.36-2.254 1.3c-.2207276.1320893-.5056598.0751513-.6586724-.1316224-.1530126-.2067738-.124171-.4959044.0666724-.6683776l1.563-1.461-1.546.892c-.2081694.1205179-.4726501.07573-.6295333-.1066069-.1568831-.1823369-.1617005-.4505398-.0114667-.6383931l1.72-2.15-.267.154c-.2374252.1242009-.5305531.0391619-.6646466-.1928199-.1340935-.2319817-.0614797-.5284321.1646466-.6721801l2.565-1.482c.2081106-.1193003.4716218-.07399296.6279349.1079653.1563132.1819582.1613762.4492881.0120651.6370347l-1.72 2.152 3.021-1.745c.2207276-.1320893.5056598-.0751513.6586724.1316224.1530126.2067738.124171.4959044-.0666724.6683776l-1.563 1.461 1.394-.8c.2143746-.1227956.4862971-.0706141.6399891.1228129s.1430745.4701074-.0249891.6511871l-2.508 2.681c.2019641.0432186.3565704.2061686.3891235.4101236s-.0636473.4069361-.2421235.5108764l-2.258 1.3c-.0755239.0453866-.1618887.0695687-.25.07z" fill="#d0673a"/><g fill="#262626"><path id="Shape" d="m27.724 20.306c-.14-2.732-2.215-5.109-5.112-4.752-2.5138084.3674132-4.3682123 2.5376513-4.339 5.078-.0373834 1.2619203.4339412 2.4859228 1.3080253 3.3968659s2.0775869 1.4323931 3.3399747 1.4471341c2.6875125-.1405294 4.7978208-2.3548391 4.809-5.046 0-.029-.014-.047-.017-.073s.012-.033.011-.051zm-5.212 4.127c-1.786-.4-2.763-2.388-2.758-4.065.006-2.182 1.671-4.5 4.087-3.661 1.627.563 2.323 2.315 2.426 3.9-.115 1.977-1.373 4.358-3.755 3.826z"/><path id="Shape" d="m37.061 15.458c-2.7050382.1406287-4.8202379 2.3853844-4.8 5.094-.101716 2.6381195 1.9427981 4.864765 4.58 4.988 2.7371784-.0993002 4.9015172-2.3530451 4.89-5.092-.131-2.604-1.847-5.031-4.67-4.99zm-.28 8.975c-1.894-.239-3.029-2.224-3.046-3.985-.019-1.891 1.312-4.155 3.484-3.881 1.951.247 2.956 2.221 3.046 3.985-.096 1.878-1.216 4.167-3.484 3.881z"/><path id="Shape" d="m46.351 24.182c-.5521957-1.4073312-.9479087-2.8711342-1.18-4.365-.629-2.84-.8-7.311-2.906-9.584-2.291-2.471-4.821-1.758-7.481-.822-3.3 1.16-5.907 2.339-9 .35-.5708265-.45371268-1.205718-.82035913-1.884-1.088-1.1653283-.33186192-2.4029487-.31028361-3.556.062-3.359 1.1-3.917 4.081-4.583 7.089-.406 1.833-.8 3.67-1.219 5.5-.667 2.886-1.956 4.24-3.909 6.6-2.733 3.292-3.333 7.747-.155 11.067 2.677 2.8 6.382 2.6 9.934 2.569 2.057 10.455 16.875 10.025 19.122 0 2.707.034 5.478.211 7.925-1.138 3.7221612-1.9985521 5.2601684-6.5387109 3.519-10.388-1.123-2.341-3.533-3.516-4.627-5.852zm-30.678 7.588c1.976-2.55 4.976-2.375 7.9-2.3-.1862406.2360357-.2886214.5273461-.291.828.006 1.353 2.271 1.7 3.106 2.24 1.292.833 1.823 1.863 3.495 1.785 1.482-.069 2.443-1.03 3.616-1.806 1-.665 2.9-1.113 3.223-2.485 0-.011-.008-.017-.007-.027s.016-.036.012-.054c-.0372155-.186736-.1047772-.3661123-.2-.531 1.0706262-.1034633 2.149706-.0806398 3.215.068 6.561 1.233 8.013 10.148.212 10.975-.32-.01-.639-.018-.953-.018-.0994213-.0005104-.1981913.016064-.292.049-2.338-.126-3.622-1.637-5.76-2.366-1.8747915-.6423766-3.9140542-.6165855-5.772.073-1.988.556-3.47 2.1-5.72 2.307-.1065698-.0435648-.2208869-.0649992-.336-.063-.431 0-.878-.01-1.329-.025-4.234-.72-6.053-4.609-4.119-8.65zm18.7-2.563c-.02.147.085.259.385.272.2544222.2117072.4327884.5006744.508.823-.249.64-2.758 2-3.53 2.4-2.637 1.374-2.736.03-4.284-.858-.7154358-.2581398-1.4064922-.5794057-2.065-.96-2.528-2.216 4.572-2.6 5.755-2.476 1.1169259.0549292 2.2125486.3262877 3.226.799zm-.13 11.236c-.307 2.515-2.353 4.691-5.121 3.946-1.9176132-.5780401-3.2644604-2.2996344-3.364-4.3.148-.057.293-.115.447-.17 3.461-1.258 5.684-.347 8.033.524zm-6.193 7.793c-3.1821219-.9322075-5.5601725-3.5885241-6.136-6.854.8261359-.1546172 1.6331511-.3980293 2.407-.726.788 6.307 10 6.037 11.269.257.8257052.2709104 1.6789288.4493361 2.544.532-.934 4.626-5.091 8.147-10.084 6.791zm15.157-7.815c2.4534886-1.1902172 3.8355526-3.8490644 3.4-6.541-.92-5.661-6.592-5.379-11.026-5.367-1.8-1.013-5.153-.9-6.484-.8-1.4030646.0748894-2.7889493.3441239-4.118.8-3.879-.021-7.961-.526-10.579 2.987-.009.013-.008.023-.017.035-.027019.0259976-.0511584.0548306-.072.086-1.604 3.325-.787 6.559 1.589 8.379-3.6-.742-6.643-2.65-6.12-7.373.423-3.815 4.814-5.993 5.882-9.832.792-2.847.811-6.241 1.981-8.944.728-1.68-.882.051 2.258-2.564 3.095-2.579 2.57-1.126 5.957.322 1.2737972.6165311 2.66888.9417316 4.084.952 4.716-.023 9.425-6.632 12.311 1.022 1.051 2.788 1.26 6.05 1.982 8.944.914 3.665 3.689 4.829 5.234 8.023 2.355 4.864-1.126 9.259-6.262 9.871z"/><path id="Shape" d="m58.5 9.215c-1.1795172-1.92557316-3.4516187-2.88968977-5.656-2.4 0 0 0-.011-.006-.017-2.6276331-3.48598837-6.586881-5.7219183-10.929-6.172-2.0233712-.19877438-4.0660159-.02937277-6.029.5-2.653.733-4.5 2.554-7.638 1.761-1.743-.439-3.136-1.7-5.051-2.058-1.9693971-.35759775-3.9862157-.36741277-5.959-.029-3.8431061.74311827-7.29877674 2.82346456-9.754 5.872-2.47029638-.1127917-4.81900447 1.07731148-6.189 3.136-2.056 3.231-.728 6.143 1.4 8.707-1.324 10.069.188 23.053 8.543 29.919 5.068 4.166 11.551 5.273 16.568 9.544 3.379 2.876 3.443-.13 6.785-2.457 4.944-3.444 11.04-4.093 15.5-8.508 7.2-7.129 8.482-19.294 7.216-28.833 2.214-2.665 3.576-5.695 1.199-8.965zm-56.721 2.926c.469-3.428 4.379-5.927 7.633-3.848 1.008.644 1.931 1.48 2.876 2.221-.479.781-.915 1.587-1.322 2.408-1.775-1.48-4.04-3.347-6.023-1.294-2.343 2.427 2.162 5.518 3.746 7.033-.328 1.044-.626 2.1-.892 3.155-1.233-1.228-2.489-2.454-3.647-3.744-.01738392-.1063885-.09574474-.1925854-.2-.22-.181-.205-.371-.405-.546-.614-1.24459463-1.3890378-1.83595599-3.2439109-1.625-5.097zm7.37 5.141-1.049-1.031c-.88871738-.6629459-1.64085683-1.4914878-2.215-2.44-.314-.8-.163-2.742 1.2-2.27.40868611.2316239.7841015.5175585 1.116.85l2.216 1.685c-.474 1.047-.889 2.124-1.268 3.206zm39.194 30.01c-4.016 3.675-9.252 4.51-13.78 7.21-1.124.67-2.037 1.94-3.114 2.524-2.192 1.188-2.794-.435-4.6-1.8-4.545-3.433-10.527-4.013-14.9-7.9-7.268-6.468-8.9-18.05-7.994-27.4 1.187 1.233 2.455 2.374 3.472 3.421-.053.234-.112.469-.163.7-.138.63 1.334.425 1.458-.146 1.139-5.219 2.824-10.461 5.955-14.852.421-.591-1.048-.548-1.368-.1-.118.166-.221.342-.335.51-1.2207629-1.14572995-2.6648975-2.02712188-4.242-2.589 4.231-4.788 10.7-7.03 16.8-4.21 1.524.705 2.568 1.84 4.378 1.811 2.258-.037 4.09-1.966 6.182-2.558 5.7055991-1.49034702 11.7461864.61457447 15.29 5.328-1.4670995.61989736-2.8489602 1.42475058-4.112 2.395-.182-.277-.353-.56-.546-.83-.253-.356-1.566.223-1.448.388 3.153 4.423 4.853 9.719 6 14.975.068.314 1.525-.037 1.448-.388-.054-.252-.117-.5-.175-.756 1-1.025 2.247-2.157 3.427-3.379 1.014 9.283-.452 21.077-7.633 27.646zm1.237-33.454 2.11-1.606c.273-.207.784-.766 1.117-.849 1.161-.291 1.585 1.769 1.373 2.516-.287 1.014-1.442 1.8-2.165 2.511l-1.031 1.009c-.413-1.219-.876-2.414-1.404-3.581zm7.569 2.937c-.259.388-.546.762-.842 1.131-.279.112-.5.3-.471.528v.039c-1.085 1.253-2.33 2.414-3.519 3.572-.3-1.224-.636-2.443-1.016-3.649l2.855-2.8c1.105-1.081 2.211-2.408 1.146-4-1.545-2.312-4.315-.079-6.113 1.431-.4617652-.9598351-.9741526-1.8944832-1.535-2.8 1.412-1.1 2.755-2.331 4.488-2.712l.036-.007c.5005656-.11113407 1.0152121-.14485927 1.526-.1 4.411.408 5.456 6.358 3.445 9.367z"/><path id="Path" d="m22.274 20.086v1c0 .622 1.452.325 1.452-.172v-1c0-.622-1.452-.325-1.452.172z"/><path id="Path" d="m36.268 20.061v1c0 .733 1.464.5 1.464-.122v-1c0-.733-1.464-.499-1.464.122z"/></g></g></svg>