<svg height="512" viewBox="0 0 60 50" width="512" xmlns="http://www.w3.org/2000/svg"><g id="012---Monkey" fill="none"><path id="Path" d="m10.593 24.733c-.2218793-.0003275-.4170034-.1468384-.4792095-.3598194-.0622062-.212981.0233867-.441482.2102095-.5611806l11.376-7.25-13.726 7.925c-.23389628.1269547-.52624912.04845-.66508708-.1785941-.13883795-.227044-.07550148-.5230536.14408708-.6734059l12.829-8.268-14.135 8.16c-.23508655.127347-.52875831.0472199-.66659082-.1818764-.13783251-.2290964-.071048-.5260868.15159082-.6741236l5.532-3.462-6.026 3.479c-.23377341.1287456-.52745054.051198-.66718798-.1761759-.13973743-.2273739-.07626999-.5244122.14418798-.6748241l11.116-7.225-11.865 6.85c-.2341443.133112-.53165209.0568382-.67287099-.1725078-.1412189-.2293459-.07539606-.5293391.14887099-.6784922l10.312-6.771-10.769 6.218c-.23336809.1382671-.53441937.0652417-.67850035-.1645824s-.07863493-.5326135.14750035-.6824176l10.446-7.071-10.724 6.193c-.23240668.1328499-.52821577.0590851-.67103328-.1673329s-.08196881-.5251514.13803328-.6776671l8.644-5.931-8.645 4.991c-.23405687.1357068-.53360081.0606207-.67597038-.1694442s-.07591293-.5316408.14997038-.6805558l3.8-2.517-3.446 1.986c-.2341443.133112-.53165209.0568382-.67287099-.1725078-.1412189-.2293459-.07539606-.5293391.14887099-.6784922l1.22-.8-.729.421c-.23252618.1307666-.52675914.0559509-.6685809-.1700024-.14182177-.2259533-.08127436-.5234503.1375809-.6759976l3.224-2.191-2.51 1.45c-.227731.1281621-.51574432.059345-.66093914-.1579231-.14519482-.217268-.09859462-.509699.10693914-.6710769l5.408-4.145-4.01 2.315c-.22227201.1250569-.50304527.06278062-.65159808-.14452625-.14855282-.20730687-.11727035-.49319734.07259808-.66347375l2.9-2.54c-.21626557-.02141496-.39393287-.18007522-.43957751-.39255102-.04564464-.21247579.05118718-.43010471.23957751-.53844898l3.751-2.17c.22265563-.12737455.50558289-.06559282.65487411.14300234s.11651109.49632815-.07587411.66599766l-2.541 2.226 6.248-3.607c.227731-.12816214.5157443-.059345.6609391.15792306.1451949.21726806.0985947.50969906-.1069391.67107694l-5.411 4.147 7.654-4.419c.2321092-.12908381.5246372-.05417632.6661393.17057796s.0825963.52091953-.1341393.67442204l-3.224 2.192 4.155-2.4c.2347029-.1405531.538787-.06638836.6824238.16644007s.0734897.5378644-.1574238.68455993l-1.229.805 2.173-1.253c.233204-.12874209.5263939-.05204834.6666872.17439464s.0784231.52311505-.1406872.67460536l-3.787 2.513 5.824-3.362c.2319831-.1309881.5259285-.05707946.6683699.16805269.1424414.22513216.0833463.52241-.1343699.67594731l-8.648 5.933 11.74-6.777c.2325262-.13076655.5267591-.05595091.6685809.17000241s.0812744.52345026-.1375809.67599759l-10.448 7.071 13.715-7.918c.2336556-.13069104.5287926-.05414659.6694787.17363081.140686.22777741.0769932.52595205-.1444787.67636919l-10.314 6.773 13.2-7.623c.2337734-.12874562.5274505-.05119801.667188.1761759.1397374.22737391.07627.52441224-.144188.6748241l-11.112 7.225 13.99-8.077c.2350866-.12734701.5287583-.04721993.6665908.18187644.1378325.22909636.071048.52608673-.1515908.67412356l-5.543 3.468 7.492-4.324c.2335877-.12373825.5231326-.04427888.6608429.18135411.1377103.22563298.0760007.51947304-.1408429.67064589l-12.822 8.263 15.788-9.115c.2348642-.13128134.531504-.05316042.6712412.17677323.1397372.22993366.0724576.52921865-.1522412.67722677l-11.38 7.252 16.8-9.7c.2335877-.12373825.5231326-.04427888.6608429.18135411.1377103.22563298.0760007.51947304-.1408429.67064589l-15.6 10.053 18.477-10.664c.1529097-.09253179.3435692-.09645835.5001589-.01030058s.2553199.24931045.259.428c.00368.17868956-.0882492.34576879-.2411589.43830058l-12.233 7.742 13.679-7.898c.2372063-.14138487.5441151-.06370627.6855.17350002s.0637063.54411507-.1735.68549998l-3.446 2.129 4.061-2.344c.234481-.12707284.5274228-.04774006.6657366.18029089.1383139.22803094.0733058.52448086-.1477366.67370911l-11.191 7.119 12.1-6.984c.2343611-.12889229.5286543-.05052268.6678755.17785371.1392213.22837639.0740613.52587341-.1478755.67514629l-11.538 7.431 12.237-7.064c.2348642-.13128134.531504-.05316042.6712412.17677323.1397372.22993366.0724576.52921865-.1522412.67722677l-7.7 4.9 7.994-4.616c.2337734-.12874562.5274505-.05119801.667188.1761759.1397374.22737391.07627.52441224-.144188.6748241l-9.745 6.377 10.047-5.8c.2334461-.13529908.5321345-.06097219.6749447.16795606.1428102.22892826.0782242.52987333-.1459447.68004394l-9.88 6.649 9.971-5.757c.2355494-.1441463.5433537-.0700494.6875.1655s.0700494.5433537-.1655.6875l-3.206 2.068 2.9-1.671c.2354116-.1379583.5379577-.061708.6798637.1713453.1419059.2330532.070765.5368414-.1598637.6826547l-.794.511.405-.234c.2315237-.114691.5122999-.034094.6477421.1859347s.0809369.5070136-.1257421.6620653l-2.04 1.344 1.466-.846c.2300482-.1308569.5222207-.059778.6664488.1621318.1442281.2219099.0905463.5177734-.1224488.6748682l-5.037 3.654 4.1-2.37c.2304184-.1322364.5240189-.0611893.6684864.1617642.1444674.2229535.0893536.5199576-.1254864.6762358l-2.038 1.475.769-.444c.2262112-.1327757.5165722-.0681745.6651499.1479864.1485778.2161609.1048589.5103912-.1001499.6740136l-2.072 1.69c.2179143.017763.3990158.1750506.4471237.3883292.048108.2132787-.0479358.4330802-.2371237.5426708l-4.737 2.735c-.2259084.1319558-.5153456.0674504-.6638412-.1479469s-.1058364-.5088509.0978412-.6730531l1.641-1.331-3.729 2.152c-.2304184.1322364-.5240189.0611893-.6684864-.1617642-.1444674-.2229535-.0893536-.5199576.1254864-.6762358l2.041-1.476-4.009 2.314c-.2300482.1308569-.5222207.059778-.6664488-.1621318-.1442281-.2219099-.0905463-.5177734.1224488-.6748682l5.036-3.659-7.782 4.493c-.2340569.1357068-.5336008.0606207-.6759704-.1694442s-.0759129-.5316408.1499704-.6805558l2.034-1.34-3.8 2.19c-.2343611.1288923-.5286543.0505227-.6678755-.1778537-.1392213-.2283764-.0740613-.5258734.1478755-.6751463l.784-.5-2.353 1.358c-.2342478.1308833-.5300435.0535271-.6702262-.1752769s-.074765-.527467.1482262-.6767231l3.212-2.074-5.067 2.926c-.2341687.1463555-.5426445.0751687-.689-.159s-.0751687-.5426445.159-.689l9.88-6.648-12.984 7.5c-.2341443.133112-.5316521.0568382-.672871-.1725078-.1412189-.2293459-.075396-.5293391.148871-.6784922l9.747-6.377-12.52 7.228c-.2348642.1312813-.531504.0531604-.6712412-.1767732-.1397372-.2299337-.0724576-.5292187.1522412-.6772268l7.7-4.9-9.966 5.754c-.2338963.1269547-.5262491.04845-.6650871-.1785941-.1388379-.227044-.0755015-.5230536.1440871-.6734059l11.539-7.435-14.348 8.28c-.2348642.1312813-.531504.0531604-.6712412-.1767732-.1397372-.2299337-.0724576-.5292187.1522412-.6772268l11.194-7.124-13.821 7.978c-.2357179.1278172-.530297.0469384-.667702-.1833224-.137405-.2302607-.0687118-.5279174.155702-.6746776l3.444-2.121-5.161 2.979c-.2354379.13455-.5352149.0569022-.6757281-.1750261-.1405133-.2319283-.0705395-.5335888.1577281-.6799739l12.23-7.74-14.89 8.6c-.2343611.1288923-.5286543.0505227-.6678755-.1778537-.1392213-.2283764-.0740613-.5258734.1478755-.6751463l15.6-10.053-18.898 10.902c-.0758978.0441549-.1621931.067282-.25.067z" fill="#ffcc9d"/><path id="Path" d="m9.472 20.356c-.22117925-.0003689-.41583542-.1460121-.47860709-.3580972-.06277167-.2120852.02125831-.4402122.20660709-.5609028l2.566-1.66-3.721 2.148c-.2313261.1333882-.5266402.061466-.67072696-.1633522-.14408676-.2248181-.08608875-.5231794.13172696-.6776478l8.229-5.837-9.078 5.241c-.2310609.1298083-.52326795.0567757-.66608655-.1664779s-.08662801-.5191613.12808655-.6745221l6-4.227-6.27 3.618c-.23093065.1317312-.52456739.0597083-.66833375-.1639283s-.0873821-.520673.12833375-.6760717l4.265-3.034-4.149 2.395c-.2314518.1313128-.52520132.0583356-.66829177-.1660259-.14309045-.2243616-.08538078-.5214879.13129177-.6759741l1.7-1.2-1.288.747c-.23004825.1308569-.52222067.059778-.6664488-.1621318-.14422813-.2219099-.09054634-.5177734.1224488-.6748682l1.176-.854-.439.253c-.21593068.1231341-.4895276.0689462-.64222301-.1271971-.15269541-.1961432-.13811588-.4746734.03422301-.6538029l2.475-2.545-.06.03c-.15499454.09852969-.35153099.10415386-.51190641.01464894s-.25877124-.25972968-.25628554-.44337398c.0024857-.18364429.10545276-.35114353.26819195-.43627496l3.17-1.827c.2159307-.12313412.4895276-.06894621.642223.12719707s.1381159.47467342-.034223.65380293l-2.471 2.545 5.637-3.254c.2300482-.13085689.5222207-.05977797.6664488.16213184.1442281.22190982.0905463.51777331-.1224488.67486816l-1.177.854 2.727-1.574c.2314518-.13131281.5252013-.05833565.6682918.16602591.1430904.22436156.0853808.52148787-.1312918.67597409l-1.7 1.2 3.525-2.042c.2309306-.13173121.5245674-.05970825.6683337.16392831.1437664.22363655.0873821.52067301-.1283337.67607169l-4.261 3.033 6.71-3.874c.2313261-.13338821.5266402-.06146595.670727.16335216.1440867.22481812.0860887.52317941-.131727.67764784l-6 4.227 8.779-5.068c.2313261-.13338821.5266402-.06146595.670727.16335216.1440867.22481812.0860887.52317941-.131727.67764784l-8.227 5.833 11.567-6.678c.2347713-.13363828.5332399-.05663158.6740509.17390914.1408109.23054072.0730402.5312411-.1530509.67909086l-2.56 1.656 4.347-2.51c.2340027-.13899883.5362016-.06529813.6799386.16582441s.0762078.53476011-.1519386.68317559l-5.654 3.768 8-4.617c.2327102-.14159719.5359455-.07085834.6819808.15909275.1460353.2299511.0811265.5344876-.1459808.68490725l-8.006 5.56 11.091-6.4c.2354116-.13795832.5379577-.06170795.6798637.17134529.1419059.23305325.070765.53684142-.1598637.68265471l-1.561 1 3.215-1.857c.234721-.14552703.542973-.07322102.6885.1615s.073221.54297297-.1615.6885l-5.258 3.488 7.507-4.334c.2319831-.1309881.5259285-.05707946.6683699.16805269.1424414.22513216.0833463.52241-.1343699.67594731l-7.811 5.4 11.12-6.42c.2321092-.12908381.5246372-.05417632.6661393.17057796s.0825963.52091953-.1341393.67442204l-7.314 4.982 10.157-5.864c.2321092-.12908381.5246372-.05417632.6661393.17057796s.0825963.52091953-.1341393.67442204l-7.423 5.059 8.862-5.117c.2322377-.12731148.5234633-.05144622.664069.17299225.1406056.22443847.0818101.51958413-.134069.67300775l-5.786 3.91 6.532-3.77c.2337259-.13514606.5325293-.06033454.675.169.1430435.2296546.0774591.53143113-.148.681l-2.86 1.895 3.1-1.79c.2333681-.13826705.5344194-.06524166.6785003.16458243.144081.22982408.078635.53261347-.1475003.68241757l-3.192 2.167 3.307-1.909c.2286312-.1323821.5207966-.0640496.667.156.1461203.2207724.0948193.5171787-.117.676l-5.142 3.881 5.136-2.964c.2301828-.1290216.5210052-.0569569.6643125.1646141.1433073.2215711.0897614.5163656-.1223125.6733859l-1.6 1.146 1.2-.69c.227731-.1281621.5157443-.059345.6609391.1579231.1451949.217268.0985947.509699-.1069391.6710769l-1.4 1.071.647-.373c.2159307-.1231341.4895276-.0689462.642223.1271971.1526954.1961432.1381159.4746734-.034223.6538029l-1.7 1.745c.1938496-.0220486.3815858.0761762.474.248.1380647.2391402.0561341.5449248-.183.683l-2.79 1.611c-.2160105.1246636-.4908577.0710795-.6442199-.1255968s-.1383361-.4762947.0352199-.6554032l1.576-1.62-4.16 2.4c-.227731.1281621-.5157443.059345-.6609391-.1579231-.1451949-.217268-.0985947-.509699.1069391-.6710769l1.393-1.068-3.289 1.9c-.2308022.1338179-.5260112.0628564-.670779-.1612399s-.0880924-.5223777.128779-.6777601l1.6-1.148-3.442 1.987c-.2287194.1310429-.5198877.0620127-.6654353-.1577616-.1455476-.2197742-.0954752-.5147944.1144353-.6742384l5.14-3.881-8.164 4.714c-.2333681.1382671-.5344194.0652417-.6785003-.1645824-.144081-.2298241-.078635-.5326135.1475003-.6824176l3.193-2.167-5.22 3.014c-.2335451.1328438-.5303244.0573638-.6720248-.1709163s-.0776546-.5277351.1450248-.6780837l2.87-1.9-4.767 2.752c-.2329673.1327691-.5291919.0581284-.6714287-.1691822-.1422368-.2273105-.0798406-.5263539.1414287-.6778178l5.781-3.907-8.236 4.755c-.2328603.1351428-.5309189.0616362-.6742423-.1662803-.1433233-.2279164-.080443-.5283964.1422423-.6797197l7.422-5.057-10.225 5.9c-.2328603.1351428-.5309189.0616362-.6742423-.1662803-.1433233-.2279164-.080443-.5283964.1422423-.6797197l7.323-4.983-10.093 5.828c-.2319831.1309881-.5259285.0570795-.6683699-.1680527-.1424414-.2251321-.0833463-.52241.1343699-.6759473l7.809-5.4-10.814 6.245c-.2340569.1357068-.5336008.0606207-.6759704-.1694442s-.0759129-.5316408.1499704-.6805558l5.258-3.484-7.507 4.334c-.2347713.1336383-.5332399.0566316-.6740509-.1739091-.1408109-.2305408-.0730402-.5312411.1530509-.6790909l1.57-1.008-3.225 1.861c-.2322938.1351768-.5298928.0625367-.6737842-.164462-.1438914-.2269988-.0825928-.5271392.1387842-.679538l8-5.557-11.091 6.4c-.2340027.1389988-.5362016.0652981-.6799386-.1658244s-.0762078-.5347601.1519386-.6831756l5.654-3.767-8 4.616c-.07423767.0440055-.15870826.0677952-.245.069z" fill="#dca784"/><path id="Path" d="m20.767 41.615c-.2213642.000073-.4164276-.1454192-.4794639-.3576185-.0630363-.2121992.0209607-.4405897.2064639-.5613815l15.313-9.964-18.166 10.488c-.2361735.1361818-.537908.0580681-.6783318-.1756081-.1404239-.2336761-.0677709-.5367718.1633318-.6813919l9.293-5.8-9.94 5.739c-.2356087.1297647-.5316571.04988-.6700067-.1807924-.1383496-.2306723-.0694166-.5294607.1560067-.6762076l10.6-6.617-11.294 6.523c-.2362845.1306359-.5336041.0500916-.6716393-.181948s-.0669238-.5317553.1606393-.677052l4.288-2.632-4.565 2.64c-.2352087.125628-.5276152.0445694-.664573-.1842276-.1369579-.228797-.070267-.5248112.151573-.6727724l8.9-5.514-9.305 5.371c-.2353357.1240261-.5265799.04207-.6626998-.1864836-.1361199-.2285535-.0694507-.5236725.1516998-.6715164l6.66-4.1-6.957 4.017c-.2361017.1433179-.5436821.0681017-.687-.168s-.0681017-.5436821.168-.687l17.7-11.287-18.238 10.529c-.2349709.1292146-.5300387.050062-.6687925-.179405-.1387537-.2294671-.0717837-.5275361.1517925-.675595l16.2-10.252-16.6 9.584c-.2374824.1411088-.5443912.0629824-.6855-.1745-.14110875-.2374824-.0629824-.5443912.1745-.6855l4.8-2.939-4.754 2.745c-.234481.1270728-.52742279.0477401-.66573664-.1802909-.13831386-.2280309-.07330581-.5244809.14773664-.6737091l16.262-10.315-16.493 9.517c-.23486417.1312813-.53150396.0531604-.67124116-.1767732-.1397372-.2299337-.07245767-.5292187.15224116-.6772268l17.861-11.451-17.883 10.324c-.23583577.1260453-.52910097.0442222-.66561588-.1857118-.13651492-.2299339-.06795177-.5265795.15561588-.6732882l2.559-1.566-2.329 1.343c-.23486417.1312813-.53150396.0531604-.67124116-.1767732-.1397372-.2299337-.07245767-.5292187.15224116-.6772268l14.671-9.321-14.413 8.321c-.23497088.1292146-.53003872.050062-.66879247-.179405-.13875376-.2294671-.07178369-.5275361.15179247-.675595l12.7-8.047-12.334 7.119c-.23617349.1361818-.537908.0580681-.67833183-.1756081-.14042384-.2336761-.06777083-.5367718.16333183-.6813919l7.089-4.42-6.563 3.789c-.23560872.1297647-.5316571.04988-.67000668-.1807924-.13834959-.2306723-.06941665-.5294607.15600668-.6762076l3.209-1.987-2.586 1.493c-.23543794.13455-.53521485.0569022-.67572813-.1750261s-.0705395-.5335888.15772813-.6799739l9.994-6.377-9.232 5.33c-.23520866.125628-.52761522.0445694-.66457305-.1842276-.13695782-.228797-.07026696-.5248112.15157305-.6727724l.832-.517c-.2349781.111232-.51599245.0238329-.64643467-.2010495s-.06678498-.512207.14643467-.6609505l11.348-7.565-9.949 5.741c-.23582559.1438702-.54362981.0693256-.68749998-.1665s-.06932559-.5436298.16649998-.6875l3.588-2.3-2.285 1.316c-.2340027.1389988-.5362016.0652981-.6799386-.1658244-.14373698-.2311225-.07620783-.5347601.1519386-.6831756l4.98-3.329-2.915 1.683c-.2263468.1267998-.5120755.0594093-.6579064-.1551704-.1458308-.2145797-.1033101-.5050523.0979064-.6688296l4.757-3.776c-.1840232-.00164738-.3549324-.09555352-.455-.25-.1375532-.23865551-.0561721-.54361136.182-.682l5.344-3.085c.2263468-.12679976.5120755-.05940926.6579064.15517041.1458308.21457967.1033101.50505233-.0979064.66882959l-4.458 3.539 10.164-5.872c.2334461-.13529908.5321345-.06097219.6749447.16795606.1428102.22892826.0782242.52987333-.1459447.68004394l-4.981 3.332 7.381-4.263c.2347713-.13363828.5332399-.05663158.6740509.17390914.1408109.23054072.0730402.5312411-.1530509.67909086l-3.585 2.3 5.173-2.986c.2330829-.13066131.5277074-.05496574.6689423.17186612.1412349.22683187.0791592.52462377-.1409423.67613388l-11.343 7.567 13.552-7.824c.2356087-.12976469.5316571-.04987998.6700067.18079237.1383496.23067236.0694166.52946069-.1560067.67620763l-.826.512 1.7-.984c.2361017-.14331789.5436821-.06810173.687.168s.0681017.54368211-.168.687l-9.992 6.376 11.239-6.487c.2356087-.12976469.5316571-.04987998.6700067.18079237.1383496.23067236.0694166.52946069-.1560067.67620763l-3.214 1.993 3.97-2.293c.2356087-.12976469.5316571-.04987998.6700067.18079237.1383496.23067236.0694166.52946069-.1560067.67620763l-7.079 4.414 7.8-4.5c.234481-.12707284.5274228-.04774006.6657366.18029089.1383139.22803094.0733058.52448086-.1477366.67370911l-12.7 8.046 13.735-7.93c.2354379-.13454995.5352149-.05690217.6757281.17502611.1405133.23192829.0705395.53358878-.1577281.67997389l-14.67 9.322 15.553-8.978c.2362845-.13063592.5336041-.05009165.6716393.18194798.1380352.23203962.0669238.53175531-.1606393.67705202l-2.563 1.569 2.926-1.686c.2343611-.12889229.5286543-.05052268.6678755.17785371.1392213.22837639.0740613.52587341-.1478755.67514629l-17.853 11.447 18.7-10.8c.2341527-.12371504.5241564-.04339881.6613045.18314763.1371481.22654645.0738659.52073714-.1443045.67085237l-16.274 10.32 16.925-9.774c.2374824-.1413849.5446151-.06348244.686.174.1413849.2374824.0634824.5446151-.174.686l-4.807 2.945 4.9-2.83c.2349709-.1292146.5300387-.050062.6687925.179405.1387537.2294671.0717837.5275361-.1517925.675595l-16.2 10.254 16.626-9.6c.2348642-.1312813.531504-.0531604.6712412.1767732.1397372.2299337.0724576.5292187-.1522412.6772268l-17.7 11.287 17.979-10.38c.2372063-.1413849.5441151-.0637063.6855.1735s.0637063.5441151-.1735.6855l-6.661 4.1 6.63-3.827c.2352087-.125628.5276152-.0445694.664573.1842276.1369579.228797.070267.5248112-.151573.6727724l-8.908 5.523 8.8-5.082c.2357179-.1278172.530297-.0469384.667702.1833224.137405.2302607.0687118.5279174-.155702.6746776l-4.277 2.625 4.048-2.337c.2361735-.1361818.537908-.0580681.6783318.1756081.1404239.2336761.0677709.5367718-.1633318.6813919l-10.61 6.622 10.448-6.031c.2347345-.1238045.5252986-.0426548.6619149.1848618.1366163.2275167.0716853.5221296-.1479149.6711382l-9.289 5.795 8.9-5.136c.2342478-.1308833.5300435-.0535271.6702262.1752769s.074765.527467-.1482262.6767231l-15.32 9.964 14.937-8.622c.2342478-.1308833.5300435-.0535271.6702262.1752769s.074765.527467-.1482262.6767231l-11.222 7.259 10.527-6.078c.2350866-.127347.5287583-.0472199.6665908.1818764.1378325.2290964.071048.5260868-.1515908.6741236l-.858.537.237-.137c.232368-.1256461.5223842-.0488566.6621282.1753162.1397441.2241727.0809951.5183743-.1341282.6716838l-9.611 6.45 8.5-4.91c.2310609-.1298083.523268-.0567757.6660866.1664779.1428185.2232536.086628.5191613-.1280866.6745221l-8.476 5.993 6.943-4.009c.2329061-.1254293.5232086-.0477402.6623373.1772508s.0789338.5194187-.1373373.6717492l-1.025.677c.1855297-.0191807.3654729.0704014.462.23.143445.2259723.0834971.5248302-.136.678l-1.878 1.313c.2288051-.094681.4924461-.0076273.619883.204684.1274369.2123114.0802775.4859186-.110883.643316l-2.99 2.458c.1931848.0549773.3347195.2202185.3593641.4195562s-.0723853.3940732-.2463641.4944438l-4.152 2.4c-.2253151.1304911-.5130605.0662242-.6614447-.1477312-.1483843-.2139555-.1077334-.5059746.0934447-.6712688l2.274-1.869-4.658 2.689c-.2318603.1330617-.527371.0602043-.6708066-.1653857-.1434357-.22559-.0840493-.5240996.1348066-.6776143l1.846-1.29-3.695 2.133c-.2340569.1357068-.5336008.0606207-.6759704-.1694442s-.0759129-.5316408.1499704-.6805558l.331-.218-1.852 1.069c-.2310609.1298083-.523268.0567757-.6660866-.1664779-.1428185-.2232536-.086628-.5191613.1280866-.6745221l8.489-5.992-11.838 6.831c-.2330829.1306613-.5277074.0549657-.6689423-.1718661-.1412349-.2268319-.0791592-.5246238.1409423-.6761339l9.609-6.448-12.639 7.3c-.2356087.1297647-.5316571.04988-.6700067-.1807924-.1383496-.2306723-.0694166-.5294607.1560067-.6762076l.856-.535-2.412 1.393c-.2347713.1336383-.5332399.0566316-.6740509-.1739091-.1408109-.2305408-.0730402-.5312411.1530509-.6790909l11.235-7.266-14.069 8.116c-.0758978.0441549-.1621931.067282-.25.067z" fill="#b4703a"/><path id="Path" d="m28.617 28.41c-.2216195-.0001299-.4167104-.1461308-.4793315-.3587192-.0626212-.2125884.022171-.4410331.2083315-.5612808l1.164-.751-2.78 1.6c-.2283001.1074483-.5008831.0279577-.63564-.1853651-.134757-.2133227-.0894551-.4936226.10564-.6536349l9.179-6.323-12.419 7.166c-.1523738.0932463-.3429193.098119-.4998598.0127826-.1569406-.0853364-.2564332-.2479173-.261-.4265s.086486-.3460363.2388598-.4392826l6.062-3.924-7.858 4.534c-.2337734.1287456-.5274505.051198-.667188-.1761759-.1397374-.2273739-.07627-.5244122.144188-.6748241l8.206-5.337-9.588 5.535c-.2349709.1292146-.5300387.050062-.6687925-.179405-.1387537-.2294671-.0717837-.5275361.1517925-.675595l3.895-2.462-4.594 2.652c-.2361735.1361818-.537908.0580681-.6783318-.1756081-.1404239-.2336761-.0677709-.5367718.1633318-.6813919l.1-.061-.451.26c-.2348642.1312813-.531504.0531604-.6712412-.1767732-.1397372-.2299337-.0724576-.5292187.1522412-.6772268l6.081-3.885-6.531 3.77c-.2336556.130691-.5287926.0541466-.6694787-.1736308-.140686-.2277774-.0769932-.5259521.1444787-.6763692l9.039-5.93-9.5 5.481c-.2333291.1269664-.5252099.0493179-.6646076-.1768043-.1393976-.2261221-.0776459-.5217747.1406076-.6731957l7.07-4.637-7.246 4.185c-.2313261.1333882-.5266402.061466-.670727-.1633522-.1440867-.2248181-.0860887-.5231794.131727-.6776478l6.923-4.9-6.893 3.987c-.2328603.1351428-.5309189.0616362-.6742423-.1662803-.1433233-.2279164-.080443-.5283964.1422423-.6797197l3.641-2.491-3.25 1.876c-.2340027.1389988-.5362016.0652981-.6799386-.1658244s-.0762078-.5347601.1519386-.6831756l.657-.438-.136.078c-.2279124.1308241-.5182022.0628918-.6643976-.1554793-.1461953-.2183711-.0983971-.512647.1093976-.6735207l5.022-3.86-3.9 2.25c-.2197017.1368532-.5075279.0834076-.6634543-.1231949s-.128398-.4980515.0634543-.6718051l3.049-2.896c-.2415217.0720682-.4989251-.0468973-.6005354-.2775527s-.0156562-.5008797.2005354-.6304473l3.508-2.026c.2209139-.16568541.5343146-.12091388.7.10000001.1656854.2209139.1209139.53431456-.1.69999999l-3.012 2.866 6.825-3.94c.2279124-.13082408.5182022-.06289178.6643976.1554793.1461953.21837108.0983971.51264698-.1093976.6735207l-5.019 3.858 6.83-3.944c.2340027-.13899883.5362016-.06529813.6799386.16582441s.0762078.53476009-.1519386.68317559l-.663.443 1.344-.776c.2328603-.1351428.5309189-.06163618.6742423.1662803.1433233.2279164.080443.5283964-.1422423.6797197l-3.634 2.485 4.948-2.856c.2306836-.128482.5215078-.0554404.6641078.1667933s.0878131.5170425-.1251078.6732067l-6.924 4.9 13.067-7.544c.2333291-.12696636.5252099-.04931787.6646076.17680427.1393976.22612213.0776459.5217747-.1406076.67319573l-7.082 4.628 9.412-5.433c.2333291-.12696636.5252099-.04931787.6646076.17680427.1393976.22612213.0776459.5217747-.1406076.67319573l-9.034 5.933 10.644-6.145c.2348642-.13128134.531504-.05316042.6712412.17677323.1397372.22993366.0724576.52921867-.1522412.67722677l-6.082 3.887 6.957-4.017c.2361735-.13618181.537908-.0580681.6783318.1756081.1404239.2336761.0677709.5367718-.1633318.6813919l-.119.075.446-.258c.2354379-.13455.5352149-.0569022.6757281.1750261.1405133.2319283.0705395.5335888-.1577281.6799739l-3.871 2.442 4.3-2.484c.2347034-.1364868.5354374-.0607325.6774741.1706544.1420368.2313868.073465.5338394-.1544741.6813456l-8.211 5.34 8.6-4.966c.2342478-.1308833.5300435-.0535271.6702262.1752769s.074765.527467-.1482262.6767231l-6.07 3.928 6.22-3.591c.2324067-.1328499.5282158-.0590851.6710333.1673329s.0819688.5251514-.1380333.6776671l-9.171 6.329 9.3-5.373c.2355494-.1441463.5433537-.0700494.6875.1655s.0700494.5433537-.1655.6875l-1.161.749.841-.485c.2336556-.130691.5287926-.0541466.6694787.1736308.140686.2277774.0769932.5259521-.1444787.6763692l-1.87 1.232 1.407-.811c.2292016-.1303039.5201978-.0602449.6649792.1600976s.0935911.5152436-.1169792.6739024l-5.5 4.089 4.65-2.685c.2313261-.1333882.5266402-.061466.670727.1633522.1440867.2248181.0860887.5231794-.131727.6776478l-1.093.774c.2245458-.1141858.4989723-.0434922.6404021.1649708s.1056902.489586-.0834021.6560292l-2.31 2.023c.1474533.0237991.2761671.1131633.35.243.1382327.2388784.0567713.5445824-.182.683l-3.645 2.1c-.2206399.1157669-.4928428.0514157-.6382861-.1508963-.1454432-.2023121-.1197337-.4808342.0602861-.6531037l1.867-1.639-4.924 2.843c-.1505874.0969976-.3414836.1062896-.5007797.0243759-.1592961-.0819138-.2627913-.2425886-.2715-.4215s.0786923-.3488783.2292797-.4458759l1.09-.772-2.79 1.615c-.2292016.1303039-.5201978.0602449-.6649792-.1600976s-.0935911-.5152436.1169792-.6739024l5.507-4.09-8.53 4.924c-.2340569.1357068-.5336008.0606207-.6759704-.1694442s-.0759129-.5316408.1499704-.6805558l1.868-1.23-3.605 2.08c-.0756048.0439835-.1615321.0671045-.249.067z" fill="#ffcc9d"/><path id="Path" d="m28.451 49.326c-.2202536-.0001707-.4144542-.1444469-.478208-.3552717s.0179569-.4385371.201208-.5607283l1.533-1.024-2.74 1.582c-.2347029.1405531-.538787.0663884-.6824238-.1664401-.1436368-.2328284-.0734897-.5378644.1574238-.6845599l1.687-1.108-2.654 1.532c-.2328603.1351428-.5309189.0616362-.6742423-.1662803-.1433233-.2279164-.080443-.5283964.1422423-.6797197l6.46-4.4-7.671 4.428c-.2329673.1327691-.5291919.0581284-.6714287-.1691822-.1422368-.2273105-.0798406-.5263539.1414287-.6778178l7.598-5.138-8.634 4.985c-.2334461.1352991-.5321345.0609722-.6749447-.1679561-.1428102-.2289282-.0782242-.5298733.1459447-.6800439l8.178-5.51-9.023 5.209c-.2338963.1269547-.5262491.04845-.6650871-.1785941-.1388379-.227044-.0755015-.5230536.1440871-.6734059l4.4-2.846-4.738 2.735c-.2330829.1306613-.5277074.0549657-.6689423-.1718661-.1412349-.2268319-.0791592-.5246238.1409423-.6761339l7.886-5.248-8.28 4.78c-.2352733.1446986-.5433014.0712733-.688-.164s-.0712733-.5433014.164-.688l5.576-3.636-5.743 3.315c-.2349709.1292146-.5300387.050062-.6687925-.179405-.1387537-.2294671-.0717837-.5275361.1517925-.675595l.36-.228-.179.1c-.2324067.1328499-.5282158.0590851-.6710333-.1673329s-.0819688-.5251514.1380333-.6776671l9.263-6.381-9.231 5.33c-.2342478.1308833-.5300435.0535271-.6702262-.1752769s-.074765-.527467.1482262-.6767231l2.268-1.465-1.881 1.085c-.2347029.1405531-.538787.0663884-.6824238-.1664401-.1436368-.2328284-.0734897-.5378644.1574238-.6845599l3.4-2.24-2.841 1.64c-.2328603.1351428-.5309189.0616362-.6742423-.1662803-.1433233-.2279164-.080443-.5283964.1422423-.6797197l4.555-3.114-3.8 2.2c-.2290632.1321979-.5214568.063148-.6671806-.1575572-.1457237-.2207053-.094369-.5167199.1171806-.6754428l5.013-3.76-3.455 1.993c-.2234866.1250979-.5053669.0610931-.6529133-.148253-.1475465-.209346-.1130458-.4963352.0799133-.664747l3.06-2.596c-.217085-.0196065-.3964546-.1775829-.443327-.3904522-.0468724-.2128692.0495544-.4315742.238327-.5405478l4.105-2.373c.2238916-.1275836.5080784-.0641108.6564103.1466086.148332.2107193.1122202.4996603-.0834103.6673914l-2.663 2.26 5.862-3.384c.2290632-.1321979.5214568-.063148.6671806.1575572.1457237.2207053.094369.5167199-.1171806.6754428l-5.013 3.76 7.958-4.594c.2321092-.1290838.5246372-.0541763.6661393.170578.1415021.2247542.0825963.5209195-.1341393.674422l-4.548 3.11 6.285-3.631c.2336556-.130691.5287926-.0541466.6694787.1736308.140686.2277774.0769932.5259521-.1444787.6763692l-3.415 2.25 4.341-2.5c.2342478-.1308833.5300435-.0535271.6702262.1752769s.074765.527467-.1482262.6767231l-2.26 1.461 2.838-1.638c.23171-.1276221.5227312-.0526794.6639792.1709853s.08384.5186462-.1309792.6730147l-9.261 6.379 10.386-6c.1529097-.0925318.3435692-.0964583.5001589-.0103006.1565897.0861578.2553199.2493105.259.428.00368.1786896-.0882492.3457688-.2411589.4383006l-.378.238.6-.346c.2352733-.1446986.5433014-.0712733.688.164.1446985.2352733.0712733.5433014-.164.688l-5.577 3.637 5.968-3.445c.2340027-.1389988.5362016-.0652981.6799386.1658244s.0762078.5347601-.1519386.6831756l-7.886 5.248 8.223-4.747c.2338963-.1269547.5262491-.04845.6650871.1785941.1388379.227044.0755015.5230536-.1440871.6734059l-4.386 2.839 4.4-2.544c.2334461-.1352991.5321345-.0609722.6749447.1679561.1428102.2289282.0782242.5298733-.1459447.6800439l-8.182 5.515 8.24-4.756c.2322377-.1273115.5234633-.0514462.664069.1729923.1406056.2244384.0818101.5195841-.134069.6730077l-7.591 5.14 7.289-4.208c.2325262-.1307666.5267591-.0559509.6685809.1700024s.0812744.5234503-.1375809.6759976l-6.455 4.392 5.928-3.422c.2347029-.1405531.538787-.0663884.6824238.1664401.1436368.2328284.0734897.5378644-.1574238.6845599l-1.692 1.111 1.018-.587c.2335451-.1328438.5303244-.0573638.6720248.1709163s.0776546.5277351-.1450248.6780837l-1.533 1.023.5-.287c.228242-.1318458.5196375-.063862.6659708.1553737.1463332.2192358.0973404.5144185-.1119708.6746263l-4.191 3.2 2.217-1.28c.23893-.1358451.5427102-.0533708.6801373.1846528.137427.2380237.0569695.5423443-.1801373.6813472l-8.954 5.167c-.228242.1318458-.5196375.063862-.6659708-.1553737-.1463332-.2192358-.0973404-.5144185.1119708-.6746263l4.191-3.2-7.027 4.058c-.0756048.0439835-.1615321.0671045-.249.067z" fill="#ffcc9d"/><path id="Path" d="m29.689 28.445c-.2008764-.000421-.3819979-.1210167-.4598618-.3061889-.0778639-.1851721-.0373507-.398964.1028618-.5428111l1.09-1.115-2.489 1.437c-.2133584.1241762-.485411.074054-.640507-.1180054-.1550961-.1920593-.1468105-.4685664.019507-.6509946l1.717-1.891-2.529 1.463c-.2073289.1198377-.4705164.0758472-.6276039-.1049009-.1570875-.1807482-.1639632-.4474982-.0163961-.6360991l.83-1.063-.069.039c-.2374252.1242009-.5305531.0391619-.6646466-.1928199-.1340935-.2319817-.0614797-.5284321.1646466-.6721801l2.283-1.323c.2060643-.1206683.4686948-.0787814.627.1.1575123.180342.1650603.447038.018.636l-.83 1.063 3.08-1.778c.2132902-.1227487.4841863-.0720462.6386451.1195326.1544588.1915787.14655.4670654-.0186451.6494674l-1.715 1.895 2.873-1.653c.2162377-.1247517.4913592-.0708905.6445905.1261931.1532312.1970836.1376138.4769924-.0365905.6558069l-1.089 1.113 1.124-.648c.2374252-.1242009.5305531-.0391619.6646466.1928199.1340935.2319817.0614797.5284321-.1646466.6721801l-4.277 2.47c-.0761974.0429854-.1625314.0647416-.25.063z" fill="#4f442b"/><path id="Path" d="m21.518 22.383c-.209847.0005092-.3976837-.1300699-.470312-.3269485-.0726283-.1968785-.0145925-.4181597.145312-.5540515l.155-.131-.87.5c-.225024.1298327-.5119893.0657046-.6603401-.147566s-.108657-.5046224.0913401-.670434l.991-.817-1.421.821c-.2198926.1179958-.4931214.0557887-.6402596-.1457705s-.1231296-.4807496.0562596-.6542295l2.523-2.26-2.812 1.622c-.2256086.1271264-.5109479.0609576-.657579-.1524896-.1466312-.2134471-.106025-.5035297.093579-.6685104l1.3-1.055-1.008.581c-.2271272.1307942-.5167067.0640046-.6636035-.1530559-.1468968-.2170604-.1012506-.5107158.1046035-.6729441l.389-.3c-.1601434.0018966-.3119126-.0713968-.41-.198-.153884-.1938185-.1428288-.4710504.026-.652l1.288-1.378c-.2110136-.0302381-.3796517-.1909347-.4200252-.4002457-.0403736-.2093109.0563968-.4212016.2410252-.5277543l2.34-1.352c.2147383-.1258126.489315-.0745375.6441753.1202949.1548603.1948323.1428507.4738973-.0281753.6547051l-1.04 1.112 2.616-1.51c.227445-.1317107.5180356-.064845.6650404.1530278.1470048.2178727.1002333.512366-.1070404.6739722l-.07.055.409-.236c.2257586-.1294404.5130594-.0640705.6605892.1503047.1475298.2143751.1059565.5060712-.0955892.6706953l-1.3 1.054 1.5-.868c.2198926-.1179958.4931214-.0557887.6402596.1457705s.1231296.4807496-.0562596.6542295l-2.525 2.261 2.472-1.426c.2254575-.1330437.5153687-.0696598.6647344.1453323.1493656.2149921.1076129.5087994-.0957344.6736677l-.986.811.42-.242c.2240205-.1297641.5100442-.0670649.6592395.1445117s.1122125.502047-.0852395.6694883l-.661.561c.2061322.0379608.3667096.2004586.4022171.4070276.0355075.2065689-.0615922.4133593-.2432171.5179724l-3.926 2.267c-.0738273.0454524-.1583352.0706323-.245.073z" fill="#fff"/><path id="Path" d="m37.031 22.3c-.1636118-.0002692-.3167414-.0805689-.41-.215-.1485511-.2135445-.1085462-.5053198.092-.671l.308-.254-.9.516c-.2187434.1297091-.5000021.0745628-.6535686-.128145s-.1305136-.4883932.0535686-.663855l2.806-2.72-3.479 2.009c-.226507.1291681-.5142486.0625855-.6609917-.1529516-.1467432-.2155372-.103215-.5076567.0999917-.6710484l1.14-.907-1 .58c-.217123.1206668-.4899085.063641-.6405105-.1338986s-.1333491-.4756874.0405105-.6531014l2.54-2.534-1.931 1.115c-.217772.1239843-.4936884.0676117-.6453756-.131857-.1516872-.1994686-.1322878-.4804159.0453756-.657143l1.1-1.088c-.0980985-.0432313-.1800062-.1163882-.234-.209-.1380647-.2391402-.0561341-.5449248.183-.683l2.341-1.352c.2174475-.1222843.4917629-.0655717.6428937.1329134.1511308.1984852.1328285.4780031-.0428937.6550866l-.534.529 1.877-1.083c.2167987-.1191224.4881174-.0618073.638215.1348206s.1338516.473458-.038215.6511794l-2.539 2.534 3.524-2.034c.226507-.1291681.5142486-.0625855.6609917.1529516.1467432.2155372.103215.5076567-.0999917.6710484l-1.136.9 1.155-.667c.2187434-.1297091.5000021-.0745628.6535686.128145s.1305136.4883932-.0535686.663855l-2.808 2.722 2.553-1.473c.224807-.1297342.5115024-.0658793.66.147.1485511.2135445.1085462.5053198-.092.671l-.592.489c.1829863-.0057652.3540407.0905492.444.25.1380647.2391402.0561341.5449248-.183.683l-4.635 2.676c-.0756184.0452887-.1618652.0697828-.25.071z" fill="#fff"/><g fill="#262626"><path id="Shape" d="m21.638 12.65c-2.5009901.3390852-4.3653481 2.4761301-4.362 5-.0442243 1.2964916.4642713 2.5507587 1.3988482 3.4504321.934577.8996734 2.2072812 1.3600837 3.5011518 1.2665679 2.559673-.2555988 4.5179519-2.3947612 4.547-4.967 0-.018-.012-.027-.014-.044s.016-.034.015-.053c-.14-2.74-2.203-5.027-5.086-4.653zm-.408 8.75c-1.5642103-.7264894-2.5409334-2.3194266-2.479-4.043 0-2.2 1.759-4.713 4.224-3.655 1.4466739.7837402 2.3342738 2.310026 2.3 3.955-.131 2.011-1.575 4.723-4.045 3.743z"/><path id="Shape" d="m37.641 12.659c-2.4981452.3359167-4.3629544 2.4673715-4.364 4.988-.0448619 1.2957319.4638384 2.5493249 1.3989324 3.4473968s2.2082035 1.3557436 3.5010676 1.2586032c2.5545019-.2541942 4.5108024-2.3861098 4.545-4.953 0-.017-.011-.026-.013-.042s.016-.034.015-.053c-.14-2.744-2.201-5.021-5.083-4.646zm-.409 8.741c-1.5655662-.7290847-2.5430358-2.3240693-2.482-4.05 0-2.2 1.756-4.722 4.223-3.658 1.4489274.7864184 2.3366758 2.3168193 2.3 3.965-.129 2.015-1.573 4.734-4.041 3.743z"/><path id="Shape" d="m42.5 4.212c-3.0448828-1.99110032-6.5283072-3.21184322-10.15-3.557-5.0588424-.44854305-10.1259758.76478839-14.433 3.456-5.090722-2.6456455-11.332845-1.43913603-15.071 2.913-4.953 5.989-2.23 14.476 4.542 17.51.60571745 6.7932758 4.1675221 12.9767004 9.74 16.909 2.014 4.941 7.339 8.089 12.717 8.095 5.424.006 10.838-3.089 12.954-8.113 2.339-.817 4.983-4.543 6.087-6.163 2.2243513-3.28807 3.5306528-7.1103137 3.784-11.072 6.576-3.1 9.5-11.339 4.544-17.383-3.737-4.557-9.746-4.949-14.714-2.595zm-40.776 9.594c.02004062-3.6078857 1.92947065-6.94134826 5.03146153-8.78387188s6.94271587-1.92454383 10.12053847-.21612812c-.8833459.61645824-1.7220952 1.2944751-2.51 2.029-7.946-1.921-13.931 8.028-6.866 13.333-.13338379 1.0293831-.19087222 2.0671828-.172 3.105-3.43694332-1.9158104-5.57770139-5.5322551-5.604-9.467zm6.027 4.774c-4.151-4.37-.893-12.293 5.673-10.825-1.5374058 1.60098708-2.8248522 3.4244481-3.819 5.409-.8528198 1.7162241-1.47616726 3.5371787-1.854 5.416zm22.4 29.812c-13-.116-16.849-17.033-4.757-22.008.443 1.339 2.082 2.012 3.87 2.085v8.594c0 .021.012.034.015.053-.22 2.174-2.551 4.671-5.136 2.7-.894181-.7445984-1.4147755-1.8454198-1.423-3.009-.033-.333-1.492-.048-1.448.388.488 4.841 6.366 5.139 8.6 1.946 2.04 3.573 8.366 2.444 8.839-2.257.044-.429-1.4-.146-1.434.234-.22 2.174-2.551 4.671-5.136 2.7-.8798152-.7290955-1.3967759-1.8064927-1.415-2.949v-8.46c1.4527221-.1001243 2.7877436-.834569 3.65-2.008 11.449 4.828 9.472 22.112-4.221 21.991zm4.549-23.192c-.535-3.707-8.835-3.461-9.371.086-1.380125.5328214-2.6829607 1.2474642-3.874 2.125-5-1.108-8.643-5.543-7.535-10.876 1.39-6.694 6.765-6.893 12.718-5.914 2.1.345.88.789 3.093.812 5.051.053 9.677-3.74 14.019.881 2.2846947 2.4161034 3.0618585 5.8898093 2.0245416 9.0491383-1.0373168 3.159329-3.7223217 5.4962853-6.9945416 6.0878617-1.2401309-.9496065-2.6153518-1.7083374-4.08-2.251zm-4.159 2.4c-.2722856-.1315098-.5897144-.1315098-.862 0-1.517-.121-2.936-.881-2.921-2.232.032-2.894 6.15-2.456 6.506.28-.156 1.198-1.377 1.836-2.725 1.952zm16.985 7.586c-1.2763292 1.832552-2.7209287 3.5419668-4.315 5.106.063-.208.133-.412.185-.625 1.0349173-4.2567646-.4385343-8.7317924-3.8-11.541 5.4-1.483 9.429-6.4 7.762-12.341-.8243506-2.8942195-2.912225-5.2610406-5.681-6.44-3.583-1.513-5.793-.081-9.179.561-4.215.8-7.718-1.968-11.941-1.112-2.6146576.52578328-4.9309553 2.0275509-6.478 4.2-4.307 6.138-.363 13.657 6.372 15.238-2.9895967 2.5011466-4.528704 6.3327728-4.1 10.207.032.285.087.56.139.837-6.3268811-5.3328342-9.07577189-13.7962386-7.09-21.829 2.5307232-9.802004 11.6110118-16.46851858 21.721-15.947 6.4838388.43626706 12.4266939 3.76853905 16.1808834 9.0729293 3.7541894 5.3043902 4.9207018 12.0171253 3.1761166 18.2770707-.631394 2.2581459-1.6293395 4.3972763-2.954 6.332zm-1.026-27.667c6.454-1.192 9.913 6.8 5.847 11.28-.7946133-4.25411-2.828815-8.1784807-5.847-11.28zm6.191 16.075c.0519829-1.2074939.0048248-2.4172172-.141-3.617-.007-.054-.02-.106-.028-.161 3.084-2.343 4.268-6.525 2-9.921-1.922-2.895-5.322-3.659-8.507-2.878-.9301272-.90900988-1.9361081-1.73701211-3.007-2.475 12.622-6.623 20.865 12.686 9.686 19.052z"/><path id="Path" d="m21.276 17.194v1c0 .4 1.448.145 1.448-.388v-1c0-.406-1.448-.145-1.448.388z"/><path id="Path" d="m37.273 17.083v1c0 .638 1.454.349 1.454-.166v-1c0-.638-1.454-.349-1.454.166z"/></g></g></svg>