<svg height="512" viewBox="0 0 60 60" width="512" xmlns="http://www.w3.org/2000/svg"><g id="c"><path d="m33 23-22.85 7.95c-.1-.24-.15-.49-.15-.75v-26.86c0-.88 1.06-1.33 1.69-.72l13.69 13.09z" fill="#ff5797"/><path d="m33 23-2.91 28.11c-.2.14-.4.25-.62.34l-8.34-8.76-10.58-11.11c-.17-.18-.31-.4-.4-.63z" fill="#ffbcd5"/><path d="m39.85 16.15-.43.43-6.42 6.42-7.62-7.29 6.65-14.14c.37-.78 1.5-.75 1.83.05z" fill="#bb69cc"/><path d="m54.34 22.7-9.34-1.7v-9.6c.39-.11.81-.09 1.21.05l5.9 2.21c.56.22 1 .67 1.19 1.25l2.17 6.49c.24.72-.38 1.43-1.13 1.3z" fill="#ff5797"/><path d="m45 11.4v23.25c0 .64-.15 1.27-.44 1.83l-11.56-13.48 6.42-6.42.43-.43 4.24-4.24c.25-.25.57-.43.91-.51z" fill="#ffbcd5"/><path d="m44.56 36.48c-.19.37-.43.7-.73 1l-13.16 13.16c-.18.18-.37.34-.58.47l2.91-28.11z" fill="#ff5797"/><path d="m29.47 51.45c-.12.06-.24.11-.37.15l-18.6 7.33c-.95.37-1.79-.76-1.14-1.56l11.77-14.68z" fill="#ff5797"/><path d="m53.991 14.673c-.243-.756-.831-1.39-1.569-1.686-.406-.164-1.543-.593-1.957-.761l-2.591-1.006c-.96-.349-2.103-.998-3.182-.612-.973.235-1.774 1.332-2.475 1.959-.333.328-1.07 1.053-1.998 1.966-1.667-4.515-3.921-8.817-5.907-13.196-.471-1.013-2.01-1.086-2.579-.141-.206.368-.298.672-.464 1.014-1.899 4.204-3.927 8.369-6.262 12.356-2.53-2.326-5.044-4.668-7.54-7.03l-3.978-3.767c-.313-.302-1.195-1.124-1.492-1.413-1.064-1.006-2.591-.056-2.39 1.345-.025 7.069-.175 18.284-.329 25.337-.051 1.076-.111 2.292.751 3.116l3.71 4.032c2.057 2.215 4.109 4.436 6.172 6.645-2.326 3.02-6.577 8.539-8.248 10.673-.685.866-2.009 2.565-2.675 3.405-1.224 1.424.422 3.301 2.024 2.396 4.114-1.686 11.874-4.79 16.066-6.445.881-.4 2.746-.932 3.49-1.579 2.806-2.713 8.585-8.601 11.426-11.388.635-.674 2.093-1.967 2.637-2.714.828-1.061.845-2.528.813-3.809l.01-2.474s.063-8.131.071-9.255c2.071.398 6.03 1.16 7.565 1.454.536.095.887.203 1.512.243.773-.026 1.452-.647 1.544-1.418.083-.704-.239-1.06-.353-1.625-.523-1.62-1.279-4.008-1.803-5.624zm-9.823-1.637c-.313 2.64-.214 5.287.31 7.922 0 .015-.01.027-.009.043l.076 9.897.01 2.474c.012.541.032 1.137-.037 1.711-1.295-2.09-3.83-4.024-5.366-5.663-1.865-1.913-3.566-3.956-4.981-6.226.852-.866 7.312-7.43 7.312-7.43.66-.661 1.813-1.853 2.685-2.728zm-14.822-4.756c.819-1.856 1.79-3.876 2.685-5.71.251-.387.374-1.167.945-1.087.451.026.528.828.736 1.271 1.634 4.41 3.038 8.951 5.062 13.202-2.113 2.079-4.586 4.514-5.856 5.764-2.216-1.97-4.415-3.957-6.602-5.957.909-2.542 1.93-5.031 3.03-7.483zm-18.272-5.54c.264-.021.683.542.863.67 6.504 6.258 13.071 12.664 19.371 19.142-6.882 2.344-13.752 4.724-20.578 7.23 0-.252.011-.506-.008-.742-.16-7.212-.304-18.453-.332-25.68-.023-.368.325-.667.684-.62zm.43 28.703c6.818-2.244 13.593-4.609 20.356-7.01-.251 1.825-.337 3.667-.463 5.505-.315 6.608-.726 13.881-1.689 20.44-4.75-5.276-9.75-10.313-14.709-15.39 0 0-2.544-2.581-3.494-3.545zm6.053 24.207-4.626 1.765-2.313.883-.289.11c-.332.169-.689-.186-.622-.492 2.785-3.618 7.981-9.69 11.403-13.801 2.342 2.492 4.715 4.955 7.141 7.368-2.618 1.015-9.121 3.566-10.693 4.167zm13.093-5.582c.077-1.183.172-2.364.284-3.543.102.135.217.276.346.419.32.355.701.714 1.031.99.096.08.185.149.27.213-.848.843-1.669 1.659-1.669 1.659-.089.091-.175.176-.261.262zm12.104-12.12c-.106-.151-.279-.345-.48-.545-.219-.218-.463-.436-.659-.589s-.339-.235-.377-.198c-.034.034-.049.083-.021.122.21.286.45.546.703.79.127.122.258.239.394.351.094.078.194.15.293.223-.488.505-1.052 1.078-1.651 1.681-.214-.301-.564-.692-.962-1.087-.439-.436-.926-.872-1.319-1.177s-.679-.47-.754-.396c-.069.068-.099.166-.042.244.42.573.899 1.092 1.406 1.58.253.244.516.478.788.702.187.154.384.296.579.44-.491.493-1.001 1.001-1.511 1.51-.322-.448-.841-1.026-1.428-1.61-.659-.655-1.389-1.308-1.978-1.766s-1.037-.721-1.131-.594c-.118.084-.146.247-.062.366.645.848 1.349 1.638 2.109 2.37.38.366.774.717 1.183 1.053.272.224.56.432.845.643-.531.527-1.055 1.048-1.552 1.542-.253-.362-.639-.808-1.078-1.256-.546-.555-1.16-1.11-1.663-1.507s-.888-.625-.998-.558c-.106.065-.157.167-.12.252.222.507.73 1.139 1.316 1.753.117.122.238.243.359.362.332.324.678.635 1.026.924.035.029.07.058.105.086.192.157.38.301.562.433-.569.566-1.082 1.078-1.512 1.512-.185-.272-.44-.583-.74-.9-.433-.455-.93-.912-1.347-1.249s-.753-.55-.866-.521c-.104.026-.166.085-.177.138-.068.316.367.934.938 1.546.098.105.2.21.304.313.283.282.581.553.87.796.029.024.058.048.087.072.15.123.289.229.422.324-.064.066-.136.139-.193.198l-1.274 1.266c-.118-.167-.265-.346-.428-.527-.32-.355-.701-.714-1.031-.99-.282-.235-.521-.401-.663-.459.051-.495.093-.991.148-1.485.53-6.199 2.087-12.971 2.592-19.281.623.582 1.224 1.183 1.802 1.804 1.811 1.858 3.905 4.907 5.411 7.054.864 1.103 1.646 2.276 2.897 3.047-.277.314-.663.726-1.121 1.202zm11.242-15.945-.685-.117-2.739-.47s-4.147-.711-4.976-.853c.304-1.521.388-3.042.402-4.563-.012-1.27-.067-2.539-.26-3.809.543.09 1.125.409 1.571.533l2.613.946 1.307.473c.438.166 1.077.314 1.29.791.172.322.516 1.503.66 1.841.409 1.272 1.383 3.816 1.691 4.984-.104.443-.418.318-.874.244z" fill="#232323"/></g></svg>