<svg height="512" viewBox="0 0 60 52" width="512" xmlns="http://www.w3.org/2000/svg"><g id="033---Otter" fill="none"><path id="Path" d="m14.182 18.322c-.2183253-.0000793-.4113554-.1418057-.4768151-.3500867-.0654598-.2082809.0117883-.4349519.1908151-.5599133l4.118-2.878-6.446 3.721c-.2296891.1296297-.5205695.0585592-.6646041-.1623819s-.0916869-.5157667.1196041-.6736181l5.507-4.025-8.346 4.818c-.23336809.1382671-.53441937.0652417-.67850035-.1645824s-.07863493-.5326135.14750035-.6824176l2.409-1.63-3.295 1.9c-.23055066.1302945-.52270695.0582293-.66621925-.1643342-.14351231-.2225634-.08860007-.5184238.12521925-.6746658l4.157-2.983-4.928 2.847c-.22776864.1327124-.51944616.0657934-.66658476-.1529333-.14713861-.2187267-.0991876-.5141157.10958476-.6750667l4.4-3.416-4.954 2.862c-.22348658.1250979-.50536685.0610931-.65291334-.148253-.14754648-.209346-.11304574-.4963352.07991334-.664747l3.729-3.165-3.909 2.257c-.22795403.1359398-.52240133.0700857-.67072684-.1500102s-.09883873-.5177316.11272684-.6779898l1.994-1.553-1.717.991c-.22331438.1304087-.50922305.0690136-.65931209-.1415784-.15008903-.2105921-.1148283-.5008847.08131209-.6694216l2.287-1.976-1.553.9c-.21578429.1245835-.49036414.0712785-.64385961-.1249944s-.13905573-.47560606.03385961-.6550056l1.405-1.45c-.20642672-.03735623-.36758513-.19959817-.4035573-.40627057s.06089177-.41382417.2425573-.51872943l2.459-1.425c.21570545-.12306449.48904459-.06915822.64187637.12658691.15283178.19574514.13883158.47399712-.03287637.65341309l-1.106 1.143 3.022-1.744c.22280253-.12580765.50463219-.06310991.65308472.14528965.14845253.20839957.11561922.4952461-.07608472.66471035l-2.286 1.977 3.4-1.961c.227445-.13171071.5180356-.06484496.6650404.15302777s.1002333.51236608-.1070404.67397223l-1.996 1.553 2.468-1.425c.2238916-.12758363.5080784-.06411079.6564103.14660857.148332.21071936.1122202.49966037-.0834103.66739143l-3.732 3.167 6.5-3.754c.2277686-.13271241.5194462-.06579338.6665848.15293332.1471386.21872669.0991876.51411564-.1095848.67506668l-4.403 3.415 7.351-4.244c.2305507-.13029452.5227069-.05822926.6662193.16433419.1435123.22256344.0886.51842379-.1252193.67466581l-4.16 2.984 6.625-3.824c.2322377-.12731148.5234633-.05144622.664069.17299225.1406056.22443847.0818101.51958413-.134069.67300775l-2.411 1.633 4.3-2.479c.2296891-.12962966.5205695-.0585592.6646041.16238191.1440346.2209411.0916869.51576672-.1196041.67361809l-5.506 4.024 8.421-4.861c.2318603-.13306172.527371-.0602043.6708066.16538571.1434357.22559001.0840493.52409963-.1348066.67761429l-4.119 2.873 6.447-3.717c.2287194-.13104292.5198877-.06201267.6654353.15776159.1455476.21977425.0954752.5147944-.1144353.67423841l-6.056 4.556 9.334-5.389c.2281943-.12734837.5159664-.05749287.6603781.16030407s.0967481.51006523-.1093781.67069593l-6.18 4.679 9.544-5.51c.2327682-.13793867.5330334-.06569054.677577.16303478s.0809181.53093515-.143577.68196522l-3.25 2.229 5.327-3.075c.2329061-.12542926.5232086-.04774024.6623373.17725079s.0789338.5194187-.1373373.67174921l-.536.355 2.088-1.2c.2305507-.13029452.5227069-.05822926.6662193.16433419.1435123.22256344.0886.51842379-.1252193.67466581l-4.941 3.535 7.576-4.374c.2288588-.12922991.518701-.05921567.6633326.16023456.1446317.21945024.0946742.51341403-.1143326.67276544l-5.927 4.422 12.688-7.326c.2313261-.13338821.5266402-.06146595.670727.16335216.1440867.22481812.0860887.52317941-.131727.67764784l-7.6 5.4 8.869-5.12c.23158-.12940266.5239091-.05542235.6660571.16856044.142148.2239828.0846277.51999085-.1310571.67443956l-5.181 3.594 5.555-3.206c.2314518-.13131281.5252013-.05833565.6682918.16602591.1430904.22436156.0853808.52148787-.1312918.67597409l-3.853 2.7 3.8-2.194c.2293391-.12852278.5190351-.05749218.6629121.1625395s.0927858.5139004-.1169121.6724605l-3.542 2.618 3.117-1.8c.2202286-.1227467.4973928-.0623225.6465459.1409526s.1236267.4857984-.0595459.6590474l-3.408 3.1 2.053-1.184c.1549945-.0985297.351531-.1041539.5119064-.0146489.1603754.0895049.2587712.2597296.2562855.4433739s-.1054527.3511436-.2681919.436275l-6.068 3.5c-.2202286.1227467-.4973928.0623225-.6465459-.1409526s-.1236267-.4857984.0595459-.6590474l3.407-3.1-6.762 3.9c-.2295527.1314921-.521805.0614183-.6667704-.1598726-.1449654-.2212908-.0924688-.5172061.1197704-.6751274l3.543-2.613-5.981 3.453c-.2314518.1313128-.5252013.0583356-.6682918-.1660259-.1430904-.2243616-.0853808-.5214879.1312918-.6759741l3.86-2.705-6.144 3.547c-.2322938.1351768-.5298928.0625367-.6737842-.164462-.1438914-.2269988-.0825928-.5271392.1387842-.679538l5.179-3.594-7.686 4.438c-.2313261.1333882-.5266402.061466-.670727-.1633522-.1440867-.2248181-.0860887-.5231794.131727-.6776478l7.6-5.393-10.8 6.235c-.2286618.1265879-.5162385.0557088-.6598832-.1626417-.1436447-.2183504-.0948861-.5104922.1118832-.6703583l5.931-4.428-9.112 5.261c-.2305507.1302945-.5227069.0582293-.6662193-.1643342-.1435123-.2225634-.0886-.5184238.1252193-.6746658l4.939-3.533-7.573 4.372c-.2336556.130691-.5287926.0541466-.6694787-.1736308-.140686-.2277774-.0769932-.5259521.1444787-.6763692l.54-.357-2.091 1.207c-.2324067.1328499-.5282158.0590851-.6710333-.1673329s-.0819688-.5251514.1380333-.6776671l3.252-2.231-5.328 3.076c-.2283835.1299972-.5184238.0610156-.6638282-.1578813-.1454044-.2188968-.0965443-.5129964.1118282-.6731187l6.166-4.678-9.54 5.509c-.2287194.1310429-.5198877.0620127-.6654353-.1577616-.1455476-.2197742-.0954752-.5147944.1144353-.6742384l6.057-4.556-9.334 5.389c-.0758413.0442906-.1621742.0674278-.25.067z" fill="#a06134"/><path id="Path" d="m31.038 51.405c-.2211131.0002812-.4161547-.1447036-.4796064-.3565171-.0634518-.2118136.0197555-.4401518.2046064-.5614829l10.443-6.879-13.251 7.651c-.236654.1424895-.5440105.066154-.6865-.1705s-.066154-.5440105.1705-.6865l5.075-3.183-6.714 3.881c-.2354379.13455-.5352149.0569022-.6757281-.1750261-.1405133-.2319283-.0705395-.5335888.1577281-.6799739l10.047-6.372-11.778 6.8c-.2361017.1433179-.5436821.0681017-.687-.168s-.0681017-.5436821.168-.687l12.75-8.118-14.569 8.415c-.2362075.133071-.5354329.0536509-.6745599-.1790411-.1391271-.2326919-.0674613-.5338687.1615599-.6789589l5.365-3.311-6.372 3.679c-.2347345.1238045-.5252986.0426548-.6619149-.1848618-.1366163-.2275167-.0716853-.5221296.1479149-.6711382l10.781-6.729-12.044 6.953c-.2356087.1297647-.5316571.04988-.6700067-.1807924-.1383496-.2306723-.0694166-.5294607.1560067-.6762076l10.61-6.6-11.649 6.729c-.2361735.1361818-.537908.0580681-.6783318-.1756081-.1404239-.2336761-.0677709-.5367718.1633318-.6813919l13.961-8.747-15.161 8.752c-.2357179.1278172-.530297.0469384-.667702-.1833224-.137405-.2302607-.0687118-.5279174.155702-.6746776l10.1-6.244-10.872 6.278c-.2349709.1292146-.5300387.050062-.6687925-.179405-.1387537-.2294671-.0717837-.5275361.1517925-.675595l18.6-11.785-19.838 11.451c-.2359602.1244074-.5280295.041678-.663696-.1879935-.1356664-.2296716-.0671501-.5253981.155696-.6720065l.167-.1-.462.267c-.2354379.13455-.5352149.0569022-.6757281-.1750261-.14051331-.2319283-.0705395-.5335888.1577281-.6799739l20.258-12.808-21.3 12.3c-.23551248.13196-.53324972.0531389-.67262044-.1780652-.13937073-.2312042-.07004227-.5312938.15662044-.6779348l20.75-13.072-21.514 12.418c-.23620749.133071-.53543293.0536509-.67455995-.1790411-.13912701-.2326919-.06746125-.5338687.16155995-.6789589l14.773-9.122-15.207 8.779c-.23637787.1427656-.54373439.0668779-.6865-.1695s-.06687787-.5437344.1695-.6865l21.61-13.6-22.091 12.751c-.23748244.1411088-.54439125.0629824-.6855-.1745s-.06298244-.5443912.1745-.6855l11.29-6.914-11.369 6.563c-.23748244.1411088-.54439125.0629824-.6855-.1745s-.06298244-.5443912.1745-.6855l8.514-5.191-8.416 4.858c-.23583577.1260453-.52910097.0442222-.66561588-.1857118-.13651492-.2299339-.06795177-.5265795.15561588-.6732882l6.53-3.973-6.412 3.7c-.23775858.1408326-.54466737.0622586-.68549998-.1755s-.06225859-.5446674.17549998-.6855l5.547-3.371-5.184 2.995c-.23620749.133071-.53543293.0536509-.67455995-.1790411-.13912701-.2326919-.06746125-.5338687.16155995-.6789589l13.966-8.627-13.64 7.874c-.23628449.1306359-.5336041.0500916-.67163931-.181948s-.06692381-.5317553.16063931-.677052l7.119-4.347-6.474 3.737c-.2372063.1413849-.54411508.0637063-.68549997-.1735s-.06370631-.5441151.17349997-.6855l8.049-4.932-7.317 4.224c-.23628449.1306359-.5336041.0500916-.67163931-.181948s-.06692381-.5317553.16063931-.677052l8.353-5.135-7.248 4.186c-.23520866.125628-.52761522.0445694-.66457305-.1842276-.13695782-.228797-.07026696-.5248112.15157305-.6727724l10.605-6.582-8.932 5.155c-.23560872.1297647-.5316571.04988-.67000668-.1807924-.13834959-.2306723-.06941665-.5294607.15600668-.6762076l9.321-5.806-7.559 4.362c-.23448097.1270728-.52742279.0477401-.66573664-.1802909-.13831386-.2280309-.07330581-.5244809.14773664-.6737091l11.925-7.587-10.87 6.275c-.23520866.125628-.52761522.0445694-.66457305-.1842276-.13695782-.228797-.07026696-.5248112.15157305-.6727724l1.793-1.111-1.183.683c-.23358769.1237383-.52313261.0442789-.66084289-.1813541-.13771027-.225633-.07600068-.5194731.14084289-.6706459l10-6.438-9.316 5.376c-.23415271.123715-.52415635.0433988-.66130449-.1831476-.13714814-.2265465-.07386591-.5207372.14430449-.6708524l4.971-3.156-4.232 2.446c-.23354514.1328438-.53032442.0573638-.6720248-.1709163s-.07765459-.5277351.1450248-.6780837l9.249-6.177-8 4.617c-.23031743.1272935-.51988218.0542782-.66230438-.1670037-.14242219-.2212819-.08894974-.5150841.12230438-.6719963l8.225-5.844-5.775 3.339c-.2279124.1308241-.5182022.0628918-.6643976-.1554793-.1461953-.2183711-.0983971-.51264698.1093976-.6735207l3.885-2.984c-.2091627-.03331015-.3746464-.1947905-.4130678-.40307488s.0585561-.4181799.2420678-.52392512l5.579-3.221c.2279124-.13082408.5182022-.06289178.6643976.1554793.1461953.21837108.0983971.51264698-.1093976.6735207l-3.212 2.464 8.4-4.852c.2309306-.13173121.5245674-.05970825.6683337.16392831.1437664.22363655.0873821.52067301-.1283337.67607169l-8.221 5.847 12.074-6.975c.2335451-.1328438.5303244-.05736382.6720248.17091629s.0776546.52773513-.1450248.67808371l-9.249 6.175 11.815-6.82c.2349709-.1292146.5300387-.05006202.6687925.17940502.1387537.22946704.0717837.52753611-.1517925.67559498l-4.972 3.153 6.306-3.637c.2347713-.13363828.5332399-.05663158.6740509.17390914.1408109.23054072.0730402.5312411-.1530509.67909086l-10 6.438 11.7-6.752c.2362075-.13307102.5354329-.05365088.6745599.17904108.1391271.23269196.0674613.53386873-.1615599.67895892l-1.824 1.123 2.64-1.52c.2361017-.14331788.5436821-.06810171.687.16800001s.0681017.54368209-.168.68699999l-11.918 7.578 13.286-7.67c.2356087-.12976469.5316571-.04987998.6700067.18079237.1383496.23067236.0694166.52946069-.1560067.67620763l-9.325 5.809 10.266-5.929c.2362075-.13307102.5354329-.05365088.6745599.17904108.1391271.23269196.0674613.53386873-.1615599.67895892l-10.6 6.579 11.457-6.613c.2372063-.14138487.5441151-.06370627.6855.17350002s.0637063.54411507-.1735.68549998l-8.35 5.133 8.984-5.187c.2372063-.1413849.5441151-.0637063.6855.1735s.0637063.5441151-.1735.6855l-8.07 4.945 8.625-4.979c.2374824-.14110873.5443912-.06298242.6855.17450001.1411087.23748244.0629824.54439123-.1745.68549999l-7.1 4.333 7.496-4.326c.2362075-.13307102.5354329-.05365088.6745599.17904108.1391271.23269196.0674613.53386873-.1615599.67895892l-13.973 8.633 14.56-8.405c.2377586-.14055647.5444435-.06175858.685.176s.0617586.54444353-.176.685l-5.539 3.364 5.73-3.305c.2369888-.13504713.5384839-.05523499.6776156.17937913.1391316.23461413.0645535.53744647-.1676156.68062087l-6.522 3.967 6.728-3.883c.2358358-.12604535.529101-.04422219.6656159.1857118.1365149.2299339.0679517.5265795-.1556159.6732882l-8.535 5.205 8.658-5c.2358358-.1260453.529101-.0442222.6656159.1857118.1365149.2299339.0679517.5265795-.1556159.6732882l-11.277 6.906 11.379-6.57c.2355125-.13196.5332497-.0531389.6726204.1780652.1393708.2312042.0700423.5312938-.1566204.6779348l-21.613 13.607 21.8-12.588c.2372063-.1413849.5441151-.0637063.6855.1735.1413848.2372063.0637063.5441151-.1735.6855l-14.769 9.122 14.708-8.486c.2349709-.1292146.5300387-.050062.6687925.179405.1387537.2294671.0717837.5275361-.1517925.675595l-20.747 13.066 20.451-11.807c.2349709-.1292146.5300387-.050062.6687925.179405.1387537.2294671.0717837.5275361-.1517925.675595l-20.259 12.807 19.906-11.492c.2363825-.1285498.5321069-.0469768.6691568.184581.1370499.2315579.0662709.5300498-.1601568.675419l-.3.182c.2399836-.1031012.5188898-.0041146.6401833.2272074.1212934.231322.0441006.5170288-.1771833.6557926l-18.6 11.785 18.744-10.822c.2372063-.141661.5443389-.0642063.686.173.141661.2372063.0642063.544339-.173.686l-10.114 6.251 10.256-5.921c.2350866-.127347.5287583-.0472199.6665908.1818764.1378325.2290964.071048.5260868-.1515908.6741236l-13.954 8.744 14.219-8.209c.2352087-.125628.5276152-.0445694.664573.1842276.1369579.228797.070267.5248112-.151573.6727724l-10.613 6.6 10.735-6.2c.2356087-.1297647.5316571-.04988.6700067.1807924.1383496.2306723.0694166.5294607-.1560067.6762076l-10.781 6.734 10.725-6.2c.2357179-.1278172.530297-.0469384.667702.1833224.137405.2302607.0687118.5279174-.155702.6746776l-5.353 3.3 5.16-2.978c.234481-.1270728.5274228-.0477401.6657366.1802909.1383139.2280309.0733058.5244809-.1477366.6737091l-12.766 8.12 12.442-7.182c.234481-.1270728.5274228-.0477401.6657366.1802909.1383139.2280309.0733058.5244809-.1477366.6737091l-10.037 6.374 9.446-5.453c.236654-.1424895.5440105-.066154.6865.1705s.066154.5440105-.1705.6865l-5.076 3.183 4.386-2.531c.2340569-.1357068.5336008-.0606207.6759704.1694442s.0759129.5316408-.1499704.6805558l-10.445 6.877 9.125-5.267c.2348642-.1312813.531504-.0531604.6712412.1767732.1397372.2299337.0724576.5292187-.1522412.6772268l-2.4 1.53.956-.552c.2336556-.130691.5287926-.0541466.6694787.1736308.140686.2277774.0769932.5259521-.1444787.6763692l-2.386 1.564.4-.232c.2295527-.1314921.521805-.0614183.6667704.1598726.1449654.2212908.0924688.5172061-.1197704.6751274l-3.927 2.9c.1104668.0398358.2030425.117869.261.22.1375532.2386555.0561721.5436114-.182.682l-6.019 3.473c-.2295527.1314921-.521805.0614183-.6667704-.1598726-.1449654-.2212908-.0924688-.5172061.1197704-.6751274l2.628-1.938-7.933 4.58c-.2336556.130691-.5287926.0541466-.6694787-.1736308-.140686-.2277774-.0769932-.5259521.1444787-.6763692l2.384-1.563-5.1 2.946c-.2361017.1433179-.5436821.0681017-.687-.168-.1433178-.2361017-.0681017-.5436821.168-.687l2.4-1.529-4.4 2.542c-.078819.0459088-.1688098.0690987-.26.067z" fill="#b4703a"/><path id="Path" d="m28.7 51.389c-.2211793-.0003689-.4158354-.1460121-.4786071-.3580972-.0627717-.2120852.0212583-.4402122.2066071-.5609028l11.341-7.377-13.886 8.017c-.2356087.1297647-.5316571.04988-.6700067-.1807924-.1383496-.2306723-.0694166-.5294607.1560067-.6762076l4.046-2.514-5.269 3.042c-.2347713.1336383-.5332399.0566316-.6740509-.1739091-.1408109-.2305408-.0730402-.5312411.1530509-.6790909l14.234-9.151-16.343 9.436c-.152731.0928891-.3434161.097241-.5002259.0114166s-.2559212-.2487865-.26-.4275c-.0040787-.1787135.0874949-.3460275.2402259-.4389166l15.2-9.7-17 9.812c-.2357179.1278172-.530297.0469384-.667702-.1833224-.137405-.2302607-.0687118-.5279174.155702-.6746776l8.084-5-9.118 5.256c-.2348663.1223119-.5243654.0402957-.6601778-.1870309-.1358123-.2273266-.0708339-.5211193.1481778-.6699691l8.868-5.488-9.806 5.664c-.2354379.13455-.5352149.0569022-.6757281-.1750261-.1405133-.2319283-.0705395-.5335888.1577281-.6799739l17.813-11.339-19.289 11.136c-.2362845.1306359-.5336041.0500916-.6716393-.181948s-.0669238-.5317553.1606393-.677052l5.148-3.15-5.729 3.308c-.2357179.1278172-.530297.0469384-.667702-.1833224-.137405-.2302607-.0687118-.5279174.155702-.6746776l10.511-6.505-11.291 6.519c-.2347713.1336383-.5332399.0566316-.6740509-.1739091-.1408109-.2305408-.0730402-.5312411.1530509-.6790909l15.382-9.931-16.383 9.465c-.2372063.141661-.54433894.0642063-.68599997-.173-.14166104-.2372063-.06420631-.544339.17299997-.686l1.808-1.116-2.151 1.239c-.23402298.1252853-.52515789.0458598-.66313509-.1809119-.13797721-.2267718-.07469786-.5218373.14413509-.6720881l10.1-6.467-10.625 6.134c-.23541159.1379583-.53795774.061708-.67986369-.1713453-.14190596-.2330532-.07076502-.5368414.15986369-.6826547l9.29-5.97-9.776 5.641c-.23308287.1306613-.52770735.0549657-.66894229-.1718661-.14123493-.2268319-.07915925-.5246238.14094229-.6761339l11.513-7.659-11.979 6.917c-.23436107.1288923-.5286543.0505227-.66787555-.1778537-.13922124-.2283764-.07406124-.5258734.14787555-.6751463l5.489-3.53-5.636 3.251c-.23365564.130691-.52879264.0541466-.66947868-.1736308s-.0769932-.5259521.14447868-.6763692l6.8-4.5-6.817 3.938c-.23210925.1290838-.52463723.0541763-.66613933-.170578-.1415021-.2247542-.08259625-.5209195.13413933-.674422l6.226-4.258-6.218 3.589c-.2310609.1298083-.52326795.0567757-.66608655-.1664779s-.08662801-.5191613.12808655-.6745221l5.453-3.846-5.145 2.975c-.23018285.1290216-.52100516.0569569-.66431246-.1646141-.1433073-.2215711-.08976142-.5163656.12231246-.6733859l4.486-3.252-4.061 2.344c-.2328603.1351428-.53091891.0616362-.67424226-.1662803-.14332335-.2279164-.08044309-.5283964.14224226-.6797197l.519-.354c-.2298259.0479121-.46203431-.0705245-.55818443-.2846989s-.03034435-.4663997.15818443-.6063011l2.52-1.873-1.627.936c-.2244518.1286386-.50996589.0648202-.65828662-.1471407-.14832072-.211961-.1104625-.5020607.08728662-.6688593l2.85-2.377-1.361.786c-.21343257.1213489-.48339145.0697812-.6370683-.1216932s-.14559663-.4661956.0190683-.6483068l1.849-2.009c-.19752952-.0496473-.34520284-.2141474-.37332961-.4158691s.06891519-.4003433.24532961-.5021309l2.136-1.234c.21372143-.1227494.48501248-.071451.63915946.1208586.15414697.1923095.14516585.4682619-.02115946.6501414l-1.527 1.663 3.574-2.063c.2243164-.1264895.5080183-.0619132.6554889.1492026s.1104702.4997121-.0854889.6667974l-2.849 2.376 4.053-2.34c.229416-.1334891.5231565-.0644561.6690977.1572468.1459412.221703.0932171.5188044-.1200977.6767532l-2.517 1.872 3.551-2.051c.2333482-.1425022.537887-.0711396.6836338.1601958.1457468.2313355.0786439.5368412-.1506338.6858042l-.251.171 1.024-.591c.2304184-.1322364.5240189-.0611893.6684864.1617642.1444674.2229535.0893536.5199576-.1254864.6762358l-4.482 3.244 6.291-3.632c.2310609-.1298083.523268-.0567757.6660866.1664779.1428185.2232536.086628.5191613-.1280866.6745221l-5.458 3.85 8-4.62c.2321092-.1290838.5246372-.0541763.6661393.170578.1415021.2247542.0825963.5209195-.1341393.674422l-6.227 4.259 9.768-5.637c.2336556-.130691.5287926-.0541466.6694787.1736308.140686.2277774.0769932.5259521-.1444787.6763692l-6.8 4.5 9.385-5.423c.2358256-.1438702.5436298-.0693256.6875.1665s.0693256.5436298-.1665.6875l-5.491 3.533 7.6-4.387c.2340027-.1389988.5362016-.0652981.6799386.1658244s.0762078.5347601-.1519386.6831756l-11.51 7.656 14.282-8.246c.2358256-.1438702.5436298-.0693256.6875.1665s.0693256.5436298-.1665.6875l-9.29 5.97 11.262-6.5c.2354116-.1379583.5379577-.061708.6798637.1713453.1419059.2330532.070765.5368414-.1598637.6826547l-10.083 6.456 12.606-7.279c.2372063-.141661.544339-.0642063.686.173s.0642063.544339-.173.686l-1.824 1.126 4.608-2.66c.2342478-.1308833.5300435-.0535271.6702262.1752769s.074765.527467-.1482262.6767231l-15.385 9.93 22.209-12.822c.2348663-.1223119.5243654-.0402957.6601778.1870309.1358123.2273266.0708339.5211193-.1481778.6699691l-10.51 6.5 11.422-6.594c.2369888-.1350471.5384839-.055235.6776156.1793791.1391316.2346142.0645535.5374465-.1676156.6806209l-5.163 3.162 5.26-3.036c.2348642-.1312813.531504-.0531604.6712412.1767732.1397372.2299337.0724576.5292187-.1522412.6772268l-17.805 11.331 18.225-10.521c.2348663-.1223119.5243654-.0402957.6601778.1870309.1358123.2273266.0708339.5211193-.1481778.6699691l-8.887 5.5 9.007-5.2c.2352087-.125628.5276152-.0445694.664573.1842276.1369579.228797.070267.5248112-.151573.6727724l-8.094 5.008 7.992-4.613c.2343611-.1288923.5286543-.0505227.6678755.1778537.1392213.2283764.0740613.5258734-.1478755.6751463l-15.184 9.7 15.133-8.738c.2358256-.1438701.5436298-.0693256.6875.1665.1438701.2358256.0693256.5436298-.1665.6875l-14.238 9.152 13.926-8.042c.2369302-.1419372.5440628-.0649301.686.172.1419371.2369302.0649301.5440628-.172.686l-4.042 2.51 3.4-1.962c.2337734-.1287456.5274505-.051198.667188.1761759.1397374.2273739.07627.5244122-.144188.6748241l-11.338 7.378 10.45-6.033c.2327769-.1270897.524286-.0503218.6642741.174934.139988.2252559.0797468.5206233-.1372741.673066l-10.287 6.872 8.761-5.058c.2348642-.1312813.531504-.0531604.6712412.1767732.1397372.2299337.0724576.5292187-.1522412.6772268l-1.309.833h.014c.2198301.0003871.4136204.1443106.477526.3546473s-.0170664.4377398-.199526.5603527l-2.6 1.749.067-.038c.23893-.1358451.5427102-.0533708.6801373.1846528.137427.2380237.0569695.5423443-.1801373.6813472l-12.838 7.41c-.2330829.1306613-.5277074.0549657-.6689423-.1718661-.1412349-.2268319-.0791592-.5246238.1409423-.6761339l2.6-1.75-5.811 3.357c-.152731.0927104-.3433208.0968973-.4999759.0109836-.1566551-.0859138-.2555759-.2488758-.2595-.4275-.003924-.1786242.0877449-.3457732.2404759-.4384836l.146-.094-2.042 1.18c-.2340027.1389988-.5362016.0652981-.6799386-.1658244s-.0762078-.5347601.1519386-.6831756l10.283-6.868-13.49 7.788c-.0759114.0442382-.1621395.0676923-.25.068z" fill="#e4b694"/><path id="Path" d="m30.438 29.391c-.2031097-.0000296-.3860195-.122924-.4628124-.310957s-.0322079-.4038366.1128124-.546043l.71-.7-2.065 1.191c-.2202286.1227467-.4973928.0623225-.6465459-.1409526s-.1236267-.4857984.0595459-.6590474l1.454-1.334-2.152 1.242c-.2189627.1248229-.4965995.0671571-.6477436-.1345378-.1511442-.2016949-.1285371-.4843546.0527436-.6594622l1.585-1.52-1.9 1.1c-.2040207.1168465-.4618881.0757661-.6195016-.0986916-.1576136-.1744578-.1723898-.4351585-.0354984-.6263084l1-1.391-.276.158c-.2374252.1242009-.5305531.0391619-.6646466-.1928199-.1340935-.2319817-.0614797-.5284321.1646466-.6721801l2.293-1.328c.2038365-.1170428.4616761-.0763052.6195.0978785s.1730154.4347791.0365.6261215l-1 1.393 3.463-2c.2189627-.1248229.4965995-.0671571.6477436.1345378.1511442.2016949.1285371.4843546-.0527436.6594622l-1.583 1.521 2.5-1.442c.2203354-.1244491.4989119-.0646624.6487785.1392378.1498666.2039001.1237692.4876223-.0607785.6607622l-1.453 1.336 1.537-.888c.217772-.1239843.4936884-.0676117.6453756.131857.1516872.1994686.1322878.4804159-.0453756.657143l-1.013 1c.2114783.0292539.3810527.1895555.4221402.3990566.0410875.209501-.0553772.4219784-.2401402.5289434l-2.784 1.606c-.0763132.0425913-.1626288.0639975-.25.062z" fill="#4f442b"/><path id="Path" d="m28.988 47.32c-.2118702-.0007989-.4002347-.1350456-.4701265-.3350575s-.0061349-.4223594.1591265-.5549425l2.351-1.876-3.562 2.055c-.2304519.1256553-.5188365.0517188-.6604036-.1693153-.1415671-.2210342-.088116-.5139083.1224036-.6706847l.839-.593-1.243.717c-.2305507.1302945-.5227069.0582293-.6662193-.1643342-.1435123-.2225634-.0886-.5184238.1252193-.6746658l1.112-.8-1.376.794c-.2251632.1322925-.5142123.0690201-.6635151-.1452425s-.1085645-.507338.0935151-.6727575l3.709-3.081-4.134 2.388c-.229416.1334891-.5231565.0644561-.6690977-.1572468-.1459412-.221703-.0932171-.5188044.1200977-.6767532l1.371-1.02-1.362.786c-.2279124.1308241-.5182022.0628918-.6643976-.1554793-.1461953-.2183711-.0983971-.512647.1093976-.6735207l1.515-1.165-1.413.816c-.1604636.0928348-.3591205.089268-.516148-.0092673s-.2466485-.2758638-.232852-.4607327l.086-1.145c-.2397938.0475079-.4787816-.0853354-.5650226-.3140722-.0862409-.2287368.0055532-.4862953.2170226-.6089278l.666-.385c.1597712-.0938146.3586043-.0903398.515.009.1575559.0982896.2476601.2758025.234.461l-.084 1.114 7.174-4.142c.228242-.1318458.5196375-.063862.6659708.1553737.1463332.2192358.0973404.5144185-.1119708.6746263l-1.516 1.17 2.213-1.278c.2292016-.1303039.5201978-.0602449.6649792.1600976s.0935911.5152436-.1169792.6739024l-1.369 1.02 1.8-1.041c.2245986-.1270093.5089574-.0622563.656419.1494768.1474617.2117332.109592.5009023-.087419.6675232l-3.711 3.082 5.187-2.991c.2305507-.1302945.5227069-.0582293.6662193.1643342.1435123.2225634.0886.5184238-.1252193.6746658l-1.108.793 1.829-1.056c.2310609-.1298083.523268-.0567757.6660866.1664779.1428185.2232536.086628.5191613-.1280866.6745221l-.918.648c.2142951-.0726015.4507749.0052737.58.191.1473399.2157275.1037694.5085209-.1.672l-2.352 1.874.814-.47c.2227723-.1294397.5074311-.0684047.6575526.1409889s.1165485.4985799-.0775526.6680111l-1.594 1.4c.1390226.0984822.2183312.2609757.2104391.431163-.0078922.1701874-.1018989.3246436-.2494391.409837l-2.734 1.578c-.2227723.1294397-.5074311.0684047-.6575526-.1409889s-.1165485-.4985799.0775526-.6680111l.473-.415-2.192 1.266c-.0760382.0435918-.1623588.0660351-.25.065z" fill="#8e234c"/><path id="Path" d="m21.526 21.375c-.2045443-.0003463-.388251-.125244-.4637991-.3153255-.075548-.1900816-.0277006-.4070106.1207991-.5476745l.163-.154-1.382.8c-.216466.1248481-.4918692.0707117-.6449718-.1267831s-.1368886-.4776996.0379718-.6562169l2.531-2.57-3.579 2.066c-.225024.1298327-.5119893.0657046-.6603401-.147566s-.108657-.5046224.0913401-.670434l1.66-1.373-1.756 1.02c-.225024.1298327-.5119893.0657046-.6603401-.147566s-.108657-.5046224.0913401-.670434l1.537-1.267-1.273.736c-.2257557.1338555-.5165829.0703767-.66603-.1453744-.149447-.215751-.1066415-.5103316.09803-.6746256l.77-.631-.123.07c-.2159307.1231341-.4895276.0689462-.642223-.1271971-.1526954-.1961432-.1381159-.4746734.034223-.6538029l1.19-1.233c-.1265883-.0337593-.2345332-.116517-.3-.23-.1380647-.2391402-.0561341-.5449248.183-.683l2.34-1.352c.2163147-.1263431.4927389-.0731082.6466589.1245361.1539199.1976444.137822.4786873-.0376589.6574639l-.8.827 2.268-1.3c.2251719-.1281476.5109328-.0630663.6584056.14995.1474728.2130162.107801.5033971-.0914056.66905l-.769.632 1.241-.716c.2253151-.1304911.5130605-.0662242.6614447.1477312.1483843.2139555.1077334.5059746-.0934447.6712688l-1.537 1.265 1.754-1.019c.2248836-.1275609.509928-.0626394.65739.1497267.1474621.2123662.1087026.5021295-.08939.6682733l-1.662 1.369 1.55-.894c.216466-.1248481.4918692-.0707117.6449718.1267831s.1368886.4776996-.0379718.6562169l-2.532 2.571 1.88-1.085c.2208953-.136633.509623-.0813788.6644625.1271591.1548394.208538.1242214.5009064-.0704625.6728409l-1 .948c.148052.0936426.2362983.2579386.2326154.4330807s-.0987578.3355832-.2506154.4229193l-2.331 1.346c-.0773707.0436861-.1651821.0654661-.254.063z" fill="#fff"/><path id="Path" d="m39.526 21.375c-.196435.0001443-.3747553-.1147462-.4558133-.2936774-.0810579-.1789311-.0498339-.3887477.0798133-.5363226l1.359-1.545-3.138 1.812c-.2263606.1309251-.5153721.0653166-.6630162-.1505114-.1476442-.2158279-.1040467-.5089685.1000162-.6724886l.668-.536-1.015.585c-.2275891.1298897-.5168511.062032-.6629348-.1555172-.1460838-.2175492-.0994243-.5109773.1069348-.6724828l.529-.409-.586.338c-.2280989.1338167-.5209547.0668721-.6682583-.1527586-.1473036-.2196308-.0981078-.515985.1122583-.6762414l.525-.4-.367.212c-.2203354.1244491-.4989119.0646624-.6487785-.1392378-.1498666-.2039001-.1237692-.4876223.0607785-.6607622l2.224-2.039-1.71.987c-.2130757.122757-.4837819.0723545-.6383991-.1188629-.1546171-.1912173-.1472392-.4664769.0173991-.6491371l1.375-1.52c-.2246416-.0039926-.4190339-.1573352-.4752251-.3748722s.0396193-.4458408.2342251-.5581278l2.34-1.352c.213143-.124178.4849995-.0743543.6402521.1173401.1552525.1916945.1475025.4679702-.0182521.6506599l-1.22 1.349 2.9-1.675c.2203354-.1244491.4989119-.0646624.6487785.1392378.1498666.2039001.1237692.4876223-.0607785.6607622l-2.219 2.034 2.928-1.691c.2280989-.1338167.5209547-.0668721.6682583.1527586.1473036.2196308.0981078.515985-.1122583.6762414l-.527.406.474-.274c.2275891-.1298897.5168511-.062032.6629348.1555172.1460838.2175492.0994243.5109773-.1069348.6724828l-.531.411.261-.15c.2260575-.1301558.5141897-.0646595.6617686.1504288.1475789.2150884.1050107.5074886-.0977686.6715712l-.664.534.128-.074c.2120148-.1228806.4818419-.0739979.6372742.1154507.1554322.1894485.1506586.4636262-.0112742.6475493l-1.455 1.654c.1932003-.0146539.3780179.0814358.477.248.1380647.2391402.0561341.5449248-.183.683l-2.331 1.346c-.0766792.044906-.1641455.068069-.253.067z" fill="#fff"/><path id="Path" d="m31.2 47.263c-.2065219-.0001253-.3917162-.1272105-.4661203-.3198639s-.0227059-.4112281.1301203-.5501361l.993-.9-2.917 1.685c-.2202286.1227467-.4973928.0623225-.6465459-.1409526s-.1236267-.4857984.0595459-.6590474l1.988-1.823-3.184 1.838c-.2237424.1292278-.5090949.0666972-.6582921-.1442547-.1491972-.2109518-.1130922-.5008356.0832921-.6687453l1.355-1.162-1.823 1.052c-.2159307.1231341-.4895276.0689462-.642223-.1271971-.1526954-.1961432-.1381159-.4746734.034223-.6538029l1.361-1.4-1.705.984c-.2100291.1208078-.4764517.0736423-.6322418-.1119276-.1557901-.18557-.1561096-.4561351-.0007582-.6420724l.138-.164-.06.035c-.1547852.0907422-.3463247.0915917-.5019087.0022259-.155584-.0893657-.2513568-.2552442-.2509624-.4346667.0003945-.1794226.0968957-.3448784.2528711-.4335592l2.523-1.456c.2105582-.1232667.479337-.0765637.635971.1105064.1566341.18707.1553784.4598734-.002971.6454936l-.135.16 2.364-1.365c.2160105-.1246636.4908577-.0710795.6442199.1255968s.1383361.4762947-.0352199.6554032l-1.363 1.4 3.352-1.935c.2237424-.1292278.5090949-.0666972.6582921.1442547.1491972.2109518.1130922.5008356-.0832921.6687453l-1.353 1.161 2.48-1.432c.2203354-.1244491.4989119-.0646624.6487785.1392378.1498666.2039001.1237692.4876223-.0607785.6607622l-1.988 1.823 3.029-1.749c.2201191-.1211079.4959248-.0600693.6443868.1426092s.1234717.48405-.0583868.6573908l-1.733 1.569c.093765.0419696.1723267.1118022.225.2.1380647.2391402.0561341.5449248-.183.683l-2.864 1.667c-.0768029.0432878-.163862.0650526-.252.063z" fill="#dd4780"/><g fill="#262626"><path id="Shape" d="m20.908 21.426c2.679956-.1292187 4.7935513-2.327042 4.818-5.01 0-.023-.012-.036-.015-.057s.014-.034.013-.053c-.14-2.738-2.21-5.068-5.1-4.7-2.505844.3532587-4.3647684 2.5044158-4.351 5.035-.0395093 1.2547424.4311916 2.4719287 1.3046224 3.3736259.8734309.9016973 2.0750134 1.4109135 3.3303776 1.4113741zm.924-8.75c1.5220286.722652 2.4769741 2.2725778 2.438 3.957-.119 1.963-1.357 4.4-3.749 3.836-1.79-.421-2.773-2.419-2.769-4.108.006-2.14 1.653-4.605 4.08-3.685z"/><path id="Shape" d="m38.848 21.551c2.739278-.1009605 4.903363-2.3589051 4.888-5.1-.134-2.6-1.853-5.044-4.678-5.005-2.7040803.1458163-4.8155652 2.3920769-4.794 5.1-.1024142 2.6428749 1.9423187 4.8753986 4.584 5.005zm.373-8.973c1.951.242 2.953 2.209 3.043 3.971-.1 1.879-1.222 4.154-3.485 3.873-1.893-.235-3.026-2.212-3.043-3.971-.019-1.891 1.316-4.142 3.485-3.873z"/><path id="Path" d="m21.731 16.934v-1c0-.713-1.462-.466-1.462.132v1c0 .713 1.462.466 1.462-.132z"/><path id="Path" d="m39.736 16.951v-1c0-.782-1.472-.586-1.472.1v1c0 .78 1.472.584 1.472-.1z"/><path id="Shape" d="m56.679 32.4c.016-.2.037-.394.045-.6-.234-3.624-2.007-5.8-3.2-8.8.0192521-.115685-.0222936-.233146-.11-.311-.116-.309-.234-.617-.335-.947-.3171495-1.196086-.494006-2.4250211-.527-3.662 3.829-1.449 6.64-6.044 4.413-9.975-2.035-3.6-6.451-2.954-9.168-.656-1.9431003-1.93036376-4.2256257-3.48572193-6.733-4.588-9.058-4.03-20.9-2.586-28.251 4.267-.129.121-.234.247-.358.369-2.531-2.267-6.577-2.753-8.936.157-3.019 3.746-.272 9.271 3.93 10.531-.062.448-.124.9-.169 1.362-.25106489 1.7935701-.83220218 3.5251151-1.714 5.107 0 .007-.014.013-.018.021l-.01.02c-.006.012 0 .019-.007.03-1.03338861 1.783676-1.75824046 3.7290107-2.144 5.754-.08861027.7032941-.11771353 1.4128114-.087 2.121-.94445168.3393172-1.85784351.7595444-2.73 1.256-.836.486.468.516.86.288.61043787-.3521468 1.24540875-.6599405 1.9-.921.12975488 1.4990507.49770749 2.9678229 1.09 4.351-.70092277.3782021-1.36980974.8129786-2 1.3-.651.507.788.545 1.166.252.38293799-.2938452.78370494-.563695 1.2-.808 4.804 9.982 17.877 13.829 28.146 12.867 8.372-.784 18.181-5.094 22.08-12.819.4504805.2660748.8845935.5589341 1.3.877.3.237 1.559-.337 1.368-.486-.6922861-.5294129-1.4328888-.992457-2.212-1.383.5390092-1.2749816.9088169-2.6150303 1.1-3.986.5996002.2498364 1.1827685.5374124 1.746.861.363.211 1.565-.381 1.364-.5-.9534113-.5461383-1.9578367-.9979456-2.999-1.349zm-.61-22.5c.6891197 2.9712575-.8054202 6.0175784-3.577 7.291-.0515402-1.0739426-.2373179-2.1372093-.553-3.165-.7368851-2.1484778-1.9032092-4.12456019-3.428-5.808 2.571-2.532 6.536-2.134 7.558 1.682zm-41.06-3.561c6.683-5.439 16.391-6.382 24.26-3.126 5.366 2.22 10.119 6.573 11.56 12.354.511 2.053.313 4.145.764 6.172-1.1702336-.3531859-2.4262518-.2938798-3.558.168-2.573.947-4.738 2.3-7.582 2.5-2.1704603.0659325-4.3407829-.1355831-6.462-.6-1.737-1.7-6.046-1.415-7.868.207-2.4278624.4953943-4.9146779.6365261-7.383.419-2.66-.308-4.581-1.941-7.027-2.617-1.1705016-.3214997-2.416019-.230037-3.527.259.19597206-.489687.34986204-.9951821.46-1.511.43-2.142.145-4.325.858-6.454.7370211-2.136567 1.9017188-4.100527 3.423-5.772.014-.015.026-.029.038-.044.6299137-.70492707 1.3132748-1.36020484 2.044-1.96zm17.834 18.261c0 .007.012.011.015.017.2360477.3143057.3806993.6877005.418 1.079-.1807634 1.7784371-1.7561432 3.082123-3.537 2.927-1.3197499-.3371181-2.3905325-1.2995522-2.866-2.576-1.019-2.97 4.363-3.56 5.97-1.447zm-29.091-13.563c0-1.323.424-3.092 1.609-3.887 1.33570702-.78482045 2.97674415-.84458337 4.366-.159.6784518.38727339 1.2869385.88589445 1.8 1.475-2.09717277 2.4591171-3.45368704 5.4627282-3.912 8.662-2.35557975-1.1143064-3.8592071-3.4851565-3.863-6.091zm1.384 17.625c.39301866-1.3172283.95218309-2.5790447 1.664-3.755.04248379-.0338557.0784095-.0752042.106-.122l.01-.02c.01552076-.0375039.02432159-.0774461.026-.118.257-.467.5-.937.739-1.414 2.668-1.821 8.394 1.874 11.48 2.107 2.1195293.0954818 4.2427619-.0697555 6.322-.492-.2076142.4482009-.2470144.9561445-.111 1.431 1.213 4.56 8.988 3.5 9.356-.973-.007-.071-.023-.136-.035-.2 2.292537.4494876 4.6413199.5372168 6.961.26 2.961-.447 7.657-3.769 10.491-1.938 1.2 3.016 2.813 5.018 3.107 8.54-2.8097602-.6980766-5.6868799-1.0896948-8.581-1.168.024-.3.05-.6.054-.892.009-.611-1.443-.316-1.45.176 0 .222-.028.443-.044.665-1.306-.035-2.574-.046-3.763-.055-.318 0-1.644.6-.936.6 1.464.012 3.035.021 4.647.077-.043.349-.095.7-.163 1.042-.1332814.7409002-.339622 1.466777-.616 2.167-.038.09-.1.165-.139.252-1.313-.077-2.593-.112-3.789-.126-.3 0-1.636.564-.944.572 1.377.016 2.867.059 4.4.17-1.6285596 2.1755031-4.3065273 3.299867-7 2.939-1.4137588-.4108411-2.7298121-1.1033933-3.869-2.036-.8241763-.5378445-1.7932932-.8103978-2.777-.781-.3738866-.0018467-.7468274.037728-1.112.118-3.9.7-6.569 5.036-11.2 1.8-.7213318-.5207047-1.3245048-1.1879435-1.77-1.958 1.227-.068 2.418-.1 3.52-.111.554-.006 1.534-.85.56-.838-1.424.017-2.943.061-4.5.174-.4823417-1.0678659-.7980131-2.2034061-.936-3.367 1.336-.033 2.636-.038 3.851-.048.453 0 1.566-.688.6-.68-1.43.012-2.958.025-4.528.082-.025-.317-.044-.631-.049-.936-.007-.467-1.457-.185-1.448.388 0 .2.0076667.4046667.023.614-2.8902367.1094855-5.75881024.5455918-8.551 1.3-.02814952-1.1613372.10443972-2.3209883.394-3.446zm30.325 13.182c-3.3865939-1.8079564-7.4605071-1.7680124-10.811.106-.37255-.8964292-.684583-1.8168263-.934-2.755.146-.032.288-.068.431-.1.6687853-.1312425 1.3153418-.3575373 1.92-.672.2953862-.1674073.5754667-.3604854.837-.577 1.456-.853 2.849-1.629 4.867-.777.48.353.938.784 1.513 1.163.9310008.5656344 1.9749785.9196582 3.058 1.037-.2393054.8759811-.5335548 1.7360174-.881 2.575zm-.539 1.146c-1.352 2.6-3.5 4.651-6.793 3.079-1.35075-.714984-2.4282996-1.8550919-3.066-3.244 3.0408322-1.8594477 6.8820927-1.7951604 9.859.165zm-30.144-10.276c2.79277522-.7852409 5.6736093-1.2143084 8.574-1.277.1205189 1.1889089.4139458 2.3538575.871 3.458-2.9060625.2432239-5.75811356.9277431-8.458 2.03-.54828715-1.3430645-.88137718-2.7641811-.987-4.211zm14.669 16.048c-5.457-1.977-10.865-5.718-13.372-11.129 2.70027945-1.1396434 5.5744567-1.812539 8.5-1.99.7005183 1.4307273 1.8791778 2.5715367 3.332 3.225 1.371964.52832 2.8513451.7170166 4.312.55.320366 1.189266.7536696 2.3451888 1.294 3.452.0053642.0634255.0368848.1217567.087.161 1.335 2.574 3.412 4.6 6.683 4.358 2.913-.215 4.788-2.1 6.031-4.448.0996183-.071539.1590721-.1863592.16-.309.505675-1.0387941.9173187-2.1207811 1.23-3.233 1.6143615.1587442 3.2411489-.132693 4.7-.842 1.2328248-.6924127 2.2386906-1.7271068 2.896-2.979 3.034725.2271554 6.0044202.994894 8.769 2.267-4.922 11.982-23.455 14.963-34.622 10.917zm34.966-11.883c-2.8078896-1.0995922-5.7702156-1.754138-8.78-1.94.499724-1.1105853.8274781-2.29077.972-3.5 2.921293.0960639 5.8172038.5765303 8.613 1.429-.1036384 1.364842-.3739828 2.7118623-.805 4.011z"/></g></g></svg>