<svg height="512" viewBox="0 0 60 54" width="512" xmlns="http://www.w3.org/2000/svg"><g id="013---Panda" fill="none"><path id="Path" d="m40.311 6.748c-.2108041.00074999-.3994332-.13079501-.4715824-.3288693s-.0123175-.42012198.1495824-.5551307l2.111-1.764c-.0909444-.04273378-.1664071-.1126066-.216-.2-.1375532-.23865551-.0561721-.54361136.182-.682l3.55-2.05c.2244518-.12863856.5099659-.06482023.6582866.14714074s.1104625.50206066-.0872866.66885926l-1.14.955 3.992-2.305c.1549945-.09852969.351531-.10415386.5119064-.01464894s.2587712.25972968.2562855.44337398c-.0024857.18364429-.1054527.35114353-.2681919.43627496l-8.98 5.185c-.0756025.04276518-.1611444.06484049-.248.064z" fill="#515151"/><path id="Path" d="m22.08 20.982c-.2225971-.0002631-.4182138-.1476474-.4798555-.3615395-.0616417-.213892.0255381-.4427757.2138555-.5614605l7.086-4.447-9.184 5.3c-.2355125.13196-.5332497.0531389-.6726204-.1780652-.1393708-.2312042-.0700423-.5312938.1566204-.6779348l7.614-4.776-9.754 5.632c-.2340569.1357068-.5336008.0606207-.6759704-.1694442s-.0759129-.5316408.1499704-.6805558l6.472-4.277-8.881 5.127c-.2340027.1389988-.5362016.0652981-.6799386-.1658244s-.0762078-.5347601.1519386-.6831756l7.467-5-10.126 5.852c-.2338963.1269547-.5262491.04845-.6650871-.1785941-.1388379-.227044-.0755015-.5230536.1440871-.6734059l4.1-2.65-6.066 3.5c-.23344605.1352991-.53213452.0609722-.67494472-.1679561-.1428102-.2289282-.07822416-.5298733.14594472-.6800439l7.868-5.3-9.29 5.366c-.2341443.133112-.53165209.0568382-.67287099-.1725078-.1412189-.2293459-.07539606-.5293391.14887099-.6784922l4.378-2.867-5.065 2.925c-.23486417.1312813-.53150396.0531604-.67124116-.1767732-.1397372-.2299337-.07245767-.5292187.15224116-.6772268l.356-.228-.678.39c-.2327769.1270897-.52428602.0503218-.66427406-.174934-.13998804-.2252559-.07974688-.5206233.13727406-.673066l3.9-2.6-4.271 2.461c-.2341443.133112-.53165209.0568382-.67287099-.1725078-.1412189-.2293459-.07539606-.5293391.14887099-.6784922l1.3-.848-1.426.821c-.23132458.1263251-.52098691.0513891-.66202939-.1712679-.14104247-.2226569-.08502488-.5165645.12802939-.6717321l6.279-4.344-6.487 3.744c-.23041837.1322364-.52401892.0611893-.66848638-.1617642-.14446747-.2229535-.0893536-.5199576.12548638-.6762358l7.728-5.577-7.8 4.505c-.23240668.1328499-.52821577.0590851-.67103328-.1673329s-.08196881-.5251514.13803328-.6776671l4.69-3.23-4.364 2.516c-.23041837.1322364-.52401892.0611893-.66848638-.1617642-.14446747-.2229535-.0893536-.5199576.12548638-.6762358l5.531-4-4.86 2.806c-.23265.12885992-.5254615.05304724-.66634439-.17252517s-.08052968-.52195667.13734439-.67447483l.647-.437c-.22499392.02494837-.43868036-.10438024-.52093188-.31528157s-.0125454-.45075304.16993188-.58471843l2.592-1.934-1.08.623c-.22604703.12615201-.51100379.05891014-.65680833-.15498849s-.10423802-.50371591.09580833-.66801151l1.849-1.475c-.131492-.10215553-.2035019-.2630661-.19206626-.42918391.01143565-.16611781.10481611-.31564281.24906626-.39881609l3.6-2.075c.22604703-.12615201.51100379-.05891014.65680833.15498849s.10423802.50371591-.09580833.66801151l-.216.173 2.65-1.537c.2292016-.13030393.5201978-.0602449.6649792.1600976.1447814.22034249.0935911.51524355-.1169792.6739024l-2.587 1.935 4.335-2.5c.2329673-.1327691.5291919-.0581284.6714287.16918215.1422368.22731056.0798406.52635392-.1414287.67781785l-.128.087.863-.5c.2304184-.13223644.5240189-.06118928.6684864.16176419.1444674.22295348.0893536.51995759-.1254864.67623581l-5.533 4 6.813-3.931c.2327682-.13793867.5330334-.06569054.677577.16303478s.0809181.53093515-.143577.68196522l-4.692 3.231 5.451-3.146c.2304184-.13223644.5240189-.06118928.6684864.16176419.1444674.22295348.0893536.51995759-.1254864.67623581l-7.728 5.578 8.561-4.943c.2322938-.13517681.5298928-.06253672.6737842.16446202s.0825928.52713916-.1387842.67953798l-6.271 4.343 6.567-3.791c.2337734-.12874562.5274505-.05119801.667188.1761759.1397374.22737391.07627.52441224-.144188.6748241l-1.3.852 1.828-1.055c.2340027-.13899883.5362016-.06529813.6799386.16582441s.0762078.53476011-.1519386.68317559l-3.9 2.6 5.986-3.455c.2348642-.13128134.531504-.05316042.6712412.17677323.1397372.22993366.0724576.52921865-.1522412.67722677l-.341.219 1.862-1.075c.2341443-.13311196.5316521-.0568382.672871.17250776s.075396.52933917-.148871.67849224l-4.374 2.864 6.428-3.713c.2334461-.13529908.5321345-.06097219.6749447.16795606.1428102.22892826.0782242.52987333-.1459447.68004394l-7.871 5.3 10.651-6.15c.2355494-.14414631.5433537-.07004943.6875.16550001s.0700494.54335367-.1655.68749999l-4.094 2.647 6.066-3.5c.2344449-.14607932.5429207-.07444488.689.16s.0744449.54292068-.16.689l-7.47 5 10.131-5.853c.2329061-.12542926.5232086-.04774024.6623373.17725079s.0789338.5194187-.1373373.67174921l-6.468 4.277 19.1-11.03c.236654-.14248947.5440105-.06615401.6865.1705.1424895.23665402.066154.54401053-.1705.6865l-7.6 4.767 8.994-5.192c.2355125-.13195996.5332497-.0531389.6726204.17806525.1393708.23120415.0700423.53129378-.1566204.67793475l-7.095 4.452 8.1-4.678c.234481-.12707284.5274228-.04774006.6657366.18029089.1383139.22803094.0733058.52448086-.1477366.67370911l-8.845 5.62 9.7-5.6c.2343611-.12889229.5286543-.05052268.6678755.17785371.1392213.22837639.0740613.52587341-.1478755.67514629l-9.515 6.121 10.17-5.868c.2354116-.13795832.5379577-.06170795.6798637.17134529.1419059.23305325.070765.53684142-.1598637.68265471l-7.02 4.493 7.388-4.265c.2340569-.1357068.5336008-.06062069.6759704.16944421s.0759129.53164078-.1499704.68055579l-9.134 6.035 9.48-5.474c.2340569-.1357068.5336008-.06062069.6759704.16944421s.0759129.53164078-.1499704.68055579l-6.946 4.586 6.933-4c.2319831-.1309881.5259285-.05707946.6683699.16805269.1424414.22513216.0833463.52241-.1343699.67594731l-7.686 5.307 7.5-4.331c.2308022-.1338179.5260112-.06285643.670779.16123991.1447678.22409633.0880924.52237769-.128779.67776009l-6.5 4.672 5.966-3.443c.2314518-.1313128.5252013-.0583356.6682918.1660259.1430904.2243616.0853808.5214879-.1312918.6759741l-2.6 1.819 1.77-1.022c.228242-.1318458.5196375-.063862.6659708.1553737.1463332.2192358.0973404.5144185-.1119708.6746263l-2.745 2.1 1.274-.734c.2251719-.1281476.5109328-.0630663.6584056.14995.1474728.2130162.107801.5033971-.0914056.66905l-2 1.643c.1622477.0840431.2657295.249898.2698955.4325731.0041659.1826751-.0916477.3530749-.2498955.4444269l-3.71 2.142c-.2253151.1304911-.5130605.0662242-.6614447-.1477312-.1483843-.2139555-.1077334-.5059746.0934447-.6712688l.91-.746-2.717 1.562c-.2280542.1290416-.517047.0601323-.6623353-.1579314-.1452882-.2180638-.0975826-.5113034.1093353-.6720686l2.743-2.095-5.067 2.925c-.2318603.1330617-.527371.0602043-.6708066-.1653857-.1434357-.22559-.0840493-.5240996.1348066-.6776143l2.6-1.818-4.609 2.661c-.2308022.1338179-.5260112.0628564-.670779-.1612399s-.0880924-.5223777.128779-.6777601l6.5-4.673-9.548 5.512c-.2319831.1309881-.5259285.0570795-.6683699-.1680527-.1424414-.2251321-.0833463-.52241.1343699-.6759473l7.685-5.307-10.658 6.152c-.2340569.1357068-.5336008.0606207-.6759704-.1694442s-.0759129-.5316408.1499704-.6805558l6.945-4.585-9.413 5.435c-.2340569.1357068-.5336008.0606207-.6759704-.1694442s-.0759129-.5316408.1499704-.6805558l9.139-6.038-11.932 6.888c-.234023.1252853-.5251579.0458598-.6631351-.1809119-.1379772-.2267718-.0746978-.5218373.1441351-.6720881l7.018-4.494-9.26 5.347c-.2347713.1336383-.5332399.0566316-.6740509-.1739091-.1408109-.2305408-.0730402-.5312411.1530509-.6790909l9.523-6.126-12.09 6.979c-.2348642.1312813-.531504.0531604-.6712412-.1767732-.1397372-.2299337-.0724576-.5292187.1522412-.6772268l8.832-5.612-11.2 6.467c-.0764833.0444998-.1635154.0676393-.252.067z" fill="#515151"/><path id="Path" d="m45.375 8.189c-.2256041-.00078542-.4227369-.15255398-.481187-.37045627-.0584502-.21790228.0362625-.44795557.231187-.56154373l2.569-1.485c.23893-.13584515.5427102-.05337078.6801373.18465285.137427.23802363.0569695.54234426-.1801373.68134715l-2.569 1.484c-.0758978.04415489-.1621931.06728203-.25.067z" fill="#f6a5b5"/><path id="Path" d="m15.936 16.372c-.2152152 0-.4062846-.137715-.4743416-.3418861-.0680571-.2041711.0021694-.4289848.1743416-.5581139l1.94-1.472-4 2.309c-.2222901.121792-.5005481.0579824-.6475595-.1484972s-.1162621-.4902993.0715595-.6605028l3.273-2.852-6.213 3.581c-.22852334.1282497-.51729518.0583047-.66180513-.1602995-.14450995-.2186041-.09572494-.5116937.11180513-.6717005l1.59-1.197-2.482 1.435c-.22906317.1321979-.52145682.063148-.66718057-.1575572-.14572375-.2207053-.09436905-.5167199.11718057-.6754428l.779-.584-1.12.646c-.22389156.1275836-.5080784.0641108-.65641034-.1466086-.14833193-.2107193-.11222019-.4996603.08341034-.6673914l3.212-2.708-3.619 2.09c-.22796207.1212719-.51077226.0490141-.6526233-.1667447s-.09607985-.504043.1056233-.6652553l.511-.376-.265.152c-.22650697.1291681-.51424861.0625855-.66099174-.1529516-.14674314-.2155372-.10321493-.5076567.09999174-.6710484l1.543-1.226-1.069.616c-.21215843.1214824-.48105253.071733-.63570282-.1176145-.15465029-.1893474-.14970015-.4627602.01170282-.6463855l1.8-2.025c-.24327516.07654426-.50517338-.04227433-.60779903-.27574768-.10262564-.23347335-.01308586-.50677019.20779903-.63425232l2.544-1.472c.21160919-.12526876.4831344-.07582305.637.116.1552017.18994734.1496951.46443022-.013.648l-1.771 1.995 4.239-2.447c.226507-.12916814.5142486-.06258554.6609917.15295162.1467432.21553715.103215.50765663-.0999917.67104838l-1.547 1.23 2.215-1.277c.2295527-.13149209.521805-.0614183.6667704.15987256.1449654.22129087.0924688.51720615-.1197704.67512744l-.507.373.72-.415c.2241703-.12809525.5090066-.06444562.6573283.14688679.1483216.21133241.1113468.50084215-.0853283.66811321l-3.214 2.709 3.435-1.983c.2290632-.13219788.5214568-.06314799.6671806.15755725.1457237.22070523.094369.51671981-.1171806.67544275l-.779.584 2.447-1.411c.2285233-.12824968.5172952-.05830465.6618051.16029949.14451.21860415.095725.51169373-.1118051.67170051l-1.588 1.194 3.512-2.028c.2229237-.12779857.5064223-.06581962.6556784.14334552s.11567.49740953-.0776784.66665448l-3.274 2.852 6.351-3.668c.227871-.12651469.5147039-.05676597.6590373.16025712.1443334.2170231.0977476.50851535-.1070373.66974288l-1.946 1.478 4-2.311c.2233144-.13040868.509223-.06901362.6593121.14157844.150089.21059206.1148283.50088467-.0813121.66942156l-3.263 2.832 6.313-3.645c.2313261-.13338821.5266402-.06146595.670727.16335216.1440867.22481812.0860887.52317941-.131727.67764784l-.071.05 1.545-.891c.2198926-.1179958.4931214-.05578869.6402596.14577049.1471382.20155917.1231296.48074963-.0562596.65422951l-3.4 3.061 6.7-3.868c.2228025-.12580765.5046322-.06310991.6530847.14528965.1484525.20839957.1156192.4952461-.0760847.66471035l-3.256 2.821 6.294-3.633c.2271002-.12659133.5133226-.0580067.6583864.1577626.1450637.21576929.100553.50670898-.1023864.6692374l-2.292 1.78 4.52-2.608c.2221262-.12659452.5039712-.06522422.6533525.14226418.1493814.20748839.1181698.4942439-.0723525.66473582l-3.34 2.944 11.5-6.641c.2290632-.13219788.5214568-.06314799.6671806.15755725.1457237.22070523.094369.51671981-.1171806.67544275l-5.515 4.132 6.452-3.725c.2328603-.1351428.5309189-.06163618.6742423.16628028.1433233.22791645.080443.52839646-.1422423.67971972l-.734.5.729-.421c.2292016-.13030393.5201978-.0602449.6649792.1600976.1447814.22034249.0935911.51524355-.1169792.6739024l-2.389 1.771 2.245-1.295c.2275891-.12988968.5168511-.06203201.6629348.15551719.1460838.21754921.0994243.51097731-.1069348.67248281l-1.507 1.168.965-.557c.2164748-.1176434.486383-.0600602.6359981.1356862.149615.1957464.134338.4713056-.0359981.6493138l-1.553 1.58.042-.024c.1549945-.0985297.351531-.1041539.5119064-.0146489.1603754.0895049.2587712.2597296.2562855.4433739s-.1054527.3511436-.2681919.436275l-3.283 1.9c-.2164748.1176434-.486383.0600602-.6359981-.1356862-.149615-.1957464-.134338-.4713056.0359981-.6493138l1.56-1.573-4.088 2.351c-.2275891.1298897-.5168511.062032-.6629348-.1555172-.1460838-.2175492-.0994243-.5109773.1069348-.6724828l1.509-1.17-3.462 2c-.228997.1275142-.5175965.0565488-.6613452-.1626219-.1437487-.2191708-.0938504-.5121485.1143452-.6713781l2.39-1.772-4.515 2.604c-.2333482.1425022-.537887.0711396-.6836338-.1601958-.1457468-.2313355-.0786439-.5368412.1506338-.6858042l.736-.5-2.335 1.346c-.2290632.1321979-.5214568.063148-.6671806-.1575572-.1457237-.2207053-.094369-.5167199.1171806-.6754428l5.514-4.131-8.6 4.965c-.2225048.1289965-.5065753.0681522-.6567253-.1406622-.15015-.2088145-.1173946-.4974755.0757253-.6673378l3.339-2.943-6.5 3.751c-.2272713.1290292-.5155715.0612656-.6615658-.155498-.1459944-.2167636-.1004262-.5093938.1045658-.671502l2.293-1.774-4.516 2.6c-.2233144.1304087-.509223.0690136-.6593121-.1415784-.150089-.2105921-.1148283-.5008847.0813121-.6694216l3.257-2.821-6.289 3.632c-.2198926.1179958-.4931214.0557887-.6402596-.1457705s-.1231296-.4807496.0562596-.6542295l3.405-3.061-6.7 3.866c-.2313261.1333882-.5266402.061466-.670727-.1633522-.1440867-.2248181-.0860887-.5231794.131727-.6776478l.06-.042-1.531.884c-.2234316.132727-.5112922.0721604-.6622957-.1393487-.1510034-.2115092-.1147997-.5034361.0832957-.6716513l3.268-2.834-6.31 3.644c-.0770682.0448476-.1648382.0679996-.254.067z" fill="#f6a5b5"/><path id="Path" d="m28.58 53.4c-.2218793-.0003275-.4170034-.1468384-.4792095-.3598194-.0622062-.212981.0233867-.441482.2102095-.5611806l10.209-6.55-12.558 7.25c-.1529097.0925318-.3435692.0964583-.5001589.0103006-.1565897-.0861578-.2553199-.2493105-.259-.428-.00368-.1786896.0882492-.3457688.2411589-.4383006l10.216-6.466-12.047 6.956c-.2347713.1336383-.5332399.0566316-.6740509-.1739091-.1408109-.2305408-.0730402-.5312411.1530509-.6790909l16.354-10.6-18.8 10.853c-.2355125.13196-.5332497.0531389-.6726204-.1780652-.1393708-.2312042-.0700423-.5312938.1566204-.6779348l13.564-8.557-15.259 8.809c-.2356087.1297647-.5316571.04988-.6700067-.1807924-.1383496-.2306723-.0694166-.5294607.1560067-.6762076l9.689-6.012-10.856 6.268c-.2361017.1433179-.5436821.0681017-.687-.168s-.0681017-.5436821.168-.687l17.382-11.048-19.075 11.013c-.2355125.13196-.5332497.0531389-.6726204-.1780652-.1393708-.2312042-.0700423-.5312938.1566204-.6779348l16.1-10.116-17.355 10.021c-.2362075.133071-.5354329.0536509-.6745599-.1790411-.1391271-.2326919-.0674613-.5338687.1615599-.6789589l11.642-7.193-12.563 7.254c-.2354379.13455-.5352149.0569022-.6757281-.1750261-.1405133-.2319283-.0705395-.5335888.1577281-.6799739l20.47-12.952-21.689 12.524c-.23638246.1285498-.53210687.0469768-.6691568-.184581-.13704993-.2315579-.06627089-.5300498.1601568-.675419l2.161-1.31-2.568 1.483c-.2372063.1413849-.54411509.0637063-.68549998-.1735s-.0637063-.5441151.17349998-.6855l10.628-6.514-11.1 6.406c-.23775858.1405565-.54444351.0617586-.68499998-.176-.14055646-.2377586-.06175859-.5444435.17599998-.685l3.628-2.2-3.892 2.25c-.23560872.1297647-.5316571.04988-.67000668-.1807924-.13834959-.2306723-.06941665-.5294607.15600668-.6762076l16.316-10.105-16.821 9.712c-.23638246.1285498-.53210687.0469768-.6691568-.184581-.13704993-.2315579-.06627089-.5300498.1601568-.675419l3.186-1.929-3.267 1.886c-.23620749.133071-.53543293.0536509-.67455995-.1790411-.13912701-.2326919-.06746125-.5338687.16155995-.6789589l16.557-10.254-16.847 9.727c-.23638246.1285498-.53210687.0469768-.6691568-.184581-.13704993-.2315579-.06627089-.5300498.1601568-.675419l1.561-.945-1.425.821c-.15308831.0921745-.34372226.0956757-.50009189.0091846s-.25471867-.2498344-.258-.4285c-.00328132-.1786657.08900358-.3455101.24209189-.4376846l20.206-12.668-20.261 11.697c-.23583577.1260453-.52910097.0442222-.66561588-.1857118-.13651492-.2299339-.06795177-.5265795.15561588-.6732882l7.625-4.65-7.278 4.2c-.23620749.133071-.53543293.0536509-.67455995-.1790411-.13912701-.2326919-.06746125-.5338687.16155995-.6789589l15.839-9.843-15.357 8.867c-.23571786.1278172-.53029699.0469384-.66770199-.1833224-.13740501-.2302607-.06871185-.5279174.15570199-.6746776l10.535-6.482-9.82 5.669c-.23628449.1306359-.5336041.0500916-.67163931-.181948s-.06692381-.5317553.16063931-.677052l5.283-3.227-4.237 2.443c-.23428497.1222281-.52322996.0410463-.65957568-.1853141-.13634571-.2263603-.07301042-.5197344.14457568-.6696859l16.432-10.4-14.383 8.3c-.23560872.1297647-.5316571.04988-.67000668-.1807924-.13834959-.2306723-.06941665-.5294607.15600668-.6762076l8.881-5.53-7.027 4.062c-.23436107.1288923-.5286543.0505227-.66787555-.1778537-.13922124-.2283764-.07406124-.5258734.14787555-.6751463l13.2-8.482-12.15 7.013c-.23610173.1433179-.54368209.0681017-.68699998-.168s-.06810174-.5436821.16799998-.687l8.4-5.333-7.535 4.35c-.23415271.123715-.52415635.0433988-.66130449-.1831476-.13714814-.2265465-.07386591-.5207372.14430449-.6708524l5.779-3.665-4.773 2.754c-.23276564.1341958-.52997313.060446-.673-.167-.1427005-.2279584-.07951938-.5279583.143-.679l10.824-7.337-9.082 5.243c-.23365564.130691-.52879264.0541466-.66947868-.1736308s-.0769932-.5259521.14447868-.6763692l4.242-2.8-2.366 1.366c-.2266681.1317558-.5166136.0660514-.6643416-.1505461-.1477279-.2165976-.1030619-.5105201.1023416-.6734539l5-3.981c-.2069428.0344056-.413797-.0616764-.521-.242-.1380647-.2391402-.0561341-.54492481.183-.683l5.5-3.177c.2266681-.13175582.5166136-.0660514.6643416.15054615.1477279.21659755.1030619.51052002-.1023416.67345385l-4.846 3.854 11.031-6.363c.2336556-.13069104.5287926-.05414659.6694787.17363081.140686.22777741.0769932.52595205-.1444787.67636919l-4.24 2.8 6.609-3.815c.2329673-.1327691.5291919-.0581284.6714287.16918215.1422368.22731056.0798406.52635392-.1414287.67781785l-10.828 7.337 13.692-7.9c.2349709-.12921461.5300387-.05006202.6687925.17940502.1387537.22946704.0717837.52753611-.1517925.67559498l-5.769 3.651 7.111-4.106c.2354379-.13454995.5352149-.05690217.6757281.17502611.1405133.23192829.0705395.53358878-.1577281.67997389l-8.407 5.339 9.818-5.665c.2343611-.12889229.5286543-.05052268.6678755.17785371.1392213.22837639.0740613.52587341-.1478755.67514629l-13.2 8.486 14.806-8.549c.2356087-.12976469.5316571-.04987998.6700067.18079237.1383496.23067236.0694166.52946069-.1560067.67620763l-8.866 5.521 9.786-5.652c.2363779-.14304174.5439582-.06737786.687.16900001.1430417.23637787.0673779.54395823-.169.68699999l-16.425 10.393 17.743-10.244c.2374824-.14110875.5443912-.06298244.6855.1745s.0629824.54439125-.1745.6855l-5.3 3.235 5.794-3.345c.2372063-.14138487.5441151-.06370627.6855.17350002s.0637063.54411507-.1735.68549998l-10.514 6.472 11.185-6.457c.2362075-.13307102.5354329-.05365088.6745599.1790411.1391271.2326919.0674613.5338687-.1615599.6789589l-15.848 9.849 16.573-9.568c.2362845-.1306359.5336041-.0500916.6716393.181948s.0669238.5317553-.1606393.677052l-7.622 4.649 8-4.621c.2350866-.127347.5287583-.0472199.6665908.1818764.1378325.2290964.071048.5260868-.1515908.6741236l-20.202 12.672 20.913-12.074c.2363825-.1285498.5321069-.0469768.6691568.184581.1370499.2315579.0662709.5300498-.1601568.675419l-1.581.956 1.7-.98c.2356087-.1297647.5316571-.04988.6700067.1807924.1383496.2306723.0694166.5294607-.1560067.6762076l-16.55 10.248 16.918-9.767c.2363825-.1285498.5321069-.0469768.6691568.184581.1370499.2315579.0662709.5300498-.1601568.675419l-3.189 1.931 3.193-1.841c.2356087-.1297647.5316571-.04988.6700067.1807924.1383496.2306723.0694166.5294607-.1560067.6762076l-16.314 10.102 16.533-9.55c.2363825-.1285498.5321069-.0469768.6691568.184581.1370499.2315579.0662709.5300498-.1601568.675419l-3.662 2.22 3.52-2.032c.2372063-.1413849.5441151-.0637063.6855.1735s.0637063.5441151-.1735.6855l-10.631 6.516 10.566-6.1c.2370186-.1320316.5360843-.0509486.6739531.1827228s.0642274.5346559-.1659531.6782772l-2.117 1.282 1.9-1.095c.2363779-.1427656.5437344-.0668778.6865.1695.1427656.2363779.0668779.5437344-.1695.6865l-20.474 12.955 20.325-11.735c.2372063-.141661.544339-.0642063.686.173s.0642063.544339-.173.686l-11.637 7.188 11.435-6.6c.2355125-.13196.5332497-.0531389.6726204.1780652.1393708.2312042.0700423.5312938-.1566204.6779348l-16.097 10.11 16.212-9.36c.2348642-.1312813.531504-.0531604.6712412.1767732.1397372.2299337.0724576.5292187-.1522412.6772268l-17.393 11.056 17.845-10.3c.1532669-.0918173.3438754-.094893.5000249-.0080685.1561495.0868244.2541174.2503583.257.429s-.089758.3452512-.2430249.4370685l-9.68 6 9.892-5.71c.2346058-.1253855.5263122-.0451285.6637604.18262.1374483.2277485.0725112.523243-.1477604.67238l-13.561 8.566 13.717-7.92c.2342478-.1308833.5300435-.0535271.6702262.1752769s.074765.527467-.1482262.6767231l-16.354 10.6 16.455-9.5c.2349709-.1292146.5300387-.050062.6687925.179405.1387537.2294671.0717837.5275361-.1517925.675595l-10.216 6.461 9.889-5.709c.2348642-.1312813.531504-.0531604.6712412.1767732.1397372.2299337.0724576.5292187-.1522412.6772268l-10.216 6.551 9.652-5.573c.233204-.1287421.5263939-.0520483.6666872.1743946.1402933.226443.0784231.5231151-.1406872.6746054l-11.256 7.481 10.262-5.923c.23265-.1288599.5254615-.0530472.6663444.1725252s.0805297.5219566-.1373444.6744748l-7.631 5.115 6.039-3.487c.2274132-.1273482.5145055-.05864.6596263.1578646.1451209.2165046.0995839.5081708-.1046263.6701354l-5.888 4.545 1.823-1.051c.1549945-.0985297.351531-.1041539.5119064-.0146489.1603754.0895049.2587712.2597296.2562855.4433739s-.1054527.3511436-.2681919.436275l-8.289 4.786c-.2275891.1298897-.5168511.062032-.6629348-.1555172-.1460838-.2175492-.0994243-.5109773.1069348-.6724828l5.89-4.546-12.531 7.234c-.23265.1288599-.5254615.0530472-.6663444-.1725252s-.0805297-.5219566.1373444-.6744748l7.634-5.118-11.048 6.379c-.2324996.1240701-.5213839.0463844-.6602955-.1775644-.1389116-.2239487-.0801563-.5172694.1342955-.6704356l11.258-7.483-14.517 8.38c-.0755201.0456395-.1617733.0704804-.25.072z" fill="#d2d1d1"/><path id="Path" d="m28.952 39.313c-.1987011-.0002407-.3784029-.1181166-.457773-.3002775-.0793701-.1821608-.043344-.3940325.091773-.5397225l1.619-1.741-2.728 1.576c-.2167744.1265702-.4937926.0727938-.6474656-.1256899-.1536729-.1984837-.1363597-.4801417.0404656-.6583101l1.112-1.131-1.457.84c-.2089623.1200463-.4738237.0739562-.6299505-.1096215s-.1590908-.4524031-.0070495-.6393785l.45-.55c-.2382602.0393189-.4705757-.0972657-.552075-.32458s.0111092-.4803944.220075-.60142l2.139-1.236c.2089623-.1200463.4738237-.0739562.6299505.1096215s.1590908.4524031.0070495.6393785l-.394.479 2.277-1.315c.2166955-.1249531.4923876-.0705435.6453641.1273666.1529764.19791.1361605.4784164-.0393641.6566334l-1.111 1.131 2.431-1.4c.2139489-.1232072.4857982-.0718107.64.121.1550122.1935099.1447991.4713912-.024.653l-1.62 1.741 2.113-1.215c.1549945-.0985297.351531-.1041539.5119064-.0146489.1603754.0895049.2587712.2597296.2562855.4433739s-.1054527.3511436-.2681919.436275l-5 2.881c-.0752182.0440363-.1608395.0671679-.248.067z" fill="#515151"/><path id="Path" d="m15.073 41.451c-.2115652-.000155-.4001335-.1334487-.4708638-.3328406-.0707302-.1993918-.0083109-.4217183.1558638-.5551594l2.292-1.863-3.838 2.216c-.2327682.1379387-.5330334.0656905-.677577-.1630348s-.0809181-.5309351.143577-.6819652l.344-.237-.935.54c-.2314518.1313128-.5252013.0583356-.6682918-.1660259-.1430904-.2243616-.0853808-.5214879.1312918-.6759741l4.875-3.432-5.617 3.242c-.2333482.1425022-.537887.0711396-.6836338-.1601958-.14574682-.2313355-.0786439-.5368412.1506338-.6858042l5.281-3.6-5.585 3.225c-.23400272.1389988-.53620161.0652981-.67993859-.1658244-.14373699-.2311225-.07620784-.5347601.15193859-.6831756l4.325-2.884-4.262 2.46c-.23093065.1317312-.52456739.0597083-.66833375-.1639283s-.0873821-.520673.12833375-.6760717l8.458-6.013-8.069 4.658c-.23081697.1267753-.52040052.0527915-.66212318-.1691615-.14172267-.221953-.08699929-.5157856.12512318-.6718385l6.828-4.779-5.241 3.026c-.2304184.1322364-.52401892.0611893-.66848638-.1617642-.14446747-.2229535-.0893536-.5199576.12548638-.6762358l5.756-4.159-3.4 1.964c-.2299606.1262156-.518365.0532546-.6606421-.1671302-.1422771-.2203849-.0900471-.5132542.1196421-.6708698l2.139-1.531c-.202296.0513141-.4151851-.0284196-.534-.2-.1485511-.2135445-.1085462-.5053198.092-.671l2.907-2.4c-.042645-.0368194-.0785192-.080816-.106-.13-.1382327-.2388784-.0567713-.5445824.182-.683l3.043-1.758c.2254575-.1330437.5153687-.0696598.6647344.1453323.1493656.2149921.1076129.5087994-.0957344.6736677l-1.36 1.123 3.459-2c.2305507-.1302945.5227069-.0582293.6662193.1643342.1435123.2225634.0886.5184238-.1252193.6746658l-1.987 1.421 2.974-1.716c.2304184-.1322364.5240189-.0611893.6684864.1617642.1444674.2229535.0893536.5199576-.1254864.6762358l-5.756 4.161 6.717-3.877c.2314518-.1313128.5252013-.0583356.6682918.1660259.1430904.2243616.0853808.5214879-.1312918.6759741l-6.827 4.778 7.288-4.208c.2309306-.1317312.5245674-.0597083.6683337.1639283.1437664.2236366.0873821.520673-.1283337.6760717l-8.467 6.015 8.468-4.89c.2327769-.1270897.524286-.0503218.6642741.174934.139988.2252559.0797468.5206233-.1372741.673066l-4.316 2.88 3.731-2.154c.2328603-.1351428.5309189-.0616362.6742423.1662803.1433233.2279164.080443.5283964-.1422423.6797197l-5.281 3.6 3.8-2.194c.2314518-.1313128.5252013-.0583356.6682918.1660259.1430904.2243616.0853808.5214879-.1312918.6759741l-4.869 3.432 2.033-1.173c.2313246-.1263251.5209869-.0513891.6620294.1712679.1410425.2226569.0850249.5165645-.1280294.6717321l-1.567 1.076c.1314351.0233045.2480947.0981971.324.208.1467109.2155296.103181.5076152-.1.671l-2.3 1.869c.2419007-.1333768.5461232-.0454007.6795.1965s.0454007.5461232-.1965.6795l-5.395 3.114c-.0726136.0424339-.1549099.0655044-.239.067z" fill="#515151"/><path id="Path" d="m43.476 41.294c-.2114169.0001723-.4000924-.1326458-.4712423-.3317308-.0711499-.1990849-.0093945-.4214031.1542423-.5552692l2.654-2.171-3.9 2.25c-.2288588.1292299-.518701.0592157-.6633326-.1602346-.1446317-.2194502-.0946742-.513414.1143326-.6727654l2.164-1.616-2.728 1.578c-.2300482.1308569-.5222207.059778-.6664488-.1621318-.1442281-.2219099-.0905463-.5177734.1224488-.6748682l1.928-1.4-2.152 1.241c-.2305507.1302945-.5227069.0582293-.6662193-.1643342-.1435123-.2225634-.0886-.5184238.1252193-.6746658l1.49-1.066-1.594.92c-.2285233.1282497-.5172952.0583047-.6618051-.1602995-.14451-.2186041-.095725-.5116937.1118051-.6717005l3.109-2.335-3.336 1.923c-.2318603.1330617-.527371.0602043-.6708066-.1653857-.1434357-.22559-.0840493-.5240996.1348066-.6776143l.294-.2-.309.179c-.2291432.1380567-.526358.0712921-.6744416-.1515028-.1480836-.2227948-.0945664-.5226782.1214416-.6804972l3.351-2.543-3.683 2.125c-.2303174.1272935-.5198822.0542782-.6623044-.1670037s-.0889497-.5150841.1223044-.6719963l1.409-1.005-1.544.89c-.230817.1267753-.5204005.0527915-.6621232-.1691615-.1417226-.221953-.0869993-.5157856.1251232-.6718385l.7-.495-.823.475c-.2285788.1329729-.5211739.064966-.667677-.1551861-.1465031-.220152-.0962484-.5163129.114677-.6758139l3.248-2.465-3.632 2.1c-.2253165.1265297-.5099298.0605202-.6565485-.1522715-.1466186-.2127916-.1069324-.5022515.0915485-.6677285l4.278-3.48-4.727 2.729c-.2245855.1309436-.5120466.0679354-.6612702-.144943-.1492235-.2128783-.1104168-.5045939.0892702-.671057l4.2-3.525-4.212 2.431c-.22978.1349572-.525025.0659893-.6712375-.156798s-.0920063-.5210957.1232375-.678202l.944-.7-.33.191c-.2137916.1241908-.4862521.0734756-.6410402-.1193218-.1547881-.1927975-.1454204-.4697794.0220402-.6516782l2.15-2.349-.041.024c-.2374252.1242009-.5305531.0391619-.6646466-.1928199-.1340935-.2319817-.0614797-.5284321.1646466-.6721801l2.85-1.646c.2137916-.1241908.4862521-.0734756.6410402.1193218.1547881.1927975.1454204.4697794-.0220402.6516782l-2.15 2.348 5.149-2.972c.22978-.1349572.525025-.0659893.6712375.156798s.0920063.5210957-.1232375.678202l-.95.7 1.548-.894c.2245855-.1309436.5120466-.0679354.6612702.144943.1492235.2128783.1104168.5045939-.0892702.671057l-4.2 3.524 5.2-3c.2253165-.1265297.5099298-.0605202.6565485.1522715.1466186.2127916.1069324.5022515-.0915485.6677285l-4.278 3.481 5.092-2.94c.2285788-.1329729.5211739-.064966.667677.1551861.1465031.220152.0962484.5163129-.114677.6758139l-3.244 2.461 3.642-2.1c.2314518-.1313128.5252013-.0583356.6682918.1660259.1430904.2243616.0853808.5214879-.1312918.6759741l-.708.5.85-.491c.2309306-.1317312.5245674-.0597083.6683337.1639283.1437664.2236366.0873821.520673-.1283337.6760717l-1.413 1.008 1.55-.894c.2285788-.1329729.5211739-.064966.667677.1551861.1465031.220152.0962484.5163129-.114677.6758139l-3.346 2.54 3.626-2.094c.232192-.1378754.5319082-.0664712.6769921.1612862.1450839.2277573.0831069.529564-.1399921.6817138l-.3.21.329-.19c.2285233-.1282497.5172952-.0583047.6618051.1602995.14451.2186041.095725.5116937-.1118051.6717005l-3.11 2.335 3.273-1.889c.2305507-.1302945.5227069-.0582293.6662193.1643342.1435123.2225634.0886.5184238-.1252193.6746658l-1.489 1.067 1.519-.877c.2300482-.1308569.5222207-.059778.6664488.1621318.1442281.2219099.0905463.5177734-.1224488.6748682l-1.925 1.4 1.845-1.064c.2288588-.1292299.518701-.0592157.6633326.1602346.1446317.2194502.0946742.513414-.1143326.6727654l-2.163 1.615 1.89-1.091c.2251719-.1281476.5109328-.0630663.6584056.14995.1474728.2130162.107801.5033971-.0914056.66905l-2.653 2.17 1.863-1.085c.2206356-.1300292.503851-.072325.6560244.1336626s.1241014.4936554-.0650244.6663374l-1.6 1.5c.2110136.0302381.3796517.1909347.4200252.4002457.0403736.2093109-.0563968.4212016-.2410252.5277543l-3.117 1.8c-.2206356.1300292-.503851.072325-.6560244-.1336626s-.1241014-.4936554.0650244-.6663374l1.252-1.169-3.419 1.974c-.0768796.041967-.1634346.0630023-.251.061z" fill="#515151"/><path id="Path" d="m29.89 48.445c-.1945745-.0002601-.3713269-.1133746-.453069-.2899462-.0817422-.1765716-.0536264-.3845278.072069-.5330538l1.216-1.434-2.437 1.412c-.2174475.1222843-.4917629.0655717-.6428937-.1329134-.1511308-.1984852-.1328285-.4780031.0428937-.6550866l.662-.657-.8.463c-.1593459.0919476-.3563132.0889629-.5128-.0077706s-.2472116-.2715878-.2362-.4552294l.084-1.4c-.1965336-.050815-.3428384-.215412-.3702561-.4165485-.0274178-.2011365.0694939-.3988873.2452561-.5004515l.419-.242c.1593459-.0919476.3563132-.0889629.5128.0077706s.2472116.2715878.2362.4552294l-.073 1.231 3.345-1.938c.2174475-.1222843.4917629-.0655717.6428937.1329134.1511308.1984852.1328285.4780031-.0428937.6550866l-.661.655 1.583-.914c.2104359-.1206411.4771079-.0728408.6325393.1133813.1554313.186222.1547824.4571434-.0015393.6426187l-1.218 1.436.186-.107c.1549945-.0985297.351531-.1041539.5119064-.0146489.1603754.0895049.2587712.2597296.2562855.4433739s-.1054527.3511436-.2681919.436275l-2.681 1.547c-.0758031.044382-.1621615.067526-.25.067z" fill="#8e234c"/><path id="Path" d="m29.935 42.478c-.226294-.00001-.4243705-.1520058-.4829405-.3705888-.0585699-.2185831.0369699-.4492542.2329405-.5624112l.118-.068c.2374252-.1242009.5305531-.0391619.6646466.1928199.1340935.2319817.0614797.5284321-.1646466.6721801l-.118.068c-.0759114.0442382-.1621395.0676923-.25.068z" fill="#8e234c"/><path id="Path" d="m19.48 37.387c-.2083009.0001744-.3948874-.1288076-.4683193-.3237359s-.0183231-.4149599.1383193-.5522641l.085-.074-1.027.592c-.2208144.1342809-.5075757.0781561-.6614736-.1294633s-.1242133-.4983097.0684736-.6705367l2.685-2.529-3.777 2.181c-.2205392.1280792-.5021318.0696485-.6535046-.1356028-.1513729-.2052513-.124009-.4915375.0635046-.6643972l3.2-2.976-3.639 2.1c-.2209688.1391878-.5118365.0848763-.6676883-.1246724-.1558519-.2095487-.1241864-.5037444.0726883-.6753276l2.716-2.589-2.206 1.284c-.2166955.1249531-.4923876.0705435-.6453641-.1273666-.1529764-.19791-.1361605-.4784164.0393641-.6566334l1.233-1.253c-.1284911-.0348395-.2380752-.1189138-.305-.234-.1373847-.2389169-.0555349-.543953.183-.682l2.43-1.4c.2163843-.1232964.4905169-.0685506.6429461.1284.1524291.1969505.1366764.476052-.0369461.6546l-.852.867 2.644-1.527c.2209688-.1391878.5118365-.0848763.6676883.1246724.1558519.2095487.1241864.5037444-.0726883.6753276l-2.718 2.59 3.85-2.222c.2205392-.1280792.5021318-.0696485.6535046.1356028.1513729.2052513.124009.4915375-.0635046.6643972l-3.2 2.974 3.641-2.112c.2208144-.1342809.5075757-.0781561.6614736.1294633s.1242133.4983097-.0684736.6705367l-2.684 2.533 1.7-.983c.2227723-.1294397.5074311-.0684047.6575526.1409889s.1165485.4985799-.0775526.6680111l-1.337 1.171c.1253256.1049181.1914599.2644668.1771116.4272809-.0143484.1628142-.1073679.3083371-.2491116.3897191l-2.55 1.472c-.0757231.044686-.162075.0681737-.25.068z" fill="#fff"/><path id="Path" d="m41.407 37.244c-.1993545.0001033-.3797211-.1182267-.4590104-.3011351-.0792892-.1829083-.0423481-.3954394.0940104-.5408649l1.178-1.26-3.19 1.841c-.2205392.1280792-.5021318.0696485-.6535046-.1356028-.1513729-.2052513-.124009-.4915375.0635046-.6643972l2.685-2.483-3.136 1.81c-.2274132.1273482-.5145055.05864-.6596263-.1578646-.1451209-.2165046-.0995839-.5081708.1046263-.6701354l.581-.449-.65.374c-.217772.1239843-.4936884.0676117-.6453756-.131857-.1516872-.1994686-.1322878-.4804159.0453756-.657143l2.791-2.738-3.272 1.889c-.2090217.1212969-.4748817.0757365-.6315895-.1082355s-.1594062-.4536941-.0064105-.6407645l1.833-2.243-.065.037c-.1549945.0985297-.351531.1041539-.5119064.0146489-.1603754-.0895049-.2587712-.2597296-.2562855-.4433739s.1054527-.3511436.2681919-.436275l2.43-1.4c.2089623-.1200463.4738237-.0739562.6299505.1096215s.1590908.4524031.0070495.6393785l-1.833 2.244 4.324-2.5c.217772-.1239843.4936884-.0676117.6453756.131857.1516872.1994686.1322878.4804159-.0453756.657143l-2.792 2.736 3.693-2.131c.2274132-.1273482.5145055-.05864.6596263.1578646.1451209.2165046.0995839.5081708-.1046263.6701354l-.582.449.534-.308c.2205392-.1280792.5021318-.0696485.6535046.1356028.1513729.2052513.124009.4915375-.0635046.6643972l-2.682 2.486 2.239-1.291c.2143746-.1227956.4862971-.0706141.6399891.1228129s.1430745.4701074-.0249891.6511871l-1.374 1.471c.2192618.014737.4031991.1709106.4533014.3848795.0501023.2139688-.0453766.4355697-.2353014.5461205l-2.429 1.4c-.0757038.0447318-.1620685.0682231-.25.068z" fill="#fff"/><g fill="#262626"><path id="Shape" d="m27.184 24.21c-1.926-4.136-7.038-4.205-10.386-1.985-.0219515.0160835-.0420719.0345273-.06.055-.012.008-.031.015-.041.023-3.788 3.234-11.027 11.006-7.329 16.265 2.155 3.064 6.605 3.474 9.637 1.505 2.921-1.9 4.558-6.077 6.613-8.783 1.638-2.156 2.833-4.362 1.566-7.08zm-6.469 12.34c-3.44.579-4.743-4.1-3.378-6.5 2.262-3.984 5.939-.175 5.939 2.758 0 0 0 .007.006.012-.346.417-.681.831-.975 1.246-.495.695-1.013 1.585-1.592 2.484zm3.858-5.326c-.3956308-1.6647742-1.6775601-2.9753979-3.3331699-3.4077786s-3.4146941.0840488-4.5738301 1.3427786c-1.3948892 1.3835585-1.7945289 3.4828679-1.0055509 5.2821632.7889781 1.7992954 2.603879 2.9275446 4.5665509 2.8388368-1.685 2.434-3.909 4.557-7.457 2.613-7.536-4.131 1.223-14.232 5.18-17.636 5.478-3.588 9.771 3.2 7.6 7.471-.2809712.5264678-.607909 1.027081-.977 1.496z"/><path id="Shape" d="m43.2 21.819c-3.726-2.472-9.273-1.313-10.671 3.321-.781 2.587.346 4.528 1.849 6.527 2.044 2.72 3.775 7.01 6.691 8.851 1.7676144 1.0426762 3.8963941 1.2807974 5.8507025.6544484 1.9543084-.6263491 3.5480808-2.0575354 4.3802975-3.9334484 2.126-5.346-4.445-12.299-8.1-15.42zm-3.876 14.535c-.0486231-.0074407-.0978899-.0097867-.147-.007-.89-1.239-1.686-2.592-2.447-3.8v-.005c0-3 3.212-5.664 5.578-2.735 1.863 2.307.792 7.493-2.984 6.547zm10.584.687c-.954871 2.3509973-3.4558162 3.6812694-5.939 3.159-1.5919218-.4604318-2.9849872-1.438287-3.959-2.779 1.875402-.1458487 3.5188799-1.3106402 4.2777879-3.0318209.758908-1.7211808.5104194-3.7201835-.6467879-5.2031791-2.509-3.148-6.808-1.491-8.03 1.7-1.093-1.487-2.084-2.857-1.83-4.828.521-4.024 5.151-5.472 8.31-3.376 2.5791124 2.2785893 4.7529568 4.9782274 6.429 7.984 1.136 1.953 2.285 4.082 1.388 6.375z"/><path id="Shape" d="m55.652 2.729c-5.418-4.071-12.87-1.829-16.13 3.671-6.0568778-2.32044524-12.765553-2.27438781-18.79.129-1.5645426-3.10242625-4.5156174-5.27203189-7.9434846-5.83998358-3.42786707-.56795169-6.92098486.53393748-9.4025154 2.96598358-5.599 5.583-3.053 14.445 3.928 17.264-.30496648 1.6454265-.69245546 3.2744823-1.161 4.881-.993 2.962-3.292 4.972-3.753 8.234-.35350066 2.6905731.19700388 5.422342 1.565 7.766 5.7 10.01 20.166 12.446 30.583 11.244 9.686-1.119 22.652-6.387 23.176-17.736-.3-4.118-2.656-6.2-3.87-9.818-.4667943-1.6061443-.8519542-3.2348967-1.154-4.88 7.223-3.036 9.8-12.734 2.952-17.881zm-52.252 2.859c4.236-6.222 12.737-4.581 15.978 1.526-1.0700841.49802679-2.1030679 1.0721666-3.091 1.718-.7960859-1.55062859-2.243297-2.66451841-3.9460361-3.03718609s-3.48293329.03486049-4.8539639 1.11118609c-1.61639882 1.18595655-2.40947855 3.1937812-2.03983591 5.1642133.36964264 1.970432 1.83650557 3.5543034 3.77283591 4.0737867-.225.376-.454.748-.654 1.136-.39216021.7754123-.7057231 1.5881298-.936 2.426-5.302-2.489-7.722-8.994-4.23-14.118zm6.349 9.7c-2.35001689-.9599217-3.55973147-3.5718054-2.772-5.985 1.5-4.285 6.7-3.3 8.066.4-.6.449-1.187.917-1.744 1.424-1.3516781 1.2366661-2.545387 2.6355961-3.554 4.165zm46.531 20.4c-.76 16.421-24.582 18.957-36.552 15.53-5.52-1.573-11.366-4.648-14.314-9.808-1.08403322-1.851847-1.66652349-3.9543267-1.69-6.1.01-4.158 2.662-6.16 3.864-9.742.818-2.44.789-4.943 1.856-7.366 1.2076132-2.7132189 2.9697222-5.1436553 5.173-7.135.506-.46 1.038-.883 1.581-1.288.1023828-.04445142.1940941-.11025169.269-.193 1.0536213-.76228223 2.1734329-1.42861366 3.346-1.991.4097835.09074497.8311873-.09407417 1.042-.457 5.7634912-2.37410008 12.2350658-2.35574866 17.985.051 1.6498915.70696901 3.2109407 1.6054701 4.651 2.677.0316174.04628992.0771488.08131404.13.1 3.1797792 2.337235 5.6587709 5.500647 7.168 9.147.96 2.378.932 4.958 1.831 7.3 1.335 3.462 3.366 5.276 3.656 9.281zm-11.311-26.268c.5248379-1.57678056 1.9344518-2.69244943 3.5896252-2.84108522 1.6551735-.14863579 3.2410073.69803968 4.0383748 2.15608522.6829577 1.1330999.8426879 2.506136.4380839 3.7657559-.404604 1.2596198-1.3340281 2.2828074-2.5490839 2.8062441-1.4682133-2.2795437-3.3374219-4.2741116-5.517-5.887zm7.568 10.53c-.2489014-1.0323095-.6149421-2.0327984-1.091-2.982-.167-.322-.361-.627-.543-.94 3.663-1.508 5.413-6.282 1.918-9.193-1.3826702-1.06898686-3.1644885-1.47805022-4.8749619-1.11917601-1.7104734.3588742-3.1776205 1.44960262-4.0140381 2.98417601-1.0623406-.70569359-2.1803663-1.32373472-3.343-1.848 1.5477367-3.20248107 4.7922055-5.23620272 8.3490814-5.23343223 3.5568759.00277048 6.7981726 2.04154396 8.3409186 5.24643223 1.1324012 2.36025088 1.2678818 5.0767799.3759399 7.5379902-.8919418 2.4612103-2.7363369 4.4602329-5.1179399 5.5470098z"/><path id="Shape" d="m34.266 41.055c.1446384.8514217-.2094795 1.7107012-.912 2.213-.7264215.3639785-1.6090949.1584417-2.1-.489-.009-.012-.019-.024-.027-.036-.033-.039-.059-.082-.089-.123-.2368792-.4004135-.3782092-.8500686-.413-1.314 0-.009-.011-.013-.014-.022.0432443-.6347124.0529245-1.2712662.029-1.907 1.977-.29 3.779-1.466 3.993-3.436-.0013174-.0284563-.0060171-.0566546-.014-.084 0-.016.009-.031.006-.048-.492-3.666-10.3-2.944-9.382.77.5384971 1.7071286 2.1280076 2.8629519 3.918 2.849-.0307128.6999613-.0213642 1.4011064.028 2.1-.0133559.1902516-.0397512.3793624-.079.566-.0933754.5215991-.4324389.9662129-.9107466 1.1942618-.4783078.2280489-1.037212.2115706-1.5012534-.0442618-.7659524-.4994916-1.178884-1.3929466-1.063-2.3 0-.751-1.468-.531-1.468.114-.1237695 1.1436869.3741193 2.2661304 1.305 2.942.2180463.1416557.45328.2549039.7.337-.1154168.9874343.1334867 1.9830482.7 2.8.8107334.9272021 2.0444257 1.367455 3.259 1.163 1.1895814-.1201636 2.2705597-.7445751 2.969-1.715.4080032-.7063029.591786-1.5198991.527-2.333.1799119-.0722037.3532271-.159865.518-.262 1.0173787-.665143 1.5894611-1.8334803 1.491-3.045-.002-.758-1.47-.545-1.47.11zm-7.315-4.508c-1.028-2.462 5.836-2.93 6.3-.417-.393 2.993-5.24 2.955-6.3.417zm5.249 9.253c-.1031303.6877684-.5433238 1.2784194-1.1729234 1.5738268-.6295997.2954074-1.3652086.2564416-1.9600766-.1038268-.9113542-.6155861-1.419791-1.6748931-1.33-2.771.4702589-.0513822.9260455-.1936881 1.342-.419.3238792-.1783607.6115011-.4157843.848-.7.2569278.3467582.5929009.6271928.98.818.4278695.2082799.8961927.3202405 1.372.328.0253535.4262989-.0011742.8540992-.079 1.274z"/><path id="Path" d="m19.271 32.075v1c0 .675 1.458.4 1.458-.15v-1c0-.675-1.458-.404-1.458.15z"/><path id="Path" d="m39.276 32.194v1c0 .382 1.448.131 1.448-.388v-1c0-.382-1.448-.131-1.448.388z"/></g></g></svg>