<svg height="512" viewBox="0 0 60 60" width="512" xmlns="http://www.w3.org/2000/svg"><g id="029---Penguin" fill="none"><path id="Path" d="m35.558 3.107c-.2256041-.00078542-.4227369-.15255398-.481187-.37045627-.0584502-.21790228.0362625-.44795557.231187-.56154373l.489-.283c.2394154-.13807119.5454288-.05591544.6835.1835s.0559154.54542881-.1835.6835l-.489.281c-.0758978.04415489-.1621931.06728203-.25.067z" fill="#636c76"/><path id="Path" d="m27.646 4.17c-.1819074-.00013537-.3493892-.09905432-.437325-.25829505-.0879359-.15924073-.0824498-.35367589.014325-.50770495l1.177-1.879c-.03874-.20885066.0587061-.41938217.243-.525l.243-.14c.1991965-.11524767.4513319-.07964517.6108298.08625154.1594978.16589671.1851601.41923688.0621702.61374846l-.421.671.53-.3c.1549945-.09852969.351531-.10415386.5119064-.01464894s.2587712.25972968.2562855.44337398c-.0024857.18364429-.1054527.35114353-.2681919.43627496l-2.268 1.304c-.0768859.04562193-.1645978.06979451-.254.07z" fill="#636c76"/><path id="Path" d="m30.546 59.437c-.2222498.0005617-.4181932-.1456468-.4809299-.3588588-.0627367-.2132121.0227943-.4422432.2099299-.5621412l10.2-6.558-12.639 7.3c-.2369302.1419372-.5440628.0649301-.686-.172-.1419372-.2369302-.0649301-.5440628.172-.686l4.636-2.877-6.246 3.6c-.2356087.1297647-.5316571.04988-.6700067-.1807924-.1383496-.2306723-.0694166-.5294607.1560067-.6762076l6.974-4.331-8.4 4.847c-.2352087.125628-.5276152.0445694-.664573-.1842276-.1369579-.228797-.070267-.5248112.151573-.6727724l8.281-5.134-9.74 5.623c-.2354116.1379583-.5379577.061708-.6798637-.1713453-.1419059-.2330532-.070765-.5368414.1598637-.6826547l18.33-11.706-20.445 11.811c-.2355125.13196-.5332497.0531389-.6726204-.1780652-.1393708-.2312042-.0700423-.5312938.1566204-.6779348l16.709-10.495-18.421 10.636c-.2350866.127347-.5287583.0472199-.6665908-.1818764-.1378325-.2290964-.071048-.5260868.1515908-.6741236l16.263-10.139-17.566 10.145c-.2361735.1361818-.537908.0580681-.6783318-.1756081-.1404239-.2336761-.0677709-.5367718.1633318-.6813919l19.938-12.533-21.482 12.402c-.2362075.133071-.5354329.0536509-.6745599-.1790411-.1391271-.2326919-.0674613-.5338687.1615599-.6789589l14.3-8.812-15.179 8.765c-.2362075.133071-.5354329.0536509-.6745599-.1790411-.1391271-.2326919-.0674613-.5338687.1615599-.6789589l16.587-10.249-17.564 10.136c-.23560872.1297647-.5316571.04988-.67000668-.1807924-.13834959-.2306723-.06941665-.5294607.15600668-.6762076l18.536-11.491-19.419 11.212c-.23620749.133071-.53543293.0536509-.67455995-.1790411-.13912701-.2326919-.06746125-.5338687.16155995-.6789589l19.105-11.842-19.936 11.509c-.23560872.1297647-.5316571.04988-.67000668-.1807924-.13834959-.2306723-.06941665-.5294607.15600668-.6762076l20.071-12.452-20.789 12c-.23748244.1411088-.54439125.0629824-.6855-.1745s-.06298244-.5443912.1745-.6855l11.8-7.2-12.144 7.012c-.23775858.1405564-.54444351.0617586-.68499997-.176-.14055647-.2377586-.0617586-.5444435.17599997-.685l5.4-3.265-5.615 3.241c-.23551248.13196-.53324972.0531389-.67262044-.1780652-.13937073-.2312042-.07004227-.5312938.15662044-.6779348l23.376-14.636-23.854 13.772c-.23638246.1285498-.53210687.0469768-.6691568-.184581-.13704993-.2315579-.06627089-.5300498.1601568-.675419l5.946-3.6-5.994 3.46c-.23571786.1278172-.53029699.0469384-.66770199-.1833224-.13740501-.2302607-.06871185-.5279174.15570199-.6746776l15.884-9.761-15.961 9.216c-.23473446.1238045-.5252986.0426548-.6619149-.1848618-.13661629-.2275167-.07168534-.5221296.1479149-.6711382l22.066-13.8-22.156 12.796c-.23701856.1320316-.53608427.0509486-.6739531-.1827228-.13786884-.2336714-.06422739-.5346559.1659531-.6782772l1.539-.923-1.292.745c-.23748244.1411087-.54439121.0629824-.68549995-.1745-.14110875-.2374825-.06298246-.5443912.17449995-.6855l12.418-7.6-12.066 6.957c-.23775858.1405565-.54444353.0617586-.685-.176s-.06175858-.5444435.176-.685l.909-.549-.518.3c-.23638246.1285498-.53210687.0469768-.6691568-.184581-.13704993-.2315579-.06627089-.5300498.1601568-.675419l1.609-.972-1.116.645c-.23775858.1405565-.54444353.0617586-.685-.176s-.06175858-.5444435.176-.685l2.681-1.628-2.07 1.2c-.23617349.1361818-.537908.0580681-.67833183-.1756081-.14042384-.2336761-.06777082-.5367718.16333183-.6813919l16.75-10.457-15.935 9.199c-.23428497.1222281-.52322996.0410463-.65957568-.1853141-.13634571-.2263603-.07301042-.5197344.14457568-.6696859l16.9-10.625-15.876 9.168c-.23617349.1361818-.537908.0580681-.67833183-.1756081-.14042384-.2336761-.06777083-.5367718.16333183-.6813919l14.305-8.972-13 7.507c-.23541159.1379583-.53795774.061708-.67986369-.1713453-.14190596-.2330532-.07076502-.5368414.15986369-.6826547l17.23-11.061-15.483 8.937c-.23543794.13455-.53521485.0569022-.67572813-.1750261s-.0705395-.5335888.15772813-.6799739l12.285-7.78-10.47 6.045c-.23617349.1361818-.537908.0580681-.67833183-.1756081-.14042384-.2336761-.06777083-.5367718.16333183-.6813919l5.614-3.5-3.882 2.246c-.23560872.1297647-.5316571.04988-.67000668-.1807924-.13834959-.2306723-.06941665-.5294607.15600668-.6762076l1.673-1.042c-.19807104.0279951-.39404208-.0633274-.5-.233-.14161281-.2304662-.07426365-.531765.152-.68l8.319-5.443-5.23 3.021c-.2355494.1444225-.5435775.0705494-.68799999-.165-.14442246-.2355494-.07054945-.5435775.16499999-.688l3.592-2.328c-.2321024.1063235-.5070282.020714-.6377346-.198585-.1307063-.219299-.0752091-.5018469.1287346-.655415l6.554-5.029c-.1323031-.16797168-.1431547-.40148209-.027-.581l1.1-1.7-.032-.019c-.1560628-.09614257-.2470073-.26997309-.237-.453l.076-1.39c-.009-.013-.017-.027-.025-.04-.1382327-.23887839-.0567713-.54458242.182-.683l.114-.066c.1588691-.09158629.3551267-.08885735.5113879.00711079.1562612.09596815.2474506.26977547.2376121.45288921l-.047.851.239-.138c.1990398-.1123116.4488979-.07537155.6069237.08973013.1580259.16510168.1839931.41633724.0630763.61026987l-.825 1.279 1.564-.9c.2279124-.13082408.5182022-.06289178.6643976.1554793.1461953.21837108.0983971.51264698-.1093976.6735207l-3.95 3.033 10.042-5.8c.2342478-.13088329.5300435-.05352709.6702262.17527691.1401827.22880401.074765.52746697-.1482262.67672309l-3.554 2.307 4-2.313c.2333291-.12696636.5252099-.04931787.6646076.17680427.1393976.22612213.0776459.5217747-.1406076.67319573l-8.311 5.442 9.625-5.557c.2356087-.12976469.5316571-.04987998.6700067.18079237.1383496.23067236.0694166.52946069-.1560067.67620763l-.745.464 3.632-2.1c.2356087-.12976469.5316571-.04987998.6700067.18079237.1383496.23067236.0694166.52946069-.1560067.67620763l-5.624 3.5 5.655-3.264c.2363779-.14276559.5437344-.06687785.6865.16950001.1427656.23637787.0668779.54373438-.1695.68649999l-12.266 7.772 12.678-7.32c.2358256-.14387018.5436298-.06932559.6875.1665s.0693256.54362982-.1665.6875l-17.243 11.07 18.3-10.564c.236654-.14248947.5440105-.06615402.6865.1705s.066154.54401053-.1705.6865l-14.307 8.968 15.307-8.834c.2346058-.12538552.5263122-.0451285.6637604.18262002.1374483.22774852.0725112.52324301-.1477604.67237998l-16.903 10.624 18.067-10.431c.2356087-.12976469.5316571-.04987998.6700067.18079237.1383496.23067236.0694166.52946069-.1560067.67620763l-16.748 10.452 17.753-10.249c.2363825-.12854979.5321069-.0469768.6691568.184581.1370499.2315579.0662709.5300498-.1601568.675419l-2.693 1.632 3.057-1.766c.2363825-.1285498.5321069-.0469768.6691568.184581.1370499.2315579.0662709.5300498-.1601568.675419l-1.6.966 1.939-1.119c.2363825-.1285498.5321069-.0469768.6691568.184581.1370499.2315579.0662709.5300498-.1601568.675419l-.922.557 1.249-.721c.2362845-.1306359.5336041-.0500916.6716393.181948s.0669238.5317553-.1606393.677052l-12.42 7.607 12.909-7.453c.2359602-.1244074.5280295-.041678.663696.1879935.1356664.2296716.0671501.5253981-.155696.6720065l-1.549.935 1.778-1.021c.2350866-.127347.5287583-.0472199.6665908.1818764.1378325.2290964.071048.5260868-.1515908.6741236l-22.062 13.791 22.9-13.219c.2357179-.1278172.530297-.0469384.667702.1833224.137405.2302607.0687118.5279174-.155702.6746776l-15.89 9.765 16.312-9.418c.2363825-.1285498.5321069-.0469768.6691568.184581.1370499.2315579.0662709.5300498-.1601568.675419l-5.943 3.6 6.135-3.541c.2350866-.127347.5287583-.0472199.6665908.1818764.1378325.2290964.071048.5260868-.1515908.6741236l-23.371 14.627 24.045-13.882c.1538028-.0909241.3444299-.0928886.5000739-.0051535.155644.0877352.2526589.2518408.2545.4305.0018412.1786592-.0917711.3447294-.2455739.4356535l-5.4 3.266 5.483-3.17c.2369888-.1350471.5384839-.055235.6776156.1793791.1391316.2346142.0645535.5374465-.1676156.6806209l-11.817 7.212 12.006-6.932c.2356087-.1297647.5316571-.04988.6700067.1807924.1383496.2306723.0694166.5294607-.1560067.6762076l-20.062 12.452 20.448-11.806c.2356087-.1297647.5316571-.04988.6700067.1807924.1383496.2306723.0694166.5294607-.1560067.6762076l-19.114 11.848 19.347-11.17c.2369302-.1419372.5440628-.0649301.686.172.1419371.2369302.0649301.5440628-.172.686l-18.529 11.49 18.754-10.826c.2357179-.1278172.530297-.0469384.667702.1833224.137405.2302607.0687118.5279174-.155702.6746776l-16.588 10.25 16.671-9.625c.2362075-.133071.5354329-.0536509.6745599.1790411.1391271.2326919.0674613.5338687-.1615599.6789589l-14.308 8.816 14.308-8.257c.236654-.1424895.5440105-.066154.6865.1705s.066154.5440105-.1705.6865l-19.932 12.521 20-11.549c.2361735-.1361818.537908-.0580681.6783318.1756081.1404239.2336761.0677709.5367718-.1633318.6813919l-16.268 10.144 16.149-9.323c.2350866-.127347.5287583-.0472199.6665908.1818764.1378325.2290964.071048.5260868-.1515908.6741236l-16.697 10.487 16.522-9.539c.2354116-.1379583.5379577-.061708.6798637.1713453.1419059.2330532.070765.5368414-.1598637.6826547l-18.334 11.708 18-10.394c.2369302-.1419372.5440628-.0649301.686.172.1419371.2369302.0649301.5440628-.172.686l-8.3 5.146 7.755-4.476c.2352087-.125628.5276152-.0445694.664573.1842276.1369579.228797.070267.5248112-.151573.6727724l-6.972 4.33 6.323-3.65c.2356087-.1297647.5316571-.04988.6700067.1807924.1383496.2306723.0694166.5294607-.1560067.6762076l-4.637 2.879 3.8-2.192c.2343611-.1288923.5286543-.0505227.6678755.1778537.1392213.2283764.0740613.5258734-.1478755.6751463l-10.193 6.549 9-5.2c.2330829-.1306613.5277074-.0549657.6689423.1718661.1412349.2268319.0791592.5246238-.1409423.6761339l-10.674 7.162 8.617-4.975c.2318603-.1330617.527371-.0602043.6708066.1653857.1434357.22559.0840493.5240996-.1348066.6776143l-6.67 4.656 3.409-1.968c.23893-.1358451.5427102-.0533708.6801373.1846528.137427.2380237.0569695.5423443-.1801373.6813472l-13.485 7.786c-.232192.1378754-.5319082.0664712-.6769921-.1612862-.1450839-.2277573-.0831069-.529564.1399921-.6817138l6.671-4.654-11.436 6.6c-.232368.1256461-.5223842.0488566-.6621282-.1753162-.1397441-.2241727-.0809951-.5183743.1341282-.6716838l10.673-7.159-14.309 8.264c-.0770835.0449221-.1647829.0684007-.254.068z" fill="#636c76"/><path id="Path" d="m33.03 36.74c-.2191798-.0003656-.4125703-.1434368-.4770441-.3529196-.0644739-.2094828.015001-.4365356.1960441-.5600804l5.884-4.006-5.353 3.09c-.2328603.1351428-.5309189.0616362-.6742423-.1662803-.1433233-.2279164-.080443-.5283964.1422423-.6797197l4.9-3.346-4.348 2.506c-.2310609.1298083-.523268.0567757-.6660866-.1664779-.1428185-.2232536-.086628-.5191613.1280866-.6745221l5.125-3.62-4.365 2.519c-.2318603.1330617-.527371.0602043-.6708066-.1653857-.1434357-.22559-.0840493-.5240996.1348066-.6776143l2.663-1.855-1.577.91c-.23158.1294027-.5239091.0554223-.6660571-.1685604-.142148-.2239828-.0846277-.5199909.1310571-.6744396l1.085-.756c-.2088386-.006304-.3917389-.1417966-.4586115-.3397394-.0668725-.1979428-.0036162-.4165964.1586115-.5482606l2.153-1.738c-.0727626-.0436162-.1330391-.1052704-.175-.179-.1382327-.2388784-.0567713-.5445824.182-.683l3.75-2.164c.2257586-.1294404.5130594-.0640705.6605892.1503047.1475298.2143751.1059565.5060712-.0955892.6706953l-.859.694 3.729-2.153c.23158-.1294027.5239091-.0554223.6660571.1685604.142148.2239828.0846277.5199909-.1310571.6744396l-.372.26 1.511-.872c.2318603-.1330617.527371-.0602043.6708066.1653857.1434357.22559.0840493.5240996-.1348066.6776143l-2.665 1.856 3.658-2.111c.2310609-.1298083.523268-.0567757.6660866.1664779.1428185.2232536.086628.5191613-.1280866.6745221l-5.124 3.619 6.252-3.61c.2328603-.1351428.5309189-.0616362.6742423.1662803.1433233.2279164.080443.5283964-.1422423.6797197l-4.9 3.347 5.639-3.256c.2328603-.1351428.5309189-.0616362.6742423.1662803.1433233.2279164.080443.5283964-.1422423.6797197l-5.88 4 6.445-3.722c.1549945-.0985297.351531-.1041539.5119064-.0146489.1603754.0895049.2587712.2597296.2562855.4433739s-.1054527.3511436-.2681919.436275l-18.124 10.472c-.0758978.0441549-.1621931.067282-.25.067z" fill="#d6dedf"/><path id="Path" d="m31.558 55.379c-.2208664.0004946-.4158916-.143984-.479759-.3554152s.0185554-.4397191.202759-.5615848l9.525-6.307-12.37 7.145c-.2347029.1405531-.538787.0663884-.6824238-.1664401-.1436368-.2328284-.0734897-.5378644.1574238-.6845599l12.474-8.209-15.165 8.752c-.234481.1270728-.5274228.0477401-.6657366-.1802909-.1383139-.2280309-.0733058-.5244809.1477366-.6737091l9.8-6.225-11.557 6.675c-.1534456.09146-.3440284.0941103-.4999579.0069525s-.2535161-.2508822-.256-.4295.0905123-.3449925.2439579-.4364525l3.282-2.029-4.315 2.491c-.2350866.127347-.5287583.0472199-.6665908-.1818764-.1378325-.2290964-.071048-.5260868.1515908-.6741236l9.5-5.946-10.813 6.245c-.2349709.1292146-.5300387.050062-.6687925-.179405-.1387537-.2294671-.0717837-.5275361.1517925-.675595l14.267-9.045-15.773 9.107c-.2372063.1413849-.5441151.0637063-.6855-.1735s-.0637063-.5441151.1735-.6855l5.537-3.4-6.354 3.664c-.2357179.1278172-.530297.0469384-.667702-.1833224-.137405-.2302607-.0687118-.5279174.155702-.6746776l6.878-4.234-7.652 4.418c-.2355125.13196-.5332497.0531389-.6726204-.1780652-.1393708-.2312042-.0700423-.5312938.1566204-.6779348l14.339-8.986-15.381 8.88c-.2313246.1263251-.5209869.0513891-.6620294-.1712679-.1410425-.2226569-.0850249-.5165645.1280294-.6717321l9.449-6.529-10.607 6.124c-.2336556.130691-.5287926.0541466-.6694787-.1736308-.140686-.2277774-.0769932-.5259521.1444787-.6763692l4.177-2.743-4.7 2.713c-.2337734.1287456-.5274505.051198-.66718798-.1761759-.13973743-.2273739-.07626999-.5244122.14418798-.6748241l1.742-1.131-2.055 1.184c-.23405687.1357068-.53360081.0606207-.67597038-.1694442-.14236958-.2300649-.07591293-.5316408.14997038-.6805558l3.69-2.439-4.008 2.312c-.23344605.1352991-.53213452.0609722-.67494472-.1679561-.1428102-.2289282-.07822416-.5298733.14594472-.6800439l6.273-4.226-6.726 3.885c-.23472102.145527-.54297297.073221-.6885-.1615s-.07322102-.542973.1615-.6885l5.742-3.808-5.938 3.428c-.23354514.1328438-.53032442.0573638-.6720248-.1709163s-.07765459-.5277351.1450248-.6780837l6.608-4.4-6.82 3.937c-.23296731.1327691-.52919188.0581284-.67142871-.1691822-.14223683-.2273105-.07984054-.5263539.14142871-.6778178l7.911-5.325-7.929 4.58c-.2328603.1351428-.53091891.0616362-.67424226-.1662803-.14332335-.2279164-.08044309-.5283964.14224226-.6797197l8.835-6.038-8.748 5.05c-.23499716.1452509-.54324911.0724972-.6885-.1625s-.07249716-.5432491.1625-.6885l5.22-3.437-4.861 2.807c-.2310609.1298083-.52326795.0567757-.66608655-.1664779s-.08662801-.5191613.12808655-.6745221l8.823-6.177-8.237 4.754c-.2313261.1333882-.5266402.061466-.67072696-.1633522-.14408676-.2248181-.08608875-.5231794.13172696-.6776478l7.739-5.479-6.8 3.925c-.23290614.1254293-.52320856.0477402-.66233729-.1772508s-.0789338-.5194187.13733729-.6717492l1.081-.714-.2.112c-.22805424.1290416-.51704704.0601323-.66233529-.1579314-.14528824-.2180638-.09758263-.5113034.10933529-.6720686l5.979-4.573-4.39 2.534c-.22022864.1227467-.4973928.0623225-.64654589-.1409526-.14915308-.2032751-.12362669-.4857984.05954589-.6590474l3.374-3.08c-.22141508.0643272-.45810835-.0310937-.573-.231-.13738473-.2389169-.05553486-.543953.183-.682l3.831-2.211c.2202286-.1227467.4973928-.0623225.6465459.1409526s.1236267.4857984-.0595459.6590474l-3.321 3.031 7.084-4.09c.2280542-.1290416.517047-.0601323.6623353.1579314.1452882.2180638.0975826.5113034-.1093353.6720686l-5.977 4.572 7.982-4.609c.2340569-.1357068.5336008-.0606207.6759704.1694442s.0759129.5316408-.1499704.6805558l-1.09.719 1.646-.95c.2313261-.1333882.5266402-.061466.670727.1633522.1440867.2248181.0860887.5231794-.131727.6776478l-7.733 5.481 8.846-5.108c.2317427-.1353654.5290201-.0636298.6735243.1625272.1445041.2261571.084687.5260601-.1355243.6794728l-8.819 6.174 9.654-5.569c.2347029-.1405531.538787-.0663884.6824238.1664401.1436368.2328284.0734897.5378644-.1574238.6845599l-5.224 3.44 5.433-3.136c.2321092-.1290838.5246372-.0541763.6661393.170578.1415021.2247542.0825963.5209195-.1341393.674422l-8.836 6.039 9.081-5.243c.1514806-.0946754.3419632-.1013451.4996948-.0174967.1577316.0838483.258749.2454762.265.424.006251.1785237-.0832142.3468213-.2346948.4414967l-7.91 5.324 7.894-4.556c.2327769-.1270897.524286-.0503218.6642741.174934.139988.2252559.0797468.5206233-.1372741.673066l-6.607 4.4 6.267-3.618c.2335451-.1328438.5303244-.0573638.6720248.1709163s.0776546.5277351-.1450248.6780837l-5.742 3.809 5.3-3.058c.2334461-.1352991.5321345-.0609722.6749447.1679561.1428102.2289282.0782242.5298733-.1459447.6800439l-6.275 4.225 5.76-3.325c.2340569-.1357068.5336008-.0606207.6759704.1694442s.0759129.5316408-.1499704.6805558l-3.687 2.438 4.069-2.349c.2337734-.1287456.5274505-.051198.667188.1761759.1397374.2273739.07627.5244122-.144188.6748241l-1.749 1.13 3.461-2c.2341443-.133112.5316521-.0568382.672871.1725078.1412189.2293459.075396.5293391-.148871.6784922l-4.182 2.746 6.253-3.61c.2322938-.1351768.5298928-.0625367.6737842.164462.1438914.2269988.0825928.5271392-.1387842.679538l-9.452 6.529 28.621-16.521c.2355125-.13196.5332497-.0531389.6726204.1780652.1393708.2312042.0700423.5312938-.1566204.6779348l-14.332 8.981 14.546-8.4c.2372063-.1413849.5441151-.0637063.6855.1735s.0637063.5441151-.1735.6855l-6.888 4.239 6.841-3.949c.2357179-.1278172.530297-.0469384.667702.1833224.137405.2302607.0687118.5279174-.155702.6746776l-5.529 3.4 5.381-3.107c.2354379-.13455.5352149-.0569022.6757281.1750261.1405133.2319283.0705395.5335888-.1577281.6799739l-14.265 9.044 14.192-8.194c.236654-.1424894.5440105-.066154.6865.1705.1424894.236654.066154.5440105-.1705.6865l-9.508 5.952 9.293-5.365c.2388632-.1400042.5459958-.0598631.686.179.1400042.2388632.0598631.5459958-.179.686l-3.257 2.011 2.869-1.657c.2354379-.13455.5352149-.0569022.6757281.1750261.1405133.2319283.0705395.5335888-.1577281.6799739l-9.8 6.224 9.362-5.406c.2347029-.1405531.538787-.0663884.6824238.1664401.1436368.2328284.0734897.5378644-.1574238.6845599l-12.475 8.21 11.691-6.749c.233204-.1287421.5263939-.0520483.6666872.1743946.1402933.226443.0784231.5231151-.1406872.6746054l-9.53 6.311 8.263-4.771c.2317427-.1353654.5290201-.0636298.6735243.1625272.1445041.2261571.084687.5260601-.1355243.6794728l-8.43 5.923 6.186-3.571c.228924-.1342308.5228351-.0662362.6695479.1548961s.0951128.5183603-.1175479.6771039l-4.12 3.109c.1348749.0307458.2506269.1167434.319.237.1382327.2388784.0567713.5445824-.182.683l-5.783 3.339c-.228924.1342308-.5228351.0662362-.6695479-.1548961s-.0951128-.5183603.1175479-.6771039l3.239-2.445-8.859 5.112c-.2321137.1412643-.5345566.0713001-.681052-.1575481-.1464954-.2288481-.0834127-.5328008.142052-.6844519l8.439-5.931-12.692 7.328c-.0760084.0438886-.1622305.0669961-.25.067z" fill="#d6dedf"/><path id="Path" d="m30 50.47c-.2152152 0-.4062846-.137715-.4743416-.3418861-.0680571-.2041711.0021694-.4289848.1743416-.5581139l2.962-2.2-4.674 2.7c-.2313246.1263251-.5209869.0513891-.6620294-.1712679-.1410425-.2226569-.0850249-.5165645.1280294-.6717321l1.881-1.3-2.7 1.557c-.2280542.1290416-.517047.0601323-.6623353-.1579314-.1452882-.2180638-.0975826-.5113034.1093353-.6720686l5.508-4.2-6.785 3.916c-.2279124.1308241-.5182022.0628918-.6643976-.1554793-.1461953-.2183711-.0983971-.512647.1093976-.6735207l5.376-4.142-6.342 3.661c-.2283835.1299972-.5184238.0610156-.6638282-.1578813-.1454044-.2188968-.0965443-.5129964.1118282-.6731187l4.8-3.631-5.453 3.148c-.230817.1267753-.5204005.0527915-.6621232-.1691615-.1417226-.221953-.0869993-.5157856.1251232-.6718385l2.366-1.663-2.608 1.501c-.2279124.1308241-.5182022.0628918-.6643976-.1554793-.1461953-.2183711-.0983971-.512647.1093976-.6735207l5.02-3.851-5.372 3.1c-.2254634.1287726-.5119753.0635416-.6594703-.1501437-.1474949-.2136853-.1068861-.5047094.0934703-.6698563l6.946-5.655c-.1373847-.2389169-.0555349-.543953.183-.682l2.3-1.327c.2253165-.1265297.5099298-.0605202.6565485.1522715.1466186.2127916.1069324.5022515-.0915485.6677285l-4.511 3.671 6.562-3.789c.2279124-.1308241.5182022-.0628918.6643976.1554793.1461953.2183711.0983971.512647-.1093976.6735207l-5.022 3.853 5.756-3.323c.2314518-.1313128.5252013-.0583356.6682918.1660259.1430904.2243616.0853808.5214879-.1312918.6759741l-2.363 1.66 2.684-1.549c.2281943-.1273484.5159664-.0574929.6603781.1603041.1444117.2177969.0967481.5100652-.1093781.6706959l-4.8 3.633 5.867-3.386c.2279124-.1308241.5182022-.0628918.6643976.1554793.1461953.2183711.0983971.512647-.1093976.6735207l-5.377 4.142 7.045-4.066c.2280542-.1290416.517047-.0601323.6623353.1579314.1452882.2180638.0975826.5113034-.1093353.6720686l-5.508 4.2 6.544-3.777c.2313246-.1263251.5209869-.0513891.6620294.1712679.1410425.2226569.0850249.5165645-.1280294.6717321l-1.88 1.3 1.545-.891c.2292016-.1303039.5201978-.0602449.6649792.1600976s.0935911.5152436-.1169792.6739024l-2.957 2.2.776-.447c.2374252-.1242009.5305531-.0391619.6646466.1928199.1340935.2319817.0614797.5284321-.1646466.6721801l-8.264 4.767c-.0758743.0454225-.1625695.0696004-.251.07z" fill="#f37a42"/><path id="Path" d="m30.822 41.4c-.153622.0001129-.2987689-.0703997-.3936368-.1912294-.094868-.1208297-.1289253-.2785628-.0923632-.4277706l.2-.833-1.986 1.144c-.2053694.1190026-.466102.0772186-.624-.1-.158054-.1774786-.1693414-.441688-.027-.632l.656-.874c-.2076188-.0349005-.3711333-.1961146-.4089717-.4032181s.0581068-.4157217.2399717-.5217819l1.614-.931c.2054367-.1177728.4653166-.0752838.6225485.1017834.1572318.1770673.1686914.4401483.0274515.6302166l-.481.643.885-.511c.1732869-.100122.3895819-.0872688.5497919.0326709.1602099.1199398.2334665.3238569.1862081.5183291l-.2.834.1-.059c.2396916-.1380712.5459288-.0556915.684.184.1380711.2396916.0556916.5459288-.184.684l-1.112.64c-.0774453.0462615-.1657941.0711095-.256.072z" fill="#e16e3f"/><path id="Path" d="m16.1 38.3c-.209847.0005092-.3976837-.1300699-.470312-.3269485-.0726283-.1968785-.0145925-.4181597.145312-.5540515l1.569-1.335-2.544 1.467c-.2251719.1281476-.5109328.0630663-.6584056-.14995-.1474728-.2130162-.107801-.5033971.0914056-.66905l2.633-2.168-3.235 1.866c-.2263657.1357025-.5192228.0720953-.6689012-.1452821-.1496784-.2173775-.1046264-.5136569.1029012-.6767179l3.161-2.564-3.4 1.961c-.2304184.1322364-.5240189.0611893-.6684864-.1617642-.1444674-.2229535-.0893536-.5199576.1254864-.6762358l.512-.37-.31.179c-.2277686.1327124-.5194462.0657934-.6665848-.1529333s-.0991876-.5141157.1095848-.6750667l2.206-1.719-1.849 1.066c-.2262036.1284409-.5131028.0619842-.6597948-.1528333-.1466919-.2148176-.1041677-.5062269.0977948-.6701667l1.743-1.395-.975.562c-.2146681.1242961-.4880102.0724133-.6422041-.1218961-.154194-.1943094-.142615-.4722908.0272041-.6531039l1.812-1.939c-.2253711-.0022444-.421382-.1549921-.4786253-.3729837-.0572432-.2179917.0384331-.4473346.2336253-.5600163l2.491-1.437c.2143746-.1227956.4862971-.0706141.6399891.1228129s.1430745.4701074-.0249891.6511871l-1.649 1.771 3.77-2.176c.2262036-.1284409.5131028-.0619842.6597948.1528333.1466919.2148176.1041677.5062269-.0977948.6701667l-1.741 1.394 2.374-1.37c.227445-.1317107.5180356-.064845.6650404.1530278.1470048.2178727.1002333.512366-.1070404.6739722l-2.2 1.72 2.544-1.469c.2304184-.1322364.5240189-.0611893.6684864.1617642.1444674.2229535.0893536.5199576-.1254864.6762358l-.519.375.4-.231c.2262112-.1327757.5165722-.0681745.6651499.1479864.1485778.2161609.1048589.5103912-.1001499.6740136l-3.16 2.564 3.01-1.737c.2247421-.1254395.5079955-.0597743.6546194.1517571.1466238.2115314.1087109.4998143-.0876194.6662429l-2.632 2.166 2.063-1.19c.2236156-.1271011.5071788-.0638125.6555296.1463081s.1130835.4985123-.0815296.6666919l-1.578 1.332.482-.278c.1549945-.0985297.351531-.1041539.5119064-.0146489.1603754.0895049.2587712.2597296.2562855.4433739s-.1054527.3511436-.2681919.436275l-5.232 3.023c-.0756184.0452887-.1618652.0697828-.25.071z" fill="#fff"/><path id="Path" d="m42.091 38.3c-.2096638.0000887-.397115-.1306404-.4694831-.3274188-.072368-.1967785-.0142807-.4178078.1454831-.5535812l1.589-1.354-2.571 1.484c-.228242.1318458-.5196375.063862-.6659708-.1553737-.1463332-.2192358-.0973404-.5144185.1119708-.6746263l1.176-.9-1.544.891c-.2281943.1273484-.5159664.0574929-.6603781-.1603041-.1444117-.2177969-.0967481-.5100652.1093781-.6706959l1.7-1.287-1.892 1.09c-.227445.1317107-.5180356.064845-.6650404-.1530278-.1470048-.2178727-.1002333-.512366.1070404-.6739722l2.672-2.091-2.7 1.558c-.2220099.1247109-.5022812.0626525-.6508926-.1441224-.1486115-.2067749-.1180855-.4922068.0708926-.6628776l3.855-3.391-3.49 2.014c-.2222396.1285782-.5057439.0679309-.6559297-.1403165-.1501859-.2082474-.1182322-.4963997.0739297-.6666835l2.463-2.191-1.413.815c-.2202286.1227467-.4973928.0623225-.6465459-.1409526s-.1236267-.4857984.0595459-.6590474l1.217-1.112c-.1437742-.0960152-.2277452-.2594916-.2220464-.4322848.0056987-.1727932.1002583-.3303816.2500464-.4167152l2.491-1.437c.2201191-.1211079.4959248-.0600693.6443868.1426092s.1234717.48405-.0583868.6573908l-.26.238 1.677-.968c.2222396-.1285782.5057439-.0679309.6559297.1403165.1501859.2082474.1182322.4963997-.0739297.6666835l-2.461 2.19 3.612-2.085c.2223898-.1269737.5047663-.065395.6540994.1426415.1493332.2080365.1173442.4952735-.0740994.6653585l-3.852 3.391 4.493-2.594c.2269587-.1282325.5143539-.0605795.6602778.1554298.145924.2160093.1014061.5078844-.1022778.6705702l-2.673 2.092 2.694-1.555c.2281943-.1273484.5159664-.0574929.6603781.1603041.1444117.2177969.0967481.5100652-.1093781.6706959l-1.7 1.289 1.333-.769c.228242-.1318458.5196375-.063862.6659708.1553737.1463332.2192358.0973404.5144185-.1119708.6746263l-1.173.894.568-.327c.2240205-.1297641.5100442-.0670649.6592395.1445117s.1122125.502047-.0852395.6694883l-1.589 1.353.5-.29c.2374252-.1242009.5305531-.0391619.6646466.1928199.1340935.2319817.0614797.5284321-.1646466.6721801l-5.248 3.031c-.0758121.0458093-.1624328.0706566-.251.072z" fill="#fff"/><path id="Path" d="m29.09 50.409c-.2184793.0010483-.4123397-.139879-.4787448-.3480248-.0664052-.2081457.0100242-.4353041.1887448-.5609752l1.432-1-2.488 1.437c-.2205392.1280792-.5021318.0696485-.6535046-.1356028-.1513729-.2052513-.124009-.4915375.0635046-.6643972l2.882-2.674-4.356 2.515c-.2276227.1347294-.5207984.0688675-.6689241-.1502738-.1481257-.2191412-.0999482-.5157364.1099241-.6767262l.264-.207-.645.372c-.2089623.1200463-.4738237.0739562-.6299505-.1096215s-.1590908-.4524031-.0070495-.6393785l1.497-1.829-2.3 1.328c-.1883612.1054763-.4231479.0781489-.5822487-.0677693-.1591009-.1459182-.206583-.3774716-.1177513-.5742307l.777-1.676-1.426.822c-.1793334.1032852-.4037628.0854174-.5644948-.0449417-.160732-.1303592-.224545-.346266-.1605052-.5430583l.289-.884-.47.27c-.1339761.0770019-.2960284.0877296-.4389858.0290604-.1429573-.0586693-.2507549-.1801425-.2920142-.3290604l-.344-1.234c-.2043546-.0407844-.3619875-.2040334-.3955959-.40969-.0336083-.2056566.0638557-.4105934.2445959-.51431l.246-.14c.1339186-.0758291.294993-.0868616.438-.03.142938.0586603.2507274.1801079.292.329l.309 1.11 1.041-.6c.1793334-.1032852.4037628-.0854174.5644948.0449417.160732.1303592.224545.346266.1605052.5430583l-.289.885 1.664-.96c.1883612-.1054763.4231479-.0781489.5822487.0677693.1591009.1459182.206583.3774716.1177513.5742307l-.776 1.676 3.3-1.9c.2088309-.1210184.4743034-.0755809.631.108.1570112.1838693.1599584.4537457.007.641l-1.507 1.828 4.4-2.536c.2271272-.1307942.5167067-.0640046.6636035.1530559.1468968.2170604.1012506.5107158-.1046035.6729441l-.263.206 2.093-1.208c.2205392-.1280792.5021318-.0696485.6535046.1356028.1513729.2052513.124009.4915375-.0635046.6643972l-2.882 2.674 8.6-4.964c.2317427-.1353654.5290201-.0636298.6735243.1625272.1445041.2261571.084687.5260601-.1355243.6794728l-1.445 1.004.033-.018c.2292016-.1303039.5201978-.0602449.6649792.1600976s.0935911.5152436-.1169792.6739024l-2.1 1.558c.0904634.0430666.1655148.1128818.215.2.1375532.2386555.0561721.5436114-.182.682l-5.586 3.225c-.2292016.1303039-.5201978.0602449-.6649792-.1600976s-.0935911-.5152436.1169792-.6739024l.557-.412-2.387 1.376c-.0758978.0441549-.1621931.067282-.25.067z" fill="#e16e3f"/><g fill="#262626"><path id="Shape" d="m.791 32.6c-2.111 10.06 3.752 18.577 12.565 23.038 15.69 7.944 45.622 2.873 46.368-18.832-.2-6.7-3.1-13.115-6.944-18.517-2.1996455-3.1444739-4.8612886-5.9389463-7.895-8.289-3.279-2.5-7.109-3.732-8.161-8.2-.108-.46-1.23-.019-1.392.2-1.823 2.52-4.378 1.009-5.608-1.2-.223-.4-1.332-.1-1.445.3-.727 2.56-5.235 2.785-6.6.626-.216-.341-1.441.043-1.4.464.514 5.36-4.279 7.065-7.588 10.123-1.8088485 1.6806207-3.4585285 3.5247942-4.928 5.509-3.35354539 4.3710536-5.73097204 9.4102979-6.972 14.778zm15.8-22.414c2.594-1.939 4.673-3.438 5.1-6.315 1.0836798 1.04159167 2.6070292 1.48961003 4.0820586 1.20053692 1.4750294-.28907312 2.7165829-1.27895126 3.3269414-2.65253692 1.839 2.27 4.359 2.637 6.47.787.7133628 1.99341831 2.107173 3.6712315 3.936 4.738 3.853 2.556 7.209 4.976 10.175 8.6 4.725 5.767 8.368 13.091 8.6 20.654-.862 24.902-39.6 27.242-52.516 10.789-6.1-7.773-4.2-17.334.274-25.4 2.60447819-4.8328417 6.2010891-9.0605804 10.554-12.406z"/><path id="Shape" d="m10.749 49.335c9.467 7.664 24.6 8.087 35.021 2.17 9.272-5.263 14.385-18.474 5.36-26.907-3.8047021-3.608147-9.6413343-3.9902774-13.884-.909-4.1 2.834-4.849 6.991-4.957 11.489-1.1835912-.5719418-2.5557384-.6083576-3.768-.1-.2767341.107455-.5442809.2372151-.8.388-.035-4.108-.388-8-3.75-10.995-3.4246142-3.1440063-8.4678731-3.7662787-12.554-1.549-9.979 5.506-8.617 19.978-.668 26.413zm20.458-13.51c.4173805.2057556.7812729.5056331 1.063.876.0002901.1730923.1181124.3238719.286.366.3621936.5567689.7910354 1.067215 1.277 1.52 1.451 1.163 3.323 1.447 4.849 2.517.2004231.2814486.3369392.6032853.4.943-4.7 2.558-13.168 2.461-17.934-.082.346-.719 1.333-1.462 3.132-2.563.9-.55 1.945-1.553 3.033-2.385.143105-.0511399.2677362-.1437429.358-.266 1.183-.851 2.405-1.423 3.536-.926zm7.845 7.11c-.3871154 1.0929303-1.0244114 2.0802084-1.861 2.883-2.459 2.81-7.057 4.715-10.562 2.851-1.4432008-.8145911-2.7277406-1.8826697-3.792-3.153-.6730754-.6820218-1.2421667-1.4593419-1.689-2.307 5.7971276 2.1223796 12.1745332 2.0247808 17.904-.274zm-16.413-17.758c3.515 3.128 3.629 7.081 3.631 11.4-1.0341644 1.1389029-2.2331417 2.1164216-3.557 2.9-1.353.647-2.967 1.175-3.3 2.45-.134.117-.169.246-.055.362-.0149656.3986592.0531432.7960739.2 1.167 1.7 4.62 7.816 7.667 12.431 6.515 2.543-.634 8.759-4.532 8.606-7.882.172-.16.121-.278-.04-.347-.0719355-.3835687-.2276384-.7465341-.456-1.063-.009-.011-.027-.014-.037-.024s0-.02-.005-.027c-1.409-.995-3.243-1.223-4.564-2.254-.6558075-.5973491-1.2488853-1.260122-1.77-1.978 0-3.77-.061-7.476 2.64-10.526 7.943-8.969 16.771 1.019 17.745 9.191 1.621 13.589-14.238 19.93-25.43 19.432-9.688-.437-22.866-6.157-22.948-17.564-.061-8.529 8.17-19.529 16.909-11.752z"/><path id="Path" d="m28.709 40.376c.3577712.0048319.7029107-.1321453.96-.381l.189-.189.466.467c.328.327 1.693-.205 1.351-.546l-1-1c-.326-.326-1.085.018-1.345.278l-1 1c-.248.25.214.367.379.371z"/><path id="Shape" d="m17.375 38.3c3.338-.408 5.2-3.334 5.349-6.5-.162-3.377-2.481-6.624-6.19-6.1-3.1256082.5470263-5.3693892 3.3148399-5.258 6.486.012 3.379 2.531 6.551 6.099 6.114zm.725-11.636c2.185.94 3.07 3.328 3.176 5.53-.141 2.933-2.41 6.8-5.827 4.874-1.7704624-1.152765-2.8051963-3.1508456-2.725-5.262.005-2.678 2.141-6.533 5.376-5.142z"/><path id="Shape" d="m43.378 38.31c3.342-.405 5.2-3.349 5.346-6.5-.162-3.375-2.483-6.631-6.192-6.108-3.1281344.5522064-5.3707201 3.3255715-5.256 6.5.014 3.363 2.531 6.54 6.102 6.108zm-4.654-6.5c.006-2.672 2.136-6.524 5.378-5.137 2.185.936 3.068 3.325 3.174 5.525-.141 2.929-2.4 6.8-5.828 4.871-1.7714666-1.1522205-2.806181-3.1513769-2.724-5.263z"/><path id="Path" d="m17.732 32.937v-2c0-.726-1.464-.487-1.464.126v2c0 .726 1.464.487 1.464-.126z"/><path id="Path" d="m43.725 32.911v-2c0-.608-1.45-.3-1.45.178v2c0 .611 1.45.305 1.45-.178z"/></g></g></svg>