<?xml version="1.0" encoding="iso-8859-1"?>
<!-- Generator: Adobe Illustrator 19.0.0, SVG Export Plug-In . SVG Version: 6.00 Build 0)  -->
<svg version="1.1" id="Layer_1" xmlns="http://www.w3.org/2000/svg" xmlns:xlink="http://www.w3.org/1999/xlink" x="0px" y="0px"
	 viewBox="0 0 511.999 511.999" style="enable-background:new 0 0 511.999 511.999;" xml:space="preserve">
<path style="fill:#7AC943;" d="M368.683,212.279c-0.476-0.091-0.952-0.182-1.427-0.272c0.435-0.93,0.785-1.917,1.005-3.022
	c1.355-6.794-4.016-12.165-10.693-12.157c-7.175,0.009-9.52,4.738-13.816,9.318c-2.604,2.777-4.992,5.226-6.552,8.23
	c-2.049,0.694-4.154,1.215-6.005,1.637c-4.529,1.031-9.382,2.765-13.944,3.368c-3.858,0.51-7.514,0.008-11.301,1.376
	c-7.997,2.889-11.799,9.057-16.958,15.259c-0.218,0.263-0.436,0.535-0.654,0.808c-1.689,0.649-3.189,1.768-4.199,3.396
	c-1.031,1.663-1.55,3.381-2.159,5.156c-2.143,2.92-3.51,5.406-3.963,9.412c-0.069,0.605-0.031,1.191,0.053,1.766
	c-0.078,0.185-0.149,0.371-0.221,0.558c-1.202,0.368-2.4,0.669-3.577,0.834c2.255-4.071,3.234-9.376,2.468-12.594
	c-2.135-8.958-9.491-15.652-17.163-19.967c-8.043-4.524-15.401-7.156-24.604-8.072c-4.271-0.425-8.601-0.554-12.844-1.142
	c-4.93-0.681-9.884-2.142-14.879-2.128c-4.907,0.014-9.655,1.436-14.562,0.29c-2.596-0.606-8.262-3.125-12.923-2.18
	c-10.991,2.23-14.915,13.433-9.041,22.468c1.815,2.792,3.776,5.261,5.845,7.596c-1.31,4.879,0.669,9.311,3.6,13.073
	c5.679,7.289,13.844,12.121,22.588,14.906c2.24,0.714,4.593,1.306,6.989,1.83c7.892,4.5,16.041,8.354,25.472,7.534
	c6.674-0.58,13.694-2.714,20.243-5.58c0.965,0.99,2.317,1.706,4.09,1.872c2.355,0.22,5.111,2.248,7.607,2.705
	c3.229,0.591,6.604,0.909,9.833,0.142c2.084-0.495,3.965-1.277,5.665-2.291c0.316-0.026,0.641-0.039,0.954-0.068
	c1.966,3.02,7.148,3.526,9.355-0.078c0.015,0.009,0.031,0.018,0.046,0.027c0.015-0.034,0.028-0.07,0.044-0.104
	c6.686,1.126,14.828-1.221,21.295-1.942c4.818-0.538,9.869-0.707,14.436-2.424c4.082-1.535,7.506-4.069,11.033-6.578
	c7.514-5.35,12.331-11.522,18.099-18.573c5.492-6.713,12.141-13.783,15.958-21.622C376.134,220.414,374.588,213.407,368.683,212.279
	z M309.232,243.613c-0.925,0.584-1.843,1.179-2.765,1.767c2.387-3.047,4.618-5.65,8.805-5.797
	C313.285,240.967,311.278,242.321,309.232,243.613z"/>
<g>
	<path style="fill:#569922;" d="M338.498,257.176c-8.891,0.901-16.935,6.226-25.67,8.153c-8.357,1.844-17.24,0.652-25.231,4.008
		c-5.922,2.488-3.985,9.034,0.047,10.339c-0.015,0.027-0.032,0.054-0.047,0.083c4.177,1.01,9.016,0.603,13.376,1.114
		c5.459,0.641,10.703,1.016,16.158,0.065c10.595-1.846,19.417-8.622,24.782-17.812C343.307,260.738,341.572,256.865,338.498,257.176
		z"/>
	<path style="fill:#569922;" d="M260.481,262.325c-7.299-2.426-14.461,1.178-21.764,2.637c-7.911,1.581-14.654,1.918-22.22-1.513
		c-7.077-3.209-14.789-6.828-20.322-12.405c-2.618-2.64-4.397-5.446-6.429-8.521c-1.666-2.522-4.217-4.867-6.293-7.13
		c-1.608-1.751-5.286-1.532-6.32,0.815c-3.486,7.911-0.612,18.202,4.04,25.185c6.052,9.086,16.023,14.546,25.835,18.674
		c9.75,4.102,19.5,5.248,29.906,3.201c9.098-1.79,19.708-4.365,26.071-11.464C265.903,268.544,264.641,263.707,260.481,262.325z"/>
</g>
<g>
	<path style="fill:#B0E28A;" d="M325.076,224.393c-5.002,0.587-9.469,1.98-13.599,4.907c-3.403,2.412-7.182,4.058-10.623,6.402
		c-6.598,4.494-11.706,12.54-14.715,19.753c-1.338,3.209,3.774,6.142,5.915,3.442c4.592-5.792,12.704-10.808,19.536-13.379
		c7.367-2.772,14.662-8.174,17.702-15.592C330.3,227.468,327.707,224.085,325.076,224.393z"/>
	<path style="fill:#B0E28A;" d="M241.847,230.026c-4.968-2.958-9.36-5.36-15.076-6.769c-5.811-1.433-12.135-1.982-18.076-2.72
		c-9.797-1.219-22.473-1.532-31.574,2.824c-5.405,2.587-1.589,11.842,4.117,9.765c8.858-3.223,21.081,0.424,29.879,2.374
		c9.698,2.15,20.08,4.854,29.769,1.88C244.177,236.372,244.873,231.828,241.847,230.026z"/>
</g>
<g>
	<path style="fill:#C18140;" d="M155.825,345.931C155.786,345.986,155.792,345.98,155.825,345.931L155.825,345.931z"/>
	<path style="fill:#C18140;" d="M352.75,337.988c-1.891-8.508-8.734-12.71-17.189-13.083c-4.194-0.185-8.409,0.503-12.594,0.079
		c-4.39-0.445-8.819-1.014-13.201-1.526c-4.043-0.474-8.004-1.573-12.031-2.167c-4.923-0.727-9.308-0.472-14.224,0.017
		c-8.268,0.823-17.97,1.229-26.213,0.308c-4.522-0.506-8.326,0.223-12.813,0.521c-4.596,0.306-9.032-0.566-13.591-0.735
		c-4.327-0.161-8.652,0.457-12.931,1.008c-1.911,0.245-3.894,0.366-5.753,0.876c-1.608,0.442-3.136,1.769-4.602,2.169
		c-3.814,1.041-7.573,0.335-11.356,2.064c-1.008-0.436-2.09-0.727-3.234-0.819c-7.001-0.56-15.025-2.379-21.968-0.995
		c-5.206,1.039-8.835,3.582-11.1,7.313c-3.041,0.503-5.852,2.738-6.12,6.669c-0.07,1.022-0.147,2.085-0.223,3.164
		c-0.131,0.877-0.244,1.757-0.172,2.667c-0.096,1.642-0.167,3.309-0.175,4.976c-0.726,2.018-0.934,4.181-0.398,6.736
		c0.367,1.75,1.078,3.299,1.764,4.951c0.058,0.141,0.109,0.238,0.155,0.319c-0.036,0.134-0.072,0.293-0.111,0.512
		c-0.587,3.272,0.162,7.303,2.078,9.999c3.46,4.869,8.704,6.143,13.115,4.454c0.005,0.001,0.008,0.004,0.013,0.005
		c0.348,0.095,0.695,0.145,1.043,0.212c-0.025,0.166-0.058,0.327-0.078,0.495c-0.538,4.687,0.748,10.604,1.142,15.393
		c0.529,6.448,0.5,12.839,1.253,19.276c0.738,6.293,1.586,12.574,2.333,18.865c0.21,1.763,0.412,3.528,0.616,5.292
		c0.264,4.421,0.296,8.713,1.912,12.905c0.432,1.123,1.009,2.11,1.682,2.979c0.253,3.326,0.432,6.648,0.416,9.959
		c-0.04,8.442,1.222,21.817,9.636,26.319c4.057,2.171,8.602,1.216,12.776,2.655c5.209,1.796,10.725,2.905,16.185,3.582
		c9.418,1.168,18.69,0.941,28.126,1.794c2.615,0.236,5.264,0.426,7.91,0.455c0.547,0.191,1.146,0.335,1.808,0.412
		c1.732,0.201,3.432,1.652,5.123,2.159c1.721,0.515,3.686,0.74,5.464,0.918c4.088,0.409,8.078-0.004,12.103-0.745
		c7.634-1.404,15.381-2.743,22.669-5.505c1.266-0.48,2.57-0.914,3.884-1.338c0.341-0.107,0.693-0.202,1.021-0.32
		c0.165-0.058,0.333-0.113,0.497-0.169c5.037-1.584,10.208-3.101,14.548-5.992c6.792-4.525,10.332-12.048,12.166-19.808
		c3.729-15.772,3.306-32.264,3.959-48.282c0.411-10.089,4.533-22.486,3.009-33.09c1.307-0.343,2.522-0.947,3.502-1.834
		c6.022-5.457,7.186-16.159,7.649-23.81C352.658,353.171,354.306,344.991,352.75,337.988z M291.128,338.959
		c0.442,0.02,0.882,0.062,1.323,0.105c-3.75,0.25-7.498,0.703-11.22,1.107c-0.171-0.21-0.348-0.417-0.533-0.623
		C284.181,339.34,287.659,338.799,291.128,338.959z"/>
</g>
<g>
	<path style="fill:#9E6226;" d="M311,382.601c-2.636-1.562-5.549-2.319-8.589-2.589c1.056-3.254-0.274-7.356-4.096-8.064
		c-13.905-2.579-27.076-0.759-40.886,1.556c-6.354,1.066-12.682,1.151-19.097,0.688c-6.38-0.461-12.449-2.114-18.799-2.804
		c-11.516-1.253-23.205-1.847-34.095-6.006c-4.792-1.83-9.885-3.449-14.815-4.743c-3.974-1.042-8.789-1.046-12.557-2.606
		c-1.769-0.733-3.935,0.503-4.859,1.976c-2.778,4.431,0.716,8.595,4.094,11.324c4.351,3.516,9.364,7.239,14.537,9.344
		c2.761,1.124,5.555,2.447,8.383,3.679c-1.422,1.757-2.451,3.963-3.174,6.432c-0.365,0.3-0.699,0.668-0.986,1.084
		c-3.254,0.848-5.933,3.1-6.479,7.132c-0.77,5.691,0.069,10.566,1.119,16.141c1.23,6.531,1.942,13.14,3.348,19.642
		c1.144,5.29,2.111,10.637,3.259,15.926c0.052,0.396,0.109,0.79,0.165,1.184c-0.006,0.122-0.008,0.244-0.014,0.365
		c-0.165,3.596-0.419,8.003-0.07,12.127c-1.151,1.676-1.78,3.734-1.582,6.107c0.258,3.101,1.352,6.025,3.021,8.66
		c0.001,0.005,0.002,0.008,0.005,0.013c0.462,1.624,0.851,3.224,1.461,4.805c2.593,6.724,9.573,9.58,15.27,7.107
		c0.886,0.236,1.773,0.427,2.658,0.566c3.043,1.577,5.956,3.3,9.392,4.287c5.084,1.459,9.794,1.286,14.981,1.362
		c4.389,0.064,8.628,1.406,12.937,2.171c1.615,0.287,3.24,0.509,4.856,0.786c0.874,0.131,1.742,0.294,2.604,0.488
		c0.355,0.12,0.618,0.2,0.838,0.262c10.566,7.472,24.812-7.432,14.603-16.927c-5.074-4.72-10.848-8.753-15.478-13.933
		c-0.461-0.515-0.899-1.052-1.331-1.593c3.238-1.995,5.274-6.315,2.725-9.681c-2.508-3.31-5.525-6.368-7.66-9.935
		c-2.468-4.123-4.188-9.048-6.164-13.43c-3.576-7.933-4.265-17.545-8.579-25.012c-0.195-0.339-0.422-0.63-0.644-0.926
		c1.722-0.223,3.463-0.356,5.272-0.343c6.242,0.045,12.538-1.004,18.712-1.822c5.386-0.714,10.774-1.029,16.16-1.666
		c5.267-0.623,10.56,0.131,15.845-0.36c5.727-0.532,11.578-1.552,17.115-3.134c3.246-0.928,6.393-2.333,9.496-3.654
		c2.874-1.224,4.584-3.062,7.097-4.72C315.043,391.197,315.381,385.197,311,382.601z M203.687,391.354
		c-0.271-0.051-0.5-0.149-0.695-0.265c0.109,0.186,0.226,0.393,0.359,0.65c-0.173-0.272-0.356-0.52-0.541-0.767
		c-0.345-0.256-0.538-0.56-0.575-0.713c-0.137-0.159-0.282-0.297-0.424-0.445c1.905,0.285,3.809,0.572,5.705,0.891
		C206.206,391.124,204.777,391.557,203.687,391.354z"/>
	<path style="fill:#9E6226;" d="M202.992,391.088c-0.558-0.949-0.811-1.046-0.758-0.831c0.197,0.227,0.39,0.462,0.576,0.713
		C202.866,391.011,202.928,391.05,202.992,391.088z"/>
</g>
<g>
	<path style="fill:#D4A375;" d="M322.64,407.18c-0.002,0.02-0.005,0.04-0.007,0.06c-3.377-3.261-9.663-2.571-12.457,1.679
		c-2.409,3.663-1.576,8.086-2.082,12.235c-0.248,2.031-0.304,4.012-0.257,5.981c-0.219,1.201-0.443,2.4-0.671,3.599
		c-1.76,1.147-3.214,2.92-4.076,5.081c-1.853,4.644-1.513,9.974-2.013,14.898c-0.429,4.222-1.318,8.059-2.444,12.147
		c-2.411,8.753,9.531,16.711,15.934,9.276c0.314-0.364,0.596-0.728,0.862-1.094c4.124,3.421,12.287,0.828,12.267-5.686
		c-0.027-9.328,3.023-18.692,4.119-27.965c1.188-10.055,2.898-20.106,3.589-30.211C335.974,398.901,323.46,399.135,322.64,407.18z"
		/>
	<path style="fill:#D4A375;" d="M291.098,350.754c-3.763-0.854-6.719,0.583-10.391,1.491c-4.114,1.018-8.346,1.609-12.543,2.162
		c-9.953,1.309-19.639,1.458-29.647,1.391c-9.696-0.064-19.252-0.896-28.968-0.468c-4.348,0.192-8.771,0.996-13.114,1.022
		c-3.194,0.019-10.578-0.444-13.337-2.045c-1.518-0.88-3.46,0.917-2.468,2.469c3.795,5.939,13.099,8.689,19.793,8.937
		c10.807,0.398,21.585,0.474,32.384,1.108c20.075,1.181,41.084-1.278,58.971-10.868C293.89,354.82,293.466,351.292,291.098,350.754z
		"/>
	<path style="fill:#D4A375;" d="M280.723,325.104c-12.905-3.175-25.472-2.576-38.658-1.567c-13.279,1.016-26.1,5.641-39.352,6.339
		c-4.963,0.261-5.037,7.752,0,7.772c13.148,0.05,26.207-3.287,39.352-3.741c13.195-0.455,25.8-0.931,38.658-4.12
		C283.033,329.214,283.042,325.674,280.723,325.104z"/>
</g>
<path style="fill:#FFC60B;" d="M190.037,83.106c-0.63-3.111-1.871-6.668-3.158-9.9c-1.639-4.115-3.046-7.334-5.779-10.815
	c-2.568-3.272-3.976-7.495-6.76-10.47c-2.276-2.432-4.96-4.139-7.791-5.091c-1.194-0.926-2.514-1.76-3.979-2.484
	c-1.558-0.771-3.112-1.282-4.704-1.554c-9.303-5.413-20.973-7.189-30.549-1.687c-3.609,2.073-6.853,4.884-9.763,8.123
	c-1.152,0.414-2.269,1.041-3.356,1.873c-2.012,0.721-3.909,1.742-5.496,2.885c-4.612,3.324-9.657,8.556-9.341,14.317
	c-1.382,2.637-3.452,4.899-4.404,7.917c-1.314,4.171-1.063,8.353,0.212,12.514c0.892,2.911,2.149,5.683,3.537,8.405
	c0.264,4.161,1.243,8.166,3.273,11.657c1.447,2.489,3.343,4.464,5.48,6.159c2.894,6.786,6.739,13.932,14.984,14.228
	c3.886,0.14,7.233-0.952,10.237-2.714c10.123,4.795,22.344,3.722,33.479-0.708c3.458-1.376,6.233-2.907,8.466-4.853
	c2.586-0.04,5.126-0.944,6.852-2.827c5.716-6.233,6.837-13.37,8.286-21.348C190.662,91.776,191.056,88.141,190.037,83.106z"/>
<path style="fill:#CC9809;" d="M141.442,113.387c-3.773-6.225-11.765-7.724-16.765-12.759c-4.788-4.822-5.402-11.216-5.374-17.81
	c0.027-6.511,1.291-12.6,2.531-18.933c0.809-4.129,3.126-9.604-1.018-12.624c-6.669-4.861-11.36,6.803-13.162,10.997
	c-3.058,7.117-6.244,17.012-6.672,26.403c-0.451,9.92,2.677,18.938,9.703,25.959c6.894,6.891,20.108,11.813,28.992,5.506
	C141.816,118.606,142.922,115.83,141.442,113.387z"/>
<path style="fill:#EBDBB0;" d="M167.758,52.912c-5.744-3.187-12.819-4.308-19.287-3.146c-4.114,0.739-11.729,2.528-14.58,5.972
	c-1.689,2.04,0.41,5.251,2.943,3.814c1.758-0.997,7.103-0.186,9.394-0.05c-3.84,1.987-1.905,8.923,2.801,9.195
	c5.212,0.301,7.74,4.856,8.996,9.237c0.662,2.307,1.082,4.611,1.362,6.987c0.38,3.235,1.086,5.403,2.006,8.432
	c1.306,4.303,6.996,3.987,8.43,0c0.934-2.598,1.962-4.599,2.536-6.837c1.288,2.773,2.969,5.265,5.58,6.357
	c4.328,1.809,6.275-2.788,6.882-6.331C186.873,74.588,178.13,58.666,167.758,52.912z"/>
<path d="M355.99,193.054c-4.578,0.478-9.119,3.62-12.928,5.999c-5.376,3.357-10.489,7.213-16.385,9.64
	c-5.18,2.133-10.666,4.25-16.147,5.442c-5.487,1.195-11.164,1.012-16.402,3.268c-5.638,2.429-9.836,7.042-13.06,12.154
	c-1.625,2.577-2.835,5.388-4.55,7.898c-0.019-0.04-0.039-0.083-0.057-0.122c-4.201-8.852-11.798-17.623-20.264-22.611
	c-4.618-2.72-9.893-4.172-15.028-5.537c-5.839-1.552-11.632-3.454-17.578-4.558c-10.913-2.025-23.762-1.843-34.722-0.137
	c-8.314,1.294-17.921,4.078-23.4,10.952c-5.733,7.193,1.034,16.196,2.815,23.798c2.716,11.594,6.164,20.699,13.968,29.896
	c7.328,8.636,16.591,12.551,26.915,16.632c5.942,2.349,12.294,4.199,18.6,5.307c6.428,1.13,12.214-1.299,18.479-2.342
	c6.616-1.101,12.912-2.641,19.142-5.164c0.496-0.2,0.954-0.413,1.399-0.631c-1.952,3.658-3.56,7.453-3.984,11.669
	c-0.169,1.686,1.278,2.429,2.621,2.221c-0.502,0.941-1.033,1.898-1.629,2.902c-2.838,4.776-5.847,9.462-8.672,14.248
	c-1.517,0.249-3.04,0.478-4.586,0.641c-3.271,0.341-5.994,1.388-8.738,2.551c-1.808-0.546-3.643-1.028-5.573-1.269
	c-4.702-0.589-8.751,0.769-13.388,1.149c-10.115,0.829-20.152,2.063-30.309,2.433c-9.871,0.361-19.692,0.719-29.343,3.02
	c-7.265,1.732-15.745,3.891-18.303,11.894c-1.097,3.431-0.615,7.144-0.589,10.691c0.037,5.163-0.181,10.378,0.307,15.523
	c0.598,6.307,1.039,14.317,5.839,19.07c3.337,3.304,8.166,4.808,13.008,5.821c-0.244,2.422-0.442,4.846-0.497,7.279
	c-0.107,4.646,0.745,9.053,1.085,13.652c0.66,8.937-1.42,17.813-1.722,26.71c-0.166,4.876,1.046,9.453,1.709,14.237
	c0.707,5.101,0.799,10.268,1.594,15.365c1.356,8.699,0.956,17.856,3.889,26.261c3.149,9.023,9.324,9.913,17.715,11.807
	c9.303,2.101,18.308,5.573,27.586,7.926c9.546,2.42,19.393,2.808,29.193,2.773c10.174-0.036,20.359,0.655,30.529,0.445
	c11.106-0.229,21.357-2.008,30.983-7.754c1.596-0.953,3.262-1.837,4.936-2.722c1.515-0.43,2.994-0.894,4.399-1.323
	c6.565-2.004,14.116-3.055,19.784-7.184c4.561-3.323,8.011-9.992,9.694-15.265c1.28-4.008,0.471-7.491,0.679-11.556
	c0.198-3.875,1.543-7.752,2.303-11.546c1.416-7.061-0.182-14.293,1.434-21.117c1.845-7.789,0.906-15.844,0.668-23.791
	c-0.231-7.72-0.868-15.384-1.364-23.085c-0.18-2.798-0.435-5.819-1.319-8.56c6.392-1.206,11.13-3.812,13.83-10.147
	c3.997-9.385,0.271-18.304,0.143-27.846c-0.117-8.679,0.296-15.969-8.67-20.349c-4.326-2.114-8.862-2.032-13.562-1.73
	c-5.628,0.362-10.769-0.757-16.324-1.314c-5.483-0.551-11.07-0.364-16.576-0.422c-2.548-0.026-5.297,0.361-7.814,0.099
	c-2.174-0.226-3.854-1.326-5.955-1.912c-2.182-0.61-4.372-0.47-6.608-0.644c-2.333-0.182-4.541-0.952-6.853-1.324
	c-2.939-0.472-5.998-0.581-9.022-0.442c2.531-4.484,4.72-9.177,5.669-14.013c0.508-2.591,0.539-5.162,0.462-7.754
	c4.034,0.596,8.964-0.494,12.812-1.407c13.129-3.112,25.835-7.309,38.709-11.303c10.826-3.358,20.618-5.315,28.983-13.516
	c8.018-7.861,12.467-16.68,15.729-27.292c3.065-9.971,2.117-20.609-1.301-30.38C367.988,199.54,364.618,192.152,355.99,193.054z
	 M338.335,390.482c-0.787,6.723-1.001,13.536-1.124,20.298c-0.114,6.278,0.58,13.155-1.278,19.184
	c-1.872,6.075-0.754,11.874-1.632,18.04c-0.87,6.117-3.33,11.968-3.581,18.189c-0.201,4.99-0.062,10.725-4.166,14.598
	c-3.564,3.364-11.063,3.661-15.62,5.191c-5.917,1.987-12.35,4.293-17.705,7.476c-1.163,0.693-1.795,1.727-1.974,2.829
	c-9.793,2.261-19.934,1.588-29.957,1.104c-10.642-0.513-21.444-0.019-32.041-1.202c-11.139-1.243-21.74-5.339-32.284-8.848
	c-2.464-0.821-4.997-1.394-7.522-1.989c-1.348-0.317-3.896-0.443-5.559-1.022c1.022-0.013-0.587-3.459-0.809-4.365
	c-0.641-2.61-0.739-5.019-0.905-7.688c-0.288-4.653-1.403-8.931-2.185-13.495c-0.984-5.755-1.256-11.592-2.373-17.334
	c-2.036-10.463-0.612-20.8-1.903-31.309c-0.613-4.989-2.431-9.587-3.328-14.503c-0.52-2.85-0.812-5.749-1.037-8.656
	c0.153,0.031,0.31,0.059,0.461,0.091c10.101,2.083,20.258,3.182,30.56,3.499c10.938,0.336,21.883,0.15,32.82-0.122
	c5.277-0.131,10.61-0.086,15.877-0.419c4.777-0.302,9.373-1.677,14.138-1.976c3.952-0.249,7.827-0.654,11.746-1.227
	c5.144-0.752,10.305-0.385,15.434-1.41c5.108-1.021,10.205-2.535,15.421-2.895c4.901-0.339,9.766,0.631,14.673,0.172
	c6.033-0.564,11.869-2.109,17.738-3.382C340.401,382.913,338.695,387.416,338.335,390.482z M279.344,324.041
	c3.454,0.766,7.002,0.068,10.373,0.861c3.311,0.779,5.601,1.819,9.143,1.693c8.024-0.283,16.297-1.075,24.311-0.205
	c4.166,0.452,8.048,1.55,12.27,1.551c3.854,0.001,8.704-1.178,12.244,0.856c3.795,2.18,2.964,5.439,2.834,9.222
	c-0.166,4.789,0.867,9.296,1.399,14.03c0.664,5.917-0.131,13.163-6.784,14.28c-3.071,0.515-6.106,0.419-9.137,1.202
	c-3.866,0.998-7.702,1.937-11.709,2.393c-7.128,0.811-14.144-0.605-21.293,0.425c-4.368,0.629-8.627,1.709-12.963,2.49
	c-4.837,0.872-9.711,0.503-14.584,1.215c-15.631,2.283-31.251,3.093-47.059,3.275c-18.241,0.21-36.096-0.262-54.061-3.586
	c-4.265-0.79-12.199-0.791-15.251-4.222c-4.303-4.836-4.033-14.362-3.998-20.232c0.02-3.441-1.338-10.431,1.327-13.05
	c2.073-2.034,6.953-2.455,9.714-3.097c10.07-2.339,20.455-2.771,30.717-3.685c9.126-0.812,18.012-2.666,27.073-3.889
	c3.243-0.438,6.287-1.515,9.445-2.136c0.037,1.785,1.151,3.427,3.39,3.153c3.502-0.429,6.804-1.458,10.263-2.073
	c0.997-0.178,2-0.282,3.008-0.35c-1.452,3.796-2.658,7.837-4.075,11.727c-0.529-0.951-1.339-1.773-2.482-2.338
	c-9.62-4.757-21.708,0.062-31.208,3.121c-5.262,1.695-10.952,2.007-16.357,3.315c-4.952,1.198-9.562,1.67-14.234,3.18
	c-0.918-0.567-2.051-0.491-3.016,0.005c-1.915-0.394-3.763-0.702-5.843-0.618c-4.564,0.184-4.606,7.088,0,7.124
	c1.744,0.013,3.369,0.398,4.985,0.842c0.699,0.565,1.571,0.925,2.423,0.938c0.413,0.006,0.835,0.014,1.249,0.021
	c0.326,0.07,0.651,0.137,0.984,0.192c3.228,0.523,6.481,0.401,9.703,1.023c6.926,1.337,13.807,1.642,20.86,1.705
	c3.419,0.031,6.893-0.163,10.292,0.291c3.511,0.47,6.906,1.612,10.421,2.147c7.692,1.171,14.314-0.703,21.879-1.272
	c7.126-0.535,14.246,0.041,21.373-0.709c7.186-0.757,13.902-3.185,21.132-3.587c6.676-0.369,12.525-1.663,18.899-3.691
	c4.155-1.323,8.724-2.024,11.964-5.155c2.167-2.094-1.037-5.188-3.271-3.271c-2.262,1.941-6.308,3.009-10.051,3.818
	c2.177-1.74,3.246-5.116,0.815-7.294c-10.295-9.225-25.44-3.376-37.459-3.446c-6.011-0.036-11.216,1.912-17.056,2.67
	c-1.595,0.207-3.197,0.386-4.799,0.561c2.033-4.454,3.74-8.916,5.364-12.069C268.182,322.894,273.511,322.747,279.344,324.041z
	 M291.461,344.47c1.646-0.197,3.312-0.368,5.029-0.451c2.769-0.133,5.663,0.481,8.515,0.863
	C300.474,345.113,296.087,344.427,291.461,344.47z M271.709,244.972c-0.914,2.719-0.898,5.741-1.547,8.546
	c-0.405,1.75-0.847,3.486-1.216,5.239c-3.859-4.342-8.431-8.494-13.571-11.147c-13.309-6.869-29.192-6.983-42.681-0.818
	c-1.787,0.816-0.8,3.516,0.958,3.534c12.557,0.131,25.88-1.137,37.569,4.393c4.83,2.285,8.977,6.012,12.622,9.872
	c1.798,1.903,3.106,3.788,4.044,5.755c-0.991,0.463-2.023,0.847-3.207,0.953c-4.939,0.445-9.587,0.59-14.506,1.477
	c-4.238,0.765-8.583,1.261-12.763,2.302c-1.696,0.423-3.403,1.279-5.15,1.423c-2.263,0.187-4.651-0.747-6.866-1.245
	c-17.468-3.924-35.318-11.47-43.606-28.459c-1.995-4.09-3.402-8.415-5.143-12.613c-1.261-3.044-4.117-7.231-4.432-10.566
	c-0.445-4.696,15.124-7.619,18.899-8.2c18.345-2.822,38.676,0.031,56.159,5.948c8.826,2.988,17.426,11.153,22.446,18.88
	c0.896,1.38,1.564,2.824,2.158,4.293C271.822,244.687,271.759,244.824,271.709,244.972z M362.886,229.241
	c-2.41,8.038-6.955,15.844-12.463,22.117c-5.877,6.692-11.874,9.4-20.363,11.56c-11.43,2.907-22.506,7.02-33.9,10.057
	c-5.381,1.434-10.916,3.389-16.498,4.377c0.014-0.021,0.03-0.041,0.045-0.063c4.751-6.975,10.519-13.233,17.465-18.052
	c6.046-4.194,13.002-8.373,19.983-10.771c3.609-1.24,5.672-0.822,9.158,0.225c2.91,0.874,4.448,0.654,7.184-0.599
	c1.411-0.645,0.823-2.618-0.398-3.043c-3.721-1.298-6.087-4.998-9.957-6.174c-3.33-1.011-6.962-0.641-10.247,0.317
	c-8.173,2.383-16.247,7.12-22.881,12.35c-4.974,3.921-9.395,8.757-13.071,14.042c0.162-0.835,0.359-1.663,0.622-2.475
	c1.335-4.129,2.856-7.987,3.806-12.23c0.88-3.933,3.901-6.486,5.869-9.907c2.333-4.058,4.201-8.378,7.869-11.475
	c3.71-3.132,8.432-3.383,13.029-3.968c4.465-0.568,8.734-1.614,12.961-3.159c8.326-3.047,15.682-7.055,22.748-12.389
	c3.23-2.438,6.461-4.87,9.94-6.949c1.32-0.789,3.767-2.735,5.27-2.698c2.739,0.07,3.043,2.505,3.476,4.503
	C364.223,212.646,365.218,221.462,362.886,229.241z"/>
<path d="M119.113,131.248c11.129,5.4,23.133,5.875,35.285,6.068c5.273,0.084,10.307-0.889,14.961-2.693
	c0.56,2.656,0.811,5.723,1.393,7.206c1.445,3.678,3.055,7.341,4.709,10.929c1.618,3.509,3.48,6.981,5.894,10.012
	c2.706,3.397,5.977,6.02,7.695,9.954c-0.311-0.027-0.644-0.072-1.022-0.161c-7.318-1.709-11.431-6.297-19.027-3.176
	c-0.636,0.262-1.036,1.329-0.22,1.691c4.873,2.168,8.949,5.362,13.709,7.634c3.26,1.556,7.781,2.917,11.337,1.539
	c3.346-1.297,4.94-4.656,5.576-8.014c0.549-2.905-0.315-5.825,0.311-8.701c0.547-2.514,1.239-3.839,0.763-6.464
	c-0.493-2.714-4.014-2.521-5.326-0.696c-2.045,2.846-2.971,6.125-3.056,9.597c-0.004,0.101-0.002,0.202-0.004,0.304
	c-0.69-0.921-1.447-1.814-2.243-2.698c-4.095-4.541-7.422-8.861-10.004-14.472c-2.347-5.101-4.656-10.237-6.93-15.367
	c-0.088-0.198-0.171-0.373-0.255-0.557c14.061-6.929,23.942-21.722,24.955-37.946c0.43-6.884,0.798-14.756-0.624-21.534
	c-1.301-6.198-4.636-12.112-8.142-17.316c-6.374-9.46-15.239-17.208-25.805-21.619c-6.256-2.612-13.61-4.81-20.444-4.728
	c-3.322,0.039-6.556,0.615-9.607,1.916c-2.971,1.266-5.625,1.762-8.779,2.502c-5.325,1.248-10.761,4.612-14.857,8.168
	c-5.379,4.668-6.704,10.189-8.235,16.869c-0.102,0.446-0.066,0.887,0.065,1.294c-2.865,3.738-5.367,7.794-7.265,12.542
	c-4.351,10.881-1.96,23.316,2.287,33.864C100.489,117.826,108.821,126.253,119.113,131.248z M100.421,77.059
	c0.745-5.291,2.735-10.718,5.447-15.812c5.549-6.545,9.754-13.397,18.464-16.211c3.715-1.201,7.548-1.015,11.246-2.432
	c5.472-2.097,10.108-1.813,15.723-0.377c18.991,4.857,35.606,21.03,35.865,41.409c0.131,10.345,0.07,19.39-6.209,28.112
	c-5.039,7.002-13.799,13.029-22.55,13.867c-17.71,1.693-39.701-1.117-49.857-17.654C102.943,98.83,98.901,87.867,100.421,77.059z"/>
<path d="M75.642,41.765c1.755,3.894,4.745,8.013,9.542,7.834c3.921-0.146,7.483-4.808,4.866-8.481
	c-0.57-0.8-1.242-1.455-1.867-2.184c-0.193-0.208-0.239-0.246-0.162-0.142c-0.304-0.425-0.619-0.843-0.971-1.229
	c-0.127-0.148-0.188-0.217-0.194-0.217c-0.364-0.491-0.731-0.979-1.111-1.457c-0.375-0.477-0.751-0.957-1.139-1.425
	c-0.949-1.142-1.983-2.141-3.255-2.933c-0.982-0.611-2.153-0.838-2.644-1.897c-0.863-1.856-3.461-2.467-5.199-1.703
	c-2.03,0.892-2.75,2.799-2.411,4.911C71.628,36.163,74.289,38.762,75.642,41.765z"/>
<path d="M57.883,91.304c3.42,0.854,6.23,2.519,9.921,1.698c3.294-0.732,6.238-2.193,8.055-5.132
	c1.404-2.272,0.818-5.191-0.913-7.074c-3.152-3.429-7.191-3.013-10.949-0.926c-1.86,1.034-3.68,1.82-6.115,2.423
	C53.43,83.398,53.434,90.193,57.883,91.304z"/>
<path d="M86.415,125.862c-1.815,1.879-3.367,4.134-4.847,6.273c-1.517,2.19-2.587,4.836-4.145,6.923
	c-3.313,4.439,3.172,10.656,7.594,7.595c2.258-1.563,4.663-2.592,6.891-4.331c1.917-1.497,3.667-3.017,5.253-4.872
	c3.074-3.594,6.936-10.738,2.632-14.945C95.767,118.568,89.425,122.745,86.415,125.862z"/>
<path d="M143.053,160.689c-0.025-0.478-0.567-4.422-0.3-2.425c-0.361-2.702-0.808-4.859-2.192-7.261
	c-1.981-3.441-6.952-4.932-10.38-2.722c-3.699,2.385-4.544,6.533-2.722,10.382c0.757,1.597,1.819,3.089,3.046,4.364
	c0.004,0.004,0.005,0.005,0.007,0.008c0.141,0.206,0.282,0.413,0.414,0.624c0.173,0.265,0.339,0.534,0.495,0.81
	c0.256,0.356,0.454,0.625,0.609,0.832c0.992,2.362,3.422,3.808,6.001,3.461c2.546-0.342,5.241-2.771,4.933-5.588
	c-0.229,0.523-0.261,0.456-0.095-0.201C143.087,162.215,143.147,161.455,143.053,160.689z"/>
<path d="M217.144,119.618c-0.603-0.626-1.309-1.174-2.073-1.588c-1.634-0.888-3.41-1.569-5.305-1.446
	c-1.877,0.121-4.182,0.326-5.727,1.485c-1.822,1.368-3.021,2.778-3.333,5.1c-0.266,1.985,0.234,4.533,1.921,5.864
	c2.494,1.97,5.001,2.685,8.104,2.968c0.155,0.014,0.319,0.025,0.482,0.04c0.227,0.096,0.455,0.192,0.682,0.288
	c0.075,0.026,0.152,0.044,0.227,0.067c2.155,1.338,4.664,1.57,6.868-0.131c2.341-1.809,2.926-4.976,1.512-7.579
	c-0.072-0.134-0.154-0.259-0.229-0.391c-0.404-1.393-1.208-2.671-2.251-3.682c-0.131-0.147-0.271-0.287-0.419-0.418
	C218.663,121.589,218.51,121.397,217.144,119.618z"/>
<path d="M217.235,78.451c2.128,1.246,5.313,1.472,7.419,0c1.412-0.986,2.255-1.824,3.258-3.228c0.058-0.082,0.348-0.508,0.56-0.824
	c0.224-0.232,1.035-1.201,1.169-1.333c0.482-0.477,0.997-0.922,1.494-1.384c0.066-0.06,0.893-0.759,0.947-0.85
	c0.401-0.257,0.812-0.491,1.22-0.74c0.214-0.088,0.406-0.214,0.605-0.327c0.367,0.146,0.994-0.268,1.633-0.848
	c1.954-0.798,3.292-3.236,3.292-5.207c0-2.03-1.12-3.754-2.759-4.777c-0.664-0.567-1.427-1.011-2.307-1.274
	c-0.246-0.073-0.979-0.188-1.542-0.269c-0.027-0.005-0.095-0.014-0.198-0.027c-0.213-0.03-0.38-0.051-0.456-0.058
	c-0.082-0.011-0.163-0.02-0.261-0.032c-0.603-0.162-1.207-0.162-1.809,0c-2.418,0.231-4.753,1.152-6.897,2.261
	c-4.172,2.158-9.446,7.556-9.009,12.575C213.825,74.752,214.851,77.056,217.235,78.451z"/>
<path d="M194.843,37.559c0.022,0.107,0.045,0.214,0.068,0.321c0.959,4.573,7.869,6.771,11.064,3.127
	c0.804-0.59,1.515-1.344,2.129-2.297c0.887-2.107,0.997-2.366,0.334-0.778c0.251-0.597,0.503-1.194,0.755-1.79
	c0.165-0.486,0.3-1.012,0.429-1.509c0.017-0.065,0.028-0.115,0.041-0.167c0.176-0.31,0.34-0.647,0.496-0.959
	c0.096-0.155,0.171-0.321,0.253-0.482c4.245-3.348,2.023-11.295-3.866-11.039c-7.093,0.309-13.938,9.021-11.696,15.583
	C194.848,37.565,194.846,37.561,194.843,37.559z"/>
<path d="M146.461,20.525l0.491-0.009c2.278-0.043,4.75-1.229,5.821-3.339c0.553-1.087,1.005-2.146,0.921-3.403
	c-0.084-1.262-0.455-2.647-1.156-3.795c-0.051-0.161-0.101-0.323-0.152-0.483c-0.009-0.03-0.018-0.049-0.026-0.075
	c0.015-0.066,0.03-0.149,0.045-0.27c0.046-0.392,0.058-0.79,0.083-1.185c0.009,0.354,0.336-1.29,0.397-1.505
	c0.684-2.442-0.638-5.119-2.972-6.057c-2.536-1.021-4.847-0.017-6.412,2.101c-0.057,0.076-0.506,0.647-0.642,0.831
	c-0.13,0.141-0.345,0.38-0.377,0.419c-0.973,1.16-1.568,2.113-2.143,3.477c-1.074,2.544-1.562,5.635-0.486,8.263
	C140.999,18.291,143.197,20.585,146.461,20.525z"/>
<path d="M85.091,251.305c-3.164,0.513-6.403,1.239-9.525,1.967c-3.494,0.816-6.55,3.067-10.015,0.728
	c-4.604-3.107-7.24-11.746-6.057-16.936c1.522-6.675,7.978-12.069,13.612-15.339c7.014-4.071,13.851-3.031,21.542-2.445
	c3.341,0.255,3.59-4.545,0.75-5.542c-5.448-1.915-9.897-3.433-15.825-2.798c-4.866,0.521-9.451,2.869-13.437,5.618
	c-7.707,5.317-14.652,13.595-14.289,23.469c0.29,7.908,4.14,17.417,11.269,21.555c4.439,2.577,8.398,1.389,13.007,0.167
	c4.628-1.228,9.727-1.834,11.843-6.707C88.884,252.925,87.385,250.933,85.091,251.305z"/>
<path d="M122.221,229.631c-1.005-4.109-3.377-5.971-7.427-7.357c-5.392-1.846-8.912-0.471-13.764,1.827
	c-1.011,0.478-0.854,1.956,0,2.476c0.255,0.155,0.483,0.278,0.703,0.386c-3.204,1.742-6.016,3.492-6.998,7.519
	c-1.076,4.407-0.488,10.267,0.306,14.709c0.803,4.496,3.292,8.292,7.917,9.524c5.293,1.409,9.089-1.77,12.795-5.037
	c3.433-3.026,8.769-6.074,9.803-10.888C126.485,238.457,123.228,233.752,122.221,229.631z M115.004,245.819
	c-2.007,1.567-4.19,3.819-6.416,4.962c-5.482,2.816-6.579-2.216-6.903-6.34c-0.194-2.477-0.61-5.073-0.52-7.556
	c0.15-4.121,2.585-5.857,5.448-8.461c0.48-0.436,0.622-0.971,0.544-1.474c3.716-0.624,7.525-1.185,10.521,2.128
	c1.14,1.262,2.384,3.967,2.913,5.549C122.492,240.29,118.816,242.842,115.004,245.819z"/>
<path d="M151.181,270.779c-4.058-2.587-8.054-0.835-12.46-1.52c-0.052-0.008-0.101-0.018-0.152-0.025
	c0.386-0.983,0.769-1.948,1.192-2.821c1.365-2.817,2.321-5.562,2.364-8.723c0.052-3.901-0.986-9.399-5.839-9.599
	c-4.379-0.181-7.582,4.018-10.45,6.657c-0.928,0.854,0.271,2.403,1.345,1.743c1.763-1.082,3.615-1.983,5.599-2.599
	c2.006-0.623,2.701-1.016,3.31,1.137c0.854,3.017-0.553,6.318-1.942,8.892c-0.657,1.219-1.358,2.409-1.944,3.664
	c-0.121,0.259-0.217,0.484-0.295,0.688c-1.338-0.051-2.716,0.053-4.239,0.437c-1.318,0.332-2.489,1.756-2.402,3.153
	c0.323,5.195,5.853,7.424,9.561,4.062c1.92,0.702,3.843,1.556,5.66,1.78c3.786,0.465,7.482,0.368,10.692-1.893
	C152.982,274.543,153.126,272.02,151.181,270.779z"/>
<path d="M382.6,122.164c-3.661-1.98-7.44,0.021-10.364,2.304c-5.702,4.452-10.257,8.783-17.191,11.295
	c-2.368,0.859-2.635,4.332,0,5.085c4.735,1.355,9.208,0.058,13.323-2.512c1.927-1.203,3.696-2.728,5.458-4.177
	c-0.549,1.459-1.117,3.375-1.189,3.724c-0.542,2.609-0.481,5.243-0.831,7.869c-0.796,5.973-5.849,11.751-12.259,11.458
	c-4.585-0.21-8.231-0.393-12.827,0.817c-5.407,1.423-10.648,3.515-15.937,5.317c-8.492,2.893-12.628,6.172-15.456,14.836
	c-2.541,7.786-4.746,18.722,2.463,24.721c0.605,0.504,1.558,0.192,1.58-0.655c0.214-8.681-0.308-19.675,4.663-27.339
	c2.862-4.413,9.765-5.414,14.442-7.085c4.631-1.654,9.308-3.577,14.204-4.28c3.931-0.565,7.631,0.917,11.527-0.208
	c3.648-1.053,6.821-3.386,9.349-6.172c4.725-5.208,5.258-12.064,6.384-18.743c0.426,2.152,1.15,4.272,2.874,5.647
	c2.508,2,7.885,0.245,6.263-3.646C386.821,135.017,388.484,125.346,382.6,122.164z"/>
<path d="M431.68,81.782c-1.621-6.313-7.035-10.986-13.295-12.436c-5.426-1.258-9.727,0.378-13.961,2.696
	c-6.618,1.673-14.069,4.229-16.869,10.8c-2.423,5.689-2.266,14.351-1.468,20.432c2.168,16.518,21.326,16.692,33.321,10.9
	C431.533,108.319,434.893,94.296,431.68,81.782z M417.249,107.06c-8.778,3.028-22.98,5.532-24.142-7.051
	c-0.382-4.149-1.02-10.023,0.155-14.075c0.739-2.551,2.464-4.448,4.572-6.046c0.172,0.054,0.346,0.105,0.54,0.111
	c4.683,0.148,8.173-2.094,12.574-3.209c5.595-1.42,12.242,1.037,14.371,6.746C428.389,91.773,426.028,104.031,417.249,107.06z"/>
<path d="M459.244,128.946c-1.682-1.427-3.749-2.313-5.806-3.111c-2.487-0.965-4.579-0.603-6.988-0.597
	c0.959-1.062,1.815-2.225,2.541-3.33c2.856-4.349,4.21-10.056,0.564-14.371c-4.855-5.747-20.223-2.733-18.46,6.186
	c0.217,1.097,1.745,0.922,2.052,0c1.602-4.816,15.744-5.748,11.139,2.995c-2.075,3.939-4.976,5.987-8.288,7.875
	c-1.693,0.584-3.191,1.536-4.731,2.638c-2.831,2.028-0.237,6.718,2.78,4.757c3.182-1.676,4.65-0.417,7.569,0.771
	c2.319,0.944,4.384,0.484,6.759,0.835c3.969,0.587,7.488,3.718,10.868-0.135C460.309,132.245,460.627,130.12,459.244,128.946z"/>
<path d="M118.502,99.492c0.279-0.103,0.56-0.207,0.841-0.31c0.843-0.311,1.279-1.393,0.551-2.088
	c-0.994-0.949-0.257-4.662-0.05-5.793c0.349-1.91,0.946-3.756,1.828-5.486c0.995-1.952-1.872-3.663-2.956-1.728
	c-2.264,4.043-3.958,9.607-2.405,14.16C116.602,99.1,117.555,99.843,118.502,99.492z"/>
<path d="M124.881,106.632c0.502-0.341,1.082-0.593,1.597-0.93c0.577-0.377,0.378-1.343-0.362-1.336
	c-0.053,0.008-0.105-0.001-0.159,0.002c0.045-0.146,0.088-0.291,0.136-0.436c0.245-0.722,0.572-1.38,0.641-2.15
	c0.146-1.622-0.589-2.949-0.123-4.592c0.348-1.232,0.578-1.84-0.057-3.021c-0.217-0.401-0.803-0.279-0.93,0.122
	c-0.457,1.438-1.403,2.63-1.768,4.1c-0.277,1.118-0.339,2.147-0.863,3.189c-0.744,1.475-1.802,3.433-0.182,4.786
	C123.367,106.827,124.222,107.079,124.881,106.632z"/>
<path d="M130.787,107.059c-0.028,1.272,1.125,2.443,2.405,2.405c0.208-0.006,0.433-0.05,0.639-0.086
	c1.016-0.179,1.776-1.338,1.766-2.319c-0.03-2.741,1.277-5.32-0.398-7.869c-1.607-2.447-5.502-0.225-3.954,2.312
	c0.426,0.7,0.178,1.49,0.018,2.255C131.034,104.848,130.812,105.941,130.787,107.059z"/>
<path d="M200.003,418.079c1.082-1.532,2.069-3.121,3.043-4.723c0.702-1.153,1.593-2.923,2.848-3.535
	c2.744-1.338,1.551-6.416-1.622-5.991c-4.074,0.545-6.3,3.582-8.404,6.855c-1.787,2.78-5.322,7.681-3.329,11.09
	C195.096,426.15,198.693,419.935,200.003,418.079z"/>
<path d="M207.11,421.728c-3.287,3.176-6.309,6.757-9.271,10.241c-2.32,2.73-4.595,5.853-3.801,9.604c0.709,3.358,5.03,2.596,6.074,0
	c1.063-2.648,2.798-4.744,4.554-6.948c2.432-3.054,4.436-6.439,6.657-9.645C213.102,422.416,209.243,419.667,207.11,421.728z"/>
<path d="M209.487,440.569c-0.565-0.263-1.53,0.032-1.427,0.818c0.474,3.652-4.435,6.715-6.296,9.443
	c-2.193,3.213-4.418,9.359,0.949,10.864c0.585,0.165,1.298-0.104,1.594-0.648c1.174-2.159,1.234-4.771,2.316-7.098
	c0.821-1.764,1.772-3.441,2.685-5.161C210.377,446.768,212.466,441.958,209.487,440.569z"/>
<g>
</g>
<g>
</g>
<g>
</g>
<g>
</g>
<g>
</g>
<g>
</g>
<g>
</g>
<g>
</g>
<g>
</g>
<g>
</g>
<g>
</g>
<g>
</g>
<g>
</g>
<g>
</g>
<g>
</g>
</svg>
