<svg height="512" viewBox="0 0 44 60" width="512" xmlns="http://www.w3.org/2000/svg"><g id="019---Rabbit-" fill="none"><path id="Path" d="m28.049 23.293c-.2195953-.0001598-.4133847-.1435812-.4777062-.3535451-.0643216-.209964.0158812-.4373217.1977062-.5604549l3.1-2.1-2.469 1.434c-.2300482.1308569-.5222207.059778-.6664488-.1621318-.1442281-.2219099-.0905463-.5177734.1224488-.6748682l7.044-5.121-6.36 3.669c-.2302873.1343427-.5254749.0643663-.6709518-.1590541-.1454768-.2234204-.0900639-.5216852.1259518-.6779459l6.833-4.987-5.956 3.44c-.2300482.1308569-.5222207.059778-.6664488-.1621318-.1442281-.2219099-.0905463-.5177734.1224488-.6748682l5.929-4.3-4.982 2.876c-.2296891.1296297-.5205695.0585592-.6646041-.1623819s-.0916869-.5157667.1196041-.6736181l5.39-3.943-4.32 2.492c-.2325262.1307666-.5267591.0559509-.6685809-.1700024s-.0812744-.5234503.1375809-.6759976l.85-.577c-.232111.0466602-.4651296-.0758679-.5582458-.2935421-.0931162-.2176741-.0208012-.4708172.1732458-.6064579l2.983-2.149-1.69.974c-.2280542.12904158-.517047.0601323-.6623353-.15793143-.1452882-.21806373-.0975826-.5113034.1093353-.67206857l2.839-2.164-1.179.681c-.2163147.12634306-.4927389.07310819-.6466589-.12453613-.1539199-.19764432-.137822-.47868729.0376589-.65746387l2.86-2.933c-.1905492-.05771457-.3286983-.2229798-.3517092-.4207435s.073502-.39033317.2457092-.4902565l2.334-1.35c.2160105-.1246636.4908577-.07107952.6442199.12559681.1533622.19667632.1383361.47629469-.0352199.65540319l-2.454 2.514 4.8-2.77c.228242-.1318458.5196375-.06386204.6659708.15537372.1463332.21923576.0973404.51441845-.1119708.67462628l-2.844 2.171 3.382-1.952c.2304184-.13223644.5240189-.06118928.6684864.16176419.1444674.22295348.0893536.51995759-.1254864.67623581l-2.974 2.151 3.071-1.768c.2329673-.1327691.5291919-.0581284.6714287.16918215.1422368.22731056.0798406.52635392-.1414287.67781785l-.53.353.334-.192c.2296891-.12962966.5205695-.0585592.6646041.16238191.1440346.2209411.0916869.51576672-.1196041.67361809l-5.389 3.942 5.3-3.059c.2294759-.12683578.5179525-.05486515.6609568.16489889.1430044.21976405.0919582.51266818-.1169568.67110111l-5.929 4.3 5.726-3.3c.2302873-.13434275.5254749-.06436632.6709518.15905409.1454768.22342042.0900639.52168518-.1259518.67794591l-6.831 4.984 6.493-3.749c.2300482-.1308569.5222207-.059778.6664488.1621318.1442281.2219099.0905463.5177734-.1224488.6748682l-7.046 5.122 6.519-3.764c.2333681-.1382671.5344194-.0652417.6785003.1645824.144081.2298241.078635.5326135-.1475003.6824176l-3.1 2.091 2.386-1.377c.2374252-.1242009.5305531-.0391619.6646466.1928199.1340935.2319817.0614797.5284321-.1646466.6721801l-14.672 8.47c-.076302.0440585-.1628915.067172-.251.067z" fill="#bbb6bb"/><path id="Path" d="m20.132 59.345c-.2229679.0006295-.4194074-.1464522-.4815803-.3605774-.0621729-.2141253.0249478-.4435408.2135803-.5624226l1.706-1.079-3 1.734c-.2338963.1269547-.5262491.04845-.6650871-.1785941-.1388379-.227044-.0755015-.5230536.1440871-.6734059l7.022-4.538-8.589 4.959c-.2363779.1430418-.5439582.0673779-.687-.169s-.0673779-.5439582.169-.687l4.525-2.863-5.552 3.2c-.2347029.1405531-.538787.0663884-.6824238-.1664401-.1436368-.2328284-.0734897-.5378644.1574238-.6845599l11.175-7.334-12.699 7.333c-.2349709.1292146-.5300387.050062-.6687925-.179405-.1387537-.2294671-.0717837-.5275361.1517925-.675595l5.147-3.246-5.906 3.409c-.2346058.1253855-.5263122.0451285-.6637604-.18262-.1374483-.2277485-.0725112-.523243.1477604-.67238l5.77-3.641-7.333 4.233c-.23571786.1278172-.53029699.0469384-.66770199-.1833224-.13740501-.2302607-.06871185-.5279174.15570199-.6746776l.574-.354-1.668.962c-.2341443.133112-.53165209.0568382-.67287099-.1725078-.1412189-.2293459-.07539606-.5293391.14887099-.6784922l15.414-10.05-17.163 9.908c-.23436107.1288923-.5286543.0505227-.66787555-.1778537-.13922124-.2283764-.07406124-.5258734.14787555-.6751463l15.33-9.855-16.412 9.475c-.23543794.13455-.53521485.0569022-.67572813-.1750261s-.0705395-.5335888.15772813-.6799739l13.8-8.749-14.4 8.312c-.23551248.13196-.53324972.0531389-.67262044-.1780652-.13937073-.2312042-.07004227-.5312938.15662044-.6779348l13.082-8.247-13.381 7.726c-.23610173.1433179-.54368211.0681017-.687-.168s-.06810173-.5436821.168-.687l15.427-9.83-15.514 8.958c-.23620749.133071-.53543293.0536509-.67455994-.1790411-.13912702-.2326919-.06746126-.5338687.16155994-.6789589l4.211-2.59-3.841 2.221c-.2372063.141661-.54433894.0642063-.68599997-.173-.14166104-.2372063-.06420631-.544339.17299997-.686l8.38-5.168-7.866 4.541c-.23448097.1270728-.52742279.0477401-.66573664-.1802909-.13831386-.2280309-.07330581-.5244809.14773664-.6737091l19.714-12.527-18.557 10.714c-.23628449.1306359-.5336041.0500916-.67163931-.181948s-.06692381-.5317553.16063931-.677052l5.863-3.585-4.2 2.424c-.23698876.1350471-.53848394.055235-.67761558-.1793791-.13913163-.2346142-.06455352-.5374465.16761558-.6806209l2.853-1.738c-.24092465.1069586-.52350402.0085054-.64580627-.2250047-.12230226-.2335102-.04231344-.5218605.18280627-.6589953l8.209-5.066-7.627 4.4c-.23345719.1253051-.52412895.0467367-.66266771-.1791186-.13853877-.2258554-.07683646-.5205686.14066771-.6718814l6.463-4.207-5.865 3.388c-.23265.1288599-.5254615.0530472-.66634439-.1725252s-.08052968-.5219566.13734439-.6744748l7.293-4.906-6.617 3.823c-.23120434.1356861-.52827755.0648879-.67343292-.160492-.14515538-.2253799-.0867349-.525133.13243292-.679508l7.262-5.187-6.228 3.6c-.23265.1288599-.5254615.0530472-.66634439-.1725252s-.08052968-.5219566.13734439-.6744748l.976-.658c-.21027587.0591189-.43459037-.0251002-.554-.208-.14483934-.2222798-.09085299-.5189853.123-.676l2-1.468-.4.231c-.22727134.1290292-.5155715.0612656-.66156584-.155498s-.10042617-.5093938.10456584-.671502l2.394-1.86-2.714 1.566c-.22681472.12995-.51544746.0632557-.66225808-.1530278-.14681062-.2162836-.10224336-.50915.10225808-.6719722l3.516-2.781-3.979 2.3c-.22762271.1347294-.52079843.0688675-.66892413-.1502738-.14812569-.2191412-.0999482-.5157364.10992413-.6767262l4.12-3.225-4.536 2.619c-.22620357.1284409-.51310281.0619842-.65979477-.1528333-.14669196-.2148176-.10416776-.5062269.09779477-.6701667l5.181-4.158-5.63 3.251c-.23184122.125947-.52164614.0500755-.66202867-.1733204-.14038253-.223396-.08302436-.5174256.13102867-.6716796l.053-.037h-.006c-.22776864.1327124-.51944616.0657934-.66658476-.1529333-.14713861-.2187267-.0991876-.5141157.10958476-.6750667l5.4-4.183-5.579 3.22c-.23093065.1317312-.52456739.0597083-.66833375-.1639283s-.0873821-.520673.12833375-.6760717l3.108-2.216-3.074 1.772c-.2313261.1333882-.5266402.061466-.67072696-.1633522-.14408676-.2248181-.08608875-.5231794.13172696-.6776478l2.9-2.054-2.705 1.562c-.22906317.1321979-.52145682.063148-.66718057-.1575572-.14572375-.2207053-.09436905-.5167199.11718057-.6754428l4.7-3.516-4.55 2.625c-.22871944.1310429-.51988771.0620127-.66543532-.1577616-.14554761-.2197742-.09547523-.5147944.11443532-.6742384l4.451-3.346-4.11 2.373c-.22871944.1310429-.5198877.0620127-.66543532-.1577616-.14554761-.2197742-.09547523-.5147944.11443532-.6742384l3.961-2.984-3.481 2.011c-.23055066.1302945-.52270695.0582293-.66621925-.1643342-.14351231-.2225634-.08860007-.5184238.12521925-.6746658l1.7-1.219-1.142.659c-.22906317.1321979-.52145682.063148-.66718057-.1575572-.14572375-.2207053-.09436905-.51671986.11718057-.6754428l2.395-1.792-1.646.949c-.22941602.13348907-.52315653.06445615-.6690977-.15724684-.14594118-.22170298-.0932171-.51880432.1200977-.67675316l1.238-.924-.424.25c-.22546345.12877265-.5119753.06354158-.65947026-.1501437s-.1068861-.50470942.09347026-.6698563l1.889-1.539-.853.492c-.21194866.12152279-.48068088.07208076-.63549852-.11692061-.15481764-.18900138-.15037815-.46220791.01049852-.64607939l1.623-1.844c-.23709448.03261099-.46405078-.10736153-.5413398-.33386468s.01676527-.47601318.2243398-.59513532l2.37-1.37c.21167096-.12024617.47918066-.0705672.63356554.11765884.15438488.18822605.15076826.46028553-.00856554.64434116l-1.546 1.761 3.615-2.086c.22575858-.1294404.51305935-.0640705.66058916.15030466.1475298.21437517.10595655.50607128-.09558916.67069534l-1.88 1.532 2.478-1.431c.22941602-.13348907.52315653-.06445615.6690977.15724684.14594118.22170298.0932171.51880432-.1200977.67675316l-1.248.93 1.468-.848c.2290632-.13219788.5214568-.06314799.6671806.15755725.1457237.22070523.094369.51671981-.1171806.67544275l-2.397 1.788 2.646-1.527c.2305507-.13029452.5227069-.05822926.6662193.16433419.1435123.22256344.0886.51842379-.1252193.67466581l-1.698 1.215 1.826-1.053c.2287194-.13104292.5198877-.06201267.6654353.15776159.1455476.21977425.0954752.5147944-.1144353.67423841l-3.961 2.985 4.161-2.4c.2287194-.13104292.5198877-.06201267.6654353.15776159.1455476.21977425.0954752.5147944-.1144353.67423841l-4.454 3.344 4.626-2.67c.2288588-.12922991.518701-.05921567.6633326.16023456.1446317.21945024.0946742.51341403-.1143326.67276544l-4.7 3.518 4.753-2.741c.2313261-.13338821.5266402-.06146595.670727.16335216.1440867.22481812.0860887.52317944-.131727.67764784l-2.89 2.049 2.792-1.612c.2309306-.1317312.5245674-.0597083.6683337.1639283.1437664.2236366.0873821.520673-.1283337.6760717l-3.11 2.218 2.924-1.687c.2277686-.1327124.5194462-.0657934.6665848.1529333s.0991876.5141157-.1095848.6750667l-5.4 4.184 5.323-3.072c.2325262-.1307666.5267591-.0559509.6685809.1700024s.0812744.5234503-.1375809.6759976l-.241.165c.2283306-.0596677.467292.0484411.5732195.2593308.1059274.2108897.0499746.4671306-.1342195.6146692l-5.183 4.146 4.955-2.86c.2269587-.1282325.5143539-.0605795.6602778.1554298.145924.2160093.1014061.5078844-.1022778.6705702l-4.125 3.226 3.761-2.171c.2268147-.12995.5154475-.0632557.6622581.1530278.1468106.2162836.1022433.50915-.1022581.6719722l-3.511 2.779 3.09-1.784c.2271002-.1265913.5133226-.0580067.6583864.1577626.1450637.2157693.100553.506709-.1023864.6692374l-2.4 1.862 1.962-1.13c.2299138-.1328235.5235501-.0627731.6687427.1595365s.0912979.5193359-.1227427.6764635l-2 1.466 4.412-2.547c.2334461-.1352991.5321345-.0609722.6749447.1679561.1428102.2289282.0782242.5298733-.1459447.6800439l-.789.531 2.6-1.5c.2312043-.1356861.5282776-.0648879.6734329.160492.1451554.2253799.0867349.525133-.1324329.679508l-7.257 5.19 10.279-5.935c.2334461-.1352991.5321345-.0609722.6749447.1679561.1428102.2289282.0782242.5298733-.1459447.6800439l-7.3 4.909 9.463-5.463c.2342478-.1308833.5300435-.0535271.6702262.1752769s.074765.527467-.1482262.6767231l-6.46 4.2 20.858-12.037c.2362075-.133071.5354329-.0536509.6745599.1790411.1391271.2326919.0674613.5338687-.1615599.6789589l-8.194 5.058 7.238-4.179c.2358358-.1260453.529101-.0442222.6656159.1857118.1365149.2299339.0679517.5265795-.1556159.6732882l-2.729 1.666 1.676-.966c.2362845-.1306359.5336041-.0500916.6716393.181948s.0669238.5317553-.1606393.677052l-5.874 3.592 4.632-2.674c.2354379-.13455.5352149-.0569022.6757281.1750261.1405133.2319283.0705395.5335888-.1577281.6799739l-19.724 12.534 17.268-9.97c.2362075-.133071.5354329-.0536509.6745599.1790411.1391271.2326919.0674613.5338687-.1615599.6789589l-8.377 5.166 5.828-3.369c.1534456-.09146.3440284-.0941103.4999579-.0069525s.2535161.2508822.256.4295-.0905123.3449925-.2439579.4364525l-4.177 2.566 3.513-2.028c.234481-.1270728.5274228-.0477401.6657366.1802909.1383139.2280309.0733058.5244809-.1477366.6737091l-15.43 9.832 15.781-9.111c.2346058-.1253855.5263122-.0451285.6637604.18262.1374483.2277485.0725112.523243-.1477604.67238l-13.089 8.254 13.12-7.574c.2341527-.123715.5241564-.0433988.6613045.1831476.1371481.2265465.0738659.5207372-.1443045.6708524l-13.8 8.75 13.619-7.861c.2354116-.1379583.5379577-.061708.6798637.1713453.1419059.2330532.070765.5368414-.1598637.6826547l-15.333 9.854 15-8.661c.2347034-.1364868.5354374-.0607325.6774741.1706544.1420368.2313868.073465.5338394-.1544741.6813456l-15.41 10.049 15-8.657c.2372063-.1413849.5441151-.0637063.6855.1735.1413848.2372063.0637063.5441151-.1735.6855l-.551.339.092-.052c.2349709-.1292146.5300387-.050062.6687925.179405.1387537.2294671.0717837.5275361-.1517925.675595l-5.776 3.644 5.986-3.455c.2346058-.1253855.5263122-.0451285.6637604.18262.1374483.2277485.0725112.523243-.1477604.67238l-5.154 3.251 5.674-3.275c.2333291-.1269664.5252099-.0493179.6646076.1768043.1393976.2261221.0776459.5217747-.1406076.6731957l-11.176 7.332 11.712-6.761c.2354379-.13455.5352149-.0569022.6757281.1750261.1405133.2319283.0705395.5335888-.1577281.6799739l-4.526 2.864 4.576-2.641c.2338963-.1269547.5262491-.04845.6650871.1785941.1388379.227044.0755015.5230536-.1440871.6734059l-7.029 4.543 7.052-4.071c.2349709-.1292146.5300387-.050062.6687925.179405.1387537.2294671.0717837.5275361-.1517925.675595l-1.69 1.07 1.342-.775c.2319831-.1309881.5259285-.0570795.6683699.1680527.1424414.2251321.0833463.52241-.1343699.6759473l-8.809 6.088 8.338-4.814c.2340569-.1357068.5336008-.0606207.6759704.1694442s.0759129.5316408-.1499704.6805558l-2.319 1.537 1.546-.892c.2245986-.1270093.5089574-.0622563.656419.1494768.1474617.2117332.109592.5009023-.087419.6675232l-3.321 2.761 1.448-.836c.1549945-.0985297.351531-.1041539.5119064-.0146489.1603754.0895049.2587712.2597296.2562855.4433739s-.1054527.3511436-.2681919.436275l-6.534 3.773c-.225024.1298327-.5119893.0657046-.6603401-.147566s-.108657-.5046224.0913401-.670434l3.321-2.761-10.505 6.066c-.2340569.1357068-.5336008.0606207-.6759704-.1694442s-.0759129-.5316408.1499704-.6805558l2.315-1.534-4.958 2.862c-.2313246.1263251-.5209869.0513891-.6620294-.1712679-.1410425-.2226569-.0850249-.5165645.1280294-.6717321l8.807-6.087-12 6.93c-.0771818.0445726-.1648751.0677043-.254.067z" fill="#bbb6bb"/><path id="Path" d="m10.25 25.337c-.1827046.0001928-.35096729-.0992839-.43886418-.2594562-.08789688-.1601723-.08143107-.3555339.01686418-.5095438l.572-.9-.87.5c-.20936172.1198333-.47443246.0730979-.63018772-.1111103-.15575526-.1842081-.15777941-.4533598-.00481228-.6398897l.861-1.04-1.174.677c-.21132343.1216732-.47959512.0731604-.6349231-.1148162-.15532798-.1879765-.15240279-.4605836.0069231-.6451838l1.44-1.661-1.686.972c-.21503576.1228992-.48763968.0698481-.64089287-.1247234-.15325319-.1945714-.1409636-.4720174.02889287-.6522766l1.652-1.738-1.822 1.052c-.21357462.1241805-.4858285.073761-.64076969-.118666-.15494119-.1924269-.14611644-.4691694.02076969-.651334l2.22-2.438-2.326 1.347c-.21989257.1179958-.49312141.0557887-.64025961-.1457705-.14713819-.2015592-.12312958-.4807496.05625961-.6542295l1.166-1.045-.922.532c-.21886603.1231702-.49513807.0648746-.64558113-.1362227s-.12836926-.4825886.05158113-.6577773l1.6-1.532-1.35.779c-.21744747.1222843-.49176288.0655717-.64289368-.1329134-.15113079-.1984852-.13282855-.4780031.04289368-.6550866l1.607-1.586-1.165.672c-.21125671.1203598-.4784718.0713026-.6332004-.1162472s-.15211199-.4592181.0062004-.6437528l1.8-2.073-1.208.7c-.20936172.1198333-.47443246.0730979-.63018772-.1111103-.15575526-.1842081-.15777941-.4533598-.00481228-.6398897l1.23-1.493-.451.261c-.19136952.11299525-.43435336.08611577-.5963984-.06597507-.16204503-.15209085-.20425426-.39288543-.1036016-.59102493l.857-1.714c-.22446045-.00442441-.41845253-.15791488-.47438198-.37534065-.05592946-.21742576.03991787-.44547299.23438198-.55765935l1.116-.654c.19116997-.11244633.43356844-.08551952.59540024.06613999.16183179.15165951.20441629.39180245.10459976.58986001l-.8 1.6 1.406-.811c.20936172-.11983334.47443246-.07309794.63018772.11111025s.15777941.45335982.00481228.63988975l-1.228 1.49 1.391-.8c.21132343-.12167321.47959512-.07316036.6349231.11481618.15532798.18797653.15240279.46058365-.0069231.64518382l-1.8 2.072 1.968-1.134c.21777199-.1239843.49368841-.0676117.6453756.131857.1516872.1994686.1322878.4804159-.0453756.657143l-1.611 1.582 1.59-.917c.2190652-.1318893.5023394-.0772423.6566242.1266708s.1298566.4913741-.0566242.6663292l-1.6 1.531 1.477-.853c.2198926-.1179958.4931214-.0557887.6402596.1457705s.1231296.4807496-.0562596.6542295l-1.166 1.045.943-.544c.2132902-.1227487.4841863-.0720462.6386451.1195326.1544588.1915787.14655.4670654-.0186451.6494674l-2.22 2.439 2.025-1.163c.2150358-.1228992.4876397-.0698481.6408929.1247234.1532532.1945714.1409636.4720174-.0288929.6522766l-1.654 1.738 1.269-.732c.2113234-.1216732.4795951-.0731604.6349231.1148162.155328.1879765.1524028.4605836-.0069231.6451838l-1.438 1.657 1-.579c.2094231-.1210892.4754979-.0748836.6318351.1097222.1563373.1846058.1580911.454657.0041649.6412778l-.861 1.04.231-.133c.1991468-.1142571.450514-.0782028.6095162.0874245s.1847708.4182562.0624838.6125755l-.584.917c.2256362-.0714528.4707812.0217189.592.225.1380647.2391402.0561341.5449248-.183.683l-1.662.966c-.0760084.0438886-.1622305.0669961-.25.067z" fill="#db8099"/><path id="Path" d="m33.032 25.408c-.1959997.000243-.3740666-.1140547-.4554639-.2923534-.0813972-.1782988-.0511122-.3877137.0774639-.5356466l2.06-2.371-2.4 1.386c-.2205392.1280792-.5021318.0696485-.6535046-.1356028-.1513729-.2052513-.124009-.4915375.0635046-.6643972l2.856-2.657-2.28 1.315c-.2225362.1254221-.5038286.0629326-.6523283-.1449156-.1484997-.2078483-.1164484-.49421.0743283-.6640844l2.682-2.334-1.934 1.117c-.2240205.1297641-.5100442.0670649-.6592395-.1445117s-.1122125-.502047.0852395-.6694883l2.463-2.1-1.657.956c-.2223898.1269737-.5047663.065395-.6540994-.1426415-.1493332-.2080365-.1173442-.4952735.0740994-.6653585l2.669-2.349-1.615.933c-.2187434.1297091-.5000021.0745628-.6535686-.128145s-.1305136-.4883932.0535686-.663855l2.924-2.829-1.493.861c-.219385.1342545-.5048344.0801688-.6599003-.1250351-.1550659-.2052038-.1291551-.4945743.0599003-.6689649l1.74-1.662-.168.1c-.2077189.119562-.4710624.0749112-.6277607-.1064389-.1566982-.1813502-.1626716-.44838544-.0142393-.6365611l1.763-2.22c-.1367306-.09957162-.2138505-.26152062-.2049711-.43043157.0088794-.16891096.1025543-.3218815.2489711-.40656843l1.22-.7c.2074437-.12003605.4708869-.07598901.628.105.1529081.18223124.1562539.44696261.008.633l-1.251 1.587 1.514-.874c.2189627-.12482287.4965995-.06715707.6477436.13453784.1511442.2016949.1285371.48435452-.0527436.65946216l-1.741 1.663 1.392-.8c.2187434-.12970911.5000021-.0745628.6535686.128145s.1305136.48839317-.0535686.663855l-2.923 2.832 2.472-1.427c.2220099-.1247109.5022812-.0626525.6508926.1441224.1486115.2067749.1180855.4922068-.0708926.6628776l-2.67 2.349 2.043-1.179c.2241472-.1321074.5121483-.0702367.6622622.1422724s.1121658.5046265-.0872622.6717276l-2.46 2.094 1.673-.965c.2225362-.1254221.5038286-.0629326.6523283.1449156.1484997.2078483.1164484.49421-.0743283.6640844l-2.688 2.337 1.607-.928c.2206356-.1300292.503851-.072325.6560244.1336626s.1241014.4936554-.0650244.6663374l-2.855 2.657 1.166-.672c.2113234-.1216732.4795951-.0731604.6349231.1148162.155328.1879765.1524028.4605836-.0069231.6451838l-2.75 3.166c.1196727.1068416.180811.2646181.1643776.4242008-.0164335.1595826-.1084427.3015884-.2473776.3817992l-1.311.757c-.0762952.042637-.1626234.0640464-.25.062z" fill="#db8099"/><path id="Path" d="m22.132 46.441c-.197099.0000095-.3758133-.1157728-.4563634-.2956608-.08055-.179888-.0479045-.3903129.0833634-.5373392l.7-.785-1.7.98c-.2146681.1242961-.4880102.0724133-.6422041-.1218961-.154194-.1943094-.142615-.4722908.0272041-.6531039l1.232-1.312-1.658.957c-.1936497.104617-.4329364.0702973-.5893752-.084531-.1564387-.1548284-.1932325-.3937472-.0906248-.588469l.853-1.514-.394.227c-.1549945.0985297-.351531.1041539-.5119064.0146489-.1603754-.0895049-.2587712-.2597296-.2562855-.4433739s.1054527-.3511436.2681919-.436275l1.976-1.148c.1950137-.1118232.4406794-.0797527.6004508.078386s.1943635.4034621.0845492.599614l-.852 1.514 3.006-1.736c.2145941-.1228235.486738-.0703506.6402819.1234548.1535438.1938053.142373.4707366-.0262819.6515452l-1.232 1.313 1.475-.851c.2123689-.1214471.4814292-.0713915.6359136.1183044.1544843.1896959.1490205.4633181-.0129136.6466956l-1 1.121c.1978029.049111.3460007.213365.3745773.4151601.0285767.201795-.0681879.4007387-.2445773.5028399l-2.036 1.175c-.0767692.045782-.1646183.0696465-.254.069z" fill="#db8099"/><path id="Path" d="m22.482 55.471c-.187246-.0016539-.3578731-.1077941-.4421204-.275025s-.0679918-.3675184.0421204-.518975l.478-.659-2.025 1.169c-.2186263.1229976-.4945502.0649601-.6451009-.1356898-.1505506-.2006498-.1291214-.481796.0501009-.6573102l1.338-1.287-1.226.708c-.2130757.122757-.4837819.0723545-.6383991-.1188629-.1546171-.1912173-.1472392-.4664769.0173991-.6491371l1.369-1.514-1 .578c-.2159307.1231341-.4895276.0689462-.642223-.1271971-.1526954-.1961432-.1381159-.4746734.034223-.6538029l1.129-1.162c-.044809-.0214481-.0859761-.0497926-.122-.084-.1607041-.1500458-.2045351-.3874638-.108-.585l1.4-2.863c.001674-.1535964.0851538-.2946353.219-.37l.076-.045c.1899688-.1093046.4289789-.0821498.5895855.0669849.1606065.1491346.2053671.3854813.1104145.5830151l-.78 1.6.67-.387c.2159307-.1231341.4895276-.0689462.642223.1271971.1526954.1961432.1381159.4746734-.034223.6538029l-.567.584.638-.368c.2133584-.1241762.485411-.074054.640507.1180054.1550961.1920593.1468105.4685664-.019507.6509946l-1.376 1.509 2.044-1.178c.2186263-.1229976.4945502-.0649601.6451009.1356898.1505506.2006498.1291214.481796-.0501009.6573102l-1.337 1.283.484-.278c.2046686-.1173503.4635162-.0756679.621.1.1582767.1755166.1720416.4378849.033.629l-.6.828c.2192445.0156325.4025689.1726125.4517582.3868388s-.0472935.4354539-.2377582.5451612l-1.625.938c-.0751395.0431209-.1603683.0655495-.247.065z" fill="#f1f1f1"/><path id="Path" d="m14.223 41.427c-.2025089.0003623-.3852385-.1214629-.4627843-.3085367-.0775458-.1870739-.0345925-.4024491.1087843-.5454633l.88-.88-2.115 1.222c-.2221262.1265945-.5039712.0652242-.6533525-.1422642-.1493814-.2074884-.1181698-.4942439.0723525-.6647358l1.823-1.615-2.414 1.394c-.2251719.1281476-.5109328.0630663-.6584056-.14995-.1474728-.2130162-.107801-.5033971.0914056-.66905l1.77-1.457-1.893 1.089c-.2233421.1266456-.5063058.0635478-.6546834-.1459871-.14837755-.209535-.1139372-.4973954.0796834-.6660129l2.347-2.013-2.174 1.258c-.2163843.1232964-.49051692.0685506-.64294607-.1284-.15242915-.1969505-.13667647-.476052.03694607-.6546l2.673-2.719-1.9 1.095c-.2180963.1257781-.4956948.0697764-.64796984-.1307191-.15227508-.2004955-.13172419-.4829397.04796984-.6592809l1.145-1.122c-.073137-.0438034-.1340211-.1053755-.177-.179-.1380647-.2391402-.0561341-.5449248.183-.683l2.181-1.259c.2180963-.1257781.4956948-.0697764.6479698.1307191.1522751.2004955.1317242.4829397-.0479698.6592809l-.409.4 1.659-.957c.216466-.1248481.4918692-.0707117.6449718.1267831s.1368886.4776996-.0379718.6562169l-2.673 2.719 3.651-2.108c.2237424-.1292278.5090949-.0666972.6582921.1442547.1491972.2109518.1130922.5008356-.0832921.6687453l-2.346 2.012 2.467-1.424c.2248836-.1275609.509928-.0626394.65739.1497267.1474621.2123662.1087026.5021295-.08939.6682733l-1.768 1.461 1.468-.847c.2221262-.1265945.5039712-.0652242.6533525.1422642.1493814.2074884.1181698.4942439-.0723525.6647358l-1.82 1.612 1.117-.644c.2167987-.1191224.4881174-.0618073.638215.1348206s.1338516.473458-.038215.6511794l-1.239 1.238c.2013961.0443536.3549014.2078041.3865416.4115848.0316402.2037806-.0650762.406082-.2435416.5094152l-2.579 1.489c-.075433.0432923-.1610297.0657269-.248.065z" fill="#fff"/><path id="Path" d="m30.485 41.373c-.2039977-.0003858-.3873044-.1246631-.4631811-.314025s-.0291058-.4058306.1181811-.546975l.154-.148-1.326.766c-.2227723.1294397-.5074311.0684047-.6575526-.1409889s-.1165485-.4985799.0775526-.6680111l1.437-1.261-2.069 1.194c-.2208144.1342809-.5075757.0781561-.6614736-.1294633s-.1242133-.4983097.0684736-.6705367l2.986-2.812-3.414 1.97c-.2206356.1300292-.503851.072325-.6560244-.1336626s-.1241014-.4936554.0650244-.6663374l3-2.8-2.834 1.635c-.2256098.1311968-.5141774.0668035-.6626093-.1478598-.1484318-.2146634-.1067938-.5073817.0956093-.6721402l.877-.716-.181.1c-.21364.125655-.4870899.0758335-.6426853-.1170947-.1555954-.1929283-.1463687-.4707266.0216853-.6529053l1.434-1.573c-.2062793-.037659-.3671468-.2000289-.4028865-.4066494-.0357398-.2066204.0612417-.4135913.2428865-.5183506l2.181-1.259c.2134822-.1228496.4846312-.0719296.639.12.1546654.1917596.1466023.4676021-.019.65l-1.169 1.283 2.754-1.59c.2259084-.1319558.5153456-.0674504.6638412.1479469s.1058364.5088509-.0978412.6730531l-.879.717 1.259-.726c.2207276-.1320893.5056598-.0751513.6586724.1316224.1530126.2067738.124171.4959044-.0666724.6683776l-3 2.8 3.349-1.933c.2208144-.1342809.5075757-.0781561.6614736.1294633s.1242133.4983097-.0684736.6705367l-2.987 2.813 2.734-1.578c.2227723-.1294397.5074311-.0684047.6575526.1409889s.1165485.4985799-.0775526.6680111l-1.435 1.259.55-.317c.219385-.1342545.5048344-.0801688.6599003.1250351.1550659.2052038.1291551.4945743-.0599003.6689649l-1.05 1c.0582291.0413372.106698.0949261.142.157.1380647.2391402.0561341.5449248-.183.683l-2.172 1.254c-.0757822.0468338-.1629186.0720757-.252.073z" fill="#fff"/><g fill="#262626"><path id="Shape" d="m1.789 42.119c-1.23963295 1.8898937-1.74341797 4.168667-1.416 6.405.777 5.158 4.716 6.851 9.17 7.819 4.853 1.054 8.529 3.3 13.748 2.952 4.162-.273 7.82-2.111 11.74-3.044 2.975-.707 5.508-1.761 7.238-4.46 1.202524-1.8814416 1.6834768-4.1345319 1.354-6.343-.2021196-1.2981344-.6820471-2.5373502-1.407-3.633-.6-.909-2.341-1.832-2.752-2.659-.482-.973-.11-3-.185-4.126-.105784-2.5773963-.8999675-5.0794195-2.3-7.246 4.169-5.015 7.051-10.883 6.683-17.545-.2-3.605-.891-9.3-5.469-9.58-8.737-.536-10.548 15.81-10.883 21.941-2.5796502-.3532487-5.1891468-.4360313-7.786-.247-1.1153333.0826667-2.224.216-3.326.4.4590599-1.055144.5622567-2.2310259.294-3.35-.097919-1.7822712-.3579937-3.5519171-.777-5.287-1-4.75-2.908-10.13-7.037-13.03-.009-.006-.024-.006-.034-.011s-.024-.029-.058-.039c-4.493-1.292-6.803 1.64-7.736 5.764-1.791 7.923 1.105 15.232 6.165 21.305-1.28911783 1.9581152-2.06587207 4.208605-2.259 6.545-.122 1.24.221 2.945-.186 4.126-.444 1.293-1.888 1.988-2.781 3.343zm4.23-3.727c1.067-3.8.006-6.756 2.416-10.473.012-.018.005-.029.012-.045.01895483-.0298587.02869353-.0646398.028-.1v-.011c.00228651-.0312136-.00618318-.0622691-.024-.088-3.516-4.192-6.183-8.894-6.638-14.429-.227-2.772-.1-13.168 5.564-11.6 6.438 4.573 7.562 14.435 7.872 21.643.008.2.509.156.606.138 3.7985482-.6466004 7.6782335-.656401 11.48-.029.4773135.1688714 1.0093513.0298205 1.343-.351.013666-.0271589.023429-.0561113.029-.086.005-.02.02-.038.02-.06v-.001c.0609828-4.6160492.8576517-9.1928449 2.36-13.558 1.066-2.823 5.375-12.257 9.8-5.168 4.452 7.141-.42 17.673-4.983 23.345-.1043514.0517274-.2001356.119181-.284.2l-.02.02c-.0819047.0744923-.1272491.1810007-.1241749.2916715.0030742.1106709.0542612.2144978.1401749.2843285 1.4916959 2.5255673 2.2767757 5.4058051 2.273 8.339.167 3.263.078 2.307 2.141 4.611 1.8792175 2.1339606 2.6277542 5.0363512 2.015 7.813-1.058 4.487-4.732 4.787-8.6 6.53-4.051 1.824-8.011 3.3-12.627 2.945-2.796086-.3128332-5.5236164-1.0735569-8.078-2.253-1.688-.663-2.917-.471-4.753-.993-2.33738353-.7433812-4.26564555-2.4162299-5.3314891-4.6252918-1.06584356-2.209062-1.17525394-4.7594829-.3025109-7.0517082.889-2.269 3.068-3.108 3.666-5.238z"/><path id="Shape" d="m10.982 25.4c.3847932-.2730729.7877241-.5196426 1.206-.738.253-.089.457-.234.464-.4v-.009c.3291531-5.023409-.5657944-10.051655-2.608-14.653-.709-1.51-1.949-4.884-4.214-3.746-1.88.945-1.591 4.981-1.546 6.741.10800116 4.8595232 2.11077257 9.4844502 5.581 12.888.244.249.883.07 1.117-.083zm-4.813-18.166c1.023-1.287 3.025 4.079 3.39 5.1 1.3181243 3.8601338 1.8790436 7.9383429 1.652 12.011-.12.065-.232.142-.348.212-2.48047831-2.5374188-4.15564839-5.7513796-4.815-9.238-.315-1.733-1.109-6.537.121-8.085z"/><path id="Shape" d="m31.429 24.113c-.0740395.0766477-.1177452.1775617-.123.284v.02c0 .319.268.454.573.465.175.11.433.259.82.508.044.128.319.187.438.188.3579292.0039552.7033319-.1316234.963-.378l.02-.021c.043009-.0344901.0677256-.0868746.067-.142 3.4235199-3.4065288 5.3947056-8.0065592 5.5-12.835.043-1.765.431-6.758-2.329-6.441-2.209.254-3.424 4.037-4.073 5.675-.8640241 2.2039849-1.4550838 4.505424-1.76 6.853-.3425072 1.613348-.4319098 3.2701636-.265 4.911.093.416.14.7.169.913zm2.671-11.236c.332-1.032 2.212-6.824 3.584-5.893 1.02.693.569 5.853.476 6.908-.3333485 3.9238303-1.9540416 7.6275182-4.61 10.535-2.199-2.519-.284-8.95.55-11.55z"/><path id="Shape" d="m18.373 43.761c.3579033 1.3343609 1.5042903 2.3079338 2.879 2.445.0585542 2.1435592-1.5233701 3.9797522-3.652 4.239-2.207.218-4.821-1.009-4.864-3.5-.013-.763-1.479-.548-1.468.108.055 3.244 3.343 4.7 6.206 4.461.4154911-.0382949.8259668-.1190497 1.225-.241.0429112 1.0196079.1947753 2.0316998.453 3.019.473 1.4 1.84 1.145 3.062 1.139 1.156-.005 2.266-.156 2.64-1.417.2224529-.9000234.3620355-1.8185237.417-2.744.4796149.1326325.9735668.206507 1.471.22 2.709.046 5.938-1.455 5.991-4.557.012-.711-1.452-.466-1.462.132-.047 2.72-2.939 3.9-5.331 3.3-.6873084-.1751819-1.3133707-.5356001-1.81-1.042-.087-.09-.168-.185-.248-.282-.054-.065-.11-.13-.161-.2-.089-.12-.172-.245-.249-.373-.04-.0666667-.078-.1316667-.114-.195-.068-.125-.131-.252-.189-.382-.04-.091-.075-.184-.11-.277-.041-.111-.083-.223-.117-.338-.041-.143-.074-.288-.1-.434-.014-.073-.034-.144-.045-.218-.0231798-.1658077-.0378656-.3326923-.044-.5 1.6074139-.2876011 2.8239501-1.6146943 2.971-3.241 0-.012-.009-.018-.01-.029s.017-.035.015-.054c-.329-3.519-8.346-2.507-7.356.961zm5.027 10.439c-.27.512-.438.364-1.121.364-1.2 0-1.625-.3-1.792-1.462-.1193333-.8293333-.2386667-1.6586667-.358-2.488.7499904-.4690555 1.3759756-1.1118479 1.825-1.874.064.121.136.237.21.352l.068.1c.4283202.6428546.9947659 1.1819688 1.658 1.578l-.354 2.462c-.0015437.3273182-.0472906.6529282-.136.968zm.875-11.028c-.0968809.9902214-.6705089 1.8710035-1.537 2.36-.0630594.0195488-.127606.0339297-.193.043-.2457191-.1356429-.5393037-.1539919-.8-.05-.7893905-.3623982-1.4217011-.9971941-1.781-1.788-1.306-2.837 4.036-3.199 4.308-.561z"/><path id="Shape" d="m9.276 36.194c0 2.789 2 5.448 4.969 5.062 2.81-.365 4.355-2.762 4.479-5.45-.129-2.8-1.964-5.526-5.059-5.051-2.6188063.4577598-4.49483121 2.7825945-4.389 5.439zm5.8-4.436c1.4313357 1.0157431 2.2576153 2.6818231 2.2 4.436-.011084.9047841-.2206851 1.7961009-.614 2.611-.713 1.368-2.567 2.255-3.932 1.3-1.3163589-1.0312385-2.0616047-2.6287245-2.006-4.3-.0062841-.9068222.204229-1.8020169.614-2.611.671-1.262 2.395-2.242 3.739-1.436z"/><path id="Shape" d="m30.235 41.219c2.8-.38 4.365-2.711 4.489-5.413-.124-2.806-1.961-5.506-5.048-5.006-2.6136647.4413027-4.4956968 2.7510694-4.4 5.4 0 2.788 1.994 5.421 4.959 5.019zm.634-9.58c1.713.662 2.332 2.935 2.407 4.555-.1 2.086-1.421 5.685-4.35 4.059-1.4490473-1.0055708-2.2799036-2.6850334-2.2-4.447.01-2.187 1.403-5.227 4.143-4.167z"/><path id="Path" d="m14.728 36.923v-1c0-.664-1.456-.387-1.456.154v1c0 .664 1.456.387 1.456-.154z"/><path id="Path" d="m30.737 36.955v-1c0-.8-1.474-.613-1.474.09v1c0 .796 1.474.613 1.474-.09z"/></g></g></svg>