<svg height="512" viewBox="0 0 60 60" width="512" xmlns="http://www.w3.org/2000/svg"><g id="b"><path d="m30.82 25.01c-16.39-.45-29.82 12.7-29.82 28.99v1c0 2.21 1.79 4 4 4h50c2.21 0 4-1.79 4-4v-.4c0-15.8-12.39-29.16-28.18-29.59zm18.18 23.99c0 1.1-.9 2-2 2h-34c-1.1 0-2-.9-2-2v-.94c0-9.42 8.51-17.06 19-17.06s19 7.64 19 17.06z" fill="#128bd9"/><rect fill="#bb69cc" height="16" rx="4" width="58" x="1" y="1"/></g><g id="c" fill="#232323"><path d="m18.263 27.072c-9.119 3.824-15.938 12.629-17.452 22.394-.338 2.045-.506 4.167-.384 6.232.241 1.889 1.768 3.493 3.627 3.881.904.19 2.884.086 3.775.13 12.904.104 30.796.333 43.734.271.862-.005 2.853-.023 3.693-.043 2.542-.088 4.714-2.406 4.64-4.936.052-21.444-21.748-36.642-41.632-27.928zm36.895 30.97c-.12.005-.317.006-.541.005.064-1.021.149-2.038.383-3.048.308-1.685-2.308-1.685-2 0 .232 1.006.318 2.019.382 3.036-.749-.01-1.503-.023-1.819-.016-.798-.008-1.77-.012-2.868-.014.062-.34.151-.676.305-1.006.495-.908-.576-2.009-1.502-1.502-.552.277-.775.95-.498 1.502.153.33.242.665.304 1.005-1.429 0-3.015.004-4.685.011.064-1.011.15-2.017.381-3.016.308-1.685-2.308-1.685-2 0 .231 1.001.317 2.009.381 3.021-1.53.007-3.112.015-4.692.025.062-.354.152-.703.311-1.046.495-.908-.576-2.009-1.502-1.502-.552.277-.775.95-.498 1.502.16.346.25.698.312 1.055-1.604.01-3.188.022-4.697.033.064-1.035.149-2.065.385-3.088.308-1.685-2.308-1.685-2 0 .237 1.026.321 2.06.386 3.098-1.731.014-3.332.027-4.71.039.063-.385.152-.765.325-1.137.495-.908-.576-2.009-1.502-1.502-.552.277-.775.95-.498 1.502.174.376.264.76.326 1.149-.323.003-.635.006-.919.008-.916.008-2.271.021-3.798.035.065-1.07.147-2.135.391-3.192.308-1.685-2.308-1.685-2 0 .245 1.061.327 2.13.392 3.203-1.549.014-3.198.029-4.733.043.063-.422.152-.839.341-1.247.495-.908-.576-2.009-1.502-1.502-.552.277-.775.95-.498 1.502.191.411.28.832.343 1.258-1.424.013-2.672.025-3.514.032-.257-.004-.718.006-1.227.014.066-1.108.145-2.211.398-3.305.308-1.685-2.308-1.685-2 0 .253 1.097.332 2.202.399 3.313-.458-.003-.86-.018-1.073-.057-.996-.199-1.887-.864-2.338-1.781-.353-.621-.369-1.388-.369-2.083-.321-11.232 6.565-22.19 16.962-26.59 11.888-5.248 24.418-1.444 32.107 7.104-1.147-.31-2.319-.516-3.519-.587-1.319.445 2.399 1.466 4.486 1.725.338.417.663.843.979 1.279-1.273-.382-2.591-.581-3.933-.621-1.353.511 2.757 1.508 4.617 1.608.289.436.569.879.834 1.333-1.267-.385-2.582-.56-3.92-.557-1.307.552 2.703 1.436 4.426 1.457.234.435.455.878.668 1.326-.384-.104-.771-.189-1.161-.253-.788-.13-1.589-.179-2.401-.147-.386.182-.285.381.087.567s1.014.36 1.709.493 1.443.224 2.026.245c.057.002.103 0 .157 0 .324.748.612 1.516.874 2.298-.176-.054-.353-.109-.536-.157-.232-.062-.469-.115-.706-.162-.356-.07-.714-.12-1.064-.155-.413-.042-.798-.059-1.11-.034-.366.174-.295.367.022.552.298.175.813.346 1.388.482.046.011.092.021.139.032.56.127 1.161.225 1.661.272.059.006.117.011.174.015.114.008.217.011.314.012.216.722.397 1.46.557 2.206-.079-.026-.157-.051-.238-.076-.207-.063-.421-.119-.635-.169-.322-.075-.646-.133-.949-.177-.42-.061-.784-.088-.997-.055-.346.165-.304.352-.042.536.253.178.711.356 1.228.503.039.011.078.021.117.032.497.134 1.033.244 1.482.307.056.008.11.015.162.022.022.003.039.003.061.005.12.663.221 1.334.295 2.013-.338-.1-.68-.19-.982-.249-.427-.083-.769-.117-.885-.075-.325.156-.314.338-.107.521.207.182.61.365 1.067.523.321.111.66.202.986.279.071.962.11 1.934.085 2.923.015 1.599-1.364 3.014-2.946 3.043z"/><path d="m25.307 31.138c-7.199 1.45-13.709 7.323-14.769 14.778-.299 2.349-.754 5.62 2.488 5.807l3.088.053c10.232.152 20.669.344 30.885.12 1.521.016 2.858-1.331 2.836-2.821-.004-1.047-.065-2.138-.217-3.208-1.606-11.014-14.074-17.25-24.312-14.728zm22.852 17.893c-.018.609-.583 1.109-1.159 1.074-11.252-.239-22.71-.004-33.973.173-.686.043-1.323-.527-1.354-1.225-.244-4.008 1.015-7.988 3.632-11.053 7.929-9.621 24.846-8.517 30.956 2.51 1.506 2.6 2.037 5.544 1.899 8.521z"/><path d="m55.89.084c-4.149-.187-11.414.079-15.609.047l-35.281.389c-2.534-.046-4.666 2.339-4.446 4.814.006 1.413.023 5.154.029 6.615-.266 3.935 2.206 5.762 5.905 5.448 2.784.007 10.366.043 13.231.061l35.282.438c2.286.053 4.434-1.695 4.856-3.951.176-.913.088-2.579.124-3.483l.013-4.41-.002-1.115c.006-2.329-1.8-4.475-4.101-4.852zm2.104 13.5c-.24 1.411-1.55 2.518-2.994 2.521l-.404.005c.068-1.707.143-3.412.404-5.11.123-.67-.495-1.293-1.167-1.167-.552.092-.925.615-.833 1.167.262 1.703.337 3.412.405 5.124-1.249.016-2.882.036-4.778.06.064-.735.151-1.464.373-2.185.444-1.826-2.443-1.83-2 0 .224.726.311 1.46.375 2.201-1.48.019-3.09.039-4.785.06.069-1.758.141-3.513.41-5.261.123-.67-.495-1.293-1.167-1.167-.552.092-.925.615-.833 1.167.27 1.753.341 3.513.411 5.276-1.552.019-3.163.039-4.798.06.065-.786.149-1.565.387-2.335.444-1.826-2.443-1.83-2 0 .239.775.323 1.56.388 2.35-1.598.019-3.208.039-4.804.058.071-1.807.14-3.611.416-5.408.123-.67-.495-1.293-1.167-1.167-.552.092-.925.615-.833 1.167.277 1.801.345 3.61.417 5.422-1.664.019-3.299.038-4.875.056.112-.831.235-1.658.458-2.477.357-1.732-2.356-1.733-2 0 .224.823.347 1.654.46 2.489-1.777.019-3.456.037-4.992.051.144-1.847.291-3.694.532-5.54.092-.643-.485-1.224-1.13-1.13-.552.072-.942.578-.87 1.13.241 1.85.389 3.699.533 5.549-2.04.019-3.77.032-5.052.037.154-.862.292-1.724.519-2.586.214-.737-.519-1.482-1.264-1.264-.552.146-.882.711-.736 1.264.228.863.366 1.726.52 2.589-.233 0-.441 0-.622 0-.909-.018-2.849.026-4.453.024.169-1.871.307-3.741.555-5.612.094-.645-.485-1.228-1.132-1.132-.552.073-.941.58-.868 1.132.247 1.868.385 3.736.554 5.604-.488-.009-.909-.025-1.198-.054-1.657-.276-2.95-1.828-2.941-3.503l.002-1.097c.008-1.445.021-5.219.029-6.615-.167-2.047 1.516-3.899 3.554-3.854l35.282.389c3.896.078 11.476.006 15.255.181 1.381.228 2.466 1.512 2.467 2.911l.004 1.09.013 4.41c-.025.612.093 2.575-.026 3.123z"/></g></svg>