<svg height="512" viewBox="0 0 60 60" width="512" xmlns="http://www.w3.org/2000/svg"><g id="b"><path d="m21.75 30c-.44 0-.83.3-.96.73l-1.4 4.92c-.23.78-.9 1.33-1.71 1.43-5.86.7-10.29 5.99-9.61 12.17.55 5.03 4.65 9.13 9.68 9.68 6.64.73 12.25-4.44 12.25-10.93v-18zm-2.75 24c-3.31 0-6-2.69-6-6s2.69-6 6-6 6 2.69 6 6-2.69 6-6 6z" fill="#f0c000"/><path d="m42.32 37.08c-.81-.1-1.48-.65-1.71-1.43l-1.4-4.92c-.13-.43-.52-.73-.96-.73h-8.25v18c0 6.49 5.61 11.66 12.25 10.93 5.03-.55 9.13-4.65 9.68-9.68.68-6.18-3.75-11.47-9.61-12.17zm-1.32 16.92c-3.31 0-6-2.69-6-6s2.69-6 6-6 6 2.69 6 6-2.69 6-6 6z" fill="#d93625"/><path d="m37 30h-5c0-2.39-1.14-4.09-2.33-5.22-.16-.15-.32-.31-.46-.48-1.38-1.54-2.11-3.57-2.01-5.67l.68-15 .05-1.01c.04-.91.78-1.62 1.69-1.62.8 0 1.5.56 1.66 1.35z" fill="#88abab"/><path d="m29.21 24.3-.04.04-1.17 5.66h-5l4.88-26.37-.68 15c-.1 2.1.63 4.13 2.01 5.67z" fill="#526666"/></g><g id="c" fill="#232323"><path d="m29.947 51.818c1.864 5.465 7.881 9.198 13.779 7.737 12.409-3 12.229-20.564-.287-23.227-.713-.141-1.729-.083-1.964-.928l-1.482-4.934c-.221-.758-.991-1.301-1.756-1.276l-.516.007c-1.9-7.287-3.533-14.628-5.032-22.003l-.746-3.795c-.157-.634-.167-1.468-.625-2.023-1.045-1.464-3.547-.896-3.874.881-.079.365-.061.715-.098 1.042-.029.403-.062.871-.098 1.38-.271 1.834-.579 3.661-.936 5.479-1.04 6.221-3.285 12.967-4.127 19.248-.466-.041-1.275.075-1.617.556-.428.502-.515 1.479-.715 2.04-.194.805-.823 2.905-1.009 3.658-.469 1.19-1.748.863-2.962 1.32-6.184 1.65-9.863 8.828-7.628 14.814 4.017 10.764 18.369 9.531 21.693.024zm-.892-24.551c.016-.485.085-.95.226-1.392.844 1.002 1.569 2.045 1.761 3.412l-1.891.025c.06-.669-.123-1.386-.095-2.045zm9.357 3.682 1.341 4.942c.298 1.156 1.409 2.012 2.564 2.118l.744.135c7.407 1.502 10.546 11.054 5.373 16.614-2.675 3.099-7.289 4.207-11.108 2.736-3.911-1.384-6.646-5.335-6.684-9.484 0-.004.002-.008.002-.012.188-5.762.483-11.527.268-17.289 2.965.04 5.97.08 7.324.098.098.005.158.067.175.14zm-9.936-28.485c.259-1.398 2.26-1.258 2.406.167 1.94 8.797 3.701 17.684 5.085 26.59-.921.012-1.981.027-3.094.041-.071-1.21-.431-2.426-1.077-3.462-.634-1.156-1.775-1.906-2.468-2.988-.994-1.486-1.32-3.145-1.187-4.958.096-3.509.201-10.051.281-13.538.02-.459.01-1.46.053-1.852zm-1.73 9.352c-.11 1.55-.213 2.981-.29 4.026-.046 1.16-.26 2.845-.167 3.991.109 1.435.561 2.86 1.358 4.077.258.352.536.684.817 1.012.024.254.019.502-.001.747.02 1.357-1.153 2.397-1.321 3.67-1.253.017-2.326.031-3.03.04h-.036c.478-1.911.722-3.866 1.01-5.812.475-3.787 1.004-7.805 1.659-11.752zm-9.411 25.805c.89-.028 2.109-.587 2.449-1.575.292-.938.877-2.785 1.134-3.74.087-.197.38-1.479.52-1.583.205-.206.377-.11.75-.128.396.002 1.522.025 1.926.026 1.03.014 2.902.039 4.977.067-.01.281-.011.562-.019.842-.297-.041-.592-.073-.855-.086-.421-.021-.754-.004-.862.055-.295.199-.263.376-.043.526s.628.273 1.086.364c.211.042.433.075.652.102-.011.552-.034 1.104-.037 1.656-.507-.113-1.05-.198-1.503-.239-.047-.004-.093-.008-.137-.011-.447-.033-.779-.015-.861.067-.107.107-.138.213-.103.288.041.089.134.175.268.25.306.172.744.307 1.216.417.137.032.276.062.417.089.238.046.469.069.703.099 0 .577.013 1.153.021 1.73-.112-.033-.225-.066-.342-.097-.045-.012-.091-.024-.137-.036-.591-.15-1.227-.27-1.751-.333-.051-.006-.102-.011-.151-.016-.533-.055-.913-.037-.983.074-.078.124-.078.252.005.322.097.082.222.158.367.228.394.19.86.343 1.345.471.151.04.304.078.458.112.4.09.804.158 1.199.206.011.602.017 1.204.033 1.806-.303-.11-.646-.218-1.004-.316-.733-.202-1.524-.367-2.142-.445s-1.063-.068-1.105.081c-.067.13-.016.289.114.357.792.368 1.606.657 2.44.866.565.142 1.141.234 1.723.303.017.593.035 1.186.056 1.779-1.321-.451-3.452-.774-3.603-.435-.06.136-.023.298.11.365 1.108.559 2.298.839 3.52.923.021.592.04 1.184.061 1.776-1.101-.342-2.8-.515-2.961-.194-.068.136-.029.304.105.374.906.471 1.884.673 2.886.68.021.591.043 1.182.063 1.773-.879-.229-2.163-.262-2.324.043-.078.133-.032.304.101.382.711.352 1.461.496 2.229.447-.057 3.124-1.602 6.18-4.117 8.087-5.439 4.293-14.012 1.648-16.217-4.894-2.309-5.945 1.984-13.158 8.324-13.904z"/><path d="m19 54.869c3.721.217 7.152-3.12 6.895-6.869-.112-5.808-7.407-8.59-11.417-4.521-4.138 3.975-1.26 11.299 4.521 11.391zm5.105-6.869c-.528 6.729-10.139 6.846-10.625 0 .053-7.348 10.628-7.318 10.625 0z"/><path d="m41 54.869c3.721.217 7.152-3.12 6.895-6.869-.112-5.808-7.407-8.59-11.417-4.521-4.138 3.975-1.261 11.299 4.521 11.391zm5.105-6.869c-.528 6.729-10.139 6.846-10.625 0 .054-7.348 10.628-7.318 10.625 0z"/><circle cx="31" cy="20" r="1"/><path d="m53.378 15.396c.224-.214.232-.568.018-.792-.327-.368-.654-.734-.977-1.104.323-.37.65-.736.978-1.104.205-.215.207-.556 0-.773-.214-.224-.568-.232-.792-.018-.338.301-.676.602-1.015.901-.309-.39-.61-.788-.882-1.212-.376-.64-1.372-.647-1.749 0-.298.483-.148 1.116.335 1.414.383.246.746.516 1.101.793-.355.277-.717.547-1.101.793-.64.376-.647 1.372 0 1.749.483.298 1.116.148 1.414-.335.272-.424.572-.822.882-1.212.339.298.677.599 1.015.901.215.205.556.207.773 0z"/><path d="m6.293 16.042c.483.298 1.116.148 1.414-.335.272-.424.572-.822.882-1.212.339.298.677.599 1.015.901.215.205.556.207.773 0 .224-.214.232-.568.018-.792-.327-.368-.654-.734-.977-1.104.323-.37.65-.736.978-1.104.205-.215.207-.556 0-.773-.214-.224-.568-.232-.792-.018-.338.301-.676.602-1.015.901-.309-.39-.61-.788-.882-1.212-.376-.64-1.372-.647-1.749 0-.298.483-.148 1.116.335 1.414.383.246.746.516 1.101.793-.355.277-.717.547-1.101.793-.64.376-.647 1.372 0 1.749z"/></g></svg>