<svg height="512" viewBox="0 0 60 55" width="512" xmlns="http://www.w3.org/2000/svg"><g id="026---Sheep" fill="none"><path id="Path" d="m44.356 51.374c-.2096638.0000887-.397115-.1306404-.4694831-.3274188-.072368-.1967785-.0142807-.4178078.1454831-.5535812l1.394-1.184-2.526 1.456c-.2263606.1309251-.5153721.0653166-.6630162-.1505114-.1476442-.2158279-.1040467-.5089685.1000162-.6724886l4.995-4.021-6.432 3.712c-.2288588.1292299-.518701.0592157-.6633326-.1602346-.1446317-.2194502-.0946742-.513414.1143326-.6727654l6.489-4.847-9.84 5.681c-.2309306.1317312-.5245674.0597083-.6683337-.1639283-.1437664-.2236366-.0873821-.520673.1283337-.6760717l8.387-5.986-11.825 6.828c-.2322938.1351768-.5298928.0625367-.6737842-.164462-.1438914-.2269988-.0825928-.5271392.1387842-.679538l9.752-6.754-13.162 7.6c-.2361735.1361818-.537908.0580681-.6783318-.1756081-.1404239-.2336761-.0677709-.5367718.1633318-.6813919l1.123-.7-2.7 1.559c-.2362075.133071-.5354329.0536509-.6745599-.1790411-.1391271-.2326919-.0674613-.5338687.1615599-.6789589l1.93-1.2-3.565 2.059c-.2372063.141661-.5443389.0642063-.686-.173-.141661-.2372063-.0642063-.544339.173-.686l1.159-.715-2.725 1.574c-.236654.1424895-.5440105.066154-.6865-.1705s-.066154-.5440105.1705-.6865l9.018-5.658-11.287 6.514c-.2363779.1427656-.5437344.0668778-.6865-.1695-.1427656-.2363779-.0668779-.5437344.1695-.6865l12.385-7.811-17.741 10.244c-.2372063.141661-.5443389.0642063-.686-.173-.141661-.2372063-.0642063-.544339.173-.686l9.9-6.11-10.942 6.315c-.1532669.0919959-.3439707.0952367-.5002749.0085015-.1563042-.0867351-.2544627-.250269-.2575-.429s.089508-.3455056.2427749-.4375015l13.226-8.229-13.891 8.018c-.2346058.1253855-.5263122.0451285-.6637604-.18262-.1374483-.2277485-.0725112-.523243.1477604-.67238l17.024-10.753-17.355 10.019c-.2362845.1306359-.5336041.0500916-.67163931-.181948s-.06692381-.5317553.16063931-.677052l5.032-3.081-4.719 2.723c-.2341527.123715-.52415635.0433988-.66130449-.1831476-.13714814-.2265465-.07386591-.5207372.14430449-.6708524l14.968-9.5-14.117 8.145c-.2356087.1297647-.5316571.04988-.67000668-.1807924-.13834959-.2306723-.06941665-.5294607.15600668-.6762076l6.979-4.35-8 4.62c-.23477127.1336383-.53323995.0566316-.67405087-.1739091-.14081092-.2305408-.07304023-.5312411.15305087-.6790909l13.19-8.516-14.195 8.2c-.23554944.1441463-.54335365.0700494-.68749996-.1655-.1441463-.2355495-.07004945-.5433537.16549996-.6875l11.256-7.26-11.627 6.708c-.23520866.125628-.52761522.0445694-.66457305-.1842276-.13695782-.228797-.07026696-.5248112.15157305-.6727724l.972-.6-.75.433c-.23365564.130691-.52879264.0541466-.66947868-.1736308s-.0769932-.5259521.14447868-.6763692l9.916-6.539-9.359 5.4c-.2341443.133112-.53165209.0568382-.67287099-.1725078-.1412189-.2293459-.07539606-.5293391.14887099-.6784922l6.239-4.086-4.45 2.57c-.23223773.1273115-.52346332.0514462-.66406897-.1729923-.14060566-.2244384-.08181009-.5195841.13406897-.6730077l5.323-3.6-5.812 3.355c-.2295527.1314921-.52180501.0614183-.6667704-.1598726-.14496539-.2212908-.0924688-.5172061.1197704-.6751274l6.909-5.1-7.442 4.3c-.23093065.1317312-.52456739.0597083-.66833375-.1639283s-.0873821-.520673.12833375-.6760717l3.763-2.685-3.5 2.02c-.23055066.1302945-.52270695.0582293-.66621925-.1643342-.14351231-.2225634-.08860007-.5184238.12521925-.6746658l1.868-1.34-1.178.68c-.22033537.1244491-.49891194.0646624-.64877854-.1392378-.1498666-.2039001-.12376913-.4876223.06077854-.6607622l4.1-3.752c-.03712086-.0339741-.06882144-.0734312-.094-.117-.13806467-.2391402-.05613408-.5449248.183-.683l2.18-1.256c.2203354-.1244491.4989119-.0646624.6487785.1392378.1498666.2039001.1237692.4876223-.0607785.6607622l-2.9 2.65 5.982-3.45c.2305507-.1302945.5227069-.0582293.6662193.1643342.1435123.2225634.0886.5184238-.1252193.6746658l-1.871 1.335 3.777-2.174c.2309306-.1317312.5245674-.0597083.6683337.1639283.1437664.2236366.0873821.520673-.1283337.6760717l-3.768 2.685 6.108-3.525c.2295527-.1314921.521805-.0614183.6667704.1598726.1449654.2212908.0924688.5172061-.1197704.6751274l-6.908 5.1 10.279-5.935c.2322377-.1273115.5234633-.0514462.664069.1729923.1406056.2244384.0818101.5195841-.134069.6730077l-5.326 3.6 7.707-4.446c.2330372-.1238601.5222123-.0452782.6605113.1794907s.0780959.5183212-.1375113.6705093l-6.232 4.081 8.544-4.931c.2329061-.1254293.5232086-.0477402.6623373.1772508s.0789338.5194187-.1373373.6717492l-9.922 6.541 12.8-7.39c.2356087-.1297647.5316571-.04988.6700067.1807924.1383496.2306723.0694166.5294607-.1560067.6762076l-.965.6 2.527-1.457c.2342478-.1308833.5300435-.0535271.6702262.1752769s.074765.527467-.1482262.6767231l-11.255 7.254 14.052-8.112c.2338963-.1269547.5262491-.04845.6650871.1785941.1388379.227044.0755015.5230536-.1440871.6734059l-13.185 8.512 16.22-9.364c.2361735-.1361818.537908-.0580681.6783318.1756081.1404239.2336761.0677709.5367718-.1633318.6813919l-7 4.362 9.042-5.219c.234481-.1270728.5274228-.0477401.6657366.1802909.1383139.2280309.0733058.5244809-.1477366.6737091l-14.966 9.5 17.64-10.184c.2362845-.1306359.5336041-.0500916.6716393.181948s.0669238.5317553-.1606393.677052l-5.02 3.077 5.641-3.257c.2363779-.1427656.5437344-.0668779.6865.1695s.0668779.5437344-.1695.6865l-17.028 10.756 18.28-10.555c.2356087-.1297647.5316571-.04988.6700067.1807924.1383496.2306723.0694166.5294607-.1560067.6762076l-13.217 8.226 14.191-8.192c.2362075-.133071.5354329-.0536509.6745599.1790411.1391271.2326919.0674613.5338687-.1615599.6789589l-9.906 6.114 10.444-6.029c.2346058-.1253855.5263122-.0451285.6637604.18262.1374483.2277485.0725112.523243-.1477604.67238l-12.38 7.811 12.7-7.332c.2350866-.127347.5287583-.0472199.6665908.1818764.1378325.2290964.071048.5260868-.1515908.6741236l-9.015 5.657 8.84-5.1c.2372063-.1413849.5441151-.0637063.6855.1735s.0637063.5441151-.1735.6855l-1.141.7.609-.352c.1532669-.0918173.3438754-.094893.5000249-.0080685.1561495.0868244.2541174.2503583.257.429s-.089758.3452512-.2430249.4370685l-1.939 1.2.959-.554c.2350866-.127347.5287583-.0472199.6665908.1818764.1378325.2290964.071048.5260868-.1515908.6741236l-2.2 1.371c.1879474-.0162212.3694982.072631.472.231.1438968.2264337.0834385.5260772-.137.679l-9.754 6.755 10.279-5.934c.2309306-.1317312.5245674-.0597083.6683337.1639283.1437664.2236366.0873821.520673-.1283337.6760717l-8.39 5.988 8.192-4.729c.229416-.1334891.5231565-.0644561.6690977.1572468.1459412.221703.0932171.5188044-.1200977.6767532l-6.487 4.845 4.7-2.712c.2263606-.1309251.5153721-.0653166.6630162.1505114.1476442.2158279.1040467.5089685-.1000162.6724886l-5 4.022 1.7-.978c.2236156-.1271011.5071788-.0638125.6555296.1463081s.1130835.4985123-.0815296.6666919l-1.391 1.183.429-.247c.2374252-.1242009.5305531-.0391619.6646466.1928199.1340935.2319817.0614797.5284321-.1646466.6721801l-5.2 3.005c-.0758839.0464825-.1630135.0713767-.252.072z" fill="#d3d9dc"/><path id="Path" d="m53.2 27.387c-.2033744-.0000204-.3864729-.1232227-.4631008-.3116088-.0766279-.188386-.0315153-.4044155.1141008-.5463912l1.836-1.8-4.337 2.5c-.2197759.1165123-.4917776.0537473-.6382794-.1472845-.1465019-.2010317-.1229447-.4791853.0552794-.6527155l3.075-2.748-4.977 2.872c-.23893.1358451-.5427102.0533708-.6801373-.1846528-.137427-.2380237-.0569695-.5423443.1801373-.6813472l9.171-5.287c.2219765-.128183.5049351-.0677387.6551637.1399529.1502285.2076917.1190618.4953507-.0721637.6660471l-3.076 2.749 3.583-2.067c.2180963-.1257781.4956948-.0697764.6479698.1307191.1522751.2004955.1317242.4829397-.0479698.6592809l-1.837 1.8 2.063-1.191c.2089623-.1200463.4738237-.0739562.6299505.1096215s.1590908.4524031.0070495.6393785l-.358.438c.2206922-.0606549.454729.0334508.572.23.1380647.2391402.0561341.5449248-.183.683l-2.233 1.289c-.2089623.1200463-.4738237.0739562-.6299505-.1096215s-.1590908-.4524031-.0070495-.6393785l.332-.405-3.13 1.8c-.0766054.0439853-.1636766.0664442-.252.065z" fill="#636c76"/><path id="Path" d="m28.719 54.336c-.2185449-.0003247-.4115564-.1425484-.4765995-.3511902-.0650431-.2086417.0129552-.4353514.1925995-.5598098l7.092-4.895-9.169 5.293c-.234481.1270728-.5274228.0477401-.6657366-.1802909-.1383139-.2280309-.0733058-.5244809.1477366-.6737091l.633-.4-1.442.832c-.2327769.1270897-.524286.0503218-.6642741-.174934-.139988-.2252559-.0797468-.5206233.1372741-.673066l9.481-6.317-10.885 6.281c-.2349972.1452509-.5432491.0724971-.6885-.1625-.1452509-.2349972-.0724971-.5432491.1625-.6885l10.67-7.026-11.89 6.86c-.2354379.13455-.5352149.0569022-.6757281-.1750261-.1405133-.2319283-.0705395-.5335888.1577281-.6799739l6.915-4.394-7.512 4.336c-.2342478.1308833-.5300435.0535271-.6702262-.1752769s-.074765-.527467.1482262-.6767231l11.924-7.735-12.786 7.379c-.2347034.1364868-.5354374.0607325-.6774741-.1706544-.1420368-.2313868-.073465-.5338394.1544741-.6813456l14.073-9.195-14.831 8.568c-.2361735.1361818-.537908.0580681-.6783318-.1756081-.1404239-.2336761-.0677709-.5367718.1633318-.6813919l6.829-4.277-7.156 4.131c-.2354379.13455-.5352149.0569022-.6757281-.1750261-.1405133-.2319283-.0705395-.5335888.1577281-.6799739l11.946-7.628-12.27 7.086c-.2356087.1297647-.5316571.04988-.6700067-.1807924-.1383496-.2306723-.0694166-.5294607.1560067-.6762076l12.98-8.04-13.227 7.634c-.2361735.1361818-.537908.0580681-.6783318-.1756081-.1404239-.2336761-.0677709-.5367718.1633318-.6813919l14.572-9.072-14.713 8.492c-.2361735.1361818-.537908.0580681-.6783318-.1756081-.1404239-.2336761-.0677709-.5367718.1633318-.6813919l15.112-9.443-15.212 8.781c-.2357179.1278172-.530297.0469384-.667702-.1833224-.137405-.2302607-.0687118-.5279174.155702-.6746776l10.039-6.2-9.985 5.764c-.2356087.1297647-.5316571.04988-.6700067-.1807924-.1383496-.2306723-.0694166-.5294607.1560067-.6762076l12.114-7.544-11.948 6.9c-.2349709.1292146-.5300387.050062-.6687925-.179405-.1387537-.2294671-.0717837-.5275361.1517925-.675595l14.26-9-14.142 8.156c-.2338963.1269547-.5262491.04845-.6650871-.1785941-.1388379-.227044-.0755015-.5230536.1440871-.6734059l15.46-9.993-15.141 8.742c-.2347034.1364868-.5354374.0607325-.6774741-.1706544-.1420368-.2313868-.073465-.5338394.1544741-.6813456l13.329-8.7-12.963 7.485c-.2349709.1292146-.5300387.050062-.6687925-.179405-.1387537-.2294671-.0717837-.5275361.1517925-.675595l4.773-3.011-4.2 2.425c-.2358256.1438702-.5436298.0693256-.6875-.1665s-.0693256-.5436298.1665-.6875l5.954-3.822-5.345 3.086c-.2347713.1336383-.5332399.0566316-.6740509-.1739091-.1408109-.2305408-.0730402-.5312411.1530509-.6790909l4.308-2.784-3.538 2.042c-.234023.1252853-.5251579.0458598-.6631351-.1809119-.1379772-.2267718-.0746978-.5218373.1441351-.6720881l.661-.424c-.2347341.0840383-.4955091-.0176969-.6113195-.2384921-.1158104-.2207951-.051261-.493168.1513195-.6385079l6.588-4.712-10.82 6.243c-.2314518.1313128-.52520132.0583356-.66829177-.1660259-.14309045-.2243616-.08538078-.5214879.13129177-.6759741l6.983-4.9-9.4 5.428c-.23276821.1379387-.53303341.0656905-.67757699-.1630348-.14454357-.2287253-.08091807-.5309351.14357699-.6819652l5.717-3.936-7.329 4.227c-.22991383.1328235-.52355008.0627731-.66874271-.1595365-.14519264-.2223096-.09129791-.5193359.12274271-.6764635l7.014-5.156-8.176 4.72c-.23055066.1302945-.52270695.0582293-.66621925-.1643342-.14351231-.2225634-.08860007-.5184238.12521925-.6746658l4.608-3.3-3.11 1.795c-.22531652.1265297-.50992982.0605202-.65654846-.1522715-.14661864-.2127916-.10693245-.5022515.09154846-.6677285l3.49-2.838c-.21940364-.0161366-.40248229-.1737849-.45100944-.3883623s.04890008-.4356626.24000944-.5446377l4.72-2.727c.22575858-.1294404.5130594-.0640705.6605892.1503047.1475298.2143751.1059565.5060712-.0955892.6706953l-3.067 2.5 6.52-3.765c.2305507-.1302945.5227069-.0582293.6662193.1643342.1435123.2225634.0886.5184238-.1252193.6746658l-4.609 3.3 7.172-4.14c.2299138-.1328235.5235501-.0627731.6687427.1595365s.0912979.5193359-.1227427.6764635l-7.014 5.155 10.38-5.991c.2324067-.1328499.5282158-.0590851.6710333.1673329s.0819688.5251514-.1380333.6776671l-5.71 3.932 8.276-4.778c.2314518-.1313128.5252013-.0583356.6682918.1660259.1430904.2243616.0853808.5214879-.1312918.6759741l-6.984 4.9 9.952-5.745c.2305507-.1302945.5227069-.0582293.6662193.1643342.1435123.2225634.0886.5184238-.1252193.6746658l-6.589 4.712 9.617-5.552c.2348642-.1312813.531504-.0531604.6712412.1767732.1397372.2299337.0724576.5292187-.1522412.6772268l-.516.331 2.052-1.185c.2355494-.1441463.5433537-.0700494.6875.1655s.0700494.5433537-.1655.6875l-4.3 2.782 6.3-3.635c.2358256-.1438702.5436298-.0693256.6875.1665s.0693256.5436298-.1665.6875l-5.965 3.83 8.107-4.681c.2363779-.1427656.5437344-.0668779.6865.1695s.0668779.5437344-.1695.6865l-4.768 3.007 6.691-3.863c.2352733-.1446986.5433014-.0712733.688.164s.0712733.5433014-.164.688l-13.326 8.7 16.54-9.55c.2347713-.1336383.5332399-.0566316.6740509.1739091.1408109.2305408.0730402.5312411-.1530509.6790909l-15.461 9.987 18.785-10.846c.2363779-.1427656.5437344-.0668779.6865.1695s.0668779.5437344-.1695.6865l-14.265 9.006 15.928-9.2c.2369302-.1422133.5442867-.0654301.6865.1715.1422133.2369302.0654301.5442867-.1715.6865l-12.13 7.554 13.217-7.63c.2372063-.1413849.5441151-.0637063.6855.1735s.0637063.5441151-.1735.6855l-10.017 6.191 10.821-6.247c.2361735-.1361818.537908-.0580681.6783318.1756081.1404239.2336761.0677709.5367718-.1633318.6813919l-15.116 9.449 16-9.235c.2356087-.1297647.5316571-.04988.6700067.1807924.1383496.2306723.0694166.5294607-.1560067.6762076l-14.581 9.076 15.217-8.785c.2356087-.1297647.5316571-.04988.6700067.1807924.1383496.2306723.0694166.5294607-.1560067.6762076l-12.98 8.04 3.8-2.194c.2354379-.13455.5352149-.0569022.6757281.1750261.1405133.2319283.0705395.5335888-.1577281.6799739l-11.942 7.621 11.713-6.76c.236654-.1424894.5440105-.066154.6865.1705.1424894.236654.066154.5440105-.1705.6865l-6.828 4.273 6.452-3.725c.2347034-.1364868.5354374-.0607325.6774741.1706544.1420368.2313868.073465.5338394-.1544741.6813456l-14.076 9.2 13.673-7.896c.2334572-.1253051.5241289-.0467367.6626677.1791186.1385388.2258554.0768365.5205686-.1406677.6718814l-11.925 7.742 11.266-6.5c.2361017-.1433179.5436821-.0681017.687.168s.0681017.5436821-.168.687l-6.909 4.391 6.261-3.615c.2347029-.1405531.538787-.0663884.6824238.1664401.1436368.2328284.0734897.5378644-.1574238.6845599l-10.669 7.023 9.684-5.591c.2335451-.1328438.5303244-.0573638.6720248.1709163s.0776546.5277351-.1450248.6780837l-9.479 6.315 8.26-4.768c.234481-.1270728.5274228-.0477401.6657366.1802909.1383139.2280309.0733058.5244809-.1477366.6737091l-.92.582c.2137301-.0589807.4410521.0271752.562.213.1434953.2269416.0821305.526702-.139.679l-7.09 4.892 5.2-3c.2311923-.1280141.5220815-.054013.6639947.1689178.1419132.2229309.0858401.5178012-.1279947.6730822l-3.618 2.525 1.325-.765c.2288588-.1292299.518701-.0592157.6633326.1602346.1446317.2194502.0946742.513414-.1143326.6727654l-3.071 2.295c.0513603.0393293.094222.0886544.126.145.1375532.2386555.0561721.5436114-.182.682l-4.648 2.686c-.2288588.1292299-.518701.0592157-.6633326-.1602346-.1446317-.2194502-.0946742-.513414.1143326-.6727654l.952-.711-4.112 2.373c-.2318603.1330617-.527371.0602043-.6708066-.1653857-.1434357-.22559-.0840493-.5240996.1348066-.6776143l3.617-2.524-5.853 3.38c-.0760084.0438886-.1622305.0669961-.25.067z" fill="#636c76"/><path id="Path" d="m34.6 20.383c-.2177125-.0000113-.4103931-.140897-.4764232-.3483549-.0660301-.2074578.0097698-.433796.1874232-.5596451l4.443-3.148-6.434 3.714c-.2304184.1322364-.5240189.0611893-.6684864-.1617642-.1444674-.2229535-.0893536-.5199576.1254864-.6762358l6.533-4.724-7.861 4.539c-.2313261.1333882-.5266402.061466-.670727-.1633522-.1440867-.2248181-.0860887-.5231794.131727-.6776478l5.79-4.109-10.667 6.158c-.2319831.1309881-.5259285.0570795-.6683699-.1680527-.1424414-.2251321-.0833463-.52241.1343699-.6759473l6.985-4.824-8.466 4.888c-.2319831.1309881-.5259285.0570795-.6683699-.1680527-.1424414-.2251321-.0833463-.52241.1343699-.6759473l8.216-5.642-12.7 7.333c-.2355125.13196-.5332497.0531389-.6726204-.1780652-.1393708-.2312042-.0700423-.5312938.1566204-.6779348l.351-.22-1.773 1.023c-.234023.1252853-.5251579.0458598-.6631351-.1809119-.1379772-.2267718-.0746978-.5218373.1441351-.6720881l5.826-3.727-6.932 4c-.2343611.1288923-.5286543.0505227-.6678755-.1778537-.1392213-.2283764-.0740613-.5258734.1478755-.6751463l6.454-4.136-7.162 4.135c-.2363779.1427656-.5437344.0668778-.6865-.1695-.1427656-.2363779-.0668779-.5437344.1695-.6865l2.993-1.89-3.226 1.862c-.2342478.1308833-.5300435.0535271-.6702262-.1752769s-.074765-.527467.1482262-.6767231l5.828-3.783-5.974 3.448c-.2322377.1273115-.5234633.0514462-.664069-.1729923-.1406056-.2244384-.0818101-.5195841.134069-.6730077l9.527-6.437-9.429 5.448c-.2342478.1308833-.5300435.0535271-.6702262-.1752769s-.074765-.527467.1482262-.6767231l4.206-2.729-3.595 2.076c-.2144477.1242599-.4875608.0726667-.6419004-.1212601-.1543397-.1939268-.1433197-.4716518.0259004-.6527399l2.122-2.278c-.2387812.0713518-.4936504-.0440291-.5975905-.2705329-.1039401-.2265039-.0252132-.49496824.1845905-.6294671l2.782-1.607c.2144477-.12425991.4875608-.07266666.6419004.12126012.1543397.19392677.1433197.47165181-.0259004.65273988l-2.1 2.255 17.371-10.037c.2355494-.14414632.5433537-.07004945.6875.1655s.0700494.54335368-.1655.6875l-4.2 2.724 5.028-2.905c.2329673-.1327691.5291919-.0581284.6714287.16918215.1422368.22731056.0798406.52635392-.1414287.67781785l-9.534 6.441 10.308-5.948c.2337734-.12874562.5274505-.05119801.667188.1761759.1397374.22737391.07627.52441224-.144188.6748241l-5.824 3.781 8.387-4.842c.2349709-.12921461.5300387-.05006202.6687925.17940502.1387537.22946704.0717837.52753611-.1517925.67559498l-2.995 1.892 4.128-2.377c.2348642-.13128134.531504-.05316042.6712412.17677323.1397372.22993366.0724576.52921865-.1522412.67722677l-6.45 4.132 7.254-4.187c.234023-.12528526.5251579-.04585984.6631351.18091194s.0746978.5218373-.1441351.67208806l-5.829 3.729 6.226-3.594c.236654-.14248947.5440105-.06615402.6865.1705s.066154.54401053-.1705.6865l-.361.225.313-.179c.23171-.12762208.5227312-.05267945.6639792.17098529s.08384.51864622-.1309792.67301471l-8.216 5.64 8.086-4.674c.2319831-.1309881.5259285-.05707946.6683699.16805269.1424414.22513216.0833463.52241-.1343699.67594731l-6.987 4.825 9.18-5.3c.2313261-.13338821.5266402-.06146595.670727.16335216.1440867.22481812.0860887.52317941-.131727.67764784l-5.787 4.106 7.065-4.078c.2304184-.13223644.5240189-.06118928.6684864.16176419.1444674.22295348.0893536.51995759-.1254864.67623581l-6.534 4.724 7.32-4.226c.2313261-.13338821.5266402-.061466.670727.1633522.1440867.2248181.0860887.5231794-.131727.6776478l-4.443 3.147 4.6-2.653c.2251632-.1322925.5142123-.0690201.6635151.1452425s.1085645.507338-.0935151.6727575l-4.133 3.424 3.975-2.294c.2221262-.1265945.5039712-.0652242.6533525.1422642.1493814.2074884.1181698.4942439-.0723525.6647358l-3.121 2.764 2.149-1.24c.2234669-.1287231.5081764-.0663691.6573848.1439733.1492085.2103425.1139612.4996608-.0813848.6680267l-1.226 1.056c.0784369.043721.1434426.1080351.188.186.1380647.2391402.0561341.5449248-.183.683l-3.121 1.8c-.2234669.1287231-.5081764.0663691-.6573848-.1439733-.1492085-.2103425-.1139612-.4996608.0813848-.6680267l.23-.2-1.829 1.055c-.2217499.124383-.5015352.0625469-.6502105-.143705-.1486753-.2062518-.1188941-.491237.0692105-.662295l3.122-2.762-4.813 2.778c-.2245986.1270093-.5089574.0622563-.656419-.1494768-.1474617-.2117332-.109592-.5009023.087419-.6675232l4.132-3.425-8.8 5.078c-.075814.0445881-.1620483.0683888-.25.069z" fill="#d3d9dc"/><path id="Path" d="m26.364 3.212c-.226294-.00000996-.4243705-.15200579-.4829405-.37058883-.0585699-.21858305.0369699-.4492542.2329405-.56241117l2.562-1.479c.2374252-.12420086.5305531-.03916186.6646466.19281988.1340935.23198173.0614797.52843213-.1646466.67218012l-2.562 1.48c-.0760084.0438886-.1622305.06699614-.25.067z" fill="#d3d9dc"/><path id="Path" d="m18.184 7.546c-.2012401.00038316-.3830973-.11991666-.4614731-.30526758-.0783757-.18535092-.0379931-.39962494.1024731-.54373242l1.49-1.529c-.2114783-.02925387-.3810527-.18955554-.4221402-.39905656s.0553772-.42197846.2401402-.52894344l2.545-1.469c.2159307-.12313412.4895276-.06894621.642223.12719707s.1381159.47467342-.034223.65380293l-1.222 1.254 3.306-1.906c.1547852-.09074219.3463247-.09159165.5019087-.00222593s.2513568.25524423.2509624.43466678c-.0003945.17942254-.0968957.34487836-.2528711.43355915l-6.436 3.716c-.0762975.04284146-.1625021.06490984-.25.064z" fill="#d3d9dc"/><path id="Path" d="m29.268 41.382c-.2099802.0001646-.3976912-.1308859-.469899-.3280602-.0722078-.1971744-.013526-.4184572.146899-.5539398l.246-.208-.888.513c-.2234669.1287231-.5081764.0663691-.6573848-.1439733-.1492085-.2103425-.1139612-.4996608.0813848-.6680267l1.023-.882-1.484.857c-.2132902.1227487-.4841863.0720462-.6386451-.1195326-.1544588-.1915787-.14655-.4670654.0186451-.6494674l1.825-2.007-2.082 1.2c-.2135054.1227461-.4845965.071745-.6388985-.1201978-.1543021-.1919428-.1458589-.4676604.0198985-.6498022l.548-.6c-.2164346-.0202006-.3950206-.177926-.4418133-.3902051-.0467927-.2122792.0489299-.4304704.2368133-.5397949l2.287-1.324c.2132183-.1213577.4829881-.0700899.6368234.1210238.1538354.1911136.146285.465608-.0178234.6479762l-.347.381 2.072-1.2c.2130048-.1213721.4825903-.0704054.6365857.1203501.1539953.1907555.1469715.4650266-.0165857.6476499l-1.821 2.014 3.307-1.908c.2230711-.126215.5054574-.0633143.6538691.1456472.1484117.2089616.1147824.4963073-.0778691.6653528l-1.021.88 1.167-.674c.2243015-.1303348.511027-.0674761.6602307.1447421.1492038.2122182.1113211.5032983-.0872307.6702579l-.419.354c.2353017-.0274201.4575505.1140461.5323178.3388319.0747672.2247857-.0184705.4711877-.2233178.5901681l-4.517 2.608c-.0760084.0438886-.1622305.0669961-.25.067z" fill="#505860"/><path id="Path" d="m29.393 50.338c-.203029.00037-.3861245-.1220685-.4633396-.3098417-.0772151-.1877731-.0332176-.4035956.1113396-.5461583l.822-.813-1.588.916c-.2132902.1227487-.4841863.0720462-.6386451-.1195326-.1544588-.1915787-.14655-.4670654.0186451-.6494674l1.045-1.15-1.241.716c-.1632583.0942748-.3656644.0887075-.5234936-.0143991s-.2442468-.286222-.2235064-.4736009l.13-1.158c-.1818991-.0656289-.3096463-.2302633-.3280407-.4227628s.0758623-.3783476.2420407-.4772372l.419-.242c.1632583-.0942748.3656644-.0887075.5234936.0143991s.2442468.286222.2235064.4736009l-.106.944 3.156-1.826c.2132902-.1227487.4841863-.0720462.6386451.1195326.1544588.1915787.14655.4670654-.0186451.6494674l-1.046 1.151 2.174-1.255c.2174475-.1222843.4917629-.0655717.6428937.1329134.1511308.1984852.1328285.4780031-.0428937.6550866l-.823.815.061-.034c.2374252-.1242009.5305531-.0391619.6646466.1928199.1340935.2319817.0614797.5284321-.1646466.6721801l-3.416 1.972c-.0757146.0437194-.1615697.066821-.249.067z" fill="#8e234c"/><path id="Path" d="m29.935 44.478c-.226294-.00001-.4243705-.1520058-.4829405-.3705888-.0585699-.2185831.0369699-.4492542.2329405-.5624112l.118-.068c.2374252-.1242009.5305531-.0391619.6646466.1928199.1340935.2319817.0614797.5284321-.1646466.6721801l-.118.068c-.0759114.0442382-.1621395.0676923-.25.068z" fill="#8e234c"/><path id="Path" d="m19.149 36.3c-.20427-.0003673-.3877754-.1249545-.4634877-.3146755-.0757123-.1897209-.0284044-.4064192.1194877-.5473245l1.757-1.673-2.736 1.578c-.2234669.1287231-.5081764.0663691-.6573848-.1439733-.1492085-.2103425-.1139612-.4996608.0813848-.6680267l2.175-1.873-2.49 1.442c-.2235892.1309392-.5101637.0693762-.6602503-.1418375-.1500866-.2112138-.1139527-.5020905.0832503-.6701625l2.483-2.138-2.418 1.39c-.2202286.1227467-.4973928.0623225-.6465459-.1409526s-.1236267-.4857984.0595459-.6590474l2.42-2.2-1.871 1.08c-.2098266.1208975-.4761297.0740509-.632101-.1111958-.1559714-.1852467-.1567714-.4556378-.001899-.6418042l1.654-1.982c-.2008285.0251522-.3973762-.0715492-.5-.246-.1380647-.2391402-.0561341-.5449248.183-.683l2.181-1.259c.2097632-.119636.4750565-.0722593.6304447.1125863.1553882.1848457.1564635.4543339.0025553.6404137l-1.583 1.9 3.454-1.994c.2202286-.1227467.4973928-.0623225.6465459.1409526s.1236267.4857984-.0595459.6590474l-2.419 2.2 3-1.733c.2235892-.1309392.5101637-.0693762.6602503.1418375.1500866.2112138.1139527.5020905-.0832503.6701625l-2.483 2.139 2.5-1.441c.2230711-.126215.5054574-.0633143.6538691.1456472.1484117.2089616.1147824.4963073-.0778691.6653528l-2.178 1.877 1.756-1.021c.2192992-.1267613.4987467-.069504.6505222.1332884s.1279246.4870466-.0555222.6617116l-1.757 1.672.685-.394c.1549945-.0985297.351531-.1041539.5119064-.0146489.1603754.0895049.2587712.2597296.2562855.4433739s-.1054527.3511436-.2681919.436275l-4.312 2.493c-.0759153.0452097-.1626425.069051-.251.069z" fill="#fff"/><path id="Path" d="m40.485 36.373c-.2034588-.0004153-.3863763-.1240742-.4625824-.3127228s-.0305018-.4046612.1155824-.5462772l.259-.251-1.463.844c-.2221262.1265945-.5039712.0652242-.6533525-.1422642-.1493814-.2074884-.1181698-.4942439.0723525-.6647358l1.557-1.376-2.2 1.27c-.222272.1250569-.5030453.0627806-.6515981-.1445262-.1485528-.2073069-.1172703-.4931974.0725981-.6634738l2.416-2.116-2.717 1.568c-.2231941.1282474-.5072862.0660776-.6565145-.1436697s-.1148202-.4985197.0795145-.6673303l2.474-2.141-2.341 1.35c-.2229237.1277986-.5064223.0658196-.6556784-.1433455-.1492561-.2091652-.11567-.4974096.0776784-.6666545l1.892-1.643-1.3.752c-.2104359.1206411-.4771079.0728408-.6325393-.1133813-.1554313-.186222-.1547824-.4571434.0015393-.6426187l1.608-1.9c-.1889216.0073304-.3670915-.087872-.466-.249-.1380647-.2391402-.0561341-.5449248.183-.683l2.181-1.259c.2103697-.1193703.4760224-.0710392.6308685.1147762.1548462.1858154.1544805.4558286-.0008685.6412238l-1.508 1.779 3.321-1.917c.2229237-.1277986.5064223-.0658196.6556784.1433455.1492561.2091652.11567.4974096-.0776784.6666545l-1.9 1.644 2.37-1.368c.2231941-.1282474.5072862-.0660776.6565145.1436697s.1148202.4985197-.0795145.6673303l-2.471 2.14 2.586-1.494c.2226556-.1273746.5055829-.0655928.6548741.1430023.1492912.2085952.1165111.4963282-.0758741.6659977l-2.417 2.123 2.1-1.212c.2225048-.1289965.5065753-.0681522.6567253.1406622.15015.2088145.1173946.4974755-.0757253.6673378l-1.561 1.379.685-.4c.2187434-.1297091.5000021-.0745628.6535686.128145s.1305136.4883932-.0535686.663855l-1.09 1.052c.1437742.0960152.2277452.2594916.2220464.4322848-.0056987.1727932-.1002583.3303816-.2500464.4167152l-2.172 1.254c-.0755041.0454325-.1618817.0696182-.25.07z" fill="#fff"/><g fill="#262626"><path id="Shape" d="m19.913 36.447c2.971-.087 4.689-2.8 4.815-5.525 0-.026-.014-.041-.017-.063s.014-.034.013-.053c-.128-2.775-1.994-5.642-5.1-5.22-2.7.367-4.344 2.968-4.346 5.55-.007 2.626 1.774 5.395 4.635 5.311zm.923-9.726c1.724.626 2.342 2.753 2.433 4.4-.1 1.938-1.195 5-3.752 4.322-1.9-.5-2.77-2.827-2.764-4.577.007-2.196 1.439-5.105 4.083-4.145z"/><path id="Shape" d="m40.251 36.28c2.819-.356 4.35-2.8 4.473-5.474-.129-2.795-1.97-5.538-5.065-5.076-2.6223804.4680545-4.4950043 2.8025325-4.383 5.464.007 2.783 2 5.462 4.975 5.086zm-2.911-8.08c.661-1.281 2.391-2.239 3.739-1.437 1.4300731 1.0136328 2.2563275 2.6770332 2.2 4.429-.014433.9010735-.2246217 1.7882336-.616 2.6-.712 1.38-2.565 2.24-3.932 1.3-1.3158991-1.0284177-2.0595149-2.624961-2-4.294-.002194-.9016212.2063515-1.7912784.609-2.598z"/><path id="Shape" d="m.311 24.919c.3 1.888 4.127 2.209 5.568 2.386h.034c-1.12588901 1.1311148-1.69147852 2.7037179-1.54392371 4.2928291.1475548 1.5891112.99302239 3.0306924 2.30792371 3.9351709-1.25058546 1.4341158-1.64851143 3.4231106-1.04592948 5.2279782s2.11561275 3.1558609 3.97692948 3.5510218c-1.742 5.584 4.853 9.07 9.066 5.759 3.598417 3.5539076 8.7124601 5.1144346 13.682 4.175 3.2603119-.513055 6.3020301-1.9601029 8.757-4.166 1.0132342.8386311 2.2847638 1.302033 3.6 1.312.0555091-.0010068.1109232-.0050126.166-.012h.021.028l.056-.007c3.879-.355 6.446-3.435 5.4-7.276 3.8-1.264 5.777-5.359 2.893-8.8 1.3034848-.8681038 2.1585414-2.2661739 2.3375353-3.822014.1789939-1.55584-.33624-3.1115571-1.4085353-4.252986 1.479-.209 4.786-.6 5.406-2.214.613-1.6-1.734-4.109-2.66-5.136-1.995576-2.1743261-4.536889-3.7747317-7.36-4.635.971-4.269-2.67-7.713-6.859-7.715-.1895382-1.96268542-1.394163-3.68233102-3.174-4.531-.013-.007-.029-.006-.042-.012-.0311483-.02428319-.0646486-.04538834-.1-.063-1.4816249-.59636443-3.1381916-.58702761-4.613.026-.6031048-.8734983-1.426657-1.57180982-2.387-2.024-2.5377116-1.01917651-5.4435085-.19341368-7.066 2.008-.6682954-.27427774-1.3784807-.4325476-2.1-.468-.024 0-.048.008-.072.009-.03792-.00777562-.0763543-.01278879-.115-.015-1.8277295.0306082-3.5444804.88273956-4.674 2.32-.020819.03140178-.0382497.06492249-.052.1-.009.013-.025.021-.034.035-.5205497.78858401-.865979 1.6796075-1.013 2.613-4.182.144-7.8 3.609-6.872 7.828-2.6038808.8386634-4.9668139 2.2935413-6.888 4.241-1.108 1.146-3.497 3.566-3.22 5.33zm10.805 19.1c.0412136-.0936669.0412136-.2003331 0-.294 0-.011-.013-.021-.02-.033-.0246066-.0431949-.0588227-.0801483-.1-.108-.014-.009-.032-.016-.048-.024-.053514-.0258569-.1104078-.0440359-.169-.054-.0258423-.0098122-.0522175-.0181588-.079-.025-1.72879996-.2913847-3.15034287-1.5234282-3.68443401-3.1932788-.53409115-1.6698506-.09138362-3.4981628 1.14743401-4.7387212.151-.158.178-.285.13-.381-.0292962-.0799982-.08645963-.1467481-.161-.188-1.30359991-.7530437-2.16757056-2.0849904-2.32369757-3.5823454s.41448669-2.9788837 1.53469757-3.9846546c1.42787794.0631495 2.8561932-.1146715 4.225-.526.0769193.0218097.1561224.0345628.236.038-1.237 7.559.919 16.759 6.131 22.388-3.625 3.366-8.405-1.113-6.819-5.296zm40.877-8.846c-.017.01-.021.019-.036.029-.0662807.0391167-.1262879.087999-.178.145-.007.009-.006.016-.011.024-.0762286.0777687-.0762286.2022313 0 .28 2.278 2.53 2.03 7.114-2.093 7.927-.188.037-.943.222-.828.578.907 2.806.045 6.07-3.608 6.444-1.1998112-.048562-2.3326634-.5659756-3.155-1.441 5.381-5.562 7.376-14.52 6.172-22.224 1.359798.3860488 2.7750547.539543 4.186.454 1.2038227.9706587 1.8652409 2.4625958 1.7761657 4.0064329-.0890751 1.5438371-.9176943 2.9498032-2.2251657 3.7755671zm-34.229-26.538c.449.04 1.029-.214.97-.739.0136703-.95605706.318179-1.88527949.873-2.664.7786406-1.02963614 1.9863491-1.64546797 3.277-1.671.7391065.03566027 1.4614026.23296045 2.116.578.4411216.24792483.9995289.0972082 1.256-.339 1.0182721-1.9163547 3.3339148-2.73443261 5.33-1.883.9330147.45916055 1.69935 1.19822665 2.192 2.114.176.307.736.26.988.122 1.1512729-.66689933 2.5473353-.76004408 3.777-.252 1.454.82 2.914 2.413 2.712 4.235-.041.361.382.527.676.5 3.5-.312 6.568 2.178 6.3 5.851-.349 4.79-5.9 6.2-9.176 3.039-.322-.31-.917-.049-1.166.2l-1.066.92c-1.604242.9959341-3.6235347 1.0392402-5.269.113l-1-.733c-.3306465-.1890043-.7431151-.1573064-1.041.08-3 2.26-5.427 1.377-7.459-.58-.325-.313-.912-.044-1.166.2-7.896 7.613-14.242-10.082-3.124-9.091zm-15.513 14.535c1.253-3.325 5.128-5.883 8.392-7.035.071.2.136.41.23.618.3191236.7060678.7617336 1.3494946 1.307 1.9-2.1292233 1.0843524-4.07874178 2.4901643-5.78 4.168-.632.618.776.767 1.194.358 1.57632352-1.5555147 3.3870232-2.8539815 5.366-3.848 2.6355826 1.6533003 6.0324133 1.4395898 8.44-.531 1.2188137 1.1097516 2.8027577 1.7332227 4.451 1.752 1.12.005 3.784-1.522 4.6-.927 2.3105417 1.2822033 5.1415344 1.1774516 7.351-.272.294-.225.48-.374.656-.528 2.4336249 1.9940005 5.8853465 2.1609014 8.5.411 2.0571995 1.0388755 3.9400878 2.3917481 5.581 4.01.257.252 1.566-.29 1.368-.484-1.7674406-1.7540832-3.8199595-3.1952423-6.07-4.262.6274995-.644873 1.117711-1.410297 1.441-2.25 3.4608834 1.2518289 6.3823329 3.6620512 8.269 6.822.586.977.792 1.808-.247 2.59-.948536.448221-1.9769099.7028498-3.025.749-2.6672941.5049808-5.4265301-.0414913-7.7-1.525-.4-.277-1.735.31-1.15.714.3827.2618018.7837347.4957387 1.2.7 1.426 7.256-.219 16.966-5.581 22.62-.357.115-.649.333-.547.54-2.4734387 2.4079198-5.7327055 3.8424375-9.179 4.04-4.3704024.38218-8.6843455-1.1994526-11.772-4.316.051-.186-.109-.3-.338-.351-5.38-5.634-7.272-15.239-5.848-22.691.3798272-.1965432.7471893-.4162925 1.1-.658.806-.558-.422-.828-.914-.488-.4886807.332948-1.0112646.613179-1.559.836h-.016c-.2030574.0098733-.3974414.0853111-.554.215-1.88096366.5730076-3.87656641.6593691-5.8.251-1.864-.342-4.291-.674-3.366-3.128z"/><path id="Shape" d="m29.205 44.158c-.069472.5308605-.4032114.9903559-.8865538 1.2206151s-1.0504377.199912-1.5064462-.0806151c-.7776417-.5300154-1.1961683-1.4483846-1.086-2.383 0-.627-1.452-.332-1.452.17-.1332783 1.1182284.3598507 2.2190246 1.283 2.864.224467.1387275.4662073.2473257.719.323-.1251862 1.0034485.1240456 2.0178219.7 2.849.8058625.9185518 2.0376985 1.3419716 3.238 1.113 1.1024867-.1161619 2.119205-.6483028 2.843-1.488.531266-.7816125.7686247-1.7260879.67-2.666.2434421-.0999491.475992-.2246012.694-.372.9197684-.6654377 1.4151925-1.7706143 1.3-2.9 0-.4-1.448-.146-1.448.388 0 .915-.176 2.073-1.222 2.347-.3733894.093617-.7684051.0417824-1.105-.145l-.034-.016c-.052-.028-.1-.067-.147-.1-.0886285-.0606173-.1728403-.1274521-.252-.2l-.037-.037c-.4549598-.4692442-.7233655-1.088177-.755-1.741 0-.007-.012-.01-.014-.016s-.007-.039-.008-.059c.0441265-.692766.053138-1.3873223.027-2.081 2.0565795-.2114944 3.7044615-1.797091 3.995-3.844-.423-4.258-10.459-3.112-9.356.973.5025863 1.7422314 2.0937415 2.9444557 3.907 2.952 0 .736-.053 1.548.018 2.309-.0131398.1849231-.0371816.3689096-.072.551-.002.024-.009.047-.013.069zm.013 5.214c-1.0240074-.6236241-1.6000761-1.7788712-1.482-2.972.4606368-.0592775.9067903-.20122 1.317-.419.3123001-.1671848.5923371-.388641.827-.654.3148501.4174457.7511253.7272744 1.249.887.3676198.1240099.7541453.1825641 1.142.173-.052 1.703-.677 4.295-3.053 2.985zm-2.4-11.481c-.895-3.378 6.14-3.4 6.459-.2-.1804604 1.5186376-1.3806876 2.7143121-2.9 2.889-.1452752-.0249912-.2940167-.0215953-.438.01-.2082716-.0157514-.413815-.0570616-.612-.123-1.1841319-.4334267-2.1074466-1.3810197-2.51-2.576z"/><path id="Path" d="m20.728 31.921v-2c0-.658-1.456-.377-1.456.158v2c0 .657 1.456.377 1.456-.158z"/><path id="Path" d="m40.732 31.937v-2c0-.726-1.464-.487-1.464.126v2c0 .726 1.464.487 1.464-.126z"/></g></g></svg>