<svg height="512" viewBox="0 0 60 60" width="512" xmlns="http://www.w3.org/2000/svg"><g id="b"><path d="m59 12v36c0 1.66-1.34 3-3 3h-44c-1.66 0-3-1.34-3-3v-12.82c1.16.41 2 1.52 2 2.82 0 1.1.9 2 2 2s2-.9 2-2c0-3.52-2.61-6.44-6-6.92v-13.9c1.16.41 2 1.52 2 2.82 0 1.1.9 2 2 2s2-.9 2-2c0-3.52-2.61-6.44-6-6.92v-1.08c0-1.66 1.34-3 3-3h44c1.66 0 3 1.34 3 3z" fill="#bb69cc"/><path d="m15 20c0 1.1-.9 2-2 2s-2-.9-2-2c0-1.3-.84-2.41-2-2.82-.31-.12-.65-.18-1-.18-1.65 0-3 1.35-3 3 0 1.97 1.93 3.52 4 2.84v4.09c-4.3.6-8-2.74-8-6.93 0-3.86 3.14-7 7-7 .34 0 .67.02 1 .08 3.39.48 6 3.4 6 6.92z" fill="#88abab"/><path d="m15 38c0 1.1-.9 2-2 2s-2-.9-2-2c0-1.3-.84-2.41-2-2.82-.31-.12-.65-.18-1-.18-1.65 0-3 1.35-3 3 0 1.97 1.93 3.52 4 2.84l-.13 4.11c-4.24.51-7.87-2.8-7.87-6.95 0-3.86 3.14-7 7-7 .34 0 .67.02 1 .08 3.39.48 6 3.4 6 6.92z" fill="#88abab"/><rect fill="#ecf0f1" height="16" rx="3" width="24" x="24" y="18"/><path d="m56 51v1c0 1.657-1.343 3-3 3h-38c-1.657 0-3-1.343-3-3v-1z" fill="#df9cef"/></g><g id="c" fill="#232323"><path d="m5.698 30.685c-8.846 2.765-6.466 15.48 2.319 15.225-.001.692-.002 1.516-.002 1.516-.053 1.013.125 2.083.752 2.907.545.764 1.379 1.3 2.292 1.523.012.295.036.592.042.858.268 2.059 2.366 3.51 4.365 3.289 9.556-.122 21.374-.852 30.889-.522l6.178.257c.528.044 1.259.026 1.799-.19 1.586-.428 2.81-2.519 2.516-4.023 1.524-.375 2.722-1.801 2.741-3.386l-.017-2.472-.093-9.797-.082-19.594-.009-2.449.003-1.225c.129-1.363-.406-2.797-1.623-3.507-.743-.502-1.752-.528-2.577-.505l-9.797-.027c-6.531.002-13.062-.082-19.594-.144-4.055-.029-8.184-.098-12.246-.181l-1.224-.022c-2.613-.183-4.199 1.801-4.247 4.193-.822-.037-1.656.054-2.467.306-8.975 2.911-6.186 15.979 2.943 15.16-.05.845-.163 1.687-.328 2.527-.843-.06-1.699.017-2.533.284zm-3.588 5.63c.964-4.265 6.56-6.168 10-3.369 1.611 1.286 2.759 3.519 2.394 5.597-.49 1.519-2.792 1.327-3.07-.224.185-3.922-5.055-5.299-6.738-1.696-1.13 2.438.855 5.105 3.335 5.219-.005.746-.009 1.492-.009 2.238-3.822-.122-6.991-3.954-5.912-7.764zm5.927 3.858c-1.516.136-2.937-1.545-2.27-3.101.37-1.045 1.351-1.563 2.333-1.555-.024 1.552-.047 3.104-.062 4.656zm44.495 14.088c-11.781.764-25.247-.05-37.067-.265-1.245.092-2.159-.483-2.465-1.629-.03-.101-.042-.232-.051-.372.381-.005.754-.012 1.111 0l19.594-.154c1.806-.034 16.872-.129 21.477-.198-.034.295-.02.567-.049.739-.203 1.246-1.252 1.938-2.55 1.878zm-50.442-35.864c.901-4.288 6.503-6.265 9.974-3.487 1.634 1.277 2.783 3.508 2.453 5.599-.261.925-1.443 1.383-2.263.909-1.143-.541-.662-1.913-1.15-2.846-1.153-2.703-5.242-2.707-6.401.035-1.215 2.591 1.096 5.452 3.79 5.225.008.1.02.2.027.3.045.643.071 1.285.08 1.926-4.029.266-7.591-3.673-6.511-7.66zm6.212 3.731c-1.614.376-3.244-1.418-2.53-3.067.528-1.121 1.421-1.596 2.301-1.581-.189 1.548.025 3.099.23 4.648zm1.177 2.003c.13-1.892.562-3.79.518-5.687.425.521.694 1.226.66 2.079.286 1.404 1.917 2.264 3.232 1.695 2.068-.835 1.63-3.468.948-5.127-.866-2.163-2.762-3.745-4.947-4.384-.005-.35-.011-.81-.011-.81.009-.89.622-1.718 1.475-1.995.431-.195 1.704-.088 2.201-.141 4.059-.076 8.193-.158 12.246-.181 6.531-.062 13.062-.146 19.594-.144l9.797-.027c1.494-.186 3.038.495 3.356 2.053.172 3.258-.064 20.797-.028 24.407l-.027 2.867c-.225-.246-.532-.522-.874-.793-.488-.386-1.04-.759-1.497-1.008s-.818-.375-.926-.267c-.118.09-.14.258-.05.376.462.546.976 1.028 1.538 1.444.281.208.574.4.88.575.296.17.604.323.923.461l-.026 2.71c-.056-.062-.116-.125-.18-.19-.325-.327-.739-.681-1.107-.981-.151-.123-.278-.229-.366-.298-.388-.308-.795-.592-1.183-.851-.103-.069-.204-.135-.305-.198-.36-.223-.689-.402-.952-.486-.072-.023-.145-.008-.195.036-.075.066-.103.164-.075.248.024.073.064.148.122.214.584.661 1.232 1.249 1.917 1.786l.07.055c.355.275.721.535 1.099.779.371.24.755.463 1.148.673l-.025 2.644v.062c-.109-.119-.228-.242-.361-.37-.427-.409-.943-.844-1.34-1.172-.203-.169-.357-.303-.43-.366-.45-.386-.939-.725-1.409-1.061-.124-.089-.248-.176-.373-.26-.386-.261-.761-.495-1.114-.667-.084-.041-.184-.029-.252.033-.09.081-.109.214-.046.308.054.081.118.163.19.24.734.782 1.523 1.501 2.351 2.169l.084.068c.428.342.868.67 1.319.982.445.309.904.601 1.371.882-.008.7-.019 1.579-.019 1.578-.01.313-.092.613-.223.889-.102-.102-.21-.205-.323-.311-.843-.784-1.922-1.632-2.066-1.797-.542-.427-1.082-.857-1.635-1.27s-1.12-.81-1.717-1.17c-.096-.058-.223-.049-.31.03-.106.097-.114.261-.017.368.961 1.002 1.976 1.941 3.043 2.818.533.438 1.079.861 1.639 1.267.32.232.653.448.981.67-.393.427-.933.718-1.523.764-.068 0-.188 0-.331 0 .018-.131-.108-.352-.325-.624-.136-.171-.306-.36-.495-.555-.449-.466-.993-.972-1.407-1.351-.184-.168-.324-.303-.396-.374-.449-.443-.957-.825-1.438-1.207-.16-.128-.321-.253-.48-.373-.369-.281-.724-.533-1.058-.719-.096-.053-.202-.046-.275.017-.098.085-.123.225-.055.328.025.038.054.077.085.114.787.919 1.639 1.773 2.538 2.574.463.412.94.809 1.43 1.19.438.341.89.665 1.349.981-.615-.003-1.507-.009-2.575-.018-.028-.047-.045-.086-.079-.138-.106-.158-.241-.335-.397-.521-.351-.421-.793-.893-1.192-1.298-.14-.141-.26-.265-.347-.356-.398-.414-.833-.792-1.241-1.144-.142-.123-.282-.24-.418-.352-.356-.291-.678-.53-.942-.663-.096-.048-.182-.044-.24.003-.091.074-.13.188-.093.288.014.038.034.077.06.112.646.878 1.372 1.685 2.144 2.445.393.385.8.756 1.221 1.113.207.175.428.335.641.503-.705-.006-1.465-.012-2.266-.02-.262-.401-.642-.887-1.064-1.376-.557-.644-1.183-1.291-1.698-1.749s-.919-.728-1.029-.618c-.126.073-.169.234-.096.36.521.825 1.105 1.598 1.75 2.316.322.359.66.704 1.012 1.036l.024.021c-6.078-.055-13.697-.132-14.908-.138l-19.594-.154-1.225.002c-1.449.165-2.787-.429-2.849-1.979-.001-3.895-.018-7.846-.08-11.748.165.178.308.385.418.624.275.49.24 1.037.321 1.579.141.681.59 1.28 1.194 1.614 1.236.722 2.941.063 3.411-1.279.766-3.706-1.993-7.097-5.428-8.12-.469-2.172-.5-4.363-.344-6.566z"/><path d="m23.588 30.322c-.312 2.317 1.518 4.348 3.87 4.161.731.018 2.759.055 3.508.075 3.001.089 10.927.268 14.033.338 2.088.071 3.975-1.751 3.978-3.851.062-3.139.021-6.235-.035-9.366.232-2.62-1.741-4.777-4.401-4.529-4.805.091-12.663.297-17.542.371-1.84-.013-3.47 1.6-3.435 3.442.043 2.746.037 6.654.023 9.36zm.85-9.351c-.011-1.359 1.227-2.548 2.562-2.492l9.356.189c2.141.057 6.085.129 8.186.182 1.82-.105 2.711 1.134 2.515 2.827-.057 3.106-.093 6.246-.038 9.345.052 1.069-.903 2.08-2.018 2.082-4.294.078-12.152.307-16.372.388l-1.169.025c-1.971.245-3.259-1.291-3.046-3.195-.054-2.72.021-6.591.026-9.351z"/><path d="m46 40.44c-6.668-.075-13.335-.146-20-.44-1.38-.031-1.37 2.033 0 2 6.665-.294 13.332-.365 20-.44.734-.007.721-1.115 0-1.12z"/></g></svg>