<?xml version="1.0" encoding="iso-8859-1"?>
<!-- Generator: Adobe Illustrator 19.0.0, SVG Export Plug-In . SVG Version: 6.00 Build 0)  -->
<svg version="1.1" id="Layer_1" xmlns="http://www.w3.org/2000/svg" xmlns:xlink="http://www.w3.org/1999/xlink" x="0px" y="0px"
	 viewBox="0 0 511.996 511.996" style="enable-background:new 0 0 511.996 511.996;" xml:space="preserve">
<g>
	<path style="fill:#FFC60B;" d="M247.143,134.481c-1.831-7.795-5.034-14.605-8.989-21.478c-4.915-8.541-9.295-16.639-16.125-23.924
		c-3.134-3.342-6.663-7.001-10.545-9.475c-3.461-2.206-8.262-3.428-12.093-4.945c-3.55-1.406-6.993-2.303-10.842-2.415
		c-1.974-0.058-3.97,0.263-5.942,0.148c-2.22-0.131-4.769-0.89-7.074-0.955c-10.561-0.3-21.725,4.309-31.526,7.684
		c-9.776,3.367-16.528,7.478-22.429,16.026c-0.537,0.777-1.035,1.584-1.536,2.389c-5.702,4.987-10.506,10.845-15.609,16.459
		c-7.654,8.419-9.42,16.07-10.854,27.131c-1.134,8.748,0.509,16.617,2.274,25.172c2.054,9.955,4.09,18.648,9.342,27.568
		c4.732,8.038,10.694,14.796,18.398,20.073c6.886,4.717,13.952,9.276,21.951,11.747c9.715,3.001,19.558,3.767,29.695,3.947
		c10.008,0.178,18.715-0.125,27.901-4.473c8.116-3.844,15.875-10.559,22.192-16.843c2.911-2.896,6.034-5.637,8.875-8.593
		c3.668-3.818,4.913-7.819,7.323-12.334c1.64-3.072,3.432-5.656,4.452-9.118c1.309-4.443,0.844-8.89,1.575-13.386
		C249.215,154.676,249.534,144.663,247.143,134.481z"/>
	<path style="fill:#FFC60B;" d="M461.401,159.081c-3.481-4.773-8.399-9.038-14.661-9.038c-7.904,0-13.551,6.379-16.183,13.201
		c-1.984,5.143-2.641,10.962-0.702,16.205c2.276,6.158,7.035,12.802,13.592,14.792c2.029,0.616,3.934,0.818,5.711,0.689
		c3.785,0.084,7.552-1.138,10.558-3.975C467.587,183.527,467.511,167.458,461.401,159.081z"/>
</g>
<g>
	<path style="fill:#CC9809;" d="M200.197,182.534c-0.623,0.254-1.242,0.518-1.862,0.778c-0.059-0.072-0.881,0.05-2.523,0.383
		c-2.501,0.33-4.814,1.274-7.28,1.731c-4.182,0.775-8.757,1.799-12.989,1.693c-5.354-0.134-9.752-1.254-14.824-3.048
		c-4.743-1.679-6.899-2.727-11.047-5.957c-7.435-5.787-10.34-16.207-13.226-24.812c-3.535-10.534-5.972-21.892-2.466-32.629
		c0.54-1.655,0.153-3.141-0.71-4.296c4.122-6.722,9.443-12.627,16.663-16.061c5.884-2.798,1.431-10.791-4.141-9.825
		c-8.955,1.553-15.872,4.021-23.484,9.002c-4.432,2.902-5.86,6.084-8.558,10.278c-2.565,3.984-5.358,7.563-7.407,11.893
		c-4.861,10.27-4.442,19.378-3.833,30.408c0.574,10.416-0.455,20.145,2.532,30.293c2.422,8.228,5.635,18.376,12.187,24.273
		c3.335,3.004,7.305,4.262,11.31,6.116c5.275,2.444,10.372,4.532,15.887,6.36c9.367,3.105,17.74,9.009,27.844,9.664
		c11.011,0.714,18.17-4.472,23.069-13.802c1.457-2.774,0.841-5.434-0.933-7.196c7.067-3.415,12.631-8.951,13.764-17.281
		C208.734,186.313,205.367,180.399,200.197,182.534z"/>
	<path style="fill:#CC9809;" d="M455.207,175.628c-1.081-1.122-3.359-2.709-3.934-3.118c-0.544-0.387-2.229-1.763-3.62-2.63
		c1.523-2.632,1.038-6.177-1.106-8.322c-2.346-2.346-5.516-2.313-8.376-1.081c-7.219,3.114-11.2,13.002-7.291,19.999
		c4.033,7.219,12.419,11.47,20.535,9.512C457.847,188.439,459.558,180.143,455.207,175.628z"/>
</g>
<g>
	<path style="fill:#FFE59C;" d="M210.846,103.798c-10.559-10.933-26.154-7.457-38.224-1.505c-7.496,3.696-4.006,16.424,4.303,15.884
		c3.668-0.239,7.278-0.334,10.793,0.893c3.229,1.127,2.612,1.119,3.654,5.554c2.591,11.026-0.687,27.373,11.508,33.646
		c4.996,2.57,11.77,1.472,14.627-3.835C225.067,140.388,221.972,115.318,210.846,103.798z"/>
	<path style="fill:#FFE59C;" d="M457.83,169.609c0.003,0.016,0.007,0.031,0.01,0.047C457.83,169.603,457.828,169.597,457.83,169.609
		z"/>
	<path style="fill:#FFE59C;" d="M458.056,171.904c0.383,1.795-0.216-2.16-0.227-2.295c-0.134-0.761-0.326-1.498-0.524-2.245
		c-0.228-0.854-0.442-1.713-0.632-2.577c-0.056-0.257-0.524-2.854-0.392-1.837c-0.469-3.618-2.771-6.757-6.757-6.757
		c-3.287,0-7.23,3.113-6.757,6.757c0.716,5.519,1.397,12.507,6.811,15.471C454.144,180.924,459.103,176.813,458.056,171.904z"/>
</g>
<g>
	<path style="fill:#D96F6F;" d="M375.358,157.934c-1.012-1.121-2.22-1.925-3.525-2.447c-1.664-2.038-3.723-3.76-6.098-5.093
		c-2.073-1.636-4.573-2.622-7.461-2.695c-9.14-1.799-21.306,0.49-24.27,10.578c-1.071,3.643-1.681,7.493-1.735,11.335
		c-0.468,1.033-0.928,2.041-1.233,2.975c-1.353,4.144-2.286,8.232-2.528,12.602c-0.405,7.308,6.725,11.707,13.131,10.629
		c4.274,2.898,8.624,2.89,12.983,1.649c0.165,0.046,0.32,0.111,0.49,0.148c6.268,1.351,13.636,0.991,17.758-4.641
		c2.013-2.75,3.119-6.228,3.742-9.81c0.615-1.194,1.176-2.423,1.721-3.674C381.704,171.761,381.153,164.347,375.358,157.934z"/>
	<path style="fill:#D96F6F;" d="M112.191,249.092c-0.301-0.059-0.604-0.111-0.907-0.165c-1.409-2.785-3.624-4.663-6.213-5.684
		c-0.305-0.166-0.603-0.339-0.924-0.49c-9.394-4.393-20.765,0.891-23.227,11.17c-1.077,4.495-0.619,9.52,2.109,13.272
		c0.356,2.2,1.037,4.282,2.096,6.092c5.21,8.904,16.872,7.755,23.632,1.603c0.971-0.359,1.9-0.769,2.74-1.232
		c1.982-1.092,3.801-2.592,4.996-4.546c0.723-1.182,1.206-2.491,1.675-3.789c0.168-0.464,0.954-1.94,0.269-0.879
		C121.902,259.08,118.685,250.35,112.191,249.092z"/>
</g>
<g>
	<path style="fill:#BA3838;" d="M348.913,182.676c-6.958-2.705-7.139-13.179-7.174-19.725c-0.012-2.261-3.153-3.168-4.293-1.162
		c-3.613,6.358-7.789,15.116-6.743,22.63c1.28,9.196,8.802,15.875,18.21,13.12C356.693,195.258,355.731,185.326,348.913,182.676z"/>
	<path style="fill:#BA3838;" d="M100.49,265.81c-0.201-0.198-0.316-0.304-0.381-0.36c-0.076-0.11-0.232-0.32-0.539-0.709
		c-0.311-0.393-1.059-1.089-1.322-1.493c-0.494-0.758-0.923-1.747-1.09-2.917c-0.552-3.879,0.882-6.848-2.274-10.099
		c-1.704-1.755-4.077-1.713-6.141-0.793c-5.566,2.481-7.956,11.994-6.555,17.373c0.76,2.919,2.236,5.93,4.379,8.105
		c3.076,3.122,6.7,3.421,10.785,2.786C102.79,276.859,103.983,269.249,100.49,265.81z"/>
</g>
<g>
	<path style="fill:#EAA9A9;" d="M367.961,162.968c-1.497-2.329-3.282-4.006-5.552-5.54c-1.4-0.945-2.894-1.625-3.612-3.231
		c-2.139-4.778-9.964-2.322-9.731,2.636c0.197,4.162,2.381,7.652,4.794,10.92c1.173,1.59,2.153,3.096,3.22,4.75
		c0.613,0.951,1.261,1.891,2.037,2.718c0.396,0.422,2.594,2.968,1.335,1.101c1.645,2.442,5.308,2.713,6.896,0
		c-1.194,0.862-1.102,0.773,0.275-0.266c0.494-0.533,0.904-1.122,1.229-1.767c0.649-1.223,1.056-2.586,1.126-3.967
		C370.112,167.681,369.393,165.196,367.961,162.968z"/>
	<path style="fill:#EAA9A9;" d="M116.389,250.328c-1.596-4.671-5.212-9.095-10.677-8.676c-2.689,0.207-5.105,1.742-5.85,4.453
		c-0.623,2.263,0.295,5.503,2.507,6.685c0.117,0.244,0.227,0.468,0.239,0.493c0.003,0.005,0.004,0.008,0.007,0.013
		c0.01,0.081,0.025,0.177,0.046,0.299c0.098,0.569,0.237,1.168,0.371,1.73c0.623,2.613,2.782,5.38,5.279,6.742
		c0.013,0.012,0.026,0.025,0.039,0.037c1.214,1.142,3.132,1.198,4.345,0c0.799-0.79,2.162-1.946,3.035-3.449
		C117.252,256.029,117.36,253.172,116.389,250.328z"/>
</g>
<path style="fill:#0083CA;" d="M299.419,215.782c-4.574-4.696-9.973-5.641-15.27-4.478c-3.896,0.495-7.65,2.236-11.249,4.261
	c-6.797-1.902-13.045,3.3-17.449,9.871c-0.965,0.772-1.877,1.643-2.706,2.622c-6.034,7.12-6.026,15.28-2.359,21.45
	c0.811,1.871,1.993,3.549,3.556,4.895c3.233,8.742,11.495,14.678,21.361,14.677c12.538-0.001,21.453-8.207,25.991-19.319
	C305.778,238.785,308.646,225.254,299.419,215.782z"/>
<path style="fill:#53B8E5;" d="M302.718,219.021c-5.799-10.043-19.602-9.568-24.429,0.879c-0.875,1.895-1.093,4.841,0.815,6.321
	c1.394,1.08,2.903,2.113,4.645,2.565c0.123,0.031,0.267,0.072,0.421,0.115c0.027,0.111,0.054,0.236,0.073,0.389
	c0.131,1.034,0.36,2.064,0.507,3.098c0.03,0.215,0.202,2.265,0.363,3.828c0.459,4.457,1.628,9.04,5.071,12.156
	c3.811,3.449,9.017,2.463,12.52-0.949C309.474,240.83,306.892,226.249,302.718,219.021z"/>
<path style="fill:#0A5FA5;" d="M278.305,261.733c-0.915-5.822-6.272-6.174-9.454-10.068c-3.389-4.147-3.992-9.867-3.237-14.87
	c0.965-6.382-7.192-8.639-9.626-2.654c-3.322,8.169-4.852,15.418-1.659,23.939c3.097,8.266,10.641,13.73,19.525,11.492
	C277.462,268.666,278.83,265.077,278.305,261.733z"/>
<path style="fill:#845ECC;" d="M491.401,251.839c-1.533-0.89-3.034-1.489-4.493-1.84c-2.853-1.807-6.293-2.843-10.321-2.786
	c-13.133,0.186-22.615,12.191-23.915,24.501c-0.079,0.747-0.11,1.482-0.123,2.212c-2.314,12.454,5.984,23.437,19.406,24.699
	c12.083,1.136,25.193-2.784,29.395-15.386C504.886,272.629,501.632,257.777,491.401,251.839z"/>
<path style="fill:#6232AD;" d="M479.315,292.788c-2.953-6.676-8.524-11.314-11.896-17.695c-2.02-3.82-3.436-12.492-2.273-15.34
	c0.535-1.309-0.591-2.87-1.823-3.212c-10.753-2.976-14.055,14.585-12.76,21.904c2.048,11.587,13.233,25.253,26.274,20.434
	C479.55,297.877,480.461,295.378,479.315,292.788z"/>
<path style="fill:#B5A1E5;" d="M491.288,263.089c-1.221-1.329-2.754-2.332-4.297-3.249c-0.135-0.08-0.457-0.316-0.785-0.541
	c-1.49-2.978-4.544-4.883-8.008-4.363c-3.558,0.535-7.015,3.712-6.725,7.617c0.342,4.594,2.316,7.642,5.474,10.845
	c0.484,0.491,0.958,0.99,1.435,1.486c0.144,0.149,0.805,0.944,1.083,1.233c0.059,0.084,0.11,0.157,0.193,0.271
	c0.541,1.004,1.282,1.81,2.219,2.417c1.199,0.927,2.224,1.512,3.73,1.995c3.377,1.081,6.791-0.769,8.645-3.518
	C497.522,272.432,494.756,266.86,491.288,263.089z"/>
<path style="fill:#C18140;" d="M436.043,76.701c-4.089-7.053-11.391-12.032-18.982-11.215c-1.411-0.086-2.867,0.045-4.356,0.453
	c-3.782,1.039-7.08,3.833-9.542,7.379c-0.018,0.005-0.037,0.007-0.055,0.012c-5.157,1.489-6.9,6.888-6.749,11.73
	c0.204,6.601,3.43,12.882,8.852,15.735c7.967,7.103,23.496,6.672,28.816-2.882c1.307-1.387,2.406-2.992,3.225-4.919
	C439.547,87.593,438.977,81.761,436.043,76.701z"/>
<path style="fill:#9E6226;" d="M425.41,100.416c-1.624-2.366-3.635-4.605-5.614-6.671c-2.349-2.451-5.687-4.637-7.438-7.583
	c2.013,3.388-0.823-1.338-1.318-2.197c-0.098-0.17-0.632-1.254-0.845-1.649c-0.155-0.519-0.351-1.024-0.587-1.512
	c-0.3-1.47-1.11-2.782-2.643-3.434c-5.073-2.156-10.63,0.793-10.879,6.677c-0.135,3.196,0.761,6.731,1.811,9.747
	c1.813,5.207,6.352,10.192,10.848,13.292c4.895,3.376,13.368,3.658,16.667-2.176C426.153,103.598,426.302,101.717,425.41,100.416z"
	/>
<path style="fill:#D4A375;" d="M428.976,71.7c1.388,1.111-0.334-0.32-0.592-0.537c-0.413-0.396-0.858-0.752-1.322-1.088
	c-3.063-2.902-7.085-4.385-10.947-1.957c-3.617,2.274-3.367,6.848-0.49,9.198c0.199,0.422,0.384,0.849,0.579,1.274
	c0.92,2,2.477,3.219,4.249,4.448c1.906,1.322,3.938,2.36,6.342,2.328c3.608-0.05,6.68-2.906,6.688-6.574
	C433.488,75.469,431.309,73.567,428.976,71.7z"/>
<path style="fill:#E5E0AC;" d="M39.716,244.494c-0.001-1.106-0.118-2.198-0.334-3.257c0.013-3.675-1.173-7.251-4.12-10.242
	c-2.279-2.312-5.251-3.744-8.342-4.128c-4.683-2.031-10.046-1.94-14.141,1.785c-5.519,5.018-7.819,15.532-5.947,22.594
	c2.945,11.111,16.689,15.79,24.913,7.157C36.291,255.436,39.722,249.753,39.716,244.494z"/>
<path style="fill:#BFB975;" d="M30.061,249.098c-0.062-1.145-0.668-2.204-1.742-2.94c0.537-0.332,0.199-0.668-1.012-1.008
	c-0.869-0.505-1.806-0.76-2.807-0.777c-1.097-0.256-2.194-0.249-3.29,0.034c-0.016-0.037-0.038-0.071-0.054-0.109
	c-0.063-0.118-0.104-0.194-0.147-0.274c-0.123-0.554-0.166-0.632-0.127-0.229c-0.004-0.007-0.017-0.03-0.02-0.034
	c-0.51-2.083-0.801-3.639-2.828-4.873c-1.318-0.802-2.651-0.966-4.152-0.642c-4,0.862-5.221,5.549-5.164,9.112
	c0.063,3.904,2.48,7.757,5.647,9.924c3.241,2.216,7.198,2.354,10.631,0.435c2.086-1.166,3.376-2.613,4.366-4.729
	c-0.033,0.144,0.156-0.303,0.575-1.368C30.15,250.856,30.215,249.922,30.061,249.098z"/>
<path style="fill:#E5E4D3;" d="M39.087,236.241c-0.007-0.021,0,0.063,0.013,0.19c-0.21-1.216-0.731-2.278-1.647-2.988
	c-0.287-0.299-0.595-0.571-0.932-0.811c-0.101-0.232-0.215-0.463-0.347-0.689c-0.848-1.449-2.51-2.832-4.177-3.211
	c-1.789-0.408-3.797-0.32-5.385,0.704c-1.422,0.916-2.951,2.423-3.211,4.177c-0.27,1.828-0.506,3.436,0.021,5.257
	c0.57,1.975,1.877,3.864,3.677,4.904c2.881,1.664,6.076,1.531,8.946-0.06C38.517,242.343,39.952,238.968,39.087,236.241z"/>
<path style="fill:#B3B3B3;" d="M311.241,435.406c-0.569-3.637-1.018-7.937-2.368-11.935c0.62-7.725-2.221-15.614-8.916-20.119
	c-7.33-4.933-15.626-5.139-23.548-1.549c-0.612,0.277-1.126,0.668-1.563,1.126c-9.68-4.373-20.453-5.456-30.663-8.204
	c-9.39-2.527-19.06-4.586-28.418-5.763c-7.282-0.915-14.579-1.309-21.87-0.76c-0.207-1.831-0.379-3.632-0.463-5.377
	c-0.522-10.736-0.244-21.524-0.633-32.27c-0.394-10.884-0.617-21.794-1.203-32.67c-0.012-0.216-0.035-0.425-0.048-0.64
	c0.01-2.712,0.005-5.423-0.024-8.131c-0.079-7.175-0.519-14.192-0.995-21.246c0.508-3.941,0.883-7.911,1.068-11.933
	c0.33-7.153-0.062-14.334-0.08-21.492c-0.013-5.196,0.026-10.62-2.937-15.108c-3.516-5.326-9.223-4.715-12.516-1.532
	c-5.13-0.356-10.511,4.005-9.494,10.939c1.28,8.726,1.488,17.639,1.993,26.492c-0.999,0.969-1.507,2.347-1.086,4.012
	c0.326,10.047,0.119,20.096-0.177,30.148c-0.713,4.368-0.565,9.036-0.404,13.601c-0.122,4.405-0.202,8.811-0.239,13.217
	c-0.233,3.497-0.447,6.997-0.637,10.507c-0.869,16.106-0.191,32.252-0.076,48.399c-0.232,0.14-0.464,0.282-0.691,0.43
	c-1.387,0.073-2.721,0.446-4.536,0.775c-1.636,0.297,1.848-0.37,1.944-0.759c0.039-0.159-3.615,0.072-3.793,0.058
	c-3.118-0.252-5.905-1.429-9.187-1.305c-3.131,0.117-6.448,0.617-9.474,1.436c-6.675,1.807-12.532,5.072-19.445,6.143
	c-5.888,0.912-11.216,2.242-16.914,4.042c-1.358,0.429-2.815,0.831-4.077,1.502c-0.336,0.178-0.552,0.317-0.7,0.43
	c-0.299-0.048-0.744-0.088-1.443-0.1c-3.314-0.055-6.617,0.419-9.867,1.037c-12.693,2.411-22.26,7.702-32.122,15.319
	c-8.922,5.114-9.238,14.276-3.806,23.847c5.752,10.133,15.055,11.834,25.863,11.718c9.258-0.1,17.817,0.434,26.744,1.992
	c2.278,0.748,4.533,1.565,6.844,2.493c9.398,3.773,19.657,4.915,29.538,6.975c9.74,2.031,19.855,1.384,29.614,2.932
	c11.592,1.839,22.095-0.439,33.541-2.008c9.811-1.343,20.555-2.064,30.083-4.713c3.155-0.877,6.354-1.324,9.565-1.632
	c5.161,3.135,10.998,4.803,17.115,4.819c5.603,0.014,13.743-1.643,18.361-5.886c2.223,0.081,4.442,0.022,6.571-0.239
	c4.584-0.561,9.994-0.71,14.412-1.982c5.432-1.564,9.975-5.785,11.745-11.182C313.499,446.172,312.044,440.547,311.241,435.406z"/>
<g>
	<path style="fill:#999999;" d="M184.202,348.84c-1.186-11.755-1.296-23.655-0.11-35.458c1.275-12.689-0.266-25.087-0.423-37.764
		c-0.083-6.605-0.11-13.228-0.291-19.83c-0.178-6.529-1.464-10.621-4.712-16.137c-2.491-4.232-10.124-3.86-11.129,1.455
		c-1.038,5.491-0.316,11.327-0.548,16.934c-0.278,6.681-0.229,13.402-0.33,20.088c-0.182,12.069,1.193,23.887,0.054,35.97
		c-1.089,11.542-1.072,23.34,0.322,34.821c0.742,6.11,0.448,11.918-0.009,17.998c-0.415,5.517,0.457,11.951,1.472,17.416
		c1.4,7.545,13.596,7.403,15.106,0c1.202-5.895-0.143-11.499,0.329-17.307C184.428,360.929,184.82,354.968,184.202,348.84z"/>
	<path style="fill:#999999;" d="M247.695,442.224c-2.43-0.123-4.929-0.461-7.441-0.872c-0.906-0.798-2.018-1.465-3.358-1.937
		c-5.786-2.037-11.257-1.566-17.013-0.79c-2.655-0.142-5.314-0.227-7.976-0.312c-12.804-0.408-25.173-1.425-37.961-0.026
		c-8.061,0.882-16.231,1.595-24.39,1.946c-5.144-0.954-10.364-1.769-15.612-2.453c0.256-0.089,0.512-0.178,0.767-0.267
		c8.208-2.895,16.477-5.915,23.921-10.41c7.043-4.253,15.802-8.544,19.957-15.981c2.617-4.685-0.697-10.392-6.034-10.515
		c-1.332-0.031-2.655,0.075-3.972,0.27c1.451-3.25-0.042-6.683-3.698-8.169c-10.149-4.122-22.833-0.79-32.733,2.446
		c-5.147,1.681-9.954,3.027-15.317,3.869c-4.698,0.738-8.878,2.649-13.353,4.096c-4.816,1.557-10.385,2.151-14.918,4.182
		c-3.565,1.598-6.604,4.131-10.01,5.767c-4.562,2.191-9.306,2.638-13.281,6.203c-2.169,1.945-3.604,4.151-4.844,6.485
		c-4.432,1.364-7.917,5.069-7.562,10.891c0.32,5.244,2.913,10.441,7.418,12.85c9.491,8.512,23.007,10.627,36.064,11.188
		c11.125,0.478,22.544,1.739,33.728,3.52c0.446,0.202,0.916,0.375,1.432,0.476c15.136,2.961,28.827,12.731,44.769,10.882
		c5.379-0.624,14.127-2.767,20.884-6.708c6.874-0.666,14.098-1.508,20.56-3.447c5.099-1.529,12.427-3.764,17.859-7.135
		c5.388-1.579,9.508-4.152,14.477-7.313C254.05,448.415,252.351,442.459,247.695,442.224z"/>
</g>
<path style="fill:#808080;" d="M121.15,409.411c-2.414-6.82-12.163-4.06-17.475-2.877c-10.954,2.44-20.237,7.9-29.687,13.703
	c-7.238,4.444-0.773,15.577,6.667,11.405c7.118-3.993,13.977-7.991,21.947-10.026c5.303-1.355,13.273-2.164,17.049-6.529
	C120.96,413.57,121.867,411.438,121.15,409.411z"/>
<g>
	<path style="fill:#CCCCCC;" d="M268.975,411.648c-3.152-3.937-5.905-8.628-10.33-11.275c-5.073-3.035-12.711-4.933-18.425-6.373
		c-12.056-3.039-24.189,1.034-36.211,1.543c-9.665,0.409-9.924,14.895-0.482,15.338c-2.49,3.601-0.9,9.807,4.852,9.92
		c6.206,0.122,12.905-0.51,18.998,0.815c5.402,1.176,10.823,3.489,15.699,6.012c6.829,3.533,15.163,8.529,22.849,4.591
		c1.857-0.951,2.067-3.671,0.653-5.065c-4.134-4.078-8.639-7.537-13.597-10.359c4.272,1.257,8.566,1.469,13.065,1.933
		C270.034,419.138,270.946,414.11,268.975,411.648z"/>
	<path style="fill:#CCCCCC;" d="M281.567,427.663c-2.363,0.874-4.573,2.06-6.967,2.858c-2.233,0.744-5.369,2.498-7.681,2.619
		c-10.908,0.57-11.036,16.79,0,17.048c5.398,0.127,11.638-2.025,16.732-3.764c5.726-1.954,13.015-5.515,12.583-12.648
		C295.756,425.94,287.31,425.54,281.567,427.663z"/>
</g>
<path d="M388.225,117.202c5.573-1.571,11.123-3.881,16.592-6.363c4.827,1.89,10.161,2.582,15.22,1.835
	c7.801-1.152,16.473-4.266,21.157-11.013c1.432-2.064,2.314-4.272,2.845-6.563c7.74-3.421,14.474-8.074,17.453-15.927
	c2.014-5.312,1.312-11.73-4.949-13.444c-4.368-1.197-9.806,0.767-14.292,3.506c-1.533-3.56-4.023-6.574-8.021-8.475
	c-5.312-2.528-9.717-1.254-14.085,1.06c-4.759-1.873-13.403,2.358-16.612,4.168c-4.047,2.284-8.835,5.037-11.863,8.656
	c-3.565,4.262-3.857,10.939-3.303,16.207c0.047,0.452,0.11,0.898,0.184,1.338c-8.823,0.353-20.033,12.504-16.587,20.943
	C374.537,119.426,382.915,118.7,388.225,117.202z M448.649,74.877c2.709-1.067,6.673-3.515,6.168,1.065
	c-0.202,1.82-1.767,4.158-2.858,5.558c-1.919,2.46-4.41,4.337-7.204,5.869c-0.018-2.468-0.189-4.955-0.311-7.398
	c-0.058-1.151-0.159-2.295-0.304-3.427C445.724,76.052,447.265,75.422,448.649,74.877z M399.16,76.54
	c1.241-1.182,7.801-6.614,13.452-9.827c-0.33,1.073,0.638,2.39,1.992,2.103c3.242-0.685,6.715,0.44,10.014-0.001
	c2.726-0.366,3.983-1.265,6.626,0.826c4.771,3.772,4.035,11.608,4.128,17.077c0.029,1.701-0.106,3.231-0.393,4.624
	c-5.116,1.622-10.367,2.915-14.733,4.756c-4.583,1.933-9.128,3.946-13.698,5.908c-0.57-0.282-1.138-0.586-1.697-0.941
	C397.09,96.141,391.473,83.863,399.16,76.54z M379.949,107.89c0.688-1.748,2.081-3.401,3.295-4.776
	c1.913-2.17,4.19-4.485,6.698-6.114c1.508,3.626,3.937,6.728,6.941,9.209c-4.912,2.43-11.34,5.883-15.732,4.542
	C378.827,110.042,378.986,110.335,379.949,107.89z"/>
<path d="M87.567,242.351c-0.064,0.022-0.125,0.058-0.19,0.077c-0.32,0.097-0.575,0.28-0.781,0.503
	c-3.042,1.906-5.839,4.469-7.998,6.752c-4.212,4.453-4.793,10.436-3.89,16.276c1.048,6.78,4.976,12.606,11.259,15.595
	c6.782,3.225,15.306,1.068,22.293-0.393c6.22-1.3,12.319-5.178,15.099-11.014c3.324-6.979,0.974-13.971-2.505-20.334
	c-3.426-6.266-8.981-10.972-15.902-13.047c-2.778-0.832-5.795-1.195-8.579-0.195c-2.552,0.916-4.532,3.255-6.79,4.761
	C88.905,241.63,88.231,241.973,87.567,242.351z M94.216,246.335c5.082-1.608,7.514-2.581,12.45,0.248
	c8.871,5.082,15.019,19.828,3.541,25.548c-3.984,1.986-9.343,2.476-13.682,3.122c-6.464,0.963-12.322-2.165-14.195-8.677
	c-1.286-4.473-0.913-8.82,1.708-12.693c1.519-2.242,3.341-5.08,5.579-7.132C91.091,247.045,92.548,246.862,94.216,246.335z"/>
<path d="M503.089,251.567c-5.274-6.976-12.705-8.569-20.976-9.738c-4.404-0.623-8.739-0.432-13.019,0.823
	c-4.566,1.338-8.96,5.413-13.643,5.815c-1.596,0.138-2.2,2.448-0.637,3.026c-1.97,0.891-3.828,2.135-5.506,4.033
	c-4.354,4.928-6.228,12.465-6.502,18.901c-0.646,15.146,9.727,27.661,23.779,31.856c2.944,0.879,6.084,1.332,9.28,1.411
	c-4.102,6.362-12.593,11.794-17.977,14.956c-5.291,3.107-10.711,5.342-16.26,7.891c-6.01,2.76-11.471,6.107-17.87,7.996
	c-11.689,3.452-23.624,5.608-35.592,7.785c-7.031,1.279-13.838,3.346-21.015,3.709c-6.477,0.328-12.992-0.13-19.472-0.166
	c-13.532-0.075-27.067,0.041-40.598,0.127c-12.433,0.079-24.843,1.208-37.094-1.436c-11.283-2.435-22.821-4.54-34.277-6
	c-4.367-0.557-8.713-0.72-13.047-1.153c1.168-0.152,2.27-0.3,3.25-0.417c10.878-1.297,22.568-1.127,33.192-3.781
	c22.332-5.579,45.001-10.829,66.97-17.566c21.154-6.487,41.402-14.583,61.111-24.513c7.993-4.027,15.419-10.364,22.07-16.374
	c7.031-6.355,12.254-14.386,18.712-21.18c14.443-15.192,30.386-34.142,31.933-56.013c0.058-0.235,0.097-0.482,0.097-0.756
	l0.001-0.931c0-0.012-0.003-0.022-0.003-0.034c2.702-0.9,5.202-2.249,7.262-4.21c5.968-5.68,6.337-13.622,6.33-21.357
	c-0.007-7.455-0.046-16.573-5.616-22.318c-4.356-4.491-9.057-4.544-14.024-3.544c-6.791-2.381-11.648-1.472-18.003,3.242
	c-6.034,4.476-11.45,9.204-13.23,16.849c-2.038,8.756,2.904,14.631,7.258,21.623c3.557,5.71,6.489,9.909,13.581,10.821
	c3.313,0.427,6.964,0.566,10.534,0.161c-1.312,19.864-15.842,35.25-27.91,49.677c-2.66,3.181-6.013,5.726-8.481,9.043
	c-2.776,3.73-5.519,7.022-8.579,10.537c-3.138,3.603-6.586,6.344-10.369,9.255c-3.152,2.425-5.767,5.596-9.036,7.845
	c-7.552,5.194-16.954,8.503-25.272,12.342c-9.92,4.578-20.302,8.262-30.684,11.638c-16.013,5.206-32.253,9.626-48.629,13.571
	c19.082-6.928,37.78-16.584,53.597-29.017c16.495-12.965,32.884-28.105,43.189-46.57c5.292-9.482,11.92-18.518,16.387-28.417
	c4.421-9.791,5.452-21.281,8.268-31.641c3.609-13.279,6.308-26.723,8.588-40.288c1.081-6.434,3.013-12.938,3.743-19.399
	c0.377-3.347-1.59-9.561,0.602-12.33c1.92-2.427-1.104-5.691-3.476-3.476c-1.865,1.742-2.489,3.768-2.677,6.271
	c-0.36,4.788,0.253,8.87-0.743,13.677c-2.349,11.338-3.79,22.843-6.076,34.195c-2.397,11.904-6.05,23.496-8.477,35.382
	c-1.092,5.346-1.74,10.477-3.94,15.522c-2.204,5.056-5.198,9.702-8.112,14.369c-5.5,8.806-10.393,17.904-16.176,26.502
	c-2.999,4.459-7.622,7.804-11.135,11.863c-3.634,4.202-7.156,8.05-11.49,11.551c-8.475,6.845-16.636,14.512-26.129,19.967
	c5.195-4.612,10.433-9.184,15.372-14.07c8.282-8.192,13.731-16.902,18.677-27.449c4.992-10.643,9.22-21.276,11.511-32.84
	c1.046-5.279,2.303-10.609,2.858-15.967c0.273-2.637-0.248-5.396,0.06-7.971c0.239-1.999,0.826-2.725,0.933-4.17
	c0.861-0.494,1.718-1.008,2.566-1.548c13.399-8.521,15.994-28.088,10.15-42.072c-3.829-9.161-9.821-13.283-18.404-17.406
	c-3.962-1.903-8.101-3.339-12.566-2.636c-4.829,0.761-8.014,4.299-11.8,7.092c-0.427,0.315-0.708,0.793-0.837,1.299
	c-6.764,3.456-12.285,9.507-14.673,16.745c-4.144,12.557-3.595,31.075,8.165,39.21c9.895,6.845,20.373,6.676,30.352,2.739
	c-0.033,0.824,0.034,1.667,0.021,2.427c-0.104,5.875-1.027,11.319-2.152,17.096c-2.161,11.098-5.358,21.164-9.972,31.496
	c-4.629,10.365-9.541,19.965-17.622,28.071c-6.385,6.403-13.22,12.492-20.062,18.362c-4.058,3.481-7.561,6.727-12.334,9.329
	c-3.763,2.051-7.776,3.397-11.677,5.136c-10.135,4.52-21.066,7.818-31.704,11.002c-5.497,1.645-10.988,2.965-16.49,4.018
	c-4.961,0.333-9.942,0.093-14.926,0.286c-0.274,0.01-0.537,0.033-0.807,0.047c8.935-2.349,16.893-6.527,24.297-12.314
	c4.899-3.829,9.178-8.317,14.045-12.191c4.048-3.221,5.445-7.325,7.578-11.895c2.345-5.023,3.995-10.416,6.457-15.356
	c0.933-1.873,1.892-3.546,2.641-5.263c7.017-1.089,13.781-3.95,18.863-8.006c12.557-10.021,17.59-30.431,10.479-45.114
	c-4.085-8.435-26.331-27.865-33.784-14.884c-2.434,0.059-4.862,0.522-7.215,1.491c-7.569,3.12-14.909,9.216-20.112,15.463
	c-5.207,6.251-5.978,13.471-4.579,21.339c1.345,7.563,4.79,18.453,10.731,23.597c5.067,4.386,11.637,6.401,18.421,6.582
	c-0.98,1.999-2.089,3.966-2.836,6.005c-1.457,3.978-2.85,7.953-4.409,11.895c-1.114,2.816-1.93,6.35-3.991,8.679
	c-1.516,1.714-3.786,2.907-5.529,4.423c-3.97,3.453-7.244,7.457-11.479,10.637c-8.165,6.13-16.85,9.745-26.829,11.72
	c-6.473,1.28-12.933,1.765-19.369,2.885c-0.004-0.828-0.017-1.655-0.013-2.485c0.039-7.789,0.169-15.296-0.928-23.012
	c-1.134-7.97,0.121-15.646,0.09-23.624c-0.028-7.102-1.906-13.962-1.997-21.073c-0.102-7.909-2.085-16.018-1.78-23.843
	c1.263-0.38,2.502-0.784,3.696-1.228c8.9-3.316,17.796-7.389,25.799-12.519c4.139-2.653,7.609-5.742,11.274-8.976
	c3.38-2.984,7.666-4.507,10.249-8.397c2.235-3.366,3.269-7.546,4.961-11.198c2.169-4.681,4.373-9.361,6.141-14.212
	c3.506-9.616,3.942-19.21,3.448-29.342c-0.208-4.279-0.005-8.848-0.904-13.051c-0.944-4.41-3.531-8.371-4.791-12.719
	c-2.722-9.384-6.9-18.782-12.444-26.884c-2.789-4.076-6.297-7.464-9.479-11.188c-3.725-4.362-7.815-5.436-12.5-8.491
	c-9.219-6.013-17.86-10.397-28.833-12.487c-5.591-1.064-11.275-1.214-16.883-2.233c-4.366-0.794-9.169-1.2-13.576-0.514
	c-2.135,0.333-3.801,1.463-5.812,1.974c-2.889,0.735-5.886,0.012-8.756,1.123c-1.575,0.609-2.646,1.545-3.857,2.658
	c-2.296,2.109-4.021,3.448-6.768,4.989c-1.22,0.684-1.605,1.944-1.419,3.123c-6.942,3.674-13.564,9.014-19.252,14.115
	c-6.652,5.966-12.116,14.373-17.495,21.491c-5.832,7.717-8.494,15.587-9.985,25.056c-1.641,10.424-2.985,20.735-0.181,31.095
	c2.44,9.015,6.3,18.929,11.554,26.675c10.744,15.838,27.973,26.852,43.89,36.721c6.384,3.958,14.268,6.22,22.485,7.086
	c-0.679,2.704-1.245,5.424-1.328,8.511c-0.206,7.717,0.201,15.549-1.143,23.174c-2.352,13.365-2.28,26.433-2.459,40
	c-0.092,6.926-0.448,13.98-0.668,21.035c-5.941-0.932-12.011-1.03-17.918-2.657c-7.115-1.958-14.095-4.47-20.913-7.291
	c-7.147-2.957-9.89-9.23-15.158-14.464c-5.814-5.774-10.579-13.684-11.314-22.045c-0.3-3.41-5.638-3.468-5.376,0
	c0.544,7.182,3.482,14.65,7.777,20.404c3.204,4.293,7.417,7.516,10.359,11.994c1.9,2.892,3.503,5.082,6.583,6.87
	c4.898,2.843,10.634,4.916,16.28,6.684c-4.144-0.043-8.289-0.058-12.437-0.06c-7.655-0.005-15.225,0.191-22.787-1.218
	c-6.672-1.244-13.162-3.341-19.606-5.434c-7.038-2.286-12.579-5.161-18.224-9.917c-1.853-1.561-3.878-2.309-5.87-3.617
	c-2.889-1.896-4.557-4.685-6.706-7.344c-4.127-5.106-6.896-9.856-9.599-15.817c-3.012-6.642-6.149-12.47-7.082-19.605
	c2.151-0.063,4.279-0.481,6.32-1.341c6.291-2.65,10.013-8.384,12.423-14.521c2.907-7.406,2.719-13.093-0.236-20.415
	c-2.292-5.68-5.502-8.877-11.242-11.035c-6.787-2.552-10.515-1.355-16.226,2.244c-0.775-0.236-1.611-0.18-2.383,0.259
	c-9.098,5.177-20.005,16.355-14.692,27.564c3.584,7.562,11.942,14.723,20.757,16.712c0.527,5.978,2.219,11.496,4.858,16.98
	c2.937,6.102,5.131,12.848,9.337,18.217c3.743,4.78,7.202,10.419,12.437,13.622c5.84,3.573,10.688,8.057,17.166,10.753
	c13.467,5.604,28.257,9.293,42.86,9.365c13.173,0.066,26.462-0.042,39.65-0.78c3.609,0.426,7.244,0.468,10.862-0.021
	c-0.138,6.441-0.104,12.866,0.438,19.174c0.553,6.452,1.819,12.578,1.503,19.102c-0.166,3.443-0.453,6.886-0.651,10.331
	c-1.751-0.071-3.554-0.414-5.272-0.287c-3.166,0.236-6.196,1.237-9.196,2.207c-6.891,2.227-13.596,5.126-20.66,6.774
	c-7.236,1.688-14.853,2.552-22.265,3.021c-7.342,0.464-14.144,1.831-21.332,3.383c-12.585,2.717-24.463,7.407-33.67,16.803
	c-8.023,8.188-7.566,19.158-5.912,29.85c2.092,13.519,13.241,14.865,24.5,18.085c7.153,2.047,14.167,4.367,21.225,6.708
	c7.139,2.368,14.06,2.149,21.209,3.848c6.949,1.651,13.798,3.49,20.904,4.385c8.22,1.035,16.483,0.675,24.696,1.948
	c14.46,2.241,29.125,0.957,43.693,0.541c8.755-0.249,17.45-2.16,26.183-2.055c3.917,0.047,7.836,0.516,11.756,0.25
	c4.477-0.303,8.765-1.878,13.229-2.106c3.654-0.186,7.221,0.431,10.879-0.048c3.628-0.476,7.071-1.68,10.65-2.38
	c0.094-0.018,0.187-0.035,0.282-0.054c5.196-0.645,10.451-2.169,15.623-2.862c5.637-0.755,11.014-2.396,16.661-2.959
	c4.843-0.482,9.351-1.417,12.836-5.133c6.453-6.882,3.807-19.37,3.861-27.914c0.059-9.407,0.891-19.833-3.688-28.437
	c-4.896-9.202-14.768-12.969-24.331-15.425c-11.26-2.891-22.825-6.147-34.399-7.322c-6.284-0.638-12.66-1.455-18.957-1.847
	c-5.027-0.313-10.987,1.329-15.602-0.187c-4.608-1.514-8.153-1.385-12.962-0.54c-3.461,0.608-7.236-0.06-10.758,0.174
	c0.463-3.987,1.024-7.953,0.887-12.019c-0.384-11.52-1.223-22.969-1.505-34.48c0.747,0.393,1.518,0.751,2.322,1.045
	c-0.111,0.35-0.088,0.725,0.136,1.038c-0.269,0.751,0.144,1.805,1.198,1.906c5.009,0.478,10.094,2.448,15.009,3.544
	c4.373,0.976,8.572,1.233,12.992,1.925c10.043,1.571,20.029,3.58,30.012,5.367c9.57,1.712,18.234,3.906,28.04,3.913
	c11.141,0.009,22.28-0.117,33.422-0.06c10.884,0.055,21.775-0.077,32.657,0.181c10.988,0.261,20.472-0.916,31.206-3.118
	c10.346-2.121,20.761-3.645,31.024-6.208c10.09-2.52,18.174-6.465,27.533-10.761c9.242-4.242,17.689-8.449,25.408-15.186
	c4.202-3.667,9.555-7.926,11.981-13.294c10.582-1.377,20.887-6.85,26.193-15.918C515.559,279.047,511.214,262.315,503.089,251.567z
	 M443.305,192.525c-4.157-1.052-5.869-5.594-8.152-8.869c-3.613-5.182-6.887-9.713-4.122-16.222
	c3.068-7.225,9.89-10.968,16.857-13.851c3.941,0.729,9.745,1.389,12.861,3.497c4.668,3.157,4.084,11.397,4.075,16.301
	c-0.009,5.06,0.49,11.267-3.147,15.313C457.89,192.904,448.61,193.869,443.305,192.525z M337.215,194.326
	c-6.503-4.646-6.584-12.996-6.31-20.307c0.528-14.095,8.154-21.662,19.407-26.513c3.401-0.491,6.802-0.839,10.523,0.885
	c7.532,3.486,12.819,7.283,14.98,15.895c1.735,6.908,1.541,17.594-2.993,23.44c-3.763,4.849-11.582,8.443-17.31,10.399
	C349.634,200.131,342.098,197.816,337.215,194.326z M258.132,256.108c-2.778-6.305-5.989-13.635-5.119-20.691
	c0.847-6.873,8.529-12.549,13.806-16.216c6.878-4.781,14.671-7.068,22.883-4.227c0.384,0.134,0.743,0.147,1.072,0.088
	c1.548,1.177,2.877,2.329,3.725,3.038c5.776,4.822,8.591,9.17,8.782,16.981c0.366,14.923-8.14,27.318-23.251,29.729
	c-1.066-0.421-2.322-0.298-3.221,0.375C269.198,265.672,261.428,263.59,258.132,256.108z M8.592,246.791
	c-1.443-6.713,6.649-11.694,10.561-16.836c2.026,0.144,3.899,0.029,6.042-0.637c0.182-0.056,0.315-0.157,0.421-0.275
	c4.04-0.511,9.107,1.206,11.28,4.809c4.704,7.803,2.717,21.804-6.498,25.681C23.157,262.579,10.24,254.46,8.592,246.791z
	 M192.188,333.742c0.223,0.055,0.451,0.096,0.675,0.145c-0.042,3.359-0.122,6.718-0.204,10.07
	c-0.279,11.321,0.727,23.496-1.701,34.576c-1.155,5.265-1.489,10.385-1.962,15.737c-0.465,5.27-3.39,3.764-7.887,4.569
	c-2.101,0.376-8.026,3.321-9.49,2.195c-1.153-0.887-0.835-6.6-0.868-7.786c-0.092-3.282,0.054-6.562,0.231-9.838
	c0.266-4.928,0.827-9.912,0.566-14.85c-0.309-5.829-1.813-11.504-2.075-17.341c-0.574-12.799-0.342-25.69-0.511-38.502
	c-0.183-13.943-1.271-27.57,0.19-41.442c0.714-6.778,0.342-13.633,0.219-20.434c-0.066-3.575,0.402-7.162,0.674-10.736
	c5.286,0.193,10.601-0.18,15.671-1.025c0.29,4.936,1.681,9.668,2.033,14.64c0.414,5.865,0.252,11.658,1.311,17.474
	c1.993,10.954,0.518,21.809,2.194,32.728c1.447,9.424,1.705,18.972,1.62,28.521c-0.228,0.059-0.456,0.105-0.683,0.168
	C191.638,332.757,191.617,333.602,192.188,333.742z M161.328,224.503c-15.787-2.714-28.302-15.196-40.446-24.748
	c-12.439-9.783-22.309-27.369-22.972-43.4c-0.383-9.243,0.537-21.499,4.59-29.92c3.48-7.23,9.23-13.15,13.786-19.698
	c10.815-15.542,29.224-27.704,48.232-29.231c1.469-0.118,2.229-1.14,2.305-2.212c4.186,0.372,8.268,1.408,12.984,2.03
	c8.085,1.065,16.555,2.563,23.956,6.219c3.158,1.56,5.865,3.747,8.761,5.719c3.507,2.388,7.419,3.449,10.211,6.612
	c5.123,5.802,9.53,11.095,13.028,18.061c3.967,7.9,6.411,16.199,9.578,24.403c2.558,6.628,1.915,15.585,1.723,22.626
	c-0.231,8.496-3.009,16.301-6.662,23.905c-1.752,3.649-3.354,7.57-5.274,11.116c-1.637,3.023-4.065,3.718-6.785,5.752
	c-7.056,5.279-12.997,10.31-21.01,14.308C192.723,223.334,177.741,227.324,161.328,224.503z M307.293,426.016
	c0.066,2.291,0.012,4.55,0.028,6.611c0.038,5.038-0.076,10.101,0.139,15.133c0.143,3.356,1.642,7.697-1.873,9.453
	c-1.641,0.819-4.356,0.49-6.179,0.854c-2.554,0.511-4.848,1.489-7.284,2.373c-1.721,0.625-3.469,1.126-5.227,1.595
	c-1.4-0.992-3.225-1.238-4.949,0.007c-3.794,2.742-8.648,1.86-13.064,2.08c-2.989,0.149-5.732,0.919-8.66,1.457
	c-3.557,0.654-6.957-0.001-10.529,0.14c-6.082,0.24-11.772,2.284-17.906,2.165c-7.33-0.143-14.043,0.223-21.339,1.003
	c-12.977,1.389-26.47,1.574-39.524,1.646c-6.051,0.033-11.791-0.869-17.765-1.633c-6.837-0.875-13.706-0.62-20.541-1.33
	c-6.799-0.708-13.41-2.6-20.028-4.212c-6.356-1.548-12.696-1.151-18.959-3.086c-5.987-1.85-11.859-4.017-17.868-5.812
	c-2.987-0.892-5.968-1.801-8.975-2.626c-2.881-0.792-7.148-0.967-9.658-2.642c-3.11-2.075-2.689-7.115-2.868-10.465
	c-0.287-5.41-0.406-9.365,3.672-13.27c0.681-0.653,1.376-1.258,2.079-1.844c17.913,9.707,38.824,12.85,58.815,15.996
	c23.074,3.63,46.485,3.136,69.778,3.812c10.799,0.313,21.725-0.125,32.405-1.806c6.658-1.048,12.533-2.232,19.318-1.936
	c5.166,0.227,9.601-1.587,14.642-1.807c4.026-0.177,7.812-1.14,11.808-1.313c1.86-0.08,3.656,0.18,5.457-0.467
	c1.655-0.594,2.812-2.179,4.362-2.73c2.077-0.738,4.856,0.069,7.097-0.343c2.048-0.377,4.148-1.11,6.12-1.763
	c5.213-1.727,10.178-3.495,15.618-4.423C306.068,426.726,306.702,426.423,307.293,426.016z M199.231,390.812
	c0.012-0.841,0.051-1.679,0.105-2.514c2.75,1.183,5.415,2.531,8.428,2.972c1.987,0.291,4.01,0.283,6.004,0.495
	c2.604,0.278,4.119,1.123,6.397,2.013c3.232,1.265,5.776,1.229,9.223,1.185c6.046-0.079,11.755,0.899,17.71,1.801
	c10.031,1.519,19.56,3.541,29.379,6.03c8.107,2.055,19.487,2.907,25.939,8.785c0.453,0.413,0.851,0.86,1.224,1.322
	c-1.906-0.068-3.756,0.696-4.841,2.495c-3.32,0.988-6.355,2.607-9.427,4.355c-2.544,1.448-5.304,3.523-8.141,4.318
	c-2.117,0.594-4.508,0.142-6.617,0.883c-1.191,0.418-2.046,1.224-3.109,1.805c-2.646,1.446-4.718,2.047-7.7,2.549
	c-3.961,0.666-7.597,1.966-11.634,2.546c-4.945,0.71-8.963,2.413-14.184,2.355c-4.769-0.052-8.95,0.667-13.612,1.557
	c-11.676,2.228-23.93,2.881-35.766,1.748c-11.152-1.065-22.083-2.266-33.289-2.719c-11.536-0.468-22.879-1.313-34.282-3.187
	c-18.956-3.115-37.59-7.382-56.326-11.382c7.154-4.415,15.173-6.405,23.738-8.355c14.293-3.254,29.224-3.017,43.312-7.423
	c6.586-2.06,12.933-4.923,19.441-7.223c2.987-1.055,6.211-1.527,9.27-2.375c0.435,8.972,3.105,19.237,14.285,16.714
	c3.879-0.875,7.333-2.372,11.33-2.837c3.995-0.465,7.892-0.999,10.566-4.347C199.735,400.518,199.165,395.439,199.231,390.812z
	 M494.126,292.602c-12.599,7.571-32.602,6.453-39.536-8.081c-2.949-6.179-3.107-13.173-1.047-19.661
	c1.784-5.617,6.894-9.92,12.283-13.042c2.461-0.315,4.944-0.758,7.582-1.093c6.067-0.771,15.706-0.298,20.598,3.868
	C504.525,263.548,506.891,284.933,494.126,292.602z"/>
<path d="M128.889,149.122c-0.477-2.394-4.269-1.826-4.224,0.571c0.026,1.41-1.63,2.785-2.212,3.982
	c-0.647,1.333-1.09,2.84-1.565,4.24c-1.012,2.984-1.906,6.258-1.436,9.402c0.202,1.351,2.162,2.068,3.233,1.316
	c3.371-2.368,3.563-6.569,4.447-10.306C127.825,155.385,129.489,152.137,128.889,149.122z"/>
<path d="M134.089,160.899c-2.79,3.397-5.449,6.836-7.192,10.901c-1.328,3.093-2.881,7.974-0.055,10.631
	c0.778,0.733,1.777,0.625,2.57,0c2.32-1.826,2.579-5.85,3.63-8.502c1.366-3.44,3.284-6.664,5.269-9.776
	C139.921,161.631,136.05,158.512,134.089,160.899z"/>
<path d="M141.578,174.339c-1.292-0.351-2.474-0.422-3.763-0.01c-2.569,0.82-2.609,3.689-1.122,5.082
	c-0.336,1.442-0.52,2.921-0.746,4.447c-0.17,1.151,0.084,2.698,1.32,3.242c0.512,0.225,0.882,0.358,1.449,0.392
	c1.271,0.077,2.419-0.95,2.769-2.109c0.723-2.401,1.459-4.799,2.297-7.161C144.354,176.618,143.132,174.761,141.578,174.339z"/>
<path d="M61.161,94.4c0.128,1.802,1.232,3.725,3.147,4.134c2.058,0.439,3.714,1.743,5.687,2.469
	c2.152,0.792,4.193,1.392,6.211,2.514c4.725,2.628,8.918-4.531,4.237-7.25c-2.515-1.461-5.199-2.194-7.824-3.36
	c-1.824-0.81-3.259-1.714-4.987-2.291c-2.619-1.657-6.789-0.664-6.51,3.254C61.136,94.046,61.148,94.223,61.161,94.4z"/>
<path d="M114.903,62.641c1.161,2.87,5.44,2.636,5.58-0.755c0.147-3.531-0.713-7.025-1.434-10.464
	c-0.157-0.748-0.349-1.491-0.52-2.237c-0.068-0.291-0.106-0.463-0.13-0.533c0.126-1.737,0.587-3.273,0.467-5.114
	c-0.115-1.771-2.115-3.349-3.812-2.189c-3.031,2.072-5.677,5.257-4.949,9.152C110.894,54.724,113.305,58.692,114.903,62.641z"/>
<path d="M191.326,46.961c0.415-1.54,1.881-2.767,2.892-3.985c1-1.203,1.9-2.366,3.041-3.445c2.426-2.297,5.122-4.951,4.427-8.557
	c-0.242-1.261-1.588-2.089-2.789-2.123c-3.768-0.107-7.81,3.677-9.717,6.631c-2.063,3.195-3.432,6.899-3.789,10.677
	C185.068,49.602,190.457,50.179,191.326,46.961z"/>
<path d="M237.938,75.071c-0.001,0.001-0.001,0.004-0.003,0.005c0.039,0.016,0.079,0.021,0.118,0.035
	c0.012,0.004,0.024,0.008,0.035,0.01c4.124,1.429,7.592-2.675,11.436-3.428c4.101-0.805,9.262,1.891,12.58-1.643
	c0.754-0.803,0.793-1.803,0.356-2.76c-2.248-4.919-10.39-6.068-15.04-4.784c-3.962,1.094-10.356,4.959-11.398,9.205
	C235.663,73.185,236.635,74.642,237.938,75.071z"/>
<path d="M268.52,116.828c2.664-1.3,8.447,0.301,11.221,1.033c3.955,1.043,7.595,3.113,11.437,4.478
	c2.236,0.796,3.953-1.571,3.558-3.558c-2.179-10.985-23.776-14.673-30.21-5.946C262.636,115.402,266.178,117.971,268.52,116.828z"/>
<path d="M287.687,160.35c2.537,0.87,5.127-0.748,6.303-2.972c1.41-2.666,0.394-5.642-1.147-7.993
	c-2.664-4.067-6.704-7.004-10.752-9.558c-3.625-2.287-8.008,3.164-4.653,6.03c2.29,1.957,4.325,4.449,6.229,6.778
	c0.852,1.042,1.461,1.941,2.214,3.267c0,0.001-0.001,0.003-0.001,0.004C284.834,157.673,285.867,159.724,287.687,160.35z"/>
<path d="M64.856,181.642c0.456-1.238,0.377-1.768,1.258-2.947c0.608-0.815,1.427-1.57,2.236-2.275
	c1.865-1.625,3.844-3.145,5.576-4.913c2.333-2.38-0.788-6.858-3.692-4.784c-2.772,1.979-6.036,3.006-8.753,5.145
	c-3.252,2.561-5.449,6.626-3.527,10.676C59.476,185.748,63.841,184.399,64.856,181.642z"/>
<path d="M85.109,206.28c-2.056,1.837-4.419,3.324-6.365,5.284c-2.523,2.54-4.907,6.799-1.9,9.942
	c1.844,1.928,4.642,1.165,6.035-0.777c0.286-0.359,0.484-0.768,0.592-1.227c0.134-1.199,0.176-1.448,0.126-0.747
	c-0.252,0.881,0.35-0.785,0.277-0.742c0.419-0.847,0.937-1.628,1.535-2.359c1.363-1.666,3.005-3.039,4.48-4.596
	C92.897,207.88,88.343,203.391,85.109,206.28z"/>
<path d="M209.7,144.233c7.574-3.103,12.946-13.429,10.855-21.302c-0.491-1.851-3.674-2.098-3.999,0
	c-0.73,4.721-1.848,9.395-4.691,13.346c-2.048,2.847-6.355,5.899-10.205,4.575c-2.739-0.942-4.557-4.43-6.111-6.671
	c-4.286-6.175-7.13-12.604-2.7-19.6c4.259-6.725,12.031-11.385,19.015-5.379c1.988,1.709,4.895-1.166,2.896-2.896
	c-6.941-6.009-15.083-4.951-21.565,1.301c-8.2,7.912-8.498,17.529-2.557,26.879C195.235,141.722,200.352,148.064,209.7,144.233z"/>
<path d="M212.857,175.563c-1.157,0.35-1.654,1.816-0.853,2.744c-0.034,0.186-0.035,0.476-0.062,0.583
	c-0.098,0.397-0.261,0.937-0.472,1.325c-0.337,0.62-0.923,1.066-1.56,1.451c-1.923-1.453-3.594-3.155-3.674-5.76
	c-0.084-2.693-4.193-2.712-4.198,0c-0.01,4.545,2.94,7.7,5.786,10.895c0.613,0.687,1.769,0.979,2.639,0.697
	c3.39-1.096,6.386-2.342,7.195-6.199C218.286,178.325,216.371,174.497,212.857,175.563z"/>
<path d="M112.481,445.803c-0.74-0.843-2.206-0.852-3.05-0.153c-0.989,0.318-1.56,1.425-1.119,2.29
	c-0.01,0.041-0.022,0.081-0.037,0.123c-0.178,0.519-0.225,1.149-0.325,1.692c-0.206,1.124-0.422,2.25-0.342,3.4
	c0.145,2.084,0.983,4.519,2.588,5.909c1.726,1.494,4.16,0.87,4.913-1.297c0.733-2.105-0.316-4.005-0.655-6.067
	C114.08,449.424,114.087,447.631,112.481,445.803z"/>
<path d="M124.018,449.141c-0.468-2.436-4.392-2.4-4.887,0c-0.511,2.476-1.49,5.381-0.447,7.861c0.604,1.435,1.535,2.242,3.114,2.371
	c0.519,0.042,1.022-0.047,1.532-0.148c2.372-0.465,2.654-3.21,1.444-4.841C124.521,452.656,124.352,450.882,124.018,449.141z"/>
<path d="M131.89,451.668c-0.391,2.401-1.24,6.276,1.003,8.044c0.142,0.199,0.299,0.384,0.502,0.562c0.773,0.68,1.792,0.684,2.57,0
	c0.203-0.178,0.36-0.364,0.502-0.562c2.242-1.768,1.393-5.643,1.003-8.044C137.018,448.906,132.34,448.905,131.89,451.668z"/>
<g>
</g>
<g>
</g>
<g>
</g>
<g>
</g>
<g>
</g>
<g>
</g>
<g>
</g>
<g>
</g>
<g>
</g>
<g>
</g>
<g>
</g>
<g>
</g>
<g>
</g>
<g>
</g>
<g>
</g>
</svg>
